<?xml version="1.0" encoding="utf-8"?>
<!-- Generator: Adobe Illustrator 19.0.1, SVG Export Plug-In . SVG Version: 6.00 Build 0)  -->
<svg version="1.1" id="Group_1" xmlns="http://www.w3.org/2000/svg" xmlns:xlink="http://www.w3.org/1999/xlink" x="0px" y="0px"
	 viewBox="0 0 220 220" style="enable-background:new 0 0 220 220;" xml:space="preserve">
<style type="text/css">
	.st0{fill-rule:evenodd;clip-rule:evenodd;fill:#C2C7CA;}
	.st1{clip-path:url(#SVGID_2_);}
	.st2{fill-rule:evenodd;clip-rule:evenodd;fill:#2D3434;}
	.st3{fill-rule:evenodd;clip-rule:evenodd;fill:#82C928;}
	.st4{fill-rule:evenodd;clip-rule:evenodd;fill:#A4AAAC;}
	.st5{fill-rule:evenodd;clip-rule:evenodd;fill:#FFFFFF;}
	.st6{fill-rule:evenodd;clip-rule:evenodd;fill:#3A4141;}
	.st7{fill-rule:evenodd;clip-rule:evenodd;fill:#4E5757;}
</style>
<g id="Ellipse_48_copy_2">
	<g>
		<circle class="st0" cx="110" cy="110" r="110"/>
	</g>
</g>
<g>
	<defs>
		<circle id="SVGID_1_" cx="110" cy="110" r="110"/>
	</defs>
	<clipPath id="SVGID_2_">
		<use xlink:href="#SVGID_1_"  style="overflow:visible;"/>
	</clipPath>
	<g id="back" class="st1">
		<g>
			<path class="st2" d="M169.4,41.6c-1.7-1.2-3.4-1.6-3.6-1.7c-0.2-0.1-4.3-1.1-12.9-2.1c-8.2-1-22.2-2.1-42.9-2.1
				c-20.7,0-34.7,1.2-42.9,2.1c-8.6,1-12.7,2.1-12.9,2.1c-0.2,0-1.9,0.4-3.6,1.7c-1.7,1.2-3.7,3.3-3.7,7v151.5
				c0,3.7,3.4,3.3,5.1,3.4c2.1,0.1,112.9,0.8,115,0.6c3.2-0.2,4.9-2,6.1-4V48.6C173.1,44.9,171.1,42.7,169.4,41.6z"/>
		</g>
	</g>
	<g id="Rectangle_105" class="st1">
		<g>
			<rect x="52" y="58" class="st3" width="115" height="162"/>
		</g>
	</g>
	<g id="Rectangle_104" class="st1">
		<g>
			<polygon class="st4" points="173.2,45.7 173.2,210.4 210.8,201.3 216.3,166.5 			"/>
		</g>
	</g>
</g>
<g id="fa-android">
	<g>
		<path class="st5" d="M87.4,117.1c-2.2,0-4,1.8-4,4v16.8c0,2.2,1.8,4,4,4s4-1.8,4-4v-16.8C91.4,118.9,89.6,117.1,87.4,117.1z
			 M93,143.8c0,2.4,1.9,4.3,4.3,4.3h2.9l0,8.9c0,2.2,1.8,4,4,4c2.2,0,4-1.8,4-4v-8.9h5.4v8.9c0,2.2,1.8,4,4,4s4-1.8,4-4v-8.9h2.9
			c2.3,0,4.3-1.9,4.3-4.3v-26H93V143.8z M119.8,102l2.8-5.1c0.2-0.3,0.1-0.6-0.2-0.8c-0.3-0.1-0.6,0-0.8,0.2l-2.8,5.2
			c-2.4-1.1-5-1.6-7.8-1.6c-2.8,0-5.5,0.6-7.8,1.6l-2.8-5.2c-0.2-0.3-0.5-0.4-0.8-0.2c-0.3,0.2-0.4,0.5-0.2,0.8l2.8,5.1
			c-5.5,2.8-9.2,8.2-9.2,14.4h36.1C128.9,110.2,125.2,104.8,119.8,102z M102.7,109.9c-0.8,0-1.5-0.7-1.5-1.5s0.7-1.5,1.5-1.5
			c0.9,0,1.5,0.7,1.5,1.5S103.5,109.9,102.7,109.9z M119.1,109.9c-0.9,0-1.5-0.7-1.5-1.5s0.7-1.5,1.5-1.5c0.8,0,1.5,0.7,1.5,1.5
			S120,109.9,119.1,109.9z M134.4,117.1c-2.2,0-4,1.8-4,4v16.8c0,2.2,1.8,4,4,4c2.2,0,4-1.8,4-4v-16.8
			C138.4,118.8,136.6,117.1,134.4,117.1z"/>
	</g>
</g>
<g id="base">
	<g>
		<rect x="46.2" y="85.2" class="st6" width="1.2" height="40.5"/>
	</g>
</g>
<g id="edge">
	<g>
		<polygon class="st6" points="45.8,85.6 45.8,125.4 46,125.8 46,85.2 		"/>
	</g>
</g>
<g id="base_1_">
	<g>
		<rect x="172.4" y="68.6" class="st6" width="1.4" height="16.1"/>
	</g>
</g>
<g id="edge_1_">
	<g>
		<polygon class="st6" points="174,68.6 174,84.8 174.2,84.4 174.2,69.1 		"/>
	</g>
</g>
<g id="speaker">
	<g>
		<circle class="st6" cx="110" cy="47.8" r="3.4"/>
	</g>
</g>
<g id="camera">
	<g>
		<ellipse class="st6" cx="67.8" cy="47.7" rx="1.4" ry="1.4"/>
	</g>
</g>
<g id="camera_highlight">
	<g>
		<circle class="st7" cx="67.8" cy="47.7" r="0.8"/>
	</g>
</g>
<g id="camera_lens">
	<g>
		<ellipse class="st6" cx="67.8" cy="47.7" rx="0.3" ry="0.3"/>
	</g>
</g>
</svg>
