<?xml version="1.0" encoding="utf-8"?>
<!-- Generator: Adobe Illustrator 19.0.1, SVG Export Plug-In . SVG Version: 6.00 Build 0)  -->
<svg version="1.1" id="bag_copy" xmlns="http://www.w3.org/2000/svg" xmlns:xlink="http://www.w3.org/1999/xlink" x="0px" y="0px"
	 viewBox="0 0 220 220" style="enable-background:new 0 0 220 220;" xml:space="preserve">
<style type="text/css">
	.st0{fill-rule:evenodd;clip-rule:evenodd;fill:#83CA28;}
	.st1{clip-path:url(#SVGID_2_);}
	.st2{fill:#A1DD3A;}
	.st3{fill-rule:evenodd;clip-rule:evenodd;fill:#D48600;}
	.st4{opacity:0.149;clip-path:url(#SVGID_2_);}
	.st5{fill-rule:evenodd;clip-rule:evenodd;}
	.st6{fill-rule:evenodd;clip-rule:evenodd;fill:#FFD053;}
	.st7{fill-rule:evenodd;clip-rule:evenodd;fill:#F39A00;}
	.st8{clip-path:url(#SVGID_2_);fill:#FFFFFF;}
	.st9{opacity:6.000000e-002;clip-path:url(#SVGID_4_);fill:url(#SVGID_5_);}
	.st10{fill-rule:evenodd;clip-rule:evenodd;fill:#F29A00;}
	.st11{fill-rule:evenodd;clip-rule:evenodd;fill:#D66C00;}
	.st12{fill-rule:evenodd;clip-rule:evenodd;fill:#B0B1B2;}
	.st13{fill-rule:evenodd;clip-rule:evenodd;fill:#EEF2F2;}
	.st14{opacity:5.882353e-002;clip-path:url(#SVGID_2_);}
	.st15{fill-rule:evenodd;clip-rule:evenodd;fill:#FFE461;}
	.st16{fill:#37353A;}
	.st17{opacity:0.2;clip-path:url(#SVGID_2_);}
	.st18{fill-rule:evenodd;clip-rule:evenodd;fill:#FFFFFF;}
</style>
<g id="Ellipse_48_copy_2_2_">
	<g>
		<circle class="st0" cx="110" cy="110" r="110"/>
	</g>
</g>
<g>
	<defs>
		<circle id="SVGID_1_" cx="110" cy="110" r="110"/>
	</defs>
	<clipPath id="SVGID_2_">
		<use xlink:href="#SVGID_1_"  style="overflow:visible;"/>
	</clipPath>
	<g class="st1">
		<path class="st2" d="M2.9,84.9c33-0.2,66.1-0.4,99.1-0.6v-2.2c-30.4-6.6-60.7-13.2-91.1-19.8C7.4,69.4,4.7,77,2.9,84.9
			C2.9,84.9,2.9,84.9,2.9,84.9z"/>
		<path class="st2" d="M103.7,91.9c1.2-1,1.1-1.5-0.3-2.5c-31.1,22.2-62.2,44.4-93.3,66.6c4,8.6,9,16.6,15,23.8
			C51.2,150.5,77.5,121.2,103.7,91.9z"/>
		<path class="st2" d="M104,77c0.3,0.2,0.6,0.4,0.8,0.6c0.5-0.3,0.9-0.6,1.4-0.8c-13.1-22.7-26.3-45.3-39.4-68
			c-6.1,2.6-11.9,5.7-17.4,9.3C67.6,37.8,85.8,57.4,104,77z"/>
		<path class="st2" d="M101.4,86C67.6,93.1,33.8,100.2,0,107.2c0,0.9,0,1.8,0,2.8c0,8.1,0.9,16,2.5,23.5
			c33.3-15.2,66.7-30.4,100-45.6C102.3,86.7,102.4,86.6,101.4,86z"/>
		<path class="st2" d="M107.9,75.6c0.7-0.1,1.3-0.2,2-0.3c-2.6-25-5.1-50.1-7.7-75.1c-6.4,0.4-12.6,1.4-18.7,2.9
			C91.7,27.4,99.8,51.5,107.9,75.6z"/>
		<path class="st2" d="M126.5,91.1c7.7,3.5,15.4,6.9,23.1,10.4c22.7,10.3,45.5,20.6,68.2,30.9c1.5-7.2,2.3-14.7,2.3-22.3
			c0-1.2,0-2.4-0.1-3.5c-33.4-6.8-66.8-13.6-100.2-20.5C118.7,89.4,123.8,89.8,126.5,91.1z"/>
		<path class="st2" d="M69.6,212.3c12.9-39.9,25.7-79.7,38.6-119.6c-0.7-0.3-1.3-0.6-2-0.8c-20.9,35.3-41.7,70.5-62.6,105.8
			C51.5,203.7,60.2,208.6,69.6,212.3z"/>
		<path class="st2" d="M102.8,80.4c0.2-0.3,0.4-0.6,0.6-0.8c0.1-0.3,0.2-0.6,0.3-0.8C81,62.2,58.3,45.6,35.6,29
			c-5.3,4.9-10.2,10.3-14.5,16.2C48.4,56.9,75.6,68.7,102.8,80.4z"/>
		<path class="st2" d="M210.7,154.3c-30.9-21.6-61.8-43.3-92.7-64.9c-0.2,0.4-0.4,0.7-0.6,1.1c-0.2,0.2-0.4,0.4-0.6,0.6
			c26.4,29.1,52.9,58.2,79.3,87.3C202,171,206.9,163,210.7,154.3z"/>
		<path class="st2" d="M115.2,91.9c-0.6,0.3-1.1,0.6-1.7,0.8c12.8,39.7,25.5,79.3,38.3,119c9.3-3.8,17.9-8.9,25.7-14.9
			C156.8,161.9,136,126.9,115.2,91.9z"/>
		<path class="st2" d="M119.7,82.1v2.2c32.5,0.2,65,0.5,97.4,0.7c-1.8-7.9-4.5-15.4-7.9-22.5C179.4,69.1,149.6,75.6,119.7,82.1z"/>
		<path class="st2" d="M126.3,218.8c-4.8-41.9-9.7-83.8-14.5-125.8h-2c-4.7,42-9.3,84-14,126.1c4.6,0.6,9.4,0.9,14.2,0.9
			C115.6,220,121,219.6,126.3,218.8z"/>
		<path class="st2" d="M112.1,75.4c3.1,0,3.2-5,4.2-7.9c3-8.9,6-17.8,9-26.7c4.2-12.4,8.4-24.8,12.6-37.3c-5.2-1.4-10.6-2.4-16.2-3
			C118.6,25.5,115.3,50.5,112.1,75.4z"/>
		<path class="st2" d="M118,79c0.3,0.5,0.6,0.9,0.8,1.4C145.6,68.7,172.3,57,199,45.3c-4.2-5.8-9-11.2-14.3-16.1
			c-22.1,16.4-44.2,32.8-66.4,49.2C118.2,78.6,118.1,78.8,118,79z"/>
		<path class="st2" d="M115.5,76.8h0.6c0.3,0.3,0.6,0.6,0.8,0.8c18-19.7,36.1-39.4,54.1-59.1c-5.4-3.6-11-6.7-17-9.3
			C141.2,31.7,128.3,54.2,115.5,76.8z"/>
	</g>
	<g id="Rectangle_105_1_" class="st1">
		<g>
			<rect x="35" y="84" class="st3" width="150" height="64"/>
		</g>
	</g>
	<g id="Ellipse_105_1_" class="st4">
		<g>
			<circle class="st5" cx="113" cy="88" r="50"/>
		</g>
	</g>
	<g id="Rectangle_106_1_" class="st1">
		<g>
			<polygon class="st6" points="35,84 35,148 48,148 48,98 			"/>
		</g>
	</g>
	<g id="Rectangle_106_copy_1_" class="st1">
		<g>
			<polygon class="st7" points="22,114 38,162 48,162 48,98 			"/>
		</g>
	</g>
	<g id="Rectangle_106_copy_2_3_" class="st1">
		<g>
			<polygon class="st6" points="172,98 172,148 185,148 185,84 			"/>
		</g>
	</g>
	<g id="Rectangle_106_copy_2_1_" class="st1">
		<g>
			<polygon class="st7" points="172,98 172,162 182,162 198,114 			"/>
		</g>
	</g>
	<circle class="st8" cx="110" cy="84" r="50"/>
	<g class="st1">
		<defs>
			<circle id="SVGID_3_" cx="110" cy="84" r="50"/>
		</defs>
		<clipPath id="SVGID_4_">
			<use xlink:href="#SVGID_3_"  style="overflow:visible;"/>
		</clipPath>
		<linearGradient id="SVGID_5_" gradientUnits="userSpaceOnUse" x1="64.3333" y1="114.5" x2="155.1667" y2="114.5">
			<stop  offset="0" style="stop-color:#FFFFFF"/>
			<stop  offset="1" style="stop-color:#000000"/>
		</linearGradient>
		<rect x="64.3" y="109" class="st9" width="90.8" height="11"/>
	</g>
	<g class="st1">
		<path class="st10" d="M110.8,52.2c9.1,0,17.4,3.7,23.3,9.7l-23.3,23.3l23.3,23.3c-6,6-14.2,9.7-23.3,9.7c-18.2,0-33-14.8-33-33
			S92.5,52.2,110.8,52.2z"/>
		<path class="st11" d="M112.9,87.3l-2.2-2.2l2.2-2.2l3.8-3.8l3.7-3.7l5.3-5.3c-3.7-3-8.4-4.8-13.5-4.8c-11.8,0-21.4,9.6-21.4,21.4
			c0,5.4,2,10.4,5.4,14.2c-1.5,2.2-5,2.5-7.4,3.8c4.4,0.8,6.9,0.6,11-0.5c3,2.2,8.1,3.8,12.4,3.8c6.5,0,11.8-2.3,15.5-6l-1.8-1.8
			l-5.4-5.4l-3.7-3.7L112.9,87.3z"/>
		<path class="st12" d="M112.2,65.4c11.8,0,21.5,9.6,21.5,21.4c0,6-2.2,11.5-6,15.3L97.2,71.6C101,67.8,106.4,65.4,112.2,65.4z"/>
		<path class="st13" d="M110.8,63.8c11.8,0,21.4,9.6,21.4,21.4c0,11.8-9.6,21.4-21.4,21.4c-4.2,0-8.2-1.2-11.5-3.3
			c-1.3,0.6-2.8,1.1-4.3,1.4c-2.1,0.4-4.1,0.5-6.1,0.2c2.4-1.4,4.4-3.2,5.9-5.4c-3.3-3.8-5.4-8.7-5.4-14.2
			C89.4,73.4,99,63.8,110.8,63.8z"/>
		<path class="st10" d="M102.6,83h16.3c1.2,0,2.2,1,2.2,2.2l0,0c0,1.2-1,2.2-2.2,2.2h-16.3c-1.2,0-2.2-1-2.2-2.2l0,0
			C100.4,84,101.4,83,102.6,83L102.6,83z M102.6,74.9h16.3c1.2,0,2.2,1,2.2,2.2l0,0c0,1.2-1,2.2-2.2,2.2h-16.3c-1.2,0-2.2-1-2.2-2.2
			l0,0C100.4,75.8,101.4,74.9,102.6,74.9L102.6,74.9z M102.6,91.2h16.3c1.2,0,2.2,1,2.2,2.2l0,0c0,1.2-1,2.2-2.2,2.2h-16.3
			c-1.2,0-2.2-1-2.2-2.2l0,0C100.4,92.2,101.4,91.2,102.6,91.2z"/>
	</g>
	<g id="Ellipse_105_copy_1_" class="st14">
		<g>
			<path d="M66.7,109c8.6,14.9,24.8,25,43.3,25c18.5,0,34.6-10.1,43.3-25H66.7z"/>
		</g>
	</g>
	<g id="Rectangle_104_1_" class="st1">
		<g>
			<polygon class="st15" points="22,114 37.3,246 183,246 198.3,114 			"/>
		</g>
	</g>
	<g id="Shape_1_" class="st1">
		<g>
			<path class="st16" d="M80.2,132.7c-3,0-5.4,2.4-5.4,5.4s2.4,5.4,5.4,5.4c3,0,5.4-2.4,5.4-5.4S83.2,132.7,80.2,132.7z
				 M139.8,132.7c-3,0-5.4,2.4-5.4,5.4s2.4,5.4,5.4,5.4c3,0,5.4-2.4,5.4-5.4S142.8,132.7,139.8,132.7z"/>
		</g>
	</g>
	<g id="Shape_2_" class="st17">
		<g>
			<path class="st5" d="M143.4,144c-0.2-1.9-1.9-3.2-3.8-2.9c-1.9,0.2-3,1.9-2.9,3.8c1,12.8-2.5,25.6-14.1,32.9
				c-8.1,5-18.1,4.9-26.1-0.5C85.2,169.7,82.1,159,83.8,145c0.2-1.9-0.9-3.6-2.8-3.9c-1.8-0.3-3.6,0.9-3.9,2.8
				c-2.8,15.7,2,29.9,15.6,39c5.3,3.5,11.2,5.3,17.2,5.3c5.6,0,11.2-1.6,16.3-4.7C140.1,174.8,144.9,157.7,143.4,144z"/>
		</g>
	</g>
	<g id="Shape__copy" class="st1">
		<g>
			<path class="st18" d="M143.4,139c-0.2-1.9-1.9-3.2-3.8-2.9c-1.9,0.2-3,1.9-2.9,3.8c1,12.8-2.5,25.6-14.1,32.9
				c-8.1,5-18.1,4.9-26.1-0.5C85.2,164.7,82.1,154,83.8,140c0.2-1.9-0.9-3.6-2.8-3.9c-1.8-0.3-3.6,0.9-3.9,2.8
				c-2.8,15.7,2,29.9,15.6,39c5.3,3.5,11.2,5.3,17.2,5.3c5.6,0,11.2-1.6,16.3-4.7C140.1,169.8,144.9,152.7,143.4,139z"/>
		</g>
	</g>
</g>
</svg>
