<?xml version="1.0" encoding="utf-8"?>
<!-- Generator: Adobe Illustrator 19.0.1, SVG Export Plug-In . SVG Version: 6.00 Build 0)  -->
<svg version="1.1" id="Layer_1" xmlns="http://www.w3.org/2000/svg" xmlns:xlink="http://www.w3.org/1999/xlink" x="0px" y="0px"
	 viewBox="0 0 200 200" style="enable-background:new 0 0 200 200;" xml:space="preserve">
<style type="text/css">
	.st0{display:none;fill:#559EE3;}
	.st1{clip-path:url(#SVGID_2_);}
	.st2{fill:#559EE3;}
	.st3{fill:#ECF0F1;}
	.st4{fill:#FFFFFF;}
	.st5{fill-rule:evenodd;clip-rule:evenodd;fill:#437DB4;}
	.st6{fill-rule:evenodd;clip-rule:evenodd;fill:#E1E6EA;}
	.st7{fill-rule:evenodd;clip-rule:evenodd;fill:#284259;}
	.st8{fill-rule:evenodd;clip-rule:evenodd;fill:#F39A00;}
	.st9{clip-path:url(#SVGID_4_);}
	.st10{fill:#FFD053;}
	.st11{fill-rule:evenodd;clip-rule:evenodd;fill:#E1564B;}
	.st12{fill-rule:evenodd;clip-rule:evenodd;fill:#FFFFFF;}
	.st13{fill-rule:evenodd;clip-rule:evenodd;fill:#F29A00;}
	.st14{fill-rule:evenodd;clip-rule:evenodd;fill:#D66C00;}
	.st15{fill-rule:evenodd;clip-rule:evenodd;fill:#B0B1B2;}
	.st16{fill-rule:evenodd;clip-rule:evenodd;fill:#EEF2F2;}
</style>
<circle class="st0" cx="100" cy="100" r="100"/>
<g>
	<defs>
		<circle id="SVGID_1_" cx="100" cy="100" r="100"/>
	</defs>
	<clipPath id="SVGID_2_">
		<use xlink:href="#SVGID_1_"  style="overflow:visible;"/>
	</clipPath>
	<g class="st1">
		<path class="st2" d="M175,147.3c-0.5,0.1-1,0.1-1.5,0.1c-6.6,0-12-5.4-12-12.1c0-6.7,5.4-12.1,12-12.1c0.7,0,1.4,0.1,2,0.2
			c1.6-2.9,4.7-4.9,8.3-4.9c0.7,0,1.5,0.1,2.2,0.3c1.4-0.8,3-1.3,4.7-1.5c1.9-2.2,4.8-3.6,7.9-3.6c0.2,0,0.4,0,0.5,0
			c0.6-4.5,1-9.2,1-13.9c0-18-4.7-34.8-13-49.4H157v-0.1c-0.5,0.1-1,0.1-1.5,0.1c-6.6,0-12-5.4-12-12.1s5.4-12.1,12-12.1
			c0.7,0,1.4,0.1,2,0.2c1.1-2.1,3-3.7,5.3-4.4C145.7,8.3,123.8,0,100,0C53.4,0,14.3,31.9,3.2,75c0.5,0,1-0.1,1.5-0.1
			c1,0,2.1,0.1,3,0.3c2.4-4.4,7-7.4,12.3-7.4c1.1,0,2.2,0.1,3.3,0.4c2.1-1.1,4.4-1.9,6.9-2.2c2.9-3.3,7.1-5.3,11.7-5.3
			c8.2,0,15,6.4,15.7,14.6c0.9-0.2,1.8-0.4,2.7-0.4c5.8,0,10.5,4.8,10.5,10.7c0,2.6-0.9,5-2.5,6.8c0.6,1.6,1,3.3,1,5.1
			c0,7.5-6,13.6-13.4,13.6c0,0,0,0,0,0v0h-49v-0.1C6.1,111,5.4,111,4.6,111c-1.4,0-2.8-0.2-4.1-0.5C5.8,160.8,48.3,200,100,200
			c38.1,0,71.2-21.3,88.1-52.6H175V147.3z"/>
		<path class="st3" d="M157.6,26.7c1.6,0.3,3.1,0.9,4.4,1.7c0.7-1.6,1.8-3.1,3.1-4.3c-0.7-0.6-1.5-1.2-2.2-1.9
			C160.6,23,158.7,24.6,157.6,26.7z"/>
		<path class="st4" d="M165.1,24.1c-1.3,1.2-2.4,2.7-3.1,4.3c-1.3-0.9-2.8-1.4-4.4-1.7c-0.7-0.1-1.3-0.2-2-0.2
			c-6.6,0-12,5.4-12,12.1s5.4,12.1,12,12.1c0.5,0,1,0,1.5-0.1v0.1H187C181.2,40.5,173.8,31.6,165.1,24.1z"/>
		<path class="st3" d="M190.6,117.4c0.5-0.1,1.1-0.1,1.6-0.1c2.2,0,4.2,0.5,6,1.4c0.3-1.6,0.6-3.2,0.8-4.9c-0.2,0-0.4,0-0.5,0
			C195.4,113.8,192.5,115.2,190.6,117.4z"/>
		<path class="st3" d="M175.5,123.5c1.6,0.3,3.1,0.9,4.4,1.7c1.2-2.7,3.4-5,6-6.4c-0.7-0.2-1.4-0.3-2.2-0.3
			C180.2,118.6,177.1,120.6,175.5,123.5z"/>
		<path class="st4" d="M192.2,117.3c-0.5,0-1.1,0-1.6,0.1c-1.7,0.2-3.3,0.7-4.7,1.5c-2.6,1.4-4.8,3.6-6,6.4
			c-1.3-0.9-2.8-1.4-4.4-1.7c-0.7-0.1-1.3-0.2-2-0.2c-6.6,0-12,5.4-12,12.1c0,6.7,5.4,12.1,12,12.1c0.5,0,1,0,1.5-0.1v0.1h13.1
			c4.8-8.8,8.3-18.5,10.2-28.7C196.4,117.8,194.4,117.3,192.2,117.3z"/>
		<path class="st3" d="M52.5,84.4c1.1-0.3,2.2-0.4,3.4-0.4c5.6,0,10.4,3.5,12.4,8.5c1.5-1.9,2.5-4.2,2.5-6.8
			c0-5.9-4.7-10.7-10.5-10.7c-0.9,0-1.8,0.1-2.7,0.4c-0.7-8.2-7.5-14.6-15.7-14.6c-4.7,0-8.9,2.1-11.7,5.3c0.8-0.1,1.6-0.2,2.4-0.2
			C43,65.9,51.6,74,52.5,84.4z"/>
		<path class="st3" d="M23.2,68.2c-1-0.3-2.1-0.4-3.3-0.4c-5.3,0-9.9,3-12.3,7.4c2.4,0.4,4.6,1.3,6.6,2.6
			C16.1,73.6,19.3,70.3,23.2,68.2z"/>
		<path class="st4" d="M6.8,110.9v0.1h49v0c0,0,0,0,0,0c7.4,0,13.4-6.1,13.4-13.6c0-1.8-0.4-3.5-1-5.1c-2-5-6.8-8.5-12.4-8.5
			c-1.2,0-2.3,0.2-3.4,0.4C51.6,74,43,65.9,32.5,65.9c-0.8,0-1.6,0.1-2.4,0.2c-2.5,0.3-4.8,1-6.9,2.2c-3.9,2.1-7.1,5.5-9,9.6
			c-2-1.3-4.2-2.2-6.6-2.6c-1-0.2-2-0.3-3-0.3c-0.5,0-1,0-1.5,0.1C1.1,83,0,91.4,0,100c0,3.6,0.2,7.1,0.6,10.6
			c1.3,0.3,2.7,0.5,4.1,0.5C5.4,111,6.1,111,6.8,110.9z"/>
	</g>
	<g class="st1">
		<g id="Shape_181">
			<g>
				
					<rect x="71" y="92.3" transform="matrix(0.8944 -0.4473 0.4473 0.8944 -51.3701 45.9312)" class="st5" width="1.1" height="78.9"/>
			</g>
		</g>
		<g id="Shape_181_copy">
			<g>
				
					<rect x="89.8" y="131.5" transform="matrix(0.4479 -0.8941 0.8941 0.4479 -46.6966 188.4533)" class="st5" width="79" height="1.1"/>
			</g>
		</g>
		<g id="Shape_182">
			<g>
				
					<rect x="89.2" y="144.4" transform="matrix(0.9796 -0.201 0.201 0.9796 -29.4283 21.2165)" class="st5" width="1.1" height="22.3"/>
			</g>
		</g>
		<g id="Shape_182_copy">
			<g>
				<polygon class="st5" points="112.2,144.6 107.7,166.2 108.8,166.5 113.3,144.8 				"/>
			</g>
		</g>
		<g id="Shape_183">
			<g>
				
					<rect x="95.1" y="145.2" transform="matrix(0.9967 -8.079391e-002 8.079391e-002 0.9967 -12.2545 8.2371)" class="st5" width="1.1" height="20.8"/>
			</g>
		</g>
		<g id="Shape_183_copy">
			<g>
				
					<rect x="93.7" y="155" transform="matrix(8.122226e-002 -0.9967 0.9967 8.122226e-002 -59.4304 246.6238)" class="st5" width="20.7" height="1.1"/>
			</g>
		</g>
		<g id="Rounded_Rectangle_26">
			<g>
				<path class="st6" d="M83.6,141.8c0,0,0,2.2,0,3c0,0.8,0.6,1.5,1.4,1.5h30.8c0.8,0,1.4-0.7,1.4-1.5c0-0.8,0-3,0-3H83.6z"/>
			</g>
		</g>
		<g id="Rounded_Rectangle_25">
			<g>
				<path class="st7" d="M112.2,165.3H88.7c-0.6,0-1.1,0.5-1.1,1.1v16.8c0,0.6,0.5,1.1,1.1,1.1h23.5c0.6,0,1.1-0.5,1.1-1.1v-16.8
					C113.3,165.8,112.8,165.3,112.2,165.3z"/>
			</g>
		</g>
		<g id="Rounded_Rectangle_25_copy">
			<g>
				<path class="st8" d="M112.2,165.3H88.7c-0.6,0-1.1,0.5-1.1,1.1v3.4h25.7v-3.4C113.3,165.8,112.8,165.3,112.2,165.3z"/>
			</g>
		</g>
		<path class="st4" d="M83.9,141.8H117c0.1-0.1,0.2-0.2,0.3-0.3c13.5-17.1,39.2-45.6,39.2-70.1c0-31-25.1-56.1-56-56.1
			s-56,25.1-56,56.1c0,24.7,25.9,53,39.2,70.1C83.7,141.6,83.8,141.7,83.9,141.8z"/>
		<g>
			<defs>
				<path id="SVGID_3_" d="M83.9,141.8H117c0.1-0.1,0.2-0.2,0.3-0.3c13.5-17.1,39.2-45.6,39.2-70.1c0-31-25.1-56.1-56-56.1
					s-56,25.1-56,56.1c0,24.7,25.9,53,39.2,70.1C83.7,141.6,83.8,141.7,83.9,141.8z"/>
			</defs>
			<clipPath id="SVGID_4_">
				<use xlink:href="#SVGID_3_"  style="overflow:visible;"/>
			</clipPath>
			<g id="Ellipse_36" class="st9">
				<g id="Shape_179_copy_4">
					<g>
						<path class="st10" d="M146.3,19.2c-10.9-13.7-35.3-4.4-35.3-4.4s28.7,13.9,30.2,55.4c1.5,40.7-37.6,80.1-33.6,80
							c8.6-0.1,21.9-16.1,32.3-28.4c13.8-16.4,16.4-30.8,16.4-53.3C156.4,52.6,155.5,30.6,146.3,19.2z M59.5,70.6
							C61,28.9,89.5,15.1,89.5,15.1s-24.2-9.3-35.1,4.4c-9.1,11.5-10,33.5-10,49.5c0,22.5,2.7,37,16.3,53.4
							c10.3,12.4,23.5,28.4,32.1,28.5C96.9,150.8,58,111.3,59.5,70.6z"/>
					</g>
				</g>
			</g>
			<g id="Shape_180" class="st9">
				<g>
					<path class="st11" d="M106,13.6c0,0-1.4-1-5.3-1.1c-3.7-0.1-4.5,0.6-5.9,1.1c0,0-11.8,21.5-11.8,52.6c0,42.8,14,93.3,16.5,93.3
						c2.3,0,18.2-50.7,18.2-93.3C117.8,35.2,106,13.6,106,13.6z"/>
				</g>
			</g>
			<g id="Ellipse_38" class="st9">
				<g>
					<circle class="st12" cx="100.4" cy="71.9" r="28"/>
				</g>
			</g>
		</g>
		<g>
			<path class="st13" d="M99.9,48.4c6.5,0,12.3,2.6,16.6,6.9L99.9,71.8l16.6,16.6c-4.2,4.2-10.1,6.9-16.6,6.9
				c-12.9,0-23.4-10.5-23.4-23.4S86.9,48.4,99.9,48.4z"/>
			<path class="st14" d="M101.4,73.3l-1.5-1.5l1.5-1.5l2.7-2.7l2.6-2.6l3.8-3.8c-2.6-2.1-6-3.4-9.6-3.4c-8.4,0-15.2,6.8-15.2,15.2
				c0,3.9,1.4,7.4,3.8,10c-1.1,1.6-3.5,1.8-5.2,2.7c3.1,0.6,4.9,0.4,7.8-0.3c2.2,1.6,5.8,2.7,8.8,2.7c4.6,0,8.3-1.6,11-4.3l-1.3-1.3
				l-3.8-3.8l-2.6-2.6L101.4,73.3z"/>
			<path class="st15" d="M100.9,57.7c8.4,0,15.2,6.8,15.2,15.2c0,4.3-1.5,8.1-4.3,10.9L90.2,62.1C93,59.4,96.7,57.7,100.9,57.7z"/>
			<path class="st16" d="M99.9,56.6c8.4,0,15.2,6.8,15.2,15.2c0,8.4-6.8,15.2-15.2,15.2c-3,0-5.8-0.9-8.1-2.4c-0.9,0.4-2,0.8-3,1
				c-1.5,0.3-2.9,0.3-4.3,0.1c1.7-1,3.1-2.3,4.2-3.9c-2.4-2.7-3.8-6.2-3.8-10C84.7,63.4,91.5,56.6,99.9,56.6z"/>
			<path class="st13" d="M94.1,70.2h11.6c0.8,0,1.5,0.7,1.5,1.5l0,0c0,0.8-0.7,1.5-1.5,1.5H94.1c-0.8,0-1.5-0.7-1.5-1.5l0,0
				C92.5,70.9,93.2,70.2,94.1,70.2L94.1,70.2z M94.1,64.4h11.6c0.8,0,1.5,0.7,1.5,1.5l0,0c0,0.8-0.7,1.5-1.5,1.5H94.1
				c-0.8,0-1.5-0.7-1.5-1.5l0,0C92.5,65.1,93.2,64.4,94.1,64.4L94.1,64.4z M94.1,76h11.6c0.8,0,1.5,0.7,1.5,1.5l0,0
				c0,0.8-0.7,1.5-1.5,1.5H94.1c-0.8,0-1.5-0.7-1.5-1.5l0,0C92.5,76.7,93.2,76,94.1,76z"/>
		</g>
	</g>
</g>
</svg>
