<?xml version="1.0" encoding="utf-8"?>
<!-- Generator: Adobe Illustrator 19.0.1, SVG Export Plug-In . SVG Version: 6.00 Build 0)  -->
<svg version="1.1" id="Layer_1" xmlns="http://www.w3.org/2000/svg" xmlns:xlink="http://www.w3.org/1999/xlink" x="0px" y="0px"
	 viewBox="0 0 160.6 160.6" style="enable-background:new 0 0 160.6 160.6;" xml:space="preserve">
<style type="text/css">
	.st0{fill-rule:evenodd;clip-rule:evenodd;fill:#EDF1F2;}
	.st1{fill-rule:evenodd;clip-rule:evenodd;fill:#284259;}
	.st2{fill-rule:evenodd;clip-rule:evenodd;fill:#6A7884;}
	.st3{fill-rule:evenodd;clip-rule:evenodd;fill:#DEE2E8;}
	.st4{fill-rule:evenodd;clip-rule:evenodd;fill:#9AA1A8;}
	.st5{fill-rule:evenodd;clip-rule:evenodd;fill:#83CA28;}
	.st6{fill-rule:evenodd;clip-rule:evenodd;fill:#D35117;}
	.st7{fill-rule:evenodd;clip-rule:evenodd;fill:#F39C12;}
	.st8{fill-rule:evenodd;clip-rule:evenodd;fill:#D7701E;}
	.st9{fill-rule:evenodd;clip-rule:evenodd;fill:#B2B3B3;}
	.st10{fill-rule:evenodd;clip-rule:evenodd;fill:#ECF0F1;}
</style>
<g>
	<path class="st0" d="M160.6,80.3C160.6,36.1,124.5,0,80.3,0C36.1,0,0,36.1,0,80.3s36.1,80.3,80.3,80.3
		C124.5,160.6,160.6,124.5,160.6,80.3z"/>
	<path class="st1" d="M116.5,23.3H44.2c-4.4,0-8,3.6-8,8v116.1c2.2,1.4,4.4,2.7,6.7,4h75c2.3-1.2,4.5-2.5,6.7-4V31.3
		C124.5,26.9,120.9,23.3,116.5,23.3z"/>
	<path class="st2" d="M42.6,151.2c0.2-0.1,0.5-0.2,0.8-0.2h73.9c0.3,0,0.6,0.1,0.8,0.2c-11.3,6-24.1,9.4-37.8,9.4
		C66.7,160.6,53.8,157.2,42.6,151.2L42.6,151.2z M117.3,150.2H43.4c-0.9,0-1.6-0.7-1.6-1.6v-8c0-0.9,0.7-1.6,1.6-1.6h73.9
		c0.9,0,1.6,0.7,1.6,1.6v8C118.9,149.5,118.1,150.2,117.3,150.2z"/>
	<path class="st3" d="M43.4,45h73.9c0.9,0,1.6,0.7,1.6,1.6v61c0,0.9-0.7,1.6-1.6,1.6H43.4c-0.9,0-1.6-0.7-1.6-1.6v-61
		C41.8,45.7,42.5,45,43.4,45z"/>
	<path class="st0" d="M102.5,45l-47.7,64.3H43.4c-0.9,0-1.6-0.7-1.6-1.6v-61c0-0.9,0.7-1.6,1.6-1.6H102.5z"/>
	<path class="st3" d="M117.3,133.3H91.1c2.3-2.6,3.7-5.9,3.7-9.6c0-4.1-1.7-7.8-4.5-10.4h27c0.9,0,1.6,0.7,1.6,1.6v16.9
		C118.9,132.6,118.1,133.3,117.3,133.3L117.3,133.3z M65.9,123.7c0,3.7,1.4,7.1,3.7,9.6H43.4c-0.9,0-1.6-0.7-1.6-1.6v-16.9
		c0-0.9,0.7-1.6,1.6-1.6h27C67.6,115.9,65.9,119.6,65.9,123.7z"/>
	<rect x="41.8" y="122.9" class="st1" width="77.1" height="0.8"/>
	<path class="st4" d="M91.6,123.7c0-6.2-5.1-11.2-11.2-11.2c-6.2,0-11.2,5.1-11.2,11.2c0,6.2,5.1,11.2,11.2,11.2
		C86.5,134.9,91.6,129.9,91.6,123.7z"/>
	<path class="st1" d="M85.9,123.7c0-3.1-2.5-5.6-5.6-5.6c-3.1,0-5.6,2.5-5.6,5.6c0,3.1,2.5,5.6,5.6,5.6
		C83.4,129.3,85.9,126.8,85.9,123.7z"/>
	<path class="st5" d="M47.8,126.9h10.4c0.7,0,1.2,0.5,1.2,1.2v0.8c0,0.7-0.5,1.2-1.2,1.2H47.8c-0.7,0-1.2-0.5-1.2-1.2v-0.8
		C46.6,127.4,47.1,126.9,47.8,126.9z"/>
	<path class="st6" d="M102.4,126.9h10.4c0.7,0,1.2,0.5,1.2,1.2v0.8c0,0.7-0.5,1.2-1.2,1.2h-10.4c-0.7,0-1.2-0.5-1.2-1.2v-0.8
		C101.2,127.4,101.7,126.9,102.4,126.9z"/>
	<path class="st2" d="M73.1,32.9h15.3c0.9,0,1.6,0.7,1.6,1.6v0.8c0,0.9-0.7,1.6-1.6,1.6H73.1c-0.9,0-1.6-0.7-1.6-1.6v-0.8
		C71.5,33.6,72.2,32.9,73.1,32.9z"/>
	<g>
		<path class="st7" d="M81.5,60.5c4.6,0,8.7,1.9,11.7,4.9L81.5,77.1l11.7,11.7c-3,3-7.1,4.9-11.7,4.9c-9.1,0-16.6-7.4-16.6-16.6
			C65,68,72.4,60.5,81.5,60.5z"/>
		<path class="st8" d="M82.6,78.2l-1.1-1.1l1.1-1.1l1.9-1.9l1.8-1.8l2.7-2.7c-1.9-1.5-4.2-2.4-6.8-2.4c-5.9,0-10.7,4.8-10.7,10.7
			c0,2.7,1,5.2,2.7,7.1c-0.8,1.1-2.5,1.2-3.7,1.9c2.2,0.4,3.5,0.3,5.5-0.2c1.5,1.1,4.1,1.9,6.2,1.9c3.3,0,5.9-1.1,7.8-3l-0.9-0.9
			L86.4,82l-1.8-1.8L82.6,78.2z"/>
		<path class="st9" d="M82.3,67.2c5.9,0,10.8,4.8,10.8,10.7c0,3-1.1,5.7-3,7.7L74.7,70.3C76.6,68.4,79.3,67.2,82.3,67.2z"/>
		<path class="st10" d="M81.5,66.4c5.9,0,10.7,4.8,10.7,10.7c0,5.9-4.8,10.7-10.7,10.7c-2.1,0-4.1-0.6-5.8-1.7
			c-0.7,0.3-1.4,0.6-2.1,0.7c-1,0.2-2.1,0.2-3.1,0.1c1.2-0.7,2.2-1.6,3-2.7c-1.7-1.9-2.7-4.4-2.7-7.1C70.8,71.2,75.6,66.4,81.5,66.4
			z"/>
		<path class="st7" d="M77.4,76h8.2c0.6,0,1.1,0.5,1.1,1.1l0,0c0,0.6-0.5,1.1-1.1,1.1h-8.2c-0.6,0-1.1-0.5-1.1-1.1l0,0
			C76.3,76.5,76.8,76,77.4,76L77.4,76z M77.4,71.9h8.2c0.6,0,1.1,0.5,1.1,1.1l0,0c0,0.6-0.5,1.1-1.1,1.1h-8.2
			c-0.6,0-1.1-0.5-1.1-1.1l0,0C76.3,72.4,76.8,71.9,77.4,71.9L77.4,71.9z M77.4,80.1h8.2c0.6,0,1.1,0.5,1.1,1.1l0,0
			c0,0.6-0.5,1.1-1.1,1.1h-8.2c-0.6,0-1.1-0.5-1.1-1.1l0,0C76.3,80.6,76.8,80.1,77.4,80.1z"/>
	</g>
</g>
</svg>
