<?xml version="1.0" encoding="utf-8"?>
<!-- Generator: Adobe Illustrator 19.0.1, SVG Export Plug-In . SVG Version: 6.00 Build 0)  -->
<svg version="1.1" id="Layer_1" xmlns="http://www.w3.org/2000/svg" xmlns:xlink="http://www.w3.org/1999/xlink" x="0px" y="0px"
	 viewBox="0 0 160.6 160.6" style="enable-background:new 0 0 160.6 160.6;" xml:space="preserve">
<style type="text/css">
	.st0{fill-rule:evenodd;clip-rule:evenodd;fill:#EDF1F2;}
	.st1{fill-rule:evenodd;clip-rule:evenodd;fill:#9C9C9C;}
	.st2{fill-rule:evenodd;clip-rule:evenodd;fill:#284259;}
	.st3{fill-rule:evenodd;clip-rule:evenodd;fill:#DDE2E8;}
	.st4{fill-rule:evenodd;clip-rule:evenodd;fill:#DADADA;}
	.st5{fill-rule:evenodd;clip-rule:evenodd;fill:#C6C6C6;}
	.st6{fill-rule:evenodd;clip-rule:evenodd;fill:#878787;}
	.st7{fill-rule:evenodd;clip-rule:evenodd;fill:#EDF0F2;}
	.st8{fill-rule:evenodd;clip-rule:evenodd;fill:#F29A00;}
	.st9{fill-rule:evenodd;clip-rule:evenodd;fill:#D66B00;}
	.st10{fill-rule:evenodd;clip-rule:evenodd;fill:#AFB1B1;}
	.st11{fill-rule:evenodd;clip-rule:evenodd;fill:#EDF2F2;}
</style>
<g>
	<path class="st0" d="M160.6,80.3C160.6,36.1,124.5,0,80.3,0S0,36.1,0,80.3s36.1,80.3,80.3,80.3S160.6,124.5,160.6,80.3z"/>
	<path class="st1" d="M144.6,148.1c0.1,1.4-0.9,2.1-2.3,2.1H18.3c-1.4,0-2.4-0.7-2.3-2.1l4-49.4c0.1-1.4,1.3-2.5,2.7-2.5h115
		c1.4,0,2.6,1.1,2.7,2.5L144.6,148.1z"/>
	<path class="st2" d="M140.6,88.7c0,2.7-2.2,5-5,5H24.8c-2.7,0-5-2.2-5-5V24.2c0-2.7,2.2-5,5-5h110.8c2.7,0,5,2.2,5,5V88.7z"/>
	<rect x="24.9" y="25.6" class="st3" width="109.2" height="60.4"/>
	<path class="st4" d="M144.6,145.4c0.1,1.4-0.9,2.3-2.3,2.3H18.3c-1.4,0-2.4-0.9-2.3-2.3l4-48.4c0.1-1.4,1.3-1.9,2.7-1.9h115
		c1.4,0,2.6,0.6,2.7,1.9L144.6,145.4z"/>
	<rect x="35.2" y="92.4" class="st2" width="89.9" height="7.7"/>
	<path class="st5" d="M136.3,128c0.1,1.4-0.9,3-2.2,3H25.4c-1.4,0-2.4-1.6-2.3-3l2.1-23.7c0.1-1.4,1.3-2.9,2.7-2.9h103.3
		c1.4,0,2.6,1.5,2.7,2.9L136.3,128z"/>
	<polygon class="st5" points="93.4,145.1 66.1,145.1 67,131 92.4,131 	"/>
	<path class="st6" d="M85.9,147.7H73.7c0,0,0.1-1.3,1.7-1.3c1.2,0,6.2,0,8.8,0C85.8,146.4,85.9,147.7,85.9,147.7z"/>
	<polygon class="st2" points="131.7,107.8 27.3,107.8 27.8,104 131.2,104 	"/>
	<polygon class="st2" points="132.4,114.3 26.6,114.3 27,110.4 131.9,110.4 	"/>
	<polygon class="st2" points="133.1,119.4 26.1,119.4 26.5,116.8 132.6,116.8 	"/>
	<polygon class="st2" points="134.3,127.1 25.4,127.1 25.8,123.3 133.8,123.3 	"/>
	<polygon class="st7" points="103,25.6 55.4,86 24.9,86 24.9,25.6 	"/>
	<g>
		<path class="st8" d="M82.2,40.5c4.1,0,7.8,1.7,10.5,4.3L82.2,55.3l10.5,10.5c-2.7,2.7-6.4,4.3-10.5,4.3c-8.2,0-14.8-6.6-14.8-14.8
			C67.4,47.2,74.1,40.5,82.2,40.5z"/>
		<path class="st9" d="M83.2,56.3l-1-1l1-1l1.7-1.7l1.7-1.7l2.4-2.4c-1.7-1.3-3.8-2.2-6.1-2.2c-5.3,0-9.6,4.3-9.6,9.6
			c0,2.4,0.9,4.7,2.4,6.4c-0.7,1-2.2,1.1-3.3,1.7c2,0.4,3.1,0.3,4.9-0.2c1.4,1,3.7,1.7,5.5,1.7c2.9,0,5.3-1,6.9-2.7L89,62.1
			l-2.4-2.4L84.9,58L83.2,56.3z"/>
		<path class="st10" d="M82.9,46.5c5.3,0,9.6,4.3,9.6,9.6c0,2.7-1,5.1-2.7,6.9L76.1,49.3C77.9,47.5,80.3,46.5,82.9,46.5z"/>
		<path class="st11" d="M82.2,45.8c5.3,0,9.6,4.3,9.6,9.6c0,5.3-4.3,9.6-9.6,9.6c-1.9,0-3.7-0.6-5.2-1.5c-0.6,0.3-1.2,0.5-1.9,0.6
			c-0.9,0.2-1.9,0.2-2.7,0.1c1.1-0.6,2-1.5,2.6-2.4c-1.5-1.7-2.4-3.9-2.4-6.4C72.6,50,76.9,45.8,82.2,45.8z"/>
		<path class="st8" d="M78.6,54.4h7.3c0.5,0,1,0.4,1,1c0,0.5-0.4,1-1,1h-7.3c-0.5,0-1-0.4-1-1C77.6,54.8,78,54.4,78.6,54.4
			L78.6,54.4z M78.6,50.7L78.6,50.7h7.3c0.5,0,1,0.4,1,1c0,0.5-0.4,1-1,1h-7.3c-0.5,0-1-0.4-1-1C77.6,51.1,78,50.7,78.6,50.7
			L78.6,50.7z M78.6,58L78.6,58h7.3c0.5,0,1,0.4,1,1c0,0.5-0.4,1-1,1h-7.3c-0.5,0-1-0.4-1-1C77.6,58.5,78,58,78.6,58z"/>
	</g>
</g>
</svg>
