<?xml version="1.0" encoding="utf-8"?>
<!-- Generator: Adobe Illustrator 19.0.1, SVG Export Plug-In . SVG Version: 6.00 Build 0)  -->
<svg version="1.1" id="Layer_1" xmlns="http://www.w3.org/2000/svg" xmlns:xlink="http://www.w3.org/1999/xlink" x="0px" y="0px"
	 viewBox="0 0 160.6 160.6" style="enable-background:new 0 0 160.6 160.6;" xml:space="preserve">
<style type="text/css">
	.st0{fill-rule:evenodd;clip-rule:evenodd;fill:#EDF1F2;}
	.st1{fill-rule:evenodd;clip-rule:evenodd;fill:#284259;}
	.st2{fill-rule:evenodd;clip-rule:evenodd;fill:#DDE2E8;}
	.st3{fill-rule:evenodd;clip-rule:evenodd;fill:#EDF0F2;}
	.st4{fill-rule:evenodd;clip-rule:evenodd;fill:#B8B8BA;}
	.st5{fill-rule:evenodd;clip-rule:evenodd;fill:#F29A00;}
	.st6{fill-rule:evenodd;clip-rule:evenodd;fill:#D66B00;}
	.st7{fill-rule:evenodd;clip-rule:evenodd;fill:#AFB1B1;}
	.st8{fill-rule:evenodd;clip-rule:evenodd;fill:#EDF2F2;}
</style>
<g>
	<path class="st0" d="M160.6,80.3C160.6,36.1,124.5,0,80.3,0C36.1,0,0,36.1,0,80.3s36.1,80.3,80.3,80.3
		C124.5,160.6,160.6,124.5,160.6,80.3z"/>
	<path class="st1" d="M112.6,19.1H48.3c-11.8,0-16.1,4.2-16.1,16.1v109.5c1.5,1.1,3,2.1,4.5,3.1h86.9c1.7-1.1,3.3-2.2,4.8-3.4V35.2
		C128.6,23.4,124.4,19.1,112.6,19.1z"/>
	<path class="st2" d="M36.8,147.8V36.5h87v111.4c-12.5,8.1-27.4,12.7-43.4,12.7C64.3,160.6,49.3,155.9,36.8,147.8z"/>
	<path class="st3" d="M36.8,147.8V36.5h67.6l-54.7,118C45.1,152.7,40.8,150.4,36.8,147.8z"/>
	<path class="st4" d="M90.1,25.2c0,0.7-0.8,1.2-1.8,1.2H72.6c-1,0-1.8-0.5-1.8-1.2c0-0.7,0.8-1.2,1.8-1.2h15.7
		C89.3,24,90.1,24.6,90.1,25.2z"/>
	<circle class="st4" cx="92.7" cy="25.3" r="1.3"/>
	<circle class="st4" cx="96.3" cy="25.3" r="1.3"/>
	<path class="st4" d="M110.9,25.9c0,1-0.8,1.8-1.8,1.8c-1,0-1.8-0.8-1.8-1.8c0-1,0.8-1.8,1.8-1.8C110.1,24.1,110.9,24.9,110.9,25.9z
		"/>
	<g>
		<path class="st5" d="M82.4,70.2c6.8,0,12.9,2.8,17.4,7.2L82.4,94.8l17.4,17.4c-4.5,4.4-10.6,7.2-17.4,7.2
			c-13.6,0-24.6-11-24.6-24.6C57.8,81.2,68.8,70.2,82.4,70.2z"/>
		<path class="st6" d="M84,96.4l-1.6-1.6l1.6-1.6l2.9-2.9l2.7-2.7l3.9-3.9c-2.8-2.2-6.3-3.6-10.1-3.6c-8.8,0-15.9,7.1-15.9,15.9
			c0,4,1.5,7.7,4,10.6c-1.1,1.6-3.7,1.8-5.5,2.9c3.3,0.6,5.1,0.4,8.2-0.3c2.3,1.6,6.1,2.9,9.2,2.9c4.8,0,8.8-1.7,11.5-4.5l-1.4-1.4
			l-4-4l-2.7-2.7L84,96.4z"/>
		<path class="st7" d="M83.5,80c8.8,0,16,7.2,16,16c0,4.5-1.6,8.5-4.5,11.4L72.2,84.7C75.1,81.8,79.1,80,83.5,80z"/>
		<path class="st8" d="M82.4,78.9c8.8,0,15.9,7.1,15.9,15.9c0,8.8-7.1,15.9-15.9,15.9c-3.2,0-6.1-0.9-8.6-2.5c-1,0.5-2.1,0.8-3.2,1
			c-1.5,0.3-3.1,0.3-4.6,0.1c1.8-1,3.2-2.4,4.4-4.1c-2.5-2.8-4-6.5-4-10.6C66.4,86,73.6,78.9,82.4,78.9z"/>
		<path class="st5" d="M76.3,93.2h12.2c0.9,0,1.6,0.7,1.6,1.6c0,0.9-0.7,1.6-1.6,1.6H76.3c-0.9,0-1.6-0.7-1.6-1.6
			C74.7,93.9,75.4,93.2,76.3,93.2L76.3,93.2z M76.3,87.1L76.3,87.1h12.2c0.9,0,1.6,0.7,1.6,1.6c0,0.9-0.7,1.6-1.6,1.6H76.3
			c-0.9,0-1.6-0.7-1.6-1.6C74.7,87.8,75.4,87.1,76.3,87.1L76.3,87.1z M76.3,99.3L76.3,99.3h12.2c0.9,0,1.6,0.7,1.6,1.6
			c0,0.9-0.7,1.6-1.6,1.6H76.3c-0.9,0-1.6-0.7-1.6-1.6C74.7,100,75.4,99.3,76.3,99.3z"/>
	</g>
</g>
</svg>
