<?xml version="1.0" encoding="utf-8"?>
<!-- Generator: Adobe Illustrator 19.0.1, SVG Export Plug-In . SVG Version: 6.00 Build 0)  -->
<svg version="1.1" id="_x30_1" xmlns="http://www.w3.org/2000/svg" xmlns:xlink="http://www.w3.org/1999/xlink" x="0px" y="0px"
	 viewBox="0 0 206 206" style="enable-background:new 0 0 206 206;" xml:space="preserve">
<style type="text/css">
	.st0{fill:#D9DFE1;}
	.st1{fill:#FFFFFF;}
	.st2{fill-rule:evenodd;clip-rule:evenodd;fill:#83CA28;}
	.st3{fill:#83CA28;}
	.st4{fill:#ECF0F1;}
	.st5{opacity:0.2;}
	.st6{fill-rule:evenodd;clip-rule:evenodd;fill:#284259;}
	.st7{fill-rule:evenodd;clip-rule:evenodd;fill:#45853D;}
	.st8{fill:#D48600;}
	.st9{fill:#F39A00;}
	.st10{fill-rule:evenodd;clip-rule:evenodd;fill:#FFFFFF;}
</style>
<g id="Ellipse_18_copy_9_2_">
	<path class="st0" d="M111.4,5.9C56.2,2.9,9.1,45.3,6.2,100.5c-1.3,23.9,5.9,46.3,18.9,64.2c-5.9,8.7-14.5,15.2-24.4,18.3
		c4.1,0.9,8.5,1.5,13,1.7c9.7,0.5,18.9-0.6,26.9-3.1c16.2,14,37,23,60,24.3c55.1,3,102.2-39.4,105.2-94.6
		C208.8,56,166.5,8.8,111.4,5.9z"/>
</g>
<g id="Ellipse_18_copy_4_2_">
	<path class="st1" d="M101,0C45.8,0,1,44.8,1,100.1c0,23.9,8.4,45.9,22.4,63.1c-5.5,9-13.7,15.9-23.4,19.6c4.2,0.7,8.6,1,13.1,1
		c9.7,0,18.9-1.7,26.7-4.6c16.9,13.2,38.2,21,61.2,21c55.2,0,100-44.8,100-100.1S156.3,0,101,0z"/>
</g>
<g>
	<g id="Ellipse_48_copy_2">
		<g>
			<circle class="st2" cx="101" cy="100.1" r="90"/>
		</g>
	</g>
	<g>
		<path class="st3" d="M191,100.1c0-49.7-40.3-90-90-90s-90,40.3-90,90c0,26.2,11.2,49.7,29,66.2V55.6c0-3,2.4-5.4,5.4-5.4h111.2
			c3,0,5.4,2.4,5.4,5.4v110.8C179.9,149.9,191,126.3,191,100.1z"/>
		<path class="st4" d="M156.7,50.2H45.4c-3,0-5.4,2.4-5.4,5.4v110.8c16,14.8,37.5,23.8,61,23.8c23.5,0,45-9,61-23.8V55.6
			C162,52.6,159.6,50.2,156.7,50.2z"/>
		<path class="st5" d="M185,132.5l-23-78.2v112C172.1,157.1,180,145.5,185,132.5z"/>
	</g>
	<g id="Rounded_Rectangle_33">
		<g>
			<path class="st6" d="M148,62.1H54c-1.1,0-2,0.9-2,2v29c0,1.1,0.9,2,2,2h94c1.1,0,2-0.9,2-2v-29C150,63,149.1,62.1,148,62.1z"/>
		</g>
	</g>
	<g id="Rounded_Rectangle_31_copy_3">
		<g>
			<path class="st7" d="M145,107.1h-19c-2.8,0-5,2.2-5,5v52c0,2.8,2.2,5,5,5h19c2.8,0,5-2.2,5-5v-52
				C150,109.4,147.8,107.1,145,107.1z"/>
		</g>
	</g>
	<g id="Rounded_Rectangle_31_copy_4">
		<g>
			<path class="st2" d="M145,106.1h-19c-2.8,0-5,2.2-5,5v52c0,2.8,2.2,5,5,5h19c2.8,0,5-2.2,5-5v-52
				C150,108.4,147.8,106.1,145,106.1z"/>
		</g>
	</g>
	<g id="Rounded_Rectangle_31_copy_5">
		<g>
			<path class="st8" d="M76,107.1H57c-2.8,0-5,2.2-5,5v19c0,2.8,2.2,5,5,5h19c2.8,0,5-2.2,5-5v-19C81,109.4,78.8,107.1,76,107.1z
				 M109,107.1H90c-2.8,0-5,2.2-5,5v19c0,2.8,2.2,5,5,5h19c2.8,0,5-2.2,5-5v-19C114,109.4,111.8,107.1,109,107.1z M76,140.1H57
				c-2.8,0-5,2.2-5,5v19c0,2.8,2.2,5,5,5h19c2.8,0,5-2.2,5-5v-19C81,142.4,78.8,140.1,76,140.1z M109,140.1H90c-2.8,0-5,2.2-5,5v19
				c0,2.8,2.2,5,5,5h19c2.8,0,5-2.2,5-5v-19C114,142.4,111.8,140.1,109,140.1z"/>
		</g>
	</g>
	<g id="Rounded_Rectangle_31_copy_6">
		<g>
			<path class="st9" d="M76,106.1H57c-2.8,0-5,2.2-5,5v19c0,2.8,2.2,5,5,5h19c2.8,0,5-2.2,5-5v-19C81,108.4,78.8,106.1,76,106.1z
				 M109,106.1H90c-2.8,0-5,2.2-5,5v19c0,2.8,2.2,5,5,5h19c2.8,0,5-2.2,5-5v-19C114,108.4,111.8,106.1,109,106.1z M76,139.1H57
				c-2.8,0-5,2.2-5,5v19c0,2.8,2.2,5,5,5h19c2.8,0,5-2.2,5-5v-19C81,141.4,78.8,139.1,76,139.1z M109,139.1H90c-2.8,0-5,2.2-5,5v19
				c0,2.8,2.2,5,5,5h19c2.8,0,5-2.2,5-5v-19C114,141.4,111.8,139.1,109,139.1z"/>
		</g>
	</g>
	<g id="Ellipse_100_copy">
		<g>
			<path class="st1" d="M94,152.9v2.5h11v-2.5H94z M99.5,151.3c1.2,0,2.1-0.9,2.1-2.1s-1-2.1-2.1-2.1s-2.1,0.9-2.1,2.1
				S98.4,151.3,99.5,151.3z M99.5,157c-1.2,0-2.1,0.9-2.1,2.1s1,2.1,2.1,2.1s2.1-0.9,2.1-2.1S100.7,157,99.5,157z"/>
		</g>
	</g>
	<g id="Rectangle_117_copy">
		<g>
			<path class="st1" d="M130,131.1v3.2h11v-3.2H130z M130,139.1h11v-3.2h-11V139.1z"/>
		</g>
	</g>
	<g id="Rectangle_117_copy_2">
		<g>
			<polygon class="st1" points="73,119.4 68.8,119.4 68.8,115.1 66.3,115.1 66.3,119.4 62,119.4 62,121.9 66.3,121.9 66.3,126.1 
				68.8,126.1 68.8,121.9 73,121.9 			"/>
		</g>
	</g>
	<g id="Rectangle_117_copy_3">
		<g>
			<polygon class="st1" points="71,150.8 69.3,149.1 66.5,151.9 63.7,149.1 62,150.8 64.8,153.6 62,156.4 63.7,158.1 66.5,155.3 
				69.3,158.1 71,156.4 68.2,153.6 			"/>
		</g>
	</g>
	<g id="Rectangle_117">
		<g>
			<rect x="94" y="119.1" class="st10" width="11" height="2"/>
		</g>
	</g>
	<g id="Rectangle_117_copy_4">
		<g>
			<rect x="94" y="119.1" class="st10" width="11" height="2"/>
		</g>
	</g>
	<g id="Rectangle_117_copy_5">
		<g>
			<rect x="94" y="119.1" class="st10" width="11" height="2"/>
		</g>
	</g>
	<g>
		<path class="st4" d="M109.2,84.5h-1.9V77c0-0.9,0-1.6,0.1-2.1c-0.1,0.1-0.3,0.3-0.5,0.4s-0.8,0.6-1.8,1.5l-0.9-1.2l3.4-2.7h1.6
			V84.5z"/>
		<path class="st4" d="M120.9,84.5H113v-1.4l3-3c0.9-0.9,1.5-1.6,1.8-1.9c0.3-0.4,0.5-0.7,0.6-1.1s0.2-0.7,0.2-1.1
			c0-0.5-0.2-0.9-0.5-1.2c-0.3-0.3-0.8-0.5-1.3-0.5c-0.4,0-0.9,0.1-1.3,0.2c-0.4,0.2-0.9,0.5-1.4,0.9l-1-1.2
			c0.6-0.5,1.3-0.9,1.9-1.2s1.3-0.3,2-0.3c1.1,0,2,0.3,2.6,0.9c0.7,0.6,1,1.3,1,2.3c0,0.5-0.1,1-0.3,1.5c-0.2,0.5-0.5,1-0.9,1.5
			c-0.4,0.5-1,1.2-1.9,2l-2,2v0.1h5.5V84.5z"/>
		<path class="st4" d="M129.8,75.5c0,0.7-0.2,1.4-0.6,1.8c-0.4,0.5-1,0.8-1.8,1v0.1c0.9,0.1,1.6,0.4,2.1,0.9
			c0.5,0.5,0.7,1.1,0.7,1.9c0,1.1-0.4,2-1.2,2.6c-0.8,0.6-1.9,0.9-3.4,0.9c-1.3,0-2.4-0.2-3.3-0.6v-1.7c0.5,0.2,1,0.4,1.6,0.6
			c0.6,0.1,1.1,0.2,1.6,0.2c0.9,0,1.6-0.2,2-0.5c0.4-0.3,0.7-0.9,0.7-1.6c0-0.6-0.2-1.1-0.7-1.4s-1.3-0.4-2.3-0.4h-1v-1.5h1
			c1.9,0,2.8-0.6,2.8-1.9c0-0.5-0.2-0.9-0.5-1.2s-0.8-0.4-1.4-0.4c-0.4,0-0.9,0.1-1.3,0.2s-0.9,0.4-1.5,0.7l-0.9-1.3
			c1.1-0.8,2.3-1.2,3.7-1.2c1.2,0,2.1,0.3,2.8,0.8C129.5,73.9,129.8,74.6,129.8,75.5z"/>
		<path class="st4" d="M140,82h-1.6v2.5h-1.8V82h-5.3v-1.4l5.3-7.7h1.8v7.6h1.6V82z M136.6,80.4v-2.9c0-1,0-1.9,0.1-2.6h-0.1
			c-0.1,0.4-0.4,0.8-0.7,1.3l-2.9,4.2H136.6z"/>
	</g>
</g>
</svg>
