<?xml version="1.0" encoding="utf-8"?>
<!-- Generator: Adobe Illustrator 19.0.1, SVG Export Plug-In . SVG Version: 6.00 Build 0)  -->
<svg version="1.1" id="ico" xmlns="http://www.w3.org/2000/svg" xmlns:xlink="http://www.w3.org/1999/xlink" x="0px" y="0px"
	 viewBox="0 0 90 90" style="enable-background:new 0 0 90 90;" xml:space="preserve">
<style type="text/css">
	.st0{fill-rule:evenodd;clip-rule:evenodd;fill:#A2DD3B;}
	.st1{fill:#FFFFFF;}
</style>
<g>
	<g id="Ellipse_47_copy_2_">
		<g>
			<circle class="st0" cx="45" cy="45" r="45"/>
		</g>
	</g>
</g>
<g id="Shape_1">
	<g>
		<path class="st1" d="M65.1,63.6c-4.5-8-13-13-13-13c-0.5,0.5-4.1,3.1-5,6.8c-3.7-2.1-11.4-7.5-15.3-16.6c3.2-1.1,5.4-4.2,5.9-4.7
			c0,0-4.9-8.3-12.7-12.7c0,0-4.6,3.3-4.9,7.9l0,0c0,0-1.7,8.3,13.6,24c12.9,13.3,19.3,13.9,23.4,13.3c0.7,0,1.4-0.2,2-0.4
			c0,0,0,0,0,0l0,0C62.6,67.1,65.1,63.6,65.1,63.6z"/>
	</g>
</g>
<g id="Shape_2">
	<g>
		<path class="st1" d="M57,32.3C57,32.3,57,32.3,57,32.3C57,32.3,57,32.3,57,32.3C56.9,32.2,56.9,32.2,57,32.3c-2.4-2.4-6-3.4-9.1-2
			c-0.9,0.4-0.2,1.7,0.7,1.4c0,0,0,0,0,0c0,0,0,0,0,0c0,0,0,0,0,0c0,0,0,0,0,0c0.2-0.1,0.3-0.1,0.5-0.2c0.5-0.2,1.1-0.2,1.7-0.3
			c1.9-0.1,3.7,0.8,5,2.2c1.4,1.4,2.2,3.1,2.2,5c0,0.6-0.1,1.1-0.3,1.7c0,0.2-0.1,0.3-0.2,0.5c0,0,0,0,0,0c0,0,0,0,0,0c0,0,0,0,0,0
			c0,0,0,0,0,0c-0.4,0.9,0.9,1.6,1.4,0.7C60.4,38.3,59.3,34.7,57,32.3C57,32.3,57,32.3,57,32.3z M62.3,26.6
			C62.3,26.6,62.3,26.6,62.3,26.6C62.2,26.6,62.2,26.6,62.3,26.6c-0.1-0.1-0.1-0.1-0.2-0.2c0,0,0,0,0,0c-4-4-9.3-6.6-15.1-6.5
			c-2.5,0-5.3,0.4-7.6,1.5c-0.9,0.4-0.1,1.8,0.8,1.4c0,0,0.1,0,0.1-0.1c0,0,0,0,0,0c0.1,0,0.1,0,0.2-0.1c0.5-0.2,0.9-0.3,1.4-0.5
			c1.6-0.5,3.3-0.7,4.9-0.7c5.4-0.1,10.4,2.3,14.2,6.1c3.9,3.8,6.2,8.7,6.1,14.2c0,1.6-0.3,3.3-0.7,4.8c-0.1,0.5-0.3,1-0.5,1.4
			c0,0.1-0.1,0.1-0.1,0.2c0,0,0,0,0,0c0,0,0,0,0,0c0,0,0,0.1-0.1,0.1c-0.4,0.9,0.9,1.7,1.4,0.8c1.1-2.3,1.5-5,1.5-7.6
			C68.9,35.9,66.3,30.6,62.3,26.6z"/>
	</g>
</g>
</svg>
