<?xml version="1.0" encoding="utf-8"?>
<!-- Generator: Adobe Illustrator 19.0.1, SVG Export Plug-In . SVG Version: 6.00 Build 0)  -->
<svg version="1.1" id="Group_6" xmlns="http://www.w3.org/2000/svg" xmlns:xlink="http://www.w3.org/1999/xlink" x="0px" y="0px"
	 viewBox="0 0 220 220" style="enable-background:new 0 0 220 220;" xml:space="preserve">
<style type="text/css">
	.st0{fill-rule:evenodd;clip-rule:evenodd;fill:#57A2E8;}
	.st1{fill:#83CA28;}
	.st2{fill:#45853D;}
	.st3{fill:#A2DD3B;}
	.st4{fill:#C2C7CA;}
	.st5{fill:#6EDAF0;}
	.st6{fill:#9CE4F4;}
	.st7{fill:#6FDAF1;}
	.st8{fill:#9CE5F4;}
	.st9{fill:#DF2C2C;}
	.st10{fill:#BF0302;}
	.st11{fill:#FFFFFF;}
	.st12{fill:#3E3E3F;}
</style>
<g id="Ellipse_48_copy_2">
	<g>
		<circle class="st0" cx="110" cy="110" r="110"/>
	</g>
</g>
<g>
	<path class="st1" d="M219.4,121.3c-1.3-0.2-2.6-0.3-3.9-0.3c-11.3,0-20.6,8.3-22.2,19.1c-5.4-2-11.2-3.1-17.3-3.1
		c-27.1,0-49,21.9-49,49c0,11.5,4,22.1,10.7,30.5C181.5,205.1,214.7,167.5,219.4,121.3z"/>
	<path class="st1" d="M23.5,111c-8.3,0-16.1,1.6-23.4,4.5c2.2,45.5,32.1,83.8,73.3,98.3c8.5-10.8,13.6-24.4,13.6-39.3
		C87,139.4,58.6,111,23.5,111z"/>
</g>
<g>
	<path class="st2" d="M188.9,168.7c-1.2-9.9-9.6-17.7-19.9-17.7c-11,0-20,9-20,20c0,11,9,20,20,20c7.2,0,13.5-3.8,17-9.5
		c0.8,1.8,2.1,3.3,3.6,4.4c5.1-5.3,9.6-11.1,13.5-17.3c-1.9-1.6-4.4-2.6-7.1-2.6C193.3,166,190.8,167,188.9,168.7z"/>
	<path class="st2" d="M204.5,148c-3.6,0-6.5,2.9-6.5,6.5s2.9,6.5,6.5,6.5c1.3,0,2.5-0.4,3.5-1c1-2,2-4.1,2.9-6.2
		C210.6,150.5,207.8,148,204.5,148z"/>
	<path class="st2" d="M68,180c0-9.9-8.1-18-18-18c-3.3,0-6.4,0.9-9.1,2.5C37,155.4,28,149,17.5,149c-3.4,0-6.7,0.7-9.6,1.9
		c7,17.5,18.4,32.7,32.7,44.5c2.7,1.7,5.9,2.7,9.4,2.7C59.9,198,68,189.9,68,180z"/>
</g>
<g id="Ellipse_54">
	<path class="st3" d="M55.5,109c-9.1,0-16.5,7.4-16.5,16.5S46.4,142,55.5,142c9.1,0,16.5-7.4,16.5-16.5S64.6,109,55.5,109z M52,96
		c0-4.4-3.6-8-8-8s-8,3.6-8,8s3.6,8,8,8S52,100.4,52,96z M160.5,118c-10.8,0-19.5,8.7-19.5,19.5c0,10.8,8.7,19.5,19.5,19.5
		s19.5-8.7,19.5-19.5C180,126.7,171.3,118,160.5,118z"/>
</g>
<g>
	<path class="st4" d="M110,220c34.2,0,64.7-15.6,84.9-40H25.1C45.3,204.4,75.8,220,110,220z"/>
</g>
<g id="Ellipse_2">
	<path class="st5" d="M207,81.8c0-4.2-3.4-7.6-7.5-7.6c-0.7,0-1.3,0.1-1.9,0.3c-0.5-5.9-5.3-10.4-11.2-10.4c-4.6,0-8.5,2.8-10.3,6.7
		c-1.6-1-3.4-1.6-5.4-1.6c-5.5,0-10,4.5-10,10.2s4.5,10.2,10,10.2c0.4,0,0.8,0,1.2-0.1v0.1h27.6v0C203.6,89.4,207,86,207,81.8z"/>
</g>
<g id="Ellipse_2_copy">
	<path class="st6" d="M205.9,90.3c0-5.4-4.3-9.7-9.5-9.7c-0.8,0-1.7,0.1-2.4,0.3c-0.6-7.4-6.8-13.3-14.3-13.3
		c-5.8,0-10.8,3.5-13,8.5c-2-1.3-4.3-2-6.9-2c-7,0-12.8,5.8-12.8,12.9s5.7,12.9,12.8,12.9c0.5,0,1.1,0,1.6-0.1v0.1h35.1v0
		C201.7,100,205.9,95.7,205.9,90.3z"/>
</g>
<g>
	<rect x="80.1" y="79.6" class="st7" width="61.8" height="79.8"/>
	<polygon class="st8" points="80.1,155.8 141.9,91.9 141.9,79.6 80.1,79.6 	"/>
	<path class="st9" d="M62.4,58.3v12.2v19.3v81.1h97.2V89.8V70.5V58.3C132.7,40.7,89.3,40.7,62.4,58.3z M95.5,159.5H80.1v-22.8h15.5
		V159.5z M95.5,132.1H80.1v-22.8h15.5V132.1z M95.5,104.7H80.1V79.6h15.5V104.7z M122,159.5H100v-22.8H122V159.5z M122,132.1H100
		v-22.8H122V132.1z M122,104.7H100V79.6H122V104.7z M141.9,159.5h-15.5v-22.8h15.5V159.5z M141.9,132.1h-15.5v-22.8h15.5V132.1z
		 M141.9,104.7h-15.5V79.6h15.5V104.7z"/>
	<path class="st10" d="M58.9,49.6C58.4,50,58,50.7,58,51.4V57c0,0.8,0.4,1.6,1.2,2c0.7,0.4,1.6,0.4,2.3-0.1
		c27.2-18.5,72-18.5,99.2,0c0.7,0.5,1.5,0.5,2.3,0.1c0.7-0.4,1.2-1.2,1.2-2v-5.6c0-0.7-0.4-1.4-0.9-1.9
		C134.2,28.8,87.8,28.8,58.9,49.6z"/>
	<rect x="80.1" y="56.8" class="st11" width="61.8" height="16"/>
	<g>
		<path class="st12" d="M88.6,60h4c2.5,0,3.7,1.8,3.7,3.7c0,1.9-1.2,3.7-3.7,3.7h-1.5v3.1h-2.6V60z M92.7,65.1c1.5,0,1.5-2.6,0-2.6
			h-1.5v2.6H92.7z"/>
		<path class="st12" d="M100.1,70.5h-2.6V60h2.6v4h2.9v-4h2.6v10.5H103v-3.9h-2.9V70.5z"/>
		<path class="st12" d="M106.9,63.5c0-2.4,2.1-3.6,4.2-3.6c2.1,0,4.2,1.2,4.2,3.6v3.6c0,2.4-2.1,3.6-4.2,3.6c-2.1,0-4.2-1.2-4.2-3.6
			V63.5z M109.5,67.1c0,0.8,0.8,1.1,1.6,1.1c0.8,0,1.6-0.4,1.6-1.1v-3.6c0-0.8-0.8-1.2-1.7-1.2c-0.8,0-1.6,0.4-1.6,1.2V67.1z"/>
		<path class="st12" d="M116.6,60h2.4l2.4,4.5l0.9,2.1l0.1,0c0,0-0.3-1.8-0.3-1.8V60h2.5v10.5h-2.6l-2.3-4.1l-0.9-2.1l-0.1,0l0.3,2
			v4.2h-2.6L116.6,60L116.6,60z"/>
		<path class="st12" d="M128.9,64.2h4.1v2.3h-4.1V68h4.5v2.5h-7V60h7v2.5h-4.5V64.2z"/>
	</g>
	<path class="st12" d="M164,180H58v-4.6c0-2.5,2-4.6,4.4-4.6h97.2c2.4,0,4.4,2,4.4,4.6V180z"/>
</g>
</svg>
