<?xml version="1.0" encoding="utf-8"?>
<!-- Generator: Adobe Illustrator 19.0.1, SVG Export Plug-In . SVG Version: 6.00 Build 0)  -->
<svg version="1.1" id="_x30_2" xmlns="http://www.w3.org/2000/svg" xmlns:xlink="http://www.w3.org/1999/xlink" x="0px" y="0px"
	 viewBox="0 0 200 202" style="enable-background:new 0 0 200 202;" xml:space="preserve">
<style type="text/css">
	.st0{fill-rule:evenodd;clip-rule:evenodd;fill:#FFD053;}
	.st1{clip-path:url(#SVGID_2_);}
	.st2{fill-rule:evenodd;clip-rule:evenodd;fill:#FFE461;}
	.st3{fill-rule:evenodd;clip-rule:evenodd;fill:#284259;}
	.st4{fill-rule:evenodd;clip-rule:evenodd;fill:#92A1AE;}
	.st5{fill-rule:evenodd;clip-rule:evenodd;fill:#193349;}
	.st6{fill-rule:evenodd;clip-rule:evenodd;fill:#57A2E8;}
	.st7{fill-rule:evenodd;clip-rule:evenodd;fill:#FFFFFF;}
	.st8{fill-rule:evenodd;clip-rule:evenodd;fill:#CCCCCC;}
	.st9{fill-rule:evenodd;clip-rule:evenodd;fill:#BDBDBD;}
	.st10{opacity:0.149;clip-path:url(#SVGID_2_);}
	.st11{opacity:0.2;clip-path:url(#SVGID_2_);}
	.st12{fill-rule:evenodd;clip-rule:evenodd;fill:#C3C6CA;}
	.st13{fill-rule:evenodd;clip-rule:evenodd;fill:#83CA28;}
	.st14{clip-path:url(#SVGID_4_);}
	.st15{fill-rule:evenodd;clip-rule:evenodd;fill:#A2DD3B;}
	.st16{fill:#FFFFFF;}
</style>
<g id="Ellipse_49">
	<g>
		<circle class="st0" cx="100" cy="100" r="100"/>
	</g>
</g>
<g>
	<defs>
		<circle id="SVGID_1_" cx="100" cy="100" r="100"/>
	</defs>
	<clipPath id="SVGID_2_">
		<use xlink:href="#SVGID_1_"  style="overflow:visible;"/>
	</clipPath>
	<g id="Ellipse_35" class="st1">
		<g>
			<circle class="st2" cx="107" cy="59" r="84"/>
		</g>
	</g>
	<g id="Screen_Shell" class="st1">
		<g>
			<path class="st3" d="M183.5,45.6H52.8c-2.9,0-5.2,2.7-5.2,6v100.2c0,3.3,2.3,6,5.2,6h130.7c2.9,0,5.2-2.7,5.2-6V51.6
				C188.7,48.3,186.3,45.6,183.5,45.6z"/>
		</g>
	</g>
	<g id="Rounded_Rectangle_23" class="st1">
		<g>
			<path class="st4" d="M227.7,160.9l-3.9-1.8c-1.4-0.7-11.4-1.2-11.9-1.2l-179,0c-0.5,0-1.7,0.5-0.3,1.2l1.8,1.4
				c1.4,0.7,3,1.6,3.6,1.6h189.2C227.8,162,229.1,161.5,227.7,160.9z"/>
		</g>
	</g>
	<g id="Screen_Background" class="st1">
		<g>
			<path class="st5" d="M183.2,46.2H52.8c-2.6,0-4.7,2.4-4.7,5.4v99.6c0,3.6,2.5,6.5,5.7,6.5h128.5c3.1,0,5.7-2.9,5.7-6.5V51.6
				C187.9,48.6,185.8,46.2,183.2,46.2z"/>
		</g>
	</g>
	<g id="Screen_stroke" class="st1">
		<g>
			<path class="st3" d="M185.9,46.2h-133c-2.6,0-4.8,2.4-4.8,5.4v97.9c0,1.4,1,2.6,2.3,2.6h138c1.3,0,2.3-1.2,2.3-2.6V51.6
				C190.7,48.6,188.5,46.2,185.9,46.2z"/>
		</g>
	</g>
	<g id="Rectangle_68" class="st1">
		<g>
			<rect x="53.2" y="52.4" class="st6" width="151.9" height="94.1"/>
		</g>
	</g>
	<g class="st1">
		<path class="st7" d="M89.2,86.2V89h-4.3v12.5h-3.5V89H77v-2.8H89.2L89.2,86.2z M100.5,86.2v2.7h-6.3v3.6H99v2.6h-4.8v3.7h6.3v2.7
			h-9.8V86.2H100.5L100.5,86.2z M131.3,93.8c0,1.1-0.2,2.1-0.6,3.1c-0.4,1-0.9,1.8-1.6,2.5c-0.7,0.7-1.5,1.3-2.5,1.7
			c-1,0.4-2.1,0.6-3.2,0.6c-1.2,0-2.3-0.2-3.3-0.6c-1-0.4-1.8-1-2.5-1.7c-0.7-0.7-1.2-1.5-1.6-2.5c-0.4-1-0.6-2-0.6-3.1
			c0-1.1,0.2-2.1,0.6-3.1c0.4-1,0.9-1.8,1.6-2.5c0.7-0.7,1.5-1.3,2.5-1.7c1-0.4,2.1-0.6,3.3-0.6c1.2,0,2.3,0.2,3.2,0.6
			c1,0.4,1.8,1,2.5,1.7c0.7,0.7,1.2,1.5,1.6,2.5C131.2,91.7,131.3,92.7,131.3,93.8L131.3,93.8z M127.7,93.8c0-0.8-0.1-1.4-0.3-2
			c-0.2-0.6-0.5-1.1-0.8-1.5c-0.4-0.4-0.8-0.7-1.4-1c-0.5-0.2-1.1-0.3-1.8-0.3c-0.7,0-1.3,0.1-1.8,0.3c-0.5,0.2-1,0.5-1.4,1
			c-0.4,0.4-0.7,0.9-0.8,1.5c-0.2,0.6-0.3,1.3-0.3,2c0,0.8,0.1,1.4,0.3,2.1c0.2,0.6,0.5,1.1,0.8,1.5c0.4,0.4,0.8,0.7,1.4,1
			c0.5,0.2,1.1,0.3,1.8,0.3c0.7,0,1.3-0.1,1.8-0.3c0.5-0.2,1-0.5,1.4-1c0.4-0.4,0.6-0.9,0.8-1.5C127.6,95.3,127.7,94.6,127.7,93.8
			L127.7,93.8z M134.9,86.2c0.2,0,0.3,0,0.4,0c0.1,0,0.2,0,0.3,0.1c0.1,0,0.2,0.1,0.2,0.2c0.1,0.1,0.2,0.2,0.3,0.3l7.3,9.2
			c0-0.3,0-0.6-0.1-0.9c0-0.3,0-0.5,0-0.8v-8.1h3.1v15.3h-1.8c-0.3,0-0.5,0-0.7-0.1c-0.2-0.1-0.4-0.2-0.5-0.5l-7.2-9.1
			c0,0.3,0,0.5,0.1,0.8c0,0.3,0,0.5,0,0.7v8.2H133V86.2H134.9L134.9,86.2z M152.8,101.5h-3.6V86.2h3.6V101.5L152.8,101.5z
			 M164.1,89.3c-0.1,0.2-0.2,0.3-0.3,0.4c-0.1,0.1-0.3,0.1-0.4,0.1c-0.2,0-0.3,0-0.5-0.2c-0.2-0.1-0.4-0.2-0.6-0.3
			c-0.2-0.1-0.5-0.2-0.8-0.3c-0.3-0.1-0.6-0.2-1-0.2c-0.7,0-1.2,0.1-1.5,0.4c-0.3,0.3-0.5,0.7-0.5,1.1c0,0.3,0.1,0.6,0.3,0.8
			c0.2,0.2,0.5,0.4,0.8,0.5c0.3,0.1,0.7,0.3,1.1,0.4c0.4,0.1,0.8,0.3,1.3,0.4c0.4,0.2,0.8,0.3,1.3,0.5c0.4,0.2,0.8,0.5,1.1,0.8
			c0.3,0.3,0.6,0.7,0.8,1.2c0.2,0.5,0.3,1,0.3,1.6c0,0.7-0.1,1.4-0.4,2c-0.2,0.6-0.6,1.2-1.1,1.6c-0.5,0.5-1,0.8-1.7,1.1
			c-0.7,0.3-1.5,0.4-2.3,0.4c-0.5,0-1,0-1.5-0.1c-0.5-0.1-1-0.2-1.4-0.4c-0.5-0.2-0.9-0.4-1.3-0.6c-0.4-0.2-0.8-0.5-1.1-0.8l1-1.7
			c0.1-0.1,0.2-0.2,0.3-0.3c0.1-0.1,0.3-0.1,0.5-0.1c0.2,0,0.4,0.1,0.6,0.2c0.2,0.1,0.5,0.3,0.7,0.4c0.3,0.2,0.6,0.3,0.9,0.4
			c0.3,0.1,0.8,0.2,1.2,0.2c0.6,0,1.1-0.1,1.5-0.4c0.4-0.3,0.5-0.7,0.5-1.3c0-0.4-0.1-0.7-0.3-0.9c-0.2-0.2-0.5-0.4-0.8-0.6
			c-0.3-0.1-0.7-0.3-1.1-0.4c-0.4-0.1-0.8-0.2-1.2-0.4c-0.4-0.1-0.8-0.3-1.2-0.5c-0.4-0.2-0.8-0.5-1.1-0.8c-0.3-0.3-0.6-0.7-0.8-1.2
			c-0.2-0.5-0.3-1.1-0.3-1.8c0-0.6,0.1-1.1,0.3-1.7c0.2-0.5,0.6-1,1-1.5c0.4-0.4,1-0.8,1.6-1c0.7-0.3,1.4-0.4,2.2-0.4
			c0.5,0,0.9,0,1.4,0.1c0.4,0.1,0.9,0.2,1.3,0.3c0.4,0.1,0.8,0.3,1.1,0.5c0.3,0.2,0.7,0.4,0.9,0.7L164.1,89.3L164.1,89.3z
			 M174.6,95.8v5.7h-3.5v-5.7l-5.5-9.6h3.1c0.3,0,0.6,0.1,0.7,0.2c0.2,0.1,0.3,0.3,0.4,0.6l2.2,4.5c0.2,0.4,0.3,0.7,0.5,1
			c0.1,0.3,0.3,0.6,0.4,0.9c0.1-0.3,0.2-0.6,0.4-0.9c0.1-0.3,0.3-0.6,0.5-1l2.1-4.5c0-0.1,0.1-0.2,0.2-0.3c0.1-0.1,0.2-0.2,0.3-0.3
			c0.1-0.1,0.2-0.1,0.3-0.2c0.1,0,0.3-0.1,0.4-0.1h3.1L174.6,95.8z"/>
		<g>
			<path class="st7" d="M109.2,86c2.2,0,4.1,0.9,5.5,2.3l-2,2c-0.9-0.9-2.2-1.5-3.6-1.5c-2.8,0-5.1,2.3-5.1,5.1
				c0,1.3,0.5,2.5,1.3,3.4c-0.4,0.5-0.8,1-1.4,1.3c0.5,0.1,1,0.1,1.5,0c0.4-0.1,0.7-0.2,1-0.3c0.8,0.5,1.7,0.8,2.7,0.8
				c1.4,0,2.7-0.6,3.6-1.5l2,2c-1.4,1.4-3.4,2.3-5.5,2.3c-4.3,0-7.8-3.5-7.8-7.8C101.4,89.5,104.9,86,109.2,86z"/>
			<path class="st7" d="M107.3,93.3h3.9c0.3,0,0.5,0.2,0.5,0.5l0,0c0,0.3-0.2,0.5-0.5,0.5h-3.9c-0.3,0-0.5-0.2-0.5-0.5l0,0
				C106.8,93.6,107,93.3,107.3,93.3L107.3,93.3z M107.3,91.4h3.9c0.3,0,0.5,0.2,0.5,0.5l0,0c0,0.3-0.2,0.5-0.5,0.5h-3.9
				c-0.3,0-0.5-0.2-0.5-0.5l0,0C106.8,91.6,107,91.4,107.3,91.4L107.3,91.4z M107.3,95.3h3.9c0.3,0,0.5,0.2,0.5,0.5l0,0
				c0,0.3-0.2,0.5-0.5,0.5h-3.9c-0.3,0-0.5-0.2-0.5-0.5l0,0C106.8,95.5,107,95.3,107.3,95.3z"/>
		</g>
	</g>
	<g id="Keyboard_Base" class="st1">
		<g>
			<path class="st8" d="M220.1,158.1L220.1,158.1l-182.6,0v0c-4.4,0-6.6,0-7.9,0c2.2,2.1,7.9,2.4,7.9,2.4h182.6c0,0,5.7-0.3,7.9-2.4
				C226.7,158.1,224.7,158.1,220.1,158.1z"/>
		</g>
	</g>
	<g id="Keyboard" class="st1">
		<g>
			<path class="st7" d="M228.3,154.7c-0.1-0.1-0.2-0.2-0.4-0.2H29.8c-0.2,0-0.3,0.1-0.4,0.2c-0.1,0.1-0.2,0.2-0.2,0.4v2.4
				c0,0.3,0.3,0.6,0.6,0.6h198.1c0.3,0,0.6-0.3,0.6-0.6v-2.4C228.4,154.9,228.4,154.8,228.3,154.7z"/>
		</g>
	</g>
	<g id="Opening" class="st1">
		<g>
			<path class="st9" d="M115.4,154.5c0.3,1.2,0.8,1.9,2,1.9h22.9c1.3,0,1.8-0.7,2-1.9H115.4z"/>
		</g>
	</g>
	<g id="Ellipse_5" class="st10">
		<g>
			<ellipse class="st7" cx="147" cy="41.7" rx="77.2" ry="77.7"/>
		</g>
	</g>
	<g id="Ellipse_5_copy" class="st11">
		<g>
			<ellipse class="st7" cx="163.2" cy="27.9" rx="48.1" ry="48.3"/>
		</g>
	</g>
</g>
<g>
	<g id="Ellipse_47">
		<g>
			<ellipse class="st12" cx="162.6" cy="164.7" rx="37.4" ry="37.3"/>
		</g>
	</g>
	<g id="Ellipse_47_copy_3">
		<g>
			<ellipse class="st7" cx="162.1" cy="164.2" rx="37.4" ry="37.3"/>
		</g>
	</g>
	<g id="Ellipse_47_copy">
		<g>
			<ellipse class="st13" cx="162.1" cy="164.2" rx="34.9" ry="34.8"/>
		</g>
	</g>
	<g>
		<defs>
			<ellipse id="SVGID_3_" cx="160.6" cy="162.7" rx="34.9" ry="34.8"/>
		</defs>
		<clipPath id="SVGID_4_">
			<use xlink:href="#SVGID_3_"  style="overflow:visible;"/>
		</clipPath>
		<g id="Ellipse_47_copy_2_" class="st14">
			<g>
				<ellipse class="st15" cx="162.1" cy="164.2" rx="34.9" ry="34.8"/>
			</g>
		</g>
	</g>
	<g id="Shape_1">
		<g>
			<path class="st16" d="M177.7,178.6c-3.5-6.2-10.1-10-10.1-10c-0.4,0.4-3.2,2.4-3.9,5.2c-2.9-1.7-8.9-5.8-11.9-12.8
				c2.5-0.9,4.2-3.2,4.6-3.6c0,0-3.8-6.4-9.9-9.8c0,0-3.6,2.6-3.8,6.1l0,0c0,0-1.4,6.4,10.5,18.6c10,10.3,15,10.8,18.1,10.3
				c0.5,0,1.1-0.1,1.5-0.3c0,0,0,0,0,0l0,0C175.7,181.3,177.7,178.6,177.7,178.6z"/>
		</g>
	</g>
	<g id="Shape_2">
		<g>
			<path class="st16" d="M171.4,154.4C171.4,154.4,171.4,154.4,171.4,154.4C171.4,154.3,171.4,154.3,171.4,154.4
				C171.4,154.3,171.4,154.3,171.4,154.4c-1.9-1.8-4.7-2.7-7.1-1.6c-0.7,0.3-0.1,1.3,0.6,1.1c0,0,0,0,0,0c0,0,0,0,0,0c0,0,0,0,0,0
				c0,0,0,0,0,0c0.1,0,0.3-0.1,0.4-0.1c0.4-0.1,0.9-0.2,1.3-0.2c1.5,0,2.8,0.6,3.9,1.7c1.1,1.1,1.7,2.4,1.7,3.9
				c0,0.4-0.1,0.9-0.2,1.3c0,0.1-0.1,0.3-0.1,0.4c0,0,0,0,0,0c0,0,0,0,0,0c0,0,0,0,0,0c0,0,0,0,0,0c-0.3,0.7,0.7,1.3,1.1,0.6
				C174,159,173.2,156.2,171.4,154.4C171.4,154.4,171.4,154.4,171.4,154.4z M175.5,150C175.5,150,175.5,150,175.5,150
				C175.5,149.9,175.4,149.9,175.5,150c-0.1-0.1-0.1-0.1-0.1-0.1c0,0,0,0,0,0c-3.1-3.1-7.2-5.1-11.7-5c-2,0-4.1,0.3-5.9,1.2
				c-0.7,0.3-0.1,1.4,0.6,1.1c0,0,0.1,0,0.1,0c0,0,0,0,0,0c0,0,0.1,0,0.1-0.1c0.4-0.1,0.7-0.2,1.1-0.4c1.2-0.4,2.5-0.5,3.8-0.6
				c4.2-0.1,8.1,1.8,11,4.8c3,2.9,4.8,6.7,4.8,11c0,1.3-0.2,2.5-0.5,3.7c-0.1,0.4-0.2,0.7-0.4,1.1c0,0.1,0,0.1-0.1,0.2c0,0,0,0,0,0
				c0,0,0,0,0,0c0,0,0,0.1,0,0.1c-0.3,0.7,0.7,1.3,1.1,0.6c0.8-1.8,1.2-3.9,1.2-5.8C180.6,157.2,178.6,153.1,175.5,150z"/>
		</g>
	</g>
</g>
</svg>
