<?xml version="1.0" encoding="utf-8"?>
<!-- Generator: Adobe Illustrator 19.0.1, SVG Export Plug-In . SVG Version: 6.00 Build 0)  -->
<svg version="1.1" id="Layer_1" xmlns="http://www.w3.org/2000/svg" xmlns:xlink="http://www.w3.org/1999/xlink" x="0px" y="0px"
	 viewBox="0 0 169.6 168" style="enable-background:new 0 0 169.6 168;" xml:space="preserve">
<style type="text/css">
	.st0{fill-rule:evenodd;clip-rule:evenodd;fill:#EDF1F2;}
	.st1{fill-rule:evenodd;clip-rule:evenodd;fill:#ED9F81;}
	.st2{fill-rule:evenodd;clip-rule:evenodd;fill:#FECC0A;}
	.st3{fill-rule:evenodd;clip-rule:evenodd;fill:#DEAB14;}
	.st4{fill-rule:evenodd;clip-rule:evenodd;fill:#FBFBFC;}
	.st5{opacity:0.102;fill-rule:evenodd;clip-rule:evenodd;}
	.st6{fill-rule:evenodd;clip-rule:evenodd;fill:#F6C3A3;}
	.st7{fill-rule:evenodd;clip-rule:evenodd;fill:#FCD5BC;}
	.st8{opacity:0.502;fill-rule:evenodd;clip-rule:evenodd;fill:#FCEDD9;}
	.st9{fill-rule:evenodd;clip-rule:evenodd;fill:#FCEDD9;}
	.st10{fill-rule:evenodd;clip-rule:evenodd;fill:#EC3F24;}
</style>
<g>
	<path class="st0" d="M50.9,168l-1.8-44.7c0,0,0-1.6,0.5-3.8c1.2-5.5,7.5-11.9,21.2-9.4c1.7,0.6,0.6,3.9,4.8,7.6
		c4.2,3.7,17.3,22.5,20.2,50.2h-4.5H50.9z"/>
	<path class="st1" d="M36.3,113.8L11.9,168h32.2l18.7-42.4c3.2-7.3-0.1-15.9-7.4-19.2C48.1,103.2,39.6,106.5,36.3,113.8z"/>
	<path class="st0" d="M19,58.2L119.7,3.8c5.5-3,12.3-0.9,15.2,4.5l33.3,62.3c2.9,5.4,0.8,12.2-4.6,15.2L62.8,140.1
		c-5.5,3-12.3,0.9-15.2-4.5L14.3,73.3C11.4,67.9,13.5,61.1,19,58.2z"/>
	<path class="st2" d="M5.2,63.6l96.4-61.8c5.2-3.4,12.2-1.9,15.5,3.3L155,64.7c3.3,5.2,1.7,12.1-3.5,15.5L55.1,142
		c-5.2,3.4-12.2,1.9-15.5-3.3L1.7,79.1C-1.6,73.9,0,66.9,5.2,63.6z"/>
	<path class="st3" d="M15.5,70.1l19-12.2c1-0.7,2.4-0.4,3,0.6l7.5,11.7c0.6,1,0.3,2.4-0.7,3.1l-19,12.2c-1,0.7-2.4,0.4-3-0.6
		l-7.5-11.7C14.2,72.1,14.5,70.7,15.5,70.1z"/>
	<path class="st4" d="M36.2,72.9L35,71l3.7-2.4l1.2,1.8L36.2,72.9L36.2,72.9z M33.5,68.6l1.2,1.8l3.7-2.4l-1.2-1.8L33.5,68.6
		L33.5,68.6z M25.1,70l1.2,1.9l10.3-6.6l-1.2-1.8L25.1,70L25.1,70z M21.6,74.9L20.5,73l3.7-2.4l1.2,1.8L21.6,74.9L21.6,74.9z M29,74
		l-1.2-1.8l-5.6,3.6l1.2,1.8L29,74L29,74z M32.5,69.2l1.2,1.8L30,73.4l-1.2-1.8L32.5,69.2L32.5,69.2z M35.3,73.5l-1.2-1.9l-10.3,6.6
		l1.2,1.8L35.3,73.5z"/>
	<polygon class="st5" points="65.6,112.9 81.1,125.5 69.6,132.3 	"/>
	<path class="st6" d="M41.2,168l-1.8-44.7c0,0,0-1.6,0.5-3.8c1.2-5.5,7.5-11.9,21.2-9.4c1.7,0.6,3.6,1,7.8,4.7
		c4.2,3.7,5.6,10.2,8.5,38l0.5,15.2H41.2z"/>
	<path class="st7" d="M69.1,124.6c0,0,3.2-14-13.6-14c0,0-17-0.5-14.5,13.8c0,0,1.2,16.4,16.8,14.4
		C57.8,138.9,68.9,138.6,69.1,124.6z"/>
	<path class="st8" d="M64.6,136.1c-3.2,2.7-6.8,2.8-6.8,2.8c-3.6,0.5-6.5-0.1-8.7-1.1C52.4,135,58.3,134.3,64.6,136.1z"/>
	<path class="st9" d="M62.8,115.7c-8.4-3-17.3-0.1-22.1,6.4c-0.3-11.9,14.8-11.5,14.8-11.5c9.7,0,12.7,4.6,13.6,8.6
		C67.2,117.7,65.2,116.5,62.8,115.7z"/>
	<path class="st10" d="M108.4,69.2c4.8-3.8,11.8-2.9,15.5,1.9c3.8,4.8,2.9,11.8-1.9,15.5c-4.8,3.8-11.8,2.9-15.5-1.9
		C102.7,79.9,103.6,72.9,108.4,69.2z"/>
	<path class="st3" d="M122,60.7c4.8-3.8,11.8-2.9,15.5,1.9c3.8,4.8,2.9,11.8-1.9,15.5c-4.8,3.8-11.8,2.9-15.5-1.9
		C116.3,71.4,117.2,64.5,122,60.7z"/>
	<polygon class="st5" points="27,94 53,77.2 58.3,85.4 32.2,102.2 	"/>
	<polygon class="st5" points="60.4,72.4 86.4,55.6 91.7,63.8 65.7,80.6 	"/>
	<polygon class="st5" points="93.8,50.8 119.8,34 125.1,42.2 99.1,59 	"/>
</g>
</svg>
