<?xml version="1.0" encoding="utf-8"?>
<!-- Generator: Adobe Illustrator 19.0.1, SVG Export Plug-In . SVG Version: 6.00 Build 0)  -->
<svg version="1.1" id="Layer_1" xmlns="http://www.w3.org/2000/svg" xmlns:xlink="http://www.w3.org/1999/xlink" x="0px" y="0px"
	 viewBox="0 0 220 220" style="enable-background:new 0 0 220 220;" xml:space="preserve">
<style type="text/css">
	.st0{fill-rule:evenodd;clip-rule:evenodd;fill:#569EE4;}
	.st1{fill:none;stroke:#7EBEF0;stroke-width:2;stroke-linecap:round;stroke-linejoin:round;stroke-miterlimit:10;}
	.st2{opacity:0.18;fill-rule:evenodd;clip-rule:evenodd;stroke:#4D8ECA;stroke-width:0.216;stroke-miterlimit:22.9256;}
	.st3{fill-rule:evenodd;clip-rule:evenodd;fill:#E1E6E9;}
	.st4{fill-rule:evenodd;clip-rule:evenodd;fill:#ECF0F1;}
	.st5{fill-rule:evenodd;clip-rule:evenodd;fill:#B6BABF;}
	.st6{fill-rule:evenodd;clip-rule:evenodd;}
	.st7{fill-rule:evenodd;clip-rule:evenodd;fill:#C4C4C4;}
	.st8{fill-rule:evenodd;clip-rule:evenodd;fill:#E9EDF0;}
	.st9{fill-rule:evenodd;clip-rule:evenodd;fill:#284259;}
	.st10{fill-rule:evenodd;clip-rule:evenodd;fill:#7E7E7E;}
	.st11{fill-rule:evenodd;clip-rule:evenodd;fill:#57A2E8;}
	.st12{fill-rule:evenodd;clip-rule:evenodd;fill:#FFFFFF;}
	.st13{fill-rule:evenodd;clip-rule:evenodd;fill:#83CA28;}
	.st14{fill-rule:evenodd;clip-rule:evenodd;fill:#F29A00;}
</style>
<circle class="st0" cx="110" cy="110" r="110"/>
<path class="st1" d="M66.1,146.8c0.7,0.1,1.5,0.2,2.3,0.2c0.9,0,1.7,0,2.5-0.2c3.1-0.5,5.8-1.9,8.1-4.3c3-2.9,4.5-6.4,4.5-10.6
	c0-4.2-1.5-7.7-4.5-10.7c-2.9-2.9-6.5-4.3-10.6-4.3c-0.5,0-1.1,0-1.6,0c0-0.2,0-0.4,0-0.6c0-4-1.4-7.4-4.3-10.2
	c-0.3-0.3-0.6-0.6-1-0.9c-2.5-2.2-5.6-3.3-9.2-3.3c-4,0-7.4,1.4-10.2,4.2c-0.7,0.7-1.4,1.5-1.9,2.3c-1,1.5-1.7,3.2-2,5
	c-1.1-0.4-2.3-0.5-3.6-0.5c-3.2,0-6,1.1-8.4,3.3c-1.9,1.9-2.9,4.2-3.2,6.7c-0.3,0-0.6,0-0.9,0c-2.2,0-4.2,0.5-5.9,1.5
	c-1,0.5-1.8,1.2-2.6,2c-2.3,2.4-3.5,5.2-3.5,8.5c0,3.3,1.2,6.2,3.5,8.5c2.4,2.4,5.2,3.5,8.5,3.5L66.1,146.8z"/>
<path class="st1" d="M185.3,85.3c0.7,0.1,1.5,0.2,2.3,0.2c0.9,0,1.7,0,2.5-0.2c3.1-0.5,5.8-1.9,8.1-4.3c3-2.9,4.5-6.4,4.5-10.6
	c0-4.2-1.5-7.7-4.5-10.7c-2.9-2.9-6.5-4.3-10.6-4.3c-0.5,0-1.1,0-1.6,0c0-0.2,0-0.4,0-0.6c0-4-1.4-7.4-4.3-10.2
	c-0.3-0.3-0.6-0.6-1-0.9c-2.5-2.2-5.6-3.3-9.2-3.3c-4,0-7.4,1.4-10.2,4.2c-0.7,0.7-1.4,1.5-1.9,2.3c-1,1.5-1.7,3.2-2,5
	c-1.1-0.4-2.3-0.5-3.6-0.5c-3.2,0-6,1.1-8.4,3.3c-1.9,1.9-2.9,4.2-3.2,6.7c-0.3,0-0.6,0-0.9,0c-2.2,0-4.2,0.5-5.9,1.5
	c-1,0.5-1.8,1.2-2.6,2c-2.3,2.4-3.5,5.2-3.5,8.5c0,3.3,1.2,6.2,3.5,8.5c2.4,2.4,5.2,3.5,8.5,3.5L185.3,85.3z"/>
<path class="st2" d="M171.3,51.6v149.8c16.1-10.8,29.1-25.7,37.7-43.2L171.3,51.6z"/>
<g>
	<path class="st3" d="M152.5,34H67.1c-10.3,0-18.7,8.3-18.7,18.6V66c-0.8,0-1.5,0.7-1.5,1.6v7.2c0,0.8,0.7,1.5,1.5,1.6v11.9l-0.2,0
		c-0.7,0-1.3,0.6-1.3,1.3v16.3c0,0.7,0.6,1.3,1.3,1.3l0.2,0v3.6l-0.2,0c-0.7,0-1.3,0.6-1.3,1.3v16.3c0,0.7,0.6,1.3,1.3,1.3l0.2,0
		v71.6C66,213,87.2,220,110,220c22.7,0,43.8-6.9,61.3-18.6V52.5C171.3,42.3,162.9,34,152.5,34z"/>
	<path class="st4" d="M55.5,205.6V64.1h108.6v141.6c-16,9.1-34.5,14.2-54.1,14.2C90.2,220,71.6,214.8,55.5,205.6z"/>
	<path class="st5" d="M163.6,64.7v141.4c0.4-0.2,0.7-0.4,1.1-0.6V64.7v-1.1l0,0h-1.1H56.1H55v1.1v140.6c0.4,0.2,0.7,0.4,1.1,0.6
		V64.7H163.6z"/>
	<rect x="56.1" y="64.7" class="st6" width="107.5" height="6.1"/>
	<path class="st7" d="M160,67.4v-1h-6.3v3.3h6.3v-1h0.7v-1.3H160L160,67.4z M159.7,69.4L159.7,69.4h-2.8v-2.7h2.8V69.4z"/>
	<path class="st7" d="M149.5,66.4c-0.9,0-1.7,0.7-1.7,1.7c0,0.9,0.7,1.7,1.7,1.7c0.9,0,1.7-0.7,1.7-1.7
		C151.2,67.1,150.4,66.4,149.5,66.4L149.5,66.4z M150.1,68.8L150.1,68.8l-0.7-0.7l0,0h0V67h0.3v1l0.6,0.6L150.1,68.8z"/>
	<path class="st7" d="M103.8,69.5h-0.7V67c-0.2,0.2-0.5,0.4-0.9,0.5v-0.6c0.2-0.1,0.4-0.2,0.6-0.3c0.2-0.2,0.3-0.3,0.4-0.6h0.5V69.5
		z"/>
	<path class="st7" d="M106.5,69.5v-0.7h-1.4v-0.6l1.5-2.2h0.6v2.2h0.4v0.6h-0.4v0.7H106.5L106.5,69.5z M106.5,68.2L106.5,68.2v-1.2
		l-0.8,1.2H106.5z"/>
	<path class="st7" d="M108.6,67.7V67h0.7v0.7H108.6L108.6,67.7z M108.6,69.5L108.6,69.5v-0.7h0.7v0.7H108.6z"/>
	<path class="st7" d="M111,66c0.3,0,0.6,0.1,0.8,0.4c0.2,0.3,0.3,0.8,0.3,1.4c0,0.7-0.1,1.1-0.3,1.4c-0.2,0.2-0.4,0.4-0.8,0.4
		c-0.3,0-0.6-0.1-0.8-0.4c-0.2-0.3-0.3-0.7-0.3-1.4c0-0.7,0.1-1.1,0.3-1.4C110.4,66.2,110.6,66,111,66L111,66z M111,66.6L111,66.6
		l-0.2,0.1c-0.1,0.1-0.1,0.1-0.1,0.3c0,0.2-0.1,0.5-0.1,0.9c0,0.4,0,0.7,0.1,0.8c0,0.2,0.1,0.3,0.2,0.3L111,69l0.2-0.1
		c0.1-0.1,0.1-0.1,0.1-0.3c0-0.2,0.1-0.5,0.1-0.9c0-0.4,0-0.7-0.1-0.8c0-0.2-0.1-0.3-0.2-0.3L111,66.6z"/>
	<path class="st7" d="M115.2,66.9l-0.6,0.1c0-0.1-0.1-0.2-0.1-0.3c-0.1-0.1-0.2-0.1-0.3-0.1c-0.1,0-0.3,0.1-0.4,0.2
		c-0.1,0.1-0.2,0.4-0.2,0.8c0.2-0.2,0.4-0.3,0.6-0.3c0.3,0,0.5,0.1,0.7,0.3c0.2,0.2,0.3,0.5,0.3,0.8c0,0.4-0.1,0.6-0.3,0.9
		c-0.2,0.2-0.5,0.3-0.8,0.3c-0.3,0-0.6-0.1-0.9-0.4c-0.2-0.3-0.3-0.7-0.3-1.3c0-0.6,0.1-1.1,0.4-1.4c0.2-0.3,0.5-0.4,0.9-0.4
		c0.3,0,0.5,0.1,0.7,0.2C115,66.4,115.1,66.6,115.2,66.9L115.2,66.9z M113.6,68.4L113.6,68.4c0,0.2,0,0.4,0.1,0.5
		c0.1,0.1,0.2,0.2,0.3,0.2c0.1,0,0.2,0,0.3-0.1c0.1-0.1,0.1-0.3,0.1-0.5c0-0.2,0-0.4-0.1-0.5c-0.1-0.1-0.2-0.2-0.3-0.2
		c-0.1,0-0.2,0.1-0.3,0.2C113.7,68,113.6,68.2,113.6,68.4z"/>
	<polygon class="st8" points="57.1,69.6 63.4,69.6 63.4,66.3 	"/>
	<path class="st9" d="M118.2,48.6h-18c-0.7,0-1.3,0.6-1.3,1.3c0,0.7,0.6,1.3,1.3,1.3h18c0.7,0,1.3-0.6,1.3-1.3
		C119.5,49.2,118.9,48.6,118.2,48.6z"/>
	<circle class="st9" cx="89.5" cy="50" r="1.8"/>
	<ellipse class="st10" cx="89.4" cy="50" rx="1" ry="1"/>
	<circle class="st9" cx="108.9" cy="41.9" r="1.5"/>
</g>
<g>
	<g id="Ellipse_49">
		<g>
			<circle class="st11" cx="67.1" cy="117.6" r="6"/>
		</g>
	</g>
	<g id="Rounded_Rectangle_28">
		<g>
			<path class="st12" d="M141.3,107.7H78.5c-0.3,0-0.6,0.3-0.6,0.7v17.6c0,0.4,0.2,0.7,0.6,0.7h62.8c0.3,0,0.6-0.3,0.6-0.7v-17.6
				C141.8,108,141.6,107.7,141.3,107.7z"/>
		</g>
	</g>
	<g id="Rounded_Rectangle_29">
		<g>
			<path class="st5" d="M127.9,112.1H83c-0.4,0-0.7,0.3-0.7,0.7v0.7c0,0.4,0.3,0.7,0.7,0.7h44.8c0.4,0,0.7-0.3,0.7-0.7v-0.7
				C128.6,112.4,128.3,112.1,127.9,112.1z"/>
		</g>
	</g>
	<g id="Rounded_Rectangle_29_copy">
		<g>
			<path class="st5" d="M105.8,116.5H83c-0.4,0-0.7,0.3-0.7,0.7v0.7c0,0.4,0.3,0.7,0.7,0.7h22.8c0.4,0,0.7-0.3,0.7-0.7v-0.7
				C106.6,116.8,106.2,116.5,105.8,116.5z"/>
		</g>
	</g>
	<g id="Rounded_Rectangle_29_copy_2">
		<g>
			<path class="st5" d="M113.2,120.9H83c-0.4,0-0.7,0.3-0.7,0.7v0.7c0,0.4,0.3,0.7,0.7,0.7h30.1c0.4,0,0.7-0.3,0.7-0.7v-0.7
				C113.9,121.2,113.6,120.9,113.2,120.9z"/>
		</g>
	</g>
	<g id="Ellipse_49_copy_2">
		<g>
			<circle class="st11" cx="67.1" cy="169.9" r="6"/>
		</g>
	</g>
	<g id="Rounded_Rectangle_28_copy_2">
		<g>
			<path class="st12" d="M141.3,160.6H78.5c-0.3,0-0.6,0.3-0.6,0.7V179c0,0.4,0.2,0.7,0.6,0.7h62.8c0.3,0,0.6-0.3,0.6-0.7v-17.6
				C141.8,160.9,141.6,160.6,141.3,160.6z"/>
		</g>
	</g>
	<g id="Rounded_Rectangle_29_copy_4">
		<g>
			<path class="st5" d="M127.9,165H83c-0.4,0-0.7,0.3-0.7,0.7v0.7c0,0.4,0.3,0.7,0.7,0.7h44.8c0.4,0,0.7-0.3,0.7-0.7v-0.7
				C128.6,165.3,128.3,165,127.9,165z"/>
		</g>
	</g>
	<g id="Rounded_Rectangle_29_copy_4_1_">
		<g>
			<path class="st5" d="M105.8,169.4H83c-0.4,0-0.7,0.3-0.7,0.7v0.7c0,0.4,0.3,0.7,0.7,0.7h22.8c0.4,0,0.7-0.3,0.7-0.7v-0.7
				C106.6,169.8,106.2,169.4,105.8,169.4z"/>
		</g>
	</g>
	<g id="Rounded_Rectangle_29_copy_4_2_">
		<g>
			<path class="st5" d="M113.2,173.8H83c-0.4,0-0.7,0.3-0.7,0.7v0.7c0,0.4,0.3,0.7,0.7,0.7h30.1c0.4,0,0.7-0.3,0.7-0.7v-0.7
				C113.9,174.2,113.6,173.8,113.2,173.8z"/>
		</g>
	</g>
	<g id="Ellipse_49_copy_2_2_">
		<g>
			<circle class="st11" cx="67.1" cy="195" r="6"/>
		</g>
	</g>
	<g id="Rounded_Rectangle_28_copy_2_2_">
		<g>
			<path class="st12" d="M141.3,185.7H78.5c-0.3,0-0.6,0.3-0.6,0.7v17.6c0,0.4,0.2,0.7,0.6,0.7h62.8c0.3,0,0.6-0.3,0.6-0.7v-17.6
				C141.8,186.1,141.6,185.7,141.3,185.7z"/>
		</g>
	</g>
	<g id="Rounded_Rectangle_29_copy_4_10_">
		<g>
			<path class="st5" d="M101.5,190.1H82.6c-0.2,0-0.3,0.3-0.3,0.7v0.7c0,0.4,0.1,0.7,0.3,0.7h18.9c0.2,0,0.3-0.3,0.3-0.7v-0.7
				C101.8,190.5,101.7,190.1,101.5,190.1z"/>
		</g>
	</g>
	<g id="Rounded_Rectangle_29_copy_4_8_">
		<g>
			<path class="st5" d="M123.4,194.5H83.6c-0.7,0-1.3,0.3-1.3,0.7v0.7c0,0.4,0.6,0.7,1.3,0.7h39.8c0.7,0,1.3-0.3,1.3-0.7v-0.7
				C124.7,194.9,124.1,194.5,123.4,194.5z"/>
		</g>
	</g>
	<g id="Rounded_Rectangle_29_copy_4_6_">
		<g>
			<path class="st5" d="M109,199h-26c-0.4,0-0.6,0.3-0.6,0.7v0.7c0,0.4,0.3,0.7,0.6,0.7h26c0.4,0,0.6-0.3,0.6-0.7v-0.7
				C109.6,199.3,109.3,199,109,199z"/>
		</g>
	</g>
	<g id="Ellipse_49_copy">
		<g>
			<circle class="st13" cx="152.5" cy="143" r="6"/>
		</g>
	</g>
	<g id="Rounded_Rectangle_28_copy">
		<g>
			<path class="st12" d="M141.3,134.1H78.5c-0.3,0-0.6,0.3-0.6,0.7v17.6c0,0.4,0.2,0.7,0.6,0.7h62.8c0.3,0,0.6-0.3,0.6-0.7v-17.6
				C141.8,134.5,141.6,134.1,141.3,134.1z"/>
		</g>
	</g>
	<g id="Rounded_Rectangle_29_copy_3">
		<g>
			<path class="st5" d="M116.8,138.6H82.7c-0.2,0-0.4,0.3-0.4,0.7v0.7c0,0.4,0.2,0.7,0.4,0.7h34.1c0.2,0,0.4-0.3,0.4-0.7v-0.7
				C117.3,138.9,117.1,138.6,116.8,138.6z"/>
		</g>
	</g>
	<g id="Rounded_Rectangle_29_copy_3_1_">
		<g>
			<path class="st5" d="M120.5,143H83c-0.4,0-0.7,0.3-0.7,0.7v0.7c0,0.4,0.3,0.7,0.7,0.7h37.5c0.4,0,0.7-0.3,0.7-0.7v-0.7
				C121.3,143.3,120.9,143,120.5,143z"/>
		</g>
	</g>
	<g id="Rounded_Rectangle_29_copy_3_2_">
		<g>
			<path class="st5" d="M98.5,147.4H83c-0.4,0-0.7,0.3-0.7,0.7v0.7c0,0.4,0.3,0.7,0.7,0.7h15.4c0.4,0,0.7-0.3,0.7-0.7v-0.7
				C99.2,147.7,98.9,147.4,98.5,147.4z"/>
		</g>
	</g>
	<rect x="56.1" y="70.8" class="st12" width="107.5" height="32.7"/>
	<g>
		<path class="st9" d="M80.9,81.9v2h-3.1v9.1h-2.6V84h-3.1v-2H80.9L80.9,81.9z M89.2,81.9v2h-4.6v2.6h3.5v1.9h-3.5v2.7h4.6v2H82
			V81.9H89.2L89.2,81.9z M111.6,87.5c0,0.8-0.1,1.6-0.4,2.2c-0.3,0.7-0.7,1.3-1.2,1.8c-0.5,0.5-1.1,0.9-1.8,1.2
			c-0.7,0.3-1.5,0.4-2.4,0.4c-0.9,0-1.7-0.1-2.4-0.4c-0.7-0.3-1.3-0.7-1.8-1.2c-0.5-0.5-0.9-1.1-1.2-1.8c-0.3-0.7-0.4-1.4-0.4-2.2
			c0-0.8,0.1-1.6,0.4-2.2c0.3-0.7,0.7-1.3,1.2-1.8c0.5-0.5,1.1-0.9,1.8-1.2c0.7-0.3,1.5-0.4,2.4-0.4c0.9,0,1.7,0.1,2.4,0.4
			c0.7,0.3,1.3,0.7,1.8,1.2c0.5,0.5,0.9,1.1,1.2,1.8C111.5,85.9,111.6,86.7,111.6,87.5L111.6,87.5z M109,87.5c0-0.5-0.1-1-0.2-1.5
			c-0.1-0.4-0.3-0.8-0.6-1.1c-0.3-0.3-0.6-0.5-1-0.7c-0.4-0.2-0.8-0.2-1.3-0.2c-0.5,0-0.9,0.1-1.3,0.2c-0.4,0.2-0.7,0.4-1,0.7
			c-0.3,0.3-0.5,0.7-0.6,1.1c-0.1,0.4-0.2,0.9-0.2,1.5c0,0.6,0.1,1,0.2,1.5c0.1,0.4,0.3,0.8,0.6,1.1c0.3,0.3,0.6,0.5,1,0.7
			c0.4,0.2,0.8,0.2,1.3,0.2c0.5,0,0.9-0.1,1.3-0.2c0.4-0.2,0.7-0.4,1-0.7c0.3-0.3,0.5-0.7,0.6-1.1C108.9,88.5,109,88.1,109,87.5
			L109,87.5z M114.2,81.9c0.1,0,0.2,0,0.3,0c0.1,0,0.1,0,0.2,0.1c0.1,0,0.1,0.1,0.2,0.1c0.1,0.1,0.1,0.1,0.2,0.2l5.3,6.7
			c0-0.2,0-0.4,0-0.6c0-0.2,0-0.4,0-0.6v-5.9h2.3v11.1h-1.3c-0.2,0-0.4,0-0.5-0.1c-0.1-0.1-0.3-0.2-0.4-0.3l-5.2-6.6
			c0,0.2,0,0.4,0,0.6c0,0.2,0,0.4,0,0.5v6h-2.3V81.9H114.2L114.2,81.9z M127.2,93.1h-2.6V81.9h2.6V93.1L127.2,93.1z M135.4,84.2
			c-0.1,0.1-0.2,0.2-0.2,0.3c-0.1,0.1-0.2,0.1-0.3,0.1c-0.1,0-0.2,0-0.4-0.1c-0.1-0.1-0.3-0.2-0.5-0.2c-0.2-0.1-0.4-0.2-0.6-0.2
			c-0.2-0.1-0.5-0.1-0.7-0.1c-0.5,0-0.8,0.1-1.1,0.3c-0.2,0.2-0.4,0.5-0.4,0.8c0,0.2,0.1,0.4,0.2,0.6c0.1,0.1,0.3,0.3,0.6,0.4
			c0.2,0.1,0.5,0.2,0.8,0.3c0.3,0.1,0.6,0.2,0.9,0.3c0.3,0.1,0.6,0.2,0.9,0.4c0.3,0.1,0.6,0.3,0.8,0.6c0.2,0.2,0.4,0.5,0.6,0.8
			c0.1,0.3,0.2,0.7,0.2,1.2c0,0.5-0.1,1-0.3,1.4c-0.2,0.4-0.4,0.8-0.8,1.2c-0.3,0.3-0.8,0.6-1.3,0.8c-0.5,0.2-1.1,0.3-1.7,0.3
			c-0.3,0-0.7,0-1.1-0.1c-0.4-0.1-0.7-0.2-1-0.3c-0.3-0.1-0.7-0.3-0.9-0.5c-0.3-0.2-0.6-0.4-0.8-0.6l0.8-1.2
			c0.1-0.1,0.1-0.2,0.2-0.2c0.1-0.1,0.2-0.1,0.3-0.1c0.2,0,0.3,0,0.5,0.1c0.2,0.1,0.3,0.2,0.5,0.3c0.2,0.1,0.4,0.2,0.7,0.3
			c0.3,0.1,0.6,0.1,0.9,0.1c0.5,0,0.8-0.1,1.1-0.3c0.3-0.2,0.4-0.5,0.4-1c0-0.3-0.1-0.5-0.2-0.6c-0.1-0.2-0.3-0.3-0.6-0.4
			c-0.2-0.1-0.5-0.2-0.8-0.3c-0.3-0.1-0.6-0.2-0.9-0.3c-0.3-0.1-0.6-0.2-0.9-0.4c-0.3-0.1-0.6-0.3-0.8-0.6c-0.2-0.2-0.4-0.5-0.6-0.9
			c-0.1-0.4-0.2-0.8-0.2-1.3c0-0.4,0.1-0.8,0.3-1.2c0.2-0.4,0.4-0.8,0.7-1.1c0.3-0.3,0.7-0.6,1.2-0.7c0.5-0.2,1-0.3,1.6-0.3
			c0.3,0,0.7,0,1,0.1c0.3,0.1,0.6,0.1,0.9,0.2c0.3,0.1,0.6,0.2,0.8,0.4c0.3,0.1,0.5,0.3,0.7,0.5L135.4,84.2L135.4,84.2z M143.1,88.9
			v4.2h-2.6v-4.2l-4-7h2.3c0.2,0,0.4,0.1,0.5,0.2c0.1,0.1,0.2,0.2,0.3,0.4l1.6,3.3c0.1,0.3,0.2,0.5,0.4,0.7c0.1,0.2,0.2,0.4,0.3,0.7
			c0.1-0.2,0.2-0.4,0.3-0.7c0.1-0.2,0.2-0.5,0.3-0.7l1.6-3.3c0-0.1,0.1-0.1,0.1-0.2c0.1-0.1,0.1-0.1,0.2-0.2
			c0.1-0.1,0.1-0.1,0.2-0.1c0.1,0,0.2-0.1,0.3-0.1h2.3L143.1,88.9z"/>
		<g>
			<path class="st14" d="M95.5,81.8c1.6,0,3,0.6,4,1.7l-1.4,1.4c-0.7-0.7-1.6-1.1-2.6-1.1c-2,0-3.7,1.6-3.7,3.7
				c0,0.9,0.3,1.8,0.9,2.4c-0.3,0.4-0.6,0.7-1,0.9c0.3,0,0.7,0,1.1,0c0.3-0.1,0.5-0.1,0.7-0.2c0.6,0.4,1.3,0.6,2,0.6
				c1,0,1.9-0.4,2.6-1.1l1.4,1.4c-1,1-2.5,1.7-4,1.7c-3.1,0-5.7-2.5-5.7-5.7C89.8,84.4,92.4,81.8,95.5,81.8z"/>
			<path class="st14" d="M94.1,87.1h2.8c0.2,0,0.4,0.2,0.4,0.4l0,0c0,0.2-0.2,0.4-0.4,0.4h-2.8c-0.2,0-0.4-0.2-0.4-0.4l0,0
				C93.7,87.3,93.9,87.1,94.1,87.1L94.1,87.1z M94.1,85.7h2.8c0.2,0,0.4,0.2,0.4,0.4l0,0c0,0.2-0.2,0.4-0.4,0.4h-2.8
				c-0.2,0-0.4-0.2-0.4-0.4l0,0C93.7,85.9,93.9,85.7,94.1,85.7L94.1,85.7z M94.1,88.5h2.8c0.2,0,0.4,0.2,0.4,0.4l0,0
				c0,0.2-0.2,0.4-0.4,0.4h-2.8c-0.2,0-0.4-0.2-0.4-0.4l0,0C93.7,88.7,93.9,88.5,94.1,88.5z"/>
		</g>
	</g>
</g>
</svg>
