<?xml version="1.0" encoding="utf-8"?>
<!-- Generator: Adobe Illustrator 19.0.1, SVG Export Plug-In . SVG Version: 6.00 Build 0)  -->
<svg version="1.1" id="ico" xmlns="http://www.w3.org/2000/svg" xmlns:xlink="http://www.w3.org/1999/xlink" x="0px" y="0px"
	 viewBox="0 0 219.9 220" style="enable-background:new 0 0 219.9 220;" xml:space="preserve">
<style type="text/css">
	.st0{fill-rule:evenodd;clip-rule:evenodd;fill:#A2DD3B;}
	.st1{clip-path:url(#SVGID_2_);}
	.st2{fill-rule:evenodd;clip-rule:evenodd;fill:#ECF0F1;}
	.st3{fill-rule:evenodd;clip-rule:evenodd;fill:#284259;}
	.st4{fill-rule:evenodd;clip-rule:evenodd;fill:#E1564B;}
	.st5{fill-rule:evenodd;clip-rule:evenodd;fill:#559EE3;}
	.st6{fill-rule:evenodd;clip-rule:evenodd;fill:#FFFFFF;}
	.st7{fill-rule:evenodd;clip-rule:evenodd;fill:#C3C6CA;}
	.st8{fill:#C3C6CA;}
	.st9{fill-rule:evenodd;clip-rule:evenodd;fill:#F29A00;}
	.st10{fill-rule:evenodd;clip-rule:evenodd;fill:#83CA28;}
</style>
<g id="Ellipse_48_copy_2_2_">
	<g>
		<circle class="st0" cx="109.9" cy="110" r="110"/>
	</g>
</g>
<g>
	<defs>
		<circle id="SVGID_1_" cx="109.9" cy="110" r="110"/>
	</defs>
	<clipPath id="SVGID_2_">
		<use xlink:href="#SVGID_1_"  style="overflow:visible;"/>
	</clipPath>
	<g id="Rectangle_105" class="st1">
		<g>
			<rect x="24.9" y="110" class="st2" width="170" height="112"/>
		</g>
	</g>
</g>
<g id="Rounded_Rectangle_29">
	<g>
		<path class="st3" d="M190.9,57h-162c-2.2,0-4,1.8-4,4v33c0,2.2,1.8,4,4,4h162c2.2,0,4-1.8,4-4V61C194.9,58.8,193.1,57,190.9,57z"
			/>
	</g>
</g>
<g id="Ellipse_96">
	<g>
		<circle class="st4" cx="188.4" cy="64.5" r="2.5"/>
	</g>
</g>
<g id="Ellipse_96_copy">
	<g>
		<circle class="st5" cx="180.4" cy="64.5" r="2.5"/>
	</g>
</g>
<g id="Ellipse_96_copy_2">
	<g>
		<circle class="st5" cx="172.4" cy="64.5" r="2.5"/>
	</g>
</g>
<g id="Rectangle_104_2_">
	<g>
		<rect x="24.9" y="74" class="st6" width="170" height="36"/>
	</g>
</g>
<g id="Rectangle_104_copy">
	<g>
		<rect x="24.9" y="71" class="st7" width="170" height="3"/>
	</g>
</g>
<g id="Rounded_Rectangle_13_copy">
	<g>
		<path class="st8" d="M99.3,63.4c0-0.1-1.2-2.4-3.2-2.4H46.3H35.8c-2,0-3.2,2.3-3.2,2.4L28.9,71H35h11.3h50.5h6.1L99.3,63.4z"/>
	</g>
</g>
<g id="logo_copy_xA0_Image_1_">
	<g>
		<path class="st3" d="M75.1,84.7v2.5h-3.8v11.1h-3.1V87.2h-3.8v-2.5H75.1L75.1,84.7z M85.1,84.7v2.4h-5.5v3.2h4.2v2.3h-4.2v3.2h5.5
			v2.4h-8.7V84.7H85.1L85.1,84.7z M112.4,91.5c0,1-0.2,1.9-0.5,2.7c-0.3,0.8-0.8,1.6-1.4,2.2c-0.6,0.6-1.3,1.1-2.2,1.5
			c-0.9,0.4-1.8,0.5-2.9,0.5c-1.1,0-2-0.2-2.9-0.5c-0.9-0.4-1.6-0.8-2.2-1.5c-0.6-0.6-1.1-1.4-1.4-2.2c-0.3-0.8-0.5-1.8-0.5-2.7
			c0-1,0.2-1.9,0.5-2.7c0.3-0.8,0.8-1.6,1.4-2.2c0.6-0.6,1.4-1.1,2.2-1.5c0.9-0.4,1.8-0.5,2.9-0.5c1.1,0,2,0.2,2.9,0.5
			c0.9,0.4,1.6,0.8,2.2,1.5c0.6,0.6,1.1,1.4,1.4,2.2C112.2,89.6,112.4,90.5,112.4,91.5L112.4,91.5z M109.1,91.5
			c0-0.7-0.1-1.3-0.3-1.8c-0.2-0.5-0.4-1-0.7-1.4c-0.3-0.4-0.7-0.7-1.2-0.9c-0.5-0.2-1-0.3-1.6-0.3c-0.6,0-1.1,0.1-1.6,0.3
			c-0.5,0.2-0.9,0.5-1.2,0.9c-0.3,0.4-0.6,0.8-0.7,1.4c-0.2,0.5-0.3,1.1-0.3,1.8c0,0.7,0.1,1.3,0.3,1.8c0.2,0.5,0.4,1,0.7,1.4
			c0.3,0.4,0.7,0.7,1.2,0.8c0.5,0.2,1,0.3,1.6,0.3c0.6,0,1.1-0.1,1.6-0.3c0.5-0.2,0.9-0.5,1.2-0.8c0.3-0.4,0.6-0.8,0.7-1.4
			C109.1,92.8,109.1,92.2,109.1,91.5L109.1,91.5z M115.5,84.7c0.1,0,0.3,0,0.3,0c0.1,0,0.2,0,0.3,0.1c0.1,0,0.1,0.1,0.2,0.1
			c0.1,0.1,0.1,0.1,0.2,0.3l6.4,8.1c0-0.3,0-0.5-0.1-0.8c0-0.2,0-0.5,0-0.7v-7.2h2.8v13.5H124c-0.2,0-0.4,0-0.6-0.1
			c-0.2-0.1-0.3-0.2-0.5-0.4l-6.4-8.1c0,0.2,0,0.5,0,0.7c0,0.2,0,0.4,0,0.6v7.3h-2.8V84.7H115.5L115.5,84.7z M131.3,98.3h-3.2V84.7
			h3.2V98.3L131.3,98.3z M141.3,87.5c-0.1,0.1-0.2,0.3-0.3,0.3c-0.1,0.1-0.2,0.1-0.4,0.1c-0.1,0-0.3,0-0.5-0.1
			c-0.2-0.1-0.3-0.2-0.6-0.3c-0.2-0.1-0.4-0.2-0.7-0.3c-0.3-0.1-0.6-0.1-0.9-0.1c-0.6,0-1,0.1-1.3,0.4c-0.3,0.3-0.4,0.6-0.4,1
			c0,0.3,0.1,0.5,0.3,0.7c0.2,0.2,0.4,0.3,0.7,0.5c0.3,0.1,0.6,0.2,1,0.4c0.4,0.1,0.7,0.2,1.1,0.4c0.4,0.1,0.7,0.3,1.1,0.5
			c0.4,0.2,0.7,0.4,1,0.7c0.3,0.3,0.5,0.6,0.7,1c0.2,0.4,0.3,0.9,0.3,1.4c0,0.6-0.1,1.2-0.3,1.8c-0.2,0.5-0.5,1-0.9,1.4
			c-0.4,0.4-0.9,0.7-1.5,1c-0.6,0.2-1.3,0.4-2.1,0.4c-0.4,0-0.8,0-1.3-0.1c-0.4-0.1-0.9-0.2-1.3-0.4c-0.4-0.2-0.8-0.3-1.1-0.6
			c-0.4-0.2-0.7-0.5-0.9-0.7l0.9-1.5c0.1-0.1,0.2-0.2,0.3-0.3c0.1-0.1,0.3-0.1,0.4-0.1c0.2,0,0.4,0.1,0.6,0.2
			c0.2,0.1,0.4,0.2,0.6,0.4c0.2,0.1,0.5,0.3,0.8,0.4c0.3,0.1,0.7,0.2,1.1,0.2c0.6,0,1-0.1,1.3-0.4c0.3-0.3,0.5-0.6,0.5-1.2
			c0-0.3-0.1-0.6-0.3-0.8c-0.2-0.2-0.4-0.4-0.7-0.5c-0.3-0.1-0.6-0.2-1-0.3c-0.4-0.1-0.7-0.2-1.1-0.3c-0.4-0.1-0.7-0.3-1.1-0.4
			c-0.4-0.2-0.7-0.4-1-0.7c-0.3-0.3-0.5-0.6-0.7-1.1c-0.2-0.4-0.3-1-0.3-1.6c0-0.5,0.1-1,0.3-1.5c0.2-0.5,0.5-0.9,0.9-1.3
			c0.4-0.4,0.9-0.7,1.5-0.9c0.6-0.2,1.2-0.3,2-0.3c0.4,0,0.8,0,1.2,0.1c0.4,0.1,0.8,0.2,1.1,0.3c0.4,0.1,0.7,0.3,1,0.5
			c0.3,0.2,0.6,0.4,0.8,0.6L141.3,87.5L141.3,87.5z M150.6,93.2v5.1h-3.1v-5.1l-4.9-8.5h2.8c0.3,0,0.5,0.1,0.6,0.2
			c0.2,0.1,0.3,0.3,0.4,0.5l1.9,4c0.2,0.3,0.3,0.6,0.4,0.9c0.1,0.3,0.2,0.5,0.3,0.8c0.1-0.3,0.2-0.5,0.3-0.8
			c0.1-0.3,0.3-0.6,0.4-0.9l1.9-4c0-0.1,0.1-0.2,0.2-0.2c0.1-0.1,0.1-0.2,0.2-0.2c0.1-0.1,0.2-0.1,0.3-0.2c0.1,0,0.2-0.1,0.4-0.1
			h2.8L150.6,93.2z"/>
		<g>
			<path class="st9" d="M92.8,84.6c1.9,0,3.6,0.8,4.9,2l-1.7,1.7C95.1,87.5,94,87,92.8,87c-2.5,0-4.5,2-4.5,4.5c0,1.1,0.4,2.2,1.1,3
				c-0.3,0.5-0.7,0.9-1.2,1.1c0.4,0.1,0.8,0,1.3,0c0.3-0.1,0.6-0.2,0.9-0.3c0.7,0.4,1.5,0.7,2.4,0.7c1.2,0,2.4-0.5,3.2-1.3l1.7,1.7
				c-1.3,1.3-3,2-4.9,2c-3.8,0-6.9-3.1-6.9-6.9C85.9,87.7,89,84.6,92.8,84.6z"/>
			<path class="st9" d="M91.1,91h3.4c0.2,0,0.5,0.2,0.5,0.5l0,0c0,0.2-0.2,0.5-0.5,0.5h-3.4c-0.2,0-0.5-0.2-0.5-0.5l0,0
				C90.6,91.2,90.8,91,91.1,91L91.1,91z M91.1,89.3h3.4c0.2,0,0.5,0.2,0.5,0.5l0,0c0,0.2-0.2,0.5-0.5,0.5h-3.4
				c-0.2,0-0.5-0.2-0.5-0.5l0,0C90.6,89.5,90.8,89.3,91.1,89.3L91.1,89.3z M91.1,92.8h3.4c0.2,0,0.5,0.2,0.5,0.5l0,0
				c0,0.2-0.2,0.5-0.5,0.5h-3.4c-0.2,0-0.5-0.2-0.5-0.5l0,0C90.6,93,90.8,92.8,91.1,92.8z"/>
		</g>
	</g>
</g>
<g id="Ellipse_97">
	<g>
		<circle class="st5" cx="49.9" cy="130" r="9"/>
	</g>
</g>
<g id="Ellipse_97_copy">
	<g>
		<circle class="st5" cx="49.9" cy="182" r="9"/>
	</g>
</g>
<g id="Ellipse_97_copy_2">
	<g>
		<circle class="st10" cx="169.9" cy="156" r="9"/>
	</g>
</g>
<g id="Rectangle_106">
	<g>
		<rect x="67.9" y="120" class="st6" width="84" height="20"/>
	</g>
</g>
<g id="Rectangle_107_copy_2">
	<g>
		<path class="st8" d="M71.9,124v2h48v-2H71.9z M105.9,128h-34v2h34V128z M71.9,134h39v-2h-39V134z"/>
	</g>
</g>
<g id="Rectangle_106_copy">
	<g>
		<rect x="67.9" y="146" class="st6" width="84" height="20"/>
	</g>
</g>
<g id="Rectangle_106_copy_2">
	<g>
		<rect x="67.9" y="172" class="st6" width="84" height="20"/>
	</g>
</g>
<g id="Rectangle_107_copy_3">
	<g>
		<path class="st8" d="M71.9,150v2h63v-2H71.9z M71.9,156h27v-2h-27V156z M71.9,160h24v-2h-24V160z"/>
	</g>
</g>
<g id="Rectangle_107_copy_4">
	<g>
		<path class="st8" d="M110.9,176h-39v2h39V176z M71.9,180v2h53v-2H71.9z M71.9,186h9v-2h-9V186z"/>
	</g>
</g>
</svg>
