<?xml version="1.0" encoding="utf-8"?>
<!-- Generator: Adobe Illustrator 19.0.1, SVG Export Plug-In . SVG Version: 6.00 Build 0)  -->
<svg version="1.1" id="_x30_1" xmlns="http://www.w3.org/2000/svg" xmlns:xlink="http://www.w3.org/1999/xlink" x="0px" y="0px"
	 viewBox="0 0 206 206" style="enable-background:new 0 0 206 206;" xml:space="preserve">
<style type="text/css">
	.st0{fill:#D9DFE1;}
	.st1{fill:#FFFFFF;}
	.st2{display:none;}
	.st3{display:inline;}
	.st4{fill-rule:evenodd;clip-rule:evenodd;fill:#83CA28;}
	.st5{clip-path:url(#SVGID_2_);}
	.st6{fill-rule:evenodd;clip-rule:evenodd;fill:#ECF0F1;}
	.st7{fill-rule:evenodd;clip-rule:evenodd;fill:#DEE3E8;}
	.st8{fill-rule:evenodd;clip-rule:evenodd;fill:#F2B093;}
	.st9{fill-rule:evenodd;clip-rule:evenodd;fill:#F39A00;}
	.st10{fill-rule:evenodd;clip-rule:evenodd;fill:#FFD301;}
	.st11{fill-rule:evenodd;clip-rule:evenodd;fill:#D79A7F;}
	.st12{fill-rule:evenodd;clip-rule:evenodd;fill:#F9CEB2;}
	.st13{fill-rule:evenodd;clip-rule:evenodd;fill:#FDF0E0;}
	.st14{clip-path:url(#SVGID_4_);}
	.st15{fill-rule:evenodd;clip-rule:evenodd;fill:#FDDDC8;}
</style>
<g id="Ellipse_18_copy_9_2_">
	<path class="st0" d="M111.4,5.9C56.2,2.9,9.1,45.3,6.2,100.5c-1.3,23.9,5.9,46.3,18.9,64.2c-5.9,8.7-14.5,15.2-24.4,18.3
		c4.1,0.9,8.5,1.5,13,1.7c9.7,0.5,18.9-0.6,26.9-3.1c16.2,14,37,23,60,24.3c55.1,3,102.2-39.4,105.2-94.6
		C208.8,56,166.5,8.8,111.4,5.9z"/>
</g>
<g id="Ellipse_18_copy_4_2_">
	<path class="st1" d="M101,0C45.8,0,1,44.8,1,100.1c0,23.9,8.4,45.9,22.4,63.1c-5.5,9-13.7,15.9-23.4,19.6c4.2,0.7,8.6,1,13.1,1
		c9.7,0,18.9-1.7,26.7-4.6c16.9,13.2,38.2,21,61.2,21c55.2,0,100-44.8,100-100.1S156.3,0,101,0z"/>
</g>
<g>
	<g id="Ellipse_10_copy_5" class="st2">
		<g class="st3">
			<circle class="st4" cx="101.5" cy="100.1" r="90"/>
		</g>
	</g>
	<path class="st4" d="M185.6,132.3c3.8-10,5.9-20.8,5.9-32.1c0-49.7-40.3-90-90-90c-49.7,0-90,40.3-90,90c0,11.3,2.1,22.1,5.9,32.1
		H185.6z"/>
	<g>
		<defs>
			<circle id="SVGID_1_" cx="101.5" cy="100.1" r="90"/>
		</defs>
		<clipPath id="SVGID_2_">
			<use xlink:href="#SVGID_1_"  style="overflow:visible;"/>
		</clipPath>
		<g id="Rectangle_11" class="st5">
			<g>
				<rect x="14.1" y="132.3" class="st6" width="172.5" height="59"/>
			</g>
		</g>
		<g id="Rounded_Rectangle_14" class="st5">
			<g>
				<path class="st7" d="M127.4,146.7h-72c-1.6,0-3,1.3-3,3v2.1c0,1.6,1.3,3,3,3h72c1.6,0,3-1.3,3-3v-2.1
					C130.4,148,129.1,146.7,127.4,146.7z"/>
			</g>
		</g>
		<g id="Rectangle_12" class="st5">
			<g>
				<polygon class="st8" points="101.5,3.8 49.3,16.5 72.6,111.2 124.8,98.5 				"/>
			</g>
		</g>
		<g id="Ellipse_12" class="st5">
			<g>
				<ellipse class="st9" cx="93.5" cy="109" rx="41.6" ry="41.7"/>
			</g>
		</g>
		<g id="Ellipse_12_copy" class="st5">
			<g>
				<ellipse class="st10" cx="93.5" cy="109" rx="36.9" ry="37"/>
			</g>
		</g>
		<g id="Ellipse_12_copy_2" class="st5">
			<g>
				<ellipse class="st9" cx="93.5" cy="109" rx="26.9" ry="26.9"/>
			</g>
		</g>
		<g id="Ellipse_15" class="st5">
			<g>
				<circle class="st10" cx="93.5" cy="109.1" r="22"/>
			</g>
		</g>
		<g id="Ellipse_11" class="st5">
			<g>
				<path class="st11" d="M80.1,7.5c-4.7,21.2-6.3,44.9-5.6,53.8c1.8,22.3,26.4,34,49.1,32c22.7-2.1,35.5-16.6,41-34.8
					c1.2-3.9,4.3-12,6.1-21.5C173,25.4,84.7-12.7,80.1,7.5z"/>
			</g>
		</g>
		<g id="Ellipse_11_copy" class="st5">
			<g>
				<path class="st12" d="M84.5,7.3c-6.3,20.3-9.8,42.6-9.9,51.3c-0.3,22.4,23.2,36.3,46,36.3c22.8,0,36.9-13.3,44-30.9
					c2.2-5.6,9.5-19.6,10.8-34.8C175.4,29.2,124.3,0,84.5,7.3z"/>
			</g>
		</g>
		<g id="Ellipse_13" class="st5">
			<g>
				<path class="st13" d="M130.4,16.9C92.2,4.6,78,46.5,78,59.3c0,16.6,19.6,29.1,38.9,30.9c24.5,2.3,34.7-10.5,36.3-23.2
					C154.8,54.2,162.1,27.1,130.4,16.9z"/>
			</g>
		</g>
		<g class="st5">
			<defs>
				<path id="SVGID_3_" d="M130.4,16.9C92.2,4.6,78,46.5,78,59.3c0,16.6,19.6,29.1,38.9,30.9c24.5,2.3,34.7-10.5,36.3-23.2
					C154.8,54.2,162.1,27.1,130.4,16.9z"/>
			</defs>
			<clipPath id="SVGID_4_">
				<use xlink:href="#SVGID_3_"  style="overflow:visible;"/>
			</clipPath>
			<g id="Ellipse_13_copy" class="st14">
				<g>
					<path class="st15" d="M133.7,6.8C95.6-5.4,78.7,31.7,78.7,44.5c0,16.6,20.2,33.1,39.6,35c24.5,2.3,39.4-8.8,41-21.5
						C160.9,45.1,165.4,17,133.7,6.8z"/>
				</g>
			</g>
			<g id="Ellipse_14" class="st14">
				<g>
					<path class="st13" d="M136,8.5c-14.8,0-27.8-5.9-27.8,3c0,8.9,12,16.1,26.9,16.1c14.8,0,26.9-7.2,26.9-16.1
						C162,2.6,150.8,8.5,136,8.5z"/>
				</g>
			</g>
		</g>
	</g>
</g>
</svg>
