<?xml version="1.0" encoding="utf-8"?>
<!-- Generator: Adobe Illustrator 19.0.1, SVG Export Plug-In . SVG Version: 6.00 Build 0)  -->
<svg version="1.1" id="Layer_1" xmlns="http://www.w3.org/2000/svg" xmlns:xlink="http://www.w3.org/1999/xlink" x="0px" y="0px"
	 viewBox="0 0 200 200.5" style="enable-background:new 0 0 200 200.5;" xml:space="preserve">
<style type="text/css">
	.st0{fill-rule:evenodd;clip-rule:evenodd;fill:#57A2E8;}
	.st1{fill:#A2DD3B;}
	.st2{opacity:0.6;fill-rule:evenodd;clip-rule:evenodd;fill:#404C59;}
	.st3{fill-rule:evenodd;clip-rule:evenodd;fill:#D48600;}
	.st4{fill-rule:evenodd;clip-rule:evenodd;fill:#F39A00;}
	.st5{fill-rule:evenodd;clip-rule:evenodd;fill:#FFFFFF;}
	.st6{fill-rule:evenodd;clip-rule:evenodd;fill:#EEF2F2;}
	.st7{fill-rule:evenodd;clip-rule:evenodd;fill:#F29A00;}
</style>
<circle class="st0" cx="100" cy="100" r="100"/>
<g>
	<path class="st1" d="M164.2,161.9c-3.2,1.7-2.2,0.2-5.4,2.7C162.7,166.3,163.6,165.8,164.2,161.9z"/>
	<path class="st1" d="M182.5,57.6c2.9,2.1,5.7,2.7,9.1,2.6c-1.5-3.5-3.2-6.8-5.1-10.1C184.3,52.3,182.8,55,182.5,57.6z"/>
	<path class="st1" d="M53.7,74.5c-4.1-6.2-4.8-3.1-11.8-2.2c-6.5,0.8-7.1-3.3-10.7,0.9c0.2,0.2,0.5,0.9,1.2,2.4
		c0.7,1.5,0.4-1.3,1.4,3.4c6.2,0.5,4.9,1.6,10.3,0.1C47.7,78.1,51.1,77.7,53.7,74.5z"/>
	<path class="st1" d="M175.3,37.2c0,0-3-1-1.4,0.6C175.1,39,177.7,36.3,175.3,37.2z"/>
	<path class="st1" d="M173,36.7c-3.4-1.9-6.3-1.3-10.6-1C164.7,37.8,167.5,39.2,173,36.7z"/>
	<path class="st1" d="M31.2,73.3C31.2,73.2,31.2,73.2,31.2,73.3C30.6,72.3,33,78.4,31.2,73.3z"/>
	<path class="st1" d="M31.2,171.2l0.4-0.4C31.5,170.9,31,171.1,31.2,171.2z"/>
	<path class="st1" d="M121.7,94.6l-2.3,2.9C122.8,96.9,121.7,99.9,121.7,94.6z"/>
	<path class="st1" d="M140,164.9c2.2,0.3,2.5-0.3,4.3-1.7l-7.9-1.3C137.2,164.2,136.8,164.5,140,164.9z"/>
	<polygon class="st1" points="113.7,103.2 112.6,102.8 112.9,103.8 	"/>
	<path class="st1" d="M3.7,73.6c2.9-0.8,6.1-1.5,9.1-3.4c8-5.1,20.3-3.4,26.7-8.8c5.6-4.8-4.7-5.7,11.8-11.9
		c-2.1-1.7-2.5-2.5-4.6-4.2c5.6,0.1,0.2,2.7,4.7,0.9c1-2.5,0.8-0.3-0.4-3c-0.5-1.2-0.9-1.8-1.1-2c0,3.1-0.8-0.7,0,0c0,0,0,0,0-0.1
		l15.8-6.3c-8.8-2.5-11.2,1.5-16.3-1.7c-0.2-0.1-0.8-0.8-2.4-1.3c-1.5-0.5-3.5-0.8-5.6-0.9h-7C32.1,30.9,30,31,28,31.1
		C16.6,42.9,8.2,57.4,3.7,73.6z M33.5,59.1l0.4,0.4C33.8,59.4,33.4,59.2,33.5,59.1z"/>
	<path class="st1" d="M193.6,135.7c-0.3-0.7-0.6-1.5-0.8-2.3c0.8-0.5,1.5-1,2.1-1.5c3.3-9.9,5-20.5,5-31.4c0-12.4-2.2-24.2-6.3-35.1
		c-3.1,0.5-0.7,0.2-2.6-0.2c-8.8-1.7-7.4,1.6-14.9,4.6c-1.6-3.3,1.3-5.3-6.9-4.5l2.1,5.3l-6.9,1.5l-0.5,3.2c-3.9,0.1-2-0.6-5.2-0.2
		c-4.9,0.7,1.7,2.2-4.2,0.9l-0.8-3.9h10.6l1.4-4.4l-26.3-8.4c-8.9-1.5-26.7,3.9-29,6.2c-4.5,5.7,2.7-2.1-0.8,4
		C104.9,78,92.7,81.1,91.6,83c-0.3,2.6-0.4,3.7-0.2,6.5l1.3,4.7c7.5,0.9,4.9-0.5,10.4-2.2l4.4,6.8l-3.3,1.5l-2-5.1
		c-8.4,4.5-4.2,3.7-4.1,10.8c-12.2,2.2-8,6.5-15.1,8.5c-0.1-0.2-0.1-0.8-0.1-0.7c0,0.1-0.1-0.6-0.1-0.7l-1.9-4.6
		c-11.1-13.4-5.3-6.3-6.1-11.7c0-0.1-0.1-0.5-0.1-0.6l-1.2-2.2c-0.8-1.8,0.3,0-0.7-2.9l-6.3,3.3c-2-1.5,0.1-1.4-2.8-0.4
		c-1.7,7.3,2.5-1.9,1.1,5.9c-0.9,4.6-6.9,1.1-9.6,7.5l-0.5,2c-1,4.4-1.7-0.8-0.5,4.3c7.8,2,10.7-3.7,12.2-9.8
		c4.6,4.8-0.9-0.6,4.9,2.4c-8.9,5.5,1.5,0.4-5.9,6.3l3.2,1.3c-1,1.2-1.1,1.2-2,2l-1.8,1.5c-0.1,0.1-0.4,0.3-0.6,0.5l17.5-2.1
		c-2.4,3.3-3,2.6-7.4,4.4c-0.3,0.1-0.5,0.3-0.8,0.4l-7.2,1.1c0.8,7.7,10.6,2.8,6.3,15.7c-4.4,1.4-1.7,0.3-4.3,0.3
		c-8.2-0.1-5.9-1.7-15,0.5c0,4.3-0.1,7.4-0.5,11.3c-0.5,5.7,1.5,4.1-0.6,8.4c4,0.4,8.5-1,7.4,4.3c-0.8,3.9-4,5-6.6,7.5
		c-7.7,7.3-0.4,7.1-9,13.8c15.9,10.7,35.1,16.9,55.7,16.9C142.8,200.5,179.4,173.6,193.6,135.7z M184.9,152.7c0,0-0.5-0.2-0.4-0.4
		L184.9,152.7z M169.3,128.6c-1.5,3.5-2.1,3.8-6,1.3C166.2,128.6,167.2,127.9,169.3,128.6z M158.9,77.2c0,0-0.5-0.2-0.4-0.4
		L158.9,77.2z M156.6,84.2c0,0-0.5-0.2-0.4-0.4L156.6,84.2z M160.1,135.5c5.8-0.7,4.7-3.4,11.5,0.2c4.4,2.3,8.1,3.4,7.9,8
		c-6.3,4.6-11.4-1.1-16.5-1.8c-7.1-0.9-7.8,6.5-15.9,0.6c-0.4-4.4,3-10.7,6-13.7C158.7,131.7,156,131.4,160.1,135.5z M151.4,87.1
		c-4.1,1.5-2.5,2.2-4.6-0.9C148.9,85,147.6,84.3,151.4,87.1z M137.7,64.2c0,0-0.5-0.2-0.4-0.4L137.7,64.2z M137.7,84.2
		c0,0-0.5-0.2-0.4-0.4L137.7,84.2z M137.3,81.1l0.1,1.6C135.5,83,135.3,79.4,137.3,81.1z M135.3,84.2c0,0-0.5-0.2-0.4-0.4
		L135.3,84.2z M134.8,89.3l3.6-0.9c3.7-0.4,1.9-0.6,3.9,0.2c-3.3,1.9-3.9,1.3-8.3,1C134.3,89.4,134.7,89,134.8,89.3z M140.1,92.5
		c0,0-0.5-0.2-0.4-0.4L140.1,92.5z M112.6,102.8c2.8-6.7,3.5,2.4,5.1-5.7c0.5-2.5-1.9,0.5,0.7-3.8c0.9-1.4,1.8-1.2,3.8-3.5
		c-3.2-3.8-7.3-4.2-0.5-9.7c5.8-4.6,4.5-6.7,10.9-6.9c-1.4,5.3-2.9,3.5-6.8,7.4c-0.2,6.3,2,7.6,6.6,9.9c-5.3,3.7-0.6-2.6-4.3,3.2
		c5.8,2.5,1.7-3.1,5.9,2c-5,2.6,0.1-1.3-6.5,0.8c-1.7,5.2,0.9,3.8-2.6,6.9c-3.3,3-1.4,0.4-6.2,1c-3.7,0.5-5.1,2.5-11.9,0
		C110.2,101.8,107.7,102.9,112.6,102.8z M103.5,104.3c0,0-0.5-0.2-0.4-0.4L103.5,104.3z M164.2,175.6c-5.5,0.5-2.9-0.8-7.9-0.6
		c-4.5,0.2-2.8,1.4-8.9,0.4c-6.5-1.1-11.2-4.8-16.1-5.4c-8.1,6.1-1.3,2.9-4.9,8.1c-7-0.9-9.9-4.5-11.4-5.6c-1.9-1.3-9.4-3.6-12.9-5
		c2.5-3.5,1.5-0.7,1.8-4.2l0.1-6l-20.8,1.2c-7.5,0.9-14.4,8-21.2,3c2.8-3.5,12.1-0.8,14.2-9c1.1-4.3-1.3-3.6,4.7-6.9
		c4.9-2.7,3.3-3.2,5.6-7.4c10.1,2.7,5.4,0,13.2-2.4c3.1,2.5,4,5.8,8,8.5c2.5,1.6,2.2,0.8,5.3,3c3.8,2.8,2.1,0.7,4.1,4.7
		c-7.9,6.4-4.5-2.1-9.3,3.8l6.8,3.4l2.4-3.9c3.8-4.9,1.9-2.8,2.3-7c5-0.3,0.1,1.8,4,0.5c-1.5-3.9,0.6-1-3.5-3.8
		c-5.2-3.5-11.3-6-11.9-12.8c6.1,1.7,4,3.8,16.9,10.2c1.2,4.6-2.7,2,4.3,12.2c2.6,3.9,1.8,3.7,5.8,6c2.3-3.8-1.6-2.4,4.6-5.6
		c-2.3-3.6-2.4-2.2-4.5-6.3c5.6-2.2-0.8-2.2,7.1-2.4c0,1.1-0.1,3.7,0,4.7c0.8,5.4,3.1,4.1,4.7,10.6c6.1-4,9.5-0.3,14.7-0.9
		c3.2-0.3,2.3-1.1,6.5-1.5C168,165.3,167.4,171.5,164.2,175.6z"/>
</g>
<g>
	<g>
		<path class="st2" d="M97.7,65.5c-0.4,10,14.8,35,14.8,35s31.9-22.4,32.3-32.4c0.2-4.2-2.2-8.3-6.2-11.4h-36.2
			C99.4,59.2,97.8,62.1,97.7,65.5L97.7,65.5z M100.1,66.7L100.1,66.7c0.2-4.1,6-7.3,13.1-7c7.1,0.3,12.7,3.8,12.6,8
			c-0.2,4.1-6,7.3-13.1,7C105.5,74.4,99.9,70.8,100.1,66.7z"/>
		<path class="st3" d="M82.6,42.8c-0.3,17.2,30.1,57.7,30.1,57.7s31.8-40.5,32.1-57.7c0.3-17.2-13.4-31.1-30.5-31.1
			C97.1,11.7,82.9,25.6,82.6,42.8L82.6,42.8z M100.1,43.3L100.1,43.3c0.1-7.1,6-12.9,13.1-12.9c7.1,0,12.8,5.8,12.6,12.9
			c-0.1,7.1-6,12.9-13.1,12.9C105.6,56.1,99.9,50.4,100.1,43.3z"/>
		<path class="st4" d="M81.4,42.8c0,17.2,31.1,57.7,31.1,57.7s31.1-40.5,31.1-57.7c0-17.2-13.9-31.1-31.1-31.1
			C95.3,11.7,81.4,25.6,81.4,42.8L81.4,42.8z M98.8,43.3L98.8,43.3c0-7.1,5.8-12.9,12.9-12.9c7.1,0,12.9,5.8,12.9,12.9
			c0,7.1-5.8,12.9-12.9,12.9C104.6,56.1,98.8,50.4,98.8,43.3z"/>
		<circle class="st5" cx="111.8" cy="43" r="13.5"/>
	</g>
	<g>
		<path class="st3" d="M113.5,43.9l-1.4-1.4l1.4-1.4l2.5-2.5l2.4-2.4l3.5-3.5c-2.4-2-5.5-3.2-8.9-3.2c-7.8,0-14.1,6.3-14.1,14.1
			c0,3.6,1.3,6.8,3.5,9.3c-1,1.4-3.3,1.6-4.8,2.5c2.9,0.6,4.5,0.4,7.2-0.3c2,1.4,5.4,2.5,8.1,2.5c4.3,0,7.8-1.5,10.2-4l-1.2-1.2
			l-3.6-3.6l-2.4-2.4L113.5,43.9z"/>
		<path class="st3" d="M113,29.5c7.8,0,14.2,6.3,14.2,14.1c0,4-1.4,7.5-4,10.1l-20.1-20.1C105.7,31.1,109.2,29.5,113,29.5z"/>
		<path class="st6" d="M112.1,28.4c7.8,0,14.1,6.3,14.1,14.1c0,7.8-6.3,14.1-14.1,14.1c-2.8,0-5.4-0.8-7.6-2.2
			c-0.9,0.4-1.8,0.7-2.8,0.9c-1.4,0.3-2.7,0.3-4,0.1c1.6-0.9,2.9-2.1,3.9-3.6c-2.2-2.5-3.5-5.7-3.5-9.3
			C98,34.7,104.3,28.4,112.1,28.4z"/>
		<path class="st7" d="M106.7,41.1h10.7c0.8,0,1.4,0.6,1.4,1.4l0,0c0,0.8-0.6,1.4-1.4,1.4h-10.7c-0.8,0-1.4-0.6-1.4-1.4l0,0
			C105.3,41.7,105.9,41.1,106.7,41.1L106.7,41.1z M106.7,35.7h10.7c0.8,0,1.4,0.6,1.4,1.4l0,0c0,0.8-0.6,1.4-1.4,1.4h-10.7
			c-0.8,0-1.4-0.6-1.4-1.4l0,0C105.3,36.4,105.9,35.7,106.7,35.7L106.7,35.7z M106.7,46.5h10.7c0.8,0,1.4,0.6,1.4,1.4l0,0
			c0,0.8-0.6,1.4-1.4,1.4h-10.7c-0.8,0-1.4-0.6-1.4-1.4l0,0C105.3,47.1,105.9,46.5,106.7,46.5z"/>
	</g>
</g>
<g>
	<path class="st2" d="M133,125.3c-0.1,3.7,5.4,12.8,5.4,12.8s11.7-8.2,11.8-11.9c0.1-1.5-0.8-3-2.3-4.2h-13.3
		C133.6,123,133,124.1,133,125.3L133,125.3z M133.8,125.7L133.8,125.7c0.1-1.5,2.2-2.7,4.8-2.6c2.6,0.1,4.7,1.4,4.6,2.9
		c-0.1,1.5-2.2,2.7-4.8,2.6C135.8,128.5,133.8,127.2,133.8,125.7z"/>
	<path class="st3" d="M127.4,117c-0.1,6.3,11,21.1,11,21.1s11.6-14.9,11.8-21.1c0.1-6.3-4.9-11.4-11.2-11.4
		C132.7,105.6,127.5,110.7,127.4,117L127.4,117z M133.8,117.1L133.8,117.1c0-2.6,2.2-4.7,4.8-4.7c2.6,0,4.7,2.1,4.6,4.7
		c0,2.6-2.2,4.7-4.8,4.7C135.9,121.9,133.8,119.8,133.8,117.1z"/>
	<path class="st4" d="M127,117c0,6.3,11.4,21.1,11.4,21.1s11.4-14.9,11.4-21.1c0-6.3-5.1-11.4-11.4-11.4
		C132.1,105.6,127,110.7,127,117L127,117z M133.4,117.1L133.4,117.1c0-2.6,2.1-4.7,4.7-4.7c2.6,0,4.7,2.1,4.7,4.7
		c0,2.6-2.1,4.7-4.7,4.7C135.5,121.9,133.4,119.8,133.4,117.1z"/>
	<circle class="st5" cx="138.1" cy="117.1" r="4.9"/>
</g>
<g>
	<path class="st2" d="M51.6,99.4c-0.1,3.7,5.4,12.8,5.4,12.8s11.7-8.2,11.8-11.9c0.1-1.5-0.8-3-2.3-4.2H53.3
		C52.3,97.1,51.7,98.2,51.6,99.4L51.6,99.4z M52.5,99.8L52.5,99.8c0.1-1.5,2.2-2.7,4.8-2.6c2.6,0.1,4.7,1.4,4.6,2.9
		c-0.1,1.5-2.2,2.7-4.8,2.6C54.5,102.7,52.4,101.3,52.5,99.8z"/>
	<path class="st3" d="M46.1,91.1c-0.1,6.3,11,21.1,11,21.1s11.6-14.9,11.8-21.1C69,84.8,64,79.7,57.7,79.7
		C51.4,79.7,46.2,84.8,46.1,91.1L46.1,91.1z M52.5,91.3L52.5,91.3c0-2.6,2.2-4.7,4.8-4.7c2.6,0,4.7,2.1,4.6,4.7
		c0,2.6-2.2,4.7-4.8,4.7C54.5,96,52.4,93.9,52.5,91.3z"/>
	<path class="st4" d="M45.6,91.1c0,6.3,11.4,21.1,11.4,21.1s11.4-14.9,11.4-21.1c0-6.3-5.1-11.4-11.4-11.4
		C50.7,79.7,45.6,84.8,45.6,91.1L45.6,91.1z M52,91.3L52,91.3c0-2.6,2.1-4.7,4.7-4.7c2.6,0,4.7,2.1,4.7,4.7c0,2.6-2.1,4.7-4.7,4.7
		C54.1,96,52,93.9,52,91.3z"/>
	<circle class="st5" cx="56.8" cy="91.2" r="4.9"/>
</g>
</svg>
