<?xml version="1.0" encoding="utf-8"?>
<!-- Generator: Adobe Illustrator 19.0.1, SVG Export Plug-In . SVG Version: 6.00 Build 0)  -->
<svg version="1.1" id="Layer_1" xmlns="http://www.w3.org/2000/svg" xmlns:xlink="http://www.w3.org/1999/xlink" x="0px" y="0px"
	 viewBox="0 0 220 220" style="enable-background:new 0 0 220 220;" xml:space="preserve">
<style type="text/css">
	.st0{fill-rule:evenodd;clip-rule:evenodd;fill:#315DA1;}
	.st1{clip-path:url(#SVGID_2_);}
	.st2{fill-rule:evenodd;clip-rule:evenodd;fill:#57A2E8;}
	.st3{clip-path:url(#SVGID_4_);}
	.st4{fill-rule:evenodd;clip-rule:evenodd;fill:#A2DD3B;}
	.st5{opacity:0.1;fill-rule:evenodd;clip-rule:evenodd;fill:#FFFFFF;}
	.st6{opacity:0.6;fill-rule:evenodd;clip-rule:evenodd;fill:#404C59;}
	.st7{fill-rule:evenodd;clip-rule:evenodd;fill:#D48600;}
	.st8{fill-rule:evenodd;clip-rule:evenodd;fill:#F39A00;}
	.st9{fill-rule:evenodd;clip-rule:evenodd;fill:#FFFFFF;}
	.st10{fill-rule:evenodd;clip-rule:evenodd;fill:#EEF2F2;}
	.st11{fill-rule:evenodd;clip-rule:evenodd;fill:#F29A00;}
	.st12{opacity:0.5;fill-rule:evenodd;clip-rule:evenodd;fill:#89C1EF;}
</style>
<circle class="st0" cx="110" cy="110" r="110"/>
<g>
	<defs>
		<circle id="SVGID_1_" cx="110" cy="110" r="110"/>
	</defs>
	<clipPath id="SVGID_2_">
		<use xlink:href="#SVGID_1_"  style="overflow:visible;"/>
	</clipPath>
	<g class="st1">
		<circle class="st2" cx="85.4" cy="139.5" r="109.1"/>
		<g>
			<defs>
				<circle id="SVGID_3_" cx="85.4" cy="139.5" r="109.1"/>
			</defs>
			<clipPath id="SVGID_4_">
				<use xlink:href="#SVGID_3_"  style="overflow:visible;"/>
			</clipPath>
			<g class="st3">
				<path class="st4" d="M160.8,48.9c-3-1.8-55.8-19.4-55.8-19.4l20.6,12.1c0,0-17.7-1.4-14.5,2.4c3.2,3.9,10.9,13.3,10.9,13.3
					s-6.1,2.7-9.7,1.2c-3.6-1.5-3.9,4.6-2.4,4.8c1.5,0.3,7.4,5.2,9.7,6.1c2.3,0.9,0.8,2.6,1.2,4.8c0.4,2.2,6.4,11.3,8.5,7.3
					c2.1-4.1,5.9-8.5,8.5-9.7c2.6-1.2,4.7,1.5,6.1,3.6c1.4,2.2-2.7,0.9,7.3,4.8c9.9,4,9.7,7.3,9.7,7.3s1.5,3.1-3.6,2.4
					c-5.1-0.7-7.9-1.7-10.9-3.6c-3-1.9-6.6-4.2-8.5-3.6c-0.7,0.2-1.7,0.2-2.9,0.2c-1.9,0-4.2,0-5.6,1c-2.2,1.7-4.1,1.9-6.1,6.1
					c-2,4.1-3,5.4-3.6,10.9c-0.6,5.5-2.1,5.9-2.4,9.7c-0.4,3.8,3.6,6.9,3.6,8.5c0,1.6-4.4,5.5,6.1,14.5c10.4,9.1,15,12.3,20.6,9.7
					c5.6-2.6,5.8-4.9,8.5-2.4c2.7,2.5,4.3,5.6,3.6,7.3c-0.2,0.5-0.9,0.4-1.5,0.3c-1.4-0.3-2.8-0.6,0.3,5.8c4.6,9.3,7.8,5.1,4.8,10.9
					c-3,5.8-8.9,17.4-9.7,20.6c-0.8,3.2,2.6,2.8,0,6.1c-2.6,3.3-4.7,2.3-3.6,6.1c1.1,3.7,3.3,6,2.4,7.3c-0.9,1.3,3.6,14.5,3.6,14.5
					l35.5-33.7l15.4-69.4C206.9,116.8,163.8,50.7,160.8,48.9z"/>
				<path class="st4" d="M99.7,155.4c-0.8-2.1-6-2.3-9.7-3.6c-3.7-1.4-4.2,0-6.1-2.4s-10.4-1.5-12.1-3.6c-1.7-2.1-0.5-7.2-3.6-10.9
					c-1.8-2.1-3.9-1.9-6.3-1.8c-1.8,0.1-3.8,0.2-5.9-0.6c-4.8-2,2.3-8.7-8.5-8.5c-10.8,0.2-18.5,0.9-21.8,0
					c-3.4-0.9-7.8-6.7-9.7-10.9c-1.9-4.2,2.6-7.2-4.8-8.5c-7.5-1.3-2-8.6,4.8-17c6.9-8.4,7.3,3.6,7.3,3.6s8.2,0.1,9.7-6.1
					c1.5-6.2,23-19.4,23-19.4s4.5-6,14.5-6.1c10.1-0.1,6.7-11.2,2.4-15.8c-2.4-2.6-8.7,0.6-13.9,3.8c-3.9,2.4-7.2,4.8-7.9,4.7
					c-1.7-0.1,0-4.8,0-4.8s12-5,13.3-8.5c1.3-3.5-10.9-1.2-10.9-1.2s-5.4-5.9-8.5-4.8c-3.1,1.1-12.3,8.2-25.5,17
					C6.4,58.7-5.8,70.6-7,76.6c-1.2,5.9,8.4,20,8.5,26.7c0.1,6.7,2.5,5.1,3.6,7.3c1.2,2.2,0,1.1,1.2,2.4c1.2,1.3,6.1,2.4,6.1,2.4
					s-1.8,1.1,2.4,4.8c4.2,3.7,4.8,6.1,4.8,6.1s2.2,8.1-2.4,13.3c-4.6,5.3,0.1,3.1-1.2,8.5c-1.4,5.4,2,3.4,4.8,10.9
					c2.9,7.6,1.7,8.3,9.7,14.5c8,6.2,6.5,5.4,6.1,13.3c-0.4,8,6,27.3,12.1,37.6c6.2,10.3,13.4,5.3,19.4,4.8c6-0.5-2.1-2.4-7.3-2.4
					c-5.2,0-2.6-2.5-3.6-6.1c-1.1-3.5,0.7-3.4,2.4-6.1c1.2-1.9,1.5-1.6,2.6-1.4c0.5,0.1,1.2,0.2,2.2,0.1c3.4-0.2,2.5-6,7.3-9.7
					c4.8-3.7,2.8-3.9,8.5-12.1c4-5.7,7.8-5.3,10.1-4.9c1,0.2,1.7,0.4,2,0c1-1.1,0.9-6.1,3.6-12.1C98.7,168.8,100.4,157.5,99.7,155.4
					z"/>
				<circle class="st5" cx="54" cy="109.2" r="109.1"/>
			</g>
		</g>
	</g>
</g>
<g>
	<path class="st6" d="M152.8,80.3c-5.2,6.4-7.7,30.4-7.7,30.4s32.2,1.1,37.4-5.3c2.2-2.7,2.7-6.6,1.6-10.6l-23.8-18
		C157.1,77,154.6,78.1,152.8,80.3L152.8,80.3z M153.8,82.2L153.8,82.2c2.2-2.6,7.6-1.8,12.1,1.9c4.5,3.7,6.5,8.9,4.3,11.5
		c-2.2,2.6-7.6,1.8-12.1-1.9C153.6,90,151.6,84.9,153.8,82.2z"/>
	<path class="st7" d="M154.2,57.8c-8.7,11.2-8.9,53-8.9,53s41.1-10.9,49.9-22c8.7-11.2,6.7-27.1-4.6-35.7
		C179.2,44.6,162.9,46.7,154.2,57.8L154.2,57.8z M165.4,66.8L165.4,66.8c3.6-4.6,10.3-5.5,15-2c4.7,3.5,5.5,10.1,1.9,14.8
		c-3.6,4.6-10.3,5.5-15,2C162.7,78,161.8,71.4,165.4,66.8z"/>
	<path class="st8" d="M153.4,57.2c-8.5,11.3-8.2,53.5-8.2,53.5s40.6-11.2,49.2-22.6c8.5-11.3,6.3-27.4-5-35.9
		C178,43.7,161.9,45.9,153.4,57.2L153.4,57.2z M164.6,66.2L164.6,66.2c3.5-4.7,10.2-5.6,14.9-2.1c4.7,3.5,5.6,10.2,2.1,14.9
		c-3.5,4.7-10.2,5.6-14.9,2.1C162,77.5,161.1,70.9,164.6,66.2z"/>
	<circle class="st9" cx="173.3" cy="72.5" r="11.1"/>
	<g>
		<path class="st7" d="M174,74l-0.2-1.6l1.6-0.2l2.9-0.4l2.8-0.4l4-0.6c-0.6-2.5-2.1-4.8-4.3-6.5c-5.1-3.9-12.4-2.9-16.3,2.3
			c-1.8,2.4-2.5,5.2-2.3,7.9c-1.4,0.5-3-0.6-4.4-0.7c1.6,1.8,2.8,2.5,4.9,3.4c0.6,1.9,2.3,4.3,4.1,5.7c2.8,2.1,5.9,2.9,8.7,2.5
			l-0.2-1.4l-0.6-4.1l-0.4-2.8L174,74z"/>
		<path class="st7" d="M180.8,64.2c5.1,3.9,6.2,11.2,2.3,16.3c-2,2.6-4.7,4.3-7.6,4.7L172.3,62C175.2,61.6,178.3,62.3,180.8,64.2z"
			/>
		<path class="st10" d="M180.7,63c5.1,3.9,6.1,11.2,2.3,16.3c-3.9,5.1-11.2,6.1-16.3,2.3c-1.8-1.4-3.1-3.2-3.9-5.2
			c-0.8-0.2-1.6-0.4-2.3-0.8c-1-0.5-1.9-1.2-2.7-1.9c1.5,0.2,3,0,4.3-0.4c-0.2-2.7,0.5-5.5,2.3-7.9C168.3,60.2,175.6,59.2,180.7,63z
			"/>
		<path class="st11" d="M170.9,68.7L178,74c0.5,0.4,0.6,1.1,0.2,1.6l0,0c-0.4,0.5-1.1,0.6-1.6,0.2l-7.1-5.3
			c-0.5-0.4-0.6-1.1-0.2-1.6l0,0C169.6,68.4,170.4,68.3,170.9,68.7L170.9,68.7z M173.6,65.2l7.1,5.3c0.5,0.4,0.6,1.1,0.2,1.6l0,0
			c-0.4,0.5-1.1,0.6-1.6,0.2l-7.1-5.3c-0.5-0.4-0.6-1.1-0.2-1.6l0,0C172.3,64.9,173.1,64.8,173.6,65.2L173.6,65.2z M168.2,72.2
			l7.1,5.3c0.5,0.4,0.6,1.1,0.2,1.6l0,0c-0.4,0.5-1.1,0.6-1.6,0.2l-7.1-5.3c-0.5-0.4-0.6-1.1-0.2-1.6l0,0
			C167,72,167.7,71.8,168.2,72.2z"/>
	</g>
</g>
<g>
	<path class="st6" d="M130,44.6c-0.7,3.6,3.4,13.5,3.4,13.5s12.9-6.3,13.6-9.9c0.3-1.5-0.3-3.1-1.6-4.5l-13.1-2
		C131,42.4,130.2,43.4,130,44.6L130,44.6z M130.8,45.1L130.8,45.1c0.3-1.5,2.6-2.3,5.2-1.8c2.6,0.5,4.4,2.1,4.1,3.6
		c-0.3,1.5-2.6,2.3-5.2,1.8C132.3,48.2,130.5,46.6,130.8,45.1z"/>
	<path class="st7" d="M125.8,35.5c-1.1,6.2,7.6,22.6,7.6,22.6s13.8-12.9,14.9-19.1c1.1-6.2-3.1-12-9.3-13
		C132.8,25,126.9,29.3,125.8,35.5L125.8,35.5z M132.1,36.6L132.1,36.6c0.4-2.6,2.9-4.3,5.5-3.9c2.6,0.4,4.3,2.8,3.9,5.4
		c-0.4,2.6-2.9,4.3-5.5,3.9C133.4,41.6,131.7,39.2,132.1,36.6z"/>
	<path class="st8" d="M125.3,35.4c-1,6.2,8,22.7,8,22.7s13.6-13,14.5-19.2c1-6.2-3.3-12.1-9.5-13C132.1,24.9,126.3,29.2,125.3,35.4
		L125.3,35.4z M131.7,36.6L131.7,36.6c0.4-2.6,2.8-4.3,5.4-3.9c2.6,0.4,4.3,2.8,3.9,5.4c-0.4,2.6-2.8,4.3-5.4,3.9
		C133,41.6,131.2,39.1,131.7,36.6z"/>
	<circle class="st9" cx="136.4" cy="37.2" r="5"/>
</g>
<g>
	<path class="st6" d="M39.7,117.9c0.2,4,7.2,13.4,7.2,13.4s11.9-10.1,11.6-14.1c-0.1-1.7-1.2-3.2-2.9-4.3l-14.4,1.4
		C40.2,115.4,39.6,116.6,39.7,117.9L39.7,117.9z M40.7,118.3L40.7,118.3c-0.1-1.7,2.1-3.1,5-3.3c2.8-0.2,5.2,1,5.3,2.7
		c0.1,1.7-2.1,3.1-5,3.3C43.2,121.2,40.8,120,40.7,118.3z"/>
	<path class="st7" d="M32.8,109.5c0.5,6.8,14.2,21.8,14.2,21.8s11.1-17.3,10.6-24.2c-0.5-6.8-6.5-11.9-13.3-11.2
		C37.4,96.5,32.3,102.6,32.8,109.5L32.8,109.5z M39.8,109L39.8,109c-0.2-2.8,1.9-5.3,4.7-5.6c2.8-0.3,5.3,1.8,5.5,4.6
		c0.2,2.8-1.9,5.3-4.7,5.6C42.5,113.9,40,111.8,39.8,109z"/>
	<path class="st8" d="M32.3,109.5c0.6,6.8,14.6,21.8,14.6,21.8s10.8-17.3,10.2-24.2c-0.6-6.8-6.7-11.8-13.5-11.2
		C36.7,96.6,31.7,102.7,32.3,109.5L32.3,109.5z M39.3,109L39.3,109c-0.3-2.8,1.8-5.3,4.6-5.6c2.8-0.3,5.3,1.8,5.6,4.6
		c0.3,2.8-1.8,5.3-4.6,5.6C42.1,113.9,39.6,111.9,39.3,109z"/>
	<circle class="st9" cx="44.5" cy="108.5" r="5.4"/>
</g>
<circle class="st12" cx="65.9" cy="24.8" r="2"/>
<circle class="st12" cx="77" cy="11.6" r="1"/>
<circle class="st12" cx="89.5" cy="19" r="2"/>
<circle class="st12" cx="122.4" cy="11.4" r="1.4"/>
<circle class="st12" cx="118.2" cy="22.8" r="2"/>
<circle class="st12" cx="160.9" cy="22.8" r="2"/>
<circle class="st12" cx="160.3" cy="38.3" r="1.4"/>
<circle class="st12" cx="207.5" cy="95" r="2"/>
<circle class="st12" cx="203" cy="112.3" r="1.4"/>
<circle class="st12" cx="210.4" cy="118.5" r="2"/>
<circle class="st12" cx="202.5" cy="145.2" r="2"/>
<circle class="st12" cx="196.9" cy="162.2" r="1.4"/>
</svg>
