<?xml version="1.0" encoding="utf-8"?>
<!-- Generator: Adobe Illustrator 19.0.1, SVG Export Plug-In . SVG Version: 6.00 Build 0)  -->
<svg version="1.1" id="Layer_1" xmlns="http://www.w3.org/2000/svg" xmlns:xlink="http://www.w3.org/1999/xlink" x="0px" y="0px"
	 viewBox="0 0 150.1 174.7" style="enable-background:new 0 0 150.1 174.7;" xml:space="preserve">
<style type="text/css">
	.st0{fill-rule:evenodd;clip-rule:evenodd;fill:#B1B2B3;}
	.st1{fill-rule:evenodd;clip-rule:evenodd;fill:#ECF0F1;}
	.st2{fill-rule:evenodd;clip-rule:evenodd;fill:#83CA28;}
	.st3{fill-rule:evenodd;clip-rule:evenodd;fill:#66A219;}
	.st4{fill-rule:evenodd;clip-rule:evenodd;fill:#DEE3E8;}
	.st5{fill-rule:evenodd;clip-rule:evenodd;fill:#F2B093;}
	.st6{fill-rule:evenodd;clip-rule:evenodd;fill:#F39A00;}
	.st7{fill-rule:evenodd;clip-rule:evenodd;fill:#FFD301;}
	.st8{fill-rule:evenodd;clip-rule:evenodd;fill:#D79A7F;}
	.st9{fill-rule:evenodd;clip-rule:evenodd;fill:#F9CEB2;}
	.st10{fill-rule:evenodd;clip-rule:evenodd;fill:#FDF0E0;}
	.st11{fill-rule:evenodd;clip-rule:evenodd;fill:#FDDDC8;}
</style>
<g>
	<path class="st0" d="M149.2,91.5C149.2,59.3,123,33,90.8,33c-32.2,0-58.5,26.3-58.5,58.5c0,32.2,26.3,58.5,58.5,58.5
		C123,150,149.2,123.7,149.2,91.5z"/>
	<path class="st1" d="M90.1,87.3l60,60.2c-15.9,16.7-38.2,27.2-63.1,27.2c-48.1,0-87-39.1-87-87.4C0,39.1,39,0,87,0
		c24.8,0,47.2,10.4,63.1,27.2L90.1,87.3z"/>
	<path class="st2" d="M90.1,87.3l59.9,60.2c-15.9,16.7-38.2,27.1-63,27.1c-48.1,0-87-39.1-87-87.4c0-39.9,26.7-73.6,63.2-84
		L90.1,87.3z"/>
	<path class="st3" d="M99.5,33.7c-2.9-0.4-5.8-0.7-8.8-0.7c-32.3,0-58.5,26.2-58.5,58.5c0,32.3,26.2,58.5,58.5,58.5
		c17,0,32.4-7.3,43.1-18.9l-16.4-16.6L99.5,33.7z"/>
	<path class="st3" d="M70.8,126c-1.4,10.6-16.3,17.3-33.2,15c-2.6-0.4-5.2-0.9-7.5-1.6c10.9-2.5,19.7-11.8,21.4-24
		c0.5-3.7,0.3-7.4-0.5-10.8C63.6,108.5,72,117.2,70.8,126z"/>
	<path class="st1" d="M36.7,139.8c-2.6,0-5.2-0.2-7.7-0.6c10.5-3.9,17.9-14.4,17.9-26.7c0-3.8-0.7-7.4-2-10.7
		c13,2.3,22.6,9.7,22.6,18.6C67.5,131.1,53.7,139.8,36.7,139.8z"/>
	<ellipse class="st4" cx="87" cy="87.4" rx="58" ry="58.2"/>
	<path class="st1" d="M32.7,108h108.5c-8.3,22-29.5,37.6-54.3,37.6C62.2,145.6,41.1,130,32.7,108z"/>
	<path class="st4" d="M57.6,117.3h45.8c1.2,0,2.2,1,2.2,2.2v0.8c0,1.2-1,2.2-2.2,2.2H57.6c-1.2,0-2.2-1-2.2-2.2v-0.8
		C55.4,118.3,56.4,117.3,57.6,117.3z"/>
	<path class="st5" d="M88.3,29.1l13.7,57.1l-33.7,8.2L55,38.8c9.2-6.1,20.2-9.7,32-9.7C87.5,29.1,87.9,29.1,88.3,29.1z"/>
	<path class="st6" d="M108.7,93c0-14.9-12.1-27-27-27c-14.9,0-27,12.1-27,27s12.1,27,27,27C96.6,120,108.7,107.9,108.7,93z"/>
	<path class="st7" d="M105.7,93c0-13.2-10.8-24-24-24c-13.2,0-24,10.8-24,24c0,13.2,10.8,24,24,24C95,117,105.7,106.2,105.7,93z"/>
	<g>
		<circle class="st7" cx="81.7" cy="93" r="18"/>
		<path class="st6" d="M96,93c0-3.9-1.6-7.5-4.2-10.1c-2.6-2.6-6.1-4.2-10.1-4.2c-3.9,0-7.5,1.6-10.1,4.2c-2.6,2.6-4.2,6.1-4.2,10.1
			c0,3.9,1.6,7.5,4.2,10.1c2.6,2.6,6.1,4.2,10.1,4.2c3.9,0,7.5-1.6,10.1-4.2C94.4,100.5,96,96.9,96,93L96,93z M99.7,93
			c0-9.9-8.1-18-18-18c-9.9,0-18,8.1-18,18s8.1,18,18,18C91.7,111,99.7,102.9,99.7,93z"/>
	</g>
	<path class="st8" d="M131,49.4c-1.2,4.8-2.7,8.7-3.3,10.8C124.2,72,116,81.4,101.3,82.8c-14.7,1.3-30.5-6.2-31.7-20.7
		c-0.4-5.3,0.4-18.4,2.9-31.1c4.6-1.2,9.5-1.8,14.5-1.8C104.6,29.1,120.4,37,131,49.4z"/>
	<path class="st9" d="M132.6,51.4c-1.7,5.6-4,10.1-4.9,12.5c-4.6,11.4-13.7,20-28.4,20c-14.7,0-29.8-9-29.7-23.5
		c0.1-5.2,2-17.8,5.5-30c3.8-0.8,7.8-1.2,11.9-1.2C105.5,29.1,122,37.8,132.6,51.4z"/>
	<path class="st10" d="M107,34.2c18.6,8.6,14,26.8,12.2,35.2c-1.8,8.3-11.5,14.8-26.2,11.8c-11.6-2.3-22.9-14.4-21.8-25.3
		C72,47.4,84.6,23.9,107,34.2z"/>
	<path class="st11" d="M119.4,68.6c-4.5,3.9-11.8,6.2-21.5,5.3c-12.4-1.2-25.4-11.8-25.6-22.5c3.6-10.1,15.5-26,34.7-17.2
		C125,42.5,121.3,59.9,119.4,68.6z"/>
	<path class="st10" d="M114.9,39.7c-1.9,0.4-4,0.7-6.2,0.7c-8.3,0-15.3-3.5-17-8.3c4.4-1,9.5-0.6,15.2,2.1
		C110.3,35.7,112.9,37.6,114.9,39.7z"/>
</g>
</svg>
