<?xml version="1.0" encoding="utf-8"?>
<!-- Generator: Adobe Illustrator 19.0.1, SVG Export Plug-In . SVG Version: 6.00 Build 0)  -->
<svg version="1.1" id="Layer_1" xmlns="http://www.w3.org/2000/svg" xmlns:xlink="http://www.w3.org/1999/xlink" x="0px" y="0px"
	 viewBox="0 0 22.2 21.7" style="enable-background:new 0 0 22.2 21.7;" xml:space="preserve">
<style type="text/css">
	.st0{fill-rule:evenodd;clip-rule:evenodd;fill:#C77E00;}
	.st1{fill-rule:evenodd;clip-rule:evenodd;fill:#F39A00;}
	.st2{fill-rule:evenodd;clip-rule:evenodd;fill:#FFFFFF;}
</style>
<g>
	<g>
		<path class="st0" d="M22.1,12.3c-0.6,5.8-5.8,9.9-11.5,9.3c-1.7-0.2-3.2-0.7-4.5-1.6L0,21.7L2.3,16c-0.9-1.8-1.3-3.8-1.1-5.9
			C1.8,4.4,7,0.2,12.8,0.8C18.5,1.4,22.7,6.6,22.1,12.3z"/>
		<path class="st1" d="M10.5,21c-1.7,0-3.2-0.4-4.6-1.1L0,21.7l1.7-5.5C0.6,14.6,0,12.6,0,10.5C0,4.7,4.7,0,10.5,0
			C16.3,0,21,4.7,21,10.5C21,16.3,16.3,21,10.5,21z"/>
		<path class="st2" d="M16.5,8.5c0-0.2-0.1-0.4-0.2-0.5l-1.1-1c-0.1-0.1-0.3-0.2-0.5-0.2c-0.2,0-0.4,0.1-0.5,0.2l-5.1,5L6.8,9.7
			C6.7,9.6,6.5,9.5,6.3,9.5c-0.2,0-0.4,0.1-0.5,0.2l-1.1,1c-0.1,0.1-0.2,0.3-0.2,0.5c0,0.2,0.1,0.4,0.2,0.5l2.8,2.7l1.1,1
			c0.1,0.1,0.3,0.2,0.5,0.2c0.2,0,0.4-0.1,0.5-0.2l1.1-1L16.3,9C16.4,8.9,16.5,8.7,16.5,8.5z"/>
	</g>
</g>
</svg>
