<?xml version="1.0" encoding="utf-8"?>
<!-- Generator: Adobe Illustrator 19.0.1, SVG Export Plug-In . SVG Version: 6.00 Build 0)  -->
<svg version="1.1" id="Group_1" xmlns="http://www.w3.org/2000/svg" xmlns:xlink="http://www.w3.org/1999/xlink" x="0px" y="0px"
	 viewBox="0 0 123 80" style="enable-background:new 0 0 123 80;" xml:space="preserve">
<style type="text/css">
	.st0{opacity:5.882353e-002;}
	.st1{fill:#4877A3;}
	.st2{fill:#FFFFFF;}
	.st3{fill-rule:evenodd;clip-rule:evenodd;fill:#ECF0F1;}
	.st4{fill:#559EE3;}
</style>
<g id="Ellipse_2_copy_7" class="st0">
	<path d="M122.1,62.2c0-5.2-2.2-9.8-5.7-13.1L103,34L60.4,45.9c-3.8-7.9-11.8-13.3-21-13.3C26.5,32.6,16,43.2,16,56.3
		c0,0.7,0,1.3,0.1,2L10,60l11.2,11.2c1.1,1.4,2.4,2.6,3.7,3.7L25,75l0,0c4,3.1,8.9,5,14.4,5c0.6,0,1.3,0,1.9-0.1V80h64.3v-0.1
		C114.7,79.4,122.1,71.7,122.1,62.2z"/>
</g>
<g id="Ellipse_2_copy_8">
	<path class="st1" d="M110.1,48.2c0-9.7-7.6-17.5-17.1-17.7c-0.3-4.7-4.2-8.5-9-8.5c-1.4,0-2.6,0.3-3.8,0.8C76.1,11.3,65,3,52,3
		c-13.8,0-25.4,9.3-28.9,22c0,0,0,0-0.1,0C11.4,25,2,34.2,2,45.5S11.4,66,23,66c0.3,0,0.7,0,1,0v0h69v0
		C102.5,65.7,110.1,57.9,110.1,48.2z"/>
</g>
<g id="Ellipse_2_copy_9">
	<path class="st2" d="M108.1,45.2c0-9.7-7.6-17.5-17.1-17.7c-0.3-4.7-4.2-8.5-9-8.5c-1.4,0-2.6,0.3-3.8,0.8C74.1,8.3,63,0,50,0
		C36.2,0,24.6,9.3,21.1,22c0,0,0,0-0.1,0C9.4,22,0,31.2,0,42.5S9.4,63,21,63c0.3,0,0.7,0,1,0v0h69v0
		C100.5,62.7,108.1,54.9,108.1,45.2z"/>
</g>
<g id="Ellipse_99">
	<circle class="st3" cx="50.5" cy="30.5" r="21.5"/>
</g>
<g id="Shape_1">
	<path class="st4" d="M60.1,41.4c-2.3-4.1-6.7-6.6-6.7-6.6c-0.3,0.3-2.1,1.6-2.6,3.5c-1.9-1.1-5.9-3.8-7.8-8.5
		c1.6-0.6,2.8-2.1,3-2.4c0,0-2.5-4.3-6.5-6.5c0,0-2.3,1.7-2.5,4l0,0c0,0-0.9,4.2,6.9,12.3c6.6,6.8,9.9,7.1,12,6.8
		c0.3,0,0.6-0.1,0.9-0.2c0,0,0.1,0,0.1,0l0,0C58.8,43.1,60.1,41.4,60.1,41.4z"/>
</g>
<g id="Shape_2">
	<path class="st4" d="M56,25.3C56,25.3,56,25.3,56,25.3C55.9,25.3,55.9,25.3,56,25.3C55.9,25.3,55.9,25.3,56,25.3
		c-1.2-1.2-3.1-1.8-4.7-1c-0.5,0.2-0.1,0.9,0.4,0.7c0,0,0,0,0,0c0,0,0,0,0,0c0,0,0,0,0,0c0,0,0,0,0,0c0.1,0,0.2-0.1,0.3-0.1
		c0.3-0.1,0.6-0.1,0.9-0.1c1,0,1.9,0.4,2.6,1.1c0.7,0.7,1.1,1.6,1.1,2.6c0,0.3-0.1,0.6-0.1,0.9c0,0.1-0.1,0.2-0.1,0.3c0,0,0,0,0,0
		c0,0,0,0,0,0c0,0,0,0,0,0c0,0,0,0,0,0C56.1,30,56.8,30.4,57,30C57.7,28.4,57.2,26.5,56,25.3C56,25.3,56,25.3,56,25.3z M58.7,22.4
		C58.7,22.4,58.7,22.4,58.7,22.4C58.6,22.4,58.6,22.4,58.7,22.4C58.6,22.4,58.6,22.4,58.7,22.4c-0.1-0.1-0.1-0.1-0.1-0.1
		c-2.1-2.1-4.8-3.3-7.7-3.3c-1.3,0-2.7,0.2-3.9,0.8c-0.5,0.2-0.1,0.9,0.4,0.7c0,0,0,0,0.1,0c0,0,0,0,0,0c0,0,0.1,0,0.1,0
		c0.2-0.1,0.5-0.2,0.7-0.2c0.8-0.2,1.7-0.4,2.5-0.4c2.8-0.1,5.3,1.2,7.3,3.1c2,1.9,3.2,4.5,3.1,7.3c0,0.8-0.1,1.7-0.4,2.5
		c-0.1,0.2-0.1,0.5-0.2,0.7c0,0,0,0.1,0,0.1c0,0,0,0,0,0c0,0,0,0,0,0c0,0,0,0.1,0,0.1c-0.2,0.5,0.5,0.9,0.7,0.4
		c0.6-1.2,0.8-2.6,0.8-3.9C62,27.2,60.7,24.5,58.7,22.4z"/>
</g>
</svg>
