<?xml version="1.0" encoding="utf-8"?>
<!-- Generator: Adobe Illustrator 19.0.1, SVG Export Plug-In . SVG Version: 6.00 Build 0)  -->
<svg version="1.1" id="_x30_1" xmlns="http://www.w3.org/2000/svg" xmlns:xlink="http://www.w3.org/1999/xlink" x="0px" y="0px"
	 viewBox="0 0 206 206" style="enable-background:new 0 0 206 206;" xml:space="preserve">
<style type="text/css">
	.st0{fill:#D9DFE1;}
	.st1{fill:#FFFFFF;}
	.st2{fill-rule:evenodd;clip-rule:evenodd;fill:#559EE3;}
	.st3{fill:#54BFFD;}
	.st4{fill:#7ED6FF;}
	.st5{fill-rule:evenodd;clip-rule:evenodd;fill:#D9DFE1;}
	.st6{fill-rule:evenodd;clip-rule:evenodd;fill:#B2B4B5;}
	.st7{fill-rule:evenodd;clip-rule:evenodd;fill:#FFFFFF;}
</style>
<g id="Ellipse_18_copy_9_2_">
	<path class="st0" d="M111.4,5.9C56.2,2.9,9.1,45.3,6.2,100.5c-1.3,23.9,5.9,46.3,18.9,64.2c-5.9,8.7-14.5,15.2-24.4,18.3
		c4.1,0.9,8.5,1.5,13,1.7c9.7,0.5,18.9-0.6,26.9-3.1c16.2,14,37,23,60,24.3c55.1,3,102.2-39.4,105.2-94.6
		C208.8,56,166.5,8.8,111.4,5.9z"/>
</g>
<g id="Ellipse_18_copy_4_2_">
	<path class="st1" d="M101,0C45.8,0,1,44.8,1,100.1c0,23.9,8.4,45.9,22.4,63.1c-5.5,9-13.7,15.9-23.4,19.6c4.2,0.7,8.6,1,13.1,1
		c9.7,0,18.9-1.7,26.7-4.6c16.9,13.2,38.2,21,61.2,21c55.2,0,100-44.8,100-100.1S156.3,0,101,0z"/>
</g>
<g id="Ellipse_60_2_">
	<g>
		<ellipse class="st2" cx="101" cy="100.1" rx="90" ry="90.1"/>
	</g>
</g>
<g>
	<path class="st3" d="M73.7,34.1c1.1-0.3,2.2-0.5,3.4-0.5c5.6,0,10.4,3.5,12.4,8.5c1.5-1.9,2.5-4.2,2.5-6.8
		c0-5.9-4.7-10.7-10.5-10.7c-0.9,0-1.8,0.1-2.7,0.4c-0.4-4.2-2.3-8-5.3-10.6c-3.4,1.1-6.7,2.4-9.9,3.8
		C69.2,21.4,73.1,27.3,73.7,34.1z"/>
	<path class="st4" d="M77.1,60.8L77.1,60.8C77.1,60.8,77.1,60.8,77.1,60.8c7.4,0,13.4-6.1,13.4-13.6c0-1.8-0.4-3.5-1-5.1
		c-2-5-6.8-8.5-12.4-8.5c-1.2,0-2.3,0.2-3.4,0.5c-0.6-6.8-4.5-12.7-10.1-15.9c-18.7,8.6-33.9,23.4-43.1,41.8
		c1.7,0.5,3.5,0.8,5.4,0.8c0.8,0,1.5-0.1,2.2-0.2v0.2H77.1z"/>
	<path class="st3" d="M119,159.2c-1.2-0.3-2.6-0.5-3.9-0.5c-6.3,0-11.7,3.6-14.5,8.8c2.8,0.5,5.4,1.6,7.8,3.1
		C110.6,165.7,114.3,161.6,119,159.2z"/>
	<path class="st3" d="M152.7,174c2.9-2,5.7-4.3,8.4-6.6c-0.5,0.1-1,0.2-1.6,0.3c-0.8-9.8-8.8-17.4-18.5-17.4
		c-5.5,0-10.4,2.5-13.8,6.4c0.9-0.1,1.9-0.2,2.8-0.2C140.7,156.4,149.8,163.8,152.7,174z"/>
	<path class="st4" d="M101,190.3c19.2,0,37-6,51.6-16.3c-2.8-10.1-11.9-17.6-22.7-17.6c-1,0-1.9,0.1-2.8,0.2
		c-2.9,0.4-5.6,1.2-8.1,2.6c-4.7,2.5-8.4,6.5-10.6,11.4c-2.3-1.5-4.9-2.6-7.8-3.1c-1.2-0.2-2.3-0.3-3.6-0.3
		c-11,0-19.9,8.6-20.9,19.6C84,189,92.4,190.3,101,190.3z"/>
</g>
<g id="Group_34_copy_1_">
	<g id="Rectangle_107">
		<g>
			<polygon class="st5" points="58.8,100.3 85,156.2 166,55.1 			"/>
		</g>
	</g>
	<g id="Rectangle_107_copy_5">
		<g>
			<polygon class="st6" points="96.9,121.7 85,156.2 166,55.1 			"/>
		</g>
	</g>
	<g id="Rectangle_107_copy_6">
		<g>
			<polygon class="st7" points="96.9,121.7 138.6,145.5 166,55.1 			"/>
		</g>
	</g>
	<g id="Rectangle_107_copy">
		<g>
			<polygon class="st7" points="23,100.3 62.4,107.4 166,55.1 			"/>
		</g>
	</g>
</g>
</svg>
