<?xml version="1.0" encoding="utf-8"?>
<!-- Generator: Adobe Illustrator 19.0.1, SVG Export Plug-In . SVG Version: 6.00 Build 0)  -->
<svg version="1.1" id="_x30_1" xmlns="http://www.w3.org/2000/svg" xmlns:xlink="http://www.w3.org/1999/xlink" x="0px" y="0px"
	 viewBox="0 0 206 206" style="enable-background:new 0 0 206 206;" xml:space="preserve">
<style type="text/css">
	.st0{fill:#D9DFE1;}
	.st1{fill:#FFFFFF;}
	.st2{fill-rule:evenodd;clip-rule:evenodd;fill:#315DA1;}
	.st3{clip-path:url(#SVGID_2_);}
	.st4{fill-rule:evenodd;clip-rule:evenodd;fill:#57A2E8;}
	.st5{clip-path:url(#SVGID_4_);}
	.st6{fill-rule:evenodd;clip-rule:evenodd;fill:#A2DD3B;}
	.st7{opacity:0.1;fill-rule:evenodd;clip-rule:evenodd;fill:#FFFFFF;}
	.st8{opacity:0.5;fill-rule:evenodd;clip-rule:evenodd;fill:#89C1EF;}
</style>
<g id="Ellipse_18_copy_9_2_">
	<path class="st0" d="M111.4,5.9C56.2,2.9,9.1,45.3,6.2,100.5c-1.3,23.9,5.9,46.3,18.9,64.2c-5.9,8.7-14.5,15.2-24.4,18.3
		c4.1,0.9,8.5,1.5,13,1.7c9.7,0.5,18.9-0.6,26.9-3.1c16.2,14,37,23,60,24.3c55.1,3,102.2-39.4,105.2-94.6
		C208.8,56,166.5,8.8,111.4,5.9z"/>
</g>
<g id="Ellipse_18_copy_4_2_">
	<path class="st1" d="M101,0C45.8,0,1,44.8,1,100.1c0,23.9,8.4,45.9,22.4,63.1c-5.5,9-13.7,15.9-23.4,19.6c4.2,0.7,8.6,1,13.1,1
		c9.7,0,18.9-1.7,26.7-4.6c16.9,13.2,38.2,21,61.2,21c55.2,0,100-44.8,100-100.1S156.3,0,101,0z"/>
</g>
<g>
	<circle class="st2" cx="101" cy="100.1" r="90"/>
	<g>
		<defs>
			<circle id="SVGID_1_" cx="101" cy="100.1" r="90"/>
		</defs>
		<clipPath id="SVGID_2_">
			<use xlink:href="#SVGID_1_"  style="overflow:visible;"/>
		</clipPath>
		<g class="st3">
			<circle class="st4" cx="80.9" cy="124.2" r="89.3"/>
			<g>
				<defs>
					<circle id="SVGID_3_" cx="80.9" cy="124.2" r="89.3"/>
				</defs>
				<clipPath id="SVGID_4_">
					<use xlink:href="#SVGID_3_"  style="overflow:visible;"/>
				</clipPath>
				<g class="st5">
					<path class="st6" d="M142.6,50.2C140.2,48.7,97,34.3,97,34.3l16.9,9.9c0,0-14.5-1.2-11.9,2c2.6,3.2,8.9,10.9,8.9,10.9
						s-5,2.2-7.9,1c-2.9-1.2-3.2,3.8-2,4c1.2,0.2,6,4.2,7.9,5c1.9,0.7,0.6,2.1,1,4c0.4,1.8,5.2,9.3,6.9,6c1.7-3.3,4.8-7,6.9-7.9
						c2.1-1,3.8,1.2,5,3c1.1,1.8-2.2,0.7,6,4c8.1,3.3,7.9,6,7.9,6s1.2,2.6-3,2c-4.2-0.6-6.4-1.4-8.9-3c-2.5-1.6-5.4-3.4-6.9-3
						c-0.6,0.2-1.4,0.2-2.4,0.2c-1.6,0-3.4,0-4.6,0.8c-1.8,1.4-3.3,1.6-5,5c-1.6,3.4-2.5,4.4-3,8.9c-0.5,4.5-1.7,4.8-2,7.9
						c-0.3,3.1,3,5.6,3,6.9c0,1.3-3.6,4.5,5,11.9c8.5,7.4,12.2,10.1,16.9,7.9c4.6-2.1,4.8-4,6.9-2c2.2,2,3.5,4.6,3,6
						c-0.2,0.4-0.7,0.3-1.2,0.2c-1.2-0.2-2.3-0.5,0.2,4.7c3.7,7.6,6.4,4.2,4,8.9c-2.4,4.8-7.3,14.2-7.9,16.9c-0.6,2.6,2.1,2.3,0,5
						c-2.1,2.7-3.8,1.9-3,5c0.9,3.1,2.7,4.9,2,6c-0.7,1.1,3,11.9,3,11.9l29-27.6l12.6-56.8C180.3,105.7,145.1,51.6,142.6,50.2z"/>
					<path class="st6" d="M92.6,137.3c-0.6-1.7-4.9-1.8-7.9-3c-3-1.1-3.4,0-5-2c-1.6-2-8.5-1.2-9.9-3c-1.4-1.7-0.4-5.9-3-8.9
						c-1.5-1.7-3.2-1.6-5.1-1.5c-1.5,0.1-3.1,0.2-4.8-0.5c-4-1.7,1.9-7.1-6.9-6.9c-8.8,0.2-15.1,0.7-17.9,0
						c-2.7-0.7-6.4-5.5-7.9-8.9c-1.6-3.5,2.1-5.9-4-6.9c-6.1-1.1-1.7-7,4-13.9c5.6-6.9,6,3,6,3s6.7,0.1,7.9-5
						c1.2-5.1,18.8-15.9,18.8-15.9s3.6-4.9,11.9-5c8.3-0.1,5.5-9.1,2-12.9c-2-2.1-7.1,0.5-11.4,3.1c-3.2,2-5.9,3.9-6.5,3.9
						c-1.4-0.1,0-4,0-4s9.8-4.1,10.9-6.9c1.1-2.8-8.9-1-8.9-1s-4.4-4.8-6.9-4c-2.5,0.9-10,6.7-20.8,13.9
						c-10.8,7.2-20.8,17-21.8,21.8c-1,4.9,6.8,16.3,6.9,21.8c0.1,5.5,2,4.2,3,6c1,1.8,0,0.9,1,2c1,1.1,5,2,5,2s-1.5,0.9,2,4
						c3.5,3.1,4,5,4,5s1.8,6.6-2,10.9c-3.8,4.3,0.1,2.6-1,6.9c-1.1,4.4,1.6,2.7,4,8.9c2.3,6.2,1.4,6.8,7.9,11.9
						c6.5,5.1,5.3,4.4,5,10.9c-0.3,6.5,4.9,22.3,9.9,30.8c5,8.4,10.9,4.3,15.9,4c4.9-0.4-1.7-2-6-2c-4.2,0-2.1-2.1-3-5
						c-0.9-2.9,0.5-2.8,2-5c1-1.5,1.2-1.3,2.2-1.1c0.4,0.1,1,0.2,1.8,0.1c2.7-0.2,2-4.9,6-7.9c3.9-3,2.3-3.2,6.9-9.9
						c3.2-4.7,6.4-4.3,8.3-4c0.8,0.1,1.4,0.3,1.6,0c0.8-0.9,0.8-5,3-9.9C91.8,148.2,93.2,139,92.6,137.3z"/>
					<circle class="st7" cx="55.2" cy="99.5" r="89.3"/>
				</g>
			</g>
		</g>
	</g>
	<g>
		<circle class="st8" cx="65" cy="30.4" r="1.6"/>
		<circle class="st8" cx="74.1" cy="19.7" r="0.8"/>
		<circle class="st8" cx="84.3" cy="25.7" r="1.6"/>
		<circle class="st8" cx="111.1" cy="19.5" r="1.2"/>
		<circle class="st8" cx="107.7" cy="28.8" r="1.6"/>
		<circle class="st8" cx="124.3" cy="28.8" r="1.6"/>
		<circle class="st8" cx="142.7" cy="28.8" r="1.6"/>
		<circle class="st8" cx="149" cy="53.7" r="1.6"/>
		<circle class="st8" cx="142.2" cy="41.5" r="1.1"/>
		<circle class="st8" cx="159.3" cy="42.7" r="1.1"/>
		<circle class="st8" cx="165.8" cy="80" r="1.1"/>
		<circle class="st8" cx="174.5" cy="62.6" r="1.1"/>
		<circle class="st8" cx="181.6" cy="74.8" r="1.1"/>
		<circle class="st8" cx="180.8" cy="87.9" r="1.6"/>
		<circle class="st8" cx="164.2" cy="59.1" r="1.6"/>
		<circle class="st8" cx="177.1" cy="102.1" r="1.2"/>
		<circle class="st8" cx="183.2" cy="107.1" r="1.6"/>
		<circle class="st8" cx="176.7" cy="128.9" r="1.6"/>
		<circle class="st8" cx="172.2" cy="142.9" r="1.2"/>
	</g>
</g>
</svg>
