<?xml version="1.0" encoding="utf-8"?>
<!-- Generator: Adobe Illustrator 19.0.1, SVG Export Plug-In . SVG Version: 6.00 Build 0)  -->
<svg version="1.1" id="_x31_" xmlns="http://www.w3.org/2000/svg" xmlns:xlink="http://www.w3.org/1999/xlink" x="0px" y="0px"
	 viewBox="0 0 219.9 219.8" style="enable-background:new 0 0 219.9 219.8;" xml:space="preserve">
<style type="text/css">
	.st0{fill-rule:evenodd;clip-rule:evenodd;fill:#559EE3;}
	.st1{fill:#4595E0;}
	.st2{fill:#69B0F2;}
	.st3{opacity:6.000000e-002;}
	.st4{fill:#4877A3;}
	.st5{fill:#FFFFFF;}
	.st6{fill-rule:evenodd;clip-rule:evenodd;fill:#F29A00;}
	.st7{fill-rule:evenodd;clip-rule:evenodd;fill:#D66C00;}
	.st8{fill-rule:evenodd;clip-rule:evenodd;fill:#B0B1B2;}
	.st9{fill-rule:evenodd;clip-rule:evenodd;fill:#EEF2F2;}
</style>
<g id="Ellipse_1_copy_109">
	<g>
		<ellipse class="st0" cx="109.9" cy="109.9" rx="109.9" ry="109.9"/>
	</g>
</g>
<g>
	<path class="st1" d="M166.6,65.1c-1.5-0.3-3-0.5-4.5-0.5c-7.4,0-13.8,4-17.1,10c3.3,0.6,6.4,1.8,9.2,3.5
		C156.7,72.5,161.1,68,166.6,65.1z"/>
	<path class="st1" d="M192.6,55c-6.5,0-12.3,2.8-16.4,7.2c1.1-0.1,2.2-0.2,3.3-0.2c14.6,0,26.6,11,27.9,25c1.5-0.4,3.1-0.6,4.8-0.6
		c1.8,0,3.6,0.3,5.3,0.8c-1.8-8.7-4.7-17.1-8.5-24.9C205,57.8,199.1,55,192.6,55z"/>
	<path class="st2" d="M217.5,87.2c-1.7-0.5-3.5-0.8-5.3-0.8c-1.7,0-3.2,0.2-4.8,0.6c-1.2-14-13.2-25-27.9-25c-1.1,0-2.2,0.1-3.3,0.2
		c-3.4,0.4-6.7,1.4-9.6,2.9c-5.5,2.8-9.9,7.4-12.5,12.9c-2.7-1.7-5.8-2.9-9.2-3.5c-1.4-0.2-2.8-0.4-4.2-0.4
		c-13.7,0-24.9,10.9-24.9,24.4S127,123,140.7,123c1.1,0,2.1-0.1,3.1-0.2v0.2h68.4v0c2.5,0,4.9-0.5,7-1.4c0.4-3.8,0.6-7.8,0.6-11.7
		C219.9,102.1,219,94.5,217.5,87.2z"/>
	<path class="st1" d="M47.4,67c1.5-0.4,3.1-0.6,4.8-0.6c7.8,0,14.5,4.7,17.3,11.4c2.1-2.5,3.4-5.7,3.4-9.2c0-7.9-6.6-14.4-14.7-14.4
		c-1.3,0-2.5,0.2-3.7,0.5c-1-11-10.4-19.7-21.9-19.7c-1.1,0-2.2,0.1-3.3,0.3c-2.1,2.2-4.1,4.6-6,7C36.2,43.9,46.3,54.2,47.4,67z"/>
	<path class="st2" d="M52.2,103c10.3,0,18.6-8.2,18.6-18.3c0-2.4-0.5-4.8-1.4-6.9c-2.8-6.7-9.5-11.4-17.3-11.4
		c-1.7,0-3.2,0.2-4.8,0.6c-1.1-12.8-11.2-23.1-24.1-24.8C10,59.2,1.6,80.2,0.2,103L52.2,103L52.2,103z"/>
	<path class="st1" d="M196.2,162.2c1.1-0.1,2.2-0.2,3.3-0.2c2.3,0,4.6,0.3,6.8,0.8c1.4-2.5,2.7-5.1,3.8-7.7
		C204.6,155.7,199.7,158.3,196.2,162.2z"/>
	<path class="st1" d="M164.9,174.6c3.3,0.6,6.4,1.8,9.2,3.5c2.6-5.6,7-10.1,12.5-12.9c-1.5-0.3-3-0.5-4.5-0.5
		C174.7,164.6,168.3,168.6,164.9,174.6z"/>
	<path class="st2" d="M206.3,162.8c-2.2-0.5-4.4-0.8-6.8-0.8c-1.1,0-2.2,0.1-3.3,0.2c-3.4,0.4-6.7,1.4-9.6,2.9
		c-5.5,2.8-9.9,7.4-12.5,12.9c-2.7-1.7-5.8-2.9-9.2-3.5c-1.4-0.2-2.8-0.4-4.2-0.4c-13.7,0-24.9,10.9-24.9,24.4
		c0,6.3,2.4,12.1,6.4,16.4C169.8,206.5,192.7,187.6,206.3,162.8z"/>
</g>
<g class="st3">
	<path d="M217.6,132.4L185.4,100L35.9,142l77.8,77.8C165,218.1,207.5,181.1,217.6,132.4z"/>
</g>
<g id="Ellipse_2_copy_8">
	<path class="st4" d="M198.9,126c0-15.2-12-27.6-27-28c-0.4-7.4-6.6-13.4-14.2-13.4c-2.1,0-4.2,0.5-6,1.3
		c-6.6-18.2-24.1-31.2-44.6-31.2c-21.8,0-40.2,14.7-45.7,34.6c0,0-0.1,0-0.1,0c-18.3,0-33.2,14.5-33.2,32.3s14.9,32.3,33.2,32.3
		c0.5,0,1.1,0,1.6,0v0h109.1v0C186.9,153.5,198.9,141.2,198.9,126z"/>
</g>
<g id="Ellipse_2_copy_9">
	<path class="st5" d="M195.7,121.2c0-15.2-12-27.6-27-28c-0.4-7.4-6.6-13.3-14.2-13.3c-2.1,0-4.2,0.5-6,1.3
		C142,63,124.5,50,103.9,50c-21.8,0-40.2,14.7-45.7,34.6c0,0-0.1,0-0.1,0c-18.3,0-33.2,14.5-33.2,32.3s14.9,32.3,33.2,32.3
		c0.5,0,1.1,0,1.6,0v0h109.1v0C183.7,148.8,195.7,136.5,195.7,121.2z"/>
</g>
<g>
	<path class="st6" d="M102.9,70c8.8,0,16.8,3.6,22.6,9.4L102.9,102l22.6,22.6c-5.8,5.8-13.8,9.4-22.6,9.4c-17.7,0-32-14.3-32-32
		S85.2,70,102.9,70z"/>
	<path class="st7" d="M105,104.1l-2.1-2.1l2.1-2.1l3.7-3.7l3.6-3.6l5.1-5.1c-3.6-2.9-8.2-4.6-13.1-4.6c-11.4,0-20.7,9.3-20.7,20.7
		c0,5.3,2,10.1,5.2,13.7c-1.5,2.1-4.8,2.4-7.1,3.7c4.3,0.8,6.7,0.5,10.7-0.5c2.9,2.1,7.9,3.7,12,3.7c6.3,0,11.4-2.2,15-5.8l-1.8-1.8
		l-5.3-5.3l-3.6-3.6L105,104.1z"/>
	<path class="st8" d="M104.3,82.8c11.4,0,20.9,9.3,20.9,20.8c0,5.8-2.1,11.1-5.8,14.9L89.7,88.8C93.5,85.1,98.6,82.8,104.3,82.8z"/>
	<path class="st9" d="M102.9,81.3c11.4,0,20.7,9.3,20.7,20.7c0,11.4-9.3,20.7-20.7,20.7c-4.1,0-7.9-1.2-11.1-3.2
		c-1.3,0.6-2.7,1.1-4.1,1.4c-2,0.4-4,0.4-5.9,0.2c2.3-1.3,4.2-3.1,5.7-5.3c-3.2-3.7-5.2-8.5-5.2-13.7
		C82.2,90.6,91.4,81.3,102.9,81.3z"/>
	<path class="st6" d="M95,99.9h15.8c1.2,0,2.1,0.9,2.1,2.1l0,0c0,1.2-0.9,2.1-2.1,2.1H95c-1.2,0-2.1-0.9-2.1-2.1l0,0
		C92.9,100.9,93.8,99.9,95,99.9L95,99.9z M95,92h15.8c1.2,0,2.1,0.9,2.1,2.1l0,0c0,1.2-0.9,2.1-2.1,2.1H95c-1.2,0-2.1-0.9-2.1-2.1
		l0,0C92.9,92.9,93.8,92,95,92L95,92z M95,107.8h15.8c1.2,0,2.1,0.9,2.1,2.1l0,0c0,1.2-0.9,2.1-2.1,2.1H95c-1.2,0-2.1-0.9-2.1-2.1
		l0,0C92.9,108.8,93.8,107.8,95,107.8z"/>
</g>
</svg>
