<?xml version="1.0" encoding="utf-8"?>
<!-- Generator: Adobe Illustrator 19.0.1, SVG Export Plug-In . SVG Version: 6.00 Build 0)  -->
<svg version="1.1" id="_x30_1" xmlns="http://www.w3.org/2000/svg" xmlns:xlink="http://www.w3.org/1999/xlink" x="0px" y="0px"
	 viewBox="0 0 206 206" style="enable-background:new 0 0 206 206;" xml:space="preserve">
<style type="text/css">
	.st0{fill:#D9DFE1;}
	.st1{fill:#FFFFFF;}
	.st2{fill:#A2DD3B;}
	.st3{fill:#83CA28;}
	.st4{fill:#66A219;}
	.st5{clip-path:url(#SVGID_2_);fill:#ECF0F1;}
	.st6{display:none;clip-path:url(#SVGID_4_);}
	.st7{display:inline;fill:#C3C6CA;}
	.st8{clip-path:url(#SVGID_4_);}
	.st9{fill:#C3C6CA;}
	.st10{opacity:6.000000e-002;}
	.st11{fill:#284259;}
	.st12{fill:#E1564B;}
	.st13{fill:#FFFFFF;stroke:#284259;stroke-width:0.5;stroke-miterlimit:10;}
</style>
<g id="Ellipse_18_copy_9_2_">
	<path class="st0" d="M111.4,5.9C56.2,2.9,9.1,45.3,6.2,100.5c-1.3,23.9,5.9,46.3,18.9,64.2c-5.9,8.7-14.5,15.2-24.4,18.3
		c4.1,0.9,8.5,1.5,13,1.7c9.7,0.5,18.9-0.6,26.9-3.1c16.2,14,37,23,60,24.3c55.1,3,102.2-39.4,105.2-94.6
		C208.8,56,166.5,8.8,111.4,5.9z"/>
</g>
<g id="Ellipse_18_copy_4_2_">
	<path class="st1" d="M101,0C45.8,0,1,44.8,1,100.1c0,23.9,8.4,45.9,22.4,63.1c-5.5,9-13.7,15.9-23.4,19.6c4.2,0.7,8.6,1,13.1,1
		c9.7,0,18.9-1.7,26.7-4.6c16.9,13.2,38.2,21,61.2,21c55.2,0,100-44.8,100-100.1S156.3,0,101,0z"/>
</g>
<g>
	<circle class="st2" cx="101" cy="100.1" r="90"/>
	<path class="st3" d="M164.7,36.5c35.1,35.1,35.1,92.1,0,127.3s-92.1,35.1-127.3,0L164.7,36.5z"/>
	<circle class="st4" cx="100.7" cy="100.4" r="81.5"/>
	<g>
		<defs>
			<circle id="SVGID_1_" cx="100.7" cy="100.4" r="81.5"/>
		</defs>
		<clipPath id="SVGID_2_">
			<use xlink:href="#SVGID_1_"  style="overflow:visible;"/>
		</clipPath>
		<circle class="st5" cx="101.7" cy="101.4" r="81.5"/>
	</g>
	<g>
		<defs>
			<circle id="SVGID_3_" cx="100.7" cy="100.1" r="81.5"/>
		</defs>
		<clipPath id="SVGID_4_">
			<use xlink:href="#SVGID_3_"  style="overflow:visible;"/>
		</clipPath>
		<g class="st6">
			<rect x="17.9" y="25.8" class="st7" width="130.6" height="4"/>
			<rect x="17.9" y="32.8" class="st7" width="130.6" height="4"/>
			<rect x="17.9" y="39.8" class="st7" width="130.6" height="4"/>
			<rect x="17.9" y="46.8" class="st7" width="130.6" height="4"/>
			<rect x="17.9" y="53.8" class="st7" width="130.6" height="4"/>
			<rect x="17.9" y="60.8" class="st7" width="130.6" height="4"/>
			<rect x="17.9" y="67.8" class="st7" width="130.6" height="4"/>
			<rect x="17.9" y="74.8" class="st7" width="130.6" height="4"/>
			<rect x="17.9" y="81.8" class="st7" width="130.6" height="4"/>
			<rect x="17.9" y="88.8" class="st7" width="130.6" height="4"/>
			<rect x="17.9" y="95.8" class="st7" width="130.6" height="4"/>
			<rect x="17.9" y="102.8" class="st7" width="130.6" height="4"/>
			<rect x="17.9" y="109.8" class="st7" width="130.6" height="4"/>
			<rect x="17.9" y="116.8" class="st7" width="130.6" height="4"/>
			<rect x="17.9" y="123.8" class="st7" width="130.6" height="4"/>
			<rect x="17.9" y="130.8" class="st7" width="130.6" height="4"/>
			<rect x="17.9" y="137.8" class="st7" width="130.6" height="4"/>
			<rect x="17.9" y="144.8" class="st7" width="130.6" height="4"/>
			<rect x="17.9" y="151.3" class="st7" width="130.6" height="4"/>
			<rect x="17.9" y="158.3" class="st7" width="130.6" height="4"/>
			<rect x="17.9" y="165.3" class="st7" width="130.6" height="4"/>
			<rect x="17.9" y="172.3" class="st7" width="130.6" height="4"/>
			<rect x="17.9" y="179.3" class="st7" width="130.6" height="4"/>
		</g>
		<g class="st8">
			<path class="st1" d="M138.2,72.7H60.1c-1.7,0-3-1.3-3-3V40.8c0-1.7,1.3-3,3-3h78.1c1.7,0,3,1.3,3,3v28.9
				C141.2,71.3,139.8,72.7,138.2,72.7z"/>
			<rect x="54" y="50.3" transform="matrix(0.7071 0.7071 -0.7071 0.7071 56.3025 -25.459)" class="st1" width="9.8" height="9.8"/>
			<rect x="61.9" y="42.6" class="st9" width="47.8" height="2"/>
			<rect x="61.9" y="47.6" class="st9" width="60.5" height="2"/>
			<rect x="61.9" y="53.1" class="st9" width="25.3" height="2"/>
		</g>
		<g class="st8">
			<path class="st1" d="M138.2,161.9H60.1c-1.7,0-3-1.4-3-3v-28.9c0-1.7,1.3-3,3-3h78.1c1.7,0,3,1.3,3,3v28.9
				C141.2,160.6,139.8,161.9,138.2,161.9z"/>
			
				<rect x="54" y="139.6" transform="matrix(0.7071 0.7071 -0.7071 0.7071 119.4118 0.6817)" class="st1" width="9.8" height="9.8"/>
			<rect x="61.9" y="131.9" class="st9" width="47.8" height="2"/>
			<rect x="61.9" y="136.9" class="st9" width="60.5" height="2"/>
			<rect x="61.9" y="142.4" class="st9" width="25.3" height="2"/>
		</g>
		<g class="st8">
			<path class="st1" d="M138.2,117.6H60.1c-1.7,0-3-1.3-3-3V85.7c0-1.6,1.3-3,3-3h78.1c1.7,0,3,1.4,3,3v28.9
				C141.2,116.2,139.8,117.6,138.2,117.6z"/>
			
				<rect x="135.4" y="95.2" transform="matrix(0.7071 0.7071 -0.7071 0.7071 111.9218 -69.9171)" class="st1" width="9.8" height="9.8"/>
			<rect x="61.9" y="87.5" class="st9" width="41.9" height="2"/>
			<rect x="61.9" y="92.5" class="st9" width="67.3" height="2"/>
			<rect x="61.9" y="98" class="st9" width="12.6" height="2"/>
		</g>
	</g>
	<path class="st10" d="M158.4,42.8c31.8,31.8,31.8,83.4,0,115.2c-31.8,31.8-83.4,31.8-115.2,0L158.4,42.8z"/>
	<path class="st11" d="M100.4,35.9c0.9,0,1.6,0.7,1.6,1.6v60.6c0,0.9-0.7,1.6-1.6,1.6l0,0c-0.9,0-1.6-0.7-1.6-1.6V37.5
		C98.9,36.6,99.6,35.9,100.4,35.9L100.4,35.9z"/>
	<path class="st11" d="M102.6,98.1c1,1,1,2.7,0,3.7l-33.8,33.8c-1,1-2.7,1-3.7,0l0,0c-1-1-1-2.7,0-3.7l33.8-33.8
		C99.9,97.1,101.6,97.1,102.6,98.1L102.6,98.1z"/>
	<path class="st12" d="M88,88.2c-0.5,0.5-0.5,1.3,0,1.8l36.1,35.3c0,0,0.1,0.1,0.2,0.1l14.7,14.3c0.5,0.5,1.3,0.5,1.9,0
		c0.5-0.5,0.5-1.3,0-1.8l-36.1-35.3c0,0-0.1-0.1-0.1-0.1L89.8,88.2C89.3,87.7,88.5,87.7,88,88.2z"/>
	<circle class="st13" cx="100.4" cy="100.1" r="3.8"/>
	<circle class="st12" cx="87.6" cy="87.8" r="2.2"/>
	<circle class="st12" cx="141.2" cy="140.1" r="2.2"/>
</g>
</svg>
