<?xml version="1.0" encoding="utf-8"?>
<!-- Generator: Adobe Illustrator 19.0.1, SVG Export Plug-In . SVG Version: 6.00 Build 0)  -->
<svg version="1.1" id="_x30_1" xmlns="http://www.w3.org/2000/svg" xmlns:xlink="http://www.w3.org/1999/xlink" x="0px" y="0px"
	 viewBox="0 0 206 206" style="enable-background:new 0 0 206 206;" xml:space="preserve">
<style type="text/css">
	.st0{fill:#D9DFE1;}
	.st1{fill:#FFFFFF;}
	.st2{fill:#559EE3;}
	.st3{fill:#ECF0F1;}
	.st4{opacity:0.502;}
	.st5{fill-rule:evenodd;clip-rule:evenodd;fill:#FFFFFF;}
	.st6{fill-rule:evenodd;clip-rule:evenodd;fill:#FFD053;}
	.st7{opacity:0.2;clip-path:url(#SVGID_2_);}
	.st8{fill:#F39A00;}
</style>
<g id="Ellipse_18_copy_9_2_">
	<path class="st0" d="M111.4,5.9C56.2,2.9,9.1,45.3,6.2,100.5c-1.3,23.9,5.9,46.3,18.9,64.2c-5.9,8.7-14.5,15.2-24.4,18.3
		c4.1,0.9,8.5,1.5,13,1.7c9.7,0.5,18.9-0.6,26.9-3.1c16.2,14,37,23,60,24.3c55.1,3,102.2-39.4,105.2-94.6
		C208.8,56,166.5,8.8,111.4,5.9z"/>
</g>
<g id="Ellipse_18_copy_4_2_">
	<path class="st1" d="M101,0C45.8,0,1,44.8,1,100.1c0,23.9,8.4,45.9,22.4,63.1c-5.5,9-13.7,15.9-23.4,19.6c4.2,0.7,8.6,1,13.1,1
		c9.7,0,18.9-1.7,26.7-4.6c16.9,13.2,38.2,21,61.2,21c55.2,0,100-44.8,100-100.1S156.3,0,101,0z"/>
</g>
<g>
	<path class="st2" d="M124,159.6c0-11.9,9.4-21.5,21-21.5c1.2,0,2.4,0.1,3.6,0.3c2.8-5.3,8.2-8.8,14.5-8.8c1.3,0,2.6,0.2,3.9,0.5
		c2.5-1.3,5.2-2.2,8.1-2.6c3.3-3.8,8.1-6.2,13.4-6.3c1.6-6.7,2.5-13.8,2.5-21c0-49.7-40.3-90-90-90C74.1,10.1,50,22,33.5,40.7
		c7.1,1.1,12.6,7,13.3,14.4c0.9-0.2,1.8-0.4,2.7-0.4c5.8,0,10.5,4.8,10.5,10.7c0,2.6-0.9,5-2.5,6.8c0.6,1.6,1,3.3,1,5.1
		c0,7.5-6,13.5-13.4,13.5c0,0,0,0,0,0v0H11.5c-0.3,3.1-0.5,6.2-0.5,9.3c0,49.7,40.3,90,90,90c14.4,0,28-3.4,40.1-9.4
		C131.4,178.9,124,170.1,124,159.6z"/>
	<path class="st3" d="M41.7,64.2c1.1-0.3,2.2-0.5,3.4-0.5c5.6,0,10.4,3.5,12.4,8.5c1.5-1.9,2.5-4.2,2.5-6.8
		c0-5.9-4.7-10.7-10.5-10.7c-0.9,0-1.8,0.1-2.7,0.4c-0.6-7.4-6.2-13.3-13.3-14.4c-1.8,2-3.4,4.1-5,6.2C35.7,49.5,41,56.2,41.7,64.2z
		"/>
	<path class="st1" d="M45.1,90.8C45.1,90.8,45.1,90.8,45.1,90.8c7.4,0,13.4-6.1,13.4-13.5c0-1.8-0.4-3.5-1-5.1
		c-2-5-6.8-8.5-12.4-8.5c-1.2,0-2.3,0.2-3.4,0.5c-0.7-8-6-14.7-13.2-17.3c-9.2,12.6-15.3,27.6-17,44L45.1,90.8L45.1,90.8z"/>
	<path class="st3" d="M175.1,127.5c0.9-0.1,1.9-0.2,2.8-0.2c3,0,5.8,0.6,8.4,1.6c0.9-2.5,1.6-5.1,2.2-7.7
		C183.2,121.3,178.4,123.7,175.1,127.5z"/>
	<path class="st3" d="M148.6,138.4c2.8,0.5,5.4,1.6,7.8,3.1c2.2-4.9,6-8.9,10.6-11.4c-1.2-0.3-2.6-0.5-3.9-0.5
		C156.9,129.6,151.4,133.1,148.6,138.4z"/>
	<path class="st1" d="M186.3,128.9c-2.6-1-5.5-1.6-8.4-1.6c-1,0-1.9,0.1-2.8,0.2c-2.9,0.4-5.6,1.2-8.1,2.6
		c-4.7,2.5-8.4,6.5-10.6,11.4c-2.3-1.5-4.9-2.6-7.8-3.1c-1.2-0.2-2.3-0.3-3.6-0.3c-11.6,0-21,9.6-21,21.5c0,10.5,7.3,19.2,17.1,21.1
		C162.3,170.2,178.7,151.6,186.3,128.9z"/>
</g>
<g id="Shape_184" class="st4">
	<g>
		<path class="st5" d="M102,141.1c-7,26,0,49,0,49h1c0,0-6.7-22.7,0-49C105.1,132.9,105.2,134.5,102,141.1z"/>
	</g>
</g>
<g id="Polygon_1">
	<g>
		<polygon class="st6" points="101,139.2 94,150.1 108,150.1 		"/>
	</g>
</g>
<g id="Ellipse_1">
	<g>
		<path class="st6" d="M100.9,32.5c-28.8,0-52.2,23.1-52.2,51.6c0,28.5,23.4,60,52.2,60c28.8,0,52.2-31.5,52.2-60
			C153,55.6,129.7,32.5,100.9,32.5z"/>
	</g>
</g>
<g>
	<defs>
		<path id="SVGID_1_" d="M100.9,32.5c-28.8,0-52.2,23.1-52.2,51.6c0,28.5,23.4,60,52.2,60c28.8,0,52.2-31.5,52.2-60
			C153,55.6,129.7,32.5,100.9,32.5z"/>
	</defs>
	<clipPath id="SVGID_2_">
		<use xlink:href="#SVGID_1_"  style="overflow:visible;"/>
	</clipPath>
	<g id="Ellipse_2" class="st7">
		<g>
			<ellipse class="st5" cx="84.6" cy="78.6" rx="41.6" ry="47.4"/>
		</g>
	</g>
</g>
<path class="st8" d="M78.3,86.6L72,80.4c7.7-7.6,18.3-12.3,30-12.3c11.8,0,22.4,4.7,30.1,12.4l-6.3,6.2c-6.1-6-14.6-9.7-23.8-9.7
	C92.8,77.1,84.4,80.7,78.3,86.6z M102.1,93.9c4.6,0,8.7,1.8,11.8,4.7l6.3-6.2c-4.6-4.6-11-7.4-18.1-7.4c-7,0-13.4,2.8-18,7.4
	l6.3,6.2C93.4,95.6,97.5,93.9,102.1,93.9z M102.3,102.6c-3,0-5.4,2.4-5.4,5.3c0,2.9,2.4,5.3,5.4,5.3c3,0,5.4-2.4,5.4-5.3
	C107.6,105,105.2,102.6,102.3,102.6z"/>
<path class="st1" d="M77.3,85.6L71,79.4c7.7-7.6,18.3-12.3,30-12.3c11.8,0,22.4,4.7,30.1,12.4l-6.3,6.2c-6.1-6-14.6-9.7-23.8-9.7
	C91.8,76.1,83.4,79.7,77.3,85.6z M101.1,92.9c4.6,0,8.7,1.8,11.8,4.7l6.3-6.2c-4.6-4.6-11-7.4-18.1-7.4c-7,0-13.4,2.8-18,7.4
	l6.3,6.2C92.4,94.6,96.5,92.9,101.1,92.9z M101.3,101.6c-3,0-5.4,2.4-5.4,5.3s2.4,5.3,5.4,5.3c3,0,5.4-2.4,5.4-5.3
	C106.6,104,104.2,101.6,101.3,101.6z"/>
</svg>
