<?xml version="1.0" encoding="utf-8"?>
<!-- Generator: Adobe Illustrator 19.0.1, SVG Export Plug-In . SVG Version: 6.00 Build 0)  -->
<svg version="1.1" id="_x30_1" xmlns="http://www.w3.org/2000/svg" xmlns:xlink="http://www.w3.org/1999/xlink" x="0px" y="0px"
	 viewBox="0 0 206 206" style="enable-background:new 0 0 206 206;" xml:space="preserve">
<style type="text/css">
	.st0{fill:#D9DFE1;}
	.st1{fill:#FFFFFF;}
	.st2{fill-rule:evenodd;clip-rule:evenodd;fill:#559EE3;}
	.st3{fill:#559EE3;}
	.st4{fill:#4595E0;}
	.st5{fill:#69B0F2;}
	.st6{fill-rule:evenodd;clip-rule:evenodd;fill:#FFFFFF;}
</style>
<g id="Ellipse_18_copy_9_2_">
	<path class="st0" d="M111.4,5.9C56.2,2.9,9.1,45.3,6.2,100.5c-1.3,23.9,5.9,46.3,18.9,64.2c-5.9,8.7-14.5,15.2-24.4,18.3
		c4.1,0.9,8.5,1.5,13,1.7c9.7,0.5,18.9-0.6,26.9-3.1c16.2,14,37,23,60,24.3c55.1,3,102.2-39.4,105.2-94.6
		C208.8,56,166.5,8.8,111.4,5.9z"/>
</g>
<g id="Ellipse_18_copy_4_2_">
	<path class="st1" d="M101,0C45.8,0,1,44.8,1,100.1c0,23.9,8.4,45.9,22.4,63.1c-5.5,9-13.7,15.9-23.4,19.6c4.2,0.7,8.6,1,13.1,1
		c9.7,0,18.9-1.7,26.7-4.6c16.9,13.2,38.2,21,61.2,21c55.2,0,100-44.8,100-100.1S156.3,0,101,0z"/>
</g>
<g>
	<g id="Ellipse_60_3_">
		<circle class="st2" cx="101" cy="100.2" r="90"/>
	</g>
	<g>
		<path class="st3" d="M160,32.3c0.6,1.3,1,2.7,1,4.2c0,2.3-0.8,4.5-2.2,6.1c0.6,1.4,0.9,2.9,0.9,4.6c0,6.7-5.5,12.1-12.3,12.1v0
			h-45v-0.1c-0.7,0.1-1.4,0.1-2,0.1c-9,0-16.4-7.2-16.4-16.1s7.3-16.1,16.4-16.1c0.9,0,1.9,0.1,2.8,0.2c2.2-3.9,6.4-6.6,11.3-6.6
			c1,0,2,0.1,3,0.4c1.9-1,4.1-1.7,6.3-1.9c1.7-1.8,3.8-3.2,6.2-4c-9.1-3.1-18.8-4.7-28.9-4.7c-28.9,0-54.6,13.6-71.1,34.8
			c3.2-2.4,7.1-3.8,11.3-3.8c9.9,0,18.1,7.7,18.9,17.4c1-0.3,2.1-0.4,3.2-0.4c7,0,12.6,5.7,12.6,12.7c0,3.1-1.1,5.9-3,8.2
			c0.8,1.9,1.2,3.9,1.2,6.1c0,8.9-7.2,16.1-16.1,16.1v0H11c0.5,49.2,40.6,89,90,89c49.7,0,90-40.3,90-90C191,73.1,179,48.8,160,32.3
			z"/>
		<path class="st3" d="M151.3,26.9c0.8,0,1.5,0.1,2.3,0.3c-1.8-1.3-3.7-2.6-5.6-3.7c0.5,1.2,0.8,2.5,0.9,3.8
			C149.7,27,150.5,26.9,151.3,26.9z"/>
		<path class="st4" d="M30,47.4c12.6,0,23,9.7,24.1,22.1c1.3-0.3,2.7-0.6,4.1-0.6c6.7,0,12.5,4.2,14.9,10.1c1.8-2.2,3-5,3-8.2
			c0-7-5.7-12.7-12.6-12.7c-1.1,0-2.2,0.2-3.2,0.4c-0.8-9.8-9-17.4-18.9-17.4c-4.2,0-8.1,1.4-11.3,3.8c-0.6,0.8-1.3,1.7-1.9,2.5
			C28.7,47.4,29.3,47.4,30,47.4z"/>
		<path class="st5" d="M58.1,101.2c8.9,0,16.1-7.2,16.1-16.1c0-2.1-0.4-4.2-1.2-6.1c-2.4-5.9-8.2-10.1-14.9-10.1
			c-1.4,0-2.8,0.2-4.1,0.6C52.9,57.1,42.6,47.4,30,47.4c-0.6,0-1.3,0-1.9,0.1C17.3,62.3,11,80.5,11,100.2c0,0.3,0,0.7,0,1
			L58.1,101.2L58.1,101.2z"/>
		<path class="st4" d="M125.9,18.8c9.6,0,17.5,7.3,18.3,16.6c1-0.3,2.1-0.4,3.1-0.4c5.1,0,9.5,3.1,11.4,7.6c1.4-1.7,2.2-3.8,2.2-6.1
			c0-1.5-0.4-2.9-1-4.2c-2-1.8-4.2-3.5-6.4-5c-0.7-0.2-1.5-0.3-2.3-0.3c-0.9,0-1.7,0.1-2.5,0.3c-0.1-1.3-0.4-2.6-0.9-3.8
			c-5.7-3.5-11.7-6.3-18.1-8.5c-2.4,0.8-4.5,2.2-6.2,4C124.4,18.9,125.2,18.8,125.9,18.8z"/>
		<path class="st4" d="M117.4,20.9c-1-0.2-2-0.4-3-0.4c-4.9,0-9.1,2.7-11.3,6.6c2.2,0.4,4.2,1.2,6,2.3
			C110.9,25.8,113.8,22.8,117.4,20.9z"/>
		<path class="st5" d="M147.4,35c-1.1,0-2.1,0.2-3.1,0.4c-0.8-9.3-8.7-16.6-18.3-16.6c-0.7,0-1.5,0.1-2.2,0.1
			c-2.3,0.3-4.4,0.9-6.3,1.9c-3.6,1.9-6.5,4.9-8.2,8.6c-1.8-1.1-3.8-1.9-6-2.3c-0.9-0.2-1.8-0.2-2.8-0.2c-9,0-16.4,7.2-16.4,16.1
			s7.3,16.1,16.4,16.1c0.7,0,1.4-0.1,2-0.1v0.1h45v0c6.8,0,12.3-5.4,12.3-12.1c0-1.6-0.3-3.1-0.9-4.6C156.9,38.1,152.5,35,147.4,35z
			"/>
	</g>
	<g id="Ellipse_91">
		<path class="st1" d="M101,44.2c-29.3,0-53,23.7-53,53c0,29.3,23.7,53,53,53c29.3,0,53-23.7,53-53C154,67.9,130.3,44.2,101,44.2z
			 M101,146.2c-27.1,0-49-21.9-49-49s21.9-49,49-49s49,21.9,49,49S128,146.2,101,146.2z"/>
	</g>
	<g id="Ellipse_92">
		<path class="st1" d="M101,57.2c-22.1,0-40,17.9-40,40s17.9,40,40,40s40-17.9,40-40S123.1,57.2,101,57.2z M101,133.2
			c-19.9,0-36-16.1-36-36s16.1-36,36-36s36,16.1,36,36S120.9,133.2,101,133.2z"/>
	</g>
	<g id="Ellipse_93">
		<path class="st1" d="M101,71.2c-13.8,0-25,11.2-25,25s11.2,25,25,25s25-11.2,25-25S114.8,71.2,101,71.2z M101,117.2
			c-11.6,0-21-9.4-21-21s9.4-21,21-21s21,9.4,21,21S112.6,117.2,101,117.2z"/>
	</g>
	<g id="Rectangle_118">
		<rect x="95" y="102.2" class="st2" width="12" height="49"/>
	</g>
	<g id="Rectangle_119">
		<rect x="102" y="121.2" class="st2" width="54" height="32"/>
	</g>
	<g id="Rounded_Rectangle_75">
		<path class="st6" d="M154,125.2h-52c-1.7,0-3,1.3-3,3v24c0,1.7,1.3,3,3,3h52c1.7,0,3-1.3,3-3v-24C157,126.6,155.6,125.2,154,125.2
			z"/>
	</g>
	<g id="Ellipse_94">
		<circle class="st6" cx="101" cy="95.2" r="10"/>
	</g>
	<g id="Rectangle_118_copy">
		<rect x="99" y="101.2" class="st6" width="4" height="20"/>
	</g>
	<g>
		<path class="st3" d="M125,136.2c0,0.9-0.3,1.7-0.8,2.3s-1.3,1-2.2,1.2v0.1c1.1,0.1,2,0.5,2.6,1.1s0.9,1.3,0.9,2.3
			c0,1.4-0.5,2.4-1.5,3.2s-2.4,1.1-4.1,1.1c-1.6,0-2.9-0.3-4-0.8v-2c0.6,0.3,1.2,0.5,1.9,0.7s1.3,0.2,2,0.2c1.1,0,1.9-0.2,2.5-0.6
			s0.8-1,0.8-1.9c0-0.8-0.3-1.3-0.9-1.7s-1.6-0.5-2.9-0.5H118v-1.9h1.3c2.3,0,3.4-0.8,3.4-2.4c0-0.6-0.2-1.1-0.6-1.4s-1-0.5-1.8-0.5
			c-0.5,0-1.1,0.1-1.6,0.2s-1.1,0.5-1.8,0.9l-1.1-1.6c1.3-1,2.8-1.4,4.6-1.4c1.4,0,2.6,0.3,3.4,0.9S125,135.1,125,136.2z"/>
		<path class="st3" d="M134.1,139.4h5.3v7.2c-0.9,0.3-1.7,0.5-2.5,0.6s-1.6,0.2-2.6,0.2c-2.2,0-3.8-0.6-5-1.9s-1.8-3.1-1.8-5.4
			c0-2.3,0.7-4.1,2-5.4s3.1-1.9,5.5-1.9c1.5,0,2.9,0.3,4.2,0.9l-0.8,1.9c-1.2-0.5-2.3-0.8-3.5-0.8c-1.5,0-2.7,0.5-3.6,1.4
			s-1.3,2.3-1.3,3.9c0,1.7,0.4,3.1,1.2,4s1.9,1.4,3.4,1.4c0.8,0,1.6-0.1,2.4-0.3v-3.7h-3V139.4z"/>
	</g>
</g>
</svg>
