<?xml version="1.0" encoding="utf-8"?>
<!-- Generator: Adobe Illustrator 19.0.1, SVG Export Plug-In . SVG Version: 6.00 Build 0)  -->
<svg version="1.1" id="_x30_1" xmlns="http://www.w3.org/2000/svg" xmlns:xlink="http://www.w3.org/1999/xlink" x="0px" y="0px"
	 viewBox="0 0 206 206" style="enable-background:new 0 0 206 206;" xml:space="preserve">
<style type="text/css">
	.st0{fill:#D9DFE1;}
	.st1{fill:#FFFFFF;}
	.st2{fill-rule:evenodd;clip-rule:evenodd;fill:#559EE3;}
	.st3{fill:#559EE3;}
	.st4{fill:#4595E0;}
	.st5{fill:#83CA28;}
	.st6{fill:#A2DD3B;}
	.st7{clip-path:url(#SVGID_2_);}
	.st8{fill-rule:evenodd;clip-rule:evenodd;fill:#FFFFFF;}
	.st9{fill:#CCCCCC;}
	.st10{fill:#F2F1EF;}
	.st11{fill-rule:evenodd;clip-rule:evenodd;fill:#E1564B;}
</style>
<g id="Ellipse_18_copy_9_2_">
	<path class="st0" d="M111.4,5.9C56.2,2.9,9.1,45.3,6.2,100.5c-1.3,23.9,5.9,46.3,18.9,64.2c-5.9,8.7-14.5,15.2-24.4,18.3
		c4.1,0.9,8.5,1.5,13,1.7c9.7,0.5,18.9-0.6,26.9-3.1c16.2,14,37,23,60,24.3c55.1,3,102.2-39.4,105.2-94.6
		C208.8,56,166.5,8.8,111.4,5.9z"/>
</g>
<g id="Ellipse_18_copy_4_2_">
	<path class="st1" d="M101,0C45.8,0,1,44.8,1,100.1c0,23.9,8.4,45.9,22.4,63.1c-5.5,9-13.7,15.9-23.4,19.6c4.2,0.7,8.6,1,13.1,1
		c9.7,0,18.9-1.7,26.7-4.6c16.9,13.2,38.2,21,61.2,21c55.2,0,100-44.8,100-100.1S156.3,0,101,0z"/>
</g>
<g>
	<g id="Ellipse_60">
		<g>
			<circle class="st2" cx="101" cy="100.1" r="90"/>
		</g>
	</g>
	<g>
		<path class="st3" d="M189,81.2c-8.7-40.6-44.8-71.1-88-71.1c-49.7,0-90,40.3-90,90c0,4,0.3,8,0.8,11.9
			c39.2-22,84.3-34.5,132.5-34.5C159.5,77.5,174.4,78.8,189,81.2z"/>
		<path class="st4" d="M102.3,123.9c28.1,0,54.8,6.4,78.6,17.8c6.5-12.4,10.2-26.6,10.2-41.6c0-6.5-0.7-12.8-2-18.9
			c-14.6-2.4-29.5-3.7-44.8-3.7c-48.1,0-93.3,12.5-132.5,34.5c1.4,11,4.9,21.3,9.9,30.7C46,130.7,73.3,123.9,102.3,123.9z"/>
		<path class="st5" d="M21.7,142.7c4.9,9.1,11.4,17.3,19,24.2c7.8-3.1,16.4-4.8,25.3-4.8c21.8,0,41.3,10.2,53.9,26
			c26.5-5.7,48.7-23,60.9-46.4c-23.8-11.4-50.4-17.8-78.6-17.8C73.3,123.9,46,130.7,21.7,142.7z"/>
		<path class="st6" d="M66,162.1c-8.9,0-17.5,1.7-25.3,4.8c16,14.4,37.1,23.2,60.3,23.2c6.5,0,12.8-0.7,18.9-2
			C107.3,172.3,87.8,162.1,66,162.1z"/>
	</g>
	<g>
		<defs>
			<circle id="SVGID_1_" cx="101" cy="100.1" r="90"/>
		</defs>
		<clipPath id="SVGID_2_">
			<use xlink:href="#SVGID_1_"  style="overflow:visible;"/>
		</clipPath>
		<g id="wave" class="st7">
			<g>
				<path class="st8" d="M100,27.4c-15.8,0-28.6,12.9-28.6,28.8c0,9.1,4.2,17.2,10.8,22.5l1.3-2.8c-5.6-4.7-9.1-11.8-9.1-19.7
					c0-14.2,11.4-25.8,25.6-25.8c14.1,0,25.6,11.5,25.6,25.8c0,7.9-3.5,15-9.1,19.7l1.3,2.8c6.6-5.3,10.8-13.4,10.8-22.5
					C128.6,40.3,115.8,27.4,100,27.4z M100,39.6c-9.1,0-16.5,7.5-16.5,16.7c0,4.2,1.6,8.1,4.1,11l1.4-3.1c-1.6-2.2-2.5-5-2.5-7.9
					c0-7.5,6.1-13.6,13.5-13.6c7.5,0,13.5,6.1,13.5,13.6c0,3-0.9,5.7-2.5,7.9l1.4,3.1c2.6-2.9,4.1-6.8,4.1-11
					C116.6,47,109.2,39.6,100,39.6z M142.1,56.2c0-23.4-18.8-42.5-42.1-42.5c-23.2,0-42.1,19-42.1,42.5c0,14.6,7.3,27.5,18.4,35.1
					l1.3-2.8C67.6,81.4,61,69.6,61,56.2c0-21.8,17.5-39.4,39.1-39.4c21.6,0,39.1,17.6,39.1,39.4c0,13.4-6.6,25.2-16.7,32.3l1.3,2.8
					C134.8,83.7,142.1,70.8,142.1,56.2z M100.8,0.1C69.7,0.1,44.4,25.6,44.4,57c0,20,10.3,37.6,25.8,47.7l1.3-2.8
					c-14.5-9.6-24-26.2-24-45c0-29.7,23.9-53.8,53.4-53.8c29.5,0,53.4,24.1,53.4,53.8c0,19.3-10.1,36.2-25.2,45.7l1.3,2.8
					c16.1-10,26.9-28,26.9-48.5C157.2,25.6,131.9,0.1,100.8,0.1z"/>
			</g>
		</g>
	</g>
	<g id="crossbars">
		<g>
			<path class="st9" d="M131.5,122.6l-26.1-15.1l14.2-8.8L100,86.6L80.5,98.7l14.8,9.2l-25.5,14.7c-1.4,0.8-1.4,2.9,0,3.7l30.9,17.8
				l30.9-17.8C132.9,125.5,132.9,123.4,131.5,122.6z M86.6,98.7l13.4-8.1l13.4,8.1l-13.4,8.1L86.6,98.7z M100.6,139.3l-26-14.8
				l24.7-14.1l0.7,0.4l1.2-0.8l25.3,14.4L100.6,139.3z"/>
		</g>
	</g>
	<g id="legs">
		<g>
			<path class="st10" d="M138.7,136.6l-34.6-74.2c-0.3-0.6-0.8-1-1.4-1.3c-0.5-1.1-1.5-1.8-2.7-1.8c-1,0-1.9,0.5-2.5,1.3
				c-0.7,0.2-1.3,0.7-1.6,1.3l-34.6,73.5c-0.8,1.5-0.3,3.3,1.1,4.1c1.4,0.8,3.3,0.3,4.1-1.1L97,73.7v73.5c0,1.7,1.3,3,3,3
				c1.7,0,3-1.4,3-3v-73l30.5,65.4c0.8,1.5,2.7,2,4.1,1.1C139.1,139.9,139.6,138,138.7,136.6z"/>
		</g>
	</g>
	<g id="top">
		<g>
			<ellipse class="st11" cx="100" cy="56.3" rx="7.5" ry="7.6"/>
		</g>
	</g>
</g>
</svg>
