<?xml version="1.0" encoding="utf-8"?>
<!-- Generator: Adobe Illustrator 19.0.1, SVG Export Plug-In . SVG Version: 6.00 Build 0)  -->
<svg version="1.1" xmlns="http://www.w3.org/2000/svg" xmlns:xlink="http://www.w3.org/1999/xlink" x="0px" y="0px"
	 viewBox="0 0 90 90" style="enable-background:new 0 0 90 90;" xml:space="preserve">
<style type="text/css">
	.st0{fill-rule:evenodd;clip-rule:evenodd;fill:#559EE3;}
	.st1{fill:#FFFFFF;}
	.st2{fill-rule:evenodd;clip-rule:evenodd;fill:#FFFFFF;}
	.st3{fill:#284259;}
</style>
<g id="Ellipse_49_copy_4_1_">
	<g id="Ellipse_49_copy_4">
		<g>
			<circle class="st0" cx="45" cy="45" r="45"/>
		</g>
	</g>
</g>
<g id="ico_x5F_unban_x5F_userpage_copy_1_">
	<g id="ico_x5F_unban_x5F_userpage_copy">
		<g>
			<path class="st1" d="M50.7,20H39.3C38,20,37,21,37,22.2v7.6c0,1.2,1,2.2,2.3,2.2h11.4c1.3,0,2.3-1,2.3-2.2v-7.6
				C53,21,52,20,50.7,20z M53,12c-3.3,0-6,2.4-6,5.3V20h2.3v-2.7c0-1.8,1.7-3.3,3.8-3.3c2.1,0,3.8,1.5,3.8,3.3V20H59v-2.7
				C59,14.4,56.3,12,53,12z"/>
		</g>
	</g>
</g>
<g id="Rounded_Rectangle_28_1_">
	<g id="Rounded_Rectangle_28">
		<g>
			<path class="st2" d="M73,43H17c-1.1,0-2,0.9-2,2v20c0,1.1,0.9,2,2,2h56c1.1,0,2-0.9,2-2V45C75,43.9,74.1,43,73,43z"/>
		</g>
	</g>
</g>
<g id="_x2A__x2A__x2A__1_">
	<g id="_x2A__x2A__x2A_">
		<g>
			<path class="st3" d="M37.7,52.5l-4.3,1.2l0.5-4.2h-2.1l0.5,4.2L28,52.5l-0.3,2l4,0.3l-2.6,3.5l1.9,1l1.7-3.9l1.9,3.9l1.8-1
				l-2.7-3.5l4.1-0.3L37.7,52.5z M49.8,52.5l-4.3,1.2l0.5-4.2h-2.1l0.5,4.2l-4.2-1.2l-0.3,2l4,0.3l-2.6,3.5l1.9,1l1.7-3.9l1.9,3.9
				l1.8-1L46,54.7l4.1-0.3L49.8,52.5z M62.2,54.4l-0.3-2l-4.3,1.2l0.5-4.2h-2.1l0.5,4.2l-4.2-1.2l-0.3,2l4,0.3l-2.6,3.5l1.9,1
				l1.7-3.9l1.9,3.9l1.8-1l-2.7-3.5L62.2,54.4z"/>
		</g>
	</g>
</g>
</svg>
