<?xml version="1.0" encoding="utf-8"?>
<!-- Generator: Adobe Illustrator 19.0.1, SVG Export Plug-In . SVG Version: 6.00 Build 0)  -->
<svg version="1.1" id="Layer_1" xmlns="http://www.w3.org/2000/svg" xmlns:xlink="http://www.w3.org/1999/xlink" x="0px" y="0px"
	 viewBox="0 0 222 132.9" style="enable-background:new 0 0 222 132.9;" xml:space="preserve">
<style type="text/css">
	.st0{fill-rule:evenodd;clip-rule:evenodd;fill:#F39300;}
	.st1{fill-rule:evenodd;clip-rule:evenodd;fill:#DA270E;}
	.st2{fill-rule:evenodd;clip-rule:evenodd;fill:#F9B035;}
	.st3{fill-rule:evenodd;clip-rule:evenodd;fill:#30237E;}
	.st4{fill-rule:evenodd;clip-rule:evenodd;fill:#FFFFFF;}
</style>
<g>
	<g>
		<g>
			<path class="st0" d="M222,66.5c0,36.7-29.7,66.5-66.4,66.5c-36.7,0-66.5-29.7-66.5-66.4c0,0,0,0,0,0C89.1,29.8,118.9,0,155.6,0
				C192.3,0,222,29.7,222,66.5C222,66.4,222,66.5,222,66.5z"/>
			<path class="st1" d="M66,0C29.5,0.2,0,29.9,0,66.5c0,36.7,29.8,66.5,66.5,66.5c17.2,0,32.9-6.6,44.7-17.3c0,0,0,0,0,0l0,0
				c2.4-2.2,4.7-4.6,6.7-7.1h-13.6c-1.8-2.2-3.5-4.5-5-6.8l23.5,0c1.4-2.3,2.7-4.7,3.9-7.1H95.5c-1.1-2.3-2-4.6-2.8-7h36.8
				c2.2-6.6,3.4-13.7,3.4-21.1c0-4.9-0.5-9.6-1.5-14.2H90.8c0.5-2.4,1.1-4.7,1.9-7h36.8c-0.8-2.4-1.8-4.8-2.9-7.1H95.5
				c1.1-2.4,2.4-4.7,3.8-7h23.5c-1.6-2.5-3.3-4.9-5.2-7.1h-13.1c2-2.4,4.2-4.6,6.7-6.7C99.4,6.6,83.7,0,66.5,0C66.3,0,66.2,0,66,0z"
				/>
			<g>
				<path class="st2" d="M215.4,101.2c0.4,0,0.7,0.1,1.1,0.3c0.3,0.2,0.6,0.5,0.8,0.8c0.2,0.3,0.3,0.7,0.3,1.1
					c0,0.4-0.1,0.7-0.3,1.1c-0.2,0.3-0.5,0.6-0.8,0.8c-0.3,0.2-0.7,0.3-1.1,0.3c-0.4,0-0.7-0.1-1.1-0.3c-0.3-0.2-0.6-0.5-0.8-0.8
					c-0.2-0.3-0.3-0.7-0.3-1.1c0-0.4,0.1-0.7,0.3-1.1c0.2-0.3,0.5-0.6,0.8-0.8C214.7,101.3,215,101.2,215.4,101.2L215.4,101.2
					L215.4,101.2z M215.4,101.6c-0.3,0-0.6,0.1-0.9,0.2c-0.3,0.2-0.5,0.4-0.7,0.7c-0.2,0.3-0.2,0.6-0.2,0.9c0,0.3,0.1,0.6,0.2,0.9
					c0.2,0.3,0.4,0.5,0.7,0.7c0.3,0.2,0.6,0.2,0.9,0.2c0.3,0,0.6-0.1,0.9-0.2c0.3-0.2,0.5-0.4,0.7-0.7c0.2-0.3,0.2-0.6,0.2-0.9
					c0-0.3-0.1-0.6-0.2-0.9c-0.2-0.3-0.4-0.5-0.7-0.7C216,101.6,215.7,101.6,215.4,101.6L215.4,101.6L215.4,101.6z M214.4,104.5
					L214.4,104.5l0.4,0v-1h0.2c0.1,0,0.2,0,0.3,0.1c0.1,0.1,0.2,0.3,0.4,0.5l0.2,0.4l0.5,0l-0.3-0.5c-0.1-0.2-0.2-0.4-0.3-0.5
					c-0.1,0-0.1-0.1-0.2-0.1c0.2,0,0.4-0.1,0.5-0.2c0.1-0.1,0.2-0.3,0.2-0.4c0-0.1,0-0.2-0.1-0.3c-0.1-0.1-0.2-0.2-0.3-0.2
					c-0.1,0-0.3-0.1-0.6-0.1l-0.8,0V104.5L214.4,104.5z M214.8,103.2h0.5c0.2,0,0.4,0,0.4-0.1c0.1-0.1,0.1-0.1,0.1-0.3
					c0-0.1,0-0.1-0.1-0.2c0-0.1-0.1-0.1-0.2-0.1c-0.1,0-0.2,0-0.4,0l-0.4,0L214.8,103.2L214.8,103.2z M214.8,103.2L214.8,103.2
					L214.8,103.2z"/>
			</g>
		</g>
		<g>
			<g>
				<path class="st3" d="M88.5,85.5l0.9-6c-0.5,0-1.2,0.2-1.8,0.2c-2.5,0-2.8-1.3-2.6-2.3l2.4-12.1h3.7l0.8-6.8h-3.5l0.7-4.1l-7.4,0
					c-0.2,0.2-4.2,23.3-4.2,26.1c0,4.2,2.3,6,5.6,6C85.8,86.4,87.8,85.7,88.5,85.5z"/>
				<path class="st3" d="M90.7,74.1c0,10,6.6,12.4,12.2,12.4c5.2,0,7.9-1.2,7.9-1.2l1.2-6.8c0,0-4.4,1.8-8,1.8
					c-7.6,0-6.3-5.7-6.3-5.7l14.6,0c0,0,0.9-4.6,0.9-6.5c0-4.7-2.5-10.4-10.3-10.4C96,57.7,90.7,65.4,90.7,74.1L90.7,74.1z
					 M103.2,64.1c4,0,3.3,4.5,3.3,4.9l-7.9,0C98.6,68.5,99.3,64.1,103.2,64.1z"/>
				<path class="st3" d="M148,85.5l1.3-7.7c0,0-3.5,1.7-5.9,1.7c-5,0-7-3.8-7-8c0-8.4,4.3-12.9,9.1-12.9c3.6,0,6.5,2,6.5,2l1.2-7.5
					c0,0-3.4-2.5-7.1-2.5c-11.1,0-17.4,7.7-17.4,21c0,8.8,4.7,14.8,13.1,14.8C144.2,86.5,148,85.5,148,85.5z"/>
				<path class="st3" d="M49.6,57.9c-4.9,0-8.6,1.6-8.6,1.6l-1,6.1c0,0,3.1-1.2,7.7-1.2c2.6,0,4.6,0.3,4.6,2.4
					c0,1.3-0.2,1.8-0.2,1.8s-2.1-0.2-3-0.2c-6.9,0-12.5,2.6-12.5,10.5c0,6.2,4.2,7.6,6.8,7.6c5,0,7-3.2,7.1-3.2l-0.1,2.6
					c0,0,6.2,0,6.2,0l2.8-19.5C59.3,58.1,52.1,57.9,49.6,57.9L49.6,57.9z M50.7,73.7c0.1,1.2-0.3,6.8-4.6,6.8
					c-2.2,0-2.8-1.7-2.8-2.7c0-1.9,1.1-4.3,6.2-4.3C50.8,73.6,50.5,73.6,50.7,73.7z"/>
				<path class="st3" d="M65.9,86.3c1.6,0,10.7,0.4,10.7-9c0-8.8-8.4-7.1-8.4-10.6c0-1.8,1.4-2.3,3.9-2.3c1,0,4.8,0.3,4.8,0.3
					l0.9-6.2c0,0-2.5-0.6-6.5-0.6c-5.2,0-10.5,2.1-10.5,9.2c0,8.1,8.9,7.3,8.9,10.7c0,2.3-2.5,2.5-4.4,2.5c-3.3,0-6.3-1.1-6.3-1.1
					L58,85.4C58.2,85.5,60,86.3,65.9,86.3z"/>
				<path class="st3" d="M206.3,52.2l-1.3,9.5c0,0-2.7-3.7-6.8-3.7c-7.8,0-11.9,7.8-11.9,16.8c0,5.8,2.9,11.5,8.8,11.5
					c4.2,0,6.6-3,6.6-3l-0.3,2.5h6.9l5.4-33.6L206.3,52.2L206.3,52.2z M203.3,70.7c0,3.7-1.9,8.7-5.7,8.7c-2.5,0-3.7-2.1-3.7-5.5
					c0-5.5,2.5-9.1,5.6-9.1C202,64.8,203.3,66.6,203.3,70.7z"/>
				<polygon class="st3" points="11.3,85.9 15.6,60.5 16.2,85.9 21.1,85.9 30.2,60.5 26.2,85.9 33.4,85.9 39,52.2 27.5,52.1 
					20.6,72.8 20.4,52.2 9.9,52.2 4.2,85.9 11.3,85.9 				"/>
				<path class="st3" d="M120.3,86c2.1-11.7,2.8-21,8.8-19c0.9-4.5,2.9-8.5,3.9-10.4c0,0-0.3-0.4-2.2-0.4c-3.2,0-7.4,6.4-7.4,6.4
					l0.6-4l-6.6,0L113,86L120.3,86L120.3,86z"/>
				<g>
					<path class="st3" d="M162.8,57.9c-4.9,0-8.6,1.6-8.6,1.6l-1,6.1c0,0,3.1-1.2,7.7-1.2c2.6,0,4.6,0.3,4.6,2.4
						c0,1.3-0.2,1.8-0.2,1.8s-2.1-0.2-3-0.2c-6.9,0-12.5,2.6-12.5,10.5c0,6.2,4.2,7.6,6.8,7.6c5,0,7-3.2,7.1-3.2l-0.1,2.6l6.2,0
						l2.8-19.5C172.5,58.1,165.3,57.9,162.8,57.9L162.8,57.9z M163.9,73.7c0.1,1.2-0.3,6.8-4.6,6.8c-2.2,0-2.8-1.7-2.8-2.7
						c0-1.9,1.1-4.3,6.2-4.3C164,73.6,163.7,73.6,163.9,73.7z"/>
				</g>
				<path class="st3" d="M179.7,86c1.1-8.6,3.2-20.7,8.8-19c0.9-4.5,0-4.5-1.8-4.5c-3.2,0-3.9,0.1-3.9,0.1l0.6-4l-6.6,0L172.4,86
					L179.7,86L179.7,86z"/>
			</g>
			<g>
				<path class="st4" d="M90.4,83.4l0.9-6c-0.5,0-1.2,0.2-1.8,0.2c-2.5,0-2.7-1.3-2.6-2.3l2-12.3h3.7l0.9-6.7l-3.5,0l0.7-4.1l-7.1,0
					c-0.2,0.2-4.2,23.3-4.2,26.1c0,4.2,2.3,6,5.6,6C87.6,84.3,89.6,83.6,90.4,83.4z"/>
				<path class="st4" d="M92.6,71.9c0,10,6.6,12.4,12.2,12.4c5.2,0,7.5-1.2,7.5-1.2l1.2-6.8c0,0-3.9,1.7-7.5,1.7
					c-7.6,0-6.3-5.7-6.3-5.7h14.4c0,0,0.9-4.6,0.9-6.5c0-4.7-2.3-10.3-10.1-10.3C97.9,55.6,92.6,63.3,92.6,71.9L92.6,71.9z
					 M105,61.9c4,0,3.3,4.5,3.3,4.8h-7.9C100.4,66.3,101.1,61.9,105,61.9z"/>
				<path class="st4" d="M149.8,83.4l1.3-7.7c0,0-3.5,1.7-5.9,1.7c-5,0-7-3.8-7-7.9c0-8.4,4.3-12.9,9.1-12.9c3.6,0,6.5,2,6.5,2
					L155,51c0,0-4.3-1.7-8-1.7c-8.2,0-16.1,7.1-16.1,20.4c0,8.8,4.3,14.7,12.7,14.7C146,84.4,149.8,83.4,149.8,83.4z"/>
				<path class="st4" d="M51.4,55.7c-4.9,0-8.6,1.6-8.6,1.6l-1,6.1c0,0,3.1-1.2,7.7-1.2c2.6,0,4.6,0.3,4.6,2.4
					c0,1.3-0.2,1.8-0.2,1.8s-2.1-0.2-3-0.2c-6.1,0-12.5,2.6-12.5,10.5c0,6.2,4.2,7.6,6.8,7.6c5,0,7.1-3.2,7.3-3.2l-0.2,2.7h6.2
					l2.8-19.5C61.2,56,53.9,55.7,51.4,55.7L51.4,55.7z M53,71.6c0.1,1.2-0.7,6.8-5,6.8c-2.2,0-2.8-1.7-2.8-2.7
					c0-1.9,1.1-4.3,6.2-4.3C52.6,71.4,52.7,71.5,53,71.6z"/>
				<path class="st4" d="M67.8,84.1c1.6,0,10.7,0.4,10.7-9c0-8.8-8.4-7.1-8.4-10.6c0-1.8,1.4-2.3,3.9-2.3c1,0,4.8,0.3,4.8,0.3
					l0.9-6.2c0,0-2.5-0.6-6.5-0.6c-5.2,0-10.5,2.1-10.5,9.2c0,8.1,8.9,7.3,8.9,10.7c0,2.3-2.5,2.5-4.4,2.5c-3.3,0-6.3-1.1-6.3-1.1
					l-0.9,6.2C60,83.3,61.8,84.1,67.8,84.1z"/>
				<path class="st4" d="M208.4,50.1l-1.5,9.5c0,0-2.7-3.7-6.8-3.7c-6.5,0-11.9,7.8-11.9,16.8c0,5.8,2.9,11.5,8.8,11.5
					c4.2,0,6.6-3,6.6-3l-0.3,2.5h6.9l5.4-33.6L208.4,50.1L208.4,50.1z M205.1,68.6c0,3.7-1.9,8.7-5.7,8.7c-2.5,0-3.7-2.1-3.7-5.5
					c0-5.5,2.5-9.1,5.6-9.1C203.8,62.7,205.1,64.4,205.1,68.6z"/>
				<polygon class="st4" points="13.1,83.8 17.4,58.4 18.1,83.8 22.9,83.8 32,58.4 28,83.8 35.2,83.8 40.8,50.1 29.6,50.1 
					22.6,70.7 22.3,50.1 12,50.1 6.3,83.8 				"/>
				<path class="st4" d="M122.1,83.8c2.1-11.7,2.4-21.2,7.4-19.5c0.9-4.5,1.7-6.3,2.6-8.2c0,0-0.4-0.1-1.4-0.1
					c-3.2,0-5.5,4.3-5.5,4.3l0.6-4l-6.6,0l-4.4,27.4L122.1,83.8z"/>
				<g>
					<path class="st4" d="M166.1,55.7c-4.9,0-8.6,1.6-8.6,1.6l-1,6.1c0,0,3.1-1.2,7.7-1.2c2.6,0,4.6,0.3,4.6,2.4
						c0,1.3-0.2,1.8-0.2,1.8s-2.1-0.2-3-0.2c-6.1,0-12.5,2.6-12.5,10.5c0,6.2,4.2,7.6,6.8,7.6c5,0,7.1-3.2,7.3-3.2l-0.2,2.7
						c0,0,6.2,0,6.2,0l2.8-19.5C175.8,56,168.6,55.7,166.1,55.7L166.1,55.7z M167.6,71.6c0.1,1.2-0.7,6.8-5,6.8
						c-2.2,0-2.8-1.7-2.8-2.7c0-1.9,1.1-4.3,6.2-4.3C167.3,71.4,167.4,71.5,167.6,71.6z"/>
				</g>
				<g>
					<path class="st4" d="M181.5,83.8c2.1-11.7,2.4-21.2,7.4-19.5c0.9-4.5,1.7-6.3,2.6-8.2c0,0-0.4-0.1-1.4-0.1
						c-3.2,0-5.5,4.3-5.5,4.3l0.6-4l-6.6,0l-4.4,27.4L181.5,83.8z"/>
				</g>
				<g>
					<path class="st4" d="M215.4,79.6c0.4,0,0.7,0.1,1.1,0.3c0.3,0.2,0.6,0.4,0.8,0.8c0.2,0.3,0.3,0.7,0.3,1.1
						c0,0.4-0.1,0.7-0.3,1.1c-0.2,0.3-0.5,0.6-0.8,0.8c-0.3,0.2-0.7,0.3-1.1,0.3c-0.4,0-0.7-0.1-1.1-0.3c-0.3-0.2-0.6-0.5-0.8-0.8
						c-0.2-0.3-0.3-0.7-0.3-1.1c0-0.4,0.1-0.7,0.3-1.1c0.2-0.3,0.5-0.6,0.8-0.8C214.6,79.7,215,79.6,215.4,79.6L215.4,79.6
						L215.4,79.6z M215.4,79.9c-0.3,0-0.6,0.1-0.9,0.2c-0.3,0.2-0.5,0.4-0.7,0.7c-0.2,0.3-0.2,0.6-0.2,0.9c0,0.3,0.1,0.6,0.2,0.9
						c0.2,0.3,0.4,0.5,0.7,0.7c0.3,0.2,0.6,0.2,0.9,0.2c0.3,0,0.6-0.1,0.9-0.2c0.3-0.2,0.5-0.4,0.7-0.7c0.2-0.3,0.2-0.6,0.2-0.9
						c0-0.3-0.1-0.6-0.2-0.9c-0.2-0.3-0.4-0.5-0.7-0.7C215.9,80,215.7,79.9,215.4,79.9L215.4,79.9L215.4,79.9z M214.4,82.9
						L214.4,82.9l0.4,0v-1l0.2,0c0.1,0,0.2,0,0.3,0.1c0.1,0.1,0.2,0.3,0.4,0.5l0.2,0.4h0.5l-0.3-0.5c-0.1-0.2-0.2-0.4-0.3-0.5
						c-0.1,0-0.1-0.1-0.2-0.1c0.2,0,0.4-0.1,0.5-0.2c0.1-0.1,0.2-0.3,0.2-0.4c0-0.1,0-0.2-0.1-0.3c-0.1-0.1-0.2-0.2-0.3-0.2
						c-0.1,0-0.3-0.1-0.6-0.1l-0.8,0V82.9L214.4,82.9z M214.8,81.6h0.5c0.2,0,0.4,0,0.4-0.1c0.1-0.1,0.1-0.1,0.1-0.3
						c0-0.1,0-0.1-0.1-0.2c0-0.1-0.1-0.1-0.2-0.1c-0.1,0-0.2,0-0.4,0l-0.4,0L214.8,81.6L214.8,81.6z M214.8,81.6L214.8,81.6
						L214.8,81.6z"/>
				</g>
			</g>
		</g>
	</g>
</g>
</svg>
