<?xml version="1.0" encoding="utf-8"?>
<!-- Generator: Adobe Illustrator 19.0.1, SVG Export Plug-In . SVG Version: 6.00 Build 0)  -->
<svg version="1.1" id="_x30_6" xmlns="http://www.w3.org/2000/svg" xmlns:xlink="http://www.w3.org/1999/xlink" x="0px" y="0px"
	 viewBox="0 0 200 200" style="enable-background:new 0 0 200 200;" xml:space="preserve">
<style type="text/css">
	.st0{fill:#559EE3;}
	.st1{fill:#4988C3;}
	.st2{enable-background:new    ;}
	.st3{fill:#284259;}
	.st4{fill:#E1E6EA;}
	.st5{fill-rule:evenodd;clip-rule:evenodd;fill:#ECF0F1;}
	.st6{fill-rule:evenodd;clip-rule:evenodd;fill:#FFFFFF;}
	.st7{fill-rule:evenodd;clip-rule:evenodd;fill:#57A2E8;}
	.st8{fill-rule:evenodd;clip-rule:evenodd;fill:#284259;}
	.st9{fill-rule:evenodd;clip-rule:evenodd;fill:#83CA28;}
	.st10{fill-rule:evenodd;clip-rule:evenodd;fill:#E1E6EA;}
	.st11{fill-rule:evenodd;clip-rule:evenodd;fill:#BEBFC2;}
	.st12{fill-rule:evenodd;clip-rule:evenodd;fill:#F29A00;}
</style>
<g>
	<path class="st0" d="M106.1,159.6l0.1-21.7l81.4-86C170.7,21,137.8,0,100,0C44.8,0,0,44.8,0,100s44.8,100,100,100
		c2.4,0,4.8-0.1,7.1-0.3l-39.2-40.1H106.1z"/>
	<path class="st1" d="M200,100c0-17.4-4.5-33.8-12.3-48.1l-81.4,86l-0.1,21.7H67.9l39.2,40.1C159,196.1,200,152.8,200,100z"/>
</g>
<g id="iMac_1_">
	<g id="Rounded_Rectangle_22__x2B__Rectangle_38_2_" class="st2">
	</g>
	<path class="st3" d="M189.2,19.3c0-2.1-1.7-3.8-3.8-3.8H13.8c-2.1,0-3.8,1.7-3.8,3.8v104.3h179.2V19.3z"/>
	<path class="st4" d="M13.8,139.6h171.6c2.1,0,3.8-1.7,3.8-3.8v-12.2H10v12.2C10,137.9,11.7,139.6,13.8,139.6z"/>
	<g id="Rectangle_39">
		<g>
			<rect x="17.1" y="22.1" class="st5" width="166.6" height="94.2"/>
		</g>
	</g>
	<g id="Rectangle_39_copy">
		<g>
			<rect x="17.1" y="22.1" class="st6" width="166.6" height="27.2"/>
		</g>
	</g>
	<g id="Group_5_1_">
		<g id="Ellipse_49_3_">
			<g>
				<circle class="st7" cx="56.8" cy="62.9" r="7.1"/>
			</g>
		</g>
		<g id="Rounded_Rectangle_28_3_">
			<g>
				<path class="st6" d="M131.4,55.8H69.9c-0.3,0-0.5,0.2-0.5,0.5v13.1c0,0.3,0.2,0.5,0.5,0.5h61.5c0.3,0,0.5-0.2,0.5-0.5V56.4
					C132,56.1,131.7,55.8,131.4,55.8z"/>
			</g>
		</g>
		<g id="Rounded_Rectangle_29_3_">
			<g>
				<path class="st8" d="M106.4,59.1H73.2c-0.3,0-0.5,0.2-0.5,0.5v0.5c0,0.3,0.2,0.5,0.5,0.5h33.2c0.3,0,0.5-0.2,0.5-0.5v-0.5
					C106.9,59.3,106.7,59.1,106.4,59.1z"/>
			</g>
		</g>
		<g id="Rounded_Rectangle_29_copy_3_">
			<g>
				<path class="st8" d="M90,62.4H73.2c-0.3,0-0.5,0.2-0.5,0.5v0.5c0,0.3,0.2,0.5,0.5,0.5H90c0.3,0,0.5-0.2,0.5-0.5v-0.5
					C90.6,62.6,90.3,62.4,90,62.4z"/>
			</g>
		</g>
		<g id="Rounded_Rectangle_29_copy_2_3_">
			<g>
				<path class="st8" d="M95.5,65.6H73.2c-0.3,0-0.5,0.2-0.5,0.5v0.5c0,0.3,0.2,0.5,0.5,0.5h22.3c0.3,0,0.5-0.2,0.5-0.5v-0.5
					C96,65.9,95.8,65.6,95.5,65.6z"/>
			</g>
		</g>
		<g id="Ellipse_49_copy_2_3_">
			<g>
				<circle class="st7" cx="56.8" cy="102.1" r="7.1"/>
			</g>
		</g>
		<g id="Rounded_Rectangle_28_copy_2_3_">
			<g>
				<path class="st6" d="M131.4,95H69.9c-0.3,0-0.5,0.2-0.5,0.5v13.1c0,0.3,0.2,0.5,0.5,0.5h61.5c0.3,0,0.5-0.2,0.5-0.5V95.6
					C132,95.3,131.7,95,131.4,95z"/>
			</g>
		</g>
		<g id="Rounded_Rectangle_29_copy_4_11_">
			<g>
				<path class="st8" d="M106.4,98.3H73.2c-0.3,0-0.5,0.2-0.5,0.5v0.5c0,0.3,0.2,0.5,0.5,0.5h33.2c0.3,0,0.5-0.2,0.5-0.5v-0.5
					C106.9,98.5,106.7,98.3,106.4,98.3z"/>
			</g>
		</g>
		<g id="Rounded_Rectangle_29_copy_4_9_">
			<g>
				<path class="st8" d="M90,101.6H73.2c-0.3,0-0.5,0.2-0.5,0.5v0.5c0,0.3,0.2,0.5,0.5,0.5H90c0.3,0,0.5-0.2,0.5-0.5v-0.5
					C90.6,101.8,90.3,101.6,90,101.6z"/>
			</g>
		</g>
		<g id="Rounded_Rectangle_29_copy_4_6_">
			<g>
				<path class="st8" d="M95.5,104.8H73.2c-0.3,0-0.5,0.2-0.5,0.5v0.5c0,0.3,0.2,0.5,0.5,0.5h22.3c0.3,0,0.5-0.2,0.5-0.5v-0.5
					C96,105.1,95.8,104.8,95.5,104.8z"/>
			</g>
		</g>
		<g id="Ellipse_49_copy_3_">
			<g>
				<circle class="st9" cx="144.5" cy="82.5" r="7.1"/>
			</g>
		</g>
		<g id="Rounded_Rectangle_28_copy_3_">
			<g>
				<path class="st6" d="M131.4,75.4H69.9c-0.3,0-0.5,0.2-0.5,0.5V89c0,0.3,0.2,0.5,0.5,0.5h61.5c0.3,0,0.5-0.2,0.5-0.5V76
					C132,75.7,131.7,75.4,131.4,75.4z"/>
			</g>
		</g>
		<g id="Rounded_Rectangle_29_copy_3_11_">
			<g>
				<path class="st8" d="M117.3,78.7H73.2c-0.3,0-0.5,0.2-0.5,0.5v0.5c0,0.3,0.2,0.5,0.5,0.5h44.1c0.3,0,0.5-0.2,0.5-0.5v-0.5
					C117.8,78.9,117.6,78.7,117.3,78.7z"/>
			</g>
		</g>
		<g id="Rounded_Rectangle_29_copy_3_9_">
			<g>
				<path class="st8" d="M100.9,82H73.2c-0.3,0-0.5,0.2-0.5,0.5V83c0,0.3,0.2,0.5,0.5,0.5h27.8c0.3,0,0.5-0.2,0.5-0.5v-0.5
					C101.5,82.2,101.2,82,100.9,82z"/>
			</g>
		</g>
		<g id="Rounded_Rectangle_29_copy_3_6_">
			<g>
				<path class="st8" d="M84.6,85.2H73.2c-0.3,0-0.5,0.2-0.5,0.5v0.5c0,0.3,0.2,0.5,0.5,0.5h11.4c0.3,0,0.5-0.2,0.5-0.5v-0.5
					C85.1,85.5,84.9,85.2,84.6,85.2z"/>
			</g>
		</g>
	</g>
	<g id="Rectangle_40">
		<g>
			<rect x="67.9" y="157.4" class="st10" width="63.2" height="2.2"/>
		</g>
	</g>
	<g id="Rectangle_41">
		<g>
			<polygon class="st11" points="120,139.7 80.1,139.7 76.8,157.4 123.3,157.4 			"/>
		</g>
	</g>
</g>
<g id="Paper_plane_1_">
</g>
<g id="logo_copy_xA0_Image_1_">
	<g>
		<path class="st8" d="M66.8,29.7V32h-3.7v10.6h-3V32h-3.7v-2.4H66.8L66.8,29.7z M76.4,29.7V32h-5.3v3h4.1v2.2h-4.1v3.1h5.3v2.3H68
			v-13H76.4L76.4,29.7z M102.7,36.2c0,0.9-0.2,1.8-0.5,2.6c-0.3,0.8-0.8,1.5-1.4,2.1c-0.6,0.6-1.3,1.1-2.1,1.4
			c-0.8,0.3-1.8,0.5-2.8,0.5c-1,0-1.9-0.2-2.8-0.5c-0.8-0.3-1.5-0.8-2.1-1.4c-0.6-0.6-1.1-1.3-1.4-2.1c-0.3-0.8-0.5-1.7-0.5-2.6
			c0-0.9,0.2-1.8,0.5-2.6c0.3-0.8,0.8-1.5,1.4-2.1c0.6-0.6,1.3-1.1,2.1-1.4c0.8-0.3,1.8-0.5,2.8-0.5c1,0,1.9,0.2,2.8,0.5
			c0.8,0.3,1.5,0.8,2.1,1.4c0.6,0.6,1,1.3,1.4,2.1C102.6,34.4,102.7,35.2,102.7,36.2L102.7,36.2z M99.6,36.2c0-0.6-0.1-1.2-0.3-1.7
			c-0.2-0.5-0.4-1-0.7-1.3c-0.3-0.4-0.7-0.6-1.2-0.8c-0.5-0.2-1-0.3-1.5-0.3c-0.6,0-1.1,0.1-1.6,0.3c-0.5,0.2-0.8,0.5-1.2,0.8
			c-0.3,0.4-0.6,0.8-0.7,1.3c-0.2,0.5-0.3,1.1-0.3,1.7c0,0.6,0.1,1.2,0.3,1.7c0.2,0.5,0.4,1,0.7,1.3c0.3,0.4,0.7,0.6,1.2,0.8
			c0.5,0.2,1,0.3,1.6,0.3c0.6,0,1.1-0.1,1.5-0.3c0.5-0.2,0.8-0.5,1.2-0.8c0.3-0.4,0.6-0.8,0.7-1.3C99.6,37.4,99.6,36.8,99.6,36.2
			L99.6,36.2z M105.8,29.7c0.1,0,0.2,0,0.3,0c0.1,0,0.2,0,0.2,0.1c0.1,0,0.1,0.1,0.2,0.1c0.1,0.1,0.1,0.1,0.2,0.2l6.2,7.8
			c0-0.3,0-0.5-0.1-0.7c0-0.2,0-0.5,0-0.7v-6.9h2.7v13H114c-0.2,0-0.4,0-0.6-0.1c-0.2-0.1-0.3-0.2-0.5-0.4l-6.1-7.8
			c0,0.2,0,0.4,0,0.7c0,0.2,0,0.4,0,0.6v7h-2.7v-13H105.8L105.8,29.7z M121,42.7h-3v-13h3V42.7L121,42.7z M130.7,32.3
			c-0.1,0.1-0.2,0.3-0.3,0.3c-0.1,0.1-0.2,0.1-0.4,0.1c-0.1,0-0.3,0-0.4-0.1c-0.2-0.1-0.3-0.2-0.5-0.3c-0.2-0.1-0.4-0.2-0.7-0.3
			c-0.3-0.1-0.5-0.1-0.9-0.1c-0.6,0-1,0.1-1.3,0.4c-0.3,0.2-0.4,0.6-0.4,1c0,0.3,0.1,0.5,0.3,0.7c0.2,0.2,0.4,0.3,0.7,0.4
			c0.3,0.1,0.6,0.2,0.9,0.3c0.3,0.1,0.7,0.2,1.1,0.3c0.4,0.1,0.7,0.3,1.1,0.5c0.3,0.2,0.7,0.4,0.9,0.7c0.3,0.3,0.5,0.6,0.7,1
			c0.2,0.4,0.3,0.8,0.3,1.4c0,0.6-0.1,1.2-0.3,1.7c-0.2,0.5-0.5,1-0.9,1.4c-0.4,0.4-0.9,0.7-1.5,0.9c-0.6,0.2-1.2,0.3-2,0.3
			c-0.4,0-0.8,0-1.2-0.1c-0.4-0.1-0.8-0.2-1.2-0.3c-0.4-0.1-0.8-0.3-1.1-0.5c-0.3-0.2-0.6-0.4-0.9-0.7l0.9-1.4
			c0.1-0.1,0.2-0.2,0.3-0.3c0.1-0.1,0.2-0.1,0.4-0.1c0.2,0,0.4,0.1,0.5,0.2c0.2,0.1,0.4,0.2,0.6,0.4c0.2,0.1,0.5,0.3,0.8,0.4
			c0.3,0.1,0.6,0.2,1.1,0.2c0.5,0,1-0.1,1.3-0.4c0.3-0.2,0.5-0.6,0.5-1.1c0-0.3-0.1-0.6-0.3-0.7c-0.2-0.2-0.4-0.3-0.7-0.5
			c-0.3-0.1-0.6-0.2-0.9-0.3c-0.3-0.1-0.7-0.2-1.1-0.3c-0.4-0.1-0.7-0.3-1.1-0.4c-0.3-0.2-0.7-0.4-0.9-0.7c-0.3-0.3-0.5-0.6-0.7-1
			c-0.2-0.4-0.3-0.9-0.3-1.5c0-0.5,0.1-1,0.3-1.4c0.2-0.5,0.5-0.9,0.9-1.2c0.4-0.4,0.8-0.7,1.4-0.9c0.6-0.2,1.2-0.3,1.9-0.3
			c0.4,0,0.8,0,1.2,0.1c0.4,0.1,0.7,0.2,1.1,0.3c0.3,0.1,0.7,0.3,1,0.4c0.3,0.2,0.6,0.4,0.8,0.6L130.7,32.3L130.7,32.3z M139.6,37.8
			v4.9h-3v-4.9l-4.7-8.2h2.7c0.3,0,0.5,0.1,0.6,0.2c0.2,0.1,0.3,0.3,0.4,0.5l1.8,3.9c0.1,0.3,0.3,0.6,0.4,0.9
			c0.1,0.3,0.2,0.5,0.3,0.8c0.1-0.3,0.2-0.5,0.3-0.8c0.1-0.3,0.3-0.5,0.4-0.8l1.8-3.9c0-0.1,0.1-0.2,0.1-0.2
			c0.1-0.1,0.1-0.2,0.2-0.2c0.1-0.1,0.2-0.1,0.3-0.2c0.1,0,0.2-0.1,0.3-0.1h2.7L139.6,37.8z"/>
		<g>
			<path class="st12" d="M83.9,29.5c1.8,0,3.5,0.7,4.7,2l-1.7,1.7c-0.8-0.8-1.9-1.3-3.1-1.3c-2.4,0-4.3,1.9-4.3,4.3
				c0,1.1,0.4,2.1,1.1,2.9c-0.3,0.4-0.7,0.8-1.2,1.1c0.4,0.1,0.8,0,1.2,0c0.3-0.1,0.6-0.2,0.9-0.3c0.7,0.4,1.5,0.7,2.3,0.7
				c1.2,0,2.3-0.5,3.1-1.3l1.7,1.7c-1.2,1.2-2.9,2-4.7,2c-3.7,0-6.7-3-6.7-6.7C77.2,32.5,80.2,29.5,83.9,29.5z"/>
			<path class="st12" d="M82.2,35.7h3.3c0.2,0,0.4,0.2,0.4,0.4l0,0c0,0.2-0.2,0.4-0.4,0.4h-3.3c-0.2,0-0.4-0.2-0.4-0.4l0,0
				C81.8,35.9,82,35.7,82.2,35.7L82.2,35.7z M82.2,34.1h3.3c0.2,0,0.4,0.2,0.4,0.4l0,0c0,0.2-0.2,0.4-0.4,0.4h-3.3
				c-0.2,0-0.4-0.2-0.4-0.4l0,0C81.8,34.3,82,34.1,82.2,34.1L82.2,34.1z M82.2,37.4h3.3c0.2,0,0.4,0.2,0.4,0.4l0,0
				c0,0.2-0.2,0.4-0.4,0.4h-3.3c-0.2,0-0.4-0.2-0.4-0.4l0,0C81.8,37.6,82,37.4,82.2,37.4z"/>
		</g>
	</g>
</g>
<g id="iphone_6_white_1_">
	<g id="Screen_xA0_Image_1_">
	</g>
	<g id="logo_xA0_Image_1_">
	</g>
	<g id="Group_1_1_">
		<g id="Ellipse_1_xA0_Image_1_">
		</g>
	</g>
	<g id="top_bar_1_">
		<g id="_x31_4:06_PM">
		</g>
	</g>
	<g id="Camera_4_">
	</g>
	<g id="Home_btn_3_">
	</g>
</g>
</svg>
