<?xml version="1.0" encoding="utf-8"?>
<!-- Generator: Adobe Illustrator 19.0.1, SVG Export Plug-In . SVG Version: 6.00 Build 0)  -->
<svg version="1.1" id="calculator" xmlns="http://www.w3.org/2000/svg" xmlns:xlink="http://www.w3.org/1999/xlink" x="0px" y="0px"
	 viewBox="0 0 220 220" style="enable-background:new 0 0 220 220;" xml:space="preserve">
<style type="text/css">
	.st0{display:none;}
	.st1{display:inline;}
	.st2{fill-rule:evenodd;clip-rule:evenodd;fill:#E1564B;}
	.st3{clip-path:url(#SVGID_2_);}
	.st4{fill-rule:evenodd;clip-rule:evenodd;fill:#ECF0F1;}
	.st5{opacity:0.2;clip-path:url(#SVGID_2_);}
	.st6{fill-rule:evenodd;clip-rule:evenodd;}
	.st7{fill-rule:evenodd;clip-rule:evenodd;fill:#284259;}
	.st8{fill-rule:evenodd;clip-rule:evenodd;fill:#D48600;}
	.st9{fill-rule:evenodd;clip-rule:evenodd;fill:#F39A00;}
	.st10{fill-rule:evenodd;clip-rule:evenodd;fill:#45853D;}
	.st11{fill-rule:evenodd;clip-rule:evenodd;fill:#83CA28;}
	.st12{fill-rule:evenodd;clip-rule:evenodd;fill:#FFFFFF;}
	.st13{fill:#ECF0F1;}
</style>
<g id="Ellipse_48_copy_2" class="st0">
	<g class="st1">
		<circle class="st2" cx="110" cy="110" r="110"/>
	</g>
</g>
<path class="st2" d="M184.7,190.8c21.7-20.1,35.3-48.8,35.3-80.8C220,49.2,170.8,0,110,0C49.2,0,0,49.2,0,110
	c0,31.9,13.6,60.7,35.3,80.8H184.7z"/>
<g>
	<defs>
		<circle id="SVGID_1_" cx="110" cy="110" r="110"/>
	</defs>
	<clipPath id="SVGID_2_">
		<use xlink:href="#SVGID_1_"  style="overflow:visible;"/>
	</clipPath>
	<g id="body" class="st3">
		<g>
			<path class="st4" d="M178.4,49H41.6C38,49,35,52,35,55.6v157.8c0,3.6,3,6.6,6.6,6.6h136.7c3.7,0,6.6-3,6.6-6.6V55.6
				C185,52,182,49,178.4,49z"/>
		</g>
	</g>
	<g id="Rectangle_118" class="st5">
		<g>
			<polygon class="st6" points="185,54 185,205 217.8,165.3 			"/>
		</g>
	</g>
</g>
<g id="Rounded_Rectangle_33">
	<g>
		<path class="st7" d="M168,64H53c-1.1,0-2,0.9-2,2v36c0,1.1,0.9,2,2,2h115c1.1,0,2-0.9,2-2V66C170,64.9,169.1,64,168,64z"/>
	</g>
</g>
<g id="Rounded_Rectangle_31">
	<g>
		<path class="st8" d="M81,119H56c-2.8,0-5,2.2-5,5v25c0,2.8,2.2,5,5,5h25c2.8,0,5-2.2,5-5v-25C86,121.2,83.8,119,81,119z"/>
	</g>
</g>
<g id="Rounded_Rectangle_31_copy">
	<g>
		<path class="st8" d="M121,119H96c-2.8,0-5,2.2-5,5v25c0,2.8,2.2,5,5,5h25c2.8,0,5-2.2,5-5v-25C126,121.2,123.8,119,121,119z"/>
	</g>
</g>
<g id="Rounded_Rectangle_31_copy_6">
	<g>
		<path class="st9" d="M81,117H56c-2.8,0-5,2.2-5,5v25c0,2.8,2.2,5,5,5h25c2.8,0,5-2.2,5-5v-25C86,119.2,83.8,117,81,117z"/>
	</g>
</g>
<g id="Rounded_Rectangle_31_copy_6_1_">
	<g>
		<path class="st9" d="M121,117H96c-2.8,0-5,2.2-5,5v25c0,2.8,2.2,5,5,5h25c2.8,0,5-2.2,5-5v-25C126,119.2,123.8,117,121,117z"/>
	</g>
</g>
<g id="Rounded_Rectangle_31_copy_3">
	<g>
		<path class="st10" d="M165,119h-25c-2.8,0-5,2.2-5,5v66c0,2.8,2.2,5,5,5h25c2.8,0,5-2.2,5-5v-66C170,121.2,167.8,119,165,119z"/>
	</g>
</g>
<g id="Rounded_Rectangle_31_copy_4">
	<g>
		<path class="st11" d="M165,117h-25c-2.8,0-5,2.2-5,5v66c0,2.8,2.2,5,5,5h25c2.8,0,5-2.2,5-5v-66C170,119.2,167.8,117,165,117z"/>
	</g>
</g>
<g id="Rounded_Rectangle_31_copy_2">
	<g>
		<path class="st8" d="M81,160H56c-2.8,0-5,2.2-5,5v25c0,2.8,2.2,5,5,5h25c2.8,0,5-2.2,5-5v-25C86,162.2,83.8,160,81,160z"/>
	</g>
</g>
<g id="Rounded_Rectangle_31_copy_2_1_">
	<g>
		<path class="st8" d="M121,160H96c-2.8,0-5,2.2-5,5v25c0,2.8,2.2,5,5,5h25c2.8,0,5-2.2,5-5v-25C126,162.2,123.8,160,121,160z"/>
	</g>
</g>
<g id="Rounded_Rectangle_31_copy_5">
	<g>
		<path class="st9" d="M81,158H56c-2.8,0-5,2.2-5,5v25c0,2.8,2.2,5,5,5h25c2.8,0,5-2.2,5-5v-25C86,160.2,83.8,158,81,158z"/>
	</g>
</g>
<g id="Rounded_Rectangle_31_copy_5_1_">
	<g>
		<path class="st9" d="M121,158H96c-2.8,0-5,2.2-5,5v25c0,2.8,2.2,5,5,5h25c2.8,0,5-2.2,5-5v-25C126,160.2,123.8,158,121,158z"/>
	</g>
</g>
<g id="Ellipse_100_copy">
	<g>
		<path class="st12" d="M102,174v3h13v-3H102z M108.5,172c1.4,0,2.5-1.1,2.5-2.5c0-1.4-1.1-2.5-2.5-2.5s-2.5,1.1-2.5,2.5
			C106,170.9,107.1,172,108.5,172z M108.5,179c-1.4,0-2.5,1.1-2.5,2.5s1.1,2.5,2.5,2.5s2.5-1.1,2.5-2.5S109.9,179,108.5,179z"/>
	</g>
</g>
<g id="Rectangle_117_copy">
	<g>
		<path class="st12" d="M146,148v4h13v-4H146z M146,158h13v-4h-13V158z"/>
	</g>
</g>
<g id="Rectangle_117_copy_2">
	<g>
		<polygon class="st12" points="75,133 70,133 70,128 67,128 67,133 62,133 62,136 67,136 67,141 70,141 70,136 75,136 		"/>
	</g>
</g>
<g id="Rectangle_117_copy_3">
	<g>
		<polygon class="st12" points="74.2,172 72,169.8 68.5,173.4 65,169.8 62.8,172 66.4,175.5 62.8,179 65,181.2 68.5,177.6 72,181.2 
			74.2,179 70.6,175.5 		"/>
	</g>
</g>
<g id="Rectangle_117">
	<g>
		<rect x="102" y="133" class="st12" width="13" height="3"/>
	</g>
</g>
<g id="xx_x2B_yy">
	<g>
		<path class="st13" d="M110.4,90.9h-2.7l-3.6-5.8l-3.6,5.8H98l4.7-7.4l-4.4-6.9h2.6l3.3,5.4l3.3-5.4h2.5l-4.5,6.9L110.4,90.9z"/>
		<path class="st13" d="M122.8,90.9h-2.7l-3.6-5.8l-3.6,5.8h-2.5l4.7-7.4l-4.4-6.9h2.6l3.3,5.4l3.3-5.4h2.5l-4.5,6.9L122.8,90.9z"/>
		<path class="st13" d="M127.7,84.8h-3.9V83h3.9v-4h1.8v4h3.9v1.7h-3.9v4h-1.8V84.8z"/>
		<path class="st13" d="M140.2,83.2l3.4-6.5h2.5l-4.8,8.7v5.5H139v-5.5l-4.7-8.8h2.5L140.2,83.2z"/>
		<path class="st13" d="M152.1,83.2l3.4-6.5h2.5l-4.8,8.7v5.5h-2.3v-5.5l-4.7-8.8h2.5L152.1,83.2z"/>
	</g>
</g>
</svg>
