<?xml version="1.0" encoding="utf-8"?>
<!-- Generator: Adobe Illustrator 19.0.1, SVG Export Plug-In . SVG Version: 6.00 Build 0)  -->
<svg version="1.1" id="Layer_1" xmlns="http://www.w3.org/2000/svg" xmlns:xlink="http://www.w3.org/1999/xlink" x="0px" y="0px"
	 viewBox="0 0 187.5 242" style="enable-background:new 0 0 187.5 242;" xml:space="preserve">
<style type="text/css">
	.st0{fill-rule:evenodd;clip-rule:evenodd;fill:#E7B493;}
	.st1{fill-rule:evenodd;clip-rule:evenodd;fill:#F39A00;}
	.st2{fill-rule:evenodd;clip-rule:evenodd;fill:#9FA1A2;}
	.st3{fill-rule:evenodd;clip-rule:evenodd;fill:#75594B;}
	.st4{fill-rule:evenodd;clip-rule:evenodd;fill:#DDDDDD;}
	.st5{fill-rule:evenodd;clip-rule:evenodd;fill:#FEC4A0;}
	.st6{fill-rule:evenodd;clip-rule:evenodd;fill:#B18970;}
	.st7{opacity:0.2;fill-rule:evenodd;clip-rule:evenodd;fill:#B18970;}
	.st8{fill-rule:evenodd;clip-rule:evenodd;fill:#673929;}
	.st9{fill-rule:evenodd;clip-rule:evenodd;fill:#F1F6F9;}
	.st10{fill-rule:evenodd;clip-rule:evenodd;fill:#C5BCBA;}
	.st11{fill-rule:evenodd;clip-rule:evenodd;fill:#E7ABA8;}
	.st12{opacity:0.302;fill-rule:evenodd;clip-rule:evenodd;fill:#7F5230;}
	.st13{fill-rule:evenodd;clip-rule:evenodd;fill:#FFFFFF;}
	.st14{fill-rule:evenodd;clip-rule:evenodd;fill:#7C9AAC;}
	.st15{fill-rule:evenodd;clip-rule:evenodd;fill:#284259;}
	.st16{fill-rule:evenodd;clip-rule:evenodd;fill:#DFAD8D;}
	.st17{fill-rule:evenodd;clip-rule:evenodd;fill:#DFAC8D;}
	.st18{fill-rule:evenodd;clip-rule:evenodd;fill:#DBAB9D;}
	.st19{fill-rule:evenodd;clip-rule:evenodd;fill:#F39C12;}
	.st20{fill-rule:evenodd;clip-rule:evenodd;fill:#D7701E;}
	.st21{fill-rule:evenodd;clip-rule:evenodd;fill:#B2B3B3;}
	.st22{fill-rule:evenodd;clip-rule:evenodd;fill:#ECF0F1;}
</style>
<rect x="104.7" y="123.9" class="st0" width="39.1" height="15.6"/>
<path class="st1" d="M107.3,126.5c0,0-4.7,4,0,7.5c0,0,9.7,7.9,28.3,3c0,0,12-4.7,6.3-8.9l34.6,18.6c0,0,2.1-1.4,5.5,21.6l5.5,26.1
	l-22,6.7h-1.6l0.1,35.5l-84-0.8l-0.2-39.2c0,0-25.2-6.1-25.1-8.9c0,0,7.3-15.7,7.1-24.6l2.4-9.7c0,0,2.8-11.7,14.9-14.9L107.3,126.5
	z"/>
<path class="st2" d="M181.3,240.5H62.5c-1.7,0-3.1-1.4-3.1-3.1c0-1.7,1.4-3.1,3.1-3.1h118.8c1.7,0,3.1,1.4,3.1,3.1
	C184.4,239.1,183,240.5,181.3,240.5L181.3,240.5z M43,242H14.8c-1.3,0-2.3-1-2.3-2.3c0-1.3,1-2.3,2.3-2.3H43c1.3,0,2.3,1,2.3,2.3
	C45.3,241,44.3,242,43,242z"/>
<path class="st3" d="M44.1,189.4H12.1c-1.4,0-2.5,0.6-2.5,1.3c0,0.7,1.1,1.3,2.5,1.3h31.9c1.4,0,2.5-0.6,2.5-1.3
	C46.6,190,45.4,189.4,44.1,189.4z"/>
<path class="st4" d="M46.9,190.5c0,0-18.7,2.5-37.6,0l5.3,48.9c0,0,22.2,2.7,28-0.5L46.9,190.5z"/>
<path class="st4" d="M11.9,203.3l-1.1-4.8c0,0-15.2,0.8-9.6,18.3c0,0.1,0.1,0.2,0.1,0.3c0,0,3.2,9.1,13.2,8.5l-1.1-5.3
	c0,0-7,0.1-8.5-8C5,212.3,3.2,204.3,11.9,203.3z"/>
<path class="st5" d="M91.8,30c0,0-36.3,6.6-17.1,52.9c0,0-10.8,3.9-6.4,16.8c0,0,5.8,8.7,12.8,4.3c0,0,16.7,25.3,41.9,27.2
	c0,0,26.4,0.8,43-32.5c0,0,15,2.8,13.5-12.5c0,0-1.3-9.7-10.3-7.1c0,0,14-46.4-25.2-61.1C144,17.9,101.8,1.8,91.8,30z"/>
<path class="st6" d="M75.8,80.4c0,0-16.3-22.9,1.4-45l13.9-7.9l18.5-15.7l42.6,8.6l17.4,27.2c0,0,4.4,13.7-0.7,28.9
	c0,0,0.4-10-1.1-10c0,0-1.9,3.3-7.8,3.6c0,0-10.8-1.3-24.9-20c0,0,6.8,13.9,14.2,21.4c0,0-34.1-1.4-55.1-26.4c0,0-0.6-2.2-2.8-0.4
	C91.4,44.7,78.1,48.9,75.8,80.4z"/>
<path class="st7" d="M96.8,58.3c0,0-6.9,2.8-7.8,4.6c0,0-0.8,1.4,2.8,1.1c0,0,14.2-2,15.6-3.6c0,0,3.2-2.5-2.1-2.9
	C105.3,57.5,100.6,57.1,96.8,58.3z"/>
<path class="st7" d="M145.4,55.8c0,0,6.9,2.8,7.8,4.6c0,0,0.8,1.4-2.8,1.1c0,0-14.2-2-15.6-3.6c0,0-3.2-2.5,2.1-2.9
	C136.9,55,141.6,54.6,145.4,55.8z"/>
<path class="st6" d="M96.8,56.8c0,0-6.9,2.8-7.8,4.6c0,0-0.8,1.4,2.8,1.1c0,0,14.2-2,15.6-3.6c0,0,3.2-2.5-2.1-2.9
	C105.3,56.1,100.6,55.7,96.8,56.8z"/>
<path class="st6" d="M145.4,54.3c0,0,6.9,2.8,7.8,4.6c0,0,0.8,1.4-2.8,1.1c0,0-14.2-2-15.6-3.6c0,0-3.2-2.5,2.1-2.9
	C136.9,53.6,141.6,53.2,145.4,54.3z"/>
<path class="st8" d="M108.8,105.8c0,0,16.3,6.6,33-0.7c0,0,1.2-0.4,0.7,1.1c0,0-4.1,14.5-21,13.6c0,0-9.8,0.9-12.8-12.2
	C108.8,107.6,108.1,106.1,108.8,105.8z"/>
<path class="st9" d="M118.9,107.9c0,0-5.6-0.9-8.2-1.4c0.5,1.9,3,7.2,16.2,6.5c0,0,12.8-0.4,13.8-7.5c0-0.1-5.2,1.5-5.2,1.3
	C123.5,108.9,118.9,107.9,118.9,107.9z"/>
<path class="st9" d="M115.9,117.8c2.4-1,5.9-1.6,11-1.3c0,0,2.7,0.1,5.8,0.9c-3,1.1-5.8,1.8-7.3,2
	C123,119.4,118.2,119.1,115.9,117.8z"/>
<polygon class="st10" points="114.9,109 114.9,110.8 115.2,111.5 115.2,108.7 "/>
<polygon class="st10" points="118.8,110.1 118.8,111.9 119.1,112.6 119.1,109.7 "/>
<polygon class="st10" points="123,110.8 123,112.6 123.4,113.3 123.4,110.4 "/>
<polygon class="st10" points="127.3,110.8 127.3,112.6 127.7,113.3 127.7,110.4 "/>
<polygon class="st10" points="131.2,110.1 131.2,111.9 131.6,112.6 131.6,109.7 "/>
<polygon class="st10" points="135.5,108.7 135.5,110.4 135.8,111.2 135.8,108.3 "/>
<path class="st11" d="M124.3,118.7c8.2,0,15.3-5.3,18.4-12.8c0,0.2,0,0.4-0.1,0.6c0,0-4.1,14.5-21,13.6c0,0-7.1,0.7-11.1-7.2
	C114.1,116.5,119,118.7,124.3,118.7z"/>
<ellipse class="st12" cx="103.1" cy="75.2" rx="10.7" ry="9.8"/>
<ellipse class="st13" cx="103" cy="75.1" rx="10.1" ry="9.3"/>
<path class="st14" d="M108.8,75c0-3.3-2.7-6-6-6c-3.3,0-6,2.7-6,6c0,3.3,2.7,6,6,6C106.1,81,108.8,78.3,108.8,75z"/>
<ellipse class="st15" cx="102.8" cy="75.2" rx="3.6" ry="3.4"/>
<ellipse class="st13" cx="100.7" cy="77.6" rx="1.1" ry="1.1"/>
<ellipse class="st13" cx="105.1" cy="72.6" rx="2" ry="1.4"/>
<ellipse class="st12" cx="145.1" cy="75.2" rx="10.7" ry="9.8"/>
<path class="st16" d="M78.3,93.6c0,0-3.1-4.2-4.9-0.7c0,0-0.5,0-0.2-0.5c0,0,0.8-2.2,3.4-1c0,0-2.5-3.9-5.4,0.2c0,0-0.7,0.2-0.2-0.7
	c0,0,1.9-3.3,4.6-1.2C75.6,89.7,77.1,90.9,78.3,93.6z"/>
<path class="st16" d="M168.9,89c0,0,3.1-4.2,4.9-0.7c0,0,0.5,0,0.2-0.5c0,0-0.8-2.2-3.4-1c0,0,2.5-3.9,5.4,0.2c0,0,0.7,0.2,0.2-0.7
	c0,0-1.9-3.3-4.6-1.2C171.6,85,170.1,86.2,168.9,89z"/>
<path class="st16" d="M166.5,95.1l2.9,0.3c0,0,4,1.1,6.2-3.9c0,0,1-0.8,0.7,0.5c0,0-1.3,3.5-5.1,3.8
	C171.2,95.7,169.3,95.9,166.5,95.1z"/>
<path class="st16" d="M80.2,99.7l-2.9,0.3c0,0-4,1.1-6.2-3.9c0,0-1-0.8-0.7,0.5c0,0,1.3,3.5,5.1,3.8
	C75.6,100.4,77.5,100.5,80.2,99.7z"/>
<ellipse class="st13" cx="144.9" cy="75.1" rx="10.1" ry="9.3"/>
<ellipse class="st14" cx="144.7" cy="75.1" rx="5.7" ry="5.4"/>
<path class="st15" d="M148.5,75c0-2.1-1.7-3.8-3.8-3.8c-2.1,0-3.7,1.7-3.7,3.8s1.7,3.7,3.7,3.7C146.8,78.8,148.5,77.1,148.5,75z"/>
<circle class="st13" cx="142.5" cy="77.3" r="1.5"/>
<ellipse class="st13" cx="147" cy="72.6" rx="2" ry="1.4"/>
<path class="st15" d="M170.9,75.2c-3.1,16.7-19.3,17.2-19.3,17.2c-16.9,2.1-21.3-12.2-21.3-12.2c-3.6-8.4-7.1-8.1-7.1-8.1
	s-3.8-0.4-7.1,8.1c0,0-4.4,14.2-21.3,12.2c0,0-16.2-0.5-19.3-17.2c0,0-0.4-5.9-4.1-6.1V64c0,0,15.9-3.2,27.8-1.1
	c0.2,0,0.4,0.1,0.6,0.1c12,2.3,14.1,3.4,23.3,3c9.2,0.4,11.4-0.8,23.3-3c0.2,0,0.4-0.1,0.6-0.1c11.9-2,27.8,1.1,27.8,1.1v5.1
	C171.2,69.3,170.9,75.2,170.9,75.2L170.9,75.2z M113.1,70.1c0,0-6.1-4.8-18.2-5.1c0,0-12.3-1.1-15.2,3c0,0-3.6,9.7,3,16.2
	c0,0,11.6,11,24.3,3C107,87.3,118.5,79.7,113.1,70.1L113.1,70.1z M166.8,68.1c-2.9-4.1-15.2-3-15.2-3c-12.1,0.2-18.2,5.1-18.2,5.1
	c-5.4,9.6,6.1,17.2,6.1,17.2c12.8,8,24.3-3,24.3-3C170.4,77.8,166.8,68.1,166.8,68.1z"/>
<path class="st3" d="M101.7,9.2c0,0-38.1-10.1-37.6,40.7c0,0,3.6,24.6,11.3,31.2c0,0,0.5-32.1,17.9-39c0,0,23.8,25.3,56.5,27.7
	l-15.1-22.5c0,0,15,17.8,23.5,20.8c0,0,1.8,3.4,10.4-3.5c0,0,2.2,6.5,0.9,14.7c0,0,32.7-47.5-19.8-74.5
	C149.7,4.9,119.5-8.6,101.7,9.2z"/>
<path class="st17" d="M117.5,97.5c0,0-2.9,0.6-0.8,2.2c0,0,1.3,0.8,2.3,0c0,0,1.2-1.2,3.1,1.5c0,0,2,2.4,4.6,0c0,0,2.2-2.6,3.1-2.2
	c0,0,1.7,1.5,3.1,0c0,0,1.1-1.7-2.3-1.5c0,0-1.5,0.3-2.3,1.5c0,0-1.9,2-3.8,1.5c0,0-2.3-0.1-3.1-1.5C121.3,99,119.2,96.4,117.5,97.5
	z"/>
<path class="st16" d="M117,122.2c0,0,6.1,7.2,14.9,0C131.9,122.2,124.3,127.3,117,122.2z"/>
<path class="st18" d="M108.5,105.8c0,0,6.6,3,16.3,2.9c0,0,13.9-1.1,17.1-3.6c0,0-14,3.1-19.5,2.7
	C120.4,107.8,112,106.8,108.5,105.8z"/>
<path class="st4" d="M67.5,150.3h109c3.4,0,6.2,2.8,6.2,6.3v75.2c0,3.5-2.8,6.3-6.2,6.3h-109c-3.4,0-6.2-2.8-6.2-6.3v-75.2
	C61.3,153.1,64.1,150.3,67.5,150.3z"/>
<g>
	<path class="st19" d="M122.6,171.9c5.9,0,11.1,2.4,15,6.2l-15,15l15,15c-3.8,3.8-9.1,6.2-15,6.2c-11.7,0-21.2-9.5-21.2-21.2
		S110.9,171.9,122.6,171.9z"/>
	<path class="st20" d="M124,194.5l-1.4-1.4l1.4-1.4l2.5-2.5l2.4-2.4l3.4-3.4c-2.4-1.9-5.4-3.1-8.7-3.1c-7.6,0-13.7,6.1-13.7,13.7
		c0,3.5,1.3,6.7,3.4,9.1c-1,1.4-3.2,1.6-4.7,2.5c2.8,0.5,4.4,0.4,7.1-0.3c2,1.4,5.2,2.5,7.9,2.5c4.2,0,7.6-1.5,9.9-3.9l-1.2-1.2
		l-3.5-3.5l-2.4-2.4L124,194.5z"/>
	<path class="st21" d="M123.5,180.4c7.6,0,13.8,6.2,13.8,13.7c0,3.9-1.4,7.3-3.9,9.8l-19.6-19.6
		C116.3,181.9,119.7,180.4,123.5,180.4z"/>
	<path class="st22" d="M122.6,179.4c7.6,0,13.7,6.1,13.7,13.7c0,7.6-6.1,13.7-13.7,13.7c-2.7,0-5.2-0.8-7.4-2.1
		c-0.9,0.4-1.8,0.7-2.7,0.9c-1.3,0.3-2.7,0.3-3.9,0.1c1.5-0.9,2.8-2.1,3.8-3.5c-2.1-2.4-3.4-5.6-3.4-9.1
		C108.9,185.5,115,179.4,122.6,179.4z"/>
	<path class="st19" d="M117.3,191.7h10.5c0.8,0,1.4,0.6,1.4,1.4l0,0c0,0.8-0.6,1.4-1.4,1.4h-10.5c-0.8,0-1.4-0.6-1.4-1.4l0,0
		C115.9,192.4,116.6,191.7,117.3,191.7L117.3,191.7z M117.3,186.5h10.5c0.8,0,1.4,0.6,1.4,1.4l0,0c0,0.8-0.6,1.4-1.4,1.4h-10.5
		c-0.8,0-1.4-0.6-1.4-1.4l0,0C115.9,187.1,116.6,186.5,117.3,186.5L117.3,186.5z M117.3,197h10.5c0.8,0,1.4,0.6,1.4,1.4l0,0
		c0,0.8-0.6,1.4-1.4,1.4h-10.5c-0.8,0-1.4-0.6-1.4-1.4l0,0C115.9,197.6,116.6,197,117.3,197z"/>
</g>
</svg>
