<?xml version="1.0" encoding="utf-8"?>
<!-- Generator: Adobe Illustrator 19.0.1, SVG Export Plug-In . SVG Version: 6.00 Build 0)  -->
<svg version="1.1" id="Layer_1" xmlns="http://www.w3.org/2000/svg" xmlns:xlink="http://www.w3.org/1999/xlink" x="0px" y="0px"
	 viewBox="-47 170.9 414.9 441.2" style="enable-background:new -47 170.9 414.9 441.2;" xml:space="preserve">
<style type="text/css">
	.st0{fill:#0E1F7F;}
</style>
<path class="st0" d="M16.6,349.7c0-62,34.2-122.4,102.5-122.4c69.2,0,104.1,58.8,104.1,122.4c0,62.8-31,122.4-104.1,122.4
	C47.6,472.2,16.6,411,16.6,349.7L16.6,349.7z M-47,349.7c0,105.7,60.4,179.7,166.1,179.7c106.5,0,167.7-73.9,167.7-179.7
	c0-102.5-62-178.9-167.7-178.9C14.2,170.9-47,247.2-47,349.7L-47,349.7z"/>
<path class="st0" d="M271.8,612.1v-24.6c12.7-11.9,62-53.3,62-79.5c0-13.5-11.9-19.9-23.1-19.9c-12.7,0-24.6,5.6-34.2,11.9
	l-2.4-24.6c13.5-6.4,28.6-10.3,43.7-10.3c27,0,44.5,14.3,44.5,42.9c0,30.2-31,58.8-54.1,81.1h59.6v23.1H271.8L271.8,612.1z"/>
</svg>
