<?xml version="1.0" encoding="utf-8"?>
<!-- Generator: Adobe Illustrator 19.0.1, SVG Export Plug-In . SVG Version: 6.00 Build 0)  -->
<svg version="1.1" id="Layer_1" xmlns="http://www.w3.org/2000/svg" xmlns:xlink="http://www.w3.org/1999/xlink" x="0px" y="0px"
	 viewBox="0 0 135 135" style="enable-background:new 0 0 135 135;" xml:space="preserve">
<style type="text/css">
	.st0{fill-rule:evenodd;clip-rule:evenodd;fill:#83CA28;}
	.st1{fill-rule:evenodd;clip-rule:evenodd;fill:#EDF1F2;}
	.st2{opacity:0.902;fill-rule:evenodd;clip-rule:evenodd;fill:#284259;}
	.st3{fill-rule:evenodd;clip-rule:evenodd;fill:#D9DFE1;}
	.st4{display:none;fill-rule:evenodd;clip-rule:evenodd;fill:#D9DFE1;}
	.st5{display:none;fill-rule:evenodd;clip-rule:evenodd;fill:#FFFFFF;}
	.st6{display:none;}
	.st7{display:inline;}
	.st8{fill:#F29A00;}
	.st9{fill:#FFFFFF;}
	.st10{opacity:0.35;}
	.st11{fill-rule:evenodd;clip-rule:evenodd;fill:#EDF1F2;stroke:#F29A00;stroke-miterlimit:10;}
	.st12{fill-rule:evenodd;clip-rule:evenodd;fill:#F29A00;}
	.st13{fill-rule:evenodd;clip-rule:evenodd;fill:#D66C00;}
	.st14{fill-rule:evenodd;clip-rule:evenodd;fill:#B0B1B2;}
	.st15{fill-rule:evenodd;clip-rule:evenodd;fill:#EEF2F2;}
</style>
<g>
	<path class="st0" d="M135,67.5C135,30.3,104.7,0,67.5,0C30.3,0,0,30.3,0,67.5C0,104.7,30.3,135,67.5,135
		C104.7,135,135,104.7,135,67.5z"/>
	<path class="st1" d="M24.3,15.7v90.1l5.4-4l5.4,4l5.4-4l5.4,4l5.4-4l5.4,4l5.4-4l5.4,4l5.4-4l5.4,4l5.4-4l5.4,4l5.4-4l5.4,4l5.4-4
		l5.4,4V15.6C99,5.9,83.9,0,67.5,0c-0.5,0-0.9,0-1.4,0C50.3,0.4,35.7,6.2,24.3,15.7z"/>
	<path class="st2" d="M94.5,13.7V5.6c0.9,0.4,1.8,0.8,2.7,1.3v6.8H94.5L94.5,13.7z M91.8,4.5v9.2h-2.7V3.5C90,3.8,90.9,4.2,91.8,4.5
		L91.8,4.5z M86.4,2.7v11h-2.7V2C84.6,2.2,85.5,2.4,86.4,2.7L86.4,2.7z M81,1.4v12.4h-2.7V0.9C79.2,1,80.1,1.2,81,1.4L81,1.4z
		 M75.6,0.5v13.2h-5.4V0.1C72,0.1,73.8,0.3,75.6,0.5L75.6,0.5z M67.5,0v13.7h-2.7V0.1c0.5,0,1.1,0,1.6-0.1l0,0C66.8,0,67.2,0,67.5,0
		L67.5,0z M62.1,0.2v13.5h-4v-13C59.4,0.5,60.7,0.4,62.1,0.2L62.1,0.2z M55.4,1.1v12.6h-2.7v-12C53.5,1.5,54.4,1.3,55.4,1.1
		L55.4,1.1z M50,2.4v11.3h-5.4V4.1C46.3,3.4,48.1,2.9,50,2.4L50,2.4z M41.9,5.1v8.6h-4V7C39.1,6.3,40.5,5.7,41.9,5.1z"/>
	<rect x="37.8" y="63.5" class="st3" width="59.4" height="2.7"/>
	<path class="st3" d="M91.8,51.4V46h5.4v5.4H91.8L91.8,51.4z M91.8,35.2h5.4v5.4h-5.4V35.2L91.8,35.2z M91.8,24.5h5.4v5.4h-5.4V24.5
		L91.8,24.5z M37.8,24.5h48.6v5.4H37.8V24.5L37.8,24.5z M75.6,40.6H37.8v-5.4h37.8V40.6L75.6,40.6z M83.7,51.4H37.8V46h45.9V51.4z"
		/>
</g>
<polygon class="st4" points="86.4,56.6 87.7,58.9 89.4,56.8 90.3,59.3 92.3,57.5 92.9,60.1 95.1,58.7 95.2,61.4 97.7,60.3 
	97.4,62.9 100,62.2 99.3,64.8 101.9,64.5 100.9,67 103.5,67.1 102.1,69.3 104.7,69.9 102.9,71.9 105.4,72.8 103.3,74.5 105.6,75.8 
	103.3,77.2 105.4,78.9 102.9,79.8 104.7,81.8 102.1,82.3 103.5,84.6 100.9,84.7 101.9,87.2 99.3,86.9 100,89.5 97.4,88.8 97.7,91.4 
	95.2,90.3 95.1,93 92.9,91.5 92.3,94.1 90.3,92.4 89.4,94.9 87.7,92.8 86.4,95.1 85,92.8 83.4,94.9 82.4,92.4 80.4,94.1 79.9,91.5 
	77.6,93 77.5,90.3 75.1,91.4 75.3,88.8 72.8,89.5 73.5,86.9 70.8,87.2 71.9,84.7 69.2,84.6 70.7,82.3 68.1,81.8 69.9,79.8 
	67.4,78.9 69.4,77.2 67.1,75.8 69.4,74.5 67.4,72.8 69.9,71.9 68.1,69.9 70.7,69.3 69.2,67.1 71.9,67 70.8,64.5 73.5,64.8 
	72.8,62.2 75.3,62.9 75.1,60.3 77.5,61.4 77.6,58.7 79.9,60.1 80.4,57.5 82.4,59.3 83.4,56.8 85,58.9 "/>
<polygon class="st5" points="86,56 87.4,58.3 89,56.2 90,58.7 92,56.9 92.5,59.6 94.8,58.1 94.9,60.8 97.3,59.7 97.1,62.3 
	99.6,61.6 98.9,64.2 101.6,63.9 100.5,66.4 103.2,66.5 101.7,68.7 104.3,69.3 102.5,71.3 105,72.2 103,73.9 105.3,75.2 103,76.6 
	105,78.3 102.5,79.2 104.3,81.2 101.7,81.7 103.2,84 100.5,84.1 101.6,86.6 98.9,86.3 99.6,88.9 97.1,88.2 97.3,90.8 94.9,89.7 
	94.8,92.4 92.5,90.9 92,93.6 90,91.8 89,94.3 87.4,92.2 86,94.5 84.7,92.2 83,94.3 82.1,91.8 80.1,93.6 79.5,90.9 77.3,92.4 
	77.2,89.7 74.7,90.8 75,88.2 72.4,88.9 73.1,86.3 70.5,86.6 71.5,84.1 68.9,84 70.3,81.7 67.7,81.2 69.5,79.2 67,78.3 69.1,76.6 
	66.8,75.2 69.1,73.9 67,72.2 69.5,71.3 67.7,69.3 70.3,68.7 68.9,66.5 71.5,66.4 70.5,63.9 73.1,64.2 72.4,61.6 75,62.3 74.7,59.7 
	77.2,60.8 77.3,58.1 79.5,59.6 80.1,56.9 82.1,58.7 83,56.2 84.7,58.3 "/>
<g class="st6">
	<g id="XMLID_1_" class="st7">
		<g>
			<path class="st8" d="M119,65.1c0.6,1.5-0.1,3.1-0.8,4.5c-0.5,1-0.9,1.9-0.9,2.8c0,0.9,0.5,1.9,0.9,2.9c0.7,1.4,1.4,3.1,0.8,4.7
				c-0.4,1.6-1.9,2.4-3.3,3.2c-1,0.5-1.9,1-2.4,1.7c-0.5,0.7-0.7,1.8-1,2.9c-0.3,1.6-0.7,3.3-2.2,4.3c-0.6,0.5-1.5,0.8-2.6,0.8
				c-0.6,0-1.3-0.1-1.9-0.2c-1.1-0.1-2.2-0.2-3,0c-0.9,0.3-1.7,1-2.5,1.8c-1.2,1.1-2.4,2.2-4,2.2l-0.2,0c0,0-0.1,0-0.2,0
				c-1.6,0-2.8-1.1-3.9-2.2c-0.8-0.8-1.6-1.5-2.4-1.7c-0.8-0.2-1.9-0.2-3.1,0c-0.7,0.1-1.3,0.2-1.9,0.2c-1.2,0-2.1-0.3-2.8-0.9
				c-1.4-0.8-1.7-2.6-2-4.1c-0.2-1.1-0.4-2.1-0.9-2.8c-0.5-0.7-1.5-1.2-2.5-1.8c-1.5-0.8-3-1.7-3.4-3.4c-0.6-1.5,0.1-3.1,0.8-4.5
				c0.5-1,0.9-1.9,0.9-2.8c0-0.9-0.5-1.9-0.9-2.9c-0.7-1.4-1.4-3.1-0.8-4.7c0.4-1.6,1.9-2.4,3.3-3.2c1-0.5,1.9-1,2.4-1.7
				c0.5-0.7,0.7-1.8,1-2.9c0.3-1.6,0.7-3.3,2.2-4.3c0.6-0.5,1.5-0.8,2.6-0.8c0.6,0,1.3,0.1,1.9,0.2c1.1,0.1,2.2,0.2,3,0
				c0.9-0.3,1.7-1,2.5-1.8c1.2-1.1,2.4-2.2,4-2.2l0.2,0c0,0,0.1,0,0.2,0c1.6,0,2.8,1.1,3.9,2.2c0.8,0.7,1.6,1.5,2.4,1.7
				c0.8,0.2,1.9,0.2,3.1,0c0.7-0.1,1.3-0.2,1.9-0.2c1.2,0,2.1,0.3,2.8,0.9c1.4,0.8,1.7,2.6,2,4.1c0.2,1.1,0.4,2.1,0.9,2.8
				c0.5,0.7,1.5,1.2,2.5,1.8C117.1,62.5,118.6,63.4,119,65.1z M116.9,68.9c0.6-1.3,1.2-2.4,0.7-3.4c-0.3-1.2-1.5-1.8-2.7-2.5
				c-1.1-0.6-2.2-1.2-2.9-2.2c-0.7-1-1-2.2-1.2-3.4c-0.3-1.4-0.5-2.6-1.4-3.2c-0.5-0.4-1.1-0.6-2-0.6c-0.6,0-1.2,0.1-1.8,0.1
				c-1.3,0.2-2.7,0.2-3.7-0.1c-1.2-0.4-2.1-1.2-3-2.1c-1-0.9-1.9-1.8-2.9-1.8c0,0-0.2,0-0.3,0h0c-1.2,0-2.2,0.9-3.2,1.8
				c-0.9,0.8-1.9,1.7-3,2.1c-1,0.3-2.4,0.2-3.6,0.1c-0.6-0.1-1.2-0.2-1.8-0.2c-0.8,0-1.3,0.2-1.7,0.5c-1,0.7-1.3,2-1.6,3.4
				c-0.2,1.2-0.5,2.4-1.2,3.4c-0.7,1-1.8,1.6-2.9,2.2c-1.2,0.7-2.4,1.3-2.6,2.3c-0.5,1.1,0.1,2.3,0.7,3.6c0.5,1.1,1.1,2.3,1.1,3.5
				c0,1.2-0.5,2.4-1.1,3.4c-0.6,1.3-1.2,2.4-0.7,3.4c0.3,1.2,1.5,1.8,2.7,2.5c1.1,0.6,2.2,1.2,2.9,2.2c0.7,1,1,2.2,1.2,3.4
				c0.3,1.4,0.5,2.6,1.4,3.2c0.5,0.4,1.1,0.6,1.9,0.6c0.6,0,1.2-0.1,1.8-0.1c0.7-0.1,1.3-0.2,2-0.2c0.7,0,1.2,0.1,1.7,0.2
				c1.2,0.4,2.1,1.2,3,2.1c1,0.9,1.9,1.8,2.9,1.8l0.1,0l0.2,0c1.1,0,2-0.9,3-1.8c0.9-0.8,1.9-1.7,3-2.1c1-0.3,2.4-0.2,3.6-0.1
				c0.6,0.1,1.2,0.2,1.8,0.2c0.8,0,1.3-0.2,1.7-0.5c1-0.7,1.3-2,1.6-3.4c0.2-1.2,0.5-2.4,1.2-3.4c0.7-1,1.8-1.6,2.9-2.2
				c1.2-0.7,2.4-1.3,2.6-2.3c0.5-1.1-0.1-2.4-0.7-3.6c-0.5-1.1-1.1-2.3-1.1-3.5C115.8,71.2,116.4,70,116.9,68.9z"/>
			<path class="st9" d="M117.6,65.5c0.4,1-0.1,2.1-0.7,3.4c-0.5,1.1-1.1,2.2-1.1,3.4c0,1.2,0.5,2.4,1.1,3.5c0.6,1.3,1.2,2.5,0.7,3.6
				c-0.2,1-1.4,1.7-2.6,2.3c-1.1,0.6-2.2,1.2-2.9,2.2c-0.7,1-1,2.2-1.2,3.4c-0.3,1.4-0.5,2.7-1.6,3.4c-0.4,0.4-1,0.5-1.7,0.5
				c-0.6,0-1.2-0.1-1.8-0.2c-1.3-0.2-2.6-0.3-3.6,0.1c-1.2,0.4-2.1,1.2-3,2.1c-1,0.9-2,1.8-3,1.8l-0.2,0l-0.1,0
				c-1,0-1.9-0.9-2.9-1.8c-0.9-0.8-1.8-1.7-3-2.1c-0.5-0.2-1.1-0.2-1.7-0.2c-0.6,0-1.3,0.1-2,0.2c-0.6,0.1-1.2,0.1-1.8,0.1
				c-0.8,0-1.4-0.2-1.9-0.6c-0.9-0.6-1.2-1.8-1.4-3.2c-0.2-1.2-0.5-2.4-1.2-3.4c-0.7-1-1.9-1.6-2.9-2.2c-1.2-0.7-2.4-1.3-2.7-2.5
				c-0.4-1,0.1-2.1,0.7-3.4c0.5-1.1,1.1-2.2,1.1-3.4c0-1.2-0.5-2.4-1.1-3.5c-0.6-1.3-1.2-2.5-0.7-3.6c0.2-1,1.4-1.7,2.6-2.3
				c1.1-0.6,2.2-1.2,2.9-2.2c0.7-1,1-2.2,1.2-3.4c0.3-1.4,0.5-2.7,1.6-3.4c0.4-0.4,1-0.5,1.7-0.5c0.6,0,1.2,0.1,1.8,0.2
				c1.3,0.2,2.6,0.3,3.6-0.1c1.2-0.4,2.1-1.2,3-2.1c1-0.9,2-1.8,3.2-1.8h0c0,0,0.2,0,0.3,0c1,0,1.9,0.9,2.9,1.8
				c0.9,0.8,1.8,1.7,3,2.1c1,0.3,2.4,0.2,3.7,0.1c0.6-0.1,1.2-0.1,1.8-0.1c0.8,0,1.4,0.2,2,0.6c0.9,0.6,1.2,1.8,1.4,3.2
				c0.2,1.2,0.5,2.4,1.2,3.4c0.7,1,1.9,1.6,2.9,2.2C116.1,63.7,117.3,64.4,117.6,65.5z"/>
			<path class="st10" d="M114.5,112.9c0.1,0.1,0.1,0.3,0.1,0.4c0,0.4-0.3,0.8-0.8,0.7c-0.1,0-0.1,0-0.2,0l-5.9-1.2l-4.5,4
				c-0.1,0.1-0.3,0.2-0.5,0.2c-0.1,0-0.1,0-0.2,0c-0.2-0.1-0.4-0.3-0.5-0.5l-4.5-15.7c-0.1-0.2,0-0.4,0.1-0.6
				c0.1-0.2,0.3-0.3,0.5-0.3c2.1-0.4,2.9-1.3,3.7-2.2c0.9-1,1.8-2,4.1-1.7c0.8,0.1,1.6,0.2,2.5,0.2h0.3c0.4,0,0.6,0.2,0.7,0.5
				L114.5,112.9z"/>
			<path class="st10" d="M95.8,100.2c0.1,0.2,0.1,0.4,0.1,0.6l-4.6,15.7c-0.1,0.2-0.3,0.4-0.5,0.5c-0.1,0-0.1,0-0.2,0
				c-0.2,0-0.3-0.1-0.5-0.2l-4.5-4l-5.9,1.2c-0.3,0-0.5,0-0.7-0.2c-0.2-0.2-0.2-0.5-0.2-0.7L84,96.7c0.1-0.3,0.4-0.5,0.7-0.5
				c1.5,0.1,2.4-0.1,3-0.2c1.5-0.3,2,0,3.2,1.1c1.3,1.2,2.5,2.4,4.3,2.7C95.5,99.9,95.7,100,95.8,100.2z"/>
			<path class="st8" d="M113.7,111.5c0.1,0.1,0.1,0.3,0.1,0.4c0,0.4-0.3,0.8-0.8,0.7c-0.1,0-0.1,0-0.2,0l-5.9-1.2l-4.5,4
				c-0.1,0.1-0.3,0.2-0.5,0.2c-0.1,0-0.1,0-0.2,0c-0.2-0.1-0.4-0.3-0.5-0.5l-4.5-15.7c-0.1-0.2,0-0.4,0.1-0.6
				c0.1-0.2,0.3-0.3,0.5-0.3c2.1-0.4,2.9-1.3,3.7-2.2c0.9-1,1.8-2,4.1-1.7c0.8,0.1,1.6,0.2,2.5,0.2h0.3c0.4,0,0.6,0.2,0.7,0.5
				L113.7,111.5z"/>
			<path class="st8" d="M95,98.8c0.1,0.2,0.1,0.4,0.1,0.6l-4.6,15.7c-0.1,0.2-0.3,0.4-0.5,0.5c-0.1,0-0.1,0-0.2,0
				c-0.2,0-0.3-0.1-0.5-0.2l-4.5-4l-5.9,1.2c-0.3,0-0.5,0-0.7-0.2c-0.2-0.2-0.2-0.5-0.2-0.7l5.2-16.4c0.1-0.3,0.4-0.5,0.7-0.5
				c1.5,0.1,2.4-0.1,3-0.2c1.5-0.3,2,0,3.2,1.1c1.3,1.2,2.5,2.4,4.3,2.7C94.7,98.5,94.9,98.7,95,98.8z"/>
		</g>
	</g>
</g>
<polygon class="st11" points="86.2,54.9 88.3,56.3 90.5,55.4 92.3,57.1 94.7,56.7 96,58.8 98.5,58.9 99.4,61.2 101.7,61.8 
	102.1,64.3 104.3,65.4 104.2,67.8 106.1,69.4 105.4,71.7 107,73.6 105.9,75.8 107,78 105.4,79.9 106.1,82.3 104.2,83.8 104.3,86.3 
	102.1,87.4 101.7,89.8 99.4,90.4 98.5,92.7 96,92.9 94.7,94.9 92.3,94.5 90.5,96.3 88.3,95.4 86.2,96.7 84.1,95.4 81.9,96.3 
	80.1,94.5 77.7,94.9 76.4,92.9 73.9,92.7 73,90.4 70.7,89.8 70.3,87.4 68.1,86.3 68.2,83.8 66.3,82.3 67,79.9 65.4,78 66.5,75.8 
	65.4,73.6 67,71.7 66.3,69.4 68.2,67.8 68.1,65.4 70.3,64.3 70.7,61.8 73,61.2 73.9,58.9 76.4,58.8 77.7,56.7 80.1,57.1 81.9,55.4 
	84.1,56.3 "/>
<g>
	<path class="st12" d="M86.9,62.8c3.6,0,6.8,1.5,9.2,3.8l-9.2,9.2l9.2,9.2c-2.4,2.4-5.6,3.8-9.2,3.8c-7.2,0-13-5.8-13-13
		C73.9,68.6,79.8,62.8,86.9,62.8z"/>
	<path class="st13" d="M87.8,76.7l-0.9-0.9l0.9-0.9l1.5-1.5l1.5-1.5l2.1-2.1c-1.5-1.2-3.3-1.9-5.3-1.9c-4.6,0-8.4,3.8-8.4,8.4
		c0,2.1,0.8,4.1,2.1,5.6c-0.6,0.9-2,1-2.9,1.5c1.7,0.3,2.7,0.2,4.3-0.2c1.2,0.9,3.2,1.5,4.9,1.5c2.6,0,4.6-0.9,6.1-2.4l-0.7-0.7
		l-2.1-2.1l-1.5-1.5L87.8,76.7z"/>
	<path class="st14" d="M87.5,68c4.6,0,8.5,3.8,8.5,8.4c0,2.4-0.8,4.5-2.4,6l-12-12C83.1,69,85.2,68,87.5,68z"/>
	<path class="st15" d="M86.9,67.4c4.6,0,8.4,3.8,8.4,8.4c0,4.6-3.8,8.4-8.4,8.4c-1.7,0-3.2-0.5-4.5-1.3c-0.5,0.2-1.1,0.4-1.7,0.6
		c-0.8,0.2-1.6,0.2-2.4,0.1c0.9-0.5,1.7-1.3,2.3-2.1c-1.3-1.5-2.1-3.4-2.1-5.6C78.5,71.2,82.3,67.4,86.9,67.4z"/>
	<path class="st12" d="M83.7,75h6.4c0.5,0,0.9,0.4,0.9,0.9l0,0c0,0.5-0.4,0.9-0.9,0.9h-6.4c-0.5,0-0.9-0.4-0.9-0.9l0,0
		C82.9,75.4,83.3,75,83.7,75L83.7,75z M83.7,71.8h6.4c0.5,0,0.9,0.4,0.9,0.9l0,0c0,0.5-0.4,0.9-0.9,0.9h-6.4c-0.5,0-0.9-0.4-0.9-0.9
		l0,0C82.9,72.1,83.3,71.8,83.7,71.8L83.7,71.8z M83.7,78.2h6.4c0.5,0,0.9,0.4,0.9,0.9l0,0c0,0.5-0.4,0.9-0.9,0.9h-6.4
		c-0.5,0-0.9-0.4-0.9-0.9l0,0C82.9,78.6,83.3,78.2,83.7,78.2z"/>
</g>
</svg>
