<?xml version="1.0" encoding="utf-8"?>
<!-- Generator: Adobe Illustrator 19.0.1, SVG Export Plug-In . SVG Version: 6.00 Build 0)  -->
<svg version="1.1" id="ico" xmlns="http://www.w3.org/2000/svg" xmlns:xlink="http://www.w3.org/1999/xlink" x="0px" y="0px"
	 viewBox="0 0 375 346.6" style="enable-background:new 0 0 375 346.6;" xml:space="preserve">
<style type="text/css">
	.st0{fill:#83CA28;}
	.st1{fill:#45853D;}
	.st2{fill-rule:evenodd;clip-rule:evenodd;fill:#FFFFFF;}
	.st3{fill-rule:evenodd;clip-rule:evenodd;fill:#FFD053;}
	.st4{fill-rule:evenodd;clip-rule:evenodd;fill:#E1564B;}
	.st5{fill-rule:evenodd;clip-rule:evenodd;fill:#C94E44;}
	.st6{fill-rule:evenodd;clip-rule:evenodd;fill:#D48600;}
	.st7{fill:#ECF0F1;}
	.st8{fill:#FFFFFF;}
	.st9{fill-rule:evenodd;clip-rule:evenodd;fill:#F39A00;}
	.st10{fill:#FFD053;}
	.st11{fill:#F39A00;}
	.st12{fill:#A2DD3B;}
	.st13{fill-rule:evenodd;clip-rule:evenodd;fill:#CFECFF;}
	.st14{opacity:0.5804;}
	.st15{fill-rule:evenodd;clip-rule:evenodd;fill:#A06500;}
	.st16{opacity:0.302;}
	.st17{fill:none;}
	.st18{fill:#284259;}
	.st19{fill-rule:evenodd;clip-rule:evenodd;fill:#C3C6CA;}
	.st20{fill-rule:evenodd;clip-rule:evenodd;fill:#83CA28;}
	.st21{clip-path:url(#SVGID_2_);}
	.st22{fill-rule:evenodd;clip-rule:evenodd;fill:#A2DD3B;}
</style>
<g>
	<circle class="st0" cx="315" cy="263.3" r="13"/>
	<path class="st0" d="M132.6,346.3c2.3-5.6,3.5-11.6,3.5-18c0-26.5-21.5-48-48-48c-17.6,0-32.9,9.4-41.3,23.5
		c-4.2-2.2-9.1-3.5-14.2-3.5c-16.8,0-30.5,13.7-30.5,30.5c0,5.7,1.5,11,4.2,15.5H132.6z"/>
	<path class="st0" d="M354.9,346.3c1.8-5,2.7-10.4,2.7-16c0-26.5-21.5-48-48-48s-48,21.5-48,48c0,5.6,1,11,2.7,16H354.9z"/>
</g>
<path class="st1" d="M273.1,346.3h53c-1-6.8-5.8-12.3-12.3-14.3c0.3-1.5,0.5-3.1,0.5-4.7c0-13.8-11.2-25-25-25
	c-13.8,0-25,11.2-25,25C264.3,334.9,267.7,341.7,273.1,346.3z"/>
<g id="Rectangle_94">
	<polygon class="st2" points="224.3,102.3 205.3,130.3 243.3,130.3 243.3,102.3 	"/>
</g>
<g id="Rectangle_93_copy_2">
	<polygon class="st3" points="279.2,102.3 224.4,102.3 243.4,130.3 298.3,130.3 	"/>
</g>
<g id="Rectangle_93_copy">
	<rect x="205.3" y="130.3" class="st2" width="38" height="216"/>
</g>
<g id="Rectangle_93">
	<rect x="243.3" y="130.3" class="st4" width="55" height="216"/>
</g>
<g id="Rectangle_93_copy_3">
	<polygon class="st5" points="243.3,130.3 294.3,346.3 298.3,346.3 298.3,130.3 	"/>
</g>
<g id="Rectangle_98">
	<rect x="150.4" y="73.3" class="st6" width="55" height="273"/>
</g>
<g id="Ellipse_1_copy">
	<ellipse class="st3" cx="27" cy="23.3" rx="23" ry="23"/>
</g>
<g id="Ellipse_2_copy_4">
	<path class="st7" d="M97,45c0-6.8-5.4-12.3-12.1-12.3c-1.1,0-2.1,0.2-3.1,0.4c-0.8-9.4-8.6-16.8-18.1-16.8
		c-7.4,0-13.7,4.4-16.6,10.8c-2.5-1.6-5.5-2.6-8.7-2.6c-8.9,0-16.2,7.3-16.2,16.4c0,9,7.2,16.4,16.2,16.4c0.7,0,1.4-0.1,2-0.1v0.1
		h44.5v0C91.6,57.2,97,51.8,97,45z"/>
</g>
<g id="Ellipse_2_copy_4_1_">
	<path class="st8" d="M79.8,43.1c-1.4,0-2.7,0.2-3.9,0.5c-1-12-11-21.3-23.1-21.3c-9.4,0-17.4,5.6-21.1,13.7
		c-3.2-2.1-7-3.3-11.1-3.3C9.2,32.7,0,42,0,53.5C0,65,9.2,74.3,20.6,74.3c0.9,0,1.7-0.1,2.5-0.2v0.2h56.7c8.5,0,15.4-7,15.4-15.6
		C95.3,50.1,88.3,43.1,79.8,43.1z"/>
</g>
<g id="Rectangle_97">
	<rect x="218.3" y="142.3" class="st9" width="10" height="20"/>
</g>
<g id="Rectangle_98_copy">
	<rect x="108.4" y="73.3" class="st9" width="42" height="273"/>
</g>
<g id="Rectangle_97_copy">
	<rect x="218.3" y="182.3" class="st9" width="10" height="20"/>
</g>
<g id="Rectangle_97_copy_2">
	<rect x="218.3" y="222.3" class="st9" width="10" height="20"/>
</g>
<g id="Rectangle_97_copy_3">
	<rect x="218.3" y="262.3" class="st9" width="10" height="20"/>
</g>
<g id="Rectangle_97_copy_4">
	<rect x="218.3" y="302.3" class="st9" width="10" height="20"/>
</g>
<g id="Rectangle_99_copy_6">
	<path class="st10" d="M108.4,83.3v10h42v-10H108.4z M108.4,113.3h42v-10h-42V113.3z M108.4,133.3h42v-10h-42V133.3z M108.4,153.3
		h42v-10h-42V153.3z M108.4,173.3h42v-10h-42V173.3z M108.4,193.3h42v-10h-42V193.3z M108.4,213.3h42v-10h-42V213.3z M108.4,233.3
		h42v-10h-42V233.3z M108.4,253.3h42v-10h-42V253.3z M108.4,273.3h42v-10h-42V273.3z M108.4,293.3h42v-10h-42V293.3z M108.4,313.3
		h42v-10h-42V313.3z M108.4,333.3h42v-10h-42V333.3z"/>
</g>
<g id="Rectangle_99_copy_7">
	<path class="st11" d="M150.4,83.3v10h55v-10H150.4z M150.4,113.3h55v-10h-55V113.3z M150.4,133.3h55v-10h-55V133.3z M150.4,153.3
		h55v-10h-55V153.3z M150.4,173.3h55v-10h-55V173.3z M150.4,193.3h55v-10h-55V193.3z M150.4,213.3h55v-10h-55V213.3z M150.4,233.3
		h55v-10h-55V233.3z M150.4,253.3h55v-10h-55V253.3z M150.4,273.3h55v-10h-55V273.3z M150.4,293.3h55v-10h-55V293.3z M150.4,313.3
		h55v-10h-55V313.3z M150.4,333.3h55v-10h-55V333.3z"/>
</g>
<g id="Rectangle_99">
	<polygon class="st3" points="131.4,45.3 108.4,73.3 160.4,73.3 160.4,45.3 	"/>
</g>
<g id="Rectangle_93_copy_4">
	<polygon class="st4" points="186.3,45.3 131.4,45.3 150.4,73.3 205.3,73.3 	"/>
</g>
<g id="Ellipse_45_copy">
	<path class="st1" d="M275.4,307.7c0.5-1.9,0.8-3.8,0.8-5.9c0-11.9-9.6-21.5-21.5-21.5c-9.6,0-17.8,6.3-20.5,15c-0.3,0-0.7,0-1,0
		c-9.9,0-18,8.1-18,18c0,9.9,8.1,18,18,18c2.5,0,5-0.5,7.2-1.5c2.2,3.3,6,5.5,10.3,5.5c4.8,0,9-2.8,11.1-6.8
		c2.2,1.8,4.9,2.8,7.9,2.8c6.9,0,12.5-5.6,12.5-12.5C282.2,314,279.4,309.8,275.4,307.7z"/>
</g>
<g id="Ellipse_45_copy_2">
	<path class="st12" d="M272.4,305.7c0.5-1.9,0.8-3.8,0.8-5.9c0-11.9-9.6-21.5-21.5-21.5c-9.6,0-17.8,6.3-20.5,15c-0.3,0-0.7,0-1,0
		c-9.9,0-18,8.1-18,18s8.1,18,18,18c2.5,0,5-0.5,7.2-1.5c2.2,3.3,6,5.5,10.3,5.5c4.8,0,9-2.8,11.1-6.8c2.2,1.8,4.9,2.8,7.9,2.8
		c6.9,0,12.5-5.6,12.5-12.5C279.2,312,276.4,307.8,272.4,305.7z"/>
</g>
<g id="Rectangle_100">
	<rect x="45.4" y="276.3" class="st3" width="118" height="70"/>
</g>
<g id="Rectangle_100_copy_2">
	<rect x="45.4" y="276.3" class="st9" width="118" height="2"/>
</g>
<g id="Rectangle_102">
	<rect x="121.4" y="288.3" class="st6" width="34" height="58"/>
</g>
<g id="Rectangle_102_copy_2">
	<rect x="56.4" y="288.3" class="st6" width="55" height="38"/>
</g>
<g id="Rectangle_102_copy">
	<rect x="123.4" y="290.3" class="st2" width="30" height="56"/>
</g>
<g id="Rectangle_102_copy_3">
	<rect x="58.4" y="290.3" class="st13" width="51" height="34"/>
</g>
<g id="Rectangle_103">
	<rect x="126.4" y="293.3" class="st13" width="24" height="31"/>
</g>
<g id="Rectangle_101" class="st14">
	<polygon class="st15" points="163.4,256.3 163.4,346.3 194.3,346.3 	"/>
</g>
<g id="Rectangle_101_copy" class="st16">
	<polygon class="st15" points="150.4,73.3 205.3,267.3 205.3,73.3 	"/>
</g>
<g id="Rectangle_100_copy">
	<rect x="42.4" y="250.3" class="st4" width="124" height="26"/>
</g>
<g id="Ellipse_45_copy_3">
	<path class="st1" d="M74.2,346.3c0.1-0.5,0.1-1,0.1-1.5c0-3.7-2.1-6.8-5.2-8.4c0.4-1.4,0.6-2.9,0.6-4.4c0-9-7.3-16.2-16.3-16.2
		c-7.3,0-13.5,4.8-15.5,11.3c-0.2,0-0.5,0-0.7,0c-7.5,0-13.6,6.1-13.6,13.6c0,2,0.4,3.9,1.2,5.6H74.2z"/>
</g>
<g id="Ellipse_45_copy_3_1_">
	<path class="st12" d="M71.6,346.3c0.3-0.9,0.5-1.9,0.5-3c0-3.7-2.1-6.8-5.2-8.4c0.4-1.4,0.6-2.9,0.6-4.4c0-9-7.3-16.2-16.3-16.2
		c-7.3,0-13.5,4.8-15.5,11.3c-0.2,0-0.5,0-0.7,0c-7.5,0-13.6,6.1-13.6,13.6c0,2.6,0.8,5,2,7.1H71.6z"/>
</g>
<g id="Ellipse_45_copy_4">
	<path class="st1" d="M219.2,346.3c0.1-0.5,0.1-1,0.1-1.5c0-3.7-2.1-6.8-5.2-8.4c0.4-1.4,0.6-2.9,0.6-4.4c0-9-7.3-16.2-16.3-16.2
		c-7.3,0-13.5,4.8-15.5,11.3c-0.2,0-0.5,0-0.7,0c-7.5,0-13.6,6.1-13.6,13.6c0,2,0.4,3.9,1.2,5.6H219.2z"/>
</g>
<g id="Ellipse_45_copy_4_1_">
	<path class="st12" d="M216.6,346.3c0.3-0.9,0.5-1.9,0.5-3c0-3.7-2.1-6.8-5.2-8.4c0.4-1.4,0.6-2.9,0.6-4.4c0-9-7.3-16.2-16.3-16.2
		c-7.3,0-13.5,4.8-15.5,11.3c-0.2,0-0.5,0-0.7,0c-7.5,0-13.6,6.1-13.6,13.6c0,2.6,0.8,5,2,7.1H216.6z"/>
</g>
<g>
	<rect x="30.4" y="332.3" class="st17" width="48" height="7"/>
	<path class="st18" d="M88.4,332.3c0.6,0,1-0.4,1-1v-1c0-0.6-0.4-1-1-1h-7v-1c0-0.6-0.4-1-1-1h-1c-0.6,0-1,0.4-1,1v1h-48v-1
		c0-0.6-0.4-1-1-1h-1c-0.6,0-1,0.4-1,1v1h-7c-0.6,0-1,0.4-1,1v1c0,0.6,0.4,1,1,1h7v7h-7c-0.6,0-1,0.4-1,1v1c0,0.6,0.4,1,1,1h7v4h1h1
		h1v-4h48v4h3v-4h7c0.6,0,1-0.4,1-1v-1c0-0.6-0.4-1-1-1h-7v-7H88.4z M78.4,339.3h-48v-7h48V339.3z"/>
</g>
<g>
	<path class="st2" d="M73.2,257v2.3h-3.6v10.3h-2.9v-10.3h-3.6V257H73.2L73.2,257z M82.6,257v2.3h-5.2v3h4v2.2h-4v3h5.2v2.3h-8.1
		V257H82.6L82.6,257z M108.2,263.3c0,0.9-0.2,1.8-0.5,2.6c-0.3,0.8-0.8,1.5-1.3,2.1c-0.6,0.6-1.3,1-2.1,1.4
		c-0.8,0.3-1.7,0.5-2.7,0.5c-1,0-1.9-0.2-2.7-0.5c-0.8-0.3-1.5-0.8-2.1-1.4c-0.6-0.6-1-1.3-1.3-2.1c-0.3-0.8-0.5-1.6-0.5-2.6
		c0-0.9,0.2-1.8,0.5-2.6c0.3-0.8,0.8-1.5,1.3-2.1c0.6-0.6,1.3-1,2.1-1.4c0.8-0.3,1.7-0.5,2.7-0.5c1,0,1.9,0.2,2.7,0.5
		c0.8,0.3,1.5,0.8,2.1,1.4c0.6,0.6,1,1.3,1.3,2.1C108,261.6,108.2,262.4,108.2,263.3L108.2,263.3z M105.2,263.3
		c0-0.6-0.1-1.2-0.2-1.7c-0.2-0.5-0.4-0.9-0.7-1.3c-0.3-0.3-0.7-0.6-1.1-0.8c-0.4-0.2-0.9-0.3-1.5-0.3c-0.6,0-1.1,0.1-1.5,0.3
		c-0.4,0.2-0.8,0.5-1.1,0.8c-0.3,0.3-0.5,0.8-0.7,1.3c-0.2,0.5-0.2,1.1-0.2,1.7c0,0.6,0.1,1.2,0.2,1.7c0.2,0.5,0.4,0.9,0.7,1.3
		c0.3,0.3,0.7,0.6,1.1,0.8c0.4,0.2,0.9,0.3,1.5,0.3c0.6,0,1.1-0.1,1.5-0.3c0.4-0.2,0.8-0.4,1.1-0.8c0.3-0.3,0.5-0.8,0.7-1.3
		C105.1,264.5,105.2,263.9,105.2,263.3L105.2,263.3z M111.1,257c0.1,0,0.2,0,0.3,0c0.1,0,0.2,0,0.2,0.1c0.1,0,0.1,0.1,0.2,0.1
		c0.1,0.1,0.1,0.1,0.2,0.2l6,7.6c0-0.2,0-0.5-0.1-0.7c0-0.2,0-0.4,0-0.6V257h2.6v12.7h-1.5c-0.2,0-0.4,0-0.6-0.1
		c-0.2-0.1-0.3-0.2-0.5-0.4l-6-7.5c0,0.2,0,0.4,0,0.6c0,0.2,0,0.4,0,0.6v6.8h-2.6V257H111.1L111.1,257z M125.9,269.6h-3V257h3V269.6
		L125.9,269.6z M135.3,259.6c-0.1,0.1-0.2,0.2-0.3,0.3c-0.1,0.1-0.2,0.1-0.4,0.1c-0.1,0-0.3,0-0.4-0.1c-0.2-0.1-0.3-0.2-0.5-0.3
		c-0.2-0.1-0.4-0.2-0.7-0.3c-0.2-0.1-0.5-0.1-0.9-0.1c-0.6,0-1,0.1-1.2,0.4c-0.3,0.2-0.4,0.6-0.4,0.9c0,0.3,0.1,0.5,0.2,0.6
		c0.2,0.2,0.4,0.3,0.6,0.4c0.3,0.1,0.6,0.2,0.9,0.3c0.3,0.1,0.7,0.2,1,0.3c0.4,0.1,0.7,0.3,1,0.4c0.3,0.2,0.6,0.4,0.9,0.6
		c0.3,0.3,0.5,0.6,0.6,1c0.2,0.4,0.2,0.8,0.2,1.4c0,0.6-0.1,1.1-0.3,1.6c-0.2,0.5-0.5,1-0.9,1.3c-0.4,0.4-0.9,0.7-1.4,0.9
		c-0.6,0.2-1.2,0.3-1.9,0.3c-0.4,0-0.8,0-1.2-0.1c-0.4-0.1-0.8-0.2-1.2-0.3c-0.4-0.1-0.7-0.3-1.1-0.5c-0.3-0.2-0.6-0.4-0.9-0.7
		l0.9-1.4c0.1-0.1,0.2-0.2,0.3-0.3c0.1-0.1,0.2-0.1,0.4-0.1c0.2,0,0.4,0.1,0.5,0.2c0.2,0.1,0.4,0.2,0.6,0.4c0.2,0.1,0.5,0.3,0.8,0.4
		c0.3,0.1,0.6,0.2,1,0.2c0.5,0,0.9-0.1,1.2-0.4c0.3-0.2,0.4-0.6,0.4-1.1c0-0.3-0.1-0.5-0.2-0.7c-0.2-0.2-0.4-0.3-0.6-0.5
		c-0.3-0.1-0.6-0.2-0.9-0.3c-0.3-0.1-0.7-0.2-1-0.3c-0.4-0.1-0.7-0.3-1-0.4c-0.3-0.2-0.6-0.4-0.9-0.7c-0.3-0.3-0.5-0.6-0.6-1
		c-0.2-0.4-0.2-0.9-0.2-1.5c0-0.5,0.1-0.9,0.3-1.4c0.2-0.5,0.5-0.9,0.8-1.2c0.4-0.4,0.8-0.6,1.4-0.8c0.5-0.2,1.2-0.3,1.9-0.3
		c0.4,0,0.8,0,1.1,0.1c0.4,0.1,0.7,0.2,1,0.3c0.3,0.1,0.6,0.3,0.9,0.4c0.3,0.2,0.5,0.4,0.8,0.6L135.3,259.6L135.3,259.6z M144,264.9
		v4.7h-2.9v-4.7l-4.6-7.9h2.6c0.3,0,0.5,0.1,0.6,0.2c0.2,0.1,0.3,0.3,0.4,0.5l1.8,3.8c0.1,0.3,0.3,0.6,0.4,0.8
		c0.1,0.3,0.2,0.5,0.3,0.8c0.1-0.3,0.2-0.5,0.3-0.8c0.1-0.3,0.3-0.5,0.4-0.8l1.8-3.8c0-0.1,0.1-0.2,0.1-0.2c0.1-0.1,0.1-0.1,0.2-0.2
		c0.1-0.1,0.2-0.1,0.3-0.2c0.1,0,0.2-0.1,0.3-0.1h2.6L144,264.9z"/>
	<g>
		<path class="st2" d="M89.8,256.8c1.8,0,3.4,0.7,4.6,1.9l-1.6,1.6c-0.8-0.8-1.8-1.2-3-1.2c-2.3,0-4.2,1.9-4.2,4.2
			c0,1.1,0.4,2,1.1,2.8c-0.3,0.4-0.7,0.8-1.2,1.1c0.4,0.1,0.8,0,1.2,0c0.3-0.1,0.6-0.2,0.8-0.3c0.7,0.4,1.4,0.7,2.3,0.7
			c1.2,0,2.2-0.5,3-1.2l1.6,1.6c-1.2,1.2-2.8,1.9-4.6,1.9c-3.6,0-6.5-2.9-6.5-6.5C83.3,259.7,86.2,256.8,89.8,256.8z"/>
		<path class="st2" d="M88.2,262.9h3.2c0.2,0,0.4,0.2,0.4,0.4l0,0c0,0.2-0.2,0.4-0.4,0.4h-3.2c-0.2,0-0.4-0.2-0.4-0.4l0,0
			C87.8,263.1,88,262.9,88.2,262.9L88.2,262.9z M88.2,261.3h3.2c0.2,0,0.4,0.2,0.4,0.4l0,0c0,0.2-0.2,0.4-0.4,0.4h-3.2
			c-0.2,0-0.4-0.2-0.4-0.4l0,0C87.8,261.5,88,261.3,88.2,261.3L88.2,261.3z M88.2,264.5h3.2c0.2,0,0.4,0.2,0.4,0.4l0,0
			c0,0.2-0.2,0.4-0.4,0.4h-3.2c-0.2,0-0.4-0.2-0.4-0.4l0,0C87.8,264.7,88,264.5,88.2,264.5z"/>
	</g>
</g>
<g>
	<g id="Ellipse_47_1_">
		<g>
			<ellipse class="st19" cx="320.5" cy="255.8" rx="54.5" ry="54.5"/>
		</g>
	</g>
	<g id="Ellipse_47_copy_3_1_">
		<g>
			<ellipse class="st2" cx="319.8" cy="255.1" rx="54.5" ry="54.5"/>
		</g>
	</g>
	<g id="Ellipse_47_copy">
		<g>
			<ellipse class="st20" cx="319.8" cy="255.1" rx="50.8" ry="50.8"/>
		</g>
	</g>
	<g>
		<defs>
			<ellipse id="SVGID_1_" cx="317.6" cy="252.9" rx="50.8" ry="50.8"/>
		</defs>
		<clipPath id="SVGID_2_">
			<use xlink:href="#SVGID_1_"  style="overflow:visible;"/>
		</clipPath>
		<g id="Ellipse_47_copy_2_" class="st21">
			<g>
				<ellipse class="st22" cx="319.8" cy="255.1" rx="50.8" ry="50.8"/>
			</g>
		</g>
	</g>
	<g id="Shape_1_1_">
		<g>
			<path class="st8" d="M342.5,276.2c-5.1-9.1-14.7-14.7-14.7-14.7c-0.6,0.6-4.6,3.5-5.6,7.7c-4.2-2.4-12.9-8.5-17.3-18.7
				c3.6-1.3,6.1-4.7,6.7-5.3c0,0-5.5-9.4-14.4-14.4c0,0-5.2,3.7-5.6,8.9l0,0c0,0-2,9.4,15.3,27.1c14.6,15,21.8,15.7,26.4,15.1
				c0.8,0,1.5-0.2,2.3-0.4c0,0,0,0,0,0l0,0C339.7,280.1,342.5,276.2,342.5,276.2z"/>
		</g>
	</g>
	<g id="Shape_2_1_">
		<g>
			<path class="st8" d="M333.4,240.8C333.4,240.8,333.4,240.8,333.4,240.8C333.3,240.7,333.3,240.7,333.4,240.8
				C333.3,240.7,333.3,240.7,333.4,240.8c-2.7-2.7-6.8-3.9-10.3-2.3c-1,0.5-0.2,2,0.8,1.5c0,0,0,0,0,0c0,0,0,0,0,0c0,0,0,0,0,0
				c0,0,0,0,0,0c0.2-0.1,0.4-0.1,0.6-0.2c0.6-0.2,1.2-0.3,1.9-0.3c2.2-0.1,4.1,0.9,5.7,2.4c1.5,1.5,2.5,3.4,2.4,5.6
				c0,0.6-0.1,1.3-0.3,1.9c-0.1,0.2-0.1,0.4-0.2,0.6c0,0,0,0,0,0c0,0,0,0,0,0c0,0,0,0,0,0c0,0,0,0,0,0c-0.4,1,1.1,1.9,1.5,0.8
				C337.2,247.5,336,243.4,333.4,240.8C333.4,240.8,333.4,240.8,333.4,240.8z M339.3,234.3C339.3,234.3,339.3,234.3,339.3,234.3
				C339.3,234.3,339.2,234.3,339.3,234.3c-0.1-0.1-0.1-0.2-0.2-0.2c0,0,0,0,0,0c-4.6-4.6-10.5-7.4-17-7.4c-2.9,0-5.9,0.5-8.5,1.7
				c-1,0.5-0.2,2,0.9,1.5c0,0,0.1,0,0.1-0.1c0,0,0,0,0,0c0.1,0,0.1-0.1,0.2-0.1c0.5-0.2,1-0.4,1.6-0.5c1.8-0.5,3.7-0.8,5.6-0.8
				c6.2-0.1,11.8,2.6,16,6.9c4.3,4.3,7,9.9,6.9,16c0,1.8-0.3,3.7-0.8,5.5c-0.1,0.5-0.3,1.1-0.5,1.6c0,0.1-0.1,0.2-0.1,0.2
				c0,0,0,0,0,0c0,0,0,0,0,0c0,0.1,0,0.1-0.1,0.2c-0.5,1,1.1,1.9,1.5,0.9c1.2-2.6,1.7-5.7,1.7-8.5
				C346.8,244.9,343.9,238.9,339.3,234.3z"/>
		</g>
	</g>
</g>
</svg>
