<?xml version="1.0" encoding="utf-8"?>
<!-- Generator: Adobe Illustrator 19.0.1, SVG Export Plug-In . SVG Version: 6.00 Build 0)  -->
<svg version="1.1" id="_x30_1" xmlns="http://www.w3.org/2000/svg" xmlns:xlink="http://www.w3.org/1999/xlink" x="0px" y="0px"
	 viewBox="0 0 206 206" style="enable-background:new 0 0 206 206;" xml:space="preserve">
<style type="text/css">
	.st0{fill:#D9DFE1;}
	.st1{fill:#FFFFFF;}
	.st2{fill-rule:evenodd;clip-rule:evenodd;fill:#569EE4;}
	.st3{fill-rule:evenodd;clip-rule:evenodd;fill:#4D8ECA;stroke:#4D8ECA;stroke-width:0.216;stroke-miterlimit:22.9256;}
	.st4{fill-rule:evenodd;clip-rule:evenodd;fill:#E1E6E9;}
	.st5{fill-rule:evenodd;clip-rule:evenodd;fill:#82CA28;}
	.st6{fill-rule:evenodd;clip-rule:evenodd;fill:#1A3043;}
	.st7{fill-rule:evenodd;clip-rule:evenodd;fill:#6B8C3F;}
	.st8{fill-rule:evenodd;clip-rule:evenodd;}
	.st9{fill-rule:evenodd;clip-rule:evenodd;fill:#C4C4C4;}
	.st10{fill-rule:evenodd;clip-rule:evenodd;fill:#E9EDF0;}
	.st11{fill-rule:evenodd;clip-rule:evenodd;fill:#284259;}
	.st12{fill-rule:evenodd;clip-rule:evenodd;fill:#7E7E7E;}
	.st13{font-family:'OpenSans-Semibold';}
	.st14{font-size:16px;}
	.st15{fill:#ECF0F1;}
	.st16{font-family:'OpenSans';}
	.st17{font-size:10px;}
	.st18{fill:#6E7D8B;}
	.st19{display:none;fill-rule:evenodd;clip-rule:evenodd;fill:#FFFFFF;}
	.st20{fill-rule:evenodd;clip-rule:evenodd;fill:#FFFFFF;}
</style>
<g id="Ellipse_18_copy_9_2_">
	<path class="st0" d="M111.4,5.9C56.2,2.9,9.1,45.3,6.2,100.5c-1.3,23.9,5.9,46.3,18.9,64.2c-5.9,8.7-14.5,15.2-24.4,18.3
		c4.1,0.9,8.5,1.5,13,1.7c9.7,0.5,18.9-0.6,26.9-3.1c16.2,14,37,23,60,24.3c55.1,3,102.2-39.4,105.2-94.6
		C208.8,56,166.5,8.8,111.4,5.9z"/>
</g>
<g id="Ellipse_18_copy_4_2_">
	<path class="st1" d="M101,0C45.8,0,1,44.8,1,100.1c0,23.9,8.4,45.9,22.4,63.1c-5.5,9-13.7,15.9-23.4,19.6c4.2,0.7,8.6,1,13.1,1
		c9.7,0,18.9-1.7,26.7-4.6c16.9,13.2,38.2,21,61.2,21c55.2,0,100-44.8,100-100.1S156.3,0,101,0z"/>
</g>
<g>
	<circle class="st2" cx="101.7" cy="100" r="90"/>
	<path class="st3" d="M151.8,52.2v122.5c13.1-8.8,23.8-21,30.8-35.4L151.8,52.2z"/>
	<g>
		<path class="st4" d="M136.5,37.8H66.6c-8.5,0-15.3,6.8-15.3,15.2v11c-0.7,0-1.2,0.6-1.2,1.3v5.9c0,0.7,0.6,1.3,1.2,1.3v9.7l-0.1,0
			c-0.6,0-1.1,0.5-1.1,1.1v13.4c0,0.6,0.5,1.1,1.1,1.1l0.1,0v3l-0.1,0c-0.6,0-1.1,0.5-1.1,1.1v13.3c0,0.6,0.5,1.1,1.1,1.1l0.1,0
			v58.6C65.6,184.3,83,190,101.7,190c18.6,0,35.8-5.6,50.1-15.2V53C151.8,44.6,144.9,37.8,136.5,37.8z"/>
		<path class="st5" d="M57,168.2V62.5h88.9v105.9c-13.1,7.4-28.2,11.6-44.3,11.6C85.4,180,70.2,175.7,57,168.2z"/>
		<path class="st6" d="M57,178.2v-75.7h88.9v75.9c-13.1,7.4-28.2,11.6-44.3,11.6C85.4,190,70.2,185.7,57,178.2z"/>
		<path class="st7" d="M145.5,62.9v115.7c0.3-0.2,0.6-0.3,0.9-0.5V62.9V62l0,0h-0.9h-88h-0.9v0.9v115c0.3,0.2,0.6,0.3,0.9,0.5V62.9
			H145.5z"/>
		<rect x="57.5" y="62.9" class="st8" width="88" height="5"/>
		<path class="st9" d="M142.6,65.1v-0.8h-5.2V67h5.2v-0.8h0.5v-1.1H142.6L142.6,65.1z M142.3,66.8L142.3,66.8H140v-2.2h2.3V66.8z"/>
		<path class="st9" d="M134,64.3c-0.8,0-1.4,0.6-1.4,1.4c0,0.8,0.6,1.4,1.4,1.4c0.8,0,1.4-0.6,1.4-1.4
			C135.3,64.9,134.7,64.3,134,64.3L134,64.3z M134.4,66.3L134.4,66.3l-0.6-0.6l0,0h0v-0.9h0.2v0.9l0.5,0.5L134.4,66.3z"/>
		<path class="st9" d="M96.6,66.9h-0.5v-2c-0.2,0.2-0.4,0.3-0.7,0.4v-0.5c0.1,0,0.3-0.1,0.5-0.3c0.2-0.1,0.3-0.3,0.3-0.5h0.4V66.9z"
			/>
		<path class="st9" d="M98.8,66.9v-0.6h-1.2v-0.5l1.2-1.8h0.5v1.8h0.4v0.5h-0.4v0.6H98.8L98.8,66.9z M98.8,65.8L98.8,65.8v-1l-0.7,1
			H98.8z"/>
		<path class="st9" d="M100.5,65.4v-0.5h0.5v0.5H100.5L100.5,65.4z M100.5,66.9L100.5,66.9v-0.5h0.5v0.5H100.5z"/>
		<path class="st9" d="M102.4,64c0.3,0,0.5,0.1,0.6,0.3c0.2,0.2,0.3,0.6,0.3,1.2c0,0.5-0.1,0.9-0.3,1.2c-0.2,0.2-0.4,0.3-0.6,0.3
			c-0.3,0-0.5-0.1-0.7-0.3c-0.2-0.2-0.3-0.6-0.3-1.1c0-0.5,0.1-0.9,0.3-1.2C101.9,64.1,102.2,64,102.4,64L102.4,64z M102.4,64.5
			L102.4,64.5l-0.2,0.1c-0.1,0-0.1,0.1-0.1,0.2c0,0.1-0.1,0.4-0.1,0.7c0,0.3,0,0.6,0.1,0.7c0,0.1,0.1,0.2,0.1,0.2l0.2,0.1l0.2-0.1
			c0.1,0,0.1-0.1,0.1-0.2c0-0.1,0.1-0.4,0.1-0.7c0-0.3,0-0.6-0.1-0.7c0-0.1-0.1-0.2-0.1-0.2L102.4,64.5z"/>
		<path class="st9" d="M105.9,64.7l-0.5,0.1c0-0.1,0-0.2-0.1-0.2c-0.1-0.1-0.1-0.1-0.2-0.1c-0.1,0-0.2,0.1-0.3,0.2
			c-0.1,0.1-0.1,0.3-0.1,0.6c0.1-0.2,0.3-0.2,0.5-0.2c0.2,0,0.4,0.1,0.6,0.3c0.2,0.2,0.2,0.4,0.2,0.7c0,0.3-0.1,0.5-0.3,0.7
			c-0.2,0.2-0.4,0.3-0.7,0.3c-0.3,0-0.5-0.1-0.7-0.3c-0.2-0.2-0.3-0.6-0.3-1.1c0-0.5,0.1-0.9,0.3-1.1c0.2-0.2,0.4-0.3,0.7-0.3
			c0.2,0,0.4,0.1,0.5,0.2C105.7,64.3,105.8,64.5,105.9,64.7L105.9,64.7z M104.6,65.9L104.6,65.9c0,0.2,0,0.3,0.1,0.4
			c0.1,0.1,0.2,0.1,0.3,0.1c0.1,0,0.2,0,0.3-0.1c0.1-0.1,0.1-0.2,0.1-0.4c0-0.2,0-0.3-0.1-0.4c-0.1-0.1-0.2-0.1-0.3-0.1
			c-0.1,0-0.2,0-0.3,0.1C104.7,65.6,104.6,65.8,104.6,65.9z"/>
		<polygon class="st10" points="58.3,66.9 63.5,66.9 63.5,64.2 		"/>
		<path class="st11" d="M108.4,49.8H93.7c-0.6,0-1,0.5-1,1c0,0.6,0.5,1,1,1h14.7c0.6,0,1-0.5,1-1C109.4,50.3,109,49.8,108.4,49.8z"
			/>
		<circle class="st11" cx="84.9" cy="50.9" r="1.5"/>
		<ellipse class="st12" cx="84.8" cy="50.9" rx="0.8" ry="0.8"/>
		<circle class="st11" cx="100.7" cy="44.3" r="1.2"/>
	</g>
	<text transform="matrix(1 0 0 1 84.7094 91.45)" class="st1 st13 st14">PAN</text>
	<rect x="59.5" y="104.5" class="st11" width="26.6" height="14"/>
	<rect x="88.1" y="104.5" class="st11" width="26.6" height="14"/>
	<rect x="116.7" y="104.5" class="st11" width="26.6" height="14"/>
	<rect x="59.5" y="120.5" class="st11" width="26.6" height="14"/>
	<rect x="88.1" y="120.5" class="st11" width="26.6" height="14"/>
	<rect x="116.7" y="120.5" class="st11" width="26.6" height="14"/>
	<rect x="59.5" y="136.5" class="st11" width="26.6" height="14"/>
	<rect x="88.1" y="136.5" class="st11" width="26.6" height="14"/>
	<rect x="116.7" y="136.5" class="st11" width="26.6" height="14"/>
	<rect x="59.5" y="152.5" class="st11" width="26.6" height="14"/>
	<rect x="88.1" y="152.5" class="st11" width="26.6" height="14"/>
	<rect x="116.7" y="152.5" class="st11" width="26.6" height="14"/>
	<text transform="matrix(1 0 0 1 68.9272 113.8934)"><tspan x="0" y="0" class="st15 st16 st17">1         2         3</tspan><tspan x="0" y="16.4" class="st15 st16 st17">4         5         6</tspan><tspan x="0" y="32.8" class="st15 st16 st17">7         8         9</tspan></text>
	<text transform="matrix(1 0 0 1 69.0942 164.5721)" class="st18 st16 st17">*</text>
	<text transform="matrix(1 0 0 1 126.7617 163.4051)" class="st18 st16 st17">#</text>
	<g>
		<circle class="st5" cx="101.5" cy="168.3" r="16"/>
		<path class="st19" d="M117.4,168.3h-0.3c0,4.3-1.8,8.2-4.6,11.1c-2.8,2.8-6.7,4.6-11.1,4.6c-4.3,0-8.2-1.8-11.1-4.6
			c-2.8-2.8-4.6-6.7-4.6-11.1c0-4.3,1.8-8.2,4.6-11.1c2.8-2.8,6.7-4.6,11.1-4.6c4.3,0,8.2,1.8,11.1,4.6c2.8,2.8,4.6,6.7,4.6,11.1
			H117.4h0.3c0-9-7.3-16.3-16.3-16.3c-9,0-16.3,7.3-16.3,16.3c0,9,7.3,16.3,16.3,16.3c9,0,16.3-7.3,16.3-16.3H117.4z"/>
		<path class="st20" d="M108.3,176c-1.6-2.9-4.7-4.7-4.7-4.7c-0.2,0.2-1.5,1.1-1.8,2.4c-1.3-0.8-4.1-2.7-5.5-6
			c1.2-0.4,1.9-1.5,2.1-1.7c0,0-1.8-3-4.6-4.6c0,0-1.7,1.2-1.8,2.8h0c0,0-0.6,3,4.9,8.7c4.7,4.8,7,5,8.4,4.8c0.2,0,0.4-0.1,0.7-0.1
			l0.1,0l0,0C107.4,177.2,108.3,176,108.3,176z"/>
		<path class="st20" d="M105.4,164.7L105.4,164.7L105.4,164.7L105.4,164.7c-0.9-0.9-2.2-1.2-3.3-0.7c-0.3,0.2-0.1,0.6,0.3,0.5l0,0
			l0,0l0,0l0,0c0.1,0,0.1,0,0.2-0.1c0.2-0.1,0.4-0.1,0.6-0.1c0.7,0,1.3,0.3,1.8,0.8c0.5,0.5,0.8,1.1,0.8,1.8c0,0.2,0,0.4-0.1,0.6
			c0,0.1,0,0.1-0.1,0.2l0,0l0,0l0,0l0,0c-0.1,0.3,0.3,0.6,0.5,0.3C106.6,166.8,106.3,165.5,105.4,164.7L105.4,164.7L105.4,164.7z
			 M107.3,162.6c1.5,1.5,2.4,3.4,2.3,5.4c0,0.9-0.2,1.9-0.5,2.7c-0.2,0.3-0.6,0-0.5-0.3l0-0.1l0,0l0,0l0-0.1
			c0.1-0.2,0.1-0.3,0.2-0.5c0.2-0.6,0.2-1.2,0.3-1.7c0-2-0.8-3.7-2.2-5.1c-1.4-1.4-3.2-2.3-5.1-2.2c-0.6,0-1.2,0.1-1.8,0.3
			c-0.2,0-0.3,0.1-0.5,0.2l-0.1,0l0,0l0,0c-0.3,0.2-0.6-0.3-0.3-0.5c0.8-0.4,1.8-0.5,2.7-0.5C103.9,160.2,105.8,161.1,107.3,162.6
			L107.3,162.6L107.3,162.6L107.3,162.6L107.3,162.6L107.3,162.6z"/>
	</g>
</g>
</svg>
