<?xml version="1.0" encoding="utf-8"?>
<!-- Generator: Adobe Illustrator 19.0.1, SVG Export Plug-In . SVG Version: 6.00 Build 0)  -->
<svg version="1.1" id="ico" xmlns="http://www.w3.org/2000/svg" xmlns:xlink="http://www.w3.org/1999/xlink" x="0px" y="0px"
	 viewBox="0 0 401 423" style="enable-background:new 0 0 401 423;" xml:space="preserve">
<style type="text/css">
	.st0{fill-rule:evenodd;clip-rule:evenodd;fill:#57A2E8;}
	.st1{clip-path:url(#SVGID_2_);}
	.st2{fill:#83CA28;}
	.st3{fill-rule:evenodd;clip-rule:evenodd;fill:#FFFFFF;}
	.st4{fill-rule:evenodd;clip-rule:evenodd;fill:#ECF0F1;}
	.st5{fill-rule:evenodd;clip-rule:evenodd;fill:#CBD8DB;}
	.st6{fill-rule:evenodd;clip-rule:evenodd;fill:#D48600;}
	.st7{fill-rule:evenodd;clip-rule:evenodd;fill:#FFD053;}
	.st8{fill:#ECF0F1;}
	.st9{fill:#FFFFFF;}
	.st10{fill-rule:evenodd;clip-rule:evenodd;fill:#F39A00;}
	.st11{fill-rule:evenodd;clip-rule:evenodd;fill:#E1564B;}
	.st12{fill-rule:evenodd;clip-rule:evenodd;fill:#C94E44;}
	.st13{fill:#FFD053;}
	.st14{fill:#F39A00;}
	.st15{fill:#45853D;}
	.st16{fill:#A2DD3B;}
	.st17{fill-rule:evenodd;clip-rule:evenodd;fill:#CFECFF;}
	.st18{opacity:0.5804;}
	.st19{fill-rule:evenodd;clip-rule:evenodd;fill:#A06500;}
	.st20{opacity:0.302;}
	.st21{fill-rule:evenodd;clip-rule:evenodd;fill:#284259;}
	.st22{fill-rule:evenodd;clip-rule:evenodd;fill:#C3C6CA;}
	.st23{fill-rule:evenodd;clip-rule:evenodd;fill:#83CA28;}
	.st24{clip-path:url(#SVGID_4_);}
	.st25{fill-rule:evenodd;clip-rule:evenodd;fill:#A2DD3B;}
</style>
<g id="Ellipse_44">
	<g>
		<circle class="st0" cx="200" cy="200" r="200"/>
	</g>
</g>
<g>
	<defs>
		<circle id="SVGID_1_" cx="200" cy="200" r="200"/>
	</defs>
	<clipPath id="SVGID_2_">
		<use xlink:href="#SVGID_1_"  style="overflow:visible;"/>
	</clipPath>
	<g id="Ellipse_43_copy_2" class="st1">
		<g>
			<path class="st2" d="M102,253c-17.6,0-32.9,9.4-41.3,23.5c-4.2-2.2-9.1-3.5-14.2-3.5C29.7,273,16,286.7,16,303.5
				S29.7,334,46.5,334c6.1,0,11.8-1.8,16.6-4.9C71.8,341.1,86,349,102,349c26.5,0,48-21.5,48-48S128.5,253,102,253z M332,255
				c-26.5,0-48,21.5-48,48s21.5,48,48,48s48-21.5,48-48S358.5,255,332,255z M329,249c7.2,0,13-5.8,13-13s-5.8-13-13-13
				s-13,5.8-13,13S321.8,249,329,249z"/>
		</g>
	</g>
	<g id="Rectangle_95_copy_2" class="st1">
		<g>
			<rect x="11" y="328" class="st3" width="362" height="80"/>
		</g>
	</g>
	<g id="Ellipse_45_copy_5" class="st1">
		<g>
			<path class="st2" d="M220,371c-6,0-11.5,2-15.9,5.4c-3.1-2.7-7.1-4.4-11.6-4.4c-7.4,0-13.7,4.6-16.3,11.1c-1.6-2.2-3.7-4-6.1-5.2
				c0.7-2.7,1.2-5.5,1.2-8.4c0-16.9-13.6-30.5-30.4-30.5c-13.6,0-25.1,9-29,21.4c-0.5,0-0.9,0-1.4,0c-3.2,0-6.3,0.6-9.2,1.7
				c0.5-1.4,0.7-3,0.7-4.5c0-8-6.5-14.5-14.5-14.5S73,349.5,73,357.5S79.5,372,87.5,372c0.6,0,1.1,0,1.6-0.1c-2.6,4-4.1,8.8-4.1,14
				c0,14.1,11.4,25.6,25.5,25.6c3.6,0,7-0.8,10.1-2.1c3.2,4.7,8.5,7.8,14.6,7.8c6.9,0,12.8-3.9,15.7-9.7c3,2.5,6.9,4,11.2,4
				c7.5,0,13.9-4.7,16.5-11.4c3.2,4.2,8.2,6.9,13.9,6.9c1.2,0,2.3-0.1,3.4-0.3c3.8,9.6,13.2,16.3,24.1,16.3c14.4,0,26-11.6,26-26
				C246,382.6,234.4,371,220,371z"/>
		</g>
	</g>
	<g id="Rectangle_95" class="st1">
		<g>
			<rect x="11" y="319" class="st4" width="362" height="9"/>
		</g>
	</g>
	<g id="Rectangle_95_copy" class="st1">
		<g>
			<rect x="11" y="324" class="st5" width="362" height="4"/>
		</g>
	</g>
</g>
<g id="Rectangle_98">
	<g>
		<rect x="179" y="46" class="st6" width="55" height="273"/>
	</g>
</g>
<g id="Ellipse_1_copy">
	<g>
		<circle class="st7" cx="91" cy="97" r="23"/>
	</g>
</g>
<g id="Ellipse_2_copy_4">
	<g>
		<path class="st8" d="M161,118.7c0-6.8-5.4-12.3-12.1-12.3c-1.1,0-2.1,0.2-3.1,0.4c-0.8-9.4-8.6-16.8-18.1-16.8
			c-7.4,0-13.7,4.4-16.6,10.8c-2.5-1.6-5.5-2.6-8.7-2.6c-8.9,0-16.2,7.3-16.2,16.4c0,9,7.2,16.4,16.2,16.4c0.7,0,1.4-0.1,2-0.1v0.1
			h44.5v0C155.6,130.9,161,125.4,161,118.7z"/>
	</g>
</g>
<g id="Ellipse_2_copy_4_1_">
	<g>
		<path class="st9" d="M143.8,116.8c-1.4,0-2.7,0.2-3.9,0.5c-1-12-11-21.3-23.1-21.3c-9.4,0-17.4,5.6-21.1,13.7
			c-3.2-2.1-7-3.3-11.1-3.3c-11.4,0-20.6,9.3-20.6,20.8c0,11.5,9.2,20.8,20.6,20.8c0.9,0,1.7-0.1,2.5-0.2v0.2h56.7
			c8.5,0,15.4-7,15.4-15.6C159.3,123.8,152.4,116.8,143.8,116.8z"/>
	</g>
</g>
<g id="Rectangle_98_copy">
	<g>
		<rect x="137" y="46" class="st10" width="42" height="273"/>
	</g>
</g>
<g id="_x30_2">
	<g id="Rectangle_94">
		<g>
			<polygon class="st3" points="253,75 234,103 272,103 272,75 			"/>
		</g>
	</g>
	<g id="Rectangle_93_copy_2">
		<g>
			<polygon class="st7" points="307.9,75 253,75 272.1,103 327,103 			"/>
		</g>
	</g>
	<g id="Rectangle_93_copy">
		<g>
			<rect x="234" y="103" class="st3" width="38" height="216"/>
		</g>
	</g>
	<g id="Rectangle_93">
		<g>
			<rect x="272" y="103" class="st11" width="55" height="216"/>
		</g>
	</g>
	<g id="Rectangle_93_copy_3">
		<g>
			<polygon class="st12" points="272,103 323,319 327,319 327,103 			"/>
		</g>
	</g>
	<g id="Rectangle_97">
		<g>
			<rect x="247" y="115" class="st10" width="10" height="20"/>
		</g>
	</g>
	<g id="Rectangle_97_copy">
		<g>
			<rect x="247" y="155" class="st10" width="10" height="20"/>
		</g>
	</g>
	<g id="Rectangle_97_copy_2">
		<g>
			<rect x="247" y="195" class="st10" width="10" height="20"/>
		</g>
	</g>
	<g id="Rectangle_97_copy_3">
		<g>
			<rect x="247" y="235" class="st10" width="10" height="20"/>
		</g>
	</g>
</g>
<g id="Rectangle_99_copy_6">
	<g>
		<path class="st13" d="M137,56v10h42V56H137z M137,86h42V76h-42V86z M137,106h42V96h-42V106z M137,126h42v-10h-42V126z M137,146h42
			v-10h-42V146z M137,166h42v-10h-42V166z M137,186h42v-10h-42V186z M137,206h42v-10h-42V206z M137,226h42v-10h-42V226z M137,246h42
			v-10h-42V246z M137,266h42v-10h-42V266z M137,286h42v-10h-42V286z M137,306h42v-10h-42V306z"/>
	</g>
</g>
<g id="Rectangle_99_copy_7">
	<g>
		<path class="st14" d="M179,56v10h55V56H179z M179,86h55V76h-55V86z M179,106h55V96h-55V106z M179,126h55v-10h-55V126z M179,146h55
			v-10h-55V146z M179,166h55v-10h-55V166z M179,186h55v-10h-55V186z M179,206h55v-10h-55V206z M179,226h55v-10h-55V226z M179,246h55
			v-10h-55V246z M179,266h55v-10h-55V266z M179,286h55v-10h-55V286z M179,306h55v-10h-55V306z"/>
	</g>
</g>
<g id="Rectangle_99">
	<g>
		<polygon class="st7" points="160,18 137,46 189,46 189,18 		"/>
	</g>
</g>
<g id="Rectangle_93_copy_4">
	<g>
		<polygon class="st11" points="214.9,18 160,18 179.1,46 234,46 		"/>
	</g>
</g>
<g id="Ellipse_45_copy">
	<g>
		<path class="st15" d="M306.2,280.4c0.5-1.9,0.8-3.8,0.8-5.9c0-11.9-9.6-21.5-21.5-21.5c-9.6,0-17.8,6.3-20.5,15c-0.3,0-0.7,0-1,0
			c-9.9,0-18,8.1-18,18s8.1,18,18,18c2.5,0,5-0.5,7.2-1.5c2.2,3.3,6,5.5,10.3,5.5c4.8,0,9-2.8,11.1-6.8c2.2,1.8,4.9,2.8,7.9,2.8
			c6.9,0,12.5-5.6,12.5-12.5C313,286.6,310.2,282.4,306.2,280.4z"/>
	</g>
</g>
<g id="Ellipse_45_copy_2">
	<g>
		<path class="st16" d="M303.2,278.4c0.5-1.9,0.8-3.8,0.8-5.9c0-11.9-9.6-21.5-21.5-21.5c-9.6,0-17.8,6.3-20.5,15c-0.3,0-0.7,0-1,0
			c-9.9,0-18,8.1-18,18s8.1,18,18,18c2.5,0,5-0.5,7.2-1.5c2.2,3.3,6,5.5,10.3,5.5c4.8,0,9-2.8,11.1-6.8c2.2,1.8,4.9,2.8,7.9,2.8
			c6.9,0,12.5-5.6,12.5-12.5C310,284.6,307.2,280.4,303.2,278.4z"/>
	</g>
</g>
<g id="Rectangle_100">
	<g>
		<rect x="74" y="249" class="st7" width="118" height="70"/>
	</g>
</g>
<g id="Rectangle_100_copy_2">
	<g>
		<rect x="74" y="249" class="st10" width="118" height="2"/>
	</g>
</g>
<g id="Rectangle_102">
	<g>
		<rect x="150" y="261" class="st6" width="34" height="58"/>
	</g>
</g>
<g id="Rectangle_102_copy_2">
	<g>
		<rect x="85" y="261" class="st6" width="55" height="38"/>
	</g>
</g>
<g id="Rectangle_102_copy">
	<g>
		<rect x="152" y="263" class="st3" width="30" height="56"/>
	</g>
</g>
<g id="Rectangle_102_copy_3">
	<g>
		<rect x="87" y="263" class="st17" width="51" height="34"/>
	</g>
</g>
<g id="Rectangle_103">
	<g>
		<rect x="155" y="266" class="st17" width="24" height="31"/>
	</g>
</g>
<g id="Rectangle_101" class="st18">
	<g>
		<polygon class="st19" points="192,229 192,319 223,319 		"/>
	</g>
</g>
<g id="Rectangle_101_copy" class="st20">
	<g>
		<polygon class="st19" points="179,46 234,240 234,46 		"/>
	</g>
</g>
<g id="Rectangle_100_copy">
	<g>
		<rect x="71" y="223" class="st11" width="124" height="26"/>
	</g>
</g>
<g id="Ellipse_45_copy_3">
	<g>
		<path class="st15" d="M102.9,319c0.1-0.5,0.1-1,0.1-1.5c0-3.7-2.1-6.8-5.2-8.4c0.4-1.4,0.6-2.9,0.6-4.4c0-9-7.3-16.2-16.3-16.2
			c-7.3,0-13.5,4.8-15.5,11.3c-0.2,0-0.5,0-0.8,0c-7.5,0-13.6,6.1-13.6,13.6c0,2,0.4,3.9,1.2,5.6H102.9z"/>
	</g>
</g>
<g id="Ellipse_45_copy_3_1_">
	<g>
		<path class="st16" d="M100.2,319c0.3-0.9,0.5-1.9,0.5-3c0-3.7-2.1-6.8-5.2-8.4c0.4-1.4,0.6-2.9,0.6-4.4c0-9-7.3-16.2-16.3-16.2
			c-7.3,0-13.5,4.8-15.5,11.3c-0.2,0-0.5,0-0.8,0c-7.5,0-13.6,6.1-13.6,13.6c0,2.6,0.8,5,2,7.1H100.2z"/>
	</g>
</g>
<g id="Ellipse_45_copy_4">
	<g>
		<path class="st15" d="M247.9,319c0.1-0.5,0.1-1,0.1-1.5c0-3.7-2.1-6.8-5.2-8.4c0.4-1.4,0.6-2.9,0.6-4.4c0-9-7.3-16.2-16.3-16.2
			c-7.3,0-13.5,4.8-15.5,11.3c-0.2,0-0.5,0-0.8,0c-7.5,0-13.6,6.1-13.6,13.6c0,2,0.4,3.9,1.2,5.6H247.9z"/>
	</g>
</g>
<g id="Ellipse_45_copy_4_1_">
	<g>
		<path class="st16" d="M245.2,319c0.3-0.9,0.5-1.9,0.5-3c0-3.7-2.1-6.8-5.2-8.4c0.4-1.4,0.6-2.9,0.6-4.4c0-9-7.3-16.2-16.3-16.2
			c-7.3,0-13.5,4.8-15.5,11.3c-0.2,0-0.5,0-0.8,0c-7.5,0-13.6,6.1-13.6,13.6c0,2.6,0.8,5,2,7.1H245.2z"/>
	</g>
</g>
<path class="st21" d="M117,305c0.6,0,1-0.4,1-1v-1c0-0.6-0.4-1-1-1h-7v-1c0-0.6-0.4-1-1-1h-1c-0.6,0-1,0.4-1,1v1H59v-1
	c0-0.6-0.4-1-1-1h-1c-0.6,0-1,0.4-1,1v1h-7c-0.6,0-1,0.4-1,1v1c0,0.6,0.4,1,1,1h7v7h-7c-0.6,0-1,0.4-1,1v1c0,0.6,0.4,1,1,1h7v4h3v-4
	h48v4h3v-4h7c0.6,0,1-0.4,1-1v-1c0-0.6-0.4-1-1-1h-7v-7H117z M107,312H59v-7h48V312z"/>
<g id="logo_xA0_Image_1_">
</g>
<g id="Group_4_1_">
	<g id="Ellipse_47">
		<g>
			<circle class="st22" cx="326" cy="327" r="75"/>
		</g>
	</g>
	<g id="Ellipse_47_copy_3">
		<g>
			<circle class="st3" cx="325" cy="326" r="75"/>
		</g>
	</g>
	<g id="Ellipse_47_copy">
		<g>
			<circle class="st23" cx="325" cy="326" r="70"/>
		</g>
	</g>
	<g>
		<defs>
			<circle id="SVGID_3_" cx="322" cy="323" r="70"/>
		</defs>
		<clipPath id="SVGID_4_">
			<use xlink:href="#SVGID_3_"  style="overflow:visible;"/>
		</clipPath>
		<g id="Ellipse_47_copy_2_" class="st24">
			<g>
				<circle class="st25" cx="325" cy="326" r="70"/>
			</g>
		</g>
	</g>
	<g id="Shape_1">
		<g>
			<path class="st9" d="M356.3,355c-7-12.5-20.2-20.2-20.2-20.2c-0.8,0.8-6.4,4.8-7.8,10.5c-5.7-3.3-17.8-11.7-23.9-25.8
				c5-1.8,8.4-6.5,9.2-7.3c0,0-7.5-13-19.8-19.8c0,0-7.1,5.1-7.7,12.2l0,0c0,0-2.7,12.9,21.1,37.3c20.1,20.7,30.1,21.7,36.4,20.8
				c1.1-0.1,2.1-0.3,3.1-0.6c0,0,0,0,0,0l0,0C352.4,360.4,356.3,355,356.3,355z"/>
		</g>
	</g>
	<g id="Shape_2">
		<g>
			<path class="st9" d="M343.7,306.3C343.7,306.2,343.7,306.2,343.7,306.3C343.6,306.2,343.6,306.2,343.7,306.3
				c-0.1-0.1-0.1-0.1-0.1-0.1c-3.6-3.6-9.2-5.2-14-3c-1.4,0.7-0.2,2.8,1.2,2.1c0,0,0,0,0,0c0,0,0,0,0,0c0.3-0.1,0.5-0.2,0.8-0.3
				c0.8-0.2,1.7-0.4,2.6-0.4c3-0.1,5.7,1.3,7.8,3.3c2.1,2.1,3.4,4.8,3.4,7.8c0,0.9-0.2,1.7-0.4,2.6c-0.1,0.3-0.2,0.5-0.3,0.8
				c0,0,0,0,0,0c0,0,0,0,0,0c-0.7,1.4,1.5,2.6,2.1,1.2C348.9,315.5,347.3,309.9,343.7,306.3C343.7,306.3,343.7,306.3,343.7,306.3z
				 M351.9,297.4C351.9,297.4,351.8,297.4,351.9,297.4c-0.1-0.1-0.1-0.1-0.1-0.1c0,0-0.1-0.1-0.1-0.1c0,0,0,0,0,0
				c-6.3-6.3-14.5-10.2-23.4-10.1c-3.9,0-8.2,0.7-11.8,2.4c-1.4,0.7-0.2,2.8,1.2,2.1c0.1,0,0.1-0.1,0.2-0.1c0,0,0,0,0.1,0
				c0.1,0,0.2-0.1,0.3-0.1c0.7-0.3,1.4-0.5,2.2-0.7c2.5-0.7,5.1-1.1,7.7-1.1c8.5-0.2,16.2,3.6,22.1,9.5c6,5.9,9.7,13.6,9.6,22.1
				c0,2.5-0.4,5.1-1.1,7.5c-0.2,0.8-0.4,1.5-0.7,2.2c0,0.1-0.1,0.2-0.1,0.3c0,0,0,0,0,0c0,0,0,0,0,0c0,0.1-0.1,0.2-0.1,0.2
				c-0.7,1.4,1.5,2.6,2.1,1.2c1.7-3.6,2.3-7.8,2.4-11.8C362.1,311.9,358.1,303.7,351.9,297.4z"/>
		</g>
	</g>
</g>
<g>
	<path class="st3" d="M101.7,229.1v2.3h-3.6v10.3h-2.9v-10.3h-3.6v-2.3H101.7L101.7,229.1z M111.1,229.1v2.3h-5.2v3h4v2.2h-4v3h5.2
		v2.3H103v-12.7H111.1L111.1,229.1z M136.7,235.5c0,0.9-0.2,1.8-0.5,2.6c-0.3,0.8-0.8,1.5-1.3,2.1c-0.6,0.6-1.3,1-2.1,1.4
		c-0.8,0.3-1.7,0.5-2.7,0.5c-1,0-1.9-0.2-2.7-0.5c-0.8-0.3-1.5-0.8-2.1-1.4c-0.6-0.6-1-1.3-1.3-2.1c-0.3-0.8-0.5-1.6-0.5-2.6
		c0-0.9,0.2-1.8,0.5-2.6c0.3-0.8,0.8-1.5,1.3-2.1c0.6-0.6,1.3-1,2.1-1.4c0.8-0.3,1.7-0.5,2.7-0.5c1,0,1.9,0.2,2.7,0.5
		c0.8,0.3,1.5,0.8,2.1,1.4c0.6,0.6,1,1.3,1.3,2.1C136.5,233.7,136.7,234.6,136.7,235.5L136.7,235.5z M133.7,235.5
		c0-0.6-0.1-1.2-0.2-1.7c-0.2-0.5-0.4-0.9-0.7-1.3c-0.3-0.3-0.7-0.6-1.1-0.8c-0.4-0.2-0.9-0.3-1.5-0.3c-0.6,0-1.1,0.1-1.5,0.3
		c-0.4,0.2-0.8,0.5-1.1,0.8c-0.3,0.3-0.5,0.8-0.7,1.3c-0.2,0.5-0.2,1.1-0.2,1.7c0,0.6,0.1,1.2,0.2,1.7c0.2,0.5,0.4,0.9,0.7,1.3
		c0.3,0.3,0.7,0.6,1.1,0.8c0.4,0.2,0.9,0.3,1.5,0.3c0.6,0,1.1-0.1,1.5-0.3c0.4-0.2,0.8-0.4,1.1-0.8c0.3-0.3,0.5-0.8,0.7-1.3
		C133.6,236.7,133.7,236.1,133.7,235.5L133.7,235.5z M139.6,229.1c0.1,0,0.2,0,0.3,0c0.1,0,0.2,0,0.2,0.1c0.1,0,0.1,0.1,0.2,0.1
		c0.1,0.1,0.1,0.1,0.2,0.2l6,7.6c0-0.2,0-0.5-0.1-0.7c0-0.2,0-0.4,0-0.6v-6.7h2.6v12.7h-1.5c-0.2,0-0.4,0-0.6-0.1
		c-0.2-0.1-0.3-0.2-0.5-0.4l-6-7.5c0,0.2,0,0.4,0,0.6c0,0.2,0,0.4,0,0.6v6.8h-2.6v-12.7H139.6L139.6,229.1z M154.4,241.8h-3v-12.7h3
		V241.8L154.4,241.8z M163.8,231.7c-0.1,0.1-0.2,0.2-0.3,0.3c-0.1,0.1-0.2,0.1-0.4,0.1c-0.1,0-0.3,0-0.4-0.1
		c-0.2-0.1-0.3-0.2-0.5-0.3c-0.2-0.1-0.4-0.2-0.7-0.3c-0.2-0.1-0.5-0.1-0.9-0.1c-0.6,0-1,0.1-1.2,0.4c-0.3,0.2-0.4,0.6-0.4,0.9
		c0,0.3,0.1,0.5,0.2,0.6c0.2,0.2,0.4,0.3,0.6,0.4c0.3,0.1,0.6,0.2,0.9,0.3c0.3,0.1,0.7,0.2,1,0.3c0.4,0.1,0.7,0.3,1,0.4
		c0.3,0.2,0.6,0.4,0.9,0.6c0.3,0.3,0.5,0.6,0.6,1c0.2,0.4,0.2,0.8,0.2,1.4c0,0.6-0.1,1.1-0.3,1.6c-0.2,0.5-0.5,1-0.9,1.3
		c-0.4,0.4-0.9,0.7-1.4,0.9c-0.6,0.2-1.2,0.3-1.9,0.3c-0.4,0-0.8,0-1.2-0.1c-0.4-0.1-0.8-0.2-1.2-0.3c-0.4-0.1-0.7-0.3-1.1-0.5
		c-0.3-0.2-0.6-0.4-0.9-0.7l0.9-1.4c0.1-0.1,0.2-0.2,0.3-0.3c0.1-0.1,0.2-0.1,0.4-0.1c0.2,0,0.4,0.1,0.5,0.2
		c0.2,0.1,0.4,0.2,0.6,0.4c0.2,0.1,0.5,0.3,0.8,0.4c0.3,0.1,0.6,0.2,1,0.2c0.5,0,0.9-0.1,1.2-0.4c0.3-0.2,0.4-0.6,0.4-1.1
		c0-0.3-0.1-0.5-0.2-0.7c-0.2-0.2-0.4-0.3-0.6-0.5c-0.3-0.1-0.6-0.2-0.9-0.3c-0.3-0.1-0.7-0.2-1-0.3c-0.4-0.1-0.7-0.3-1-0.4
		c-0.3-0.2-0.6-0.4-0.9-0.7c-0.3-0.3-0.5-0.6-0.6-1c-0.2-0.4-0.2-0.9-0.2-1.5c0-0.5,0.1-0.9,0.3-1.4c0.2-0.5,0.5-0.9,0.8-1.2
		c0.4-0.4,0.8-0.6,1.4-0.8c0.5-0.2,1.2-0.3,1.9-0.3c0.4,0,0.8,0,1.1,0.1c0.4,0.1,0.7,0.2,1,0.3c0.3,0.1,0.6,0.3,0.9,0.4
		c0.3,0.2,0.5,0.4,0.8,0.6L163.8,231.7L163.8,231.7z M172.5,237.1v4.7h-2.9v-4.7l-4.6-7.9h2.6c0.3,0,0.5,0.1,0.6,0.2
		c0.2,0.1,0.3,0.3,0.4,0.5l1.8,3.8c0.1,0.3,0.3,0.6,0.4,0.8c0.1,0.3,0.2,0.5,0.3,0.8c0.1-0.3,0.2-0.5,0.3-0.8
		c0.1-0.3,0.3-0.5,0.4-0.8l1.8-3.8c0-0.1,0.1-0.2,0.1-0.2c0.1-0.1,0.1-0.1,0.2-0.2c0.1-0.1,0.2-0.1,0.3-0.2c0.1,0,0.2-0.1,0.3-0.1
		h2.6L172.5,237.1z"/>
	<g>
		<path class="st3" d="M118.3,229c1.8,0,3.4,0.7,4.6,1.9l-1.6,1.6c-0.8-0.8-1.8-1.2-3-1.2c-2.3,0-4.2,1.9-4.2,4.2
			c0,1.1,0.4,2,1.1,2.8c-0.3,0.4-0.7,0.8-1.2,1.1c0.4,0.1,0.8,0,1.2,0c0.3-0.1,0.6-0.2,0.8-0.3c0.7,0.4,1.4,0.7,2.3,0.7
			c1.2,0,2.2-0.5,3-1.2l1.6,1.6c-1.2,1.2-2.8,1.9-4.6,1.9c-3.6,0-6.5-2.9-6.5-6.5C111.9,231.9,114.8,229,118.3,229z"/>
		<path class="st3" d="M116.7,235.1h3.2c0.2,0,0.4,0.2,0.4,0.4l0,0c0,0.2-0.2,0.4-0.4,0.4h-3.2c-0.2,0-0.4-0.2-0.4-0.4l0,0
			C116.3,235.2,116.5,235.1,116.7,235.1L116.7,235.1z M116.7,233.5h3.2c0.2,0,0.4,0.2,0.4,0.4l0,0c0,0.2-0.2,0.4-0.4,0.4h-3.2
			c-0.2,0-0.4-0.2-0.4-0.4l0,0C116.3,233.6,116.5,233.5,116.7,233.5L116.7,233.5z M116.7,236.7h3.2c0.2,0,0.4,0.2,0.4,0.4l0,0
			c0,0.2-0.2,0.4-0.4,0.4h-3.2c-0.2,0-0.4-0.2-0.4-0.4l0,0C116.3,236.8,116.5,236.7,116.7,236.7z"/>
	</g>
</g>
</svg>
