<?xml version="1.0" encoding="utf-8"?>
<!-- Generator: Adobe Illustrator 19.0.1, SVG Export Plug-In . SVG Version: 6.00 Build 0)  -->
<svg version="1.1" id="svg14712" xmlns="http://www.w3.org/2000/svg" xmlns:xlink="http://www.w3.org/1999/xlink" x="0px" y="0px"
	 viewBox="214 285.9 1024 271" style="enable-background:new 214 285.9 1024 271;" xml:space="preserve">
<style type="text/css">
	.st0{fill:#003087;}
	.st1{fill:#002F86;}
	.st2{fill:#009CDE;}
	.st3{fill:#012069;}
</style>
<path id="path14499" class="st0" d="M405.1,311.5c-11.8-13.5-33.2-19.3-60.6-19.3h-79.5c-5.6,0-10.4,4.1-11.2,9.6l-33.1,209.8
	c-0.7,4.1,2.5,7.9,6.7,7.9h49.1l12.3-78.1l-0.4,2.4c0.9-5.5,5.6-9.6,11.2-9.6H323c45.8,0,81.6-18.6,92.1-72.4
	c0.3-1.6,0.6-3.1,0.8-4.7c-1.3-0.7-1.3-0.7,0,0C419,337.3,415.9,323.7,405.1,311.5"/>
<path id="path14519" class="st1" d="M911.9,410.7h-26.4c-2.5,0-4.9,1.3-6.3,3.3l-36.4,53.6l-15.4-51.5c-1-3.2-3.9-5.4-7.3-5.4h-25.9
	c-3.1,0-5.3,3.1-4.3,6l29.1,85.3l-27.3,38.6c-2.1,3,0,7.2,3.7,7.2h26.4c2.5,0,4.8-1.2,6.3-3.3l87.8-126.7
	C917.8,414.8,915.6,410.7,911.9,410.7 M735.4,461.8c-2.5,15-14.4,25.1-29.6,25.1c-7.6,0-13.7-2.5-17.6-7.1
	c-3.9-4.6-5.3-11.2-4.1-18.4c2.4-14.9,14.5-25.3,29.4-25.3c7.5,0,13.5,2.5,17.5,7.2C735,448,736.6,454.6,735.4,461.8 M772,410.7
	h-26.3c-2.2,0-4.2,1.6-4.5,3.9l-1.2,7.3l-1.8-2.7c-5.7-8.3-18.4-11-31-11c-29,0-53.8,22-58.6,52.8c-2.5,15.4,1.1,30.1,9.8,40.4
	c8,9.4,19.4,13.4,33.1,13.4c23.4,0,36.4-15,36.4-15l-1.2,7.3c-0.4,2.8,1.7,5.3,4.5,5.3h23.6c3.8,0,6.9-2.7,7.5-6.4l14.2-89.9
	C777,413.2,774.8,410.7,772,410.7 M614.4,411.3c-3,19.7-18,19.7-32.6,19.7h-8.3l5.8-36.8c0.3-2.2,2.3-3.9,4.5-3.9h3.8
	c9.9,0,19.2,0,24.1,5.6C614.6,399.4,615.5,404.4,614.4,411.3 M608.1,360h-54.8c-3.8,0-6.9,2.7-7.5,6.4L523.5,507
	c-0.4,2.8,1.7,5.3,4.5,5.3h26.2c3.7,0,6.9-2.7,7.5-6.4l6-37.9c0.6-3.7,3.8-6.4,7.5-6.4h17.4c36.1,0,57-17.5,62.4-52.1
	c2.5-15.1,0.1-27.1-7-35.4C640.3,364.8,626.4,360,608.1,360"/>
<path id="path14523" class="st2" d="M1194.2,363.8L1171.7,507c-0.4,2.8,1.7,5.3,4.5,5.3h22.6c3.7,0,6.9-2.7,7.5-6.4l22.2-140.6
	c0.4-2.8-1.7-5.3-4.5-5.3h-25.3C1196.5,360,1194.5,361.6,1194.2,363.8 M1126.6,461.8c-2.5,15-14.4,25.1-29.6,25.1
	c-7.6,0-13.7-2.5-17.6-7.1c-3.9-4.6-5.3-11.2-4.1-18.4c2.4-14.9,14.5-25.3,29.4-25.3c7.5,0,13.5,2.5,17.5,7.2
	C1126.2,448,1127.8,454.6,1126.6,461.8 M1163.2,410.7H1137c-2.2,0-4.2,1.6-4.5,3.9l-1.2,7.3l-1.8-2.7c-5.7-8.3-18.4-11-31-11
	c-29,0-53.8,22-58.6,52.8c-2.5,15.4,1.1,30.1,9.8,40.4c8,9.4,19.4,13.4,33.1,13.4c23.4,0,36.4-15,36.4-15l-1.2,7.3
	c-0.4,2.8,1.7,5.3,4.5,5.3h23.6c3.8,0,6.9-2.7,7.5-6.4l14.2-89.9C1168.2,413.2,1166,410.7,1163.2,410.7 M1005.6,411.3
	c-3,19.7-18,19.7-32.6,19.7h-8.3l5.8-36.8c0.3-2.2,2.3-3.9,4.5-3.9h3.8c9.9,0,19.2,0,24.1,5.6
	C1005.8,399.4,1006.7,404.4,1005.6,411.3 M999.3,360h-54.8c-3.8,0-6.9,2.7-7.5,6.4L914.7,507c-0.4,2.8,1.7,5.3,4.5,5.3h28.1
	c2.6,0,4.9-1.9,5.3-4.5l6.3-39.9c0.6-3.7,3.8-6.4,7.5-6.4h17.4c36.1,0,57-17.5,62.4-52.1c2.5-15.1,0.1-27.1-7-35.4
	C1031.5,364.8,1017.6,360,999.3,360"/>
<path id="path14527" class="st0" d="M405.1,311.5c-11.8-13.5-33.2-19.3-60.6-19.3h-79.5c-5.6,0-10.4,4.1-11.2,9.6l-33.1,209.8
	c-0.7,4.1,2.5,7.9,6.7,7.9h49.1l12.3-78.1l-0.4,2.4c0.9-5.5,5.6-9.6,11.2-9.6H323c45.8,0,81.6-18.6,92.1-72.4
	c0.3-1.6,0.6-3.1,0.8-4.7c-1.3-0.7-1.3-0.7,0,0C419,337.3,415.9,323.7,405.1,311.5"/>
<path id="path14531" class="st1" d="M302.1,357.4c0.5-3.3,2.7-6,5.5-7.4c1.3-0.6,2.8-1,4.3-1h62.3c7.4,0,14.3,0.5,20.5,1.5
	c1.8,0.3,3.6,0.6,5.2,1c1.7,0.4,3.3,0.8,4.9,1.3c0.8,0.2,1.6,0.5,2.4,0.7c3.1,1,6,2.2,8.6,3.6c3.1-19.9,0-33.4-10.8-45.7
	c-11.8-13.5-33.2-19.3-60.6-19.3h-79.5c-5.6,0-10.4,4.1-11.2,9.6l-33.1,209.8c-0.7,4.1,2.5,7.9,6.7,7.9h49.1l12.3-78.1L302.1,357.4
	L302.1,357.4z"/>
<path id="path14535" class="st2" d="M415.9,357.2L415.9,357.2c-0.2,1.5-0.5,3.1-0.8,4.7c-10.5,53.8-46.3,72.4-92.1,72.4h-23.3
	c-5.6,0-10.3,4.1-11.2,9.6l-11.9,75.7l-3.4,21.5c-0.6,3.6,2.2,6.9,5.9,6.9h41.3c4.9,0,9.1-3.6,9.8-8.4l0.4-2.1l7.8-49.4l0.5-2.7
	c0.8-4.8,4.9-8.4,9.8-8.4h6.2c40.1,0,71.4-16.3,80.6-63.3c3.8-19.7,1.8-36.1-8.3-47.6C424.2,362.4,420.4,359.5,415.9,357.2"/>
<path id="path14539" class="st3" d="M405,352.8c-1.6-0.5-3.2-0.9-4.9-1.3c-1.7-0.4-3.5-0.7-5.2-1c-6.3-1-13.2-1.5-20.6-1.5h-62.3
	c-1.5,0-3,0.3-4.3,1c-2.9,1.4-5,4.1-5.5,7.4l-13.2,83.9l-0.4,2.4c0.9-5.5,5.6-9.6,11.2-9.6H323c45.8,0,81.6-18.6,92.1-72.4
	c0.3-1.6,0.6-3.1,0.8-4.7c-2.7-1.4-5.5-2.6-8.6-3.6C406.5,353.3,405.8,353,405,352.8"/>
</svg>
