<?xml version="1.0" encoding="utf-8"?>
<!-- Generator: Adobe Illustrator 19.0.1, SVG Export Plug-In . SVG Version: 6.00 Build 0)  -->
<svg version="1.1" id="Layer_1" xmlns="http://www.w3.org/2000/svg" xmlns:xlink="http://www.w3.org/1999/xlink" x="0px" y="0px"
	 viewBox="0 0 200 200" style="enable-background:new 0 0 200 200;" xml:space="preserve">
<style type="text/css">
	.st0{fill-rule:evenodd;clip-rule:evenodd;fill:#569EE4;}
	.st1{fill-rule:evenodd;clip-rule:evenodd;fill:#4D8ECA;stroke:#4D8ECA;stroke-width:0.216;stroke-miterlimit:22.9256;}
	.st2{fill-rule:evenodd;clip-rule:evenodd;fill:#E1E6E9;}
	.st3{fill-rule:evenodd;clip-rule:evenodd;fill:#82CA28;}
	.st4{fill-rule:evenodd;clip-rule:evenodd;fill:#6B8C3F;}
	.st5{fill-rule:evenodd;clip-rule:evenodd;}
	.st6{fill-rule:evenodd;clip-rule:evenodd;fill:#C4C4C4;}
	.st7{fill-rule:evenodd;clip-rule:evenodd;fill:#E9EDF0;}
	.st8{fill-rule:evenodd;clip-rule:evenodd;fill:#FFFFFF;}
	.st9{fill-rule:evenodd;clip-rule:evenodd;fill:#284259;}
	.st10{fill-rule:evenodd;clip-rule:evenodd;fill:#7E7E7E;}
</style>
<circle class="st0" cx="100" cy="100" r="100"/>
<path class="st1" d="M155.7,46.9v136.2c14.6-9.8,26.5-23.4,34.2-39.3L155.7,46.9z"/>
<g>
	<path class="st2" d="M138.7,30.9H61c-9.4,0-17,7.6-17,16.9V60c-0.8,0-1.4,0.6-1.4,1.4v6.5c0,0.8,0.6,1.4,1.4,1.4v10.8l-0.2,0
		c-0.7,0-1.2,0.5-1.2,1.2v14.8c0,0.7,0.5,1.2,1.2,1.2l0.2,0v3.3l-0.2,0c-0.7,0-1.2,0.5-1.2,1.2v14.8c0,0.7,0.5,1.2,1.2,1.2l0.2,0
		v65.1c16,10.8,35.3,17.1,56,17.1c20.6,0,39.8-6.2,55.7-16.9V47.8C155.7,38.4,148.1,30.9,138.7,30.9z"/>
	<path class="st3" d="M50.5,186.9V58.3h98.8v128.8c-14.5,8.2-31.3,12.9-49.2,12.9C82,200,65.1,195.2,50.5,186.9z"/>
	<path class="st4" d="M148.7,58.8v128.5c0.3-0.2,0.7-0.4,1-0.6v-128v-1l0,0h-1H51h-1v1v127.8c0.3,0.2,0.7,0.4,1,0.6V58.8H148.7z"/>
	<rect x="51" y="58.8" class="st5" width="97.8" height="5.6"/>
	<path class="st6" d="M145.5,61.3v-0.9h-5.8v3h5.8v-0.9h0.6v-1.2H145.5L145.5,61.3z M145.2,63.1L145.2,63.1h-2.6v-2.4h2.6V63.1z"/>
	<path class="st6" d="M135.9,60.4c-0.8,0-1.5,0.7-1.5,1.5c0,0.8,0.7,1.5,1.5,1.5c0.8,0,1.5-0.7,1.5-1.5
		C137.4,61,136.7,60.4,135.9,60.4L135.9,60.4z M136.4,62.6L136.4,62.6l-0.6-0.6l0,0h0v-1h0.2v0.9l0.6,0.6L136.4,62.6z"/>
	<path class="st6" d="M94.4,63.2h-0.6v-2.3c-0.2,0.2-0.5,0.4-0.8,0.5v-0.5c0.2-0.1,0.3-0.1,0.5-0.3c0.2-0.1,0.3-0.3,0.4-0.5h0.5
		V63.2z"/>
	<path class="st6" d="M96.8,63.2v-0.6h-1.3V62l1.4-2h0.5v2h0.4v0.5h-0.4v0.6H96.8L96.8,63.2z M96.8,62L96.8,62V61L96.1,62H96.8z"/>
	<path class="st6" d="M98.7,61.5v-0.6h0.6v0.6H98.7L98.7,61.5z M98.7,63.2L98.7,63.2v-0.6h0.6v0.6H98.7z"/>
	<path class="st6" d="M100.9,60c0.3,0,0.5,0.1,0.7,0.3c0.2,0.3,0.3,0.7,0.3,1.3c0,0.6-0.1,1-0.3,1.3c-0.2,0.2-0.4,0.3-0.7,0.3
		c-0.3,0-0.6-0.1-0.7-0.4c-0.2-0.2-0.3-0.7-0.3-1.3c0-0.6,0.1-1,0.3-1.3C100.3,60.1,100.6,60,100.9,60L100.9,60z M100.9,60.5
		L100.9,60.5l-0.2,0.1c-0.1,0-0.1,0.1-0.1,0.2c0,0.2-0.1,0.4-0.1,0.8c0,0.4,0,0.6,0.1,0.8c0,0.1,0.1,0.2,0.1,0.3l0.2,0.1l0.2-0.1
		c0.1,0,0.1-0.1,0.1-0.2c0-0.2,0.1-0.4,0.1-0.8c0-0.4,0-0.6-0.1-0.8c0-0.1-0.1-0.2-0.1-0.3L100.9,60.5z"/>
	<path class="st6" d="M104.7,60.8l-0.6,0.1c0-0.1-0.1-0.2-0.1-0.3c-0.1-0.1-0.1-0.1-0.2-0.1c-0.1,0-0.2,0.1-0.3,0.2
		c-0.1,0.1-0.1,0.4-0.2,0.7c0.2-0.2,0.3-0.3,0.6-0.3c0.3,0,0.5,0.1,0.6,0.3c0.2,0.2,0.3,0.4,0.3,0.7c0,0.3-0.1,0.6-0.3,0.8
		c-0.2,0.2-0.4,0.3-0.7,0.3c-0.3,0-0.6-0.1-0.8-0.4c-0.2-0.2-0.3-0.7-0.3-1.2c0-0.6,0.1-1,0.3-1.2c0.2-0.3,0.5-0.4,0.8-0.4
		c0.2,0,0.4,0.1,0.6,0.2C104.5,60.4,104.6,60.6,104.7,60.8L104.7,60.8z M103.3,62.1L103.3,62.1c0,0.2,0,0.3,0.1,0.5
		c0.1,0.1,0.2,0.2,0.3,0.2c0.1,0,0.2,0,0.3-0.1c0.1-0.1,0.1-0.2,0.1-0.4c0-0.2,0-0.4-0.1-0.5c-0.1-0.1-0.2-0.1-0.3-0.1
		c-0.1,0-0.2,0-0.3,0.1C103.4,61.8,103.3,62,103.3,62.1z"/>
	<polygon class="st7" points="51.9,63.2 57.6,63.2 57.6,60.3 	"/>
	<path class="st8" d="M70.4,92.8v2h-3.1v8.9h-2.5v-8.9h-3.1v-2H70.4L70.4,92.8z M78.5,92.8L78.5,92.8v1.9H74v2.5h3.4v1.9H74v2.6h4.5
		v1.9h-7V92.8H78.5L78.5,92.8z M100.5,98.2L100.5,98.2c0,0.8-0.1,1.5-0.4,2.2c-0.3,0.7-0.7,1.3-1.2,1.8c-0.5,0.5-1.1,0.9-1.8,1.2
		c-0.7,0.3-1.5,0.4-2.3,0.4c-0.8,0-1.6-0.1-2.3-0.4c-0.7-0.3-1.3-0.7-1.8-1.2c-0.5-0.5-0.9-1.1-1.2-1.8c-0.3-0.7-0.4-1.4-0.4-2.2
		c0-0.8,0.1-1.5,0.4-2.2c0.3-0.7,0.7-1.3,1.2-1.8c0.5-0.5,1.1-0.9,1.8-1.2c0.7-0.3,1.5-0.4,2.3-0.4c0.8,0,1.6,0.1,2.3,0.4
		c0.7,0.3,1.3,0.7,1.8,1.2c0.5,0.5,0.9,1.1,1.2,1.8C100.4,96.7,100.5,97.4,100.5,98.2L100.5,98.2z M97.9,98.2L97.9,98.2
		c0-0.5-0.1-1-0.2-1.5c-0.1-0.4-0.3-0.8-0.6-1.1c-0.3-0.3-0.6-0.5-1-0.7c-0.4-0.2-0.8-0.2-1.3-0.2c-0.5,0-0.9,0.1-1.3,0.2
		c-0.4,0.2-0.7,0.4-1,0.7c-0.3,0.3-0.5,0.7-0.6,1.1c-0.1,0.4-0.2,0.9-0.2,1.5c0,0.5,0.1,1,0.2,1.5c0.1,0.4,0.3,0.8,0.6,1.1
		c0.3,0.3,0.6,0.5,1,0.7c0.4,0.2,0.8,0.2,1.3,0.2c0.5,0,0.9-0.1,1.3-0.2c0.4-0.2,0.7-0.4,1-0.7c0.3-0.3,0.5-0.7,0.6-1.1
		C97.9,99.3,97.9,98.8,97.9,98.2L97.9,98.2z M103.1,92.8L103.1,92.8c0.1,0,0.2,0,0.3,0l0.2,0.1l0.2,0.1l0.2,0.2l5.2,6.6
		c0-0.2,0-0.4,0-0.6c0-0.2,0-0.4,0-0.6v-5.8h2.2v10.9H110c-0.2,0-0.4,0-0.5-0.1c-0.1-0.1-0.3-0.2-0.4-0.3l-5.1-6.5
		c0,0.2,0,0.4,0,0.6c0,0.2,0,0.4,0,0.5v5.9h-2.2V92.8H103.1L103.1,92.8z M115.8,103.7L115.8,103.7h-2.5V92.8h2.5V103.7L115.8,103.7z
		 M124,95L124,95c-0.1,0.1-0.2,0.2-0.2,0.3c-0.1,0.1-0.2,0.1-0.3,0.1c-0.1,0-0.2,0-0.4-0.1c-0.1-0.1-0.3-0.2-0.4-0.2
		c-0.2-0.1-0.4-0.2-0.6-0.2c-0.2-0.1-0.5-0.1-0.7-0.1c-0.5,0-0.8,0.1-1.1,0.3c-0.2,0.2-0.3,0.5-0.3,0.8c0,0.2,0.1,0.4,0.2,0.5
		c0.1,0.1,0.3,0.3,0.6,0.4c0.2,0.1,0.5,0.2,0.8,0.3c0.3,0.1,0.6,0.2,0.9,0.3c0.3,0.1,0.6,0.2,0.9,0.4c0.3,0.1,0.6,0.3,0.8,0.6
		c0.2,0.2,0.4,0.5,0.5,0.8c0.1,0.3,0.2,0.7,0.2,1.2c0,0.5-0.1,1-0.3,1.4c-0.2,0.4-0.4,0.8-0.8,1.2c-0.3,0.3-0.7,0.6-1.2,0.8
		c-0.5,0.2-1,0.3-1.7,0.3c-0.3,0-0.7,0-1-0.1c-0.4-0.1-0.7-0.2-1-0.3c-0.3-0.1-0.6-0.3-0.9-0.4c-0.3-0.2-0.5-0.4-0.8-0.6l0.7-1.2
		c0.1-0.1,0.1-0.2,0.2-0.2c0.1-0.1,0.2-0.1,0.3-0.1c0.1,0,0.3,0,0.5,0.1c0.2,0.1,0.3,0.2,0.5,0.3c0.2,0.1,0.4,0.2,0.7,0.3
		c0.2,0.1,0.5,0.1,0.9,0.1c0.5,0,0.8-0.1,1.1-0.3c0.3-0.2,0.4-0.5,0.4-1c0-0.3-0.1-0.5-0.2-0.6c-0.1-0.2-0.3-0.3-0.5-0.4
		c-0.2-0.1-0.5-0.2-0.8-0.3c-0.3-0.1-0.6-0.2-0.9-0.3c-0.3-0.1-0.6-0.2-0.9-0.4c-0.3-0.1-0.5-0.3-0.8-0.6c-0.2-0.2-0.4-0.5-0.6-0.9
		c-0.1-0.3-0.2-0.8-0.2-1.3c0-0.4,0.1-0.8,0.2-1.2c0.2-0.4,0.4-0.7,0.7-1c0.3-0.3,0.7-0.5,1.2-0.7c0.5-0.2,1-0.3,1.6-0.3
		c0.3,0,0.7,0,1,0.1c0.3,0.1,0.6,0.1,0.9,0.2c0.3,0.1,0.6,0.2,0.8,0.4c0.2,0.1,0.5,0.3,0.7,0.5L124,95L124,95z M131.4,99.6
		L131.4,99.6v4.1h-2.5v-4.1l-4-6.8h2.2c0.2,0,0.4,0.1,0.5,0.2c0.1,0.1,0.2,0.2,0.3,0.4l1.5,3.2c0.1,0.3,0.2,0.5,0.3,0.7
		c0.1,0.2,0.2,0.4,0.3,0.6c0.1-0.2,0.2-0.4,0.3-0.7c0.1-0.2,0.2-0.5,0.3-0.7l1.5-3.2l0.1-0.2l0.2-0.2l0.2-0.1c0.1,0,0.2,0,0.3,0h2.2
		L131.4,99.6z"/>
	<path class="st8" d="M84.7,92.7c1.5,0,2.9,0.6,3.9,1.6l-1.4,1.4c-0.7-0.7-1.6-1.1-2.6-1.1c-2,0-3.6,1.6-3.6,3.6
		c0,0.9,0.3,1.8,0.9,2.4c-0.3,0.4-0.6,0.7-1,0.9c0.3,0,0.7,0,1,0c0.3-0.1,0.5-0.1,0.7-0.2c0.6,0.4,1.2,0.6,1.9,0.6
		c1,0,1.9-0.4,2.6-1.1l1.4,1.4c-1,1-2.4,1.6-3.9,1.6c-3.1,0-5.6-2.5-5.6-5.6C79.1,95.2,81.6,92.7,84.7,92.7z"/>
	<path class="st8" d="M83.3,97.9h2.8c0.2,0,0.4,0.2,0.4,0.4c0,0.2-0.2,0.4-0.4,0.4h-2.8c-0.2,0-0.4-0.2-0.4-0.4
		C83,98,83.1,97.9,83.3,97.9L83.3,97.9z M83.3,96.5L83.3,96.5h2.8c0.2,0,0.4,0.2,0.4,0.4c0,0.2-0.2,0.4-0.4,0.4h-2.8
		c-0.2,0-0.4-0.2-0.4-0.4C83,96.7,83.1,96.5,83.3,96.5L83.3,96.5z M83.3,99.3L83.3,99.3h2.8c0.2,0,0.4,0.2,0.4,0.4
		c0,0.2-0.2,0.4-0.4,0.4h-2.8c-0.2,0-0.4-0.2-0.4-0.4C83,99.4,83.1,99.3,83.3,99.3z"/>
	<path class="st8" d="M123,149.2h-0.4c0,6.3-2.5,12-6.7,16.1c-4.1,4.1-9.8,6.7-16.1,6.7c-6.3,0-12-2.5-16.1-6.7
		c-4.1-4.1-6.7-9.8-6.7-16.1c0-6.3,2.5-12,6.7-16.1c4.1-4.1,9.8-6.7,16.1-6.7c6.3,0,12,2.5,16.1,6.7c4.1,4.1,6.7,9.8,6.7,16.1H123
		h0.4c0-13-10.6-23.6-23.6-23.6c-13,0-23.6,10.6-23.6,23.6c0,13,10.6,23.6,23.6,23.6c13,0,23.6-10.6,23.6-23.6H123z"/>
	<path class="st8" d="M109.8,160.4c-2.4-4.2-6.8-6.8-6.8-6.8c-0.3,0.3-2.1,1.6-2.6,3.6c-1.9-1.1-6-3.9-8-8.7
		c1.7-0.6,2.8-2.2,3.1-2.4c0,0-2.5-4.4-6.7-6.7c0,0-2.4,1.7-2.6,4.1h0c0,0-0.9,4.3,7.1,12.6c6.8,7,10.1,7.3,12.3,7
		c0.3,0,0.6-0.1,0.9-0.2l0.1,0l0,0C108.5,162.2,109.8,160.4,109.8,160.4z"/>
	<path class="st8" d="M105.5,144L105.5,144L105.5,144L105.5,144c-1.3-1.2-3.2-1.8-4.8-1.1c-0.5,0.2-0.1,0.9,0.4,0.7l0,0l0,0l0,0l0,0
		c0.1,0,0.2-0.1,0.3-0.1c0.3-0.1,0.6-0.1,0.9-0.1c1,0,1.9,0.4,2.6,1.1c0.7,0.7,1.1,1.6,1.1,2.6c0,0.3-0.1,0.6-0.1,0.9
		c0,0.1-0.1,0.2-0.1,0.3l0,0l0,0l0,0l0,0c-0.2,0.5,0.5,0.9,0.7,0.4C107.3,147.1,106.7,145.2,105.5,144L105.5,144L105.5,144z
		 M108.3,141c2.1,2.1,3.5,4.9,3.4,7.9c0,1.3-0.2,2.8-0.8,4c-0.2,0.5-0.9,0.1-0.7-0.4l0-0.1l0,0l0,0l0-0.1c0.1-0.2,0.2-0.5,0.2-0.8
		c0.2-0.8,0.4-1.7,0.4-2.5c0-2.9-1.2-5.4-3.2-7.4c-2-2-4.6-3.3-7.4-3.2c-0.9,0-1.7,0.1-2.6,0.4c-0.2,0.1-0.5,0.1-0.7,0.2l-0.1,0l0,0
		l-0.1,0c-0.5,0.2-0.9-0.5-0.4-0.7c1.2-0.6,2.6-0.8,4-0.8c3,0,5.8,1.3,7.9,3.4L108.3,141L108.3,141L108.3,141L108.3,141L108.3,141z"
		/>
	<path class="st9" d="M107.5,44.2H91.1c-0.6,0-1.2,0.5-1.2,1.2c0,0.6,0.5,1.2,1.2,1.2h16.3c0.6,0,1.2-0.5,1.2-1.2
		C108.6,44.7,108.1,44.2,107.5,44.2z"/>
	<circle class="st9" cx="81.3" cy="45.5" r="1.7"/>
	<ellipse class="st10" cx="81.3" cy="45.5" rx="0.9" ry="0.9"/>
	<circle class="st9" cx="99" cy="38.1" r="1.4"/>
</g>
</svg>
