<?xml version="1.0" encoding="utf-8"?>
<!-- Generator: Adobe Illustrator 19.0.1, SVG Export Plug-In . SVG Version: 6.00 Build 0)  -->
<svg version="1.1" id="_x31__2_" xmlns="http://www.w3.org/2000/svg" xmlns:xlink="http://www.w3.org/1999/xlink" x="0px" y="0px"
	 viewBox="0 0 220 220" style="enable-background:new 0 0 220 220;" xml:space="preserve">
<style type="text/css">
	.st0{fill-rule:evenodd;clip-rule:evenodd;fill:#559EE3;}
	.st1{clip-path:url(#SVGID_2_);}
	.st2{fill-rule:evenodd;clip-rule:evenodd;fill:#4D8EC9;}
	.st3{fill-rule:evenodd;clip-rule:evenodd;fill:#F6C3A3;}
	.st4{fill-rule:evenodd;clip-rule:evenodd;fill:#284259;}
	.st5{clip-path:url(#SVGID_4_);}
	.st6{fill-rule:evenodd;clip-rule:evenodd;fill:#83CA28;}
	.st7{opacity:0.302;clip-path:url(#SVGID_4_);}
	.st8{fill:#284259;}
	.st9{fill-rule:evenodd;clip-rule:evenodd;fill:#13283B;}
	.st10{clip-path:url(#SVGID_6_);}
	.st11{fill-rule:evenodd;clip-rule:evenodd;fill:#FDDDC8;}
	.st12{fill:#F6C3A3;}
	.st13{opacity:0.502;}
	.st14{fill:#FDF0E0;}
</style>
<g id="Ellipse_1_copy_109">
	<g>
		<ellipse class="st0" cx="110" cy="110" rx="110" ry="110"/>
	</g>
</g>
<g>
	<defs>
		<ellipse id="SVGID_1_" cx="110" cy="110" rx="110" ry="110"/>
	</defs>
	<clipPath id="SVGID_2_">
		<use xlink:href="#SVGID_1_"  style="overflow:visible;"/>
	</clipPath>
	<g id="Rectangle_115" class="st1">
		<g>
			<polygon class="st2" points="196,131 102,163 66,220 228,220 			"/>
		</g>
	</g>
	<g id="Shape_308" class="st1">
		<g>
			<path class="st3" d="M32.2,91.6l-19,66.8c0,0-1.4,14.2,6.8,22.5C31.4,192.3,43,209.5,43,209.5s19.5,13.3,38.4,8.8
				c19.1-4.5,45.5-28.5,45.5-28.5l5.7-4.9L32.2,91.6z"/>
		</g>
	</g>
</g>
<g id="_x31_">
	<g>
		<path class="st4" d="M193.3,125.4l-101-97c-4.8-4.6-12.3-4.4-16.8,0.3L28,78.2c-4.5,4.7-4.3,12.3,0.4,16.8l101,97
			c4.7,4.6,12.3,4.4,16.8-0.3l47.4-49.5C198.2,137.5,198,130,193.3,125.4z"/>
	</g>
</g>
<g>
	<defs>
		<path id="SVGID_3_" d="M193.3,125.4l-101-97c-4.8-4.6-12.3-4.4-16.8,0.3L28,78.2c-4.5,4.7-4.3,12.3,0.4,16.8l101,97
			c4.7,4.6,12.3,4.4,16.8-0.3l47.4-49.5C198.2,137.5,198,130,193.3,125.4z"/>
	</defs>
	<clipPath id="SVGID_4_">
		<use xlink:href="#SVGID_3_"  style="overflow:visible;"/>
	</clipPath>
	<g id="Rectangle_63" class="st5">
		<g>
			<polygon class="st6" points="90.8,37.8 39.1,91.9 118.6,168.3 170.3,114.2 			"/>
		</g>
	</g>
	<g id="Shape_308_copy_2" class="st7">
		<g>
			<path class="st4" d="M56.5,57.8c-5.8-2.4-12.6,6.7-12.6,6.7l-4.1,44.3l24.6,26.7l2-61.7C66.4,73.7,61.9,60,56.5,57.8z"/>
		</g>
	</g>
	<g id="Rounded_Rectangle_66_copy_4" class="st7">
		<g>
			<path class="st8" d="M135.2,60.2l-4.7-4.3c-3.3-3-8.3-2.7-11.3,0.6L101,76.7c-3,3.3-2.7,8.4,0.6,11.4l4.7,4.3
				c3.3,3,8.3,2.7,11.3-0.6l18.2-20.3C138.7,68.2,138.4,63.2,135.2,60.2z M154.9,89.2c3-3.3,2.7-8.4-0.6-11.4l-4.7-4.3
				c-3.3-3-8.3-2.7-11.3,0.6l-18.2,20.3c-3,3.3-2.7,8.4,0.6,11.4l4.7,4.3c3.3,3,8.3,2.7,11.3-0.6L154.9,89.2z M172.8,95.3l-4.7-4.3
				c-3.3-3-8.3-2.7-11.3,0.6l-18.2,20.3c-3,3.3-2.7,8.4,0.6,11.4l4.7,4.3c3.3,3,8.3,2.7,11.3-0.6l18.2-20.3
				C176.4,103.3,176.1,98.2,172.8,95.3z M192,112.6l-4.7-4.3c-3.3-3-8.3-2.7-11.3,0.6l-18.2,20.3c-3,3.3-2.7,8.4,0.6,11.4l4.7,4.3
				c3.3,3,8.3,2.7,11.3-0.6l18.2-20.3C195.5,120.7,195.3,115.6,192,112.6z"/>
		</g>
	</g>
</g>
<g id="Ellipse_51">
	<g>
		<path class="st9" d="M163,150.4c-2.9-2.7-7.4-2.7-10.1,0.2c-2.7,2.8-2.6,7.4,0.2,10.1c2.9,2.7,7.4,2.7,10.1-0.2
			C165.9,157.7,165.8,153.1,163,150.4z"/>
	</g>
</g>
<g id="Rounded_Rectangle_39">
	<g>
		<path class="st9" d="M68.4,49.6c-1.1-1-2.8-1-3.8,0.1l-17.3,18c-1,1.1-1,2.8,0.1,3.8c1.1,1,2.8,1,3.8-0.1l17.3-18
			C69.5,52.3,69.5,50.6,68.4,49.6z"/>
	</g>
</g>
<g id="Shape_308_copy">
	<g>
		<path class="st3" d="M50.8,55.9c-9.9-3.9-12.6,6.7-12.6,6.7L24.6,124l32.2,7.6l4-57C60.9,74.6,59.2,59.2,50.8,55.9z"/>
	</g>
</g>
<g>
	<defs>
		<path id="SVGID_5_" d="M50.8,55.9c-9.9-3.9-12.6,6.7-12.6,6.7L24.6,124l32.2,7.6l4-57C60.9,74.6,59.2,59.2,50.8,55.9z"/>
	</defs>
	<clipPath id="SVGID_6_">
		<use xlink:href="#SVGID_5_"  style="overflow:visible;"/>
	</clipPath>
	<g id="Shape_8" class="st10">
		<g>
			<path class="st11" d="M45.4,66.5c-3.1-11.7-12.2-9.2-12.2-9.2c-12.4,4.4-7.6,19.9-7.6,19.9c8.7,8.8,19.8,0,19.8,0
				C46.2,75,45.4,66.5,45.4,66.5z"/>
		</g>
	</g>
</g>
<g id="Rounded_Rectangle_66_copy_3">
	<g>
		<path class="st12" d="M133.3,54.5l-4.7-4.3c-3.3-3-8.3-2.7-11.3,0.6L99.1,71c-3,3.3-2.7,8.4,0.6,11.4l4.7,4.3
			c3.3,3,8.3,2.7,11.3-0.6l18.2-20.3C136.8,62.5,136.5,57.4,133.3,54.5z M153,83.5c3-3.3,2.7-8.4-0.6-11.4l-4.7-4.3
			c-3.3-3-8.3-2.7-11.3,0.6l-18.2,20.3c-3,3.3-2.7,8.4,0.6,11.4l4.7,4.3c3.3,3,8.3,2.7,11.3-0.6L153,83.5z M171,89.5l-4.7-4.3
			c-3.3-3-8.3-2.7-11.3,0.6l-18.2,20.3c-3,3.3-2.7,8.4,0.6,11.4l4.7,4.3c3.3,3,8.3,2.7,11.3-0.6l18.2-20.3
			C174.5,97.6,174.2,92.5,171,89.5z M190.1,106.9l-4.7-4.3c-3.3-3-8.3-2.7-11.3,0.6l-18.2,20.3c-3,3.3-2.7,8.4,0.6,11.4l4.7,4.3
			c3.3,3,8.3,2.7,11.3-0.6l18.2-20.3C193.6,115,193.4,109.9,190.1,106.9z"/>
	</g>
</g>
<g id="Shape_7">
	<g>
		<path class="st11" d="M113,70.2c0,0-5.3-5.1-12,1.3c0,0-8.1,5-0.3,12.9c0,0,7.7,8.3,13.3,0.5C114,84.8,121.2,76.6,113,70.2z"/>
	</g>
</g>
<g id="Shape_7_copy_2" class="st13">
	<g>
		<path class="st14" d="M116.5,74.8c-0.5-1.6-1.6-3.2-3.5-4.7c0,0-1.7-1.7-4.5-1.9C110.6,72,113.7,74.5,116.5,74.8z"/>
	</g>
</g>
<g id="Shape_7_copy">
	<g>
		<path class="st14" d="M99.7,78.5c-0.7-1.5-1.1-3-1.2-4.6c-1.5,2.2-2.3,5.8,2.3,10.4c0,0,6.8,7.3,12.3,1.7
			C107.7,86.8,102.1,83.9,99.7,78.5z"/>
	</g>
</g>
<g id="Shape_7_copy_3">
	<g>
		<path class="st11" d="M132,88.2c0,0-5.3-5.1-12,1.3c0,0-8.1,5-0.3,12.9c0,0,7.7,8.3,13.3,0.5C133,102.8,140.2,94.6,132,88.2z"/>
	</g>
</g>
<g id="Shape_7_copy_3_1_" class="st13">
	<g>
		<path class="st14" d="M135.5,92.8c-0.5-1.6-1.6-3.2-3.5-4.7c0,0-1.7-1.7-4.5-1.9C129.6,90,132.7,92.5,135.5,92.8z"/>
	</g>
</g>
<g id="Shape_7_copy_3_2_">
	<g>
		<path class="st14" d="M118.7,96.5c-0.7-1.5-1.1-3-1.2-4.6c-1.5,2.2-2.3,5.8,2.3,10.4c0,0,6.8,7.3,12.3,1.7
			C126.7,104.8,121.1,101.9,118.7,96.5z"/>
	</g>
</g>
<g id="Shape_7_copy_4">
	<g>
		<path class="st11" d="M151,105.2c0,0-5.3-5.1-12,1.3c0,0-8.1,5-0.3,12.9c0,0,7.7,8.3,13.3,0.5C152,119.8,159.2,111.6,151,105.2z"
			/>
	</g>
</g>
<g id="Shape_7_copy_4_1_" class="st13">
	<g>
		<path class="st14" d="M154.5,109.8c-0.5-1.6-1.6-3.2-3.5-4.7c0,0-1.7-1.7-4.5-1.9C148.6,107,151.7,109.5,154.5,109.8z"/>
	</g>
</g>
<g id="Shape_7_copy_4_2_">
	<g>
		<path class="st14" d="M137.7,113.5c-0.7-1.5-1.1-3-1.2-4.6c-1.5,2.2-2.3,5.8,2.3,10.4c0,0,6.8,7.3,12.3,1.7
			C145.7,121.8,140.1,118.9,137.7,113.5z"/>
	</g>
</g>
<g id="Shape_7_copy_5">
	<g>
		<path class="st11" d="M168.8,123.9c0,0-4.6-4.6-10.5,1.1c0,0-7.1,4.5-0.2,11.6c0,0,6.7,7.4,11.7,0.4
			C169.6,137,176,129.7,168.8,123.9z"/>
	</g>
</g>
<g id="Shape_7_copy_5_1_" class="st13">
	<g>
		<path class="st14" d="M171.8,128.1c-0.5-1.4-1.4-2.8-3.1-4.2c0,0-1.5-1.5-3.9-1.7C166.6,125.5,169.4,127.8,171.8,128.1z"/>
	</g>
</g>
<g id="Shape_7_copy_5_2_">
	<g>
		<path class="st14" d="M157.1,131.4c-0.6-1.3-0.9-2.7-1.1-4.1c-1.3,2-2,5.2,2,9.3c0,0,6,6.6,10.8,1.5
			C164.1,138.7,159.2,136.1,157.1,131.4z"/>
	</g>
</g>
</svg>
