<?xml version="1.0" encoding="utf-8"?>
<!-- Generator: Adobe Illustrator 19.0.1, SVG Export Plug-In . SVG Version: 6.00 Build 0)  -->
<svg version="1.1" id="_x30_1" xmlns="http://www.w3.org/2000/svg" xmlns:xlink="http://www.w3.org/1999/xlink" x="0px" y="0px"
	 viewBox="0 0 206 206" style="enable-background:new 0 0 206 206;" xml:space="preserve">
<style type="text/css">
	.st0{fill:#D9DFE1;}
	.st1{fill:#FFFFFF;}
	.st2{fill-rule:evenodd;clip-rule:evenodd;fill:#FFD053;}
	.st3{fill:#FFD053;}
	.st4{fill:#83CA28;}
	.st5{fill-rule:evenodd;clip-rule:evenodd;fill:#284259;}
	.st6{clip-path:url(#SVGID_2_);}
	.st7{opacity:0.102;clip-path:url(#SVGID_2_);}
	.st8{fill-rule:evenodd;clip-rule:evenodd;fill:#FFFFFF;}
	.st9{opacity:0.2;clip-path:url(#SVGID_2_);}
	.st10{fill-rule:evenodd;clip-rule:evenodd;}
	.st11{fill-rule:evenodd;clip-rule:evenodd;fill:#F39A00;}
	.st12{fill-rule:evenodd;clip-rule:evenodd;fill:#83CA28;}
	.st13{fill-rule:evenodd;clip-rule:evenodd;fill:#FFD301;}
</style>
<g id="Ellipse_18_copy_9_2_">
	<path class="st0" d="M111.4,5.9C56.2,2.9,9.1,45.3,6.2,100.5c-1.3,23.9,5.9,46.3,18.9,64.2c-5.9,8.7-14.5,15.2-24.4,18.3
		c4.1,0.9,8.5,1.5,13,1.7c9.7,0.5,18.9-0.6,26.9-3.1c16.2,14,37,23,60,24.3c55.1,3,102.2-39.4,105.2-94.6
		C208.8,56,166.5,8.8,111.4,5.9z"/>
</g>
<g id="Ellipse_18_copy_4_2_">
	<path class="st1" d="M101,0C45.8,0,1,44.8,1,100.1c0,23.9,8.4,45.9,22.4,63.1c-5.5,9-13.7,15.9-23.4,19.6c4.2,0.7,8.6,1,13.1,1
		c9.7,0,18.9-1.7,26.7-4.6c16.9,13.2,38.2,21,61.2,21c55.2,0,100-44.8,100-100.1S156.3,0,101,0z"/>
</g>
<g>
	<g id="Ellipse_1_copy_107">
		<g>
			<circle class="st2" cx="101" cy="100.2" r="90"/>
		</g>
	</g>
	<g>
		<path class="st3" d="M107.6,89c24.4,19.8,58.7,19.4,82.8,0.9c-0.6-5-1.6-9.9-2.9-14.7c-19,19.1-49.6,21.3-70.8,4.1
			c-20.8-16.9-25.2-46.6-11.2-68.9c-1.5-0.1-3-0.1-4.5-0.1c-4.3,0-8.5,0.3-12.6,0.9C77.1,37.9,84.1,69.9,107.6,89z"/>
		<path class="st3" d="M119.1,76.3c20.2,16.4,49.6,13.9,67.1-5.2c-1.6-4.7-3.6-9.3-6-13.7c-0.7,1.1-1.4,2.1-2.2,3.1
			C165.4,76,142.8,78.4,127.5,66c-15.3-12.4-17.5-35.1-4.9-50.5c0.6-0.8,1.3-1.5,1.9-2.2c-4.8-1.3-9.7-2.2-14.7-2.7
			C95.5,31.6,99.2,60.2,119.1,76.3z"/>
		<path class="st3" d="M137.1,27.3c-6,7.3-4.9,18,2.3,23.9s18,4.7,23.9-2.6c2.3-2.8,3.5-6.1,3.8-9.5c-6.3-6.9-13.7-12.8-22-17.4
			C142.1,22.8,139.3,24.6,137.1,27.3z"/>
		<path class="st3" d="M125.4,17.8c-11.3,13.8-9.3,34.1,4.4,45.2c13.7,11.1,33.9,8.9,45.2-4.9c1.1-1.4,2.2-2.9,3-4.4
			c-2.3-3.8-4.9-7.4-7.7-10.9c-0.7,2.9-2.1,5.7-4.1,8.2c-7.3,9-20.4,10.4-29.2,3.2c-8.9-7.2-10.1-20.3-2.9-29.3
			c1.9-2.3,4.2-4.1,6.7-5.4c-4-2-8.1-3.6-12.3-5C127.5,15.5,126.4,16.6,125.4,17.8z"/>
		<path class="st3" d="M105.2,91.9C81,72.3,73.4,39.7,84.1,11.8C42.4,19.7,11,56.3,11,100.2c0,12.8,2.7,25,7.5,36h165
			c4.8-11,7.5-23.2,7.5-36c0-2-0.1-4-0.2-5.9C165.4,112.4,130.3,112.4,105.2,91.9z"/>
		<path class="st4" d="M101,190.2c36.9,0,68.6-22.2,82.5-54h-165C32.4,168,64.1,190.2,101,190.2z"/>
		<path class="st1" d="M107.6,89C84.1,69.9,77.1,37.9,88.4,11.1c-1.5,0.2-2.9,0.4-4.3,0.7C73.4,39.7,81,72.3,105.2,91.9
			c25.1,20.4,60.2,20.5,85.6,2.4c-0.1-1.5-0.2-2.9-0.4-4.4C166.3,108.4,132,108.8,107.6,89z"/>
		<path class="st1" d="M127.5,66c15.3,12.4,37.9,10,50.5-5.5c0.8-1,1.5-2,2.2-3.1c-0.7-1.3-1.4-2.5-2.1-3.7c-0.9,1.5-1.9,3-3,4.4
			c-11.3,13.8-31.5,16-45.2,4.9c-13.7-11.1-15.7-31.4-4.4-45.2c1-1.2,2-2.3,3.1-3.3c-1.4-0.4-2.7-0.8-4.1-1.2
			c-0.7,0.7-1.3,1.4-1.9,2.2C109.9,30.9,112.2,53.6,127.5,66z"/>
		<path class="st1" d="M116.7,79.3c21.2,17.2,51.8,15.1,70.8-4.1c-0.4-1.4-0.8-2.8-1.3-4.1c-17.5,19.1-46.9,21.6-67.1,5.2
			c-19.8-16.1-23.6-44.7-9.3-65.7c-1.4-0.1-2.8-0.2-4.3-0.3C91.5,32.7,95.9,62.4,116.7,79.3z"/>
		<path class="st1" d="M134.2,24.9c-7.3,9-6,22.1,2.9,29.3c8.9,7.2,21.9,5.8,29.2-3.2c2-2.5,3.4-5.3,4.1-8.2c-1-1.3-2.1-2.5-3.2-3.7
			c-0.3,3.3-1.5,6.6-3.8,9.5c-6,7.3-16.7,8.5-23.9,2.6s-8.3-16.6-2.3-23.9c2.2-2.7,5-4.5,8.1-5.5c-1.4-0.8-2.8-1.6-4.3-2.3
			C138.4,20.8,136.1,22.6,134.2,24.9z"/>
	</g>
	<g id="Rounded_Rectangle_75_copy">
		<g>
			<path class="st5" d="M149.5,37.2c-1.9,0-3.5,1.6-3.5,3.5v62c0,1.9,1.6,3.5,3.5,3.5c1.9,0,3.5-1.6,3.5-3.5v-62
				C153,38.8,151.4,37.2,149.5,37.2z"/>
		</g>
	</g>
	<g>
		<defs>
			<path id="SVGID_1_" d="M166,96.2H36c-8.3,0-15,6.7-15,15v10c0,8.3,6.7,15,15,15h130c8.3,0,15-6.7,15-15v-10
				C181,102.9,174.3,96.2,166,96.2z"/>
		</defs>
		<clipPath id="SVGID_2_">
			<use xlink:href="#SVGID_1_"  style="overflow:visible;"/>
		</clipPath>
		<g id="Rounded_Rectangle_74" class="st6">
			<g>
				<path class="st5" d="M166,96.2H36c-8.3,0-15,6.7-15,15v10c0,8.3,6.7,15,15,15h130c8.3,0,15-6.7,15-15v-10
					C181,102.9,174.3,96.2,166,96.2z"/>
			</g>
		</g>
		<g id="Rounded_Rectangle_74_copy" class="st7">
			<g>
				<path class="st8" d="M166,57.2H36c-8.3,0-15,6.7-15,15v15c0,8.3,6.7,15,15,15h130c8.3,0,15-6.7,15-15v-15
					C181,63.9,174.3,57.2,166,57.2z"/>
			</g>
		</g>
		<g id="Rounded_Rectangle_74_copy_2" class="st9">
			<g>
				<path class="st10" d="M166,129.2H36c-8.3,0-15,6.7-15,15v5c0,8.3,6.7,7,15,7h130c8.3,0,15,1.3,15-7v-5
					C181,135.9,174.3,129.2,166,129.2z"/>
			</g>
		</g>
	</g>
	<g id="Ellipse_90">
		<g>
			<circle class="st11" cx="164" cy="115.2" r="5"/>
		</g>
	</g>
	<g id="Ellipse_90_copy">
		<g>
			<circle class="st12" cx="102.5" cy="115.7" r="4.5"/>
		</g>
	</g>
	<g id="Ellipse_90_copy_2">
		<g>
			<circle class="st12" cx="87.5" cy="115.7" r="4.5"/>
		</g>
	</g>
	<g id="Ellipse_90_copy_3">
		<g>
			<circle class="st12" cx="72.5" cy="115.7" r="4.5"/>
		</g>
	</g>
	<g id="Ellipse_90_copy_4">
		<g>
			<circle class="st12" cx="57.5" cy="115.7" r="4.5"/>
		</g>
	</g>
	<g id="Ellipse_90_copy_5">
		<g>
			<circle class="st12" cx="42.5" cy="115.7" r="4.5"/>
		</g>
	</g>
	<g id="Ellipse_90_copy_6">
		<g>
			<circle class="st13" cx="42.5" cy="115.7" r="2.5"/>
		</g>
	</g>
	<g id="Ellipse_90_copy_7">
		<g>
			<circle class="st13" cx="72.5" cy="115.7" r="2.5"/>
		</g>
	</g>
	<g id="Ellipse_90_copy_8">
		<g>
			<circle class="st13" cx="87.5" cy="115.7" r="2.5"/>
		</g>
	</g>
</g>
</svg>
