<?xml version="1.0" encoding="utf-8"?>
<!-- Generator: Adobe Illustrator 19.0.1, SVG Export Plug-In . SVG Version: 6.00 Build 0)  -->
<svg version="1.1" id="ico_copy_2" xmlns="http://www.w3.org/2000/svg" xmlns:xlink="http://www.w3.org/1999/xlink" x="0px" y="0px"
	 viewBox="0 0 389 255" style="enable-background:new 0 0 389 255;" xml:space="preserve">
<style type="text/css">
	.st0{fill-rule:evenodd;clip-rule:evenodd;fill:#284259;}
	.st1{fill-rule:evenodd;clip-rule:evenodd;fill:#92A1AE;}
	.st2{fill-rule:evenodd;clip-rule:evenodd;fill:#193349;}
	.st3{fill-rule:evenodd;clip-rule:evenodd;fill:#A2DD3B;}
	.st4{fill:#83CA28;}
	.st5{fill:#FFFFFF;}
	.st6{fill-rule:evenodd;clip-rule:evenodd;fill:#FFFFFF;}
	.st7{fill-rule:evenodd;clip-rule:evenodd;fill:#CCCCCC;}
	.st8{fill-rule:evenodd;clip-rule:evenodd;fill:#ECF0F1;}
	.st9{fill-rule:evenodd;clip-rule:evenodd;fill:#BDBDBD;}
	.st10{fill-rule:evenodd;clip-rule:evenodd;fill:#2B2B2B;}
	.st11{fill-rule:evenodd;clip-rule:evenodd;fill:#C3C6CA;}
	.st12{fill-rule:evenodd;clip-rule:evenodd;fill:#83CA28;}
	.st13{clip-path:url(#SVGID_2_);}
</style>
<g id="nout_1_">
	<g id="Screen_Shell">
		<g>
			<path class="st0" d="M331.1,4.7h-279c-6.1,0-11.1,5-11.1,11.1v185.5c0,6.1,5,11.1,11.1,11.1h279c6.1,0,11.1-5,11.1-11.1V15.8
				C342.2,9.7,337.3,4.7,331.1,4.7z"/>
		</g>
	</g>
	<g id="Rounded_Rectangle_23">
		<g>
			<path class="st1" d="M374.6,218.2l-7.2-3.3c-2.7-1.2-21.1-2.2-22.1-2.2l-331.4,0c-1,0-3.2,1-0.5,2.2l3.4,2.6
				c2.7,1.2,5.6,2.9,6.7,2.9h350.3C374.8,220.4,377.3,219.4,374.6,218.2z"/>
		</g>
	</g>
	<g id="Screen_Background">
		<g>
			<path class="st2" d="M331.1,5.8h-279c-5.5,0-10,4.5-10,10v184.5c0,6.7,5.4,12.1,12.1,12.1h274.8c6.7,0,12.1-5.4,12.1-12.1V15.8
				C341.2,10.3,336.7,5.8,331.1,5.8z"/>
		</g>
	</g>
	<g id="Screen_stroke">
		<g>
			<path class="st0" d="M331.1,5.8h-279c-5.5,0-10,4.5-10,10v181.3c0,2.7,2.2,4.8,4.8,4.8h289.4c2.7,0,4.8-2.1,4.8-4.8V15.8
				C341.2,10.3,336.7,5.8,331.1,5.8z"/>
		</g>
	</g>
	<g id="Rectangle_68">
		<g>
			<rect x="50.5" y="17.3" class="st3" width="282.2" height="174.2"/>
		</g>
	</g>
	<g id="Rounded_Rectangle_32_copy_5">
		<g>
			<path class="st4" d="M167.1,97.2h-15.4c-4.3,0-7.7,3.4-7.7,7.7c0,4.3,3.4,7.7,7.7,7.7h15.4c4.3,0,7.7-3.4,7.7-7.7
				C174.8,100.6,171.3,97.2,167.1,97.2z M167.1,115.5h-15.4c-4.3,0-7.7,3.4-7.7,7.7s3.4,7.7,7.7,7.7h15.4c4.3,0,7.7-3.4,7.7-7.7
				S171.3,115.5,167.1,115.5z M167.1,133.7h-15.4c-4.3,0-7.7,3.4-7.7,7.7s3.4,7.7,7.7,7.7h15.4c4.3,0,7.7-3.4,7.7-7.7
				S171.3,133.7,167.1,133.7z M167.1,152h-15.4c-4.3,0-7.7,3.4-7.7,7.7s3.4,7.7,7.7,7.7h15.4c4.3,0,7.7-3.4,7.7-7.7
				S171.3,152,167.1,152z M199.8,97.2h-15.4c-4.3,0-7.7,3.4-7.7,7.7c0,4.3,3.4,7.7,7.7,7.7h15.4c4.3,0,7.7-3.4,7.7-7.7
				C207.5,100.6,204.1,97.2,199.8,97.2z M199.8,115.5h-15.4c-4.3,0-7.7,3.4-7.7,7.7s3.4,7.7,7.7,7.7h15.4c4.3,0,7.7-3.4,7.7-7.7
				S204.1,115.5,199.8,115.5z M199.8,133.7h-15.4c-4.3,0-7.7,3.4-7.7,7.7s3.4,7.7,7.7,7.7h15.4c4.3,0,7.7-3.4,7.7-7.7
				S204.1,133.7,199.8,133.7z M199.8,152h-15.4c-4.3,0-7.7,3.4-7.7,7.7s3.4,7.7,7.7,7.7h15.4c4.3,0,7.7-3.4,7.7-7.7
				S204.1,152,199.8,152z M217.1,112.6h15.4c4.3,0,7.7-3.4,7.7-7.7c0-4.3-3.4-7.7-7.7-7.7h-15.4c-4.3,0-7.7,3.4-7.7,7.7
				C209.4,109.1,212.9,112.6,217.1,112.6z M232.5,115.5h-15.4c-4.3,0-7.7,3.4-7.7,7.7s3.4,7.7,7.7,7.7h15.4c4.3,0,7.7-3.4,7.7-7.7
				S236.8,115.5,232.5,115.5z M232.5,133.7h-15.4c-4.3,0-7.7,3.4-7.7,7.7s3.4,7.7,7.7,7.7h15.4c4.3,0,7.7-3.4,7.7-7.7
				S236.8,133.7,232.5,133.7z M232.5,152h-15.4c-4.3,0-7.7,3.4-7.7,7.7s3.4,7.7,7.7,7.7h15.4c4.3,0,7.7-3.4,7.7-7.7
				S236.8,152,232.5,152z"/>
		</g>
	</g>
	<g id="_x31__________2________3_4_________5________6_7_________8________9_1_">
		<g id="_x31__________2________3_4_________5________6_7_________8________9">
			<path class="st5" d="M160.5,109.6h-0.9v-5.9c0-0.5,0-1,0-1.4c-0.1,0.1-0.2,0.2-0.3,0.2c-0.1,0.1-0.5,0.5-1.3,1.1l-0.5-0.6
				l2.2-1.7h0.8V109.6z"/>
			<path class="st5" d="M196.1,109.6h-5.4v-0.8l2.2-2.2c0.7-0.7,1.1-1.1,1.3-1.4c0.2-0.3,0.4-0.6,0.5-0.8c0.1-0.3,0.2-0.6,0.2-0.9
				c0-0.4-0.1-0.8-0.4-1c-0.3-0.3-0.6-0.4-1.1-0.4c-0.3,0-0.7,0.1-1,0.2c-0.3,0.1-0.6,0.3-1,0.6l-0.5-0.6c0.8-0.6,1.6-0.9,2.5-0.9
				c0.8,0,1.4,0.2,1.8,0.6c0.4,0.4,0.7,0.9,0.7,1.6c0,0.5-0.1,1-0.4,1.6c-0.3,0.5-0.8,1.2-1.6,1.9l-1.8,1.8v0h4.2V109.6z"/>
			<path class="st5" d="M226.4,103.3c0,0.5-0.1,1-0.4,1.3s-0.7,0.6-1.3,0.7v0c0.7,0.1,1.2,0.3,1.5,0.6c0.3,0.3,0.5,0.8,0.5,1.3
				c0,0.8-0.3,1.4-0.8,1.8s-1.3,0.6-2.3,0.6c-0.4,0-0.8,0-1.2-0.1c-0.4-0.1-0.7-0.2-1.1-0.3v-0.9c0.4,0.2,0.7,0.3,1.1,0.4
				c0.4,0.1,0.8,0.1,1.1,0.1c1.4,0,2.1-0.6,2.1-1.7c0-1-0.8-1.5-2.4-1.5h-0.8V105h0.8c0.6,0,1.2-0.1,1.5-0.4
				c0.4-0.3,0.6-0.7,0.6-1.2c0-0.4-0.1-0.7-0.4-0.9s-0.7-0.3-1.1-0.3c-0.4,0-0.7,0-1,0.1c-0.3,0.1-0.7,0.3-1.1,0.5l-0.5-0.6
				c0.3-0.3,0.7-0.5,1.2-0.6c0.4-0.2,0.9-0.2,1.4-0.2c0.8,0,1.4,0.2,1.9,0.5C226.2,102.2,226.4,102.7,226.4,103.3z"/>
			<path class="st5" d="M162.8,126h-1.2v1.9h-0.9V126h-4v-0.8l3.9-5.6h1v5.5h1.2V126z M160.7,125.2v-2.7c0-0.5,0-1.1,0.1-1.8h0
				c-0.2,0.4-0.3,0.7-0.5,0.9l-2.6,3.7H160.7z"/>
			<path class="st5" d="M193.2,122.9c0.9,0,1.6,0.2,2.1,0.6c0.5,0.4,0.7,1,0.7,1.8c0,0.9-0.3,1.5-0.8,2c-0.5,0.5-1.3,0.7-2.2,0.7
				c-0.9,0-1.6-0.1-2.1-0.4v-0.9c0.3,0.2,0.6,0.3,1,0.4s0.8,0.1,1.2,0.1c0.7,0,1.2-0.2,1.5-0.5c0.4-0.3,0.6-0.8,0.6-1.4
				c0-1.2-0.7-1.7-2.1-1.7c-0.4,0-0.8,0.1-1.4,0.2l-0.5-0.3l0.3-3.9h4.1v0.9h-3.3l-0.2,2.5C192.4,122.9,192.8,122.9,193.2,122.9z"/>
			<path class="st5" d="M221.4,124.4c0-1.6,0.3-2.8,0.9-3.6c0.6-0.8,1.6-1.2,2.8-1.2c0.4,0,0.8,0,1,0.1v0.8c-0.3-0.1-0.6-0.1-1-0.1
				c-0.9,0-1.6,0.3-2,0.8s-0.7,1.4-0.8,2.6h0.1c0.4-0.6,1.1-1,2-1c0.7,0,1.3,0.2,1.8,0.7c0.4,0.4,0.6,1.1,0.6,1.8
				c0,0.9-0.2,1.5-0.7,2c-0.5,0.5-1.1,0.7-1.9,0.7c-0.9,0-1.5-0.3-2-1C221.6,126.4,221.4,125.5,221.4,124.4z M224.1,127.2
				c0.5,0,0.9-0.2,1.2-0.5c0.3-0.3,0.4-0.8,0.4-1.5c0-0.5-0.1-1-0.4-1.3c-0.3-0.3-0.7-0.5-1.2-0.5c-0.3,0-0.6,0.1-0.9,0.2
				s-0.5,0.3-0.7,0.6c-0.2,0.2-0.3,0.5-0.3,0.8c0,0.4,0.1,0.7,0.2,1.1c0.2,0.3,0.4,0.6,0.6,0.8C223.5,127.1,223.8,127.2,224.1,127.2
				z"/>
			<path class="st5" d="M158.1,146.2l3.4-7.4H157V138h5.5v0.8l-3.4,7.5H158.1z"/>
			<path class="st5" d="M193.4,137.8c0.8,0,1.3,0.2,1.8,0.5c0.4,0.3,0.7,0.8,0.7,1.4c0,0.4-0.1,0.8-0.4,1.1
				c-0.3,0.3-0.7,0.6-1.2,0.9c0.7,0.3,1.1,0.7,1.4,1c0.3,0.4,0.4,0.8,0.4,1.2c0,0.7-0.2,1.2-0.7,1.6s-1.1,0.6-2,0.6
				c-0.9,0-1.6-0.2-2-0.6c-0.5-0.4-0.7-0.9-0.7-1.6c0-0.9,0.6-1.7,1.7-2.2c-0.5-0.3-0.9-0.6-1.1-0.9c-0.2-0.3-0.3-0.7-0.3-1.1
				c0-0.6,0.2-1.1,0.7-1.4C192.1,138,192.6,137.8,193.4,137.8z M191.6,144.1c0,0.5,0.2,0.8,0.5,1.1c0.3,0.3,0.8,0.4,1.3,0.4
				c0.6,0,1-0.1,1.3-0.4c0.3-0.3,0.5-0.6,0.5-1.1c0-0.4-0.1-0.7-0.4-1c-0.3-0.3-0.8-0.6-1.5-0.8c-0.6,0.2-1,0.5-1.2,0.8
				C191.7,143.4,191.6,143.7,191.6,144.1z M193.4,138.6c-0.5,0-0.8,0.1-1.1,0.3c-0.3,0.2-0.4,0.5-0.4,0.9c0,0.3,0.1,0.6,0.3,0.9
				s0.6,0.5,1.2,0.7c0.5-0.2,0.9-0.5,1.1-0.7c0.2-0.3,0.3-0.6,0.3-0.9c0-0.4-0.1-0.7-0.4-0.9C194.2,138.7,193.9,138.6,193.4,138.6z"
				/>
			<path class="st5" d="M226.7,141.5c0,3.2-1.2,4.8-3.7,4.8c-0.4,0-0.8,0-1-0.1v-0.8c0.3,0.1,0.6,0.1,1,0.1c0.9,0,1.6-0.3,2-0.8
				c0.5-0.6,0.7-1.4,0.8-2.6h-0.1c-0.2,0.3-0.5,0.6-0.8,0.7s-0.7,0.2-1.2,0.2c-0.7,0-1.3-0.2-1.7-0.7c-0.4-0.4-0.6-1-0.6-1.8
				c0-0.9,0.2-1.5,0.7-2c0.5-0.5,1.1-0.7,1.9-0.7c0.6,0,1.1,0.1,1.5,0.4s0.7,0.7,1,1.3C226.6,140.1,226.7,140.7,226.7,141.5z
				 M223.9,138.6c-0.5,0-1,0.2-1.2,0.5c-0.3,0.3-0.4,0.8-0.4,1.4c0,0.5,0.1,1,0.4,1.3c0.3,0.3,0.7,0.5,1.2,0.5
				c0.3,0,0.7-0.1,0.9-0.2c0.3-0.1,0.5-0.3,0.7-0.6c0.2-0.2,0.2-0.5,0.2-0.8c0-0.4-0.1-0.8-0.2-1.1c-0.2-0.3-0.4-0.6-0.6-0.8
				C224.6,138.7,224.3,138.6,223.9,138.6z"/>
			<path class="st5" d="M160.2,155.7l-0.2,2.2l2.2-0.6l0.1,1l-2.2,0.2l1.4,1.8l-1,0.5l-1-2l-0.9,2l-1-0.5l1.4-1.8l-2.1-0.2l0.2-1
				l2.2,0.6l-0.2-2.2H160.2z"/>
			<path class="st5" d="M195.9,160.4c0,1.4-0.2,2.5-0.7,3.2c-0.4,0.7-1.1,1.1-2.1,1.1c-0.9,0-1.6-0.4-2-1.1
				c-0.5-0.7-0.7-1.8-0.7-3.2c0-1.4,0.2-2.5,0.7-3.2c0.4-0.7,1.1-1,2-1c0.9,0,1.6,0.4,2,1.1C195.7,157.9,195.9,159,195.9,160.4z
				 M191.4,160.4c0,1.2,0.1,2.1,0.4,2.6c0.3,0.5,0.7,0.8,1.3,0.8c0.6,0,1.1-0.3,1.4-0.8c0.3-0.6,0.4-1.4,0.4-2.6s-0.1-2.1-0.4-2.6
				c-0.3-0.6-0.7-0.8-1.4-0.8c-0.6,0-1.1,0.3-1.3,0.8C191.5,158.3,191.4,159.2,191.4,160.4z"/>
			<path class="st5" d="M226,159.4l-0.4,1.9h1.6v0.7h-1.7l-0.5,2.4h-0.8l0.5-2.4H223l-0.5,2.4h-0.8l0.5-2.4h-1.5v-0.7h1.6l0.4-1.9
				h-1.6v-0.7h1.7l0.5-2.5h0.8l-0.5,2.5h1.7l0.5-2.5h0.8l-0.5,2.5h1.5v0.7H226z M223.2,161.4h1.7l0.4-1.9h-1.7L223.2,161.4z"/>
		</g>
	</g>
	<g>
		<path class="st6" d="M148,43.1v3.2h-4.8v14.1h-4V46.3h-4.8v-3.2H148L148,43.1z M160.7,43.1v3.1h-7.1v4h5.4v3h-5.4v4.1h7.1v3.1
			h-11.1V43.1H160.7L160.7,43.1z M195.5,51.7c0,1.2-0.2,2.4-0.6,3.5c-0.4,1.1-1,2-1.8,2.8c-0.8,0.8-1.7,1.4-2.8,1.9
			c-1.1,0.4-2.3,0.7-3.7,0.7c-1.3,0-2.6-0.2-3.7-0.7c-1.1-0.4-2-1.1-2.8-1.9c-0.8-0.8-1.4-1.7-1.8-2.8c-0.4-1.1-0.6-2.2-0.6-3.5
			c0-1.2,0.2-2.4,0.6-3.5c0.4-1.1,1-2,1.8-2.8c0.8-0.8,1.7-1.4,2.8-1.9c1.1-0.4,2.3-0.7,3.7-0.7c1.3,0,2.6,0.2,3.7,0.7
			c1.1,0.5,2,1.1,2.8,1.9c0.8,0.8,1.4,1.7,1.8,2.8C195.3,49.3,195.5,50.5,195.5,51.7L195.5,51.7z M191.4,51.7c0-0.9-0.1-1.6-0.3-2.3
			c-0.2-0.7-0.5-1.3-0.9-1.7c-0.4-0.5-0.9-0.8-1.5-1.1c-0.6-0.3-1.3-0.4-2-0.4c-0.8,0-1.5,0.1-2.1,0.4c-0.6,0.3-1.1,0.6-1.5,1.1
			c-0.4,0.5-0.7,1-1,1.7c-0.2,0.7-0.3,1.4-0.3,2.3c0,0.9,0.1,1.6,0.3,2.3c0.2,0.7,0.5,1.3,1,1.7c0.4,0.5,0.9,0.8,1.5,1.1
			c0.6,0.2,1.3,0.4,2.1,0.4c0.8,0,1.4-0.1,2-0.4c0.6-0.2,1.1-0.6,1.5-1.1c0.4-0.5,0.7-1.1,0.9-1.7C191.3,53.4,191.4,52.6,191.4,51.7
			L191.4,51.7z M199.5,43.1c0.2,0,0.3,0,0.4,0c0.1,0,0.2,0,0.3,0.1c0.1,0,0.2,0.1,0.3,0.2c0.1,0.1,0.2,0.2,0.3,0.3l8.2,10.3
			c0-0.3-0.1-0.7-0.1-1c0-0.3,0-0.6,0-0.9v-9.1h3.5v17.2h-2.1c-0.3,0-0.6,0-0.8-0.1c-0.2-0.1-0.4-0.3-0.6-0.5l-8.1-10.3
			c0,0.3,0,0.6,0.1,0.9c0,0.3,0,0.6,0,0.8v9.2h-3.5V43.1H199.5L199.5,43.1z M219.7,60.3h-4V43.1h4V60.3L219.7,60.3z M232.4,46.6
			c-0.1,0.2-0.2,0.3-0.4,0.4c-0.1,0.1-0.3,0.1-0.5,0.1c-0.2,0-0.4-0.1-0.6-0.2c-0.2-0.1-0.4-0.2-0.7-0.4c-0.3-0.1-0.6-0.3-0.9-0.4
			c-0.3-0.1-0.7-0.2-1.2-0.2c-0.7,0-1.3,0.2-1.7,0.5c-0.4,0.3-0.6,0.7-0.6,1.3c0,0.3,0.1,0.6,0.3,0.9c0.2,0.2,0.5,0.4,0.9,0.6
			c0.4,0.2,0.8,0.3,1.2,0.5c0.5,0.1,0.9,0.3,1.4,0.5c0.5,0.2,1,0.4,1.4,0.6c0.5,0.2,0.9,0.5,1.2,0.9c0.4,0.4,0.6,0.8,0.9,1.3
			c0.2,0.5,0.3,1.1,0.3,1.8c0,0.8-0.1,1.5-0.4,2.2c-0.3,0.7-0.7,1.3-1.2,1.8c-0.5,0.5-1.2,0.9-1.9,1.2c-0.8,0.3-1.6,0.4-2.6,0.4
			c-0.5,0-1.1-0.1-1.6-0.2c-0.6-0.1-1.1-0.3-1.6-0.5c-0.5-0.2-1-0.4-1.5-0.7c-0.5-0.3-0.9-0.6-1.2-0.9l1.2-1.9
			c0.1-0.1,0.2-0.3,0.4-0.3c0.2-0.1,0.3-0.1,0.5-0.1c0.2,0,0.5,0.1,0.7,0.2c0.2,0.1,0.5,0.3,0.8,0.5c0.3,0.2,0.6,0.3,1,0.5
			c0.4,0.1,0.9,0.2,1.4,0.2c0.7,0,1.3-0.2,1.7-0.5c0.4-0.3,0.6-0.8,0.6-1.5c0-0.4-0.1-0.7-0.3-1c-0.2-0.3-0.5-0.5-0.9-0.6
			c-0.4-0.2-0.8-0.3-1.2-0.4c-0.5-0.1-0.9-0.3-1.4-0.4c-0.5-0.2-0.9-0.3-1.4-0.6c-0.5-0.2-0.9-0.5-1.2-0.9c-0.4-0.4-0.6-0.8-0.9-1.4
			c-0.2-0.5-0.3-1.2-0.3-2c0-0.6,0.1-1.3,0.4-1.9c0.3-0.6,0.6-1.2,1.1-1.6c0.5-0.5,1.1-0.9,1.9-1.1c0.7-0.3,1.6-0.4,2.5-0.4
			c0.5,0,1,0,1.5,0.1c0.5,0.1,1,0.2,1.4,0.4c0.4,0.2,0.9,0.4,1.3,0.6c0.4,0.2,0.7,0.5,1,0.8L232.4,46.6L232.4,46.6z M244.2,53.9v6.4
			h-4v-6.4L234,43.1h3.5c0.3,0,0.6,0.1,0.8,0.2c0.2,0.2,0.4,0.4,0.5,0.6l2.4,5.1c0.2,0.4,0.4,0.8,0.5,1.1c0.2,0.3,0.3,0.7,0.4,1
			c0.1-0.3,0.3-0.7,0.4-1c0.2-0.3,0.3-0.7,0.5-1.1l2.4-5.1c0-0.1,0.1-0.2,0.2-0.3c0.1-0.1,0.2-0.2,0.3-0.3c0.1-0.1,0.2-0.2,0.4-0.2
			c0.1-0.1,0.3-0.1,0.5-0.1h3.5L244.2,53.9z"/>
		<g>
			<path class="st6" d="M170.6,42.9c2.4,0,4.6,1,6.2,2.6l-2.2,2.2c-1-1-2.5-1.7-4-1.7c-3.2,0-5.7,2.6-5.7,5.7c0,1.4,0.5,2.8,1.4,3.8
				c-0.4,0.6-0.9,1.1-1.6,1.5c0.5,0.1,1.1,0.1,1.6,0c0.4-0.1,0.8-0.2,1.1-0.4c0.9,0.6,1.9,0.9,3.1,0.9c1.6,0,3-0.6,4-1.7l2.2,2.2
				c-1.6,1.6-3.8,2.6-6.2,2.6c-4.9,0-8.8-3.9-8.8-8.8C161.8,46.9,165.7,42.9,170.6,42.9z"/>
			<path class="st6" d="M168.4,51.2h4.4c0.3,0,0.6,0.3,0.6,0.6l0,0c0,0.3-0.3,0.6-0.6,0.6h-4.4c-0.3,0-0.6-0.3-0.6-0.6l0,0
				C167.8,51.4,168.1,51.2,168.4,51.2L168.4,51.2z M168.4,49h4.4c0.3,0,0.6,0.3,0.6,0.6l0,0c0,0.3-0.3,0.6-0.6,0.6h-4.4
				c-0.3,0-0.6-0.3-0.6-0.6l0,0C167.8,49.2,168.1,49,168.4,49L168.4,49z M168.4,53.3h4.4c0.3,0,0.6,0.3,0.6,0.6l0,0
				c0,0.3-0.3,0.6-0.6,0.6h-4.4c-0.3,0-0.6-0.3-0.6-0.6l0,0C167.8,53.6,168.1,53.3,168.4,53.3z"/>
		</g>
	</g>
	<g id="Keyboard_Base">
		<g>
			<path class="st7" d="M360.7,213L360.7,213l-338.2,0v0c-8.1,0-12.2,0-14.6,0c4,3.9,14.6,4.5,14.6,4.5h338.2c0,0,10.6-0.6,14.6-4.5
				C372.8,213,369.1,213,360.7,213z"/>
		</g>
	</g>
	<g id="Keyboard">
		<g>
			<path class="st8" d="M375.7,206.7c-0.2-0.2-0.5-0.3-0.7-0.3H8.2c-0.3,0-0.5,0.1-0.7,0.3c-0.2,0.2-0.3,0.5-0.3,0.7v4.5
				c0,0.6,0.5,1,1,1H375c0.6,0,1-0.5,1-1v-4.5C376.1,207.2,376,206.9,375.7,206.7z"/>
		</g>
	</g>
	<g id="Opening">
		<g>
			<path class="st9" d="M166.7,206.4c0.5,2.2,1.4,3.5,3.8,3.5h42.4c2.4,0,3.3-1.3,3.8-3.5H166.7z"/>
		</g>
	</g>
	<g id="Camera">
		<g>
			<circle class="st10" cx="191.7" cy="11.7" r="1.4"/>
		</g>
	</g>
</g>
<g>
	<g id="Ellipse_47_2_">
		<g>
			<ellipse class="st11" cx="329.6" cy="197.2" rx="52.6" ry="52.6"/>
		</g>
	</g>
	<g id="Ellipse_47_copy_3_2_">
		<g>
			<ellipse class="st6" cx="328.9" cy="196.5" rx="52.6" ry="52.6"/>
		</g>
	</g>
	<g id="Ellipse_47_copy">
		<g>
			<ellipse class="st12" cx="328.9" cy="196.5" rx="49.1" ry="49.1"/>
		</g>
	</g>
	<g>
		<defs>
			<ellipse id="SVGID_1_" cx="326.8" cy="194.3" rx="49.1" ry="49.1"/>
		</defs>
		<clipPath id="SVGID_2_">
			<use xlink:href="#SVGID_1_"  style="overflow:visible;"/>
		</clipPath>
		<g id="Ellipse_47_copy_2_" class="st13">
			<g>
				<ellipse class="st3" cx="328.9" cy="196.5" rx="49.1" ry="49.1"/>
			</g>
		</g>
	</g>
	<g id="Shape_1_2_">
		<g>
			<path class="st5" d="M350.8,216.8c-4.9-8.8-14.2-14.2-14.2-14.2c-0.6,0.6-4.5,3.4-5.5,7.4c-4-2.3-12.5-8.2-16.7-18.1
				c3.5-1.2,5.9-4.6,6.4-5.1c0,0-5.3-9.1-13.9-13.9c0,0-5,3.6-5.4,8.6l0,0c0,0-1.9,9,14.8,26.2c14.1,14.5,21.1,15.2,25.5,14.6
				c0.8,0,1.5-0.2,2.2-0.4c0,0,0,0,0,0l0,0C348.1,220.6,350.8,216.8,350.8,216.8z"/>
		</g>
	</g>
	<g id="Shape_2_2_">
		<g>
			<path class="st5" d="M342,182.6C342,182.6,341.9,182.6,342,182.6C341.9,182.6,341.9,182.6,342,182.6
				C341.9,182.5,341.9,182.5,342,182.6c-2.6-2.6-6.6-3.7-9.9-2.2c-1,0.5-0.2,1.9,0.8,1.5c0,0,0,0,0,0c0,0,0,0,0,0c0,0,0,0,0,0
				c0,0,0,0,0,0c0.2-0.1,0.4-0.1,0.6-0.2c0.6-0.2,1.2-0.3,1.8-0.3c2.1-0.1,4,0.9,5.5,2.3c1.5,1.5,2.4,3.3,2.4,5.5
				c0,0.6-0.1,1.2-0.3,1.8c-0.1,0.2-0.1,0.4-0.2,0.6c0,0,0,0,0,0c0,0,0,0,0,0c0,0,0,0,0,0c0,0,0,0,0,0c-0.4,1,1,1.8,1.5,0.8
				C345.7,189.1,344.5,185.2,342,182.6C342,182.6,342,182.6,342,182.6z M347.7,176.4C347.7,176.4,347.7,176.4,347.7,176.4
				C347.7,176.4,347.6,176.3,347.7,176.4c-0.1-0.1-0.1-0.1-0.2-0.2c0,0,0,0,0,0c-4.4-4.4-10.2-7.1-16.5-7.1c-2.8,0-5.7,0.5-8.3,1.7
				c-1,0.5-0.1,1.9,0.8,1.5c0,0,0.1,0,0.1-0.1c0,0,0,0,0,0c0.1,0,0.1,0,0.2-0.1c0.5-0.2,1-0.4,1.5-0.5c1.7-0.5,3.6-0.7,5.4-0.8
				c5.9-0.1,11.4,2.5,15.5,6.7c4.2,4.2,6.8,9.5,6.7,15.5c0,1.8-0.3,3.6-0.8,5.3c-0.1,0.5-0.3,1-0.5,1.6c0,0.1-0.1,0.2-0.1,0.2
				c0,0,0,0,0,0c0,0,0,0,0,0c0,0.1,0,0.1-0.1,0.2c-0.5,1,1,1.8,1.5,0.8c1.2-2.5,1.6-5.5,1.7-8.2
				C354.9,186.5,352.1,180.8,347.7,176.4z"/>
		</g>
	</g>
</g>
</svg>
