<?xml version="1.0" encoding="utf-8"?>
<!-- Generator: Adobe Illustrator 19.0.1, SVG Export Plug-In . SVG Version: 6.00 Build 0)  -->
<svg version="1.1" id="ico" xmlns="http://www.w3.org/2000/svg" xmlns:xlink="http://www.w3.org/1999/xlink" x="0px" y="0px"
	 viewBox="0 0 375 284" style="enable-background:new 0 0 375 284;" xml:space="preserve">
<style type="text/css">
	.st0{fill:#4595E0;}
	.st1{fill:#69B0F2;}
	.st2{opacity:5.882353e-002;}
	.st3{fill:#4877A3;}
	.st4{fill:#F8F8F8;}
	.st5{opacity:7.058824e-002;clip-path:url(#SVGID_2_);}
	.st6{fill-rule:evenodd;clip-rule:evenodd;}
	.st7{fill-rule:evenodd;clip-rule:evenodd;fill:#1F3040;}
	.st8{fill-rule:evenodd;clip-rule:evenodd;fill:#384F64;}
	.st9{fill-rule:evenodd;clip-rule:evenodd;fill:#4877A3;}
	.st10{fill-rule:evenodd;clip-rule:evenodd;fill:#F39A00;}
	.st11{fill-rule:evenodd;clip-rule:evenodd;fill:#A2DD3B;}
	.st12{fill-rule:evenodd;clip-rule:evenodd;fill:#57A2E8;}
	.st13{fill-rule:evenodd;clip-rule:evenodd;fill:#C3C6CA;}
	.st14{fill-rule:evenodd;clip-rule:evenodd;fill:#FFFFFF;}
	.st15{opacity:0.102;}
	.st16{fill-rule:evenodd;clip-rule:evenodd;fill:#F29A00;}
	.st17{fill-rule:evenodd;clip-rule:evenodd;fill:#D66C00;}
	.st18{fill-rule:evenodd;clip-rule:evenodd;fill:#B0B1B2;}
	.st19{fill-rule:evenodd;clip-rule:evenodd;fill:#EEF2F2;}
</style>
<g id="Ellipse_2">
	<path class="st0" d="M140.3,50.5c0-9.8-7.9-17.7-17.6-17.7c-1.5,0-3,0.2-4.5,0.6C117.1,19.7,105.8,9,92,9c-10.6,0-19.8,6.4-24,15.6
		c-3.6-2.4-8-3.7-12.6-3.7C42.5,20.8,32,31.4,32,44.5c0,13.1,10.5,23.7,23.4,23.7c1,0,2-0.1,2.9-0.2v0.2h64.4v0
		C132.4,68.2,140.3,60.2,140.3,50.5z"/>
</g>
<g id="Ellipse_2_copy">
	<path class="st1" d="M137.8,70.3c0-12.5-10-22.6-22.3-22.6c-2,0-3.9,0.3-5.7,0.7c-1.5-17.3-15.9-30.9-33.4-30.9
		c-13.6,0-25.2,8.1-30.5,19.8c-4.6-3-10.1-4.7-16.1-4.7C13.3,32.7,0,46.2,0,62.8s13.3,30.1,29.8,30.1c1.3,0,2.5-0.1,3.8-0.2v0.2
		h81.9v0C127.8,92.9,137.8,82.8,137.8,70.3z"/>
</g>
<g id="Ellipse_2_copy_3">
	<path class="st0" d="M371.4,91.9c0-9.8-7.9-17.7-17.6-17.7c-1.5,0-3,0.2-4.5,0.6c-1.2-13.6-12.5-24.3-26.3-24.3
		c-10.6,0-19.8,6.4-24,15.6c-3.6-2.4-8-3.7-12.6-3.7c-12.9,0-23.4,10.6-23.4,23.7c0,13.1,10.5,23.7,23.4,23.7c1,0,2-0.1,2.9-0.2v0.2
		h64.4v0C363.6,109.6,371.4,101.7,371.4,91.9z"/>
</g>
<g id="Ellipse_2_copy_3_1_">
	<path class="st1" d="M368.9,111.8c0-12.5-10-22.6-22.3-22.6c-2,0-3.9,0.3-5.7,0.7c-1.5-17.3-15.9-30.9-33.4-30.9
		c-13.6,0-25.2,8.1-30.5,19.8c-4.6-3-10.1-4.7-16.1-4.7c-16.5,0-29.8,13.5-29.8,30.1s13.3,30.1,29.8,30.1c1.3,0,2.5-0.1,3.8-0.2v0.2
		h81.9v0C358.9,134.3,368.9,124.2,368.9,111.8z"/>
</g>
<g id="Ellipse_2_copy_7" class="st2">
	<g>
		<path d="M375,185.2c0-15.6-6.6-29.6-17.2-39.3l-39.5-44.9l-126.5,35.4c-11.3-23.4-35-39.5-62.3-39.5c-38.3,0-69.4,31.6-69.4,70.5
			c0,2,0.1,3.9,0.3,5.8l-18.1,5.1l33.2,33.3c3.3,4.2,7.1,7.9,11.2,11.2l0.2,0.2l0,0c11.8,9.3,26.6,14.9,42.6,14.9
			c1.9,0,3.7-0.1,5.6-0.2v0.2h190.8V238C353.3,236.5,375,213.4,375,185.2z"/>
	</g>
</g>
<g id="Ellipse_2_copy_8">
	<path class="st3" d="M339.4,143.5c0-28.8-22.6-52.1-50.7-52.9c-0.8-14.1-12.4-25.2-26.7-25.2c-4,0-7.8,0.9-11.2,2.5
		c-12.4-34.4-45.2-59-83.8-59c-41,0-75.5,27.7-85.9,65.5c-0.1,0-0.1,0-0.2,0c-34.4,0-62.4,27.3-62.4,61s27.9,61,62.4,61
		c1,0,2,0,3-0.1v0.1h204.9v0C316.8,195.6,339.4,172.3,339.4,143.5z"/>
</g>
<g id="Ellipse_2_copy_9">
	<path class="st4" d="M333.4,134.6c0-28.8-22.6-52.1-50.7-52.8c-0.8-14.1-12.4-25.2-26.7-25.2c-4,0-7.8,0.9-11.2,2.5
		C232.5,24.6,199.6,0,161,0c-41,0-75.5,27.7-85.9,65.5c-0.1,0-0.1,0-0.2,0c-34.4,0-62.4,27.3-62.4,61s27.9,61,62.4,61c1,0,2,0,3-0.1
		v0.1h204.9v0C310.9,186.7,333.4,163.3,333.4,134.6z"/>
</g>
<g>
	<defs>
		<path id="SVGID_1_" d="M333.4,134.6c0-28.8-22.6-52.1-50.7-52.8c-0.8-14.1-12.4-25.2-26.7-25.2c-4,0-7.8,0.9-11.2,2.5
			C232.5,24.6,199.6,0,161,0c-41,0-75.5,27.7-85.9,65.5c-0.1,0-0.1,0-0.2,0c-34.4,0-62.4,27.3-62.4,61s27.9,61,62.4,61
			c1,0,2,0,3-0.1v0.1h204.9v0C310.9,186.7,333.4,163.3,333.4,134.6z"/>
	</defs>
	<clipPath id="SVGID_2_">
		<use xlink:href="#SVGID_1_"  style="overflow:visible;"/>
	</clipPath>
	<g id="Rectangle_122" class="st5">
		<g>
			<polygon class="st6" points="218.6,76.2 111.7,183.3 218.6,290.3 325.4,183.3 			"/>
		</g>
	</g>
</g>
<g id="Rectangle_120">
	<g>
		<rect x="102.5" y="268.7" class="st7" width="113.3" height="11.7"/>
	</g>
</g>
<g id="Rounded_Rectangle_34">
	<g>
		<path class="st8" d="M218.5,76.6H99.8c-1.5,0-2.7,1.2-2.7,2.7v187.5c0,1.5,1.2,2.7,2.7,2.7h118.7c1.5,0,2.7-1.2,2.7-2.7V79.3
			C221.2,77.8,220,76.6,218.5,76.6z"/>
	</g>
</g>
<g id="Rectangle_121">
	<g>
		<rect x="97.1" y="126.2" class="st9" width="124.1" height="3.6"/>
	</g>
</g>
<g id="Rectangle_121_copy">
	<g>
		<rect x="97.1" y="144.3" class="st9" width="124.1" height="3.6"/>
	</g>
</g>
<g id="Rectangle_121_copy_2">
	<g>
		<rect x="97.1" y="162.3" class="st9" width="124.1" height="3.6"/>
	</g>
</g>
<g id="Rectangle_121_copy_3">
	<g>
		<rect x="97.1" y="180.3" class="st9" width="124.1" height="3.6"/>
	</g>
</g>
<g id="Rectangle_121_copy_4">
	<g>
		<rect x="97.1" y="126.2" class="st10" width="21.6" height="3.6"/>
	</g>
</g>
<g id="Rectangle_121_copy_4_1_">
	<g>
		<rect x="97.1" y="144.3" class="st10" width="21.6" height="3.6"/>
	</g>
</g>
<g id="Rectangle_121_copy_4_2_">
	<g>
		<rect x="97.1" y="162.3" class="st10" width="21.6" height="3.6"/>
	</g>
</g>
<g id="Rectangle_121_copy_4_3_">
	<g>
		<rect x="97.1" y="180.3" class="st10" width="21.6" height="3.6"/>
	</g>
</g>
<g id="Rounded_Rectangle_34_copy">
	<g>
		<path class="st8" d="M218.5,278.6H99.8c-1.5,0-2.7,1.2-2.7,2.7c0,1.5,1.2,2.7,2.7,2.7h118.7c1.5,0,2.7-1.2,2.7-2.7
			C221.2,279.8,220,278.6,218.5,278.6z"/>
	</g>
</g>
<g id="Rounded_Rectangle_34_1_">
	<g>
		<path class="st7" d="M209.5,85.6h-50.4c-1.5,0-2.7,1.2-2.7,2.7v27c0,1.5,1.2,2.7,2.7,2.7h50.4c1.5,0,2.7-1.2,2.7-2.7v-27
			C212.2,86.9,211,85.6,209.5,85.6z"/>
	</g>
</g>
<g id="Rounded_Rectangle_36">
	<g>
		<path class="st11" d="M208.2,110.9h-5.4c-0.7,0-1.3,0.6-1.3,1.4s0.6,1.4,1.3,1.4h5.4c0.7,0,1.3-0.6,1.3-1.4
			S208.9,110.9,208.2,110.9z"/>
	</g>
</g>
<g id="Rounded_Rectangle_36_copy">
	<g>
		<path class="st11" d="M197.4,110.9H192c-0.7,0-1.3,0.6-1.3,1.4s0.6,1.4,1.3,1.4h5.4c0.7,0,1.3-0.6,1.3-1.4
			S198.1,110.9,197.4,110.9z"/>
	</g>
</g>
<g id="Rounded_Rectangle_36_copy_2">
	<g>
		<path class="st10" d="M186.6,110.9h-5.4c-0.7,0-1.3,0.6-1.3,1.4s0.6,1.4,1.3,1.4h5.4c0.7,0,1.3-0.6,1.3-1.4
			S187.3,110.9,186.6,110.9z"/>
	</g>
</g>
<g id="Rounded_Rectangle_36_copy_3">
	<g>
		<path class="st11" d="M134.4,94.7H129c-0.7,0-1.3,0.6-1.3,1.4s0.6,1.4,1.3,1.4h5.4c0.7,0,1.3-0.6,1.3-1.4S135.2,94.7,134.4,94.7z"
			/>
	</g>
</g>
<g id="Rounded_Rectangle_36_copy_3_1_">
	<g>
		<path class="st11" d="M123.7,94.7h-5.4c-0.7,0-1.3,0.6-1.3,1.4s0.6,1.4,1.3,1.4h5.4c0.7,0,1.3-0.6,1.3-1.4S124.4,94.7,123.7,94.7z
			"/>
	</g>
</g>
<g id="Rounded_Rectangle_36_copy_3_2_">
	<g>
		<path class="st10" d="M112.9,94.7h-5.4c-0.7,0-1.3,0.6-1.3,1.4s0.6,1.4,1.3,1.4h5.4c0.7,0,1.3-0.6,1.3-1.4S113.6,94.7,112.9,94.7z
			"/>
	</g>
</g>
<g id="Rounded_Rectangle_36_copy_4">
	<g>
		<path class="st11" d="M134.4,99.2H129c-0.7,0-1.3,0.6-1.3,1.4c0,0.7,0.6,1.4,1.3,1.4h5.4c0.7,0,1.3-0.6,1.3-1.4
			C135.8,99.8,135.2,99.2,134.4,99.2z"/>
	</g>
</g>
<g id="Rounded_Rectangle_36_copy_4_1_">
	<g>
		<path class="st11" d="M123.7,99.2h-5.4c-0.7,0-1.3,0.6-1.3,1.4c0,0.7,0.6,1.4,1.3,1.4h5.4c0.7,0,1.3-0.6,1.3-1.4
			C125,99.8,124.4,99.2,123.7,99.2z"/>
	</g>
</g>
<g id="Rounded_Rectangle_36_copy_4_2_">
	<g>
		<path class="st11" d="M112.9,99.2h-5.4c-0.7,0-1.3,0.6-1.3,1.4c0,0.7,0.6,1.4,1.3,1.4h5.4c0.7,0,1.3-0.6,1.3-1.4
			C114.2,99.8,113.6,99.2,112.9,99.2z"/>
	</g>
</g>
<g id="Rounded_Rectangle_36_copy_5">
	<g>
		<path class="st12" d="M134.4,103.7H129c-0.7,0-1.3,0.6-1.3,1.4c0,0.7,0.6,1.4,1.3,1.4h5.4c0.7,0,1.3-0.6,1.3-1.4
			C135.8,104.3,135.2,103.7,134.4,103.7z"/>
	</g>
</g>
<g id="Rounded_Rectangle_36_copy_5_1_">
	<g>
		<path class="st12" d="M123.7,103.7h-5.4c-0.7,0-1.3,0.6-1.3,1.4c0,0.7,0.6,1.4,1.3,1.4h5.4c0.7,0,1.3-0.6,1.3-1.4
			C125,104.3,124.4,103.7,123.7,103.7z"/>
	</g>
</g>
<g id="Rounded_Rectangle_36_copy_5_2_">
	<g>
		<path class="st11" d="M112.9,103.7h-5.4c-0.7,0-1.3,0.6-1.3,1.4c0,0.7,0.6,1.4,1.3,1.4h5.4c0.7,0,1.3-0.6,1.3-1.4
			C114.2,104.3,113.6,103.7,112.9,103.7z"/>
	</g>
</g>
<g id="Rounded_Rectangle_35">
	<g>
		<path class="st12" d="M207.7,88.4H161c-1,0-1.8,0.8-1.8,1.8v14.4c0,1,0.8,1.8,1.8,1.8h46.8c1,0,1.8-0.8,1.8-1.8V90.2
			C209.5,89.2,208.7,88.4,207.7,88.4z"/>
	</g>
</g>
<g id="Ellipse_47">
	<g>
		<ellipse class="st13" cx="233.2" cy="188.8" rx="49.1" ry="49.3"/>
	</g>
</g>
<g id="Ellipse_47_copy_3">
	<g>
		<ellipse class="st14" cx="232.6" cy="188.1" rx="49.1" ry="49.3"/>
	</g>
</g>
<g id="Rounded_Rectangle_34_copy_2" class="st15">
	<g>
		<path class="st14" d="M146.6,76.6H99.8c-1.5,0-2.7,1.2-2.7,2.7v187.5c0,1.5,1.2,2.7,2.7,2.7h46.8h2.7V76.6H146.6z"/>
	</g>
</g>
<g>
	<path class="st16" d="M233.5,159.1c8,0,15.1,3.2,20.4,8.5L233.5,188l20.4,20.4c-5.2,5.2-12.4,8.5-20.4,8.5
		c-15.9,0-28.8-12.9-28.8-28.9S217.6,159.1,233.5,159.1z"/>
	<path class="st17" d="M235.4,189.9l-1.9-1.9l1.9-1.9l3.4-3.4l3.2-3.2l4.6-4.6c-3.2-2.6-7.3-4.2-11.8-4.2
		c-10.3,0-18.6,8.4-18.6,18.7c0,4.8,1.8,9.1,4.7,12.4c-1.3,1.9-4.4,2.2-6.4,3.4c3.8,0.7,6,0.5,9.6-0.4c2.7,1.9,7.1,3.3,10.8,3.3
		c5.7,0,10.3-2,13.5-5.3l-1.6-1.6l-4.7-4.7l-3.2-3.2L235.4,189.9z"/>
	<path class="st18" d="M234.8,170.7c10.3,0,18.8,8.4,18.8,18.7c0,5.3-1.9,10-5.2,13.4l-26.6-26.7
		C225.1,172.8,229.7,170.7,234.8,170.7z"/>
	<path class="st19" d="M233.5,169.3c10.3,0,18.6,8.4,18.6,18.7c0,10.3-8.3,18.7-18.6,18.7c-3.7,0-7.1-1.1-10-2.9
		c-1.2,0.5-2.4,1-3.7,1.2c-1.8,0.4-3.6,0.4-5.3,0.2c2.1-1.2,3.8-2.8,5.1-4.8c-2.9-3.3-4.7-7.6-4.7-12.4
		C214.9,177.7,223.2,169.3,233.5,169.3z"/>
	<path class="st16" d="M226.4,186.1h14.2c1,0,1.9,0.8,1.9,1.9l0,0c0,1-0.8,1.9-1.9,1.9h-14.2c-1,0-1.9-0.9-1.9-1.9l0,0
		C224.5,186.9,225.4,186.1,226.4,186.1L226.4,186.1z M226.4,179h14.2c1,0,1.9,0.8,1.9,1.9l0,0c0,1-0.8,1.9-1.9,1.9h-14.2
		c-1,0-1.9-0.9-1.9-1.9l0,0C224.5,179.8,225.4,179,226.4,179L226.4,179z M226.4,193.2h14.2c1,0,1.9,0.8,1.9,1.9l0,0
		c0,1-0.8,1.9-1.9,1.9h-14.2c-1,0-1.9-0.9-1.9-1.9l0,0C224.5,194.1,225.4,193.2,226.4,193.2z"/>
</g>
</svg>
