<?xml version="1.0" encoding="utf-8"?>
<!-- Generator: Adobe Illustrator 19.0.1, SVG Export Plug-In . SVG Version: 6.00 Build 0)  -->
<svg version="1.1" id="_x30_1" xmlns="http://www.w3.org/2000/svg" xmlns:xlink="http://www.w3.org/1999/xlink" x="0px" y="0px"
	 viewBox="0 0 206 206" style="enable-background:new 0 0 206 206;" xml:space="preserve">
<style type="text/css">
	.st0{fill:#D9DFE1;}
	.st1{fill:#FFFFFF;}
	.st2{fill-rule:evenodd;clip-rule:evenodd;fill:#FFE461;}
	.st3{fill-rule:evenodd;clip-rule:evenodd;fill:#A2DD3B;}
	.st4{fill-rule:evenodd;clip-rule:evenodd;fill:#77B921;}
	.st5{fill-rule:evenodd;clip-rule:evenodd;fill:#FFFFFF;}
	.st6{clip-path:url(#SVGID_2_);}
	.st7{fill-rule:evenodd;clip-rule:evenodd;fill:#83CA28;}
	.st8{fill-rule:evenodd;clip-rule:evenodd;fill:#66A219;}
	.st9{opacity:0.2118;}
	.st10{fill-rule:evenodd;clip-rule:evenodd;}
	.st11{fill:#66A219;}
	.st12{fill-rule:evenodd;clip-rule:evenodd;fill:#E1564B;}
</style>
<g id="Ellipse_18_copy_9_2_">
	<path class="st0" d="M111.4,5.9C56.2,2.9,9.1,45.3,6.2,100.5c-1.3,23.9,5.9,46.3,18.9,64.2c-5.9,8.7-14.5,15.2-24.4,18.3
		c4.1,0.9,8.5,1.5,13,1.7c9.7,0.5,18.9-0.6,26.9-3.1c16.2,14,37,23,60,24.3c55.1,3,102.2-39.4,105.2-94.6
		C208.8,56,166.5,8.8,111.4,5.9z"/>
</g>
<g id="Ellipse_18_copy_4_2_">
	<path class="st1" d="M101,0C45.8,0,1,44.8,1,100.1c0,23.9,8.4,45.9,22.4,63.1c-5.5,9-13.7,15.9-23.4,19.6c4.2,0.7,8.6,1,13.1,1
		c9.7,0,18.9-1.7,26.7-4.6c16.9,13.2,38.2,21,61.2,21c55.2,0,100-44.8,100-100.1S156.3,0,101,0z"/>
</g>
<g>
	<g id="Ellipse_60">
		<g>
			<circle class="st2" cx="101.5" cy="100.1" r="90"/>
		</g>
	</g>
	<g id="Rounded_Rectangle_29">
		<g>
			<path class="st3" d="M162.5,59.1h-120c-2.8,0-5,2.2-5,5v31c0,2.8,2.2,5,5,5h120c2.8,0,5-2.2,5-5v-31
				C167.5,61.4,165.3,59.1,162.5,59.1z"/>
		</g>
	</g>
	<g id="Rectangle_104">
		<g>
			<polygon class="st4" points="163.5,62.1 156.5,95.1 167.5,95.1 167.5,69.1 			"/>
		</g>
	</g>
	<g id="Rounded_Rectangle_29_copy_3">
		<g>
			<path class="st5" d="M164.5,64.1c0-2,0-2-2-2h-118c-2.2,0-4,1.8-4,4v12c0,2.2,1.8,4,4,4h116c2.2,0,4-1,4-4
				C163.4,70.5,164.5,64.1,164.5,64.1z"/>
		</g>
	</g>
	<g id="Rounded_Rectangle_29_copy">
		<g>
			<path class="st3" d="M162.5,78.1h-118c-2.5,0-4-1.5-4-4v29c0,2.8,2.2,5,5,5h117c2.8,0,5-2.2,5-5v-20
				C167.5,80.4,165.3,78.1,162.5,78.1z"/>
		</g>
	</g>
	<g>
		<defs>
			<circle id="SVGID_1_" cx="101.5" cy="100.1" r="90"/>
		</defs>
		<clipPath id="SVGID_2_">
			<use xlink:href="#SVGID_1_"  style="overflow:visible;"/>
		</clipPath>
		<g id="Rounded_Rectangle_29_copy_2" class="st6">
			<g>
				<path class="st7" d="M162.5,81.1h-120c-2.8,0-5-2.3-5-5v109c0,2.8,2.2,5,5,5h120c2.8,0,5-2.2,5-5v-99
					C167.5,83.4,165.3,81.1,162.5,81.1z"/>
			</g>
		</g>
		<g id="Rounded_Rectangle_29_copy_4" class="st6">
			<g>
				<path class="st4" d="M162.5,81.1h-120l109,109h16v-104C167.5,83.4,165.3,81.1,162.5,81.1z"/>
			</g>
		</g>
		<g id="Rectangle_106" class="st6">
			<g>
				<rect x="43.5" y="81.1" class="st8" width="1" height="109"/>
			</g>
		</g>
	</g>
	<g id="Rectangle_105" class="st9">
		<g>
			<polygon class="st10" points="50.5,78.1 50.5,117.1 59.4,109.2 68.5,117.1 68.5,78.1 			"/>
		</g>
	</g>
	<g id="Rounded_Rectangle_30">
		<g>
			<path class="st8" d="M124.5,150.1h-44c-1.1,0-2,0.9-2,2v1c0,1.1,0.9,2,2,2h44c1.1,0,2-0.9,2-2v-1
				C126.5,151,125.6,150.1,124.5,150.1z"/>
		</g>
	</g>
	<g id="Rounded_Rectangle_30_copy">
		<g>
			<path class="st8" d="M124.5,160.1h-44c-1.1,0-2,0.9-2,2v1c0,1.1,0.9,2,2,2h44c1.1,0,2-0.9,2-2v-1
				C126.5,161,125.6,160.1,124.5,160.1z"/>
		</g>
	</g>
	<g id="Rounded_Rectangle_30_copy_2">
		<g>
			<path class="st8" d="M114.5,170.1h-24c-1.1,0-2,0.9-2,2v1c0,1.1,0.9,2,2,2h24c1.1,0,2-0.9,2-2v-1
				C116.5,171,115.6,170.1,114.5,170.1z"/>
		</g>
	</g>
	<g id="Ellipse_97">
		<g>
			<path class="st11" d="M102.5,123.1c5.5,0,10-4.5,10-10c0-5.5-4.5-10-10-10s-10,4.5-10,10C92.5,118.7,97,123.1,102.5,123.1z
				 M102.5,126.1c-5.9,0-11.1,3.2-13.8,8h27.7C113.6,129.4,108.4,126.1,102.5,126.1z"/>
		</g>
	</g>
	<g id="Rectangle_105_copy">
		<g>
			<polygon class="st12" points="48.5,75.1 48.5,114.1 57.4,106.3 66.5,114.1 66.5,75.1 			"/>
		</g>
	</g>
</g>
</svg>
