<?xml version="1.0" encoding="utf-8"?>
<!-- Generator: Adobe Illustrator 19.0.1, SVG Export Plug-In . SVG Version: 6.00 Build 0)  -->
<svg version="1.1" id="Group_5_copy" xmlns="http://www.w3.org/2000/svg" xmlns:xlink="http://www.w3.org/1999/xlink" x="0px"
	 y="0px" viewBox="0 0 90.5 90" style="enable-background:new 0 0 90.5 90;" xml:space="preserve">
<style type="text/css">
	.st0{fill-rule:evenodd;clip-rule:evenodd;fill:#559EE3;}
	.st1{clip-path:url(#SVGID_2_);}
	.st2{fill-rule:evenodd;clip-rule:evenodd;fill:#A2DD3B;}
	.st3{opacity:0.1098;}
	.st4{fill-rule:evenodd;clip-rule:evenodd;fill:#FFFFFF;}
</style>
<g id="_x32__1_">
	<g id="Ellipse_49_copy_8">
		<g>
			<circle class="st0" cx="45.5" cy="45" r="45"/>
		</g>
	</g>
	<g>
		<defs>
			<circle id="SVGID_1_" cx="45.5" cy="45" r="45"/>
		</defs>
		<clipPath id="SVGID_2_">
			<use xlink:href="#SVGID_1_"  style="overflow:visible;"/>
		</clipPath>
		<g id="Shape_164" class="st1">
			<path class="st2" d="M81.4,7.1c-1.2-0.7-23.1-8-23.1-8l8.5,5c0,0-7.4-0.6-6,1s4.5,5.5,4.5,5.5s-2.5,1.1-4,0.5
				c-1.5-0.6-1.6,1.9-1,2c0.6,0.1,3.1,2.1,4,2.5c1,0.4,0.3,1.1,0.5,2c0.2,0.9,2.6,4.7,3.5,3c0.9-1.7,2.4-3.5,3.5-4
				c1.1-0.5,1.9,0.6,2.5,1.5c0.6,0.9-1.1,0.4,3,2c4.1,1.7,4,3,4,3s0.6,1.3-1.5,1c-2.1-0.3-3.3-0.7-4.5-1.5c-1.3-0.8-2.7-1.7-3.5-1.5
				c-0.8,0.2-2.6-0.2-3.5,0.5c-0.9,0.7-1.7,0.8-2.5,2.5c-0.8,1.7-1.2,2.2-1.5,4.5c-0.3,2.3-0.9,2.5-1,4c-0.2,1.6,1.5,2.8,1.5,3.5
				s-1.8,2.3,2.5,6c4.3,3.8,6.2,5.1,8.5,4c2.3-1.1,2.4-2,3.5-1c1.1,1,1.8,2.3,1.5,3c-0.3,0.7-2.4-1.3-0.5,2.5c1.9,3.8,3.2,2.1,2,4.5
				c-1.2,2.4-3.7,7.2-4,8.5c-0.3,1.3,1.1,1.1,0,2.5c-1.1,1.4-1.9,1-1.5,2.5c0.4,1.6,1.4,2.5,1,3c-0.4,0.5,1.5,6,1.5,6l21.1-42.7
				C100.5,35.2,82.7,7.8,81.4,7.1z"/>
			<path class="st2" d="M46.3,52.8c-0.3-0.9-2.5-0.9-4-1.5c-1.5-0.6-1.7,0-2.5-1c-0.8-1-4.3-0.6-5-1.5c-0.7-0.9-0.2-3-1.5-4.5
				c-1.3-1.5-3-0.2-5-1c-2-0.8,0.9-3.6-3.5-3.5c-4.5,0.1-7.7,0.4-9,0c-1.4-0.4-3.2-2.8-4-4.5c-0.8-1.8,1.1-3-2-3.5
				c-3.1-0.5-0.8-3.6,2-7s3,1.5,3,1.5s3.4,0,4-2.5c0.6-2.6,9.5-8,9.5-8s1.8-2.5,6-2.5c4.2,0,2.8-4.6,1-6.5c-1.8-1.9-8.3,3.6-9,3.5
				c-0.7,0,0-2,0-2s5-2.1,5.5-3.5c0.5-1.4-4.5-0.5-4.5-0.5s-2.2-2.5-3.5-2c-1.3,0.4-5.1,3.4-10.5,7c-5.5,3.7-10.5,8.6-11,11.1
				c-0.5,2.5,3.5,8.3,3.5,11.1c0,2.8,1,2.1,1.5,3c0.5,0.9,0,0.5,0.5,1c0.5,0.5,2.5,1,2.5,1s-0.7,0.5,1,2c1.8,1.6,2,2.5,2,2.5
				s0.9,3.3-1,5.5c-1.9,2.2,0.1,1.3-0.5,3.5s0.8,1.4,2,4.5c1.2,3.1,0.7,3.4,4,6c3.3,2.6,2.7,2.2,2.5,5.5c-0.2,3.3,2.5,11.3,5,15.6
				c2.6,4.3,5.5,2.2,8,2c2.5-0.2-0.9-1-3-1c-2.1,0-1.1-1.1-1.5-2.5c-0.4-1.5,0.3-1.4,1-2.5c0.7-1.1,0.6-0.4,2-0.5c1.4-0.1,1-2.5,3-4
				s1.2-1.6,3.5-5c2.4-3.4,4.6-1.6,5-2c0.4-0.4,0.4-2.5,1.5-5C45.9,58.4,46.6,53.7,46.3,52.8z"/>
			<g id="Ellipse_1_copy_117" class="st3">
				<g>
					<ellipse class="st4" cx="31.7" cy="32.2" rx="45.2" ry="45.2"/>
				</g>
			</g>
		</g>
	</g>
</g>
</svg>
