<?xml version="1.0" encoding="utf-8"?>
<!-- Generator: Adobe Illustrator 19.0.1, SVG Export Plug-In . SVG Version: 6.00 Build 0)  -->
<svg version="1.1" id="Group_6" xmlns="http://www.w3.org/2000/svg" xmlns:xlink="http://www.w3.org/1999/xlink" x="0px" y="0px"
	 viewBox="0 0 90 90" style="enable-background:new 0 0 90 90;" xml:space="preserve">
<style type="text/css">
	.st0{enable-background:new    ;}
	.st1{fill-rule:evenodd;clip-rule:evenodd;fill:#82C928;}
	.st2{clip-path:url(#SVGID_2_);}
	.st3{fill-rule:evenodd;clip-rule:evenodd;fill:#1A3043;}
	.st4{fill:#284259;}
	.st5{fill:#ECF0F1;}
	.st6{fill:#FFFFFF;}
	.st7{fill:#6E7D8B;}
</style>
<g id="Ellipse_49_copy_3_1_" class="st0">
	<g id="Ellipse_49_copy_3">
		<g>
			<circle class="st1" cx="45" cy="45" r="45"/>
		</g>
	</g>
</g>
<g>
	<defs>
		<circle id="SVGID_1_" cx="45" cy="45" r="45"/>
	</defs>
	<clipPath id="SVGID_2_">
		<use xlink:href="#SVGID_1_"  style="overflow:visible;"/>
	</clipPath>
	<g id="Rectangle_116_2_" class="st2">
		<g>
			<rect x="0" y="29" class="st3" width="90" height="61"/>
		</g>
	</g>
	<g id="Rectangle_117_copy_4_2_" class="st2">
		<g>
			<path class="st4" d="M34,55h22V30H34V55z M57,30v25h22V30H57z M11,55h22V30H11V55z M34,81h22V56H34V81z M57,81h22V56H57V81z
				 M11,81h22V56H11V81z M34,90h22v-8H34V90z M57,90h22v-8H57V90z M11,90h22v-8H11V90z"/>
		</g>
	</g>
</g>
<g id="_x31_____2____3_x0D_4____5____6">
	<g>
		<path class="st5" d="M24.3,41.9h-1.6v-6.5c0-0.8,0-1.4,0.1-1.8c-0.1,0.1-0.2,0.2-0.4,0.4s-0.7,0.6-1.5,1.3l-0.8-1L23,32h1.3V41.9z
			"/>
		<path class="st5" d="M48.9,41.9h-6.8v-1.2l2.6-2.6c0.8-0.8,1.3-1.3,1.5-1.7c0.2-0.3,0.4-0.6,0.5-0.9S47,35,47,34.6
			c0-0.5-0.1-0.8-0.4-1.1c-0.3-0.3-0.6-0.4-1.1-0.4c-0.4,0-0.8,0.1-1.1,0.2c-0.4,0.1-0.8,0.4-1.2,0.8l-0.9-1.1
			c0.6-0.5,1.1-0.8,1.6-1c0.5-0.2,1.1-0.3,1.7-0.3c0.9,0,1.7,0.2,2.2,0.7s0.8,1.1,0.8,2c0,0.5-0.1,0.9-0.2,1.3
			c-0.2,0.4-0.4,0.8-0.7,1.3c-0.3,0.4-0.9,1-1.7,1.7l-1.7,1.7v0.1h4.7V41.9z"/>
		<path class="st5" d="M71.1,34.3c0,0.6-0.2,1.2-0.6,1.6s-0.9,0.7-1.6,0.9v0.1c0.8,0.1,1.4,0.3,1.8,0.7s0.6,0.9,0.6,1.6
			c0,1-0.3,1.7-1,2.2s-1.6,0.8-2.9,0.8c-1.1,0-2-0.2-2.8-0.5v-1.4c0.4,0.2,0.9,0.4,1.3,0.5s0.9,0.2,1.4,0.2c0.8,0,1.4-0.1,1.7-0.4
			s0.6-0.7,0.6-1.3c0-0.5-0.2-0.9-0.6-1.2s-1.1-0.4-2-0.4h-0.9v-1.3h0.9c1.6,0,2.4-0.6,2.4-1.7c0-0.4-0.1-0.8-0.4-1
			s-0.7-0.3-1.2-0.3c-0.4,0-0.7,0.1-1.1,0.2s-0.8,0.3-1.2,0.6l-0.8-1.1c0.9-0.7,2-1,3.2-1c1,0,1.8,0.2,2.4,0.6S71.1,33.5,71.1,34.3z
			"/>
		<path class="st5" d="M26.7,65.8h-1.3v2.2h-1.6v-2.2h-4.6v-1.2l4.6-6.6h1.6v6.5h1.3V65.8z M23.8,64.4v-2.5c0-0.9,0-1.6,0.1-2.2
			h-0.1c-0.1,0.3-0.3,0.7-0.6,1.1l-2.5,3.6H23.8z"/>
		<path class="st5" d="M45.5,61.7c1,0,1.8,0.3,2.4,0.8s0.9,1.3,0.9,2.2c0,1.1-0.3,1.9-1,2.5c-0.7,0.6-1.6,0.9-2.8,0.9
			c-1.1,0-2-0.2-2.6-0.5v-1.5c0.4,0.2,0.8,0.4,1.3,0.5c0.5,0.1,0.9,0.2,1.3,0.2c0.7,0,1.3-0.2,1.7-0.5c0.4-0.3,0.6-0.8,0.6-1.4
			c0-1.2-0.8-1.8-2.3-1.8c-0.2,0-0.5,0-0.8,0.1s-0.6,0.1-0.8,0.1l-0.7-0.4l0.4-4.9h5.2v1.4h-3.8l-0.2,2.5c0.2,0,0.4-0.1,0.6-0.1
			C44.9,61.7,45.2,61.7,45.5,61.7z"/>
		<path class="st5" d="M64.7,63.7c0-3.9,1.6-5.9,4.8-5.9c0.5,0,0.9,0,1.3,0.1v1.3c-0.3-0.1-0.7-0.2-1.2-0.2c-1.1,0-1.9,0.3-2.4,0.9
			s-0.8,1.5-0.9,2.8h0.1c0.2-0.4,0.5-0.7,0.9-0.9s0.8-0.3,1.4-0.3c0.9,0,1.6,0.3,2.1,0.8c0.5,0.6,0.8,1.3,0.8,2.3
			c0,1-0.3,1.9-0.9,2.5c-0.6,0.6-1.4,0.9-2.4,0.9c-0.7,0-1.3-0.2-1.9-0.5s-0.9-0.8-1.2-1.5C64.9,65.4,64.7,64.6,64.7,63.7z
			 M68.2,66.8c0.6,0,1-0.2,1.3-0.5c0.3-0.4,0.4-0.9,0.4-1.5c0-0.6-0.1-1-0.4-1.4c-0.3-0.3-0.7-0.5-1.3-0.5c-0.3,0-0.7,0.1-1,0.2
			s-0.5,0.4-0.7,0.6c-0.2,0.3-0.3,0.5-0.3,0.8c0,0.6,0.2,1.2,0.5,1.6C67.2,66.5,67.7,66.8,68.2,66.8z"/>
	</g>
</g>
<g id="_x31_234">
	<g>
		<path class="st6" d="M33.1,21.9h-1.8v-7.4c0-0.9,0-1.6,0.1-2.1c-0.1,0.1-0.3,0.3-0.4,0.4c-0.2,0.2-0.8,0.6-1.8,1.4l-0.9-1.2
			l3.4-2.6h1.5V21.9z"/>
		<path class="st6" d="M44.6,21.9h-7.7v-1.4l2.9-3c0.9-0.9,1.4-1.5,1.7-1.9c0.3-0.4,0.5-0.7,0.6-1.1c0.1-0.3,0.2-0.7,0.2-1.1
			c0-0.5-0.2-0.9-0.5-1.2c-0.3-0.3-0.7-0.4-1.3-0.4c-0.4,0-0.9,0.1-1.3,0.2c-0.4,0.2-0.9,0.5-1.4,0.9l-1-1.2
			c0.6-0.5,1.3-0.9,1.9-1.1c0.6-0.2,1.2-0.3,1.9-0.3c1.1,0,1.9,0.3,2.6,0.8s1,1.3,1,2.2c0,0.5-0.1,1-0.3,1.5
			c-0.2,0.5-0.5,0.9-0.9,1.4s-1,1.2-1.9,2l-2,1.9v0.1h5.4V21.9z"/>
		<path class="st6" d="M53.3,13.2c0,0.7-0.2,1.3-0.6,1.8s-1,0.8-1.8,1V16c0.9,0.1,1.6,0.4,2.1,0.9s0.7,1.1,0.7,1.8
			c0,1.1-0.4,1.9-1.2,2.5s-1.9,0.9-3.3,0.9c-1.3,0-2.3-0.2-3.2-0.6v-1.6c0.5,0.2,1,0.4,1.5,0.6s1.1,0.2,1.6,0.2c0.9,0,1.5-0.2,2-0.5
			s0.7-0.8,0.7-1.5c0-0.6-0.2-1.1-0.7-1.3c-0.5-0.3-1.2-0.4-2.3-0.4h-1v-1.5h1c1.8,0,2.7-0.6,2.7-1.9c0-0.5-0.2-0.9-0.5-1.1
			s-0.8-0.4-1.4-0.4c-0.4,0-0.8,0.1-1.3,0.2s-0.9,0.4-1.4,0.7L46,11.5c1-0.8,2.3-1.2,3.6-1.2c1.2,0,2,0.2,2.7,0.7
			C53,11.6,53.3,12.3,53.3,13.2z"/>
		<path class="st6" d="M63.3,19.5h-1.5v2.5h-1.8v-2.5h-5.2V18l5.2-7.5h1.8v7.4h1.5V19.5z M59.9,17.9v-2.9c0-1,0-1.9,0.1-2.5h-0.1
			c-0.1,0.3-0.4,0.8-0.7,1.3l-2.8,4.1H59.9z"/>
	</g>
</g>
<g id="ABC______DEF">
	<g>
		<path class="st7" d="M42.2,50.9l-0.4-1.2h-1.6l-0.4,1.2H39l1.6-4.3h0.8l1.6,4.3H42.2z M41.6,49.2L41.2,48c0-0.1-0.1-0.2-0.1-0.4
			S41,47.3,41,47.3c-0.1,0.2-0.1,0.5-0.2,0.8l-0.4,1.1H41.6z"/>
		<path class="st7" d="M43.5,46.7h1.3c0.6,0,1,0.1,1.3,0.3s0.4,0.4,0.4,0.8c0,0.3-0.1,0.5-0.2,0.6s-0.3,0.3-0.6,0.3v0
			c0.3,0.1,0.5,0.2,0.7,0.3c0.1,0.2,0.2,0.4,0.2,0.7c0,0.4-0.1,0.7-0.4,0.9s-0.6,0.3-1.1,0.3h-1.5V46.7z M44.2,48.4h0.7
			c0.3,0,0.5,0,0.6-0.1s0.2-0.3,0.2-0.5c0-0.2-0.1-0.3-0.2-0.4s-0.4-0.1-0.7-0.1h-0.6V48.4z M44.2,49v1.4H45c0.3,0,0.5-0.1,0.7-0.2
			c0.1-0.1,0.2-0.3,0.2-0.5c0-0.2-0.1-0.4-0.2-0.5S45.3,49,44.9,49H44.2z"/>
		<path class="st7" d="M49.3,47.2c-0.4,0-0.7,0.1-0.9,0.4S48,48.3,48,48.8c0,0.5,0.1,0.9,0.3,1.2c0.2,0.3,0.5,0.4,1,0.4
			c0.2,0,0.4,0,0.5-0.1s0.3-0.1,0.5-0.1v0.6C50,50.9,49.7,51,49.2,51c-0.6,0-1.1-0.2-1.4-0.6s-0.5-0.9-0.5-1.6
			c0-0.4,0.1-0.8,0.2-1.2c0.2-0.3,0.4-0.6,0.7-0.8s0.7-0.3,1.1-0.3c0.4,0,0.8,0.1,1.2,0.3l-0.3,0.6c-0.1-0.1-0.3-0.1-0.5-0.2
			C49.7,47.2,49.5,47.2,49.3,47.2z"/>
		<path class="st7" d="M64.1,48.8c0,0.7-0.2,1.2-0.6,1.6s-1,0.6-1.7,0.6h-1.2v-4.3H62c0.7,0,1.2,0.2,1.6,0.6
			C63.9,47.6,64.1,48.1,64.1,48.8z M63.4,48.8c0-1-0.5-1.5-1.4-1.5h-0.6v3.1h0.5C62.9,50.4,63.4,49.8,63.4,48.8z"/>
		<path class="st7" d="M67.5,50.9h-2.4v-4.3h2.4v0.6h-1.7v1.2h1.6V49h-1.6v1.3h1.7V50.9z"/>
		<path class="st7" d="M69.1,50.9h-0.7v-4.3h2.4v0.6h-1.7v1.3h1.6v0.6h-1.6V50.9z"/>
	</g>
</g>
<g id="GHI_______JKL_______MNO">
	<g>
		<path class="st7" d="M20.3,74.6h1.6v2.2c-0.3,0.1-0.5,0.1-0.7,0.2S20.7,77,20.4,77c-0.6,0-1.1-0.2-1.5-0.6
			c-0.4-0.4-0.5-0.9-0.5-1.6c0-0.7,0.2-1.2,0.6-1.6c0.4-0.4,0.9-0.6,1.6-0.6c0.4,0,0.9,0.1,1.3,0.3l-0.2,0.6c-0.3-0.2-0.7-0.2-1-0.2
			c-0.5,0-0.8,0.1-1.1,0.4s-0.4,0.7-0.4,1.2c0,0.5,0.1,0.9,0.4,1.2c0.2,0.3,0.6,0.4,1,0.4c0.2,0,0.5,0,0.7-0.1v-1.1h-0.9V74.6z"/>
		<path class="st7" d="M26.3,76.9h-0.7V75h-2v1.9h-0.7v-4.3h0.7v1.8h2v-1.8h0.7V76.9z"/>
		<path class="st7" d="M27.4,76.9v-4.3h0.7v4.3H27.4z"/>
		<path class="st7" d="M39.6,78.1c-0.2,0-0.4,0-0.5-0.1v-0.6c0.2,0,0.3,0.1,0.4,0.1c0.4,0,0.6-0.2,0.6-0.7v-4.2h0.7v4.1
			c0,0.4-0.1,0.8-0.3,1C40.3,78,40,78.1,39.6,78.1z"/>
		<path class="st7" d="M45.2,76.9h-0.8L43.1,75l-0.4,0.3v1.6H42v-4.3h0.7v2c0.2-0.2,0.4-0.5,0.6-0.7l1.2-1.4h0.8
			c-0.7,0.9-1.3,1.5-1.6,1.9L45.2,76.9z"/>
		<path class="st7" d="M45.8,76.9v-4.3h0.7v3.7h1.8v0.6H45.8z"/>
		<path class="st7" d="M61.8,76.9l-1.2-3.6h0c0,0.5,0,1,0,1.5v2.1H60v-4.3h1l1.2,3.4h0l1.2-3.4h1v4.3h-0.7v-2.1c0-0.2,0-0.5,0-0.8
			c0-0.3,0-0.5,0-0.6h0l-1.3,3.6H61.8z"/>
		<path class="st7" d="M69.1,76.9h-0.9l-2.1-3.4h0l0,0.2c0,0.4,0,0.7,0,1v2.2h-0.6v-4.3h0.8l2.1,3.4h0c0,0,0-0.2,0-0.5
			c0-0.3,0-0.5,0-0.7v-2.2h0.6V76.9z"/>
		<path class="st7" d="M74,74.8c0,0.7-0.2,1.2-0.5,1.6C73.1,76.8,72.6,77,72,77c-0.6,0-1.1-0.2-1.5-0.6C70.2,76,70,75.5,70,74.8
			s0.2-1.3,0.5-1.6c0.3-0.4,0.8-0.6,1.5-0.6c0.6,0,1.1,0.2,1.5,0.6S74,74.1,74,74.8z M70.7,74.8c0,0.5,0.1,0.9,0.3,1.2
			c0.2,0.3,0.5,0.4,0.9,0.4c0.4,0,0.7-0.1,0.9-0.4s0.3-0.7,0.3-1.2c0-0.5-0.1-0.9-0.3-1.2c-0.2-0.3-0.5-0.4-0.9-0.4
			c-0.4,0-0.7,0.1-1,0.4C70.8,73.9,70.7,74.3,70.7,74.8z"/>
	</g>
</g>
</svg>
