<?xml version="1.0" encoding="utf-8"?>
<!-- Generator: Adobe Illustrator 19.0.1, SVG Export Plug-In . SVG Version: 6.00 Build 0)  -->
<svg version="1.1" id="Group_32" xmlns="http://www.w3.org/2000/svg" xmlns:xlink="http://www.w3.org/1999/xlink" x="0px" y="0px"
	 viewBox="0 0 90 90" style="enable-background:new 0 0 90 90;" xml:space="preserve">
<style type="text/css">
	.st0{display:none;}
	.st1{display:inline;}
	.st2{fill-rule:evenodd;clip-rule:evenodd;fill:#F39A00;}
	.st3{fill:#F39A00;}
	.st4{fill:#FFFFFF;}
	.st5{fill-rule:evenodd;clip-rule:evenodd;fill:#FFFFFF;}
	.st6{clip-path:url(#SVGID_2_);}
	.st7{clip-path:url(#SVGID_4_);}
	.st8{clip-path:url(#SVGID_6_);}
</style>
<g id="Ellipse_49_copy_4" class="st0">
	<g class="st1">
		<circle class="st2" cx="45" cy="45" r="45"/>
	</g>
</g>
<g>
	<path class="st3" d="M90,45C90,20.1,69.9,0,45,0S0,20.1,0,45c0,16.9,9.3,31.5,23,39.3V67c0-1.1,0.9-2,2-2h40c1.1,0,2,0.9,2,2v17.3
		C80.7,76.5,90,61.9,90,45z"/>
	<path class="st4" d="M65,65H25c-1.1,0-2,0.9-2,2v17.3c6.5,3.7,14,5.7,22,5.7s15.5-2.1,22-5.7V67C67,65.9,66.1,65,65,65z"/>
</g>
<g id="Rounded_Rectangle_32">
	<g>
		<path class="st2" d="M36,69h-8c-0.6,0-1,0.4-1,1v10c0,0.6,0.4,1,1,1h8c0.6,0,1-0.4,1-1V70C37,69.4,36.6,69,36,69z"/>
	</g>
</g>
<g id="Rounded_Rectangle_33">
	<g>
		<path class="st5" d="M35,71h-6c-0.6,0-1,0.4-1,1v7c0,0.6,0.4,1,1,1h6c0.6,0,1-0.4,1-1v-7C36,71.4,35.6,71,35,71z"/>
	</g>
</g>
<g id="Rectangle_104">
	<g>
		<rect x="30" y="77" class="st5" width="4" height="9"/>
	</g>
</g>
<g id="Rounded_Rectangle_29">
	<g>
		<path class="st2" d="M62,69H42c-0.6,0-1,0.4-1,1v5c0,0.6,0.4,1,1,1h20c0.6,0,1-0.4,1-1v-5C63,69.4,62.6,69,62,69z"/>
	</g>
</g>
<g id="Rounded_Rectangle_30">
	<g>
		<path class="st2" d="M62,78h-4c-0.6,0-1,0.4-1,1s0.4,1,1,1h4c0.6,0,1-0.4,1-1S62.6,78,62,78z"/>
	</g>
</g>
<g id="Rounded_Rectangle_31">
	<g>
		<path class="st2" d="M54,78h-4c-0.6,0-1,0.4-1,1s0.4,1,1,1h4c0.6,0,1-0.4,1-1S54.6,78,54,78z"/>
	</g>
</g>
<g id="Rounded_Rectangle_31_copy">
	<g>
		<path class="st2" d="M46,78h-4c-0.6,0-1,0.4-1,1s0.4,1,1,1h4c0.6,0,1-0.4,1-1S46.6,78,46,78z"/>
	</g>
</g>
<g id="Rounded_Rectangle_30_copy">
	<g>
		<path class="st2" d="M62,82h-4c-0.6,0-1,0.4-1,1s0.4,1,1,1h4c0.6,0,1-0.4,1-1S62.6,82,62,82z"/>
	</g>
</g>
<g id="Rounded_Rectangle_31_copy_2">
	<g>
		<path class="st2" d="M54,82h-4c-0.6,0-1,0.4-1,1s0.4,1,1,1h4c0.6,0,1-0.4,1-1S54.6,82,54,82z"/>
	</g>
</g>
<g id="Rounded_Rectangle_31_copy_2_1_">
	<g>
		<path class="st2" d="M46,82h-4c-0.6,0-1,0.4-1,1s0.4,1,1,1h4c0.6,0,1-0.4,1-1S46.6,82,46,82z"/>
	</g>
</g>
<g id="Shape_3">
	<g>
		<rect x="44" y="39" class="st5" width="1" height="24"/>
	</g>
</g>
<g id="Shape_4">
	<g>
		<rect x="36" y="53.6" transform="matrix(0.7071 -0.7071 0.7071 0.7071 -30.6757 42.9465)" class="st5" width="1" height="9.9"/>
	</g>
</g>
<g id="Shape_4_copy">
	<g>
		<rect x="48.8" y="58.5" transform="matrix(0.7071 -0.7071 0.7071 0.7071 -25.903 55.4654)" class="st5" width="10.3" height="1"/>
	</g>
</g>
<g id="Ellipse_99">
	<g>
		<ellipse class="st5" cx="25" cy="44.9" rx="11" ry="10.9"/>
	</g>
</g>
<g>
	<defs>
		<ellipse id="SVGID_1_" cx="25" cy="44.8" rx="9.5" ry="9.3"/>
	</defs>
	<clipPath id="SVGID_2_">
		<use xlink:href="#SVGID_1_"  style="overflow:visible;"/>
	</clipPath>
	<g id="Ellipse_97_copy" class="st6">
		<g>
			<path class="st3" d="M25.4,46.9c2.4,0,4.4-1.9,4.4-4.3s-2-4.3-4.4-4.3S21,40.2,21,42.6S23,46.9,25.4,46.9z M25.4,48.2
				c-3.8,0-7,3.1-7,6.9s3.1,6.9,7,6.9s7-3.1,7-6.9S29.2,48.2,25.4,48.2z"/>
		</g>
	</g>
</g>
<g id="Ellipse_99_1_">
	<g>
		<ellipse class="st5" cx="45" cy="24.9" rx="11" ry="10.9"/>
	</g>
</g>
<g>
	<defs>
		<ellipse id="SVGID_3_" cx="45" cy="24.8" rx="9.5" ry="9.3"/>
	</defs>
	<clipPath id="SVGID_4_">
		<use xlink:href="#SVGID_3_"  style="overflow:visible;"/>
	</clipPath>
	<g id="Ellipse_97_copy_1_" class="st7">
		<g>
			<path class="st3" d="M45.4,26.9c2.4,0,4.4-1.9,4.4-4.3s-2-4.3-4.4-4.3S41,20.2,41,22.6S43,26.9,45.4,26.9z M45.4,28.2
				c-3.8,0-7,3.1-7,6.9s3.1,6.9,7,6.9s7-3.1,7-6.9S49.2,28.2,45.4,28.2z"/>
		</g>
	</g>
</g>
<g id="Ellipse_99_2_">
	<g>
		<ellipse class="st5" cx="65" cy="44.9" rx="11" ry="10.9"/>
	</g>
</g>
<g>
	<defs>
		<ellipse id="SVGID_5_" cx="65" cy="44.8" rx="9.5" ry="9.3"/>
	</defs>
	<clipPath id="SVGID_6_">
		<use xlink:href="#SVGID_5_"  style="overflow:visible;"/>
	</clipPath>
	<g id="Ellipse_97_copy_2_" class="st8">
		<g>
			<path class="st3" d="M65.4,46.9c2.4,0,4.4-1.9,4.4-4.3s-2-4.3-4.4-4.3S61,40.2,61,42.6S63,46.9,65.4,46.9z M65.4,48.2
				c-3.8,0-7,3.1-7,6.9s3.1,6.9,7,6.9s7-3.1,7-6.9S69.2,48.2,65.4,48.2z"/>
		</g>
	</g>
</g>
</svg>
