<?xml version="1.0" encoding="utf-8"?>
<!-- Generator: Adobe Illustrator 19.0.1, SVG Export Plug-In . SVG Version: 6.00 Build 0)  -->
<svg version="1.1" xmlns="http://www.w3.org/2000/svg" xmlns:xlink="http://www.w3.org/1999/xlink" x="0px" y="0px"
	 viewBox="0 0 90 90" style="enable-background:new 0 0 90 90;" xml:space="preserve">
<style type="text/css">
	.st0{fill-rule:evenodd;clip-rule:evenodd;fill:#559EE3;}
	.st1{opacity:0.1;clip-path:url(#SVGID_2_);}
	.st2{fill-rule:evenodd;clip-rule:evenodd;}
	.st3{fill:#FFFFFF;}
</style>
<g id="Ellipse_49_copy_5_1_">
	<g id="Ellipse_49_copy_5">
		<g>
			<circle class="st0" cx="45" cy="45" r="45"/>
		</g>
	</g>
</g>
<g id="Ellipse_49_copy_6">
	<g>
		<defs>
			<circle id="SVGID_1_" cx="45" cy="45" r="45"/>
		</defs>
		<clipPath id="SVGID_2_">
			<use xlink:href="#SVGID_1_"  style="overflow:visible;"/>
		</clipPath>
		<g id="Shape_1_copy_4" class="st1">
			<g>
				<path class="st2" d="M64,22l-0.4,0.4c0.3,0.1,0.5,0.3,0.7,0.5l1.3,1.4c2.6,2.6-1,7.8-2,9.1c0.9,1.6-1,5.8-0.5,7.7
					c0.5,0.1,10.4-1.4,10.4,2.7v1.4c0,3.1-6.2,4.8-7.8,5.3c-0.5,1.8-1.2,3.5-2.1,5.1c0.1,0.2,4.9,6.2,2,9.1l-1.5,1.5
					c-2.2,2.2-7.7-1.2-9-2.1c-1.7,0.9-3.5,1.7-5.4,2.2l0.4,0c0,0-1,7.9-5.2,7.9h-1.4c-3.2,0-0.8-9.1-1.1-10.4
					c-1.9-0.5-7.9,1.1-9.6,0.1l0.3,0.3c0,0-6.1,4.8-9.1,2l27,26l22-6l14-13l8-19L64,22z"/>
			</g>
		</g>
	</g>
</g>
<g id="shape_1_">
	<g id="shape">
		<g>
			<path class="st3" d="M45,33.8c-6.2,0-11.3,5-11.3,11.3c0,6.2,5,11.3,11.3,11.3s11.3-5,11.3-11.3C56.3,38.8,51.2,33.8,45,33.8z
				 M45,50.6c-3.1,0-5.6-2.5-5.6-5.6c0-3.1,2.5-5.6,5.6-5.6s5.6,2.5,5.6,5.6C50.6,48.1,48.1,50.6,45,50.6z M67.1,38.9
				c-0.5-1.8-1.2-3.6-2.2-5.2c1.1-1.4,4.7-6.7,2.1-9.3L65.6,23c-2.2-2.2-7.9,1.3-9.3,2.2c-1.6-0.9-3.4-1.7-5.3-2.2
				c-0.3-1.8-1.6-8-5.3-8h-1.5c-3.2,0-5,6.4-5.4,8c-1.8,0.5-3.6,1.3-5.2,2.2c-1.3-0.9-6.7-4.7-9.4-2.1L23,24.3
				c-2.3,2.3,1.5,8.4,2.2,9.5c-0.9,1.6-1.6,3.3-2.1,5.1c-1.5,0.2-8.1,1.5-8.1,5.3v1.5c0,3.3,6.9,5.1,8.1,5.4
				c0.5,1.8,1.2,3.5,2.1,5.1c-0.7,1.2-4.4,7.3-2.1,9.6l1.3,1.1c3,3,9.4-1.9,9.4-1.9l-0.3-0.3c1.7,1,3.5,1.8,5.4,2.3
				c0.3,1.3,2.1,8.1,5.4,8.1h1.5c4.3,0,5.3-8,5.3-8l-0.4,0c1.9-0.5,3.8-1.2,5.5-2.2c1.3,0.9,6.9,4.4,9.2,2.2l1.5-1.5
				c3-3-1.9-9.1-2-9.3c0.9-1.6,1.7-3.3,2.2-5.2c1.7-0.4,8-2.2,8-5.4v-1.5C75,40.1,67.5,38.9,67.1,38.9z M45,61.9
				c-9.3,0-16.9-7.6-16.9-16.9c0-9.3,7.6-16.9,16.9-16.9c9.3,0,16.9,7.6,16.9,16.9C61.9,54.3,54.3,61.9,45,61.9z M45,42.5
				c-1.4,0-2.5,1.1-2.5,2.5c0,1.4,1.1,2.5,2.5,2.5s2.5-1.1,2.5-2.5C47.5,43.6,46.4,42.5,45,42.5z"/>
		</g>
	</g>
</g>
</svg>
