<?xml version="1.0" encoding="utf-8"?>
<!-- Generator: Adobe Illustrator 19.0.1, SVG Export Plug-In . SVG Version: 6.00 Build 0)  -->
<svg version="1.1" id="Group_31" xmlns="http://www.w3.org/2000/svg" xmlns:xlink="http://www.w3.org/1999/xlink" x="0px" y="0px"
	 viewBox="0 0 90 90" style="enable-background:new 0 0 90 90;" xml:space="preserve">
<style type="text/css">
	.st0{fill-rule:evenodd;clip-rule:evenodd;fill:#F39A00;}
	.st1{fill-rule:evenodd;clip-rule:evenodd;fill:#FFFFFF;}
	.st2{clip-path:url(#SVGID_2_);}
	.st3{fill:#F39A00;}
	.st4{fill:#FFFFFF;}
</style>
<g id="Ellipse_49_copy_4">
	<g>
		<circle class="st0" cx="45" cy="45" r="45"/>
	</g>
</g>
<g id="Ellipse_99">
	<g>
		<ellipse class="st1" cx="45" cy="65.2" rx="15" ry="15.2"/>
	</g>
</g>
<g>
	<defs>
		<circle id="SVGID_1_" cx="45" cy="65" r="13"/>
	</defs>
	<clipPath id="SVGID_2_">
		<use xlink:href="#SVGID_1_"  style="overflow:visible;"/>
	</clipPath>
	<g id="Ellipse_97_copy" class="st2">
		<g>
			<path class="st3" d="M45.5,68c3.3,0,5.9-2.7,5.9-6s-2.7-6-5.9-6s-5.9,2.7-5.9,6S42.2,68,45.5,68z M45.5,69.8
				c-5.2,0-9.5,4.3-9.5,9.6s4.3,9.6,9.5,9.6s9.5-4.3,9.5-9.6S50.7,69.8,45.5,69.8z"/>
		</g>
	</g>
</g>
<g>
	<path class="st4" d="M61.5,14.7c-1.5,0-2.9,0.8-3.6,2.1c-0.2,0-0.4,0-0.6,0c-3.9,0-7.6,1.9-10.3,4.8v-3.5v-4c1.2-0.7,2.1-2,2.1-3.6
		c0-2.3-1.9-4.1-4.1-4.1s-4.1,1.9-4.1,4.1c0,1.5,0.8,2.8,2.1,3.6v4v10.8v4.5h-4.6l-0.2,0.2c-0.2,0.2-0.2,0.4,0,0.6l6.7,6.7
		c0.2,0.2,0.4,0.2,0.6,0l6.7-6.7c0.2-0.2,0.2-0.4,0-0.6l-0.2-0.2h-4.9v-2.9c0-4.9,6.1-9.6,10.3-9.6c0.2,0,0.4,0,0.6,0
		c0.7,1.2,2,2.1,3.6,2.1c2.3,0,4.1-1.9,4.1-4.1C65.6,16.5,63.8,14.7,61.5,14.7z M45,8.5c1.1,0,2.1,0.9,2.1,2.1
		c0,1.1-0.9,2.1-2.1,2.1c-1.1,0-2.1-0.9-2.1-2.1C42.9,9.4,43.9,8.5,45,8.5z M61.5,20.9c-1.1,0-2.1-0.9-2.1-2.1
		c0-1.1,0.9-2.1,2.1-2.1c1.1,0,2.1,0.9,2.1,2.1C63.6,20,62.7,20.9,61.5,20.9z"/>
</g>
</svg>
