<?xml version="1.0" encoding="utf-8"?>
<!-- Generator: Adobe Illustrator 19.0.1, SVG Export Plug-In . SVG Version: 6.00 Build 0)  -->
<svg version="1.1" id="ico" xmlns="http://www.w3.org/2000/svg" xmlns:xlink="http://www.w3.org/1999/xlink" x="0px" y="0px"
	 viewBox="0 0 90 90" style="enable-background:new 0 0 90 90;" xml:space="preserve">
<style type="text/css">
	.st0{fill-rule:evenodd;clip-rule:evenodd;fill:#A2DD3B;}
	.st1{clip-path:url(#SVGID_2_);}
	.st2{fill-rule:evenodd;clip-rule:evenodd;fill:#FFFFFF;}
	.st3{fill:#FFFFFF;}
	.st4{fill-rule:evenodd;clip-rule:evenodd;fill:#F29A00;}
	.st5{fill-rule:evenodd;clip-rule:evenodd;fill:#D66C00;}
	.st6{fill-rule:evenodd;clip-rule:evenodd;fill:#B0B1B2;}
	.st7{fill-rule:evenodd;clip-rule:evenodd;fill:#EEF2F2;}
	.st8{fill-rule:evenodd;clip-rule:evenodd;fill:#E1E6EA;}
</style>
<g id="Ellipse_48_copy_2_2_">
	<g>
		<circle class="st0" cx="45" cy="45" r="45"/>
	</g>
</g>
<g>
	<defs>
		<circle id="SVGID_1_" cx="45" cy="45" r="45"/>
	</defs>
	<clipPath id="SVGID_2_">
		<use xlink:href="#SVGID_1_"  style="overflow:visible;"/>
	</clipPath>
	<g id="Rectangle_105" class="st1">
		<g>
			<rect x="10.2" y="24" class="st2" width="69.5" height="66"/>
		</g>
	</g>
</g>
<g id="Ellipse_96">
	<g>
		<circle class="st2" cx="77.1" cy="21.4" r="1"/>
	</g>
</g>
<g id="Ellipse_96_copy">
	<g>
		<circle class="st2" cx="73.8" cy="21.4" r="1"/>
	</g>
</g>
<g id="Ellipse_96_copy_2">
	<g>
		<circle class="st2" cx="70.6" cy="21.4" r="1"/>
	</g>
</g>
<g id="Rounded_Rectangle_13_copy">
	<g>
		<path class="st3" d="M42.8,21c0,0-0.5-1.1-1.4-1.1H14.9c-0.9,0-1.4,1-1.4,1.1l-1.6,3.3h32.5L42.8,21z"/>
	</g>
</g>
<g id="logo_copy_xA0_Image_1_">
	<g>
		<path class="st4" d="M46.7,39.7c5.8,0,11.1,2.4,15,6.2l-15,14.9l15,14.9c-3.8,3.8-9.1,6.2-15,6.2c-11.7,0-21.2-9.5-21.2-21.1
			S35,39.7,46.7,39.7z"/>
		<path class="st5" d="M48.1,62.2l-1.4-1.4l1.4-1.4l2.5-2.5l2.4-2.4l3.4-3.4c-2.4-1.9-5.4-3.1-8.7-3.1c-7.6,0-13.7,6.1-13.7,13.7
			c0,3.5,1.3,6.6,3.4,9.1c-1,1.4-3.2,1.6-4.7,2.5c2.8,0.5,4.4,0.4,7-0.3c1.9,1.4,5.2,2.4,7.9,2.4c4.2,0,7.5-1.5,9.9-3.8l-1.2-1.2
			L52.9,67l-2.4-2.4L48.1,62.2z"/>
		<path class="st6" d="M47.6,48.2c7.6,0,13.8,6.1,13.8,13.7c0,3.8-1.4,7.3-3.9,9.8L38,52.1C40.5,49.7,43.9,48.2,47.6,48.2z"/>
		<path class="st7" d="M46.7,47.2c7.6,0,13.7,6.1,13.7,13.7c0,7.5-6.1,13.7-13.7,13.7c-2.7,0-5.2-0.8-7.4-2.1
			c-0.9,0.4-1.8,0.7-2.7,0.9c-1.3,0.3-2.7,0.3-3.9,0.1c1.5-0.9,2.8-2.1,3.8-3.5c-2.1-2.4-3.4-5.6-3.4-9.1
			C33,53.3,39.1,47.2,46.7,47.2z"/>
		<path class="st4" d="M41.5,59.4h10.5c0.8,0,1.4,0.6,1.4,1.4l0,0c0,0.8-0.6,1.4-1.4,1.4H41.5c-0.8,0-1.4-0.6-1.4-1.4l0,0
			C40.1,60.1,40.7,59.4,41.5,59.4L41.5,59.4z M41.5,54.2h10.5c0.8,0,1.4,0.6,1.4,1.4l0,0c0,0.8-0.6,1.4-1.4,1.4H41.5
			c-0.8,0-1.4-0.6-1.4-1.4l0,0C40.1,54.8,40.7,54.2,41.5,54.2L41.5,54.2z M41.5,64.7h10.5c0.8,0,1.4,0.6,1.4,1.4l0,0
			c0,0.8-0.6,1.4-1.4,1.4H41.5c-0.8,0-1.4-0.6-1.4-1.4l0,0C40.1,65.3,40.7,64.7,41.5,64.7z"/>
	</g>
</g>
<path class="st8" d="M76.2,31.4H13.8c-0.6,0-1-0.4-1-1v-2.6c0-0.6,0.4-1,1-1h62.5c0.6,0,1,0.4,1,1v2.6
	C77.2,30.9,76.8,31.4,76.2,31.4z"/>
</svg>
