<?xml version="1.0" encoding="utf-8"?>
<!-- Generator: Adobe Illustrator 19.0.1, SVG Export Plug-In . SVG Version: 6.00 Build 0)  -->
<svg version="1.1" id="ico" xmlns="http://www.w3.org/2000/svg" xmlns:xlink="http://www.w3.org/1999/xlink" x="0px" y="0px"
	 viewBox="0 0 90 90" style="enable-background:new 0 0 90 90;" xml:space="preserve">
<style type="text/css">
	.st0{fill-rule:evenodd;clip-rule:evenodd;fill:#A2DD3B;}
	.st1{clip-path:url(#SVGID_2_);}
	.st2{fill-rule:evenodd;clip-rule:evenodd;fill:#FFFFFF;}
	.st3{fill-rule:evenodd;clip-rule:evenodd;fill:#E1E6EA;}
	.st4{fill:#FFFFFF;}
	.st5{fill-rule:evenodd;clip-rule:evenodd;fill:#57A2E8;}
	.st6{fill-rule:evenodd;clip-rule:evenodd;fill:#B6BABF;}
	.st7{fill-rule:evenodd;clip-rule:evenodd;fill:#284259;}
	.st8{fill-rule:evenodd;clip-rule:evenodd;fill:#F29A00;}
</style>
<g id="Ellipse_48_copy_2_2_">
	<g>
		<circle class="st0" cx="45" cy="45" r="45"/>
	</g>
</g>
<g>
	<defs>
		<circle id="SVGID_1_" cx="45" cy="45" r="45"/>
	</defs>
	<clipPath id="SVGID_2_">
		<use xlink:href="#SVGID_1_"  style="overflow:visible;"/>
	</clipPath>
	<g id="Rectangle_105" class="st1">
		<g>
			<rect x="10.2" y="24" class="st2" width="69.5" height="66"/>
		</g>
	</g>
	<g id="Rectangle_105_2_" class="st1">
		<g>
			<rect x="10.2" y="52" class="st3" width="69.5" height="38"/>
		</g>
	</g>
</g>
<g id="Ellipse_96">
	<g>
		<circle class="st2" cx="77.1" cy="21.4" r="1"/>
	</g>
</g>
<g id="Ellipse_96_copy">
	<g>
		<circle class="st2" cx="73.8" cy="21.4" r="1"/>
	</g>
</g>
<g id="Ellipse_96_copy_2">
	<g>
		<circle class="st2" cx="70.6" cy="21.4" r="1"/>
	</g>
</g>
<g id="Rounded_Rectangle_13_copy">
	<g>
		<path class="st4" d="M42.8,21c0,0-0.5-1.1-1.4-1.1H14.9c-0.9,0-1.4,1-1.4,1.1l-1.6,3.3h32.5L42.8,21z"/>
	</g>
</g>
<g id="logo_copy_xA0_Image_1_">
	<g>
		<g id="Ellipse_49">
			<g>
				<circle class="st5" cx="19.4" cy="66.8" r="3.9"/>
			</g>
		</g>
		<g id="Rounded_Rectangle_28">
			<g>
				<path class="st2" d="M73.5,59.7H26.8c-0.2,0-0.4,0.2-0.4,0.5v13.1c0,0.3,0.2,0.5,0.4,0.5h46.7c0.2,0,0.4-0.2,0.4-0.5V60.2
					C73.9,59.9,73.8,59.7,73.5,59.7z"/>
			</g>
		</g>
		<g id="Rounded_Rectangle_29">
			<g>
				<path class="st6" d="M63.6,62.7H30.3c-0.3,0-0.5,0.2-0.5,0.5v0.5c0,0.3,0.2,0.5,0.5,0.5h33.3c0.3,0,0.5-0.2,0.5-0.5v-0.5
					C64.1,62.9,63.9,62.7,63.6,62.7z"/>
			</g>
		</g>
		<g id="Rounded_Rectangle_29_copy">
			<g>
				<path class="st6" d="M47.2,66H30.3c-0.3,0-0.5,0.2-0.5,0.5v0.5c0,0.3,0.2,0.5,0.5,0.5h16.9c0.3,0,0.5-0.2,0.5-0.5v-0.5
					C47.7,66.2,47.5,66,47.2,66z"/>
			</g>
		</g>
		<g id="Rounded_Rectangle_29_copy_2">
			<g>
				<path class="st6" d="M52.6,69.2H30.3c-0.3,0-0.5,0.2-0.5,0.5v0.5c0,0.3,0.2,0.5,0.5,0.5h22.4c0.3,0,0.5-0.2,0.5-0.5v-0.5
					C53.2,69.5,53,69.2,52.6,69.2z"/>
			</g>
		</g>
		<g>
			<path class="st7" d="M22.3,38v1.6h-2.5v7.1h-2v-7.1h-2.5V38H22.3L22.3,38z M28.8,38v1.6h-3.6v2H28v1.5h-2.7v2.1h3.6v1.6h-5.6V38
				H28.8L28.8,38z M46.5,42.4c0,0.6-0.1,1.2-0.3,1.8c-0.2,0.5-0.5,1-0.9,1.4c-0.4,0.4-0.9,0.7-1.4,0.9c-0.6,0.2-1.2,0.3-1.9,0.3
				c-0.7,0-1.3-0.1-1.9-0.3c-0.6-0.2-1-0.5-1.4-0.9c-0.4-0.4-0.7-0.9-0.9-1.4c-0.2-0.5-0.3-1.1-0.3-1.8c0-0.6,0.1-1.2,0.3-1.8
				c0.2-0.5,0.5-1,0.9-1.4c0.4-0.4,0.9-0.7,1.4-0.9c0.6-0.2,1.2-0.3,1.9-0.3c0.7,0,1.3,0.1,1.9,0.3c0.6,0.2,1,0.5,1.4,0.9
				c0.4,0.4,0.7,0.9,0.9,1.4C46.4,41.2,46.5,41.8,46.5,42.4L46.5,42.4z M44.4,42.4c0-0.4-0.1-0.8-0.2-1.2c-0.1-0.3-0.3-0.6-0.5-0.9
				c-0.2-0.2-0.5-0.4-0.8-0.6c-0.3-0.1-0.6-0.2-1-0.2c-0.4,0-0.7,0.1-1,0.2c-0.3,0.1-0.6,0.3-0.8,0.6c-0.2,0.2-0.4,0.5-0.5,0.9
				c-0.1,0.3-0.2,0.7-0.2,1.2c0,0.4,0.1,0.8,0.2,1.2c0.1,0.3,0.3,0.6,0.5,0.9c0.2,0.2,0.5,0.4,0.8,0.5c0.3,0.1,0.7,0.2,1,0.2
				c0.4,0,0.7-0.1,1-0.2c0.3-0.1,0.6-0.3,0.8-0.5c0.2-0.2,0.4-0.5,0.5-0.9C44.3,43.2,44.4,42.8,44.4,42.4L44.4,42.4z M48.5,38
				c0.1,0,0.2,0,0.2,0c0.1,0,0.1,0,0.2,0c0,0,0.1,0.1,0.1,0.1c0,0,0.1,0.1,0.2,0.2l4.2,5.2c0-0.2,0-0.3,0-0.5c0-0.2,0-0.3,0-0.4V38
				h1.8v8.7H54c-0.2,0-0.3,0-0.4-0.1c-0.1,0-0.2-0.1-0.3-0.3l-4.1-5.2c0,0.2,0,0.3,0,0.4c0,0.1,0,0.3,0,0.4v4.7h-1.8V38H48.5
				L48.5,38z M58.7,46.8h-2V38h2V46.8L58.7,46.8z M65.2,39.8C65.2,39.9,65.1,40,65,40c-0.1,0-0.2,0.1-0.3,0.1c-0.1,0-0.2,0-0.3-0.1
				c-0.1-0.1-0.2-0.1-0.4-0.2c-0.1-0.1-0.3-0.1-0.5-0.2c-0.2-0.1-0.4-0.1-0.6-0.1c-0.4,0-0.7,0.1-0.8,0.2c-0.2,0.2-0.3,0.4-0.3,0.7
				c0,0.2,0.1,0.3,0.2,0.4c0.1,0.1,0.3,0.2,0.4,0.3c0.2,0.1,0.4,0.2,0.6,0.2c0.2,0.1,0.5,0.1,0.7,0.2c0.2,0.1,0.5,0.2,0.7,0.3
				c0.2,0.1,0.4,0.3,0.6,0.4c0.2,0.2,0.3,0.4,0.4,0.7c0.1,0.3,0.2,0.6,0.2,0.9c0,0.4-0.1,0.8-0.2,1.1c-0.1,0.4-0.3,0.7-0.6,0.9
				c-0.3,0.3-0.6,0.5-1,0.6c-0.4,0.1-0.8,0.2-1.3,0.2c-0.3,0-0.5,0-0.8-0.1c-0.3-0.1-0.6-0.1-0.8-0.2c-0.3-0.1-0.5-0.2-0.7-0.4
				c-0.2-0.1-0.4-0.3-0.6-0.5l0.6-1c0-0.1,0.1-0.1,0.2-0.2c0.1,0,0.2-0.1,0.3-0.1c0.1,0,0.2,0,0.4,0.1c0.1,0.1,0.3,0.2,0.4,0.3
				c0.2,0.1,0.3,0.2,0.5,0.3c0.2,0.1,0.4,0.1,0.7,0.1c0.4,0,0.7-0.1,0.9-0.2c0.2-0.2,0.3-0.4,0.3-0.8c0-0.2-0.1-0.4-0.2-0.5
				c-0.1-0.1-0.3-0.2-0.4-0.3c-0.2-0.1-0.4-0.2-0.6-0.2c-0.2-0.1-0.5-0.1-0.7-0.2c-0.2-0.1-0.5-0.2-0.7-0.3
				c-0.2-0.1-0.4-0.3-0.6-0.4c-0.2-0.2-0.3-0.4-0.4-0.7c-0.1-0.3-0.2-0.6-0.2-1c0-0.3,0.1-0.6,0.2-1c0.1-0.3,0.3-0.6,0.6-0.8
				c0.3-0.2,0.6-0.4,0.9-0.6c0.4-0.1,0.8-0.2,1.3-0.2c0.3,0,0.5,0,0.8,0.1c0.3,0,0.5,0.1,0.7,0.2c0.2,0.1,0.4,0.2,0.6,0.3
				c0.2,0.1,0.4,0.2,0.5,0.4L65.2,39.8L65.2,39.8z M71.2,43.5v3.3h-2v-3.3L66,38h1.8c0.2,0,0.3,0,0.4,0.1c0.1,0.1,0.2,0.2,0.3,0.3
				l1.2,2.6c0.1,0.2,0.2,0.4,0.3,0.6c0.1,0.2,0.2,0.3,0.2,0.5c0.1-0.2,0.1-0.3,0.2-0.5c0.1-0.2,0.2-0.4,0.3-0.6l1.2-2.6
				c0-0.1,0.1-0.1,0.1-0.2c0-0.1,0.1-0.1,0.1-0.1c0.1,0,0.1-0.1,0.2-0.1c0.1,0,0.1,0,0.2,0h1.8L71.2,43.5z"/>
			<g>
				<path class="st8" d="M33.8,37.9c1.2,0,2.4,0.5,3.2,1.3l-1.1,1.1c-0.5-0.5-1.2-0.8-2-0.8c-1.6,0-2.9,1.3-2.9,2.9
					c0,0.7,0.3,1.4,0.7,1.9c-0.2,0.3-0.5,0.6-0.8,0.7c0.3,0,0.5,0,0.8,0c0.2,0,0.4-0.1,0.6-0.2c0.4,0.3,1,0.5,1.6,0.5
					c0.8,0,1.5-0.3,2-0.8l1.1,1.1c-0.8,0.8-1.9,1.3-3.2,1.3c-2.5,0-4.5-2-4.5-4.5C29.3,39.9,31.3,37.9,33.8,37.9z"/>
				<path class="st8" d="M32.7,42.1h2.2c0.2,0,0.3,0.1,0.3,0.3l0,0c0,0.2-0.1,0.3-0.3,0.3h-2.2c-0.2,0-0.3-0.1-0.3-0.3l0,0
					C32.4,42.2,32.5,42.1,32.7,42.1L32.7,42.1z M32.7,41h2.2c0.2,0,0.3,0.1,0.3,0.3l0,0c0,0.2-0.1,0.3-0.3,0.3h-2.2
					c-0.2,0-0.3-0.1-0.3-0.3l0,0C32.4,41.1,32.5,41,32.7,41L32.7,41z M32.7,43.2h2.2c0.2,0,0.3,0.1,0.3,0.3l0,0
					c0,0.2-0.1,0.3-0.3,0.3h-2.2c-0.2,0-0.3-0.1-0.3-0.3l0,0C32.4,43.3,32.5,43.2,32.7,43.2z"/>
			</g>
		</g>
	</g>
</g>
<path class="st3" d="M76.2,31.4H13.8c-0.6,0-1-0.4-1-1v-2.6c0-0.6,0.4-1,1-1h62.5c0.6,0,1,0.4,1,1v2.6
	C77.2,30.9,76.8,31.4,76.2,31.4z"/>
</svg>
