<?xml version="1.0" encoding="utf-8"?>
<!-- Generator: Adobe Illustrator 19.0.1, SVG Export Plug-In . SVG Version: 6.00 Build 0)  -->
<svg version="1.1" id="Layer_1" xmlns="http://www.w3.org/2000/svg" xmlns:xlink="http://www.w3.org/1999/xlink" x="0px" y="0px"
	 viewBox="0 0 90 90" style="enable-background:new 0 0 90 90;" xml:space="preserve">
<style type="text/css">
	.st0{fill-rule:evenodd;clip-rule:evenodd;fill:#284259;}
	.st1{fill-rule:evenodd;clip-rule:evenodd;fill:#FFD054;}
	.st2{fill-rule:evenodd;clip-rule:evenodd;fill:#F4C343;}
	.st3{fill-rule:evenodd;clip-rule:evenodd;fill:#6CAE17;}
	.st4{fill-rule:evenodd;clip-rule:evenodd;fill:#83CA28;}
	.st5{fill-rule:evenodd;clip-rule:evenodd;fill:#FFFFFF;}
</style>
<path class="st0" d="M90,45C90,20.2,69.8,0,45,0C20.2,0,0,20.2,0,45c0,24.8,20.2,45,45,45C69.8,90,90,69.8,90,45z"/>
<path class="st1" d="M62.9,61.7l-0.1,8.5c0,0.6,0.4,1.3,0.9,1.6l7.5,4.1c0.5,0.3,0.9,0,1-0.5l0.1-8.5c0-0.6-0.4-1.3-0.9-1.6
	l-7.5-4.1C63.3,60.8,62.9,61.1,62.9,61.7z"/>
<path class="st1" d="M54,27h10c12.3,0,22.2,10,22.2,22.2v0.5C86.3,62,76.3,72,64,72H54c-12.3,0-22.2-10-22.2-22.3v-0.5
	C31.8,37,41.7,27,54,27z"/>
<path class="st2" d="M72.9,28.8c0.6,2.1,0.9,4.4,0.9,6.7v4c0,13.8-11.2,25-25,25H37.4c-3.5-3.9-5.6-9.1-5.6-14.7v-0.5
	C31.8,37,41.7,27,54,27h10C67.2,27,70.2,27.7,72.9,28.8z"/>
<path class="st3" d="M24.6,49l0.2,9.9c0,0.7-0.5,1.5-1.1,1.8L15,65.6c-0.6,0.3-1.1,0-1.1-0.6L13.8,55c0-0.7,0.5-1.5,1.1-1.8l8.7-4.8
	C24.1,48.1,24.6,48.3,24.6,49z"/>
<path class="st3" d="M30.3,9.5h15c13.8,0,25,11.2,25,25v4c0,13.8-11.2,25-25,25h-15c-13.8,0-25-11.2-25-25v-4
	C5.3,20.7,16.5,9.5,30.3,9.5z"/>
<path class="st4" d="M62.2,16.1c2.9,4.1,4.5,9,4.5,14.4v4c0,13.8-11.2,25-25,25h-15c-6.5,0-12.5-2.5-17-6.6c-2.9-4.1-4.5-9-4.5-14.4
	v-4c0-13.8,11.2-25,25-25h15C51.8,9.5,57.8,12,62.2,16.1z"/>
<path class="st5" d="M48.8,38.5c-1.7,0-3-1.3-3-3c0-1.7,1.3-3,3-3c1.7,0,3,1.3,3,3C51.8,37.2,50.4,38.5,48.8,38.5L48.8,38.5z
	 M37.8,38.5c-1.7,0-3-1.3-3-3c0-1.7,1.3-3,3-3c1.7,0,3,1.3,3,3C40.8,37.2,39.4,38.5,37.8,38.5L37.8,38.5z M26.8,38.5
	c-1.7,0-3-1.3-3-3c0-1.7,1.3-3,3-3c1.7,0,3,1.3,3,3C29.8,37.2,28.4,38.5,26.8,38.5z"/>
</svg>
