<?xml version="1.0" encoding="utf-8"?>
<!-- Generator: Adobe Illustrator 19.0.1, SVG Export Plug-In . SVG Version: 6.00 Build 0)  -->
<svg version="1.1" id="Layer_1" xmlns="http://www.w3.org/2000/svg" xmlns:xlink="http://www.w3.org/1999/xlink" x="0px" y="0px"
	 viewBox="0 0 90 90" style="enable-background:new 0 0 90 90;" xml:space="preserve">
<style type="text/css">
	.st0{fill:#FFFFFF;}
	.st1{fill-rule:evenodd;clip-rule:evenodd;fill:#F29A00;}
	.st2{fill-rule:evenodd;clip-rule:evenodd;fill:#D66C00;}
	.st3{fill-rule:evenodd;clip-rule:evenodd;fill:#B0B1B2;}
	.st4{fill-rule:evenodd;clip-rule:evenodd;fill:#EEF2F2;}
</style>
<circle class="st0" cx="45" cy="45" r="45"/>
<g>
	<path class="st1" d="M45.1,7c10.5,0,20,4.3,26.9,11.1L45.1,45L72,71.9C65.1,78.7,55.6,83,45.1,83C24.1,83,7,66,7,45S24.1,7,45.1,7z
		"/>
	<path class="st2" d="M47.6,47.5L45.1,45l2.5-2.5l4.4-4.4l4.3-4.2l6.1-6.1c-4.3-3.4-9.7-5.5-15.6-5.5c-13.6,0-24.7,11-24.7,24.6
		c0,6.3,2.3,12,6.2,16.3c-1.8,2.5-5.8,2.8-8.5,4.4c5.1,1,7.9,0.7,12.7-0.5c3.5,2.5,9.4,4.4,14.3,4.4c7.5,0,13.6-2.6,17.9-6.9
		l-2.1-2.1l-6.3-6.2L52,51.9L47.6,47.5z"/>
	<path class="st3" d="M46.8,22.2c13.6,0,24.8,11.1,24.8,24.6c0,6.9-2.5,13.2-6.9,17.6L29.4,29.4C33.9,25,40,22.2,46.8,22.2z"/>
	<path class="st4" d="M45.1,20.4c13.6,0,24.7,11,24.7,24.6c0,13.6-11,24.6-24.7,24.6c-4.9,0-9.4-1.4-13.3-3.9
		c-1.5,0.7-3.2,1.3-4.9,1.6c-2.4,0.5-4.8,0.5-7.1,0.2c2.7-1.6,5-3.7,6.8-6.3C22.8,57,20.5,51.3,20.5,45
		C20.5,31.4,31.5,20.4,45.1,20.4z"/>
	<path class="st1" d="M35.7,42.5h18.8c1.4,0,2.5,1.1,2.5,2.5l0,0c0,1.4-1.1,2.5-2.5,2.5H35.7c-1.4,0-2.5-1.1-2.5-2.5l0,0
		C33.2,43.6,34.3,42.5,35.7,42.5L35.7,42.5z M35.7,33.1h18.8c1.4,0,2.5,1.1,2.5,2.5l0,0c0,1.4-1.1,2.5-2.5,2.5H35.7
		c-1.4,0-2.5-1.1-2.5-2.5l0,0C33.2,34.2,34.3,33.1,35.7,33.1L35.7,33.1z M35.7,51.9h18.8c1.4,0,2.5,1.1,2.5,2.5l0,0
		c0,1.4-1.1,2.5-2.5,2.5H35.7c-1.4,0-2.5-1.1-2.5-2.5l0,0C33.2,53,34.3,51.9,35.7,51.9z"/>
</g>
</svg>
