<?xml version="1.0" encoding="utf-8"?>
<!-- Generator: Adobe Illustrator 19.0.1, SVG Export Plug-In . SVG Version: 6.00 Build 0)  -->
<svg version="1.1" id="Ellipse_49_copy_5_1_" xmlns="http://www.w3.org/2000/svg" xmlns:xlink="http://www.w3.org/1999/xlink"
	 x="0px" y="0px" viewBox="0 0 90 90" style="enable-background:new 0 0 90 90;" xml:space="preserve">
<style type="text/css">
	.st0{fill-rule:evenodd;clip-rule:evenodd;fill:#559EE3;}
	.st1{fill:#FFFFFF;}
	.st2{opacity:0.5;fill:#FFFFFF;}
</style>
<g id="Ellipse_49_copy_5">
	<g>
		<circle class="st0" cx="45" cy="45" r="45"/>
	</g>
</g>
<g>
	<path class="st1" d="M28.2,47c-0.2,0.2-0.4,0.5-0.6,0.7l5.3,5.6c0.2-0.2,0.4-0.5,0.6-0.7c6.3-6.6,16.6-6.6,22.9,0
		c0.2,0.2,0.4,0.5,0.6,0.7l5.3-5.6c-0.2-0.2-0.4-0.5-0.6-0.7C52.5,37.3,37.5,37.3,28.2,47z"/>
	<path class="st1" d="M38.5,57.8c-0.2,0.2-0.4,0.5-0.6,0.8L45,66l7.1-7.5c-0.2-0.3-0.4-0.5-0.6-0.8C47.9,54,42.1,54,38.5,57.8z"/>
	<path class="st2" d="M72.3,35.9C57.3,20,32.7,20,17.7,35.9c-0.2,0.2-0.4,0.5-0.6,0.7l5.7,5.9c0.2-0.2,0.4-0.5,0.6-0.7
		c12-12.6,31.4-12.6,43.4,0c0.2,0.2,0.4,0.5,0.6,0.7l5.7-5.9C72.8,36.4,72.6,36.1,72.3,35.9z"/>
</g>
</svg>
