<?xml version="1.0" encoding="utf-8"?>
<!-- Generator: Adobe Illustrator 19.0.1, SVG Export Plug-In . SVG Version: 6.00 Build 0)  -->
<svg version="1.1" id="Layer_1" xmlns="http://www.w3.org/2000/svg" xmlns:xlink="http://www.w3.org/1999/xlink" x="0px" y="0px"
	 viewBox="0 0 119.2 17.7" style="enable-background:new 0 0 119.2 17.7;" xml:space="preserve">
<style type="text/css">
	.st0{fill-rule:evenodd;clip-rule:evenodd;fill:#284259;}
	.st1{fill-rule:evenodd;clip-rule:evenodd;fill:#F39B00;}
</style>
<g>
	<path class="st0" d="M14,0v3.2h-5v14.4H5V3.2H0V0H14L14,0z M27.1,0v3.2h-7.2v4.1h5.6v3h-5.6v4.2h7.2v3.2H15.7V0H27.1L27.1,0z
		 M62.8,8.8c0,1.3-0.2,2.5-0.7,3.6c-0.4,1.1-1.1,2.1-1.9,2.9c-0.8,0.8-1.8,1.5-2.9,1.9c-1.1,0.5-2.4,0.7-3.8,0.7
		c-1.4,0-2.6-0.2-3.8-0.7c-1.1-0.5-2.1-1.1-2.9-1.9c-0.8-0.8-1.4-1.8-1.9-2.9c-0.4-1.1-0.7-2.3-0.7-3.6c0-1.3,0.2-2.5,0.7-3.6
		c0.4-1.1,1.1-2.1,1.9-2.9c0.8-0.8,1.8-1.4,2.9-1.9C51,0,52.3-0.2,53.6-0.2c1.4,0,2.6,0.2,3.8,0.7c1.1,0.5,2.1,1.1,2.9,1.9
		c0.8,0.8,1.4,1.8,1.9,2.9C62.6,6.4,62.8,7.6,62.8,8.8L62.8,8.8z M58.6,8.8c0-0.9-0.1-1.7-0.3-2.4c-0.2-0.7-0.5-1.3-1-1.8
		c-0.4-0.5-0.9-0.9-1.6-1.1c-0.6-0.3-1.3-0.4-2.1-0.4c-0.8,0-1.5,0.1-2.1,0.4c-0.6,0.3-1.1,0.6-1.6,1.1c-0.4,0.5-0.8,1.1-1,1.8
		c-0.2,0.7-0.3,1.5-0.3,2.4c0,0.9,0.1,1.7,0.3,2.4c0.2,0.7,0.6,1.3,1,1.8c0.4,0.5,0.9,0.9,1.6,1.1c0.6,0.3,1.3,0.4,2.1,0.4
		c0.8,0,1.5-0.1,2.1-0.4c0.6-0.3,1.1-0.6,1.6-1.1c0.4-0.5,0.7-1.1,1-1.8C58.5,10.5,58.6,9.7,58.6,8.8L58.6,8.8z M66.9,0
		c0.2,0,0.3,0,0.4,0c0.1,0,0.2,0,0.3,0.1c0.1,0,0.2,0.1,0.3,0.2c0.1,0.1,0.2,0.2,0.3,0.3l8.4,10.6c0-0.3-0.1-0.7-0.1-1
		c0-0.3,0-0.6,0-0.9V0h3.6v17.7H78c-0.3,0-0.6,0-0.8-0.1c-0.2-0.1-0.4-0.3-0.6-0.5L68.3,6.5c0,0.3,0,0.6,0.1,0.9c0,0.3,0,0.6,0,0.8
		v9.5h-3.6V0H66.9L66.9,0z M87.6,17.7h-4.1V0h4.1V17.7L87.6,17.7z M100.7,3.6c-0.1,0.2-0.2,0.3-0.4,0.4c-0.1,0.1-0.3,0.1-0.5,0.1
		c-0.2,0-0.4-0.1-0.6-0.2c-0.2-0.1-0.5-0.3-0.7-0.4c-0.3-0.1-0.6-0.3-0.9-0.4C97.2,3.1,96.8,3,96.3,3c-0.8,0-1.3,0.2-1.7,0.5
		c-0.4,0.3-0.6,0.8-0.6,1.3c0,0.4,0.1,0.7,0.3,0.9c0.2,0.2,0.5,0.4,0.9,0.6c0.4,0.2,0.8,0.3,1.3,0.5c0.5,0.1,1,0.3,1.4,0.5
		c0.5,0.2,1,0.4,1.5,0.6c0.5,0.2,0.9,0.5,1.3,0.9c0.4,0.4,0.7,0.8,0.9,1.3c0.2,0.5,0.3,1.2,0.3,1.9c0,0.8-0.1,1.6-0.4,2.3
		c-0.3,0.7-0.7,1.3-1.2,1.9c-0.5,0.5-1.2,0.9-2,1.2c-0.8,0.3-1.7,0.5-2.7,0.5c-0.5,0-1.1-0.1-1.7-0.2c-0.6-0.1-1.1-0.3-1.7-0.5
		c-0.5-0.2-1-0.4-1.5-0.7c-0.5-0.3-0.9-0.6-1.2-0.9l1.2-1.9c0.1-0.1,0.2-0.3,0.4-0.4c0.2-0.1,0.3-0.1,0.5-0.1c0.2,0,0.5,0.1,0.7,0.2
		c0.2,0.2,0.5,0.3,0.8,0.5c0.3,0.2,0.7,0.4,1.1,0.5c0.4,0.2,0.9,0.2,1.4,0.2c0.7,0,1.3-0.2,1.7-0.5c0.4-0.3,0.6-0.8,0.6-1.6
		c0-0.4-0.1-0.8-0.3-1c-0.2-0.3-0.5-0.5-0.9-0.6c-0.4-0.2-0.8-0.3-1.3-0.4c-0.5-0.1-0.9-0.3-1.4-0.4c-0.5-0.2-1-0.4-1.4-0.6
		c-0.5-0.2-0.9-0.5-1.3-0.9c-0.4-0.4-0.7-0.8-0.9-1.4c-0.2-0.6-0.3-1.3-0.3-2.1c0-0.7,0.1-1.3,0.4-1.9c0.3-0.6,0.7-1.2,1.2-1.7
		c0.5-0.5,1.2-0.9,1.9-1.2c0.8-0.3,1.6-0.4,2.6-0.4c0.5,0,1.1,0,1.6,0.1c0.5,0.1,1,0.2,1.5,0.4c0.5,0.2,0.9,0.4,1.3,0.6
		c0.4,0.2,0.8,0.5,1.1,0.8L100.7,3.6L100.7,3.6z M112.8,11.1v6.6h-4.1v-6.6L102.3,0h3.6c0.4,0,0.6,0.1,0.8,0.3
		c0.2,0.2,0.4,0.4,0.5,0.6l2.5,5.2c0.2,0.4,0.4,0.8,0.6,1.2c0.2,0.4,0.3,0.7,0.4,1c0.1-0.4,0.3-0.7,0.4-1.1c0.2-0.4,0.4-0.7,0.5-1.1
		l2.5-5.2c0-0.1,0.1-0.2,0.2-0.3c0.1-0.1,0.2-0.2,0.3-0.3c0.1-0.1,0.2-0.2,0.4-0.2c0.1-0.1,0.3-0.1,0.5-0.1h3.6L112.8,11.1z"/>
	<g>
		<path class="st1" d="M37.2-0.2c2.5,0,4.8,1,6.4,2.6l-2.3,2.3C40.3,3.6,38.8,3,37.2,3c-3.2,0-5.9,2.6-5.9,5.9
			c0,1.5,0.6,2.8,1.5,3.9c-0.4,0.6-1,1.1-1.6,1.5c0.5,0.1,1.1,0.1,1.7,0c0.4-0.1,0.8-0.2,1.2-0.4c0.9,0.6,2,0.9,3.1,0.9
			c1.6,0,3.1-0.7,4.1-1.7l2.3,2.3c-1.6,1.6-3.9,2.6-6.4,2.6c-5,0-9-4-9-9C28.2,3.9,32.2-0.2,37.2-0.2z"/>
		<path class="st1" d="M35,8.3h4.5c0.3,0,0.6,0.3,0.6,0.6l0,0c0,0.3-0.3,0.6-0.6,0.6H35c-0.3,0-0.6-0.3-0.6-0.6l0,0
			C34.4,8.5,34.6,8.3,35,8.3L35,8.3z M35,6h4.5C39.8,6,40,6.3,40,6.6l0,0c0,0.3-0.3,0.6-0.6,0.6H35c-0.3,0-0.6-0.3-0.6-0.6l0,0
			C34.4,6.3,34.6,6,35,6L35,6z M35,10.5h4.5c0.3,0,0.6,0.3,0.6,0.6l0,0c0,0.3-0.3,0.6-0.6,0.6H35c-0.3,0-0.6-0.3-0.6-0.6l0,0
			C34.4,10.8,34.6,10.5,35,10.5z"/>
	</g>
</g>
</svg>
