<?xml version="1.0" encoding="utf-8"?>
<!-- Generator: Adobe Illustrator 19.0.1, SVG Export Plug-In . SVG Version: 6.00 Build 0)  -->
<svg version="1.1" id="Group_30" xmlns="http://www.w3.org/2000/svg" xmlns:xlink="http://www.w3.org/1999/xlink" x="0px" y="0px"
	 viewBox="0 0 220 220" style="enable-background:new 0 0 220 220;" xml:space="preserve">
<style type="text/css">
	.st0{display:none;}
	.st1{display:inline;}
	.st2{fill-rule:evenodd;clip-rule:evenodd;fill:#559EE3;}
	.st3{fill:#4595E0;}
	.st4{fill:#69B0F2;}
	.st5{opacity:6.000000e-002;}
	.st6{clip-path:url(#SVGID_2_);}
	.st7{fill-rule:evenodd;clip-rule:evenodd;fill:#F8F8F8;}
	.st8{fill:#D1D9DC;}
	.st9{fill:#F39A00;}
	.st10{fill-rule:evenodd;clip-rule:evenodd;fill:#4C6174;}
	.st11{fill-rule:evenodd;clip-rule:evenodd;fill:#F29A00;}
	.st12{fill-rule:evenodd;clip-rule:evenodd;fill:#D66C00;}
	.st13{fill-rule:evenodd;clip-rule:evenodd;fill:#B0B1B2;}
	.st14{fill-rule:evenodd;clip-rule:evenodd;fill:#EEF2F2;}
	.st15{opacity:5.882353e-002;clip-path:url(#SVGID_2_);}
	.st16{fill-rule:evenodd;clip-rule:evenodd;}
</style>
<g id="Ellipse_48_copy_2" class="st0">
	<g class="st1">
		<circle class="st2" cx="110" cy="110" r="110"/>
	</g>
</g>
<path class="st2" d="M40,194.9h140c24.4-20.2,40-50.7,40-84.9C220,49.2,170.8,0,110,0C49.2,0,0,49.2,0,110
	C0,144.2,15.6,174.7,40,194.9z"/>
<g>
	<path class="st3" d="M1.1,94.2C1.1,94.2,1.1,94.3,1.1,94.2C1.1,94.3,1.1,94.3,1.1,94.2C1.1,94.3,1.1,94.2,1.1,94.2z"/>
	<path class="st3" d="M9,97.3c2.2-4.9,6.1-8.9,10.8-11.4c-1.3-0.3-2.6-0.5-3.9-0.5C9.5,85.5,4,89,1.1,94.2c0,0,0,0,0,0
		C4,94.8,6.7,95.8,9,97.3z"/>
	<path class="st3" d="M55,105.3c1.3-0.3,2.7-0.6,4.1-0.6c6.7,0,12.5,4.2,14.9,10.1c1.8-2.2,3-5,3-8.2c0-7-5.7-12.7-12.6-12.7
		c-1.1,0-2.2,0.2-3.2,0.4c-0.8-9.8-9-17.4-18.9-17.4c-5.6,0-10.6,2.5-14.1,6.4c0.9-0.1,1.9-0.2,2.9-0.2C43.6,83.2,54,92.9,55,105.3z
		"/>
	<path class="st4" d="M59.2,137c8.9,0,16.1-7.2,16.1-16.1c0-2.1-0.4-4.2-1.2-6.1c-2.4-5.9-8.2-10.1-14.9-10.1
		c-1.4,0-2.8,0.2-4.1,0.6C54,92.9,43.6,83.2,31,83.2c-1,0-1.9,0.1-2.9,0.2c-3,0.4-5.8,1.2-8.3,2.6c-4.7,2.5-8.6,6.5-10.8,11.4
		c-2.4-1.5-5-2.6-7.9-3.1C0.4,99.4,0,104.7,0,110c0,9.3,1.2,18.4,3.3,27L59.2,137L59.2,137z"/>
	<path class="st3" d="M154.1,30.3c2.9,0.5,5.5,1.6,7.9,3.1c2.2-4.9,6.1-8.9,10.8-11.4c-1.3-0.3-2.6-0.5-3.9-0.5
		C162.5,21.5,157,25,154.1,30.3z"/>
	<path class="st4" d="M174.7,21c-0.6,0.3-1.3,0.6-1.9,0.9c-4.7,2.5-8.6,6.5-10.8,11.4c-2.4-1.5-5-2.6-7.9-3.1
		c-1.2-0.2-2.4-0.3-3.7-0.3c-11.8,0-21.5,9.6-21.5,21.5c0,11.9,9.6,21.5,21.5,21.5c0.9,0,1.8-0.1,2.7-0.2V73h59v0c0.5,0,1,0,1.4-0.1
		C206.1,52,192.4,33.9,174.7,21z"/>
</g>
<g class="st5">
	<path d="M220,110c0-6.3-0.5-12.5-1.6-18.6L180,53v141.9C204.4,174.7,220,144.2,220,110z"/>
</g>
<g>
	<defs>
		<circle id="SVGID_1_" cx="110" cy="110" r="110"/>
	</defs>
	<clipPath id="SVGID_2_">
		<use xlink:href="#SVGID_1_"  style="overflow:visible;"/>
	</clipPath>
	<g id="Rounded_Rectangle_37" class="st6">
		<g>
			<path class="st7" d="M178,51H42c-1.1,0-2,0.9-2,1.9v165.1c0,1.1,0.9,1.9,2,1.9h136c1.1,0,2-0.9,2-1.9V52.9
				C180,51.9,179.1,51,178,51z"/>
		</g>
	</g>
	<g id="Rectangle_124_copy_2" class="st6">
		<g>
			<path class="st8" d="M40,91v3h140v-3H40z M40,114h140v-3H40V114z M40,134h140v-3H40V134z"/>
		</g>
	</g>
	<g id="Rectangle_124_copy_3" class="st6">
		<g>
			<path class="st9" d="M40,91v3h20v-3H40z M40,114h20v-3H40V114z M40,134h20v-3H40V134z"/>
		</g>
	</g>
	<g id="Rounded_Rectangle_38" class="st6">
		<g>
			<path class="st10" d="M169,61h-48c-0.6,0-1,0.4-1,1v12c0,0.6,0.4,1,1,1h48c0.6,0,1-0.4,1-1V62C170,61.4,169.6,61,169,61z"/>
		</g>
	</g>
	<g id="Rounded_Rectangle_39" class="st6">
		<g>
			<path class="st10" d="M169,78h-10c-0.6,0-1,0.4-1,1v1c0,0.6,0.4,1,1,1h10c0.6,0,1-0.4,1-1v-1C170,78.4,169.6,78,169,78z"/>
		</g>
	</g>
	<g id="Rounded_Rectangle_39_copy_2" class="st6">
		<g>
			<path class="st10" d="M169,101h-10c-0.6,0-1,0.4-1,1v1c0,0.6,0.4,1,1,1h10c0.6,0,1-0.4,1-1v-1C170,101.4,169.6,101,169,101z"/>
		</g>
	</g>
	<g id="Rounded_Rectangle_39_copy" class="st6">
		<g>
			<path class="st10" d="M155,78h-10c-0.6,0-1,0.4-1,1v1c0,0.6,0.4,1,1,1h10c0.6,0,1-0.4,1-1v-1C156,78.4,155.6,78,155,78z"/>
		</g>
	</g>
	<g class="st6">
		<path class="st11" d="M110.4,150.7c7,0,13.4,2.8,18,7.5l-18,18l18,18c-4.6,4.6-11,7.5-18,7.5c-14.1,0-25.4-11.4-25.4-25.4
			C85,162.1,96.4,150.7,110.4,150.7z"/>
		<path class="st12" d="M112.1,177.9l-1.7-1.7l1.7-1.7l3-3l2.8-2.8l4.1-4.1c-2.9-2.3-6.5-3.7-10.4-3.7c-9.1,0-16.5,7.4-16.5,16.5
			c0,4.2,1.6,8,4.1,10.9c-1.2,1.7-3.8,1.9-5.7,3c3.4,0.7,5.3,0.4,8.5-0.4c2.3,1.7,6.3,2.9,9.5,2.9c5,0,9.1-1.8,11.9-4.6l-1.4-1.4
			l-4.2-4.2l-2.8-2.8L112.1,177.9z"/>
		<path class="st13" d="M111.6,160.9c9.1,0,16.6,7.4,16.6,16.5c0,4.6-1.7,8.8-4.6,11.8L100,165.7C103,162.8,107.1,160.9,111.6,160.9
			z"/>
		<path class="st14" d="M110.4,159.7c9.1,0,16.5,7.4,16.5,16.5c0,9.1-7.4,16.5-16.5,16.5c-3.3,0-6.3-0.9-8.9-2.6
			c-1,0.5-2.1,0.8-3.3,1.1c-1.6,0.3-3.2,0.4-4.7,0.1c1.8-1.1,3.4-2.5,4.5-4.2c-2.6-2.9-4.1-6.7-4.1-10.9
			C94,167.1,101.3,159.7,110.4,159.7z"/>
		<path class="st11" d="M104.2,174.5h12.6c0.9,0,1.7,0.7,1.7,1.7l0,0c0,0.9-0.7,1.7-1.7,1.7h-12.6c-0.9,0-1.7-0.7-1.7-1.7l0,0
			C102.5,175.3,103.2,174.5,104.2,174.5L104.2,174.5z M104.2,168.2h12.6c0.9,0,1.7,0.7,1.7,1.7l0,0c0,0.9-0.7,1.7-1.7,1.7h-12.6
			c-0.9,0-1.7-0.7-1.7-1.7l0,0C102.5,169,103.2,168.2,104.2,168.2L104.2,168.2z M104.2,180.8h12.6c0.9,0,1.7,0.7,1.7,1.7l0,0
			c0,0.9-0.7,1.7-1.7,1.7h-12.6c-0.9,0-1.7-0.7-1.7-1.7l0,0C102.5,181.6,103.2,180.8,104.2,180.8z"/>
	</g>
	<g id="Rounded_Rectangle_37_copy" class="st15">
		<g>
			<path class="st16" d="M178,51h-66h-2v167.1c0,1.1,0.9,1.9,2,1.9h66c1.1,0,2-0.9,2-1.9V52.9C180,51.9,179.1,51,178,51z"/>
		</g>
	</g>
</g>
</svg>
