<?xml version="1.0" encoding="utf-8"?>
<!-- Generator: Adobe Illustrator 19.0.1, SVG Export Plug-In . SVG Version: 6.00 Build 0)  -->
<svg version="1.1" id="svg1389" xmlns="http://www.w3.org/2000/svg" xmlns:xlink="http://www.w3.org/1999/xlink" x="0px" y="0px"
	 viewBox="270 63.9 1135 714" style="enable-background:new 270 63.9 1135 714;" xml:space="preserve">
<style type="text/css">
	.st0{fill:#1B1D74;}
	.st1{fill:#E59703;}
</style>
<g id="layer2">
	<rect id="rect1441" x="317" y="100.9" class="st0" width="1041" height="170"/>
	<path id="rect2316" class="st0" d="M270,63.9v714h1135v-714H270z M283,76.9h1109v689H283V76.9z"/>
	<rect id="rect3194" x="317" y="570.9" class="st1" width="1041" height="170"/>
	<path id="path3214" class="st0" d="M496.4,309.3l0.1-7.1l107,2l1.9,150l88.1-149l53,0.1l-141,234h-60.1c0,0-3.2-119.4-4.9-178.2
		C539.1,311.2,516.1,315.5,496.4,309.3z"/>
	<path id="path4089" class="st0" d="M691.6,539.4h60.8l76.1-236.1h-60.3L691.6,539.4z"/>
	<path id="path4964" class="st0" d="M991.1,356.3c0,0-32.2-20.1-50-20.1c-11.4,0-32,10.3-32,28.1c0,37.2,68.4,35.5,68.4,95.9
		c0,28.4-15.7,82.1-99.1,82.1c-56.4,0-79.5-24.7-79.5-24.7l19.5-35.3c0,0,24.5,18,58.2,18c24.9,0,41.1-9.7,41.1-24.6
		c0-30.3-74.2-43.3-74.2-95.8c0-42.5,39.2-82.6,99.1-82.6c49,0,72,28.5,72,28.5L991.1,356.3z"/>
	<path id="path5839" class="st0" d="M1167.5,305.3l-68,0l-127.1,234h54.3l23.8-47h68.8l0.1,47h58.1L1167.5,305.3z M1110.5,370.5
		l7,83.8l-51,0L1110.5,370.5z"/>
</g>
</svg>
