<?xml version="1.0" encoding="utf-8"?>
<!-- Generator: Adobe Illustrator 19.0.1, SVG Export Plug-In . SVG Version: 6.00 Build 0)  -->
<svg version="1.1" id="_x30_3" xmlns="http://www.w3.org/2000/svg" xmlns:xlink="http://www.w3.org/1999/xlink" x="0px" y="0px"
	 viewBox="0 0 220 220" style="enable-background:new 0 0 220 220;" xml:space="preserve">
<style type="text/css">
	.st0{fill-rule:evenodd;clip-rule:evenodd;fill:#FFD053;}
	.st1{clip-path:url(#SVGID_2_);}
	.st2{fill-rule:evenodd;clip-rule:evenodd;fill:#FFFFFF;}
	.st3{fill-rule:evenodd;clip-rule:evenodd;fill:#ECF0F1;}
	.st4{fill:#D9DFE1;}
	.st5{fill:#FFFFFF;}
	.st6{fill-rule:evenodd;clip-rule:evenodd;fill:#D9DFE1;}
	.st7{fill:#ECF0F1;}
	.st8{fill:#284259;}
	.st9{fill-rule:evenodd;clip-rule:evenodd;fill:#284259;}
	.st10{fill-rule:evenodd;clip-rule:evenodd;fill:#E1564B;}
	.st11{fill-rule:evenodd;clip-rule:evenodd;fill:#F39A00;}
	.st12{fill-rule:evenodd;clip-rule:evenodd;fill:#A2DD3B;}
</style>
<g id="Ellipse_48_copy_2">
	<g>
		<circle class="st0" cx="110" cy="110" r="110"/>
	</g>
</g>
<g>
	<defs>
		<circle id="SVGID_1_" cx="110" cy="110" r="110"/>
	</defs>
	<clipPath id="SVGID_2_">
		<use xlink:href="#SVGID_1_"  style="overflow:visible;"/>
	</clipPath>
	<g id="Rounded_Rectangle_32" class="st1">
		<g>
			<path class="st2" d="M190,57H30c-2.8,0-5,2.2-5,5v156c0,2.8,2.2,5,5,5h160c2.8,0,5-2.2,5-5V62C195,59.2,192.8,57,190,57z"/>
		</g>
	</g>
	<g id="Rounded_Rectangle_32_copy" class="st1">
		<g>
			<path class="st3" d="M190,61H30c-2.8,0-5,2.2-5,5v152c0,2.8,2.2,5,5,5h160c2.8,0,5-2.2,5-5V66C195,63.2,192.8,61,190,61z"/>
		</g>
	</g>
	<g id="Rounded_Rectangle_32_copy_7" class="st1">
		<g>
			<path class="st4" d="M110,143H94c-4.4,0-8,3.6-8,8s3.6,8,8,8h16c4.4,0,8-3.6,8-8S114.4,143,110,143z M110,162H94
				c-4.4,0-8,3.6-8,8s3.6,8,8,8h16c4.4,0,8-3.6,8-8S114.4,162,110,162z M110,181H94c-4.4,0-8,3.6-8,8s3.6,8,8,8h16c4.4,0,8-3.6,8-8
				S114.4,181,110,181z M110,200H94c-4.4,0-8,3.6-8,8s3.6,8,8,8h16c4.4,0,8-3.6,8-8S114.4,200,110,200z M144,143h-16
				c-4.4,0-8,3.6-8,8s3.6,8,8,8h16c4.4,0,8-3.6,8-8S148.4,143,144,143z M144,162h-16c-4.4,0-8,3.6-8,8s3.6,8,8,8h16c4.4,0,8-3.6,8-8
				S148.4,162,144,162z M144,181h-16c-4.4,0-8,3.6-8,8s3.6,8,8,8h16c4.4,0,8-3.6,8-8S148.4,181,144,181z M144,200h-16
				c-4.4,0-8,3.6-8,8s3.6,8,8,8h16c4.4,0,8-3.6,8-8S148.4,200,144,200z M162,159h16c4.4,0,8-3.6,8-8s-3.6-8-8-8h-16
				c-4.4,0-8,3.6-8,8S157.6,159,162,159z M178,162h-16c-4.4,0-8,3.6-8,8s3.6,8,8,8h16c4.4,0,8-3.6,8-8S182.4,162,178,162z M178,181
				h-16c-4.4,0-8,3.6-8,8s3.6,8,8,8h16c4.4,0,8-3.6,8-8S182.4,181,178,181z M178,200h-16c-4.4,0-8,3.6-8,8s3.6,8,8,8h16
				c4.4,0,8-3.6,8-8S182.4,200,178,200z"/>
		</g>
	</g>
	<g id="Rounded_Rectangle_32_copy_8" class="st1">
		<g>
			<path class="st5" d="M110,142H94c-4.4,0-8,3.6-8,8s3.6,8,8,8h16c4.4,0,8-3.6,8-8S114.4,142,110,142z M110,161H94
				c-4.4,0-8,3.6-8,8s3.6,8,8,8h16c4.4,0,8-3.6,8-8S114.4,161,110,161z M110,180H94c-4.4,0-8,3.6-8,8s3.6,8,8,8h16c4.4,0,8-3.6,8-8
				S114.4,180,110,180z M110,199H94c-4.4,0-8,3.6-8,8s3.6,8,8,8h16c4.4,0,8-3.6,8-8S114.4,199,110,199z M144,142h-16
				c-4.4,0-8,3.6-8,8s3.6,8,8,8h16c4.4,0,8-3.6,8-8S148.4,142,144,142z M144,161h-16c-4.4,0-8,3.6-8,8s3.6,8,8,8h16c4.4,0,8-3.6,8-8
				S148.4,161,144,161z M144,180h-16c-4.4,0-8,3.6-8,8s3.6,8,8,8h16c4.4,0,8-3.6,8-8S148.4,180,144,180z M144,199h-16
				c-4.4,0-8,3.6-8,8s3.6,8,8,8h16c4.4,0,8-3.6,8-8S148.4,199,144,199z M162,158h16c4.4,0,8-3.6,8-8s-3.6-8-8-8h-16
				c-4.4,0-8,3.6-8,8S157.6,158,162,158z M178,161h-16c-4.4,0-8,3.6-8,8s3.6,8,8,8h16c4.4,0,8-3.6,8-8S182.4,161,178,161z M178,180
				h-16c-4.4,0-8,3.6-8,8s3.6,8,8,8h16c4.4,0,8-3.6,8-8S182.4,180,178,180z M178,199h-16c-4.4,0-8,3.6-8,8s3.6,8,8,8h16
				c4.4,0,8-3.6,8-8S182.4,199,178,199z"/>
		</g>
	</g>
	<g id="Rectangle_121" class="st1">
		<g>
			<rect x="53" y="122" class="st6" width="21" height="101"/>
		</g>
	</g>
	<g id="Rounded_Rectangle_33" class="st1">
		<g>
			<path class="st6" d="M77,71H37c-2.2,0-4,1.8-4,4v50c0,2.2,1.8,4,4,4h40c2.2,0,4-1.8,4-4V75C81,72.8,79.2,71,77,71z"/>
		</g>
	</g>
	<g id="Rectangle_120" class="st1">
		<g>
			<path class="st5" d="M76,77H38c-1.7,0-3,1.3-3,3v42c0,1.7,1.3,3,3,3l4,2h0v92h30v-92l4-2c1.7,0,3-1.3,3-3V80
				C79,78.3,77.7,77,76,77z"/>
		</g>
	</g>
	<g id="Rectangle_120_copy" class="st1">
		<g>
			<path class="st7" d="M76,77H65h-3v45l0,0v97h10v-92l4-2c1.7,0,3-1.3,3-3V80C79,78.3,77.7,77,76,77z"/>
		</g>
	</g>
</g>
<g id="_x31__________2________3_4_________5________6_7_________8________9_1_">
	<g id="_x31__________2________3_4_________5________6_7_________8________9">
		<path class="st8" d="M103.2,154.9h-0.9v-6.1c0-0.5,0-1,0-1.4c-0.1,0.1-0.2,0.2-0.3,0.3s-0.6,0.5-1.4,1.1l-0.5-0.7l2.3-1.8h0.8
			V154.9z"/>
		<path class="st8" d="M140.1,154.9h-5.6v-0.8l2.3-2.3c0.7-0.7,1.1-1.2,1.4-1.5s0.4-0.6,0.5-0.9s0.2-0.6,0.2-0.9
			c0-0.5-0.1-0.8-0.4-1.1s-0.7-0.4-1.2-0.4c-0.4,0-0.7,0.1-1,0.2s-0.7,0.3-1.1,0.6l-0.5-0.7c0.8-0.7,1.6-1,2.6-1
			c0.8,0,1.4,0.2,1.9,0.6s0.7,1,0.7,1.7c0,0.5-0.2,1.1-0.5,1.6c-0.3,0.5-0.9,1.2-1.7,2l-1.9,1.8v0h4.4V154.9z"/>
		<path class="st8" d="M171.6,148.4c0,0.5-0.2,1-0.5,1.3s-0.7,0.6-1.3,0.7v0c0.7,0.1,1.2,0.3,1.5,0.7s0.5,0.8,0.5,1.4
			c0,0.8-0.3,1.4-0.8,1.9s-1.4,0.7-2.4,0.7c-0.5,0-0.9,0-1.2-0.1s-0.7-0.2-1.1-0.4v-0.9c0.4,0.2,0.8,0.3,1.2,0.4s0.8,0.1,1.2,0.1
			c1.5,0,2.2-0.6,2.2-1.7c0-1-0.8-1.6-2.4-1.6h-0.8v-0.8h0.9c0.7,0,1.2-0.1,1.6-0.4s0.6-0.7,0.6-1.2c0-0.4-0.1-0.7-0.4-1
			s-0.7-0.4-1.2-0.4c-0.4,0-0.7,0.1-1.1,0.2s-0.7,0.3-1.1,0.6l-0.5-0.7c0.4-0.3,0.8-0.5,1.2-0.7s0.9-0.2,1.5-0.2
			c0.8,0,1.5,0.2,1.9,0.6S171.6,147.7,171.6,148.4z"/>
		<path class="st8" d="M105.6,172h-1.3v2h-0.9v-2h-4.2v-0.8l4.1-5.8h1v5.8h1.3V172z M103.4,171.1v-2.8c0-0.6,0-1.2,0.1-1.9h0
			c-0.2,0.4-0.4,0.7-0.5,0.9l-2.7,3.8H103.4z"/>
		<path class="st8" d="M137.2,168.7c0.9,0,1.6,0.2,2.1,0.7s0.8,1.1,0.8,1.8c0,0.9-0.3,1.6-0.8,2.1s-1.3,0.8-2.3,0.8
			c-1,0-1.7-0.2-2.2-0.5v-0.9c0.3,0.2,0.6,0.3,1,0.4s0.8,0.1,1.2,0.1c0.7,0,1.2-0.2,1.6-0.5s0.6-0.8,0.6-1.4c0-1.2-0.7-1.8-2.2-1.8
			c-0.4,0-0.9,0.1-1.5,0.2l-0.5-0.3l0.3-4h4.3v0.9h-3.4l-0.2,2.6C136.3,168.8,136.7,168.7,137.2,168.7z"/>
		<path class="st8" d="M166.4,170.3c0-1.7,0.3-2.9,1-3.8s1.6-1.3,2.9-1.3c0.4,0,0.8,0,1,0.1v0.8c-0.3-0.1-0.6-0.1-1-0.1
			c-0.9,0-1.6,0.3-2.1,0.9s-0.8,1.5-0.8,2.7h0.1c0.4-0.7,1.1-1,2-1c0.8,0,1.4,0.2,1.8,0.7s0.7,1.1,0.7,1.9c0,0.9-0.2,1.6-0.7,2.1
			s-1.1,0.8-2,0.8c-0.9,0-1.6-0.3-2.1-1S166.4,171.5,166.4,170.3z M169.3,173.2c0.6,0,1-0.2,1.3-0.5s0.5-0.9,0.5-1.5
			c0-0.6-0.1-1-0.4-1.3s-0.7-0.5-1.3-0.5c-0.4,0-0.7,0.1-1,0.2s-0.5,0.3-0.7,0.6s-0.3,0.5-0.3,0.8c0,0.4,0.1,0.8,0.2,1.1
			s0.4,0.6,0.7,0.8S168.9,173.2,169.3,173.2z"/>
		<path class="st8" d="M100.7,192.9l3.6-7.7h-4.7v-0.9h5.7v0.8l-3.5,7.8H100.7z"/>
		<path class="st8" d="M137.3,184.3c0.8,0,1.4,0.2,1.9,0.5s0.7,0.9,0.7,1.5c0,0.4-0.1,0.8-0.4,1.2s-0.7,0.7-1.3,0.9
			c0.7,0.3,1.2,0.7,1.5,1s0.4,0.8,0.4,1.3c0,0.7-0.2,1.3-0.7,1.7s-1.2,0.6-2,0.6c-0.9,0-1.6-0.2-2.1-0.6s-0.7-1-0.7-1.7
			c0-1,0.6-1.7,1.8-2.3c-0.5-0.3-0.9-0.6-1.2-1s-0.4-0.7-0.4-1.2c0-0.6,0.2-1.1,0.7-1.5S136.6,184.3,137.3,184.3z M135.5,190.8
			c0,0.5,0.2,0.8,0.5,1.1s0.8,0.4,1.4,0.4c0.6,0,1-0.1,1.4-0.4s0.5-0.6,0.5-1.1c0-0.4-0.2-0.7-0.5-1s-0.8-0.6-1.6-0.9
			c-0.6,0.3-1,0.5-1.3,0.8S135.5,190.4,135.5,190.8z M137.3,185.1c-0.5,0-0.9,0.1-1.1,0.4s-0.4,0.5-0.4,0.9c0,0.4,0.1,0.7,0.3,0.9
			s0.7,0.5,1.3,0.8c0.6-0.2,1-0.5,1.2-0.8s0.3-0.6,0.3-0.9c0-0.4-0.1-0.7-0.4-0.9S137.8,185.1,137.3,185.1z"/>
		<path class="st8" d="M171.9,188c0,3.4-1.3,5-3.9,5c-0.5,0-0.8,0-1.1-0.1v-0.8c0.3,0.1,0.7,0.2,1.1,0.2c0.9,0,1.6-0.3,2.1-0.9
			s0.7-1.5,0.8-2.7h-0.1c-0.2,0.3-0.5,0.6-0.9,0.7s-0.8,0.3-1.2,0.3c-0.8,0-1.4-0.2-1.8-0.7s-0.7-1.1-0.7-1.9c0-0.9,0.2-1.6,0.7-2.1
			s1.2-0.8,2-0.8c0.6,0,1.1,0.1,1.5,0.4s0.8,0.7,1,1.3S171.9,187.3,171.9,188z M169,185.1c-0.6,0-1,0.2-1.3,0.5s-0.5,0.9-0.5,1.5
			c0,0.6,0.1,1,0.4,1.3c0.3,0.3,0.7,0.5,1.3,0.5c0.4,0,0.7-0.1,1-0.2s0.5-0.3,0.7-0.6s0.3-0.5,0.3-0.8c0-0.4-0.1-0.8-0.2-1.1
			s-0.4-0.6-0.7-0.8S169.4,185.1,169,185.1z"/>
		<path class="st8" d="M102.8,202.8l-0.3,2.3l2.3-0.7l0.2,1.1l-2.2,0.2l1.5,1.9l-1,0.6l-1-2.1l-0.9,2.1l-1-0.6l1.4-1.9l-2.2-0.2
			l0.2-1.1l2.3,0.7l-0.3-2.3H102.8z"/>
		<path class="st8" d="M139.9,207.7c0,1.5-0.2,2.6-0.7,3.3s-1.2,1.1-2.1,1.1c-0.9,0-1.6-0.4-2.1-1.1s-0.7-1.8-0.7-3.3
			c0-1.5,0.2-2.6,0.7-3.3s1.2-1.1,2.1-1.1c0.9,0,1.6,0.4,2.1,1.1S139.9,206.2,139.9,207.7z M135.3,207.7c0,1.2,0.1,2.2,0.4,2.7
			s0.8,0.9,1.4,0.9c0.6,0,1.1-0.3,1.4-0.9s0.4-1.5,0.4-2.7s-0.1-2.1-0.4-2.7s-0.8-0.9-1.4-0.9c-0.6,0-1.1,0.3-1.4,0.8
			S135.3,206.4,135.3,207.7z"/>
	</g>
</g>
<g id="Rounded_Rectangle_34">
	<g>
		<path class="st9" d="M183,71H89c-1.7,0-3,1.3-3,3v52c0,1.7,1.3,3,3,3h94c1.7,0,3-1.3,3-3V74C186,72.3,184.7,71,183,71z"/>
	</g>
</g>
<g id="Rounded_Rectangle_36">
	<g>
		<path class="st10" d="M180,116h-11c-1.1,0-2,0.9-2,2v1c0,1.1,0.9,2,2,2h11c1.1,0,2-0.9,2-2v-1C182,116.9,181.1,116,180,116z"/>
	</g>
</g>
<g id="Rounded_Rectangle_36_copy">
	<g>
		<path class="st10" d="M160,116h-11c-1.1,0-2,0.9-2,2v1c0,1.1,0.9,2,2,2h11c1.1,0,2-0.9,2-2v-1C162,116.9,161.1,116,160,116z"/>
	</g>
</g>
<g id="Rounded_Rectangle_36_copy_2">
	<g>
		<path class="st11" d="M140,116h-11c-1.1,0-2,0.9-2,2v1c0,1.1,0.9,2,2,2h11c1.1,0,2-0.9,2-2v-1C142,116.9,141.1,116,140,116z"/>
	</g>
</g>
<g id="Rounded_Rectangle_35">
	<g>
		<path class="st12" d="M180,77H92c-1.1,0-2,0.9-2,2v28c0,1.1,0.9,2,2,2h88c1.1,0,2-0.9,2-2V79C182,77.9,181.1,77,180,77z"/>
	</g>
</g>
</svg>
