<?xml version="1.0" encoding="utf-8"?>
<!-- Generator: Adobe Illustrator 19.0.1, SVG Export Plug-In . SVG Version: 6.00 Build 0)  -->
<svg version="1.1" id="Layer_1" xmlns="http://www.w3.org/2000/svg" xmlns:xlink="http://www.w3.org/1999/xlink" x="0px" y="0px"
	 viewBox="0 0 396.4 99.1" style="enable-background:new 0 0 396.4 99.1;" xml:space="preserve">
<style type="text/css">
	.st0{fill-rule:evenodd;clip-rule:evenodd;fill:#006BB3;}
	.st1{fill:#006BB3;}
</style>
<g>
	<path class="st0" d="M346.4,0c7.8,0,15.2,1.8,21.7,5c1,0.5,2.1,1,3.1,1.6l-4.6,4.1l-6.9-7.1L348.3,14l-6.9-7.5l-21.5,19.4
		l13.8,15.2l-5.4,4.8l13.6,15.2l-5.4,4.8l19.4,21.6l11.5-10.6l10,11.4c-2,1.5-4.1,3-6.5,4.3c-7.2,4.1-15.6,6.5-24.4,6.5
		c-27.3,0-49.6-22.3-49.6-49.6C296.9,22.3,319.2,0,346.4,0L346.4,0z"/>
	<polygon class="st0" points="337.4,46.4 349.2,35.8 359.8,47.6 348,58.2 337.4,46.4 	"/>
	<polygon class="st0" points="345.8,66.8 357.6,56.2 368.2,68 356.4,78.6 345.8,66.8 	"/>
	<polygon class="st0" points="329,26.3 340.8,15.7 351.4,27.5 339.6,38.1 329,26.3 	"/>
	<polygon class="st0" points="350.6,20.6 359.4,12.6 367.4,21.5 358.6,29.4 350.6,20.6 	"/>
	<polygon class="st0" points="366.3,57 375.1,49.1 383.1,57.9 374.3,65.9 366.3,57 	"/>
	<polygon class="st0" points="374.1,74.9 382.9,66.9 390.9,75.8 382,83.7 374.1,74.9 	"/>
	<polygon class="st0" points="377.6,34 383.5,28.7 388.8,34.6 383,39.9 377.6,34 	"/>
	<polygon class="st0" points="370.1,16.5 376,11.2 381.3,17.1 375.4,22.4 370.1,16.5 	"/>
	<polygon class="st0" points="385.2,51.5 391.1,46.2 396.4,52.1 390.5,57.4 385.2,51.5 	"/>
	<polygon class="st0" points="358.8,38.4 367.6,30.4 375.5,39.2 366.7,47.2 358.8,38.4 	"/>
</g>
<g>
	<path class="st1" d="M23.1,41h-0.4l-7.5,28.2H9.2L0,29.1h6.3l6.3,29.9h0.4l7.4-29.9h5l7.9,29.9h0.4l5.8-29.9h6.6l-9.2,40.1h-6.1
		L23.1,41z"/>
	<path class="st1" d="M71.1,63v4.3c-2.5,1.5-5.9,2.6-10,2.6c-9.5,0-13.4-5.9-13.4-14.8c0-8.6,4.4-14.8,12.8-14.8
		c7.1,0,11.4,4.6,11.4,13.8v2.1H53.6c0,6.8,2.8,9.8,8.6,9.8C65.2,65.9,68,64.9,71.1,63z M53.7,52.4h12.9c-0.3-5.9-3.2-8.3-6.2-8.3
		C56.9,44.1,54.3,46.7,53.7,52.4z"/>
	<path class="st1" d="M83,42.4c1.7-0.9,4.6-2.1,7.6-2.1c7,0,10.8,4.9,10.8,13.9c0,10.6-5.1,15.7-13.3,15.7c-3,0-7.6-1-11-2.8V27.7
		l5.9-1.4V42.4z M83,65c1.8,0.8,3.8,0.9,5.2,0.9c4.2,0,7.4-2.6,7.4-11.8c0-7.2-2.6-9.5-6.4-9.5c-2.3,0-3.9,0.6-6.2,1.9V65z"/>
	<path class="st1" d="M127.2,60.7h0.3l12.1-31.6h7v40.1h-6.1V40.2h-0.5l-11.5,29.1h-3.6l-11.5-28.4h-0.5v28.4h-5.1V29.1h6.8
		L127.2,60.7z"/>
	<path class="st1" d="M152.8,55.1c0-9.9,5.4-14.8,12.9-14.8c7.5,0,12.9,4.9,12.9,14.8c0,9.7-5.1,14.8-12.9,14.8
		C157.9,69.9,152.8,64.8,152.8,55.1z M172.6,55.1c0-7.6-3.1-10.9-7-10.9c-3.7,0-7,3.2-7,10.9c0,7.7,2.9,10.9,7,10.9
		C169.7,65.9,172.6,62.8,172.6,55.1z"/>
	<path class="st1" d="M183.9,44.5c2.5-1.5,7.9-4.2,14.4-4.2c6.8,0,9.3,2.7,9.3,8.5v20.5h-5.9V50.1c0-4.5-2.2-5.3-5.1-5.3
		c-2.3,0-5.1,1-6.9,2v22.4h-5.9V44.5z"/>
	<path class="st1" d="M236.3,63v4.3c-2.5,1.5-5.9,2.6-10,2.6c-9.5,0-13.4-5.9-13.4-14.8c0-8.6,4.4-14.8,12.8-14.8
		c7.1,0,11.4,4.6,11.4,13.8v2.1h-18.4c0,6.8,2.8,9.8,8.6,9.8C230.4,65.9,233.2,64.9,236.3,63z M218.9,52.4h12.9
		c-0.3-5.9-3.2-8.3-6.2-8.3C222.2,44.1,219.5,46.7,218.9,52.4z"/>
	<path class="st1" d="M259.2,41.2h6L255,69.5c-2.8,7.8-6.3,11.9-12.8,11.9v-4.6c3.8,0,6.2-3.1,7.6-7.2l-10.9-28.3h6.2l7.2,20.8h0.3
		L259.2,41.2z"/>
</g>
</svg>
