<?xml version="1.0" encoding="utf-8"?>
<!-- Generator: Adobe Illustrator 19.0.1, SVG Export Plug-In . SVG Version: 6.00 Build 0)  -->
<svg version="1.1" id="Group_35_copy" xmlns="http://www.w3.org/2000/svg" xmlns:xlink="http://www.w3.org/1999/xlink" x="0px"
	 y="0px" viewBox="0 0 220 220" style="enable-background:new 0 0 220 220;" xml:space="preserve">
<style type="text/css">
	.st0{display:none;}
	.st1{display:inline;fill-rule:evenodd;clip-rule:evenodd;fill:#284259;}
	.st2{fill:#284259;}
	.st3{fill:#A2DD3B;}
	.st4{fill-rule:evenodd;clip-rule:evenodd;fill:#ECF0F1;}
	.st5{fill-rule:evenodd;clip-rule:evenodd;fill:#E1564B;}
	.st6{fill-rule:evenodd;clip-rule:evenodd;fill:#559EE3;}
	.st7{fill-rule:evenodd;clip-rule:evenodd;fill:#83CA28;}
	.st8{fill:#83CA28;}
	.st9{fill:#FFFFFF;}
	.st10{fill-rule:evenodd;clip-rule:evenodd;fill:#FFFFFF;}
</style>
<g id="Ellipse_48_copy_6" class="st0">
	<circle class="st1" cx="110" cy="110" r="110"/>
</g>
<g>
	<path class="st2" d="M195,110v69.8c15.6-19,25-43.3,25-69.8C220,49.2,170.8,0,110,0C49.2,0,0,49.2,0,110c0,26.5,9.4,50.8,25,69.8
		V110H195z"/>
	<path class="st3" d="M195,179.8V110H25v69.8c20.2,24.5,50.8,40.2,85,40.2C144.2,220,174.8,204.4,195,179.8z"/>
</g>
<g id="Rounded_Rectangle_29">
	<g>
		<path class="st4" d="M191,57H29c-2.2,0-4,1.8-4,4v10h4h162h4V61C195,58.8,193.2,57,191,57z"/>
	</g>
</g>
<g id="Ellipse_96">
	<g>
		<circle class="st5" cx="188.5" cy="64.5" r="2.5"/>
	</g>
</g>
<g id="Ellipse_96_copy">
	<g>
		<circle class="st6" cx="180.5" cy="64.5" r="2.5"/>
	</g>
</g>
<g id="Ellipse_96_copy_2">
	<g>
		<circle class="st6" cx="172.5" cy="64.5" r="2.5"/>
	</g>
</g>
<g id="Rectangle_104">
	<g>
		<rect x="25" y="71" class="st7" width="170" height="39"/>
	</g>
</g>
<g id="Rounded_Rectangle_13_copy">
	<g>
		<path class="st8" d="M99.4,63.4c0-0.1-1.2-2.4-3.2-2.4H46.4H35.9c-2,0-3.2,2.3-3.2,2.4L29,71h6.1h11.3h50.5h6.1L99.4,63.4z"/>
	</g>
</g>
<g id="Rounded_Rectangle_32_copy_6">
	<g>
		<path class="st8" d="M84,125H68c-4.4,0-8,3.6-8,8s3.6,8,8,8h16c4.4,0,8-3.6,8-8S88.4,125,84,125z M84,144H68c-4.4,0-8,3.6-8,8
			s3.6,8,8,8h16c4.4,0,8-3.6,8-8S88.4,144,84,144z M84,163H68c-4.4,0-8,3.6-8,8s3.6,8,8,8h16c4.4,0,8-3.6,8-8S88.4,163,84,163z
			 M84,182H68c-4.4,0-8,3.6-8,8s3.6,8,8,8h16c4.4,0,8-3.6,8-8S88.4,182,84,182z M118,125h-16c-4.4,0-8,3.6-8,8s3.6,8,8,8h16
			c4.4,0,8-3.6,8-8S122.4,125,118,125z M118,144h-16c-4.4,0-8,3.6-8,8s3.6,8,8,8h16c4.4,0,8-3.6,8-8S122.4,144,118,144z M118,163
			h-16c-4.4,0-8,3.6-8,8s3.6,8,8,8h16c4.4,0,8-3.6,8-8S122.4,163,118,163z M118,182h-16c-4.4,0-8,3.6-8,8s3.6,8,8,8h16
			c4.4,0,8-3.6,8-8S122.4,182,118,182z M136,141h16c4.4,0,8-3.6,8-8s-3.6-8-8-8h-16c-4.4,0-8,3.6-8,8S131.6,141,136,141z M152,144
			h-16c-4.4,0-8,3.6-8,8s3.6,8,8,8h16c4.4,0,8-3.6,8-8S156.4,144,152,144z M152,163h-16c-4.4,0-8,3.6-8,8s3.6,8,8,8h16
			c4.4,0,8-3.6,8-8S156.4,163,152,163z M152,182h-16c-4.4,0-8,3.6-8,8s3.6,8,8,8h16c4.4,0,8-3.6,8-8S156.4,182,152,182z"/>
	</g>
</g>
<g id="_x31__________2________3_4_________5________6_7_________8________9__copy_1_">
	<g id="_x31__________2________3_4_________5________6_7_________8________9__copy">
		<path class="st9" d="M77.2,137.9h-0.9v-6.1c0-0.5,0-1,0-1.4c-0.1,0.1-0.2,0.2-0.3,0.3s-0.6,0.5-1.4,1.1l-0.5-0.7l2.3-1.8h0.8
			V137.9z"/>
		<path class="st9" d="M114.1,137.9h-5.6v-0.8l2.3-2.3c0.7-0.7,1.1-1.2,1.4-1.5s0.4-0.6,0.5-0.9s0.2-0.6,0.2-0.9
			c0-0.5-0.1-0.8-0.4-1.1s-0.7-0.4-1.2-0.4c-0.4,0-0.7,0.1-1,0.2s-0.7,0.3-1.1,0.6l-0.5-0.7c0.8-0.7,1.6-1,2.6-1
			c0.8,0,1.4,0.2,1.9,0.6s0.7,1,0.7,1.7c0,0.5-0.2,1.1-0.5,1.6c-0.3,0.5-0.9,1.2-1.7,2l-1.9,1.8v0h4.4V137.9z"/>
		<path class="st9" d="M145.6,131.4c0,0.5-0.2,1-0.5,1.3s-0.7,0.6-1.3,0.7v0c0.7,0.1,1.2,0.3,1.5,0.7s0.5,0.8,0.5,1.4
			c0,0.8-0.3,1.4-0.8,1.9s-1.4,0.7-2.4,0.7c-0.5,0-0.9,0-1.2-0.1s-0.7-0.2-1.1-0.4v-0.9c0.4,0.2,0.8,0.3,1.2,0.4s0.8,0.1,1.2,0.1
			c1.5,0,2.2-0.6,2.2-1.7c0-1-0.8-1.6-2.4-1.6h-0.8v-0.8h0.9c0.7,0,1.2-0.1,1.6-0.4s0.6-0.7,0.6-1.2c0-0.4-0.1-0.7-0.4-1
			s-0.7-0.4-1.2-0.4c-0.4,0-0.7,0.1-1.1,0.2s-0.7,0.3-1.1,0.6l-0.5-0.7c0.4-0.3,0.8-0.5,1.2-0.7s0.9-0.2,1.5-0.2
			c0.8,0,1.5,0.2,1.9,0.6S145.6,130.7,145.6,131.4z"/>
		<path class="st9" d="M79.6,155h-1.3v2h-0.9v-2h-4.2v-0.8l4.1-5.8h1v5.8h1.3V155z M77.4,154.1v-2.8c0-0.6,0-1.2,0.1-1.9h0
			c-0.2,0.4-0.4,0.7-0.5,0.9l-2.7,3.8H77.4z"/>
		<path class="st9" d="M111.2,151.7c0.9,0,1.6,0.2,2.1,0.7s0.8,1.1,0.8,1.8c0,0.9-0.3,1.6-0.8,2.1s-1.3,0.8-2.3,0.8
			c-1,0-1.7-0.2-2.2-0.5v-0.9c0.3,0.2,0.6,0.3,1,0.4s0.8,0.1,1.2,0.1c0.7,0,1.2-0.2,1.6-0.5s0.6-0.8,0.6-1.4c0-1.2-0.7-1.8-2.2-1.8
			c-0.4,0-0.9,0.1-1.5,0.2l-0.5-0.3l0.3-4h4.3v0.9h-3.4l-0.2,2.6C110.3,151.8,110.7,151.7,111.2,151.7z"/>
		<path class="st9" d="M140.4,153.3c0-1.7,0.3-2.9,1-3.8s1.6-1.3,2.9-1.3c0.4,0,0.8,0,1,0.1v0.8c-0.3-0.1-0.6-0.1-1-0.1
			c-0.9,0-1.6,0.3-2.1,0.9s-0.8,1.5-0.8,2.7h0.1c0.4-0.7,1.1-1,2-1c0.8,0,1.4,0.2,1.8,0.7s0.7,1.1,0.7,1.9c0,0.9-0.2,1.6-0.7,2.1
			s-1.1,0.8-2,0.8c-0.9,0-1.6-0.3-2.1-1S140.4,154.5,140.4,153.3z M143.3,156.2c0.6,0,1-0.2,1.3-0.5s0.5-0.9,0.5-1.5
			c0-0.6-0.1-1-0.4-1.3s-0.7-0.5-1.3-0.5c-0.4,0-0.7,0.1-1,0.2s-0.5,0.3-0.7,0.6s-0.3,0.5-0.3,0.8c0,0.4,0.1,0.8,0.2,1.1
			s0.4,0.6,0.7,0.8S142.9,156.2,143.3,156.2z"/>
		<path class="st9" d="M74.7,175.9l3.6-7.7h-4.7v-0.9h5.7v0.8l-3.5,7.8H74.7z"/>
		<path class="st9" d="M111.3,167.3c0.8,0,1.4,0.2,1.9,0.5s0.7,0.9,0.7,1.5c0,0.4-0.1,0.8-0.4,1.2s-0.7,0.7-1.3,0.9
			c0.7,0.3,1.2,0.7,1.5,1s0.4,0.8,0.4,1.3c0,0.7-0.2,1.3-0.7,1.7s-1.2,0.6-2,0.6c-0.9,0-1.6-0.2-2.1-0.6s-0.7-1-0.7-1.7
			c0-1,0.6-1.7,1.8-2.3c-0.5-0.3-0.9-0.6-1.2-1s-0.4-0.7-0.4-1.2c0-0.6,0.2-1.1,0.7-1.5S110.6,167.3,111.3,167.3z M109.5,173.8
			c0,0.5,0.2,0.8,0.5,1.1s0.8,0.4,1.4,0.4c0.6,0,1-0.1,1.4-0.4s0.5-0.6,0.5-1.1c0-0.4-0.2-0.7-0.5-1s-0.8-0.6-1.6-0.9
			c-0.6,0.3-1,0.5-1.3,0.8S109.5,173.4,109.5,173.8z M111.3,168.1c-0.5,0-0.9,0.1-1.1,0.4s-0.4,0.5-0.4,0.9c0,0.4,0.1,0.7,0.3,0.9
			s0.7,0.5,1.3,0.8c0.6-0.2,1-0.5,1.2-0.8s0.3-0.6,0.3-0.9c0-0.4-0.1-0.7-0.4-0.9S111.8,168.1,111.3,168.1z"/>
		<path class="st9" d="M145.9,171c0,3.4-1.3,5-3.9,5c-0.5,0-0.8,0-1.1-0.1v-0.8c0.3,0.1,0.7,0.2,1.1,0.2c0.9,0,1.6-0.3,2.1-0.9
			s0.7-1.5,0.8-2.7h-0.1c-0.2,0.3-0.5,0.6-0.9,0.7s-0.8,0.3-1.2,0.3c-0.8,0-1.4-0.2-1.8-0.7s-0.7-1.1-0.7-1.9c0-0.9,0.2-1.6,0.7-2.1
			s1.2-0.8,2-0.8c0.6,0,1.1,0.1,1.5,0.4s0.8,0.7,1,1.3S145.9,170.3,145.9,171z M143,168.1c-0.6,0-1,0.2-1.3,0.5s-0.5,0.9-0.5,1.5
			c0,0.6,0.1,1,0.4,1.3c0.3,0.3,0.7,0.5,1.3,0.5c0.4,0,0.7-0.1,1-0.2s0.5-0.3,0.7-0.6s0.3-0.5,0.3-0.8c0-0.4-0.1-0.8-0.2-1.1
			s-0.4-0.6-0.7-0.8S143.4,168.1,143,168.1z"/>
		<path class="st9" d="M76.8,185.8l-0.3,2.3l2.3-0.7l0.2,1.1l-2.2,0.2l1.5,1.9l-1,0.6l-1-2.1l-0.9,2.1l-1-0.6l1.4-1.9l-2.2-0.2
			l0.2-1.1l2.3,0.7l-0.3-2.3H76.8z"/>
		<path class="st9" d="M113.9,190.7c0,1.5-0.2,2.6-0.7,3.3s-1.2,1.1-2.1,1.1c-0.9,0-1.6-0.4-2.1-1.1s-0.7-1.8-0.7-3.3
			c0-1.5,0.2-2.6,0.7-3.3s1.2-1.1,2.1-1.1c0.9,0,1.6,0.4,2.1,1.1S113.9,189.2,113.9,190.7z M109.3,190.7c0,1.2,0.1,2.2,0.4,2.7
			s0.8,0.9,1.4,0.9c0.6,0,1.1-0.3,1.4-0.9s0.4-1.5,0.4-2.7s-0.1-2.1-0.4-2.7s-0.8-0.9-1.4-0.9c-0.6,0-1.1,0.3-1.4,0.8
			S109.3,189.4,109.3,190.7z"/>
		<path class="st9" d="M145.2,189.7l-0.4,2h1.7v0.8h-1.8l-0.5,2.5h-0.8l0.5-2.5h-1.8l-0.5,2.5h-0.8l0.5-2.5h-1.5v-0.8h1.7l0.4-2
			h-1.6v-0.7h1.8l0.5-2.6h0.8l-0.5,2.6h1.8l0.5-2.6h0.8l-0.5,2.6h1.5v0.7H145.2z M142.3,191.7h1.8l0.4-2h-1.8L142.3,191.7z"/>
	</g>
</g>
<g>
	<path class="st10" d="M75.6,85.9v2.4h-3.7v10.9h-3.1V88.3H65v-2.4H75.6L75.6,85.9z M85.4,85.9v2.4h-5.5v3.1h4.2v2.3h-4.2v3.2h5.5
		v2.4h-8.6V85.9H85.4L85.4,85.9z M112.2,92.5c0,1-0.2,1.9-0.5,2.7c-0.3,0.8-0.8,1.5-1.4,2.2c-0.6,0.6-1.3,1.1-2.2,1.4
		c-0.8,0.3-1.8,0.5-2.8,0.5c-1,0-2-0.2-2.8-0.5c-0.9-0.3-1.6-0.8-2.2-1.4c-0.6-0.6-1.1-1.3-1.4-2.2c-0.3-0.8-0.5-1.7-0.5-2.7
		c0-1,0.2-1.9,0.5-2.7c0.3-0.8,0.8-1.5,1.4-2.2c0.6-0.6,1.3-1.1,2.2-1.4c0.9-0.3,1.8-0.5,2.8-0.5c1,0,2,0.2,2.8,0.5
		c0.8,0.3,1.6,0.8,2.2,1.4c0.6,0.6,1.1,1.3,1.4,2.2C112.1,90.7,112.2,91.6,112.2,92.5L112.2,92.5z M109.1,92.5
		c0-0.7-0.1-1.2-0.3-1.8c-0.2-0.5-0.4-1-0.7-1.3c-0.3-0.4-0.7-0.6-1.2-0.8c-0.5-0.2-1-0.3-1.6-0.3c-0.6,0-1.1,0.1-1.6,0.3
		c-0.5,0.2-0.9,0.5-1.2,0.8c-0.3,0.4-0.6,0.8-0.7,1.3c-0.2,0.5-0.3,1.1-0.3,1.8c0,0.7,0.1,1.3,0.3,1.8c0.2,0.5,0.4,1,0.7,1.3
		c0.3,0.4,0.7,0.6,1.2,0.8c0.5,0.2,1,0.3,1.6,0.3c0.6,0,1.1-0.1,1.6-0.3c0.5-0.2,0.9-0.5,1.2-0.8c0.3-0.4,0.6-0.8,0.7-1.3
		C109,93.8,109.1,93.2,109.1,92.5L109.1,92.5z M115.3,85.9c0.1,0,0.2,0,0.3,0c0.1,0,0.2,0,0.2,0.1c0.1,0,0.1,0.1,0.2,0.1
		c0.1,0.1,0.1,0.1,0.2,0.2l6.3,8c0-0.3,0-0.5-0.1-0.7c0-0.2,0-0.5,0-0.7v-7h2.7v13.3h-1.6c-0.2,0-0.4,0-0.6-0.1
		c-0.2-0.1-0.3-0.2-0.5-0.4l-6.3-7.9c0,0.2,0,0.5,0,0.7c0,0.2,0,0.4,0,0.6v7.1h-2.7V85.9H115.3L115.3,85.9z M130.9,99.2h-3.1V85.9
		h3.1V99.2L130.9,99.2z M140.7,88.6c-0.1,0.1-0.2,0.3-0.3,0.3c-0.1,0.1-0.2,0.1-0.4,0.1c-0.1,0-0.3,0-0.4-0.1
		c-0.2-0.1-0.3-0.2-0.5-0.3c-0.2-0.1-0.4-0.2-0.7-0.3c-0.3-0.1-0.6-0.1-0.9-0.1c-0.6,0-1,0.1-1.3,0.4c-0.3,0.2-0.4,0.6-0.4,1
		c0,0.3,0.1,0.5,0.3,0.7c0.2,0.2,0.4,0.3,0.7,0.5c0.3,0.1,0.6,0.2,0.9,0.3c0.4,0.1,0.7,0.2,1.1,0.4c0.4,0.1,0.7,0.3,1.1,0.5
		c0.4,0.2,0.7,0.4,0.9,0.7c0.3,0.3,0.5,0.6,0.7,1c0.2,0.4,0.3,0.9,0.3,1.4c0,0.6-0.1,1.2-0.3,1.7c-0.2,0.5-0.5,1-0.9,1.4
		c-0.4,0.4-0.9,0.7-1.5,0.9c-0.6,0.2-1.3,0.3-2,0.3c-0.4,0-0.8,0-1.3-0.1c-0.4-0.1-0.8-0.2-1.2-0.4c-0.4-0.2-0.8-0.3-1.1-0.5
		c-0.4-0.2-0.7-0.4-0.9-0.7l0.9-1.5c0.1-0.1,0.2-0.2,0.3-0.3c0.1-0.1,0.3-0.1,0.4-0.1c0.2,0,0.4,0.1,0.6,0.2
		c0.2,0.1,0.4,0.2,0.6,0.4c0.2,0.1,0.5,0.3,0.8,0.4c0.3,0.1,0.7,0.2,1.1,0.2c0.6,0,1-0.1,1.3-0.4c0.3-0.2,0.5-0.6,0.5-1.2
		c0-0.3-0.1-0.6-0.3-0.8c-0.2-0.2-0.4-0.4-0.7-0.5c-0.3-0.1-0.6-0.2-0.9-0.3c-0.4-0.1-0.7-0.2-1.1-0.3c-0.4-0.1-0.7-0.3-1.1-0.4
		c-0.4-0.2-0.7-0.4-0.9-0.7c-0.3-0.3-0.5-0.6-0.7-1.1c-0.2-0.4-0.3-0.9-0.3-1.6c0-0.5,0.1-1,0.3-1.5c0.2-0.5,0.5-0.9,0.9-1.3
		c0.4-0.4,0.9-0.7,1.4-0.9c0.6-0.2,1.2-0.3,1.9-0.3c0.4,0,0.8,0,1.2,0.1c0.4,0.1,0.8,0.2,1.1,0.3c0.3,0.1,0.7,0.3,1,0.4
		c0.3,0.2,0.6,0.4,0.8,0.6L140.7,88.6L140.7,88.6z M149.9,94.2v5h-3.1v-5l-4.8-8.3h2.7c0.3,0,0.5,0.1,0.6,0.2
		c0.2,0.1,0.3,0.3,0.4,0.5l1.9,3.9c0.2,0.3,0.3,0.6,0.4,0.9c0.1,0.3,0.2,0.5,0.3,0.8c0.1-0.3,0.2-0.5,0.3-0.8
		c0.1-0.3,0.3-0.6,0.4-0.9l1.9-3.9c0-0.1,0.1-0.2,0.2-0.2c0.1-0.1,0.1-0.2,0.2-0.2c0.1-0.1,0.2-0.1,0.3-0.2c0.1,0,0.2-0.1,0.3-0.1
		h2.7L149.9,94.2z"/>
	<g>
		<path class="st10" d="M93,85.7c1.9,0,3.6,0.8,4.8,2l-1.7,1.7c-0.8-0.8-1.9-1.3-3.1-1.3c-2.4,0-4.4,2-4.4,4.4
			c0,1.1,0.4,2.1,1.1,2.9c-0.3,0.5-0.7,0.8-1.2,1.1c0.4,0.1,0.8,0,1.3,0c0.3-0.1,0.6-0.2,0.9-0.3c0.7,0.4,1.5,0.7,2.4,0.7
			c1.2,0,2.3-0.5,3.1-1.3l1.7,1.7c-1.2,1.2-2.9,2-4.8,2c-3.8,0-6.8-3-6.8-6.8C86.2,88.8,89.2,85.7,93,85.7z"/>
		<path class="st10" d="M91.3,92.1h3.4c0.2,0,0.4,0.2,0.4,0.4l0,0c0,0.2-0.2,0.4-0.4,0.4h-3.4c-0.2,0-0.4-0.2-0.4-0.4l0,0
			C90.9,92.3,91.1,92.1,91.3,92.1L91.3,92.1z M91.3,90.4h3.4c0.2,0,0.4,0.2,0.4,0.4l0,0c0,0.2-0.2,0.4-0.4,0.4h-3.4
			c-0.2,0-0.4-0.2-0.4-0.4l0,0C90.9,90.6,91.1,90.4,91.3,90.4L91.3,90.4z M91.3,93.8h3.4c0.2,0,0.4,0.2,0.4,0.4l0,0
			c0,0.2-0.2,0.4-0.4,0.4h-3.4c-0.2,0-0.4-0.2-0.4-0.4l0,0C90.9,94,91.1,93.8,91.3,93.8z"/>
	</g>
</g>
</svg>
