<?xml version="1.0" encoding="utf-8"?>
<!-- Generator: Adobe Illustrator 19.0.1, SVG Export Plug-In . SVG Version: 6.00 Build 0)  -->
<svg version="1.1" id="Layer_1" xmlns="http://www.w3.org/2000/svg" xmlns:xlink="http://www.w3.org/1999/xlink" x="0px" y="0px"
	 viewBox="0 0 154.5 154.3" style="enable-background:new 0 0 154.5 154.3;" xml:space="preserve">
<style type="text/css">
	.st0{fill-rule:evenodd;clip-rule:evenodd;fill:#D9DFE1;}
	.st1{fill-rule:evenodd;clip-rule:evenodd;fill:#FFFFFF;}
	.st2{fill-rule:evenodd;clip-rule:evenodd;fill:#83CA28;}
	.st3{opacity:0.302;fill-rule:evenodd;clip-rule:evenodd;fill:#6CAE17;}
	.st4{fill-rule:evenodd;clip-rule:evenodd;fill:#6CAE17;}
	.st5{fill-rule:evenodd;clip-rule:evenodd;fill:#284259;}
</style>
<g>
	<path class="st0" d="M154.4,83.3c-2.2,41.4-37.6,73.1-78.9,70.9c-17.3-0.9-32.9-7.7-45-18.2c-6,1.9-12.9,2.7-20.2,2.3
		c-3.4-0.2-7.3-0.7-10.3-1.4c7.4-2.3,14.4-7.1,18.8-13.6C9.1,109.9,3.7,93.1,4.6,75.3C6.8,33.9,42.2,2.2,83.5,4.4
		C124.9,6.6,156.6,41.9,154.4,83.3z"/>
	<path class="st1" d="M75.8,150c-17.3,0-33.2-5.9-45.9-15.7c-5.9,2.2-12.7,3.4-20,3.4c-3.4,0-6.7-0.3-9.8-0.8
		c7.3-2.7,13.5-8,17.6-14.7C7.1,109.4,0.8,92.9,0.8,75c0-41.4,33.6-75,75-75c41.4,0,75,33.6,75,75C150.8,116.4,117.2,150,75.8,150z"
		/>
	<path class="st2" d="M143.6,75c0-37.2-30.3-67.5-67.5-67.5C39,7.5,8.6,37.8,8.6,75c0,37.2,30.3,67.5,67.5,67.5
		C113.3,142.5,143.6,112.2,143.6,75z"/>
	<path class="st3" d="M37,115.4l79-79l26.5,26.5c0.7,3.9,1.1,8,1.1,12.2c0,37.3-30.2,67.5-67.5,67.5c-4.6,0-9-0.5-13.3-1.3L37,115.4
		z"/>
	<path class="st4" d="M38.8,89.5l10.7-10.7c8.1-8.1,21.1-8.1,29.2,0c8.1,8.1,8.1,21.1,0,29.2L68,118.7c-8.1,8.1-21.1,8.1-29.2,0
		C30.8,110.6,30.8,97.6,38.8,89.5z"/>
	<path class="st4" d="M78.6,49.8L89.3,39c8.1-8.1,21.1-8.1,29.2,0c8.1,8.1,8.1,21.1,0,29.2l-10.7,10.7c-8.1,8.1-21.1,8.1-29.2,0
		C70.5,70.9,70.5,57.8,78.6,49.8z"/>
	<path class="st1" d="M36.8,86.3l10.7-10.7c8.1-8.1,21.1-8.1,29.2,0c8.1,8.1,8.1,21.1,0,29.2L66,115.5c-8.1,8.1-21.1,8.1-29.2,0
		C28.8,107.4,28.8,94.4,36.8,86.3z"/>
	<path class="st2" d="M44.9,93.6l10-10c3.8-3.8,10-3.8,13.8,0c3.8,3.8,3.8,10,0,13.8l-10,10c-3.8,3.8-10,3.8-13.8,0
		C41.1,103.6,41.1,97.4,44.9,93.6z"/>
	<path class="st4" d="M44.9,93.6l10-10c3.8-3.8,10-3.8,13.8,0c0.8,0.8,1.4,1.7,1.9,2.7c-3.8-3.5-9.8-3.4-13.5,0.3l-10,10
		c-3,3-3.6,7.5-1.9,11.2c-0.1-0.1-0.2-0.2-0.4-0.3C41.1,103.6,41.1,97.4,44.9,93.6z"/>
	<path class="st1" d="M76.3,46.8L87.1,36c8.1-8.1,21.1-8.1,29.2,0c8.1,8.1,8.1,21.1,0,29.2l-10.7,10.7c-8.1,8.1-21.1,8.1-29.2,0
		C68.3,67.9,68.3,54.8,76.3,46.8z"/>
	<path class="st2" d="M84.4,54.1l10-10c3.8-3.8,10-3.8,13.8,0c3.8,3.8,3.8,10,0,13.8l-10,10c-3.8,3.8-10,3.8-13.8,0
		C80.6,64.1,80.6,57.9,84.4,54.1z"/>
	<path class="st4" d="M84.4,54.1l10-10c3.8-3.8,10-3.8,13.8,0c0.8,0.8,1.4,1.7,1.9,2.7c-3.8-3.5-9.8-3.4-13.4,0.3l-10,10
		c-3,3-3.6,7.5-1.9,11.2c-0.1-0.1-0.2-0.2-0.4-0.3C80.6,64.1,80.6,57.9,84.4,54.1z"/>
	<path class="st5" d="M57.9,86.7l29.9-29.9c2.1-2.1,5.6-2.1,7.7,0c2.1,2.1,2.1,5.6,0,7.7L65.6,94.4c-2.1,2.1-5.6,2.1-7.7,0
		C55.8,92.2,55.8,88.8,57.9,86.7z"/>
	<path class="st0" d="M87.7,72.2l-7.1,7.1c0.9,0.5,1.8,0.9,2.7,1.3c0,0,0,0,0,0l10.1-10.1c-1.3,0.3-2.7,0.3-4.1,0.1L87.7,72.2z"/>
	<path class="st0" d="M81.4,82.6c-0.2-0.6-0.5-1.1-0.7-1.7c-0.1-0.1-0.1-0.3-0.2-0.4c-0.1-0.2-0.2-0.4-0.4-0.6l-0.2,0.2l0,0
		l-8.5,8.5c0.3,1.4,0.2,2.8-0.1,4.1L81.4,82.6z"/>
</g>
</svg>
