<?xml version="1.0" encoding="utf-8"?>
<!-- Generator: Adobe Illustrator 19.0.1, SVG Export Plug-In . SVG Version: 6.00 Build 0)  -->
<svg version="1.1" id="Layer_1" xmlns="http://www.w3.org/2000/svg" xmlns:xlink="http://www.w3.org/1999/xlink" x="0px" y="0px"
	 viewBox="0 0 154.5 154.3" style="enable-background:new 0 0 154.5 154.3;" xml:space="preserve">
<style type="text/css">
	.st0{fill-rule:evenodd;clip-rule:evenodd;fill:#D9DFE1;}
	.st1{fill-rule:evenodd;clip-rule:evenodd;fill:#FFFFFF;}
	.st2{fill-rule:evenodd;clip-rule:evenodd;fill:#EBEDF1;}
	.st3{fill-rule:evenodd;clip-rule:evenodd;fill:#58A3E8;}
	.st4{fill-rule:evenodd;clip-rule:evenodd;fill:#83CA28;}
	.st5{opacity:5.100000e-002;fill-rule:evenodd;clip-rule:evenodd;}
	.st6{fill-rule:evenodd;clip-rule:evenodd;fill:#FECC0A;}
	.st7{opacity:0.2;fill-rule:evenodd;clip-rule:evenodd;fill:#3E4351;}
	.st8{fill-rule:evenodd;clip-rule:evenodd;fill:#F39A00;}
	.st9{fill-rule:evenodd;clip-rule:evenodd;fill:#FFD054;}
</style>
<g>
	<path class="st0" d="M154.4,83.3c-2.2,41.4-37.6,73.1-78.9,70.9c-17.3-0.9-32.9-7.7-45-18.2c-6,1.9-12.9,2.7-20.2,2.3
		c-3.4-0.2-7.3-0.7-10.3-1.4c7.4-2.3,14.4-7.1,18.8-13.6C9.1,109.9,3.7,93.1,4.6,75.3C6.8,33.9,42.2,2.2,83.5,4.4
		C124.9,6.6,156.6,41.9,154.4,83.3z"/>
	<path class="st1" d="M75.8,150c-17.3,0-33.2-5.9-45.9-15.7c-5.9,2.2-12.7,3.4-20,3.4c-3.4,0-6.7-0.3-9.8-0.8
		c7.3-2.7,13.5-8,17.6-14.7C7.1,109.4,0.8,92.9,0.8,75c0-41.4,33.6-75,75-75c41.4,0,75,33.6,75,75C150.8,116.4,117.2,150,75.8,150z"
		/>
	<path class="st2" d="M143.6,75c0-37.2-30.3-67.5-67.5-67.5C39,7.5,8.6,37.8,8.6,75c0,37.2,30.3,67.5,67.5,67.5
		C113.3,142.5,143.6,112.2,143.6,75z"/>
	<path class="st3" d="M42.3,16.6l18.8,89.6l-35.5,13.6c-10.6-11.9-17-27.6-17-44.8C8.6,50,22.2,28.3,42.3,16.6z"/>
	<path class="st4" d="M13.5,100.2l129.7-32.9c0.3,2.5,0.4,5.1,0.4,7.7c0,37.3-30.2,67.5-67.5,67.5C47.8,142.5,23.5,125,13.5,100.2z"
		/>
	<path class="st5" d="M132.9,111.5l-34.4,12.6l4.2,13c-1.8,0.8-3.7,1.5-5.6,2.1l-7.7-24.1l-39.2,11.5l3.2,11.9c-2.4-0.9-4.8-1.9-7-3
		L35.7,96.6l5.8-1.6l7,25.8l41.5-12.2l3.2-1l3.4,10.7l19.5-7.1L105.5,78l5.7-1.8l10.5,33l15.5-5.7
		C136,106.3,134.6,108.9,132.9,111.5z"/>
	<path class="st5" d="M139.2,51l-42.9,8.4l5.1,22.4L95.5,83L84.4,34l-35.2,7.2l-1.5-6l46.8-9.6L91.8,9.3c2.2,0.5,4.3,1.1,6.4,1.8
		l2.1,13.3l16.5-3.4c2.1,1.6,4.1,3.3,6,5.1l-21.5,4.4l0,0.1l-1.8,0.3l-9.3,1.9l4.7,20.7l41.9-7.9C137.7,47.3,138.5,49.1,139.2,51z"
		/>
	<path class="st6" d="M13.2,99.4l-0.1-0.5l129.5-35.9c0.4,2,0.6,4,0.8,6l-128,35.4C14.6,102.9,13.9,101.2,13.2,99.4z"/>
	<path class="st6" d="M61.1,89.9l-5.9,1.3L38.8,18.7c1.8-1.2,3.6-2.2,5.4-3.2L61.1,89.9z"/>
	<path class="st7" d="M87.5,98.3l-1.3,0.5l-0.6-0.5c-0.6-0.4-13.4-11-9.1-17.9c3.5-5.5,15.9-10,27.7-10c11.7,0,18.5,4.5,15.1,10
		C115,87.3,88.6,97.9,87.5,98.3z"/>
	<path class="st8" d="M86.4,98.5l-1,1.1l-1-1.1c-0.8-1-20.4-24.3-20.4-39.6c0-12.2,9.6-22.2,21.4-22.2c11.7,0,21.3,9.9,21.4,22.2
		C107,74.1,87.3,97.5,86.4,98.5z"/>
	<ellipse class="st9" cx="85.5" cy="58.8" rx="10.1" ry="10.1"/>
	<ellipse class="st1" cx="85.5" cy="58.8" rx="6.4" ry="6.4"/>
</g>
</svg>
