<?xml version="1.0" encoding="utf-8"?>
<!-- Generator: Adobe Illustrator 19.0.1, SVG Export Plug-In . SVG Version: 6.00 Build 0)  -->
<svg version="1.1" id="Layer_1" xmlns="http://www.w3.org/2000/svg" xmlns:xlink="http://www.w3.org/1999/xlink" x="0px" y="0px"
	 viewBox="0 0 154.5 154.3" style="enable-background:new 0 0 154.5 154.3;" xml:space="preserve">
<style type="text/css">
	.st0{fill-rule:evenodd;clip-rule:evenodd;fill:#D9DFE1;}
	.st1{fill-rule:evenodd;clip-rule:evenodd;fill:#FFFFFF;}
	.st2{fill-rule:evenodd;clip-rule:evenodd;fill:#FFD054;}
	.st3{fill-rule:evenodd;clip-rule:evenodd;fill:#E2574C;}
	.st4{fill-rule:evenodd;clip-rule:evenodd;fill:#CB4E44;}
	.st5{fill-rule:evenodd;clip-rule:evenodd;fill:#F1ABA6;}
	.st6{opacity:0.502;fill-rule:evenodd;clip-rule:evenodd;fill:#FFFFFF;}
	.st7{fill-rule:evenodd;clip-rule:evenodd;fill:#324D5B;}
	.st8{fill-rule:evenodd;clip-rule:evenodd;fill:#2C434F;}
	.st9{fill-rule:evenodd;clip-rule:evenodd;fill:#233640;}
	.st10{fill-rule:evenodd;clip-rule:evenodd;fill:#F2F1EF;}
</style>
<g>
	<path class="st0" d="M154.4,83.3c-2.2,41.4-37.6,73.1-78.9,70.9c-17.3-0.9-32.9-7.7-45-18.2c-6,1.9-12.9,2.7-20.2,2.3
		c-3.4-0.2-7.3-0.7-10.3-1.4c7.4-2.3,14.4-7.1,18.8-13.6C9.1,109.9,3.7,93.1,4.6,75.3C6.8,33.9,42.2,2.2,83.5,4.4
		C124.9,6.6,156.6,41.9,154.4,83.3z"/>
	<path class="st1" d="M75.8,150c-17.3,0-33.2-5.9-45.9-15.7c-5.9,2.2-12.7,3.4-20,3.4c-3.4,0-6.7-0.3-9.8-0.8
		c7.3-2.7,13.5-8,17.6-14.7C7.1,109.4,0.8,92.9,0.8,75c0-41.4,33.6-75,75-75c41.4,0,75,33.6,75,75C150.8,116.4,117.2,150,75.8,150z"
		/>
	<path class="st2" d="M143.6,75c0-37.2-30.3-67.5-67.5-67.5C39,7.5,8.6,37.8,8.6,75c0,37.2,30.3,67.5,67.5,67.5
		C113.3,142.5,143.6,112.2,143.6,75z"/>
	<path class="st3" d="M39.8,61.5H111c4.1,0,7.5,3.4,7.5,7.5v58.5c-11.6,9.4-26.3,15-42.4,15c-16.7,0-32.1-6.1-43.9-16.2V69
		C32.3,64.9,35.6,61.5,39.8,61.5z"/>
	<path class="st4" d="M34.5,69v59.2c-0.8-0.6-1.5-1.2-2.2-1.8V69c0-4.1,3.4-7.5,7.5-7.5H42C37.9,61.5,34.5,64.9,34.5,69z"/>
	<path class="st5" d="M45.8,71.2h61.5c1,0,2,0.4,2.7,1.1C110.6,73,111,74,111,75v57.8c-0.5,0.3-1,0.6-1.5,0.9V75
		c0-0.6-0.3-1.2-0.7-1.6c-0.4-0.4-1-0.7-1.6-0.7H45.8c-0.6,0-1.2,0.3-1.6,0.7c-0.4,0.4-0.7,1-0.7,1.6v59.1c-0.5-0.3-1-0.6-1.5-0.9
		V75c0-1,0.4-2,1.1-2.7C43.8,71.7,44.7,71.2,45.8,71.2z"/>
	<path class="st6" d="M54.4,81.7h43.5c0.6,0,1.1,0.5,1.1,1.1v1.5c0,0.6-0.5,1.1-1.1,1.1H54.4c-0.6,0-1.1-0.5-1.1-1.1v-1.5
		C53.3,82.3,53.8,81.7,54.4,81.7z"/>
	<path class="st7" d="M100.5,45H93v16.5h-3.8V45h-27v16.5h-3.7V45H51c-1.9,0-3.6-1.2-3.6-3.1c0-1.9,1.7-3.7,3.6-3.7h49.5
		c1.9,0,3.6,1.8,3.6,3.7C104.1,43.8,102.4,45,100.5,45z"/>
	<path class="st8" d="M103.6,43.5c-0.6,0.9-1.8,1.5-3.1,1.5H51c-1.3,0-2.5-0.6-3.1-1.5H103.6z"/>
	<rect x="58.5" y="45" class="st9" width="3.7" height="4.5"/>
	<rect x="89.3" y="45" class="st9" width="3.8" height="4.5"/>
	<path class="st10" d="M87.5,101.1c-1-1-3.6-0.1-4.9,1.1l-4.7,4.7c-0.5-0.4-12-4.5-12.4-4.1l-1.5,1.5c-0.4,0.4-0.4,1.1,0,1.5
		l8.4,6.6l-3.3,3.3c-0.3,0.3-0.6,0.6-0.9,1.1l-0.1-0.1c-0.2-0.2-3.2-0.6-3.5-0.4l-0.8,0.8c-0.2,0.2-0.2,0.6,0,0.8
		c0,0,0.1,0.1,0.4,0.4c0.4,0.4,1.2,1.2,2,2c-0.4,1-0.6,1.9-0.2,2.3c0.4,0.4,1.3,0.2,2.3-0.2c0.8,0.8,1.6,1.6,2,2
		c0.3,0.3,0.4,0.4,0.4,0.4c0.2,0.2,0.6,0.2,0.8,0l0.8-0.8c0.2-0.2-0.2-3.2-0.4-3.4l-0.1-0.1c0.5-0.3,0.8-0.6,1.1-0.9l3.3-3.3
		l6.6,8.4c0.4,0.4,1.1,0.4,1.5,0l1.5-1.5c0.4-0.4-3.7-11.9-4.1-12.4l4.7-4.7C87.6,104.7,88.5,102.1,87.5,101.1z"/>
</g>
</svg>
