<?xml version="1.0" encoding="utf-8"?>
<!-- Generator: Adobe Illustrator 19.0.1, SVG Export Plug-In . SVG Version: 6.00 Build 0)  -->
<svg version="1.1" id="Layer_1" xmlns="http://www.w3.org/2000/svg" xmlns:xlink="http://www.w3.org/1999/xlink" x="0px" y="0px"
	 viewBox="0 0 154.5 154.3" style="enable-background:new 0 0 154.5 154.3;" xml:space="preserve">
<style type="text/css">
	.st0{fill-rule:evenodd;clip-rule:evenodd;fill:#D9DFE1;}
	.st1{fill-rule:evenodd;clip-rule:evenodd;fill:#FFFFFF;}
	.st2{fill-rule:evenodd;clip-rule:evenodd;fill:#83CA28;}
	.st3{fill-rule:evenodd;clip-rule:evenodd;fill:#EDF1F2;}
	.st4{opacity:0.902;fill-rule:evenodd;clip-rule:evenodd;fill:#284259;}
</style>
<g>
	<path class="st0" d="M154.4,83.3c-2.2,41.4-37.6,73.1-78.9,70.9c-17.3-0.9-32.9-7.7-45-18.2c-6,1.9-12.9,2.7-20.2,2.3
		c-3.4-0.2-7.3-0.7-10.3-1.4c7.4-2.3,14.4-7.1,18.8-13.6C9.1,109.9,3.7,93.1,4.6,75.3C6.8,33.9,42.2,2.2,83.5,4.4
		C124.9,6.6,156.6,41.9,154.4,83.3z"/>
	<path class="st1" d="M75.8,150c-17.3,0-33.2-5.9-45.9-15.7c-5.9,2.2-12.7,3.4-20,3.4c-3.4,0-6.7-0.3-9.8-0.8
		c7.3-2.7,13.5-8,17.6-14.7C7.1,109.4,0.8,92.9,0.8,75c0-41.4,33.6-75,75-75c41.4,0,75,33.6,75,75C150.8,116.4,117.2,150,75.8,150z"
		/>
	<path class="st2" d="M143.6,75c0-37.2-30.3-67.5-67.5-67.5C39,7.5,8.6,37.8,8.6,75c0,37.2,30.3,67.5,67.5,67.5
		C113.3,142.5,143.6,112.2,143.6,75z"/>
	<path class="st3" d="M32.9,23.2v89.1l5.4-4l5.4,4l5.4-4l5.4,4l5.4-4l5.4,4l5.4-4l5.4,4l5.4-4l5.4,4l5.4-4l5.4,4l5.4-4l5.4,4l5.4-4
		l5.4,4V23.1C107.6,13.4,92.6,7.5,76.1,7.5c-0.5,0-0.9,0-1.4,0C58.9,7.9,44.3,13.7,32.9,23.2z"/>
	<path class="st4" d="M103.1,21.2v-8.1c0.9,0.4,1.8,0.8,2.7,1.3v6.8H103.1L103.1,21.2z M100.4,12v9.2h-2.7V11
		C98.6,11.3,99.5,11.7,100.4,12L100.4,12z M95,10.2v11h-2.7V9.5C93.2,9.7,94.1,9.9,95,10.2L95,10.2z M89.6,8.9v12.4h-2.7V8.4
		C87.8,8.5,88.7,8.7,89.6,8.9L89.6,8.9z M84.2,8v13.2h-5.4V7.6C80.7,7.6,82.5,7.8,84.2,8L84.2,8z M76.1,7.5v13.7h-2.7V7.6
		c0.5,0,1.1,0,1.6-0.1l0,0C75.5,7.5,75.8,7.5,76.1,7.5L76.1,7.5z M70.7,7.7v13.5h-4v-13C68,8,69.4,7.9,70.7,7.7L70.7,7.7z M64,8.6
		v12.6h-2.7v-12C62.2,9,63.1,8.8,64,8.6L64,8.6z M58.6,9.9v11.3h-5.4v-9.6C54.9,10.9,56.8,10.4,58.6,9.9L58.6,9.9z M50.5,12.6v8.6
		h-4v-6.8C47.8,13.8,49.1,13.2,50.5,12.6z"/>
	<path class="st2" d="M103.1,88.9c0-0.2-0.3-0.3-0.5-0.4L98.6,88l-1.8-3.7c-0.1-0.2-0.2-0.3-0.4-0.3c-0.2,0-0.3,0.2-0.4,0.3L94.2,88
		l-4.1,0.6c-0.2,0-0.5,0.1-0.5,0.4c0,0.1,0.1,0.3,0.2,0.4l3,2.8l-0.7,4c0,0.1,0,0.1,0,0.2c0,0.2,0.1,0.4,0.3,0.4
		c0.1,0,0.2,0,0.3-0.1l3.6-1.9l3.6,1.9c0.1,0.1,0.2,0.1,0.3,0.1c0.2,0,0.3-0.2,0.3-0.4c0-0.1,0-0.1,0-0.2l-0.7-4l2.9-2.8
		C103,89.2,103.1,89.1,103.1,88.9z"/>
	<rect x="46.4" y="71" class="st0" width="59.4" height="2.7"/>
	<path class="st0" d="M100.4,58.9v-5.4h5.4v5.4H100.4L100.4,58.9z M100.4,42.7h5.4v5.4h-5.4V42.7L100.4,42.7z M100.4,32h5.4v5.4
		h-5.4V32L100.4,32z M46.4,32H95v5.4H46.4V32L46.4,32z M84.2,48.1H46.4v-5.4h37.8V48.1L84.2,48.1z M92.3,58.9H46.4v-5.4h45.9V58.9z"
		/>
</g>
</svg>
