<?xml version="1.0" encoding="utf-8"?>
<!-- Generator: Adobe Illustrator 19.0.1, SVG Export Plug-In . SVG Version: 6.00 Build 0)  -->
<svg version="1.1" id="Layer_1" xmlns="http://www.w3.org/2000/svg" xmlns:xlink="http://www.w3.org/1999/xlink" x="0px" y="0px"
	 viewBox="0 0 154.5 154.3" style="enable-background:new 0 0 154.5 154.3;" xml:space="preserve">
<style type="text/css">
	.st0{fill-rule:evenodd;clip-rule:evenodd;fill:#D9DFE1;}
	.st1{fill-rule:evenodd;clip-rule:evenodd;fill:#FFFFFF;}
	.st2{fill-rule:evenodd;clip-rule:evenodd;fill:#284259;}
	.st3{fill-rule:evenodd;clip-rule:evenodd;fill:#FFD054;}
	.st4{fill-rule:evenodd;clip-rule:evenodd;fill:#F4C343;}
	.st5{fill-rule:evenodd;clip-rule:evenodd;fill:#6CAE17;}
	.st6{fill-rule:evenodd;clip-rule:evenodd;fill:#83CA28;}
</style>
<path class="st0" d="M154.4,83.3c-2.2,41.4-37.6,73.1-78.9,70.9c-17.3-0.9-32.9-7.7-45-18.2c-6,1.9-12.9,2.7-20.2,2.3
	c-3.4-0.2-7.3-0.7-10.3-1.4c7.4-2.3,14.4-7.1,18.8-13.6C9.1,109.9,3.7,93.1,4.6,75.3C6.8,33.9,42.2,2.2,83.5,4.4
	C124.9,6.6,156.6,41.9,154.4,83.3z"/>
<path class="st1" d="M75.8,150c-17.3,0-33.2-5.9-45.9-15.7c-5.9,2.2-12.7,3.4-20,3.4c-3.4,0-6.7-0.3-9.8-0.8
	c7.3-2.7,13.5-8,17.6-14.7C7.1,109.4,0.8,92.9,0.8,75c0-41.4,33.6-75,75-75c41.4,0,75,33.6,75,75C150.8,116.4,117.2,150,75.8,150z"
	/>
<path class="st2" d="M143.6,75c0-37.2-30.3-67.5-67.5-67.5C39,7.5,8.6,37.8,8.6,75c0,37.2,30.3,67.5,67.5,67.5
	C113.3,142.5,143.6,112.2,143.6,75z"/>
<path class="st3" d="M103,100l-0.2,12.8c0,0.9,0.6,1.9,1.4,2.4l11.2,6.2c0.8,0.4,1.4,0.1,1.4-0.8l0.2-12.8c0-0.9-0.6-1.9-1.4-2.4
	l-11.2-6.2C103.6,98.7,103,99.1,103,100z"/>
<path class="st3" d="M89.7,48h15c18.4,0,33.4,14.9,33.4,33.4v0.8c0,18.4-14.9,33.4-33.4,33.4h-15c-18.4,0-33.4-14.9-33.4-33.4v-0.8
	C56.3,62.9,71.2,48,89.7,48z"/>
<path class="st4" d="M117.9,50.7c0.9,3.2,1.4,6.5,1.4,10v6c0,20.7-16.8,37.5-37.5,37.5H64.7c-5.2-5.9-8.4-13.6-8.4-22.1v-0.8
	C56.3,62.9,71.2,48,89.7,48h15C109.4,48,113.9,49,117.9,50.7z"/>
<path class="st5" d="M45.5,81l0.3,14.9c0,1-0.7,2.3-1.6,2.8l-13,7.2c-0.9,0.5-1.6,0.1-1.7-1l-0.3-14.9c0-1,0.7-2.3,1.6-2.8l13-7.2
	C44.8,79.6,45.5,80,45.5,81z"/>
<path class="st5" d="M54,21.8h22.5c20.7,0,37.5,16.8,37.5,37.5v6c0,20.7-16.8,37.5-37.5,37.5H54c-20.7,0-37.5-16.8-37.5-37.5v-6
	C16.5,38.5,33.3,21.8,54,21.8z"/>
<path class="st6" d="M102,31.7c4.3,6.1,6.8,13.5,6.8,21.5v6c0,20.7-16.8,37.5-37.5,37.5H48.8c-9.8,0-18.8-3.8-25.4-10
	c-4.3-6.1-6.8-13.5-6.8-21.5v-6c0-20.7,16.8-37.5,37.5-37.5h22.5C86.4,21.8,95.3,25.5,102,31.7z"/>
<path class="st1" d="M81.8,65.2c-2.5,0-4.5-2-4.5-4.5c0-2.5,2-4.5,4.5-4.5c2.5,0,4.5,2,4.5,4.5C86.3,63.2,84.3,65.2,81.8,65.2
	L81.8,65.2z M65.3,65.2c-2.5,0-4.5-2-4.5-4.5c0-2.5,2-4.5,4.5-4.5c2.5,0,4.5,2,4.5,4.5C69.8,63.2,67.8,65.2,65.3,65.2L65.3,65.2z
	 M48.8,65.2c-2.5,0-4.5-2-4.5-4.5c0-2.5,2-4.5,4.5-4.5c2.5,0,4.5,2,4.5,4.5C53.3,63.2,51.3,65.2,48.8,65.2z"/>
</svg>
