<?xml version="1.0" encoding="utf-8"?>
<!-- Generator: Adobe Illustrator 19.0.1, SVG Export Plug-In . SVG Version: 6.00 Build 0)  -->
<svg version="1.1" id="Layer_1" xmlns="http://www.w3.org/2000/svg" xmlns:xlink="http://www.w3.org/1999/xlink" x="0px" y="0px"
	 viewBox="0 0 154.5 154.3" style="enable-background:new 0 0 154.5 154.3;" xml:space="preserve">
<style type="text/css">
	.st0{fill-rule:evenodd;clip-rule:evenodd;fill:#D9DFE1;}
	.st1{fill-rule:evenodd;clip-rule:evenodd;fill:#FFFFFF;}
	.st2{fill-rule:evenodd;clip-rule:evenodd;fill:#284259;}
	.st3{fill-rule:evenodd;clip-rule:evenodd;fill:#5F7386;}
	.st4{fill-rule:evenodd;clip-rule:evenodd;fill:#FFCB42;}
	.st5{fill-rule:evenodd;clip-rule:evenodd;fill:#F39A00;}
</style>
<g>
	<path class="st0" d="M154.4,83.3c-2.2,41.4-37.6,73.1-78.9,70.9c-17.3-0.9-32.9-7.7-45-18.2c-6,1.9-12.9,2.7-20.2,2.3
		c-3.4-0.2-7.3-0.7-10.3-1.4c7.4-2.3,14.4-7.1,18.8-13.6C9.1,109.9,3.7,93.1,4.6,75.3C6.8,33.9,42.2,2.2,83.5,4.4
		C124.9,6.6,156.6,41.9,154.4,83.3z"/>
	<path class="st1" d="M75.8,150c-17.3,0-33.2-5.9-45.9-15.7c-5.9,2.2-12.7,3.4-20,3.4c-3.4,0-6.7-0.3-9.8-0.8
		c7.3-2.7,13.5-8,17.6-14.7C7.1,109.4,0.8,92.9,0.8,75c0-41.4,33.6-75,75-75c41.4,0,75,33.6,75,75C150.8,116.4,117.2,150,75.8,150z"
		/>
	<path class="st2" d="M143.6,75c0-37.2-30.3-67.5-67.5-67.5S8.6,37.8,8.6,75s30.3,67.5,67.5,67.5S143.6,112.2,143.6,75z"/>
	<path class="st3" d="M110.1,77.7c0,2.6-0.2,5.2-0.5,7.5c-0.4,2.4-0.9,4.6-1.6,6.4c-0.7,1.9-1.5,3.4-2.4,4.4v0
		c-1,1.1-2.1,1.7-3.2,1.7c-1.2,0-2.3-0.6-3.2-1.7l0,0c-0.9-1-1.8-2.6-2.4-4.4c-0.7-1.8-1.2-4-1.6-6.4c-0.3-2.1-0.5-4.4-0.5-6.8h0
		v-0.7c0-2.4-0.2-4.7-0.5-6.8c-0.3-2.2-0.8-4.1-1.4-5.7c-0.6-1.6-1.3-2.8-2-3.7c-0.6-0.7-1.3-1.1-2-1.1c-0.7,0-1.4,0.4-2,1.1v0
		c-0.7,0.8-1.4,2.1-2,3.7c-0.6,1.6-1.1,3.5-1.4,5.7c-0.3,2.1-0.5,4.4-0.5,6.8c0,2.6-0.2,5.2-0.5,7.5c-0.4,2.4-0.9,4.6-1.6,6.4
		c-0.7,1.9-1.5,3.4-2.4,4.4c-1,1.1-2.1,1.7-3.2,1.7c-1.2,0-2.3-0.6-3.2-1.7c-0.9-1-1.8-2.6-2.4-4.4c-0.7-1.8-1.2-4-1.6-6.4
		c-0.3-2.1-0.5-4.4-0.5-6.8h0v-0.7c0-2.4-0.2-4.7-0.5-6.8c-0.3-2.2-0.8-4.1-1.4-5.7c-0.6-1.6-1.3-2.8-2-3.7c-0.6-0.7-1.3-1.1-2-1.1
		c-0.7,0-1.4,0.4-2,1.1c-0.7,0.8-1.4,2.1-2,3.7c-0.6,1.6-1.1,3.5-1.4,5.7c-0.3,2.1-0.5,4.4-0.5,6.8c0,2.6-0.2,5.2-0.5,7.5
		c-0.4,2.4-0.9,4.6-1.6,6.4c-0.7,1.9-1.5,3.4-2.4,4.4c-1,1.1-2.1,1.7-3.2,1.7c-1.2,0-2.3-0.6-3.2-1.7l0,0c-0.9-1-1.8-2.6-2.4-4.4
		c-0.7-1.8-1.2-4-1.6-6.4c-0.3-2.1-0.5-4.4-0.5-6.8h0v-0.7c0-2.4-0.2-4.7-0.5-6.8c-0.3-2.2-0.8-4.1-1.4-5.7c-0.6-1.6-1.3-2.8-2-3.7
		c-0.6-0.7-1.3-1.1-2-1.1s-1.4,0.4-2,1.1c-0.7,0.8-1.4,2.1-2,3.7c-0.6,1.6-1.1,3.5-1.4,5.7c-0.3,2.1-0.5,4.4-0.5,6.8
		c0,2.6-0.2,5.2-0.5,7.5c-0.4,2.4-0.9,4.6-1.6,6.4c-0.7,1.9-1.5,3.4-2.4,4.4c-1,1.1-2.1,1.7-3.2,1.7c-1.2,0-2.3-0.6-3.2-1.7v0
		c-0.9-1-1.8-2.6-2.4-4.4c-0.7-1.8-1.2-4-1.6-6.4c-0.3-2.1-0.5-4.4-0.5-6.8h0v-0.7c0-2.4-0.2-4.7-0.5-6.8c-0.3-2.2-0.8-4.1-1.4-5.7
		c-0.2-0.7-0.5-1.3-0.8-1.8c0.2-1.1,0.4-2.2,0.6-3.2c0.7,1,1.3,2.2,1.8,3.6c0.7,1.8,1.2,4,1.6,6.4c0.3,2.1,0.5,4.4,0.5,6.8h0v0.7
		c0,2.4,0.2,4.7,0.5,6.8c0.3,2.2,0.8,4.1,1.4,5.7c0.6,1.6,1.3,2.8,2,3.7c0.6,0.7,1.3,1.1,2,1.1c0.7,0,1.4-0.4,2-1.1
		c0.7-0.8,1.4-2.1,2-3.7c0.6-1.6,1.1-3.5,1.4-5.7c0.3-2.1,0.5-4.4,0.5-6.8c0-2.6,0.2-5.2,0.5-7.5c0.4-2.4,0.9-4.6,1.6-6.4
		c0.7-1.9,1.5-3.4,2.4-4.4c1-1.1,2.1-1.7,3.2-1.7c1.2,0,2.3,0.6,3.2,1.7c0.9,1,1.8,2.6,2.4,4.4c0.7,1.8,1.2,4,1.6,6.4
		c0.3,2.1,0.5,4.4,0.5,6.8h0v0.7c0,2.4,0.2,4.7,0.5,6.8c0.3,2.2,0.8,4.1,1.4,5.7c0.6,1.6,1.3,2.8,2,3.7c0.6,0.7,1.3,1.1,2,1.1
		c0.7,0,1.4-0.4,2-1.1v0c0.7-0.8,1.4-2.1,2-3.7c0.6-1.6,1.1-3.5,1.4-5.7c0.3-2.1,0.5-4.4,0.5-6.8c0-2.6,0.2-5.2,0.5-7.5
		c0.4-2.4,0.9-4.6,1.6-6.4c0.7-1.9,1.5-3.4,2.4-4.4c1-1.1,2.1-1.7,3.2-1.7c1.2,0,2.3,0.6,3.2,1.7c0.9,1,1.8,2.6,2.4,4.4
		c0.7,1.8,1.2,4,1.6,6.4c0.3,2.1,0.5,4.4,0.5,6.8h0v0.7c0,2.4,0.2,4.7,0.5,6.8c0.3,2.2,0.8,4.1,1.4,5.7c0.6,1.6,1.3,2.8,2,3.7
		c0.6,0.7,1.3,1.1,2,1.1c0.7,0,1.4-0.4,2-1.1v0c0.7-0.8,1.4-2.1,2-3.7c0.6-1.6,1.1-3.5,1.4-5.7c0.3-2.1,0.5-4.4,0.5-6.8
		c0-2.6,0.2-5.2,0.5-7.5c0.4-2.4,0.9-4.6,1.6-6.4c0.7-1.9,1.5-3.4,2.4-4.4c1-1.1,2.1-1.7,3.2-1.7c1.2,0,2.3,0.6,3.2,1.7l0,0
		c0.9,1,1.8,2.6,2.4,4.4c0.7,1.8,1.2,4,1.6,6.4c0.3,2.1,0.5,4.4,0.5,6.8h0v0.7c0,2.4,0.2,4.7,0.5,6.8c0.3,2.2,0.8,4.1,1.4,5.7
		c0.6,1.6,1.3,2.8,2,3.7v0c0.6,0.7,1.3,1.1,2,1.1c0.7,0,1.4-0.4,2-1.1c0.7-0.8,1.4-2.1,2-3.7c0.6-1.6,1.1-3.5,1.4-5.7
		c0.3-2.1,0.5-4.4,0.5-6.8c0-2.6,0.2-5.2,0.5-7.5c0.4-2.4,0.9-4.6,1.6-6.4c0.7-1.9,1.5-3.4,2.4-4.4c1-1.1,2.1-1.7,3.2-1.7
		c1.2,0,2.3,0.6,3.2,1.7c0.9,1,1.8,2.6,2.4,4.4c0.7,1.8,1.2,4,1.6,6.4c0.3,2.1,0.5,4.4,0.5,6.8h0v0.7c0,2.4,0.2,4.7,0.5,6.8
		c0.3,2.2,0.8,4.1,1.4,5.7c0.6,1.6,1.3,2.8,2,3.7c0.6,0.7,1.3,1.1,2,1.1c0.7,0,1.4-0.4,2-1.1c0.7-0.8,1.4-2.1,2-3.7
		c0.6-1.6,1.1-3.5,1.4-5.7c0.3-2.1,0.5-4.4,0.5-6.8c0-2.6,0.2-5.2,0.5-7.5c0.4-2.4,0.9-4.6,1.6-6.4c0.7-1.9,1.5-3.4,2.4-4.4v0
		c0.4-0.5,0.9-0.9,1.3-1.1c0.2,0.9,0.4,1.8,0.6,2.6c-0.2,0.2-0.5,0.4-0.7,0.7c-0.7,0.8-1.4,2.1-2,3.7c-0.6,1.6-1.1,3.5-1.4,5.7
		c-0.3,2.1-0.5,4.4-0.5,6.8c0,2.6-0.2,5.2-0.5,7.5c-0.4,2.4-0.9,4.6-1.6,6.4c-0.7,1.9-1.5,3.4-2.4,4.4c-1,1.1-2.1,1.7-3.2,1.7
		c-1.2,0-2.3-0.6-3.2-1.7v0c-0.9-1-1.8-2.6-2.4-4.4c-0.7-1.8-1.2-4-1.6-6.4c-0.3-2.1-0.5-4.4-0.5-6.8h0v-0.7c0-2.4-0.2-4.7-0.5-6.8
		c-0.3-2.2-0.8-4.1-1.4-5.7c-0.6-1.6-1.3-2.8-2-3.7c-0.6-0.7-1.3-1.1-2-1.1c-0.7,0-1.4,0.4-2,1.1c-0.7,0.8-1.4,2.1-2,3.7
		c-0.6,1.6-1.1,3.5-1.4,5.7C110.3,73,110.1,75.3,110.1,77.7z"/>
	<path class="st4" d="M106.8,48.8c0-1.3-1.1-2.4-2.4-2.4c-18.4,0-27.2-7.2-27.2-7.3c-0.9-0.8-2.2-0.8-3.2,0
		c-0.1,0.1-8.9,7.3-27.3,7.3c-1.3,0-2.4,1.1-2.4,2.4c-0.1,2.2-1.3,55.1,30.5,66.4c0.3,0.1,0.5,0.1,0.8,0.1c0.3,0,0.6,0,0.8-0.1
		C108.2,103.9,106.9,51,106.8,48.8z"/>
	<path class="st5" d="M75.4,38.6v76.8c0.1,0,0.1,0,0.2,0c0.3,0,0.6,0,0.8-0.1c31.8-11.3,30.5-64.2,30.5-66.4c0-1.3-1.1-2.4-2.4-2.4
		c-18.4,0-27.2-7.2-27.2-7.3C76.6,38.7,76,38.5,75.4,38.6z"/>
	<polygon class="st1" points="80,69.4 82.7,77.9 75.6,72.6 68.4,77.9 71.1,69.4 64,64.1 72.8,64.1 75.6,55.7 78.3,64.1 87.1,64.1 	
		"/>
</g>
</svg>
