<?xml version="1.0" encoding="utf-8"?>
<!-- Generator: Adobe Illustrator 19.0.1, SVG Export Plug-In . SVG Version: 6.00 Build 0)  -->
<svg version="1.1" id="_x30_1" xmlns="http://www.w3.org/2000/svg" xmlns:xlink="http://www.w3.org/1999/xlink" x="0px" y="0px"
	 viewBox="0 0 206 206" style="enable-background:new 0 0 206 206;" xml:space="preserve">
<style type="text/css">
	.st0{fill:#D9DFE1;}
	.st1{fill:#FFFFFF;}
	.st2{fill-rule:evenodd;clip-rule:evenodd;fill:#559EE3;}
	.st3{fill:#559EE3;}
	.st4{fill:#4595E0;}
	.st5{fill:#69B0F2;}
	.st6{fill-rule:evenodd;clip-rule:evenodd;fill:#FFFFFF;}
</style>
<g id="Ellipse_18_copy_9_2_">
	<path class="st0" d="M111.4,5.9C56.2,2.9,9.1,45.3,6.2,100.5c-1.3,23.9,5.9,46.3,18.9,64.2c-5.9,8.7-14.5,15.2-24.4,18.3
		c4.1,0.9,8.5,1.5,13,1.7c9.7,0.5,18.9-0.6,26.9-3.1c16.2,14,37,23,60,24.3c55.1,3,102.2-39.4,105.2-94.6
		C208.8,56,166.5,8.8,111.4,5.9z"/>
</g>
<g id="Ellipse_18_copy_4_2_">
	<path class="st1" d="M101,0C45.8,0,1,44.8,1,100.1c0,23.9,8.4,45.9,22.4,63.1c-5.5,9-13.7,15.9-23.4,19.6c4.2,0.7,8.6,1,13.1,1
		c9.7,0,18.9-1.7,26.7-4.6c16.9,13.2,38.2,21,61.2,21c55.2,0,100-44.8,100-100.1S156.3,0,101,0z"/>
</g>
<g id="Ellipse_60_2_">
	<g>
		<ellipse class="st2" cx="101" cy="100.1" rx="90" ry="90.1"/>
	</g>
</g>
<g>
	<g>
		<path class="st3" d="M136.4,147c-0.7,0.1-1.4,0.1-2,0.1c-9,0-16.4-7.2-16.4-16.1s7.3-16.1,16.4-16.1c0.9,0,1.9,0.1,2.8,0.2
			c2.2-3.9,6.4-6.6,11.3-6.6c1,0,2,0.1,3,0.4c1.9-1,4.1-1.7,6.3-1.9c2.6-2.9,6.5-4.8,10.8-4.8c7.6,0,13.8,5.7,14.4,13
			c0.8-0.2,1.6-0.3,2.5-0.3c1.5,0,3,0.4,4.3,1c0.9-5.1,1.4-10.4,1.4-15.7c0-49.7-40.3-90-90-90c-28.9,0-54.6,13.6-71.1,34.8
			c3.2-2.4,7.1-3.8,11.3-3.8c9.9,0,18.1,7.7,18.9,17.4c1-0.3,2.1-0.4,3.2-0.4c7,0,12.6,5.7,12.6,12.7c0,3.1-1.1,5.9-3,8.2
			c0.8,1.9,1.2,3.9,1.2,6.1c0,8.9-7.2,16.1-16.1,16.1v0H11c0.5,49.2,40.6,89,90,89c32.5,0,60.9-17.2,76.8-43h-41.4V147z"/>
		<path class="st4" d="M30,47.3c12.6,0,23,9.7,24.1,22.1c1.3-0.3,2.7-0.6,4.1-0.6c6.7,0,12.5,4.2,14.9,10.1c1.8-2.2,3-5,3-8.2
			c0-7-5.7-12.7-12.6-12.7c-1.1,0-2.2,0.2-3.2,0.4c-0.8-9.8-9-17.4-18.9-17.4c-4.2,0-8.1,1.4-11.3,3.8c-0.6,0.8-1.3,1.7-1.9,2.5
			C28.7,47.4,29.4,47.3,30,47.3z"/>
		<path class="st5" d="M58.2,101.1c8.9,0,16.1-7.2,16.1-16.1c0-2.1-0.4-4.2-1.2-6.1c-2.4-5.9-8.2-10.1-14.9-10.1
			c-1.4,0-2.8,0.2-4.1,0.6C53,57,42.6,47.3,30,47.3c-0.6,0-1.3,0-1.9,0.1C17.4,62.2,11,80.4,11,100.1c0,0.3,0,0.7,0,1L58.2,101.1
			L58.2,101.1z"/>
		<path class="st4" d="M137.2,115.1c2.2,0.4,4.2,1.2,6,2.3c1.7-3.7,4.6-6.7,8.2-8.6c-1-0.2-2-0.4-3-0.4
			C143.6,108.5,139.3,111.2,137.2,115.1z"/>
		<path class="st4" d="M182.9,115.2c-0.6-7.3-6.8-13-14.4-13c-4.3,0-8.1,1.8-10.8,4.8c0.7-0.1,1.4-0.1,2.2-0.1
			c9.6,0,17.5,7.3,18.3,16.6c1-0.3,2.1-0.4,3.1-0.4c2.3,0,4.4,0.6,6.2,1.7c0.8-2.9,1.5-5.8,2-8.8c-1.3-0.6-2.7-1-4.3-1
			C184.5,114.9,183.7,115,182.9,115.2z"/>
		<path class="st5" d="M181.4,122.9c-1.1,0-2.1,0.2-3.1,0.4c-0.8-9.3-8.7-16.6-18.3-16.6c-0.7,0-1.5,0.1-2.2,0.1
			c-2.3,0.3-4.4,0.9-6.3,1.9c-3.6,1.9-6.5,4.9-8.2,8.6c-1.8-1.1-3.8-1.9-6-2.3c-0.9-0.2-1.8-0.2-2.8-0.2c-9,0-16.4,7.2-16.4,16.1
			s7.3,16.1,16.4,16.1c0.7,0,1.4-0.1,2-0.1v0.1h41.4c4.3-6.9,7.6-14.5,9.9-22.5C185.8,123.5,183.7,122.9,181.4,122.9z"/>
	</g>
	<g id="Ellipse_91">
		<g>
			<path class="st1" d="M101,44.1c-29.3,0-53,23.7-53,53c0,29.3,23.7,53,53,53s53-23.7,53-53C154,67.9,130.3,44.1,101,44.1z
				 M101,146.1c-27.1,0-49-21.9-49-49s21.9-49,49-49s49,21.9,49,49S128.1,146.1,101,146.1z"/>
		</g>
	</g>
	<g id="Ellipse_92">
		<g>
			<path class="st1" d="M101,57.1c-22.1,0-40,17.9-40,40s17.9,40,40,40s40-17.9,40-40S123.1,57.1,101,57.1z M101,133.1
				c-19.9,0-36-16.1-36-36s16.1-36,36-36s36,16.1,36,36S120.9,133.1,101,133.1z"/>
		</g>
	</g>
	<g id="Ellipse_93">
		<g>
			<path class="st1" d="M101,71.1c-13.8,0-25,11.2-25,25s11.2,25,25,25s25-11.2,25-25S114.8,71.1,101,71.1z M101,117.1
				c-11.6,0-21-9.4-21-21c0-11.6,9.4-21,21-21s21,9.4,21,21C122,107.7,112.6,117.1,101,117.1z"/>
		</g>
	</g>
	<g id="Rectangle_118">
		<g>
			<rect x="95" y="102.1" class="st2" width="12" height="49"/>
		</g>
	</g>
	<g id="Ellipse_94">
		<g>
			<circle class="st6" cx="101" cy="95.1" r="10"/>
		</g>
	</g>
	<g id="Rectangle_118_copy">
		<g>
			<rect x="99" y="101.1" class="st6" width="4" height="89"/>
		</g>
	</g>
</g>
</svg>
