<?xml version="1.0" encoding="utf-8"?>
<!-- Generator: Adobe Illustrator 21.1.0, SVG Export Plug-In . SVG Version: 6.00 Build 0)  -->
<svg version="1.1" id="Layer_1" xmlns="http://www.w3.org/2000/svg" xmlns:xlink="http://www.w3.org/1999/xlink" x="0px" y="0px"
	 viewBox="0 0 200 200" style="enable-background:new 0 0 200 200;" xml:space="preserve">
<style type="text/css">
	.st0{fill:#EBEBEB;}
	.st1{fill:#F8B947;}
	.st2{fill:#FFFFFF;}
	.st3{fill:#333333;}
</style>
<g>
	<ellipse class="st0" cx="100.3" cy="100" rx="98" ry="98.1"/>
	<ellipse class="st1" cx="94.8" cy="95.6" rx="93.2" ry="93.2"/>
</g>
<g>
	<path class="st2" d="M59.6,75.6c-6.7,0-12.2-5.5-12.2-12.2s5.5-12.2,12.2-12.2s12.2,5.5,12.2,12.2S66.3,75.6,59.6,75.6L59.6,75.6z"
		/>
	<path class="st2" d="M130.2,75.6c-6.7,0-12.2-5.5-12.2-12.2s5.5-12.2,12.2-12.2s12.2,5.5,12.2,12.2S136.9,75.6,130.2,75.6
		L130.2,75.6z"/>
	<path class="st3" d="M120.5,118.1l-8.6-1.5l-6.6-5c3.5-2.6,6.2-6.1,7.7-10.2c3.7-0.1,6.7-3.5,6.7-7.6c0-2.2-0.9-4.2-2.3-5.6v-2
		c0-12.6-10.2-22.8-22.8-22.8S71.8,73.7,71.8,86.3v2.9c-0.9,1.3-1.5,2.9-1.5,4.7c0,3.8,2.6,7,5.9,7.5c1.5,4.1,4.1,7.6,7.6,10.2
		l-6.5,5.1l-8.5,1.5c-6.2,1.1-11.2,6-12.4,12.1l-3.1,15.4H136l-3.1-15.4C131.7,124.1,126.7,119.2,120.5,118.1L120.5,118.1z
		 M94.7,142.6h-0.3l-7.2-28.9c0.4,0.2,0.8,0.4,1.2,0.5c2,0.8,4.1,1.2,6.2,1.2s4.2-0.4,6.2-1.2c0.4-0.2,0.8-0.4,1.2-0.5L94.7,142.6z
		 M113.9,98.2c0.3-1.4,0.5-2.9,0.5-4.4v-4.1c1.3,0.7,2.3,2.3,2.3,4.2C116.7,95.9,115.5,97.7,113.9,98.2L113.9,98.2z M94.6,66.5
		c10.9,0,19.8,8.9,19.8,19.8h-1.5c-6.2,0-9.3-3.8-9.5-4l-0.7-0.9l-1.1,0.4c-0.1,0-11,4.5-25.3,4.5h-1.5
		C74.8,75.3,83.7,66.5,94.6,66.5L94.6,66.5z M73.3,93.9c0-1.5,0.6-2.8,1.5-3.6v3.6c0,1.3,0.1,2.7,0.4,4C74.1,97,73.3,95.5,73.3,93.9
		L73.3,93.9z M77.9,93.8v-4.5c11.8-0.2,21-3.2,23.9-4.3c1.4,1.3,4.6,3.8,9.5,4.2v4.6c0,7.7-4.6,14.6-11.7,17.6
		c-3.2,1.3-6.8,1.3-10,0C82.5,108.5,77.9,101.5,77.9,93.8L77.9,93.8z M56.9,142.6l2.3-11.7c1-4.9,5-8.9,10-9.7l6.6-1.1l-1.5,5.3
		l3.8,1.2l-3.7,3.7l9.3,12.3L56.9,142.6L56.9,142.6z M78.3,130.5l5.4-5.4l-5.8-1.8l1.2-4.3l5.2-4.1l6.9,27.7h-3.9L78.3,130.5z
		 M97.9,142.6l6.9-27.5l5.3,4l1.2,4.3l-5.8,1.8l5.4,5.4l-9.1,12H97.9z M105.6,142.6l9.3-12.3l-3.7-3.7l3.8-1.2l-1.5-5.3l6.6,1.1
		c5,0.9,9,4.8,10,9.7l2.3,11.7H105.6z"/>
	<rect x="128.1" y="84.7" class="st3" width="3" height="27.4"/>
	<rect x="128.1" y="115.2" class="st3" width="3" height="3"/>
	<rect x="134.2" y="84.7" class="st3" width="3" height="19.8"/>
	<rect x="134.2" y="107.6" class="st3" width="3" height="6.1"/>
	<rect x="122" y="84.7" class="st3" width="3" height="15.2"/>
	<rect x="122" y="103" class="st3" width="3" height="4.6"/>
	<path class="st3" d="M61.1,68h-3c-0.8,0-1.5-0.7-1.5-1.5h-3c0,2.5,2,4.6,4.6,4.6v3h3v-3c2.5,0,4.6-2,4.6-4.6c0-2.5-2-4.6-4.6-4.6
		h-3c-0.8,0-1.5-0.7-1.5-1.5s0.7-1.5,1.5-1.5h3c0.8,0,1.5,0.7,1.5,1.5h3c0-2.5-2-4.6-4.6-4.6v-3h-3v3c-2.5,0-4.6,2-4.6,4.6
		s2,4.6,4.6,4.6h3c0.8,0,1.5,0.7,1.5,1.5S62,68,61.1,68L61.1,68z"/>
	<rect x="58.1" y="78.6" class="st3" width="3" height="27.4"/>
	<rect x="58.1" y="109.1" class="st3" width="3" height="3"/>
	<rect x="64.2" y="77.1" class="st3" width="3" height="15.2"/>
	<rect x="64.2" y="95.4" class="st3" width="3" height="6.1"/>
	<rect x="52" y="77.1" class="st3" width="3" height="18.3"/>
	<rect x="52" y="98.4" class="st3" width="3" height="4.6"/>
	<g>
		<path class="st3" d="M123.8,60.6l-2.3,1.4l-0.7-1.5l3.3-2.2h1.5v10.3h-1.9L123.8,60.6L123.8,60.6z"/>
		<path class="st3" d="M133,60.8c0,0.4,0,0.7-0.1,0.9s-0.2,0.5-0.3,0.7s-0.3,0.4-0.4,0.5c-0.2,0.2-0.3,0.3-0.5,0.4
			c0.5,0.3,0.9,0.6,1.1,1c0.3,0.4,0.4,1,0.4,1.6c0,0.5-0.1,0.9-0.2,1.2c-0.2,0.4-0.4,0.7-0.7,0.9c-0.3,0.3-0.6,0.4-1.1,0.6
			s-0.9,0.2-1.3,0.2c-0.5,0-0.9-0.1-1.3-0.2c-0.4-0.1-0.8-0.3-1-0.6c-0.3-0.3-0.5-0.5-0.7-0.9c-0.2-0.3-0.2-0.7-0.2-1.1
			c0-0.7,0.1-1.3,0.4-1.7c0.3-0.4,0.7-0.8,1.2-1c-0.4-0.2-0.7-0.6-1-1c-0.2-0.4-0.4-0.9-0.4-1.5c0-0.4,0.1-0.7,0.2-1.1
			c0.2-0.3,0.4-0.6,0.6-0.9c0.3-0.2,0.6-0.4,1-0.6c0.4-0.1,0.8-0.2,1.2-0.2c0.5,0,0.9,0.1,1.3,0.2c0.4,0.1,0.7,0.3,1,0.6
			c0.3,0.2,0.5,0.5,0.6,0.8C132.9,60.1,133,60.4,133,60.8z M131.4,65.9c0-0.5-0.2-0.8-0.5-1.1c-0.3-0.3-0.7-0.5-1.3-0.8
			c-0.4,0.2-0.7,0.5-1,0.8c-0.2,0.3-0.4,0.7-0.4,1.1c0,0.5,0.1,0.8,0.4,1.1c0.3,0.2,0.6,0.4,1.1,0.4s0.9-0.1,1.1-0.4
			C131.2,66.8,131.4,66.4,131.4,65.9z M128.5,60.9c0,0.4,0.2,0.8,0.5,1c0.3,0.3,0.7,0.5,1.1,0.7c0.7-0.4,1.1-1,1.1-1.7
			c0-0.4-0.1-0.7-0.3-0.9s-0.6-0.3-1-0.3s-0.8,0.1-1,0.4C128.6,60.3,128.5,60.6,128.5,60.9z"/>
		<path class="st3" d="M133.6,62.7h2.4v-2.9h1.6v2.9h2.4v1.7h-2.4v2.9H136v-2.9h-2.4V62.7z"/>
	</g>
</g>
</svg>
