<?xml version="1.0" encoding="utf-8"?>
<!-- Generator: Adobe Illustrator 21.1.0, SVG Export Plug-In . SVG Version: 6.00 Build 0)  -->
<svg version="1.1" id="Layer_1" xmlns="http://www.w3.org/2000/svg" xmlns:xlink="http://www.w3.org/1999/xlink" x="0px" y="0px"
	 viewBox="0 0 58 58" style="enable-background:new 0 0 58 58;" xml:space="preserve">
<style type="text/css">
	.st0{fill:#F8B947;}
	.st1{fill:#484848;}
</style>
<circle class="st0" cx="29" cy="29" r="28"/>
<g>
	<path class="st1" d="M29.9,24.5c2.4,0,4.4-2,4.4-4.4c0-2.4-2-4.4-4.4-4.4c-2.4,0-4.4,2-4.4,4.4C25.4,22.5,27.4,24.5,29.9,24.5
		L29.9,24.5z M29.9,16.9c1.7,0,3.2,1.4,3.2,3.2c0,1.7-1.4,3.2-3.2,3.2c-1.7,0-3.2-1.4-3.2-3.2C26.7,18.3,28.1,16.9,29.9,16.9
		L29.9,16.9z M29.9,16.9"/>
	<path class="st1" d="M29.7,42.7l9.7-14c3.6-4.9,3.1-12.8-1.1-17.1C36,9.3,33,8,29.7,8c-3.2,0-6.3,1.3-8.6,3.6
		c-4.2,4.2-4.8,12.2-1.1,17.1L29.7,42.7z M22.1,12.5c2.1-2.1,4.8-3.2,7.7-3.2c2.9,0,5.6,1.1,7.7,3.2c3.8,3.8,4.3,11,1,15.5
		l-8.7,12.5L21,27.9C17.7,23.5,18.2,16.3,22.1,12.5L22.1,12.5z M22.1,12.5"/>
	<path class="st1" d="M10.6,44.5l-0.4,0.4c-0.2,0.2-0.2,0.6,0,0.9c0.1,0.1,0.3,0.2,0.4,0.2s0.3-0.1,0.4-0.2l0.4-0.4
		c0.2-0.2,0.2-0.6,0-0.9C11.3,44.2,10.9,44.2,10.6,44.5L10.6,44.5z M10.6,44.5"/>
	<path class="st1" d="M15.5,40.9c-0.3,0-0.6,0.3-0.6,0.6c0,0.4,0.3,0.6,0.6,0.6h1.2c0.3,0,0.6-0.3,0.6-0.6c0-0.3-0.3-0.6-0.6-0.6
		H15.5z M15.5,40.9"/>
	<path class="st1" d="M14,42c-0.2-0.2-0.6-0.2-0.9,0l-0.8,0.8c-0.2,0.3-0.2,0.6,0,0.9c0.1,0.1,0.3,0.2,0.4,0.2
		c0.2,0,0.3-0.1,0.4-0.2l0.8-0.8C14.2,42.7,14.2,42.3,14,42L14,42z M14,42"/>
	<path class="st1" d="M22.4,40.9c-0.3,0-0.6,0.3-0.6,0.6c0,0.4,0.3,0.6,0.6,0.6h1.2c0.3,0,0.6-0.3,0.6-0.6c0-0.3-0.3-0.6-0.6-0.6
		H22.4z M22.4,40.9"/>
	<path class="st1" d="M18.9,40.9c-0.3,0-0.6,0.3-0.6,0.6c0,0.4,0.3,0.6,0.6,0.6h1.2c0.3,0,0.6-0.3,0.6-0.6c0-0.3-0.3-0.6-0.6-0.6
		H18.9z M18.9,40.9"/>
	<path class="st1" d="M44.6,39.7l-1,1c-0.2,0.2-0.2,0.6,0,0.9c0.1,0.1,0.3,0.2,0.4,0.2c0.2,0,0.3-0.1,0.4-0.2l1-1
		c0.2-0.2,0.2-0.6,0-0.9C45.2,39.4,44.8,39.4,44.6,39.7L44.6,39.7z M44.6,39.7"/>
	<path class="st1" d="M40.2,40.9c-0.3,0-0.6,0.3-0.6,0.6c0,0.4,0.3,0.6,0.6,0.6h1.4c0.4,0,0.6-0.3,0.6-0.6c0-0.3-0.3-0.6-0.6-0.6
		H40.2z M40.2,40.9"/>
	<path class="st1" d="M36.1,40.9c-0.3,0-0.6,0.3-0.6,0.6c0,0.4,0.3,0.6,0.6,0.6h1.4c0.3,0,0.6-0.3,0.6-0.6c0-0.3-0.3-0.6-0.6-0.6
		H36.1z M36.1,40.9"/>
	<path class="st1" d="M32.8,40.9c-0.3,0-0.6,0.3-0.6,0.6c0,0.4,0.3,0.6,0.6,0.6h0.6c0.3,0,0.6-0.3,0.6-0.6c0-0.3-0.3-0.6-0.6-0.6
		H32.8z M32.8,40.9"/>
	<path class="st1" d="M46.9,41.3l-2.5,2.5c-0.1,0.1-0.1,0.1-0.2,0.2L44.1,44c0,0,0,0-0.1,0c0,0,0,0-0.1,0l-0.2,0.1
		c-0.1,0-0.2,0-0.2,0H15l-1,0.8c-0.3,0.2-0.3,0.6-0.1,0.9c0.1,0.2,0.3,0.2,0.5,0.2c0.1,0,0.3,0,0.4-0.1l0.6-0.5h28.1
		c0.2,0,0.3,0,0.5,0c0.1,0,0.1,0,0.2,0l0.1,0c0.1,0,0.1,0,0.2-0.1c0.1,0,0.1-0.1,0.2-0.1l0.1,0c0.1,0,0.1-0.1,0.2-0.1
		c0.1-0.1,0.3-0.2,0.4-0.3l2.5-2.5c0.2-0.2,0.2-0.6,0-0.9C47.6,41,47.2,41,46.9,41.3L46.9,41.3z M46.9,41.3"/>
	<path class="st1" d="M34.7,38.4c0,0.4,0.3,0.6,0.6,0.6H43l2.1-2.1c0.3-0.2,0.3-0.6,0-0.9c-0.2-0.2-0.6-0.2-0.9,0l-1.7,1.7h-7.2
		C35,37.8,34.7,38,34.7,38.4L34.7,38.4z M34.7,38.4"/>
</g>
</svg>
