<?xml version="1.0" encoding="utf-8"?>
<!-- Generator: Adobe Illustrator 21.1.0, SVG Export Plug-In . SVG Version: 6.00 Build 0)  -->
<svg version="1.1" id="Layer_1" xmlns="http://www.w3.org/2000/svg" xmlns:xlink="http://www.w3.org/1999/xlink" x="0px" y="0px"
	 viewBox="0 0 200 200" style="enable-background:new 0 0 200 200;" xml:space="preserve">
<style type="text/css">
	.st0{fill:#EBEBEB;}
	.st1{fill:#F8B947;}
	.st2{fill:#FFFFFF;}
	.st3{fill:#333333;}
</style>
<g>
	<ellipse class="st0" cx="100.3" cy="100" rx="98" ry="98.1"/>
	<ellipse class="st1" cx="94.8" cy="95.6" rx="93.2" ry="93.2"/>
</g>
<g>
	<path class="st2" d="M86.8,140.9H65.2v-1.5c0-3.4-2.8-6.2-6.2-6.2h-1.5V91.6h37v41.6H93c-3.4,0-6.2,2.8-6.2,6.2V140.9z"/>
	<path class="st3" d="M111.5,94.7c2.5,0,4.6-2.1,4.6-4.6V56.2c0-2.5-2.1-4.6-4.6-4.6H56c-2.5,0-4.6,2.1-4.6,4.6v90.9h49.3V94.7
		H111.5z M113,67H54.5v-4.6H113V67z M56,54.6h55.5c0.9,0,1.5,0.7,1.5,1.5v3.1H54.5v-3.1C54.5,55.3,55.2,54.6,56,54.6L56,54.6z
		 M54.5,70H113v20c0,0.8-0.7,1.5-1.5,1.5H56c-0.9,0-1.5-0.7-1.5-1.5V70z M86.8,103.9c0,5.9-4.8,10.8-10.8,10.8
		c-5.9,0-10.8-4.8-10.8-10.8c0-3.8,2-7.3,5.3-9.2h11C84.8,96.6,86.8,100.1,86.8,103.9L86.8,103.9z M97.6,144H54.5V94.4
		c0.5,0.2,1,0.3,1.5,0.3h9.7c-2.3,2.5-3.6,5.8-3.6,9.2c0,7.6,6.2,13.9,13.9,13.9c7.6,0,13.9-6.2,13.9-13.9c0-3.5-1.3-6.7-3.6-9.2
		h11.3C97.6,94.7,97.6,144,97.6,144z"/>
	<path class="st3" d="M97.6,88.5c1.1,0,2.1-0.3,3.1-0.9c0.9,0.5,1.9,0.9,3.1,0.9c3.4,0,6.2-2.8,6.2-6.2c0-3.4-2.8-6.2-6.2-6.2
		c-1.1,0-2.2,0.3-3.1,0.9c-0.9-0.6-2-0.9-3.1-0.9c-3.4,0-6.2,2.8-6.2,6.2C91.4,85.8,94.2,88.5,97.6,88.5L97.6,88.5z M106.8,82.4
		c0,1.7-1.4,3.1-3.1,3.1s-3.1-1.4-3.1-3.1s1.4-3.1,3.1-3.1C105.5,79.3,106.8,80.7,106.8,82.4L106.8,82.4z M97.6,79.3
		c0.3,0,0.5,0,0.8,0.1c-0.5,0.9-0.8,1.9-0.8,3s0.3,2.1,0.8,3c-0.3,0.1-0.5,0.1-0.8,0.1c-1.7,0-3.1-1.4-3.1-3.1
		C94.5,80.7,95.9,79.3,97.6,79.3L97.6,79.3z"/>
	<path class="st3" d="M125.3,103.9c-11.9,0-21.6,9.7-21.6,21.6s9.7,21.6,21.6,21.6s21.6-9.7,21.6-21.6S137.2,103.9,125.3,103.9
		L125.3,103.9z M125.3,144c-10.2,0-18.5-8.3-18.5-18.5s8.3-18.5,18.5-18.5s18.5,8.3,18.5,18.5S135.5,144,125.3,144L125.3,144z"/>
	<path class="st3" d="M127.6,113.2h-0.8v-3.1h-3.1v3.1H123c-3.8,0-6.9,3.1-6.9,6.9s3.1,6.9,6.9,6.9h4.6c2.1,0,3.9,1.7,3.9,3.9
		c0,2.1-1.7,3.9-3.9,3.9H123c-2.1,0-3.9-1.7-3.9-3.9v-0.8H116v0.8c0,3.8,3.1,6.9,6.9,6.9h0.8v3.1h3.1v-3.1h0.8
		c3.8,0,6.9-3.1,6.9-6.9c0-3.8-3.1-6.9-6.9-6.9H123c-2.1,0-3.9-1.7-3.9-3.9c0-2.1,1.7-3.9,3.9-3.9h4.6c2.1,0,3.9,1.7,3.9,3.9v0.8
		h3.1v-0.8C134.6,116.3,131.5,113.2,127.6,113.2L127.6,113.2z"/>
	<path class="st3" d="M123.8,59.3v32.3h3.1V59.3l1.8,2.5l2.5-1.8l-5.9-7.8l-5.9,7.8l2.5,1.8L123.8,59.3z"/>
	<rect x="123.8" y="94.7" class="st3" width="3.1" height="4.6"/>
	<path class="st3" d="M139.2,68.5v27.7h3.1V68.5l1.8,2.5l2.5-1.8l-5.9-7.8l-5.9,7.8l2.5,1.8L139.2,68.5z"/>
	<rect x="139.2" y="99.3" class="st3" width="3.1" height="4.6"/>
</g>
</svg>
