<?xml version="1.0" encoding="utf-8"?>
<!-- Generator: Adobe Illustrator 21.1.0, SVG Export Plug-In . SVG Version: 6.00 Build 0)  -->
<svg version="1.1" id="Layer_1" xmlns="http://www.w3.org/2000/svg" xmlns:xlink="http://www.w3.org/1999/xlink" x="0px" y="0px"
	 viewBox="0 0 200 200" style="enable-background:new 0 0 200 200;" xml:space="preserve">
<style type="text/css">
	.st0{fill:#EBEBEB;}
	.st1{fill:#F8B947;}
	.st2{fill:#FFFFFF;}
	.st3{fill:#333333;}
</style>
<g>a
	<g>
		<ellipse class="st0" cx="100.3" cy="100" rx="98" ry="98.1"/>
		<ellipse class="st1" cx="94.8" cy="95.6" rx="93.2" ry="93.2"/>
	</g>
	<g>
		<path class="st2" d="M111.9,144.4c-15.4,0-27.9-12.5-27.9-27.9c0-15.4,12.5-27.9,27.9-27.9c15.4,0,27.9,12.5,27.9,27.9
			C139.8,131.9,127.3,144.4,111.9,144.4L111.9,144.4z M111.9,144.4"/>
		<path class="st3" d="M138.7,125c0.8,0,1.4-0.6,1.4-1.4V73.9c0-0.4-0.1-0.7-0.4-1l-15.1-15.1c-0.3-0.3-0.6-0.4-1-0.4H91.9v-0.3
			c0-2.3-1.9-4.2-4.2-4.2H54.2c-2.3,0-4.2,1.9-4.2,4.2v45.5c0,2.3,1.9,4.2,4.2,4.2H65v34.7c0,0.8,0.6,1.4,1.4,1.4h72.3
			c0.8,0,1.4-0.6,1.4-1.4v-10.5c0-0.8-0.6-1.4-1.4-1.4c-0.8,0-1.4,0.6-1.4,1.4v9.1H67.8v-33.3h19.9c2.3,0,4.2-1.9,4.2-4.2V78.4
			c0-0.8-0.6-1.4-1.4-1.4c-0.8,0-1.4,0.6-1.4,1.4v24.3c0,0.8-0.6,1.4-1.4,1.4H54.2c-0.8,0-1.4-0.6-1.4-1.4V57.1
			c0-0.8,0.6-1.4,1.4-1.4h33.5c0.8,0,1.4,0.6,1.4,1.4v13.7c0,0.8,0.6,1.4,1.4,1.4c0.8,0,1.4-0.6,1.4-1.4V60.2h30.3c0,0,0,0.1,0,0.1
			v13.5c0,0.8,0.6,1.4,1.4,1.4h13.5c0,0,0.1,0,0.1,0v48.3C137.3,124.3,137.9,125,138.7,125z M125,62.2l10.2,10.2H125V62.2z"/>
		<path class="st3" d="M84.9,117.6h-9.4c-0.8,0-1.4,0.6-1.4,1.4s0.6,1.4,1.4,1.4h9.4c0.8,0,1.4-0.6,1.4-1.4S85.7,117.6,84.9,117.6z"
			/>
		<path class="st3" d="M84.9,125.2h-9.4c-0.8,0-1.4,0.6-1.4,1.4c0,0.8,0.6,1.4,1.4,1.4h9.4c0.8,0,1.4-0.6,1.4-1.4
			C86.3,125.8,85.7,125.2,84.9,125.2z"/>
		<path class="st3" d="M96.4,107.2c-0.7-0.4-1.5-0.1-1.9,0.6c-1.5,3-2.4,6.3-2.4,9.7c0,11.6,9.4,21,21,21s21-9.4,21-21
			s-9.4-21-21-21c-5.8,0-11.1,2.3-15.1,6.5c-0.5,0.6-0.5,1.5,0,2c0.6,0.5,1.5,0.5,2,0c3.5-3.6,8.1-5.6,13.1-5.6
			c10,0,18.2,8.1,18.2,18.2s-8.1,18.2-18.2,18.2s-18.2-8.1-18.2-18.2c0-3,0.7-5.8,2-8.4C97.3,108.5,97.1,107.6,96.4,107.2z"/>
		<path class="st3" d="M107.1,126.7c-0.8,0-1.4,0.6-1.4,1.4c0,0.8,0.6,1.4,1.4,1.4h4.2v1.6c0,0.8,0.6,1.4,1.4,1.4
			c0.8,0,1.4-0.6,1.4-1.4v-1.6h2.2c2.3,0,4.2-1.9,4.2-4.2v-4.7c0-2.3-1.9-4.2-4.2-4.2l-2.2-0.1v-7.8h5c0.8,0,1.4-0.6,1.4-1.4
			c0-0.8-0.6-1.4-1.4-1.4h-5V104c0-0.8-0.6-1.4-1.4-1.4c-0.8,0-1.4,0.6-1.4,1.4v1.6h-1.4c-2.3,0-4.2,1.9-4.2,4.2v4.9
			c0,2.3,1.9,4.2,4.2,4.2l1.4,0v7.7H107.1z M109.9,116.1C109.9,116.1,109.9,116.1,109.9,116.1c-0.8,0-1.5-0.6-1.5-1.4v-4.9
			c0-0.8,0.6-1.4,1.4-1.4h1.4v7.8L109.9,116.1z M114.1,119.1l2.1,0.1c0,0,0,0,0,0c0.8,0,1.4,0.6,1.4,1.4v4.7c0,0.8-0.6,1.4-1.4,1.4
			h-2.2V119.1z"/>
		<path class="st3" d="M87.4,58.8c0-0.8-0.6-1.4-1.4-1.4H55.9c-0.8,0-1.4,0.6-1.4,1.4v7.5c0,0.8,0.6,1.4,1.4,1.4H86
			c0.8,0,1.4-0.6,1.4-1.4V58.8z M84.6,64.9H57.3v-4.7h27.3V64.9z"/>
		<path class="st3" d="M63.3,70.9c0-0.8-0.6-1.4-1.4-1.4h-6c-0.8,0-1.4,0.6-1.4,1.4v6c0,0.8,0.6,1.4,1.4,1.4h6
			c0.8,0,1.4-0.6,1.4-1.4V70.9z M60.5,75.5h-3.2v-3.2h3.2V75.5z"/>
		<path class="st3" d="M75.4,70.9c0-0.8-0.6-1.4-1.4-1.4h-6c-0.8,0-1.4,0.6-1.4,1.4v6c0,0.8,0.6,1.4,1.4,1.4h6
			c0.8,0,1.4-0.6,1.4-1.4V70.9z M72.5,75.5h-3.2v-3.2h3.2V75.5z"/>
		<path class="st3" d="M87.4,70.9c0-0.8-0.6-1.4-1.4-1.4h-6c-0.8,0-1.4,0.6-1.4,1.4v6c0,0.8,0.6,1.4,1.4,1.4h6
			c0.8,0,1.4-0.6,1.4-1.4V70.9z M84.6,75.5h-3.2v-3.2h3.2V75.5z"/>
		<path class="st3" d="M63.3,82.9c0-0.8-0.6-1.4-1.4-1.4h-6c-0.8,0-1.4,0.6-1.4,1.4v6c0,0.8,0.6,1.4,1.4,1.4h6
			c0.8,0,1.4-0.6,1.4-1.4V82.9z M60.5,87.5h-3.2v-3.2h3.2V87.5z"/>
		<path class="st3" d="M75.4,82.9c0-0.8-0.6-1.4-1.4-1.4h-6c-0.8,0-1.4,0.6-1.4,1.4v6c0,0.8,0.6,1.4,1.4,1.4h6
			c0.8,0,1.4-0.6,1.4-1.4V82.9z M72.5,87.5h-3.2v-3.2h3.2V87.5z"/>
		<path class="st3" d="M61.9,93.5h-6c-0.8,0-1.4,0.6-1.4,1.4v6c0,0.8,0.6,1.4,1.4,1.4h6c0.8,0,1.4-0.6,1.4-1.4v-6
			C63.3,94.2,62.7,93.5,61.9,93.5z M60.5,99.6h-3.2v-3.2h3.2V99.6z"/>
		<path class="st3" d="M74,93.5h-6c-0.8,0-1.4,0.6-1.4,1.4v6c0,0.8,0.6,1.4,1.4,1.4h6c0.8,0,1.4-0.6,1.4-1.4v-6
			C75.4,94.2,74.7,93.5,74,93.5z M72.5,99.6h-3.2v-3.2h3.2V99.6z"/>
		<path class="st3" d="M86,81.5h-6c-0.8,0-1.4,0.6-1.4,1.4V101c0,0.8,0.6,1.4,1.4,1.4h6c0.8,0,1.4-0.6,1.4-1.4V82.9
			C87.4,82.1,86.8,81.5,86,81.5z M84.6,99.6h-3.2V84.3h3.2V99.6z"/>
		<path class="st3" d="M109.2,68.1c-0.2-0.2-0.4-0.3-0.7-0.4l-5.2-1l-2.5-2.8c-0.5-0.6-1.4-0.6-2-0.1c-0.6,0.5-0.6,1.4-0.1,2
			c0,0,2.9,3.2,3,3.2l0.9,4.6c0.1,0.3,0.2,0.5,0.4,0.7l22.5,22.5c0.8,0.8,1.9,1.2,3,1.2c1.1,0,2.2-0.4,3-1.2h0l0.3-0.3
			c1.7-1.7,1.7-4.3,0-6l-0.2-0.2l2.2-2.2c0.6-0.6,0.5-1.5,0-2l-7.7-7.3c-0.6-0.5-1.5-0.5-2,0.1c-0.5,0.6-0.5,1.5,0.1,2l6.6,6.3
			l-1.2,1.2L109.2,68.1z M104.7,69.8l2.8,0.6L121.1,84l-2.3,2.3l-13.6-13.6L104.7,69.8z M129.7,94.6l-0.3,0.3c-0.6,0.6-1.4,0.6-2,0
			l-6.6-6.6l2.3-2.3l6.6,6.6C130.2,93.1,130.2,94,129.7,94.6z"/>
	</g>
</g>
</svg>
