<svg xmlns="http://www.w3.org/2000/svg" xmlns:xlink="http://www.w3.org/1999/xlink" version="1.1" id="Слой_1" x="0px" y="0px" viewBox="-229 401.9 136 38" style="enable-background:new -229 401.9 136 38;" xml:space="preserve">
<style type="text/css">
	.st0{fill:#D12138;}
	.st1{fill:#545554;}
</style>
<title>comodo_logo</title>
<desc>Created with Sketch.</desc>
<g id="Page-1">
	<g id="Marketing-Desktop-1440x900" transform="translate(-1241.000000, -1420.000000)">
		<g id="comodo_logo" transform="translate(1241.000000, 1420.000000)">
			<path id="Fill-1" class="st0" d="M-196.4,412.6c-0.2,1.3-0.5,2.2-1,2.9c-0.7,0.9-1.9,1.5-3.5,1.5h-0.9c-1.6,0-2.7-0.5-3.2-1.4     c-0.3-0.7-0.4-1.6-0.2-2.9l0.4-2.8c0.2-1.5,0.7-2.6,1.5-3.4c0.8-0.8,1.9-1.1,3.2-1.1h0.9c0.9,0,2.1,0.2,2.8,1     c0.6,0.7,0.7,1.8,0.5,3.3L-196.4,412.6L-196.4,412.6L-196.4,412.6z M-199.2,402.3L-199.2,402.3l-0.8,0c-6,0.1-9.1,2.5-9.8,7.3     l-0.4,3.1c-0.3,2.1,0.1,3.7,1.2,4.9c1.3,1.4,3.5,2.5,6.9,2.5h0.8c5.9-0.1,9-2.5,9.7-6.9h0l0-0.3l0.4-3.1c0.3-2.2-0.1-3.9-1.2-5     C-193.6,403.3-195.8,402.4-199.2,402.3L-199.2,402.3L-199.2,402.3z"/>
			<path id="Fill-2" class="st0" d="M-148.1,412.6c-0.2,1.3-0.5,2.2-1,2.9c-0.7,0.9-1.9,1.5-3.5,1.5h-0.9c-1.6,0-2.7-0.5-3.2-1.4     c-0.3-0.7-0.4-1.6-0.2-2.9l0.4-2.8c0.2-1.5,0.7-2.6,1.5-3.4c0.8-0.8,1.9-1.1,3.2-1.1h0.9c0.9,0,2.1,0.2,2.8,1     c0.6,0.7,0.7,1.8,0.5,3.3L-148.1,412.6L-148.1,412.6L-148.1,412.6z M-150.9,402.3L-150.9,402.3l-0.8,0c-6,0.1-9.1,2.5-9.8,7.3     l-0.4,3.1c-0.3,2.1,0.1,3.7,1.2,4.9c1.3,1.4,3.5,2.5,6.9,2.5h0.8c5.9-0.1,9-2.5,9.7-6.9h0l0-0.3l0.4-3.1c0.3-2.2-0.1-3.9-1.2-5     C-145.3,403.3-147.5,402.4-150.9,402.3L-150.9,402.3L-150.9,402.3z"/>
			<path id="Fill-3" class="st0" d="M-103.3,412.6c-0.2,1.3-0.5,2.2-1,2.9c-0.7,0.9-1.9,1.5-3.5,1.5h-0.9c-1.6,0-2.7-0.5-3.2-1.4     c-0.3-0.7-0.4-1.6-0.2-2.9l0.4-2.8c0.2-1.5,0.7-2.6,1.5-3.4c0.8-0.8,1.9-1.1,3.2-1.1h0.9c0.9,0,2.1,0.2,2.8,1     c0.6,0.7,0.7,1.8,0.5,3.3L-103.3,412.6L-103.3,412.6L-103.3,412.6z M-99.2,404.7c-1.3-1.4-3.5-2.4-6.9-2.4h0l-0.8,0     c-6,0.1-9.1,2.5-9.8,7.3l-0.4,3.1c-0.3,2.1,0.1,3.7,1.2,4.9c1.3,1.4,3.5,2.5,6.9,2.5h0.8c5.9-0.1,9-2.5,9.7-6.9h0l0-0.3l0.4-3.1     C-97.7,407.6-98.1,405.9-99.2,404.7L-99.2,404.7L-99.2,404.7z"/>
			<path id="Fill-4" class="st0" d="M-135.7,407.6c0.2,0,0.3,0,0.5,0c0.6,0.1,0.9,0.4,1.2,0.6c0.4,0.5,0.6,1.1,0.5,1.8l-0.6,5.2l0,0     l-0.2,1.3l0,0.1h0l0,0l2.9,0c0.2,0,0.4,0,0.7,0c1.3-0.1,3.4-0.7,4-2.3c0,0,0-0.1,0-0.1c0.1-0.4,0.2-0.9,0.3-1.4l0.2-1.8l0,0h0     l0.1-0.8c0.1-0.7,0.1-1.3,0-1.9c-0.2-1.7-2.2-2.2-3.4-2.3c-0.3,0-0.5,0-0.7,0l-2.9,0v0h-2.2l0,0c-0.7,0-1.1-0.2-1.4-0.3     c-0.6-0.4-0.9-1.2-0.9-2.2l0-0.5h0.6l6.2,0c0,0,0.1,0,0.1,0l0.7,0c3.8,0,6.3,0.8,7.7,2.3c1,1.2,1.4,2.7,1.2,4.8l-0.1,1.1     l-0.2,1.7c0,0.2-0.1,0.6-0.1,0.8c-0.2,1.1-0.5,2-0.9,2.8c-0.5,0.9-1.2,1.6-2,2.1c-0.3,0.2-0.6,0.3-0.9,0.5     c-0.7,0.3-1.4,0.5-2.3,0.7c-0.3,0-0.7,0.1-1.2,0.1c-0.6,0-1.3,0.1-2,0.1l-5.2,0h-0.7c-1.3,0-2-0.3-2.4-0.7     c-0.1-0.1-0.1-0.2-0.2-0.3c-0.1-0.3-0.2-0.6-0.1-1l0.6-4.8l0.7-5.4H-135.7"/>
			<path id="Fill-6" class="st0" d="M-213.2,416.7h-6.8l0,0c-0.9,0-1.7-0.1-2.2-0.2c-0.6-0.2-1-0.4-1.3-0.8     c-0.2-0.3-0.4-0.6-0.4-0.9c0,0,0-0.1,0-0.1c0-0.2-0.1-0.3-0.1-0.5c0-0.4,0-0.9,0.1-1.5l0.3-2.6c0-0.3,0.1-0.6,0.2-0.9     c0-0.1,0-0.2,0.1-0.3c0,0,0,0,0-0.1c0.1-0.2,0.1-0.4,0.2-0.6c0,0,0-0.1,0.1-0.1c0.1-0.2,0.2-0.3,0.3-0.5c0.1-0.1,0.2-0.3,0.3-0.4     c0.4-0.4,0.9-0.8,1.6-1c0.7-0.2,1.6-0.4,2.7-0.4h3.8l0,0c0.7,0,1.2-0.2,1.5-0.3c0.4-0.2,0.7-0.5,0.9-0.9c0-0.1,0.1-0.1,0.1-0.2     c0.2-0.3,0.4-0.7,0.5-1.1l0.2-0.5h-7.2l-0.5,0c-0.8,0-1.6,0.1-2.4,0.2c-4.3,0.6-6.5,2.9-7.1,6.9l-0.4,3c-0.2,2.1,0.1,3.6,1.1,4.7     c1.2,1.3,3.1,2.2,6.1,2.3l5.2,0c0.7,0,1.4-0.1,1.7-0.3c0.5-0.3,0.8-0.7,1.1-1.2c0.1-0.1,0.1-0.2,0.2-0.4     C-213.6,417.9-213.3,417.3-213.2,416.7"/>
			<path id="Fill-7" class="st0" d="M-182.5,417l0,0.2c-0.1,0.7-0.5,1.4-1,1.8c-0.3,0.3-0.9,0.7-1.8,0.7h-2.5l0.2-1.9l0.1-0.8     l1.8-14.3h2.1c1.3,0,2.2,0.3,2.7,1l4.6,7.4l6.6-7.5c0.6-0.6,1.5-1,2.8-1h2.2l-1.8,14.3l0,0.2c-0.1,0.7-0.5,1.4-1,1.8     c-0.3,0.3-0.9,0.7-1.8,0.7l-2.5,0l1.2-10l-5.2,6.5c-0.2,0.2-0.6,0.7-1.2,0.7h0c-0.5,0-1-0.5-1.1-0.8l-3.4-6.5L-182.5,417"/>
			<path id="Fill-8" class="st1" d="M-221.4,434.7c0,0.8-0.4,1.4-1,1.9c-0.6,0.5-1.5,0.7-2.5,0.7c-1.3,0-2.3-0.4-3-1.3     c-0.7-0.8-1.1-2-1.1-3.5c0-1.5,0.4-2.7,1.1-3.5c0.7-0.9,1.7-1.3,3-1.3c1.1,0,1.9,0.2,2.6,0.7c0.6,0.5,1,1.1,1,1.9h-1.3     c0-0.5-0.2-0.8-0.6-1.1c-0.4-0.3-0.9-0.4-1.5-0.4c-0.9,0-1.7,0.3-2.2,0.9c-0.5,0.6-0.8,1.5-0.8,2.7c0,1.2,0.3,2.2,0.8,2.8     c0.5,0.7,1.2,1,2.1,1c0.6,0,1.1-0.1,1.5-0.4c0.4-0.3,0.6-0.7,0.7-1.2H-221.4"/>
			<path id="Fill-10" class="st1" d="M-219.8,430.8h1.2v0.7c0.5-0.6,1.1-0.8,1.8-0.8l0.3,0v1.1l-0.2,0c-0.7,0-1.1,0.2-1.4,0.5     c-0.3,0.4-0.4,0.9-0.4,1.7v3.3h-1.2V430.8"/>
			<path id="Fill-11" class="st1" d="M-210.6,433.3c0-0.6-0.2-1-0.4-1.3c-0.3-0.3-0.7-0.5-1.3-0.5c-0.5,0-1,0.2-1.3,0.6     c-0.2,0.3-0.4,0.7-0.4,1.2H-210.6L-210.6,433.3L-210.6,433.3z M-212.2,437.3c-0.9,0-1.7-0.3-2.2-0.9c-0.5-0.6-0.8-1.4-0.8-2.4     c0-1.1,0.3-1.9,0.8-2.6c0.5-0.6,1.3-0.9,2.2-0.9c0.9,0,1.6,0.3,2.1,0.8c0.5,0.5,0.7,1.3,0.7,2.3l0,0.4h-4.6     c0,0.7,0.2,1.3,0.4,1.7c0.3,0.4,0.7,0.6,1.3,0.6c0.4,0,0.8-0.1,1.1-0.4c0.3-0.2,0.4-0.6,0.5-1h1.2c-0.1,0.7-0.4,1.3-0.8,1.7     C-210.8,437.2-211.4,437.3-212.2,437.3L-212.2,437.3L-212.2,437.3z"/>
			<path id="Fill-12" class="st1" d="M-203.9,434h-1.1c-0.7,0-1.2,0.1-1.5,0.3c-0.3,0.2-0.5,0.5-0.5,1c0,0.4,0.1,0.6,0.4,0.8     c0.2,0.2,0.6,0.3,1,0.3c0.6,0,1-0.2,1.3-0.5c0.3-0.3,0.4-0.8,0.4-1.4L-203.9,434L-203.9,434L-203.9,434z M-205.8,437.3     c-0.7,0-1.3-0.2-1.7-0.5c-0.4-0.4-0.6-0.8-0.6-1.5c0-0.7,0.3-1.2,0.9-1.6c0.6-0.4,1.4-0.6,2.4-0.6h1.1l0-0.5     c0-0.4-0.1-0.7-0.4-0.9c-0.2-0.2-0.6-0.3-1.1-0.3c-0.4,0-0.6,0.1-0.9,0.3c-0.2,0.2-0.3,0.4-0.4,0.7h-1.2c0-0.6,0.3-1.1,0.7-1.4     c0.4-0.3,1-0.4,1.9-0.4c0.8,0,1.4,0.2,1.9,0.6c0.5,0.4,0.7,0.9,0.7,1.5v2.2c0,0.6,0,1.1,0,1.5c0,0.4,0.1,0.7,0.1,0.8h-1.1     c0-0.1-0.1-0.2-0.1-0.4c0-0.2,0-0.3,0-0.5c-0.1,0.1-0.2,0.3-0.3,0.4C-204.5,437.1-205,437.3-205.8,437.3L-205.8,437.3     L-205.8,437.3z"/>
			<path id="Fill-13" class="st1" d="M-197.5,437.3c-0.3,0.1-0.7,0.1-1.2,0.1c-0.4,0-0.8-0.1-1.1-0.4c-0.3-0.2-0.5-0.5-0.5-0.9v-4.5     h-1.3v-0.9h1.3v-1.2l1.2-0.5v1.6h1.6v0.9h-1.6v4.2c0,0.2,0.1,0.4,0.2,0.5c0.1,0.1,0.3,0.2,0.5,0.2c0.3,0,0.6,0,0.9-0.1V437.3"/>
			<path id="Fill-14" class="st1" d="M-196,430.8h1.2v6.4h-1.2V430.8L-196,430.8z M-196,428h1.3v1.2h-1.3V428L-196,428z"/>
			<path id="Fill-15" class="st1" d="M-192.5,430.8h1.1v0.9c0.1-0.1,0.1-0.2,0.2-0.3c0.5-0.5,1.1-0.8,2-0.8c0.8,0,1.5,0.2,1.9,0.7     c0.4,0.4,0.6,1.1,0.6,2.1v3.8h-1.2v-3.8c0-0.7-0.1-1.1-0.4-1.4c-0.2-0.3-0.6-0.4-1.2-0.4c-0.6,0-1.1,0.2-1.4,0.5     c-0.3,0.3-0.4,0.8-0.4,1.6v3.6h-1.2V430.8"/>
			<path id="Fill-16" class="st1" d="M-182.1,431.4c-0.6,0-1,0.2-1.3,0.6c-0.3,0.4-0.5,1-0.5,1.7c0,0.8,0.1,1.4,0.4,1.8     c0.3,0.4,0.7,0.6,1.3,0.6c0.6,0,1-0.2,1.3-0.6c0.3-0.4,0.5-1,0.5-1.8c0-0.8-0.2-1.3-0.5-1.8     C-181.1,431.7-181.5,431.4-182.1,431.4L-182.1,431.4L-182.1,431.4z M-182.1,438.9c0.6,0,1.1-0.2,1.4-0.5c0.3-0.3,0.4-0.8,0.4-1.6     v-0.9l-0.2,0.3c-0.5,0.6-1.1,0.9-1.9,0.9c-0.8,0-1.5-0.3-2-0.9c-0.5-0.6-0.7-1.4-0.7-2.4c0-0.9,0.3-1.7,0.8-2.3     c0.5-0.6,1.2-0.9,2-0.9c0.8,0,1.4,0.3,1.8,0.9l0.1,0.1v-0.8h1.2v6c0,1-0.2,1.8-0.7,2.2c-0.5,0.5-1.2,0.7-2.3,0.7     c-0.9,0-1.6-0.2-2-0.5c-0.4-0.3-0.6-0.9-0.6-1.6h1.2c0,0.4,0.1,0.7,0.3,0.9C-182.9,438.8-182.6,438.9-182.1,438.9L-182.1,438.9     L-182.1,438.9z"/>
			<polyline id="Fill-17" class="st1" points="-170.3,429 -173.4,429 -173.4,428 -165.9,428 -165.9,429 -169,429 -169,437.2      -170.3,437.2 -170.3,429    "/>
			<path id="Fill-18" class="st1" d="M-164.5,430.8h1.2v0.7c0.5-0.6,1.1-0.8,1.8-0.8l0.3,0v1.1l-0.2,0c-0.7,0-1.1,0.2-1.4,0.5     c-0.3,0.4-0.4,0.9-0.4,1.7v3.3h-1.2V430.8"/>
			<path id="Fill-19" class="st1" d="M-158.4,434.6c0,0.7,0.1,1.1,0.4,1.4c0.2,0.3,0.6,0.4,1.2,0.4c0.7,0,1.1-0.2,1.4-0.5     c0.3-0.3,0.4-0.9,0.4-1.6v-3.6h1.2v6.4h-1.1v-0.8l-0.1,0.2c-0.5,0.6-1.2,0.8-2,0.8c-0.9,0-1.5-0.2-1.9-0.7     c-0.4-0.5-0.6-1.2-0.6-2.2v-3.8h1.2V434.6"/>
			<path id="Fill-20" class="st1" d="M-148.2,432.5c0-0.3-0.1-0.6-0.3-0.7c-0.2-0.2-0.5-0.3-1-0.3c-0.4,0-0.7,0.1-1,0.2     c-0.2,0.2-0.3,0.4-0.3,0.6c0,0.2,0.1,0.4,0.2,0.5c0.1,0.1,0.3,0.2,0.6,0.3l1.3,0.4c0.7,0.2,1.1,0.4,1.4,0.7     c0.3,0.3,0.4,0.6,0.4,1.1c0,0.6-0.2,1.1-0.7,1.5c-0.5,0.4-1.1,0.6-2,0.6c-0.9,0-1.5-0.2-2-0.5c-0.5-0.4-0.7-0.9-0.7-1.6h1.2     c0,0.4,0.1,0.7,0.4,0.9c0.3,0.2,0.6,0.3,1.1,0.3c0.5,0,0.8-0.1,1.1-0.3c0.3-0.2,0.4-0.5,0.4-0.8c0-0.2-0.1-0.4-0.2-0.5     c-0.2-0.1-0.4-0.3-0.7-0.3l-1.3-0.4c-0.6-0.2-1-0.4-1.3-0.6c-0.3-0.3-0.4-0.6-0.4-1.1c0-0.6,0.2-1,0.7-1.4     c0.4-0.3,1.1-0.5,1.8-0.5c0.8,0,1.4,0.2,1.8,0.5c0.4,0.3,0.7,0.8,0.7,1.4H-148.2"/>
			<path id="Fill-21" class="st1" d="M-141.4,437.3c-0.3,0.1-0.7,0.1-1.2,0.1c-0.4,0-0.8-0.1-1.1-0.4c-0.3-0.2-0.5-0.5-0.5-0.9v-4.5     h-1.3v-0.9h1.3v-1.2l1.2-0.5v1.6h1.6v0.9h-1.6v4.2c0,0.2,0.1,0.4,0.2,0.5c0.1,0.1,0.3,0.2,0.5,0.2c0.3,0,0.6,0,0.9-0.1V437.3"/>
			<path id="Fill-22" class="st1" d="M-129.6,435.3c0.5-0.7,0.8-1.6,0.8-2.8c0-1.2-0.3-2.1-0.8-2.7c-0.5-0.6-1.2-1-2.1-1     c-0.9,0-1.6,0.3-2.1,1c-0.5,0.6-0.8,1.6-0.8,2.7c0,1.2,0.2,2.1,0.8,2.8c0.5,0.7,1.2,1,2.1,1C-130.8,436.3-130.1,436-129.6,435.3     L-129.6,435.3L-129.6,435.3z M-134.7,436.1c-0.7-0.9-1.1-2-1.1-3.6c0-1.5,0.4-2.6,1.1-3.5c0.7-0.8,1.7-1.3,3-1.3     c1.3,0,2.3,0.4,3,1.3c0.7,0.8,1.1,2,1.1,3.5c0,1.5-0.4,2.7-1.1,3.6c-0.7,0.9-1.7,1.3-3,1.3C-133,437.3-134,436.9-134.7,436.1     L-134.7,436.1L-134.7,436.1z"/>
			<path id="Fill-23" class="st1" d="M-125.9,430.8h1.1v0.9c0.1-0.1,0.1-0.2,0.2-0.3c0.5-0.5,1.1-0.8,2-0.8c0.8,0,1.5,0.2,1.9,0.7     c0.4,0.4,0.6,1.1,0.6,2.1v3.8h-1.2v-3.8c0-0.7-0.1-1.1-0.4-1.4c-0.2-0.3-0.6-0.4-1.2-0.4c-0.6,0-1.1,0.2-1.4,0.5     c-0.3,0.3-0.4,0.8-0.4,1.6v3.6h-1.2V430.8"/>
			<polygon id="Fill-24" class="st1" points="-118.2,428 -117,428 -117,437.2 -118.2,437.2    "/>
			<path id="Fill-25" class="st1" d="M-114.7,430.8h1.2v6.4h-1.2V430.8L-114.7,430.8z M-114.7,428h1.3v1.2h-1.3V428L-114.7,428z"/>
			<path id="Fill-26" class="st1" d="M-111.2,430.8h1.1v0.9c0.1-0.1,0.1-0.2,0.2-0.3c0.5-0.5,1.1-0.8,2-0.8c0.8,0,1.5,0.2,1.9,0.7     c0.4,0.4,0.6,1.1,0.6,2.1v3.8h-1.2v-3.8c0-0.7-0.1-1.1-0.4-1.4c-0.2-0.3-0.6-0.4-1.2-0.4c-0.6,0-1.1,0.2-1.4,0.5     c-0.3,0.3-0.4,0.8-0.4,1.6v3.6h-1.2V430.8"/>
			<path id="Fill-27" class="st1" d="M-99.2,433.3c0-0.6-0.2-1-0.4-1.3c-0.3-0.3-0.7-0.5-1.3-0.5c-0.5,0-1,0.2-1.3,0.6     c-0.2,0.3-0.4,0.7-0.4,1.2H-99.2L-99.2,433.3L-99.2,433.3z M-100.8,437.3c-0.9,0-1.7-0.3-2.2-0.9c-0.5-0.6-0.8-1.4-0.8-2.4     c0-1.1,0.3-1.9,0.8-2.6c0.5-0.6,1.3-0.9,2.2-0.9c0.9,0,1.6,0.3,2.1,0.8c0.5,0.5,0.7,1.3,0.7,2.3l0,0.4h-4.6     c0,0.7,0.2,1.3,0.4,1.7c0.3,0.4,0.7,0.6,1.3,0.6c0.4,0,0.8-0.1,1.1-0.4c0.3-0.2,0.4-0.6,0.5-1h1.2c-0.1,0.7-0.4,1.3-0.8,1.7     C-99.3,437.2-100,437.3-100.8,437.3L-100.8,437.3L-100.8,437.3z"/>
			<path id="Fill-28" class="st1" d="M-95.2,430.7h0.2c0.2,0,0.4-0.1,0.4-0.3c0-0.2-0.1-0.3-0.4-0.3c-0.1,0-0.2,0-0.2,0V430.7     L-95.2,430.7L-95.2,430.7z M-95.2,431.7h-0.4v-1.8c0.2,0,0.4-0.1,0.7-0.1c0.3,0,0.5,0.1,0.6,0.1c0.1,0.1,0.2,0.2,0.2,0.4     c0,0.2-0.2,0.4-0.4,0.4v0c0.2,0.1,0.3,0.2,0.3,0.4c0.1,0.3,0.1,0.4,0.1,0.4h-0.4c-0.1-0.1-0.1-0.2-0.1-0.4c0-0.2-0.1-0.3-0.4-0.3     h-0.2V431.7L-95.2,431.7L-95.2,431.7z M-94.9,429.4c-0.8,0-1.4,0.6-1.4,1.4c0,0.8,0.6,1.4,1.4,1.4c0.8,0,1.4-0.6,1.4-1.4     C-93.5,430-94.1,429.4-94.9,429.4L-94.9,429.4L-94.9,429.4L-94.9,429.4z M-94.9,429c1,0,1.8,0.8,1.8,1.8c0,1-0.8,1.8-1.8,1.8     c-1,0-1.8-0.8-1.8-1.8C-96.7,429.8-95.9,429-94.9,429L-94.9,429L-94.9,429L-94.9,429z"/>
		</g>
	</g>
</g>
</svg>