<?xml version="1.0" encoding="utf-8"?>
<!-- Generator: Adobe Illustrator 21.1.0, SVG Export Plug-In . SVG Version: 6.00 Build 0)  -->
<svg version="1.1" id="Layer_1" xmlns="http://www.w3.org/2000/svg" xmlns:xlink="http://www.w3.org/1999/xlink" x="0px" y="0px"
	 viewBox="0 0 75 75" style="enable-background:new 0 0 75 75;" xml:space="preserve">
<style type="text/css">
	.st0{fill:#4B4B4B;}
</style>
<path class="st0" d="M28.6,49.8L18.2,39.4c-0.8-0.8-0.8-2,0-2.8s2-0.8,2.8,0l9,9l23.4-23.4c0.8-0.8,2-0.8,2.8,0s0.8,2,0,2.8
	L31.4,49.8C30.6,50.5,29.4,50.5,28.6,49.8z"/>
<path class="st0" d="M59.5,74.5h-44c-8.3,0-15-6.7-15-15v-44c0-8.3,6.7-15,15-15h44c8.3,0,15,6.7,15,15v44
	C74.5,67.8,67.8,74.5,59.5,74.5z M15.5,2.5c-7.2,0-13,5.8-13,13v44c0,7.2,5.8,13,13,13h44c7.2,0,13-5.8,13-13v-44
	c0-7.2-5.8-13-13-13H15.5z"/>
</svg>
