<?xml version="1.0" encoding="utf-8"?>
<!-- Generator: Adobe Illustrator 21.1.0, SVG Export Plug-In . SVG Version: 6.00 Build 0)  -->
<svg version="1.1" id="Layer_1" xmlns="http://www.w3.org/2000/svg" xmlns:xlink="http://www.w3.org/1999/xlink" x="0px" y="0px"
	 viewBox="0 0 200 200" style="enable-background:new 0 0 200 200;" xml:space="preserve">
<style type="text/css">
	.st0{fill:#EBEBEB;}
	.st1{fill:#F8B947;}
	.st2{fill:#FFD877;}
	.st3{fill:#FFFFFF;}
	.st4{fill:#333333;}
</style>
<g>
	<ellipse class="st0" cx="100.3" cy="100" rx="98" ry="98.1"/>
	<ellipse class="st1" cx="94.8" cy="95.6" rx="93.2" ry="93.2"/>
</g>
<g>
	<path class="st2" d="M99.4,136c0,2.7-1.5,4.9-3.3,4.9H55.2c-1.8,0-3.3-2.2-3.3-4.9v-22.4c0-2.7,1.5-4.9,3.3-4.9h40.9
		c1.8,0,3.3,2.2,3.3,4.9V136z"/>
	<ellipse class="st3" cx="62.6" cy="66.1" rx="12.3" ry="11.4"/>
	<g>
		<path class="st3" d="M126,60.5c-1.7,0-3-1.3-3-3V56h-24v1.5c0,1.7-1.3,3-3,3h-1.5v33h33v-33H126z M102.1,92c0-5,4-9,9-9
			c5,0,9,4,9,9H102.1z M102.1,92"/>
		<path class="st4" d="M135,84.5h-1.5V50H88.6v34.5h-1.5c-4.1,0-7.5,3.4-7.5,7.5v15H55.2c-3.1,0-5.6,2.5-5.6,5.6v24.8
			c0,3.1,2.5,5.6,5.6,5.6H135c4.1,0,7.5-3.4,7.5-7.5V92C142.5,87.8,139.1,84.5,135,84.5L135,84.5z M91.6,53h38.9v37.4h-9.1
			c-0.7-5.1-5.1-9-10.4-9s-9.6,3.9-10.4,9h-9.1V53z M118.4,90.5h-14.7c0.7-3.4,3.7-6,7.3-6S117.7,87,118.4,90.5L118.4,90.5z
			 M87.1,87.5h1.5v3h-1.5v3H135v-3h-1.5v-3h1.5c2.5,0,4.5,2,4.5,4.5v6c-1.3-1-2.8-1.5-4.5-1.5H87.1c-2.5,0-4.5-2-4.5-4.5
			S84.6,87.5,87.1,87.5L87.1,87.5z M55.2,109.9H95c1.4,0,2.6,1.2,2.6,2.6v15.4H52.6v-15.4C52.6,111.1,53.8,109.9,55.2,109.9
			L55.2,109.9z M97.6,133.9H52.6v-3h44.9V133.9z M94.6,139.9H55.2c-1.4,0-2.6-1.2-2.6-2.6v-0.4h44.9v0.4c0,1.4-1.2,2.6-2.6,2.6H94.6
			z M139.5,124.9h-21c-2.5,0-4.5-2-4.5-4.5s2-4.5,4.5-4.5h21V124.9z M139.5,112.9h-21c-4.1,0-7.5,3.4-7.5,7.5c0,4.1,3.4,7.5,7.5,7.5
			h21v7.5c0,2.5-2,4.5-4.5,4.5H99.9c0.4-0.8,0.7-1.7,0.7-2.6v-24.8c0-3.1-2.5-5.6-5.6-5.6H82.6v-9c1.3,1,2.8,1.5,4.5,1.5H135
			c2.5,0,4.5,2,4.5,4.5V112.9z M139.5,112.9"/>
		<path class="st4" d="M120,120.4c0,0.8-0.7,1.5-1.5,1.5c-0.8,0-1.5-0.7-1.5-1.5c0-0.8,0.7-1.5,1.5-1.5
			C119.4,118.9,120,119.6,120,120.4L120,120.4z M120,120.4"/>
		<rect x="55.6" y="112.9" class="st4" width="10.5" height="3"/>
		<rect x="58.6" y="118.9" class="st4" width="7.5" height="3"/>
		<path class="st4" d="M64.6,71h-3c-0.8,0-1.5-0.7-1.5-1.5h-3c0,2.5,2,4.5,4.5,4.5v1.5h3V74c2.5,0,4.5-2,4.5-4.5
			c0-2.5-2-4.5-4.5-4.5h-3c-0.8,0-1.5-0.7-1.5-1.5c0-0.8,0.7-1.5,1.5-1.5h3c0.8,0,1.5,0.7,1.5,1.5h3c0-2.5-2-4.5-4.5-4.5v-1.5h-3V59
			c-2.5,0-4.5,2-4.5,4.5c0,2.5,2,4.5,4.5,4.5h3c0.8,0,1.5,0.7,1.5,1.5C66.1,70.3,65.4,71,64.6,71L64.6,71z M64.6,71"/>
		<path class="st4" d="M75.2,72.5c0.9-1.8,1.4-3.9,1.4-6c0-7.4-6-13.5-13.5-13.5c-7.4,0-13.5,6-13.5,13.5c0,2.2,0.5,4.2,1.4,6
			c-0.9,1.9-1.4,3.9-1.4,6c0,2.2,0.5,4.2,1.4,6c-0.9,1.9-1.4,3.9-1.4,6c0,7.4,6,13.5,13.5,13.5c7.4,0,13.5-6,13.5-13.5
			c0-2.1-0.5-4.1-1.4-6c0.9-1.8,1.4-3.9,1.4-6C76.6,76.4,76.1,74.4,75.2,72.5L75.2,72.5z M63.1,56c5.8,0,10.5,4.7,10.5,10.5
			c0,5.8-4.7,10.5-10.5,10.5c-5.8,0-10.5-4.7-10.5-10.5C52.6,60.7,57.3,56,63.1,56L63.1,56z M63.1,80h1.5c0.8,0,1.5,0.7,1.5,1.5
			c0,0.8-0.7,1.5-1.5,1.5h-3c-0.8,0-1.5-0.7-1.5-1.5h-3c0,2.5,2,4.5,4.5,4.5v1.5h3V86c2.5,0,4.5-2,4.5-4.5c0-0.9-0.3-1.8-0.8-2.5
			c1.9-0.8,3.5-2,4.8-3.5c0.3,1,0.5,2,0.5,3c0,5.8-4.7,10.5-10.5,10.5c-5.8,0-10.5-4.7-10.5-10.5c0-1,0.2-2,0.5-3
			C55.6,78.2,59.1,80,63.1,80L63.1,80z M73.6,90.5c0,5.8-4.7,10.5-10.5,10.5c-5.8,0-10.5-4.7-10.5-10.5c0-1,0.2-2,0.5-3
			c2.5,2.8,6,4.5,10,4.5h1.5c0.8,0,1.5,0.7,1.5,1.5c0,0.8-0.7,1.5-1.5,1.5h-3c-0.8,0-1.5-0.7-1.5-1.5h-3c0,2.5,2,4.5,4.5,4.5v1.5h3
			V98c2.5,0,4.5-2,4.5-4.5c0-0.9-0.3-1.8-0.8-2.5c1.9-0.8,3.5-2,4.8-3.5C73.4,88.4,73.6,89.4,73.6,90.5L73.6,90.5z M73.6,90.5"/>
	</g>
</g>
</svg>
