<?xml version="1.0" encoding="utf-8"?>
<!-- Generator: Adobe Illustrator 21.1.0, SVG Export Plug-In . SVG Version: 6.00 Build 0)  -->
<svg version="1.1" id="Layer_1" xmlns="http://www.w3.org/2000/svg" xmlns:xlink="http://www.w3.org/1999/xlink" x="0px" y="0px"
	 viewBox="0 0 200 200" style="enable-background:new 0 0 200 200;" xml:space="preserve">
<style type="text/css">
	.st0{fill:#EBEBEB;}
	.st1{fill:#F8B947;}
	.st2{fill:#FFD877;}
	.st3{fill:#333333;}
	.st4{fill:#FFFFFF;}
</style>
<g>
	<ellipse class="st0" cx="100.3" cy="100" rx="98" ry="98.1"/>
	<ellipse class="st1" cx="94.8" cy="95.6" rx="93.2" ry="93.2"/>
</g>
<g>
	<path class="st2" d="M118.9,113.9l-8-4.2c0.1-2.3,0.2-4.6,0.2-6.9c0-27.1-17.6-49.1-17.6-49.1s-17.6,22-17.6,49.1
		c0,2.4,0.1,4.7,0.2,7l-7.8,4.1v23.4l10.9-5.8c0.5,2,1.1,4,1.7,5.8h25c0.6-1.8,1.2-3.8,1.8-5.9l11.2,5.9V113.9z"/>
	<path class="st3" d="M106,138.6H81c-0.5,0-1-0.3-1.2-0.9c-0.5-1.3-0.9-2.7-1.4-4.3l-9.5,5c-0.4,0.2-0.9,0.2-1.3,0
		c-0.4-0.2-0.6-0.7-0.6-1.1v-23.4c0-0.5,0.3-0.9,0.7-1.1l7-3.7c-0.1-2.1-0.2-4.1-0.2-6.3c0-27.2,17.2-49,17.9-49.9
		c0.5-0.6,1.5-0.6,2,0c0.7,0.9,17.9,22.6,17.9,49.9c0,2.1-0.1,4.1-0.2,6.2l7.3,3.8c0.4,0.2,0.7,0.7,0.7,1.1v23.4
		c0,0.5-0.2,0.9-0.6,1.1c-0.4,0.2-0.9,0.2-1.3,0l-9.7-5.1c-0.5,1.6-0.9,3.1-1.4,4.4C107,138.3,106.5,138.6,106,138.6L106,138.6z
		 M81.9,136h23.2c0.5-1.5,1-3.1,1.4-4.9c0.1-0.4,0.4-0.7,0.7-0.9c0.4-0.2,0.8-0.1,1.1,0l9.3,4.9v-20.5l-7.3-3.9
		c-0.4-0.2-0.7-0.7-0.7-1.2c0.1-2.2,0.2-4.5,0.2-6.9c0-22.6-12.6-41.8-16.3-46.9c-3.7,5.1-16.3,24.3-16.3,46.9c0,2.4,0.1,4.7,0.2,7
		c0,0.5-0.2,1-0.7,1.2l-7.1,3.8v20.5l9.1-4.8c0.4-0.2,0.8-0.2,1.1,0c0.4,0.2,0.6,0.5,0.7,0.9C81,133,81.4,134.6,81.9,136L81.9,136z"
		/>
	<circle class="st4" cx="126.2" cy="79.1" r="25.5"/>
	<path class="st3" d="M126.2,105.9c-14.8,0-26.8-12-26.8-26.8c0-14.8,12-26.8,26.8-26.8s26.8,12,26.8,26.8
		C153,93.9,141,105.9,126.2,105.9L126.2,105.9z M126.2,54.9c-13.3,0-24.2,10.9-24.2,24.2c0,13.3,10.9,24.2,24.2,24.2
		c13.3,0,24.2-10.9,24.2-24.2C150.4,65.8,139.6,54.9,126.2,54.9L126.2,54.9z"/>
	<g>
		<polyline class="st4" points="128.1,62.7 128.1,81.1 114.3,81.1 		"/>
		<path class="st3" d="M128.1,82.4h-13.8c-0.7,0-1.3-0.6-1.3-1.3s0.6-1.3,1.3-1.3h12.5V62.7c0-0.7,0.6-1.3,1.3-1.3
			c0.7,0,1.3,0.6,1.3,1.3v18.4C129.4,81.8,128.8,82.4,128.1,82.4L128.1,82.4z"/>
	</g>
	<circle class="st3" cx="93.2" cy="100.7" r="3.8"/>
	<circle class="st3" cx="93.2" cy="119.9" r="4.3"/>
</g>
</svg>
