<?xml version="1.0" encoding="utf-8"?>
<!-- Generator: Adobe Illustrator 21.1.0, SVG Export Plug-In . SVG Version: 6.00 Build 0)  -->
<svg version="1.1" id="Layer_1" xmlns="http://www.w3.org/2000/svg" xmlns:xlink="http://www.w3.org/1999/xlink" x="0px" y="0px"
	 viewBox="0 0 196.7 196.2" style="enable-background:new 0 0 196.7 196.2;" xml:space="preserve">
<style type="text/css">
	.st0{fill:#EBEBEB;}
	.st1{fill:#F8B947;}
	.st2{fill:#FFFFFF;}
	.st3{fill:#333333;}
	.st4{fill:#FFD877;}
</style>
<g>
	<ellipse class="st0" cx="98.7" cy="98.1" rx="98" ry="98.1"/>
	<ellipse class="st1" cx="93.2" cy="93.7" rx="93.2" ry="93.2"/>
</g>
<g>
	<g>
		<path class="st2" d="M92.2,62.3l-17.4-4.7l-4.3,3.6c-1.3-2-2-4.4-2-6.8v-3.9c0-2.2,1.8-4,4-4c2.2,0,4,1.8,4,4V52
			c0,0.4,0.4,0.8,0.8,0.8c0.4,0,0.8-0.4,0.8-0.8v-1.6c0-2.2,1.8-4,4-4c2.2,0,4,1.8,4,4V52c0,0.4,0.4,0.8,0.8,0.8
			c0.4,0,0.8-0.4,0.8-0.8v-1.6c0-2.2,1.8-4,4-4s4,1.8,4,4v3.9c0,2.4-0.7,4.8-2,6.8L92.2,62.3z M92.2,62.3"/>
		<path class="st3" d="M67.2,86l-3.2-1.6H59V60.7H47.9v30H59v-3.2h4.4l3.2,1.6h2V86H67.2z M55.8,87.6h-4.7V63.9h4.7L55.8,87.6
			L55.8,87.6z M55.8,87.6"/>
		<path class="st2" d="M82.7,120.8c-0.3,0-0.6,0-0.9,0c-10.7-0.4-19.5-9.5-19.7-20.2c-0.1-5.5,2-10.7,5.8-14.7
			c3.4-3.5,5.3-7.8,5.3-12.2l7.9-5.1l3.2,3.2v15.8h11.1l1.9-1.9c3.9,3.9,6.1,9,6.1,14.6c0,5.6-2.2,10.9-6.3,14.8
			C93,118.8,88,120.8,82.7,120.8L82.7,120.8z M82.7,120.8"/>
		<path class="st3" d="M90.6,97.1v-0.8c0-3.1-2.5-5.5-5.5-5.5h-0.8v-3.2h-3.2v3.2h-0.8c-3,0-5.5,2.5-5.5,5.5c0,3.1,2.5,5.5,5.5,5.5
			H85c1.3,0,2.4,1.1,2.4,2.4c0,1.3-1.1,2.4-2.4,2.4h-4.7c-1.3,0-2.4-1.1-2.4-2.4v-0.8h-3.2v0.8c0,3.1,2.5,5.5,5.5,5.5h0.8v3.2h3.2
			v-3.2H85c3.1,0,5.5-2.5,5.5-5.5c0-3-2.5-5.5-5.5-5.5h-4.7c-1.3,0-2.4-1.1-2.4-2.4c0-1.3,1.1-2.4,2.4-2.4H85c1.3,0,2.4,1.1,2.4,2.4
			v0.8H90.6z M90.6,97.1"/>
		<path class="st3" d="M97.2,68.6c0.8-0.8,1.2-1.9,1.2-3.2c0-2.6-2.1-4.7-4.7-4.7h-5.9l-1.1-1.4l-12.4-3.5l-9.7,8.1h-7.3V67h8.5
			l9.3-7.7l9.8,2.8l3.3,4.2c0.4,0.6,0.6,1.2,0.5,1.9c-0.1,0.7-0.4,1.3-1,1.7c-1,0.8-2.5,0.7-3.4-0.2l-3.2-3.2l-9,7.2l2,2.5l6.8-5.4
			l1.2,1.2c0.2,0.2,0.4,0.3,0.6,0.5c0.1,1.2,0.5,1.8,1.2,2.5c-0.8,0.8-1.2,1.9-1.2,3.2c0,1.2,0.5,2.3,1.2,3.2
			c-0.8,0.8-1.2,1.9-1.2,3.2c0,2.6,2.1,4.7,4.7,4.7h6.3c2.6,0,4.7-2.1,4.7-4.7c0-1.2-0.5-2.3-1.2-3.2c0.8-0.8,1.2-1.9,1.2-3.2
			c0-1.2-0.5-2.3-1.2-3.2c0.8-0.8,1.2-1.9,1.2-3.2C98.5,70.6,98,69.5,97.2,68.6L97.2,68.6z M93.7,86h-6.3c-0.9,0-1.6-0.7-1.6-1.6
			c0-0.9,0.7-1.6,1.6-1.6h6.3c0.9,0,1.6,0.7,1.6,1.6C95.3,85.3,94.6,86,93.7,86L93.7,86z M93.7,79.7h-6.3c-0.9,0-1.6-0.7-1.6-1.6
			c0-0.9,0.7-1.6,1.6-1.6h6.3c0.9,0,1.6,0.7,1.6,1.6C95.3,79,94.6,79.7,93.7,79.7L93.7,79.7z M93.7,73.3h-5.9
			c0.6-0.2,1.2-0.5,1.8-0.9c0.8-0.6,1.4-1.4,1.8-2.3h2.3c0.9,0,1.6,0.7,1.6,1.6C95.3,72.6,94.6,73.3,93.7,73.3L93.7,73.3z M93.7,67
			h-1.9c-0.1-1-0.5-1.9-1.2-2.8l-0.3-0.4h3.4c0.9,0,1.6,0.7,1.6,1.6S94.6,67,93.7,67L93.7,67z M93.7,67"/>
		<path class="st3" d="M134.8,120.8v4.7h-10.6l-4.3-2.9l-13.3-4.7c-1.3-0.4-2.6-0.4-3.8,0.3c-1.2,0.6-2.1,1.7-2.5,2.9
			c-0.7,2.2,0.3,4.6,2.4,5.7l3.4,1.8l-5,0l-2-5.1c-0.7-1.7-2.3-2.8-4.1-2.8c-1.4,0-2.7,0.7-3.6,1.8c-0.8,1.1-1,2.6-0.6,4l0.5,1.4
			l-3.5-1.9c-1.1-0.6-2.4-0.7-3.6-0.3c-1.2,0.4-2.2,1.3-2.7,2.4c-1,2.2-0.1,4.9,2.1,5.9l7.8,3.9l16.2,3.3l21,0l6.2-1.2v4.4h11.1
			v-23.7H134.8z M94,124.4c0.5-0.7,1.8-0.6,2.1,0.3l1.6,4l-2.8,0l-1-3.1C93.7,125.2,93.8,124.8,94,124.4L94,124.4z M128.4,138.2
			h-20.2l-15.4-3.1l-7.6-3.8c-0.7-0.3-1-1.1-0.6-1.8c0.2-0.4,0.4-0.6,0.8-0.7c0.4-0.1,0.8-0.1,1.1,0.1l5.4,3h15l6.2-3.1l-8.8-4.7
			c-0.7-0.4-1.1-1.2-0.8-2c0.1-0.5,0.4-0.8,0.9-1c0.4-0.2,0.9-0.2,1.4-0.1l12.8,4.5l5,3.3h11.5v8.2L128.4,138.2z M142.7,141.3H138
			v-17.4h4.7V141.3z M142.7,141.3"/>
	</g>
	<path class="st4" d="M127.9,138.2h-20.2l-15.4-3.1l-7.6-3.8c-0.7-0.3-1-1.1-0.6-1.8c0.2-0.4,0.4-0.6,0.8-0.7
		c0.4-0.1,0.8-0.1,1.1,0.1l5.4,3h15l6.2-3.1l-8.8-4.7c-0.7-0.4-1.1-1.2-0.8-2c0.1-0.5,0.4-0.8,0.9-1c0.4-0.2,0.9-0.2,1.4-0.1
		l12.8,4.5l5,3.3h11.5v8.2L127.9,138.2z"/>
</g>
</svg>
