<?xml version="1.0" encoding="utf-8"?>
<!-- Generator: Adobe Illustrator 21.1.0, SVG Export Plug-In . SVG Version: 6.00 Build 0)  -->
<svg version="1.1" id="Layer_1" xmlns="http://www.w3.org/2000/svg" xmlns:xlink="http://www.w3.org/1999/xlink" x="0px" y="0px"
	 viewBox="0 0 58 58" style="enable-background:new 0 0 58 58;" xml:space="preserve">
<style type="text/css">
	.st0{fill:#F8B947;}
	.st1{fill:#484848;}
</style>
<circle class="st0" cx="29" cy="29" r="28"/>
<g>
	<path class="st1" d="M40.8,27.4V10.1H17.2v17.5l-3.5,1.5v18.7h30.7V29.2L40.8,27.4z M39.6,11.3v20.5L29,38.4l-10.7-6.6V11.3H39.6z
		 M43.2,46.7H14.8V30l2.3-1v2.1l-0.4-0.2h-1.3V32h1L29,39.7L41.6,32h1v-1.2h-1.3l-0.5,0.3v-2.4l2.4,1.2V46.7z"/>
	<polygon class="st1" points="16.4,45 15.5,45 15.5,46.2 16.8,46.2 26.4,39.6 25.7,38.6 	"/>
	<polygon class="st1" points="32.3,38.6 31.6,39.6 41.2,46.2 42.5,46.2 42.5,45 41.6,45 	"/>
	<path class="st1" d="M28.9,22.5c0.4,0,0.7-0.1,1.1-0.2c0.4-0.1,0.7-0.3,1-0.6L30.7,21c-0.5,0.5-1.1,0.7-1.7,0.7
		c-0.8,0-1.5-0.3-2.1-0.9c-0.6-0.6-0.9-1.3-0.9-2.2s0.3-1.6,0.9-2.3c0.6-0.6,1.4-0.9,2.2-0.9c0.9,0,1.6,0.3,2.1,0.9
		c0.5,0.6,0.8,1.4,0.8,2.3c0,0.4-0.1,0.8-0.2,1.1c-0.1,0.3-0.3,0.4-0.5,0.4c-0.2,0-0.3-0.2-0.3-0.5v-3.1h-1.2v0.4l-0.1-0.1
		c-0.1-0.1-0.2-0.2-0.4-0.3c-0.2-0.1-0.4-0.1-0.6-0.1c-0.6,0-1.1,0.2-1.5,0.7c-0.4,0.4-0.6,1-0.6,1.6c0,0.6,0.2,1.2,0.6,1.6
		c0.4,0.4,0.9,0.6,1.4,0.6c0.6,0,1-0.2,1.4-0.7c0.1,0.2,0.2,0.4,0.4,0.6c0.2,0.2,0.4,0.2,0.7,0.2c0.5,0,0.9-0.2,1.2-0.7
		c0.3-0.4,0.4-1,0.4-1.7c0-1.1-0.4-2-1.1-2.8c-0.7-0.7-1.6-1.1-2.7-1.1s-2,0.4-2.8,1.2c-0.8,0.8-1.2,1.7-1.2,2.8s0.4,2,1.1,2.7
		C26.9,22.1,27.9,22.5,28.9,22.5z M29.6,19.5c-0.2,0.2-0.4,0.3-0.7,0.3c-0.3,0-0.5-0.1-0.7-0.4c-0.2-0.2-0.2-0.5-0.2-0.8
		s0.1-0.6,0.2-0.8c0.2-0.2,0.4-0.3,0.7-0.3c0.3,0,0.5,0.1,0.7,0.3c0.2,0.2,0.3,0.5,0.3,0.8C29.9,19,29.8,19.2,29.6,19.5z"/>
	<rect x="34.4" y="13.1" class="st1" width="3.5" height="1.2"/>
	<rect x="20.2" y="23.7" class="st1" width="8.3" height="1.2"/>
	<rect x="36.1" y="14.8" class="st1" width="1.8" height="1.2"/>
	<rect x="36.7" y="16.7" class="st1" width="1.2" height="1.2"/>
	<rect x="20.2" y="26.1" class="st1" width="10.6" height="1.2"/>
	<rect x="31.9" y="26.1" class="st1" width="5.9" height="1.2"/>
	<rect x="20.2" y="28.5" class="st1" width="17.7" height="1.2"/>
	<rect x="20.2" y="30.8" class="st1" width="2.9" height="1.2"/>
	<rect x="24.3" y="30.8" class="st1" width="8.2" height="1.2"/>
	<rect x="33.7" y="30.8" class="st1" width="4.2" height="1.2"/>
	<rect x="23.6" y="33.2" class="st1" width="9.5" height="1.2"/>
	<rect x="27.2" y="35.5" class="st1" width="3.5" height="1.2"/>
	<rect x="20.2" y="13.1" class="st1" width="1.2" height="1.2"/>
	<rect x="21.9" y="13.1" class="st1" width="1.2" height="1.2"/>
	<rect x="23.6" y="13.1" class="st1" width="1.2" height="1.2"/>
</g>
</svg>
