<?xml version="1.0" encoding="utf-8"?>
<!-- Generator: Adobe Illustrator 21.1.0, SVG Export Plug-In . SVG Version: 6.00 Build 0)  -->
<svg version="1.1" id="Layer_1" xmlns="http://www.w3.org/2000/svg" xmlns:xlink="http://www.w3.org/1999/xlink" x="0px" y="0px"
	 viewBox="0 0 200 200" style="enable-background:new 0 0 200 200;" xml:space="preserve">
<style type="text/css">
	.st0{fill:#EBEBEB;}
	.st1{fill:#F8B947;}
	.st2{fill:#FFFFFF;}
	.st3{fill:#333333;}
</style>
<g>
	<ellipse class="st0" cx="100.3" cy="100" rx="98" ry="98.1"/>
	<ellipse class="st1" cx="94.8" cy="95.6" rx="93.2" ry="93.2"/>
</g>
<g>
	<path class="st2" d="M101.1,118.8c-2.6,0-5.3-0.9-7.5-2.7l-13.6-11c-2.5-2-4-4.9-4.4-8.1c-0.3-3.2,0.6-6.3,2.6-8.8l3.9-4.8
		c0.8-1,2-1.7,3.3-1.8c1.3-0.1,2.6,0.3,3.6,1.1l3.2,2.7c1,0.8,1.6,2,1.7,3.3s-0.3,2.6-1.1,3.6l-3.6,4.3c-0.1,0.1-0.1,0.3-0.1,0.3
		c0,0.1,0,0.2,0.2,0.3l9.6,7.8c0.2,0.2,0.5,0.1,0.6-0.1l3.9-4.6c1.7-2,4.8-2.3,6.8-0.6l3.3,2.7c2,1.7,2.3,4.8,0.6,6.8l0,0l-4,4.9
		C108,117.3,104.5,118.8,101.1,118.8z"/>
	<g>
		<path class="st3" d="M119.7,56H71.3c-2.4,0-4.3,2-4.3,4.3v79.8c0,2.4,1.9,4.3,4.3,4.3h48.4c2.4,0,4.3-1.9,4.3-4.3V60.3
			C124,58,122.1,56,119.7,56z M71.3,58.9h48.4c0.8,0,1.4,0.6,1.4,1.4v7.1H69.8v-7.1C69.8,59.5,70.5,58.9,71.3,58.9z M121.2,70.3
			v59.8H69.8V70.3H121.2z M119.7,141.6H95.5H71.3c-0.8,0-1.4-0.6-1.4-1.4V133h25.7h25.7v7.1C121.2,140.9,120.5,141.6,119.7,141.6z"
			/>
		<path class="st3" d="M99.8,137.3c0-2.4-1.9-4.3-4.3-4.3s-4.3,1.9-4.3,4.3s1.9,4.3,4.3,4.3S99.8,139.6,99.8,137.3z M95.5,138.7
			c-0.8,0-1.4-0.6-1.4-1.4c0-0.8,0.6-1.4,1.4-1.4s1.4,0.6,1.4,1.4C96.9,138.1,96.3,138.7,95.5,138.7z"/>
		<rect x="92.7" y="61.8" class="st3" width="11.4" height="2.8"/>
		<rect x="86.9" y="61.8" class="st3" width="2.8" height="2.8"/>
		<rect x="101.2" y="88.8" class="st3" width="2.8" height="2.8"/>
		<rect x="106.9" y="83.1" class="st3" width="2.8" height="2.8"/>
		<rect x="112.6" y="77.4" class="st3" width="2.8" height="2.8"/>
	</g>
</g>
</svg>
