<?xml version="1.0" encoding="utf-8"?>
<!-- Generator: Adobe Illustrator 21.1.0, SVG Export Plug-In . SVG Version: 6.00 Build 0)  -->
<svg version="1.1" id="Layer_1" xmlns="http://www.w3.org/2000/svg" xmlns:xlink="http://www.w3.org/1999/xlink" x="0px" y="0px"
	 viewBox="0 0 75 75" style="enable-background:new 0 0 75 75;" xml:space="preserve">
<style type="text/css">
	.st0{fill:#CCCCCC;}
</style>
<path class="st0" d="M59.5,74.5h-44c-8.3,0-15-6.7-15-15v-44c0-8.3,6.7-15,15-15h44c8.3,0,15,6.7,15,15v44
	C74.5,67.8,67.8,74.5,59.5,74.5z M15.5,2.5c-7.2,0-13,5.8-13,13v44c0,7.2,5.8,13,13,13h44c7.2,0,13-5.8,13-13v-44
	c0-7.2-5.8-13-13-13H15.5z"/>
<path class="st0" d="M40.2,37.5L55,22.7c0.7-0.7,0.7-1.9,0-2.7c-0.7-0.7-1.9-0.7-2.7,0L37.5,34.8L22.7,20c-0.7-0.7-1.9-0.7-2.7,0
	s-0.7,1.9,0,2.7l14.8,14.8L20,52.3c-0.7,0.7-0.7,1.9,0,2.7c0.7,0.7,1.9,0.7,2.7,0l14.8-14.8L52.3,55c0.7,0.7,1.9,0.7,2.7,0
	c0.7-0.7,0.7-1.9,0-2.7L40.2,37.5z"/>
</svg>
