<?xml version="1.0" encoding="utf-8"?>
<!-- Generator: Adobe Illustrator 21.1.0, SVG Export Plug-In . SVG Version: 6.00 Build 0)  -->
<svg version="1.1" id="Layer_1" xmlns="http://www.w3.org/2000/svg" xmlns:xlink="http://www.w3.org/1999/xlink" x="0px" y="0px"
	 viewBox="0 0 93 93" style="enable-background:new 0 0 93 93;" xml:space="preserve">
<style type="text/css">
	.st0{fill:#51714F;}
</style>
<g>
	<path class="st0" d="M18,74.3C18,74.3,18,74.3,18,74.3C18,74.3,18,74.3,18,74.3h6.4h0h0c0,0,0,0,0,0c0,0,0,0,0,0h2.6h12.8
		c0.8,0,1.4-0.7,1.4-1.4V66c0-6.2-4.3-9.3-6.6-10.1l-4.8-2l-3.2-2.1V51c2.5-1.4,4.3-3.8,4.8-6.6c2.2-0.4,3.8-2.3,3.8-4.6
		c0-1.2-0.5-2.3-1.2-3.1v-4.5c0-6.8-5.6-12.4-12.4-12.4h-0.9c-6.8,0-12.4,5.6-12.4,12.4v4.5c-0.7,0.8-1.2,1.9-1.2,3.1
		c0,2.3,1.6,4.2,3.8,4.6c0.5,2.9,2.3,5.3,4.8,6.6v0.7l-3.2,2.1c0,0-0.1,0-0.1,0l-4.9,2C5.3,56.7,1,59.8,1,66v6.9
		c0,0.8,0.6,1.4,1.4,1.4h9.4c0.8,0,1.4-0.6,1.4-1.4s-0.6-1.4-1.4-1.4h-1.4v-5.8c0-0.8-0.6-1.4-1.4-1.4s-1.4,0.6-1.4,1.4v5.8H3.9V66
		c0-5.7,4.5-7.4,4.7-7.4c0,0,0.1,0,0.1,0l3.5-1.4l4,14.4c-0.6,0.1-1.1,0.7-1.1,1.4c0,0.8,0.6,1.4,1.4,1.4L18,74.3L18,74.3z
		 M18.7,52.4C18.7,52.4,18.7,52.4,18.7,52.4V52c0.5,0.1,1.1,0.2,1.7,0.2h1.8c0.6,0,1.1-0.1,1.7-0.2v1.8l-2.6,2.7l-2.5-2.4V52.4z
		 M25.1,63.3c0.1,0.1,0.3,0.2,0.5,0.2l-0.8,2.7l-0.4-2.4l0.3-0.8L25.1,63.3z M22,62.2h-1.5l-0.4-1l1.1-0.8l1.2,0.9L22,62.2z
		 M17.2,63.3l0.4-0.3l0.4,0.9l-0.4,2.4l-0.8-2.8C17,63.4,17.1,63.3,17.2,63.3z M19.7,71.4l1-6.4h1l1,6.4H19.7z M33.7,58.6
		c0.2,0.1,4.7,1.7,4.7,7.4v5.4h-3.7v-5.8c0-0.8-0.6-1.4-1.4-1.4s-1.4,0.6-1.4,1.4v5.8h-4.7h-0.7l4-14.3L33.7,58.6
		C33.7,58.5,33.7,58.6,33.7,58.6z M25.5,59.9L25,59.6c0,0,0,0,0,0l-1.6-1.2l2.9-3c0.1-0.1,0.2-0.2,0.2-0.3l1,0.7L25.5,59.9z
		 M31.6,41.2v-2.9c0.5,0.3,0.8,0.9,0.8,1.5C32.4,40.4,32.1,40.9,31.6,41.2z M20.8,22.6h0.9c5.3,0,9.5,4.3,9.5,9.5v2.6c0,0,0,0,0,0
		c0,0,0,0-0.1-0.1c0,0,0,0,0,0c0,0,0,0-0.1,0c0,0,0,0-0.1,0c0,0,0,0-0.1,0c0,0,0,0-0.1,0c0,0,0,0-0.1,0c0,0-0.1,0-0.1,0c0,0,0,0,0,0
		c0,0-0.1,0-0.1,0c0,0,0,0,0,0c-3-0.7-3.9-4.5-3.9-4.6c-0.1-0.6-0.6-1-1.1-1.1c-0.6-0.1-1.1,0.1-1.5,0.6c-3.6,5-11.6,5.1-11.7,5.1h0
		c0,0,0,0,0,0c0,0-0.1,0-0.1,0c0,0,0,0,0,0c0,0-0.1,0-0.1,0c0,0,0,0,0,0c0,0-0.1,0-0.1,0c0,0,0,0-0.1,0c0,0,0,0-0.1,0c0,0,0,0-0.1,0
		c0,0,0,0-0.1,0c0,0,0,0-0.1,0c0,0,0,0-0.1,0c0,0,0,0-0.1,0c0,0,0,0,0,0c0,0,0,0-0.1,0c0,0,0,0,0,0c0,0,0,0,0,0v-2.6
		C11.3,26.9,15.5,22.6,20.8,22.6z M10.1,39.8c0-0.6,0.3-1.1,0.8-1.5v2.9C10.4,40.9,10.1,40.4,10.1,39.8z M13.7,42.6v-5.5
		c2.4-0.2,7.4-1.1,11-4.3c0.7,1.4,2,3.1,4.1,4v5.8c0,3.7-3,6.6-6.6,6.6h-1.8C16.7,49.3,13.7,46.3,13.7,42.6z M15.9,55.1
		c0.1,0.2,0.2,0.5,0.4,0.6l2.8,2.7l-2.1,1.5l-2-4.2L15.9,55.1z"/>
	<path class="st0" d="M17.4,15.4C25.3,8,35.6,3.9,46.5,3.9c9.8,0,19.1,3.3,26.7,9.4h-2.3c-0.8,0-1.4,0.6-1.4,1.4
		c0,0.8,0.6,1.4,1.4,1.4h5.7c0.8,0,1.4-0.6,1.4-1.4V9.5c0-0.8-0.6-1.4-1.4-1.4s-1.4,0.6-1.4,1.4v1.6C67,4.6,57,1,46.5,1
		C34.9,1,23.9,5.4,15.4,13.3c-0.6,0.5-0.6,1.5-0.1,2C15.9,15.9,16.8,15.9,17.4,15.4z"/>
	<path class="st0" d="M74.4,78.6c-7.7,6.7-17.7,10.5-28,10.5c-9.2,0-18.2-3-25.5-8.5h2.4c0.8,0,1.4-0.6,1.4-1.4
		c0-0.8-0.6-1.4-1.4-1.4h-5.7c-0.8,0-1.4,0.6-1.4,1.4v5.2c0,0.8,0.6,1.4,1.4,1.4s1.4-0.6,1.4-1.4v-1.6c7.9,6,17.5,9.2,27.5,9.2
		c11,0,21.6-4,29.8-11.2c0.6-0.5,0.7-1.4,0.1-2C75.9,78.2,75,78.1,74.4,78.6z"/>
	<path class="st0" d="M85.4,55.9l-4.8-2l-3.2-2.1V51c2.5-1.4,4.3-3.8,4.8-6.6c2.2-0.4,3.8-2.3,3.8-4.6c0-1.2-0.5-2.3-1.2-3.1v-4.5
		c0-6.8-5.6-12.4-12.4-12.4h-0.9c-6.8,0-12.4,5.6-12.4,12.4v4.5c-0.7,0.8-1.2,1.9-1.2,3.1c0,2.3,1.6,4.2,3.8,4.6
		c0.5,2.9,2.3,5.3,4.8,6.6v0.7l-3.2,2.1c0,0-0.1,0-0.1,0l-4.9,2c-2.3,0.8-6.6,3.9-6.6,10.1v6.9c0,0.8,0.6,1.4,1.4,1.4h9.4
		c0.8,0,1.4-0.6,1.4-1.4c0-0.8-0.6-1.4-1.4-1.4h-1.4v-5.8c0-0.8-0.6-1.4-1.4-1.4c-0.8,0-1.4,0.6-1.4,1.4v5.8h-3.7V66
		c0-5.7,4.5-7.4,4.7-7.4c0,0,0.1,0,0.1,0l3.5-1.4l4,14.4c-0.6,0.1-1.1,0.7-1.1,1.4c0,0.8,0.6,1.4,1.4,1.4h1.6c0,0,0,0,0,0
		c0,0,0,0,0,0h6.4h0h0c0,0,0,0,0,0c0,0,0,0,0,0h2.6h12.8c0.8,0,1.4-0.7,1.4-1.4V66C92,59.8,87.7,56.7,85.4,55.9z M69.4,52.4
		C69.4,52.4,69.4,52.4,69.4,52.4V52c0.5,0.1,1.1,0.2,1.7,0.2h1.8c0.6,0,1.1-0.1,1.7-0.2v1.8l-2.6,2.7l-2.5-2.4L69.4,52.4L69.4,52.4z
		 M75.9,63.3c0.1,0.1,0.3,0.2,0.5,0.2l-0.8,2.7l-0.4-2.4l0.3-0.8L75.9,63.3z M67.9,63.3l0.4-0.3l0.4,0.9l-0.4,2.4l-0.8-2.8
		C67.7,63.4,67.8,63.3,67.9,63.3z M71.2,62.2l-0.4-1l1.1-0.8l1.2,0.9l-0.4,1L71.2,62.2L71.2,62.2z M76.2,59.9l-0.5-0.4c0,0,0,0,0,0
		l-1.6-1.2l2.9-3c0.1-0.1,0.2-0.2,0.2-0.3l1,0.7L76.2,59.9z M82.4,41.2v-2.9c0.5,0.3,0.8,0.9,0.8,1.5C83.1,40.4,82.8,40.9,82.4,41.2
		z M71.5,22.6h0.9c5.2,0,9.5,4.3,9.5,9.5v2.6c0,0,0,0,0,0c0,0,0,0-0.1-0.1c0,0,0,0,0,0c0,0,0,0-0.1,0c0,0,0,0-0.1,0c0,0,0,0-0.1,0
		c0,0,0,0-0.1,0c0,0,0,0-0.1,0c0,0-0.1,0-0.1,0c0,0,0,0,0,0c0,0-0.1,0-0.1,0c0,0,0,0,0,0c-3-0.7-3.9-4.5-3.9-4.6
		c-0.1-0.6-0.6-1-1.1-1.1c-0.6-0.1-1.1,0.1-1.5,0.6c-3.6,5-11.6,5.1-11.7,5.1h0c0,0,0,0,0,0c0,0-0.1,0-0.1,0c0,0,0,0,0,0
		c0,0-0.1,0-0.1,0c0,0,0,0,0,0c0,0-0.1,0-0.1,0c0,0,0,0-0.1,0c0,0,0,0-0.1,0c0,0,0,0-0.1,0c0,0,0,0-0.1,0c0,0,0,0-0.1,0
		c0,0,0,0-0.1,0c0,0,0,0-0.1,0c0,0,0,0,0,0c0,0,0,0-0.1,0c0,0,0,0,0,0c0,0,0,0,0,0v-2.6C62,26.9,66.3,22.6,71.5,22.6z M60.8,39.8
		c0-0.6,0.3-1.1,0.8-1.5v2.9C61.1,40.9,60.8,40.4,60.8,39.8z M64.5,42.6v-5.5c2.4-0.2,7.4-1.1,11-4.3c0.7,1.4,2,3.1,4.1,4v5.8
		c0,3.7-3,6.6-6.6,6.6h-1.8C67.4,49.3,64.5,46.3,64.5,42.6z M66.6,55.1c0.1,0.2,0.2,0.5,0.4,0.6l2.8,2.7l-2.1,1.5l-2-4.2L66.6,55.1z
		 M70.4,71.4l1-6.4h1l1,6.4H70.4z M89.1,71.4h-3.7v-5.8c0-0.8-0.6-1.4-1.4-1.4s-1.4,0.6-1.4,1.4v5.8h-4.7h-0.7l4-14.3l3.3,1.4
		c0,0,0.1,0,0.1,0c0.2,0.1,4.7,1.7,4.7,7.4L89.1,71.4L89.1,71.4z"/>
</g>
</svg>
