<svg id="Слой_1" data-name="Слой 1" xmlns="http://www.w3.org/2000/svg" viewBox="0 0 49.75 49.75"><defs><style>.cls-1{fill:#f0f5f8;}.cls-2{fill:#0583ae;}</style></defs><title>трубка</title><circle class="cls-1" cx="24.88" cy="24.88" r="24.88"/><path class="cls-2" d="M148.28,140l.27.24a31.37,31.37,0,0,0,6.32,4.92,9,9,0,0,0,5.53,1.07,3.29,3.29,0,0,0,2-1.08c.91-1,2.38-2.64,2.61-2.86a.72.72,0,0,0,0-1.08c-.58-.5-3.92-3.08-4.67-3s-2,.88-3,1.13-1.83.48-2.83-.25-2.79-2.42-2.79-2.42l-.6-.46a3.32,3.32,0,0,1-.42-.38c-.46-.5-1.65-1.79-2.22-2.58-.73-1-.5-1.75-.25-2.83s1-2.29,1.13-3-2.5-4.08-3-4.67a.72.72,0,0,0-1.08,0c-.23.23-1.86,1.7-2.86,2.61a3.29,3.29,0,0,0-1.08,2,9,9,0,0,0,1.07,5.53,31.36,31.36,0,0,0,4.91,6.31l.25.22Z" transform="translate(-127.64 -109.46)"/></svg>