<?xml version="1.0" encoding="utf-8"?>
<!-- Generator: Adobe Illustrator 21.1.0, SVG Export Plug-In . SVG Version: 6.00 Build 0)  -->
<svg version="1.1" id="Layer_1" xmlns="http://www.w3.org/2000/svg" xmlns:xlink="http://www.w3.org/1999/xlink" x="0px" y="0px"
	 viewBox="0 0 120 102" style="enable-background:new 0 0 120 102;" xml:space="preserve">
<style type="text/css">
	.st0{fill:#86CB90;}
	.st1{fill:#454545;}
</style>
<g>
	<path class="st0" d="M85,58.5h15.4C96.8,82.6,76.1,101,51,101C23.4,101,1,78.6,1,51S23.4,1,51,1c25.1,0,45.8,18.4,49.4,42.5H85
		V58.5z M119,51c-4.5,1.2-8,2.6-11,5c0.2-1.6,0.7-2.5,2-4.2H96v-1.6h13.9c-1.2-1.6-1.9-2.7-1.9-4.1C110.8,48.5,114.5,49.8,119,51z"
		/>
	<g>
		<path class="st1" d="M73.6,68.8V43.1c0-2.3-1.9-4.1-4.1-4.1H67V25.8H35.5V39H33c-2.3,0-4.1,1.9-4.1,4.1v25.7h-3.3v4.9
			c0,1.9,1.5,3.4,3.4,3.4h44.6c1.9,0,3.4-1.5,3.4-3.4v-4.9H73.6z M69.5,40.7c1.4,0,2.5,1.1,2.5,2.5v25.7h-1.7V42.3H67v-1.7h2.5V40.7
			z M47.1,70.5h8.3v1.7h-8.3V70.5z M33.9,68.8V44h1.7v20.7H67V44h1.7v24.8H33.9z M37.2,27.4h28.2V63H37.2V27.4z M30.5,43.1
			c0-1.4,1.1-2.5,2.5-2.5h2.5v1.7h-3.3v26.5h-1.7V43.1z M75.3,73.7c0,1-0.8,1.7-1.7,1.7H29c-1,0-1.7-0.8-1.7-1.7v-3.2h18.2v3.3H57
			v-3.3h18.2v3.2H75.3z"/>
		<path class="st1" d="M61.2,39c0-5.5-4.5-9.9-9.9-9.9s-9.9,4.5-9.9,9.9s4.5,9.9,9.9,9.9S61.2,44.5,61.2,39z M47.1,46.2v-1.4
			c0-2.3,1.9-4.1,4.1-4.1s4.1,1.9,4.1,4.1v1.4c-1.2,0.7-2.6,1.1-4.1,1.1S48.3,46.9,47.1,46.2z M48.8,36.5c0-1.4,1.1-2.5,2.5-2.5
			s2.5,1.1,2.5,2.5S52.6,39,51.2,39C49.9,39,48.8,37.9,48.8,36.5z M57,44.9L57,44.9c0-2.3-1.3-4.3-3.1-5.2c0.9-0.8,1.5-1.9,1.5-3.1
			c0-2.3-1.9-4.1-4.1-4.1s-4.1,1.9-4.1,4.1c0,1.3,0.6,2.4,1.5,3.1c-1.9,1-3.1,2.9-3.1,5.1v0.1C43.9,43.4,43,41.3,43,39
			c0-4.6,3.7-8.3,8.3-8.3s8.3,3.7,8.3,8.3C59.5,41.3,58.6,43.4,57,44.9z"/>
		<path class="st1" d="M38.8,58h11.6v-8.3H38.8V58z M40.5,51.4h8.3v5h-8.3V51.4z"/>
		<rect x="38.8" y="59.7" class="st1" width="11.6" height="1.7"/>
		<path class="st1" d="M52.1,58h11.6v-8.3H52.1V58z M53.7,51.4H62v5h-8.3V51.4z"/>
		<rect x="62" y="59.7" class="st1" width="1.7" height="1.7"/>
		<rect x="52.1" y="59.7" class="st1" width="8.3" height="1.7"/>
	</g>
</g>
</svg>
