<?xml version="1.0" encoding="utf-8"?>
<!-- Generator: Adobe Illustrator 21.1.0, SVG Export Plug-In . SVG Version: 6.00 Build 0)  -->
<svg version="1.1" id="Layer_1" xmlns="http://www.w3.org/2000/svg" xmlns:xlink="http://www.w3.org/1999/xlink" x="0px" y="0px"
	 viewBox="0 0 200 200" style="enable-background:new 0 0 200 200;" xml:space="preserve">
<style type="text/css">
	.st0{fill:#EBEBEB;}
	.st1{fill:#F8B947;}
	.st2{fill:#FFFFFF;}
</style>
<g>
	<ellipse class="st0" cx="100.3" cy="100" rx="98" ry="98.1"/>
	<ellipse class="st1" cx="94.8" cy="95.6" rx="93.2" ry="93.2"/>
</g>
<g>
	<g>
		<path d="M126.6,49H61.2c-0.6,0-1,0.5-1,1v96.8c0,0.6,0.5,1,1,1h65.4c3,0,5.5-2.4,5.5-5.5V54.5C132.1,51.5,129.6,49,126.6,49
			L126.6,49z M62.2,51.1h64.4c1.9,0,3.4,1.5,3.4,3.4v81.2c0,1.9-1.5,3.4-3.4,3.4H62.2V51.1z M126.6,145.8H62.2v-4.6h64.4
			c1.3,0,2.5-0.4,3.4-1.2v2.4C130,144.3,128.5,145.8,126.6,145.8L126.6,145.8z M116,109.1H75.5c-1.8,0-3.2,1.5-3.2,3.2v15.8
			c0,1.8,1.5,3.2,3.2,3.2H116c1.8,0,3.2-1.5,3.2-3.2v-15.8C119.3,110.6,117.8,109.1,116,109.1L116,109.1z M117.2,128.2
			c0,0.7-0.5,1.2-1.2,1.2H75.5c-0.7,0-1.2-0.5-1.2-1.2v-15.8c0-0.7,0.5-1.2,1.2-1.2H116c0.7,0,1.2,0.5,1.2,1.2V128.2z M112.5,115.5
			c0,0.6-0.5,1-1,1H88.9c-0.6,0-1-0.5-1-1c0-0.6,0.5-1,1-1h22.6C112.1,114.4,112.5,114.9,112.5,115.5L112.5,115.5z M79,115.5
			c0-0.6,0.5-1,1-1h2.2c0.6,0,1,0.5,1,1c0,0.6-0.5,1-1,1H80C79.5,116.5,79,116,79,115.5L79,115.5z M112.5,120c0,0.6-0.5,1-1,1H80
			c-0.6,0-1-0.5-1-1c0-0.6,0.5-1,1-1h31.5C112.1,118.9,112.5,119.4,112.5,120L112.5,120z M112.5,124.5c0,0.6-0.5,1-1,1H80
			c-0.6,0-1-0.5-1-1c0-0.6,0.5-1,1-1h31.5C112.1,123.4,112.5,123.9,112.5,124.5L112.5,124.5z M128.4,143.6c0,0.6-0.5,1-1,1H66.6
			c-0.6,0-1-0.5-1-1c0-0.6,0.5-1,1-1h60.8C127.9,142.6,128.4,143.1,128.4,143.6L128.4,143.6z M119.3,62.1c0,0.6-0.5,1-1,1h-45
			c-0.6,0-1-0.5-1-1c0-0.6,0.5-1,1-1h45C118.8,61.1,119.3,61.5,119.3,62.1L119.3,62.1z"/>
	</g>
	<g>
		<path class="st2" d="M88.3,78.5c0.3-0.2,0.7-0.5,1.4-0.5c-0.6-0.3-1.2-0.2-1.8,0c-0.6,0.3-1.1,0.3-1.7-0.2
			C86.5,78.8,87.2,79.1,88.3,78.5z"/>
		<polygon class="st2" points="107.9,94.6 107.9,94 108.5,94 108.5,93.8 107.9,93.8 107.9,93.1 107.6,93.1 107.6,93.8 107,93.8 
			107,94 107.6,94 107.6,94.6 		"/>
		<path class="st2" d="M112,82.9c-0.6,0-1,0.1-1.4,0.2c-0.3,0.1-0.7,0.1-1,0.2s-0.7,0.1-1.2,0.2l0,0c0.4-0.1,0.8-0.1,1.2-0.2
			c0.3-0.1,0.6-0.1,1-0.2c0.9-0.2,1.7-0.6,2.5-1.3c1.1-1,0.3-1.2-1.1-0.9c-1.7,0.5-1.9,0.9-3.3,1.2l0,0c1.5-0.6,3-1.1,4-2.6
			c0.8-1.2,0.1-1.2-1.3-0.5c-0.3,0.1-0.5,0.2-0.7,0.4c-0.4,0.4-0.9,0.7-1.4,1c-0.3,0.2-0.6,0.4-1.1,0.6c-0.3,0.2-0.6,0.4-0.8,0.5
			c-0.1,0.1-0.3,0.2-0.4,0.3c0.1-0.1,0.2-0.2,0.3-0.2c0,0,0.1,0,0.1-0.1c0.2-0.1,0.3-0.2,0.5-0.3c0.5-0.3,1-0.6,1.4-0.8
			c0.5-0.3,0.8-0.6,1.4-1c0.6-0.5,1.2-1.2,1.6-2.1c0.4-1,0.2-2.1-0.6-1.4c-0.7,0.6-1.3,1.2-1.8,1.8c-0.5,0.7-1.2,1.3-1.8,1.9
			c-0.4,0.3-0.8,0.6-1.1,0.8c-0.3,0.2-0.6,0.4-1,0.7c0.6-0.6,1-0.7,1.7-1.5c0.8-0.6,1.5-1.2,2.2-1.9c0.8-1,1.3-2.1,1.5-3.3
			c0.1-1.1-0.1-2.2-0.7-1.3c-1.2,1.7-1.9,3.2-2.9,4.6c-0.1-0.4-0.6-0.4-0.9,0.3c-0.3,0.6-0.7,1.2-1,1.5c-0.1-0.2-0.2-0.2-0.4,0.1
			c-0.4,0.3-0.7,0.6-0.9,0.9c-0.5,0.4-1,0.9-1.4,1.3c-0.7,0.7-0.9,1.6,0,2c1.7,2-1.5,3-2.5,1.2c0.4,0.1,1.2-0.9,1-1.4
			c-0.4,0.5-1.7,0.4-2.4,0.1c0.4,0,0.9,0.1,1.2-0.1c-0.4-0.1-0.7-0.2-1-0.4c0.4,0.1,1,0,1.1-0.7c-0.4,0.5-0.9,0.4-1.4-0.3
			c-0.8-1.2-0.1-2,0.2-2.9c0,0.1,0,0.1,0,0.2c0.4-0.6,0.8-0.8,1-1s0.8-0.4,1.4-0.9c0.1-0.1,0.3-0.3,0.5-0.4
			c-0.1,0.2-0.3,0.3-0.5,0.4c-0.7,0.5-1,0.6-1.3,0.9c0.1,0.2,0.5,0.1,1,0c1-0.2,1.4,0.1,1.3,1c0,0,0.4-0.1,0.4-0.6
			c0-0.6-0.7-1-1.2-0.8c-0.5,0.1-0.8,0.4-1.2,0.3c0.7,0,1.7-0.9,1.7-0.9c1-0.5,1.8-0.4,2.2,0.3c0.1-1.2,0.6-2-1.2-2.1l-0.8,0.9
			l0.7-0.9c0.2-0.2-0.2-0.6-0.4-0.3l-0.5,0.7l0.5-0.7c0.1-0.2-0.3-0.3-0.6-0.3c-1.6,0-3.7,0.4-4.9,0c0.4,0.7,1.4,1,1.7,1
			C98.8,76.1,98,76,98,76c0.1,0.3,0.5,0.5,0.8,0.5c-0.8,0.2-1.4,0.8-2.2,1c0.4,0.1,0.8,0.1,1.2-0.1c-1.3,0.9-0.9,1.7-1.7,2.1
			c0.2,0,0.4,0,0.5-0.1c-0.4,0.6-0.6,1.3-0.7,2.2l0,0c-0.1,0.3-0.1,0.5-0.2,0.8c0-0.3-0.1-0.5-0.2-0.8l0,0c-0.1-0.8-0.3-1.6-0.7-2.2
			c0.2,0.1,0.3,0.1,0.5,0.1c-0.8-0.4-0.4-1.2-1.7-2.1c0.4,0.1,0.8,0.1,1.2,0c-0.8-0.2-1.4-0.7-2.2-1c0.4,0,0.7-0.2,0.8-0.5
			c0,0-0.8,0.2-1.3,0.1c0.3,0,1.3-0.3,1.7-1c-1.1,0.4-3.2,0-4.9,0c-0.3,0-0.7,0.1-0.6,0.3l0.5,0.7l-0.5-0.7
			c-0.2-0.2-0.5,0.1-0.4,0.3l0.7,0.9l-0.8-0.9c-1.8,0.1-1.3,0.9-1.2,2.1c0.4-0.7,1.1-0.8,2.2-0.3c0,0,1,0.9,1.7,0.9
			c-0.3,0.1-0.7-0.2-1.2-0.3c-0.5-0.1-1.2,0.3-1.2,0.8c0,0.6,0.4,0.6,0.4,0.6c-0.1-0.9,0.3-1.2,1.3-1c0.5,0.1,0.9,0.2,1,0
			c-0.3-0.4-0.6-0.4-1.3-0.9c-0.2-0.1-0.3-0.3-0.5-0.4c0.2,0.2,0.3,0.3,0.5,0.4c0.6,0.4,1.2,0.6,1.4,0.9c0.2,0.3,0.6,0.4,1,1
			c0-0.1,0-0.2,0-0.3c0.2,0.9,1,1.8,0.2,2.9c-0.5,0.7-0.9,0.8-1.4,0.3c0.1,0.7,0.6,0.8,1.1,0.7c-0.3,0.2-0.6,0.3-1,0.4
			c0.2,0.2,0.7,0.1,1.2,0.1c-0.7,0.3-2,0.4-2.4-0.1c-0.2,0.5,0.5,1.5,1,1.4c-1,1.8-4.1,0.7-2.5-1.2c0.9-0.5,0.7-1.4,0-2
			c-0.5-0.4-1-0.9-1.4-1.3c-0.2-0.3-0.5-0.6-0.9-0.9c-0.2-0.2-0.3-0.2-0.4-0.1c-0.3-0.4-0.7-0.9-1-1.5c-0.3-0.7-0.8-0.8-0.9-0.3
			c-1-1.3-1.9-2.9-3-4.6c-0.6-0.9-0.8,0.2-0.7,1.3c0.2,1.3,0.7,2.3,1.5,3.3c0.7,0.7,1.4,1.3,2.2,1.9c0.7,0.8,1.1,1,1.7,1.5
			c-0.3-0.3-0.6-0.5-0.9-0.6c-0.4-0.3-0.8-0.6-1.2-0.9c-0.7-0.6-1.3-1.3-1.8-1.9c-0.6-0.5-1.1-1.1-1.8-1.7c-0.8-0.7-1,0.5-0.6,1.4
			s1,1.6,1.6,2.1c0.7,0.4,1,0.7,1.6,1.1c0.4,0.2,0.8,0.4,1.1,0.7c0.2,0.1,0.3,0.2,0.5,0.3c0.1,0,0.1,0,0.2,0.1s0.3,0.2,0.5,0.3
			c-0.2-0.1-0.4-0.3-0.6-0.4s-0.5-0.2-0.8-0.5c-0.3-0.2-0.6-0.3-0.8-0.5c-0.6-0.3-1.1-0.7-1.6-1.1c-0.2-0.1-0.5-0.2-0.8-0.4
			c-1.3-0.7-2.1-0.7-1.2,0.5c1,1.4,2.5,2,3.9,2.6h0.1l0,0c0,0-0.1,0-0.1-0.1c-1.3-0.3-1.5-0.7-3.2-1.2c-1.5-0.4-2.1-0.1-1.1,0.9
			c0.8,0.7,1.6,1,2.5,1.3c0.4,0.1,0.6,0.1,1,0.2s0.8,0.1,1.3,0.2l0,0l0,0c-0.5-0.1-0.9-0.2-1.2-0.2c-0.3-0.1-0.7-0.1-1-0.2
			c-0.4-0.1-0.8-0.1-1.4-0.2c-1.3-0.1-2.1,0.4-0.8,1.3c0.3,0.2,0.9,0.3,1.6,0.4c1.2,0,1.6,0.2,3,0.2l0,0l0,0c-1,0-2.1-0.1-3-0.2
			c-0.2,0-0.4,0-0.6,0c-1.4,0.1-1.7,0.9-0.7,1.3c0.4,0.2,1.3,0.2,2.4,0.1c0.7-0.1,1.1-0.1,2.2-0.3c0.1,0,0.3-0.1,0.4-0.1
			c0.4,0,1-0.1,1.7-0.3l0,0c-0.4,0.1-0.8,0.2-1.2,0.4c-0.1,0-0.3,0-0.4,0c-0.8,0.1-1.8,0.2-2.7,0.3c-0.3,0.1-0.6,0.1-1,0.3
			c-1.3,0.4-1.6,1.3-0.4,1.5c0.7,0.2,2.4-0.5,3.9-0.9l0,0l0,0c-1.1,0.4-1.4,0.3-2.7,1c-1.2,0.6-1.3,1.5,0,1.5c0.6,0,1.6-0.7,2.7-1.5
			c0.2-0.2,0.5-0.4,0.9-0.7c0.1-0.1,0.1-0.1,0.2-0.2c0.2-0.1,0.5-0.3,0.8-0.6l0,0c-0.2,0.2-0.4,0.3-0.5,0.5c0,0-0.1,0-0.1,0.1
			c-0.4,0.3-0.8,0.6-1.3,0.9c-0.6,0.4-0.9,0.6-1.7,1.5c-0.9,1-0.6,1.8,0.4,1.5c0.4-0.1,1.1-0.8,1.9-1.5c0.3-0.4,0.5-0.6,0.8-0.9h0.1
			c-0.3,0.3-0.6,0.6-0.9,0.9c-0.2,0.2-0.4,0.5-0.6,0.8c-0.8,1.1-0.5,1.9,0.5,1.4c0.4-0.2,1.1-0.8,1.7-1.6c0.2-0.4,0.4-0.6,0.6-0.9
			l0.1-0.1c-0.2,0.3-0.5,0.7-0.7,1c-0.1,0.2-0.3,0.5-0.5,0.8c-0.7,1.1-0.2,1.8,0.7,1.3c0.4-0.2,0.9-0.7,1.3-1.4
			c0.1-0.2,0.2-0.4,0.3-0.6c0.1-0.2,0.2-0.4,0.2-0.5c0.1-0.1,0.2-0.2,0.2-0.4c-0.1,0.3-0.3,0.6-0.5,0.9c-0.1,0.2-0.2,0.4-0.3,0.6
			c0,0.1-0.1,0.2-0.1,0.2c-0.5,1.1,0.1,1.9,0.8,1.3c0.3-0.2,0.5-0.4,0.7-0.7c0,0,0,0,0-0.1c0.3-0.5,0.5-0.9,0.7-1.3
			c0.1,0,0.1-0.1,0.1-0.1c-0.4,0.7-0.6,1.2-0.9,1.5c-0.4,1,0.3,1.2,0.9,0.8c0.5-0.4,1.1-0.8,1.4-2.3v-0.1c0.1-0.1,0.2-0.3,0.2-0.5
			v2.4c-0.1,0-0.3,0-0.4,0c-0.8,0.1-0.7,1.2-2.3,1.3c0.1,0,0.2,0,0.3,0.1c-0.4,0.1-0.8,0.3-0.9,0.6c-0.6,1,0.2,2.3-0.8,2.6
			c0.2,0.3,0.8,0.4,0.9,0.1c0.1-0.2,0.2-0.5,0.2-0.9c0-0.1,0-0.1,0-0.2l0,0c0,0.1,0,0.1,0,0.2c0,1.1,0.1,1.5-0.3,2c0.8,0,1-0.3,1-1
			c0-0.2,0-0.3,0-0.5l0,0c0,0.2,0,0.4,0,0.5c0,0.6,0,0.8,0.1,0.9c0.1-0.2,0.2-0.4,0.3-0.6c0.1,0.2,0.2,0.4,0.1,0.7
			c-0.9,0.6-1.8,0.9-3,1.1c-0.5,0-0.7-0.9-1.1-1c-0.2,0-0.4,0.2-0.6,0.5c-0.1-0.1-0.3-0.2-0.4-0.3c0.1-0.1,0.1-0.3,0-0.4
			c0-0.1-0.1-0.1-0.2-0.1c0,0,0,0,0-0.1c0-0.3-0.3-0.5-0.6-0.6c0-0.1,0-0.1,0-0.2s-0.1-0.1-0.2-0.1c0-0.1,0-0.1,0-0.2
			c-0.1-0.1-0.2-0.1-0.3-0.1c-0.1-0.4-0.6-1-1.7-2.5c-0.2-0.2-0.3-0.4-0.4-0.6c0.1-0.2,0.1-0.4,0-0.5l-0.5,0.1l-0.1-0.2l0.1-0.1
			l0.2,0.2l0.6-0.1l0.1-0.2v-0.2l-0.1-0.2H81l-0.1,0.1l0.1,0.2V92l-0.3,0.1l0.1-0.2l-0.1-0.2h-0.2l0,0v-0.1h0.1l0.1-0.1l-0.1-0.1
			l0.2,0.1l0.1-0.1l-0.1-0.1H81l0.1-0.1l-0.2-0.1h0.2l0.1-0.1L81,90.9l0.2-0.1v-0.1H81l0.2-0.1v-0.1H81l0.1-0.1v-0.1L81,90.4
			l0.1-0.1v-0.1l-0.2,0.1l0.1-0.2V90l-0.1,0.1v-0.2l-0.1-0.1L80.7,90v-0.2l0.3,0.7v0.2l-0.1-0.4l-0.1-0.1l-0.1,1v0.2v0.1h0.1h0.1
			v0.1v0.1l-0.1,0.1h-0.2l-0.2-0.1l-0.1-0.2v-0.2l0.2-0.1h0.1l-0.1-0.1l-0.1,0.1l0.1-0.2h0.1v-0.1h-0.1h-0.1l0,0L80,91.2h0.2
			l-0.1,0.2h0.1v0.2l0,0l0.1,0.2l-0.2-0.2l0,0l-0.2-0.1v-0.1h-0.2l0.1-0.2l-0.4,0.3l0,0l-0.1,0.1v0.1l0.1,0.1v-0.1h0.2l-0.1,0.1v0.1
			v-0.1l0.1-0.1h0.2l0.1,0.2v0.2v0.2h-0.1h-0.1v-0.1v-0.1V92v-0.1h-0.2l-0.9-0.3v0.1l0.3,0.2h-0.3l0.1,0.1l0.2,0.1h-0.2l0.1,0.1
			l0.2,0.1l-0.2,0.1l0.1,0.1h0.2l-0.2,0.1l0.1,0.1h0.1L79,92.8h0.1l0.2-0.1l-0.1,0.1h0.1l0.2-0.1l-0.1,0.1h0.1l0.2-0.1v0.2h0.1
			l0.1-0.2v0.2H80v-0.2v0.2h0.1v-0.2l0.1,0.1h0.1v-0.1h0.1l0,0l-0.1,0.2l0.1,0.2h0.2l-0.2,0.2h-0.1l-0.2-0.2H80l-0.1,0.2l0.1,0.2
			l0.2,0.1h0.2l0.3-0.5v-0.2l0.1-0.1L81,93l-0.3,0.4c0.1,0.2,0.4,0.3,0.6,0.2c0.1,0.2,0.2,0.4,0.3,0.6c0.9,1.7,1.4,2.4,1.7,2.5
			C83,96.9,83,97,83,97.1s0.1,0.1,0.2,0.1c0,0.1,0,0.2,0,0.2c0,0.1,0.1,0.1,0.2,0.1c0,0.1,0,0.2,0,0.3c0,0.2,0.2,0.4,0.4,0.5
			c0,0.1,0,0.1,0,0.2c0.1,0.1,0.2,0.1,0.4,0.1c0,0.1,0,0.2,0.1,0.4c-0.2,0.1-0.7,0.2-0.7,0.5c0,0.1,0.1,0.4,0.3,0.5
			c0,0,0.1,0,0.1,0.1c0,0.3,0.2,0.5,0.4,0.6c0.1,0.2,0.5,0.4,1.3,0.5h0.1c0.2,0.2,0.5,0.5,0.6,0.6l0,0c-0.1,0.1-0.1,0.3-0.1,0.3
			c0.1,0.1,0.2,0.1,0.3,0.1c0,0.1-0.1,0.2,0,0.2c0,0.1,0.1,0.1,0.2,0.1c0,0,0,0,0,0.1c0,0.2,0.3,0.4,0.5,0.4s0.4-0.3,0.4-0.5
			s-0.1-0.3-0.3-0.3c0-0.1,0.1-0.2,0-0.2c0-0.1-0.1-0.1-0.2-0.1c0.1-0.1,0.1-0.3,0.1-0.3c-0.1-0.1-0.2-0.1-0.3-0.1l0,0
			c0-0.2-0.1-0.5-0.2-0.8l0,0c0,0,0.2-0.1,0.2-0.2c0.1-0.3,0.5-0.4,0.8-0.6c1.2-1,3.8-0.4,4.1-1c0.1-0.2-0.1-1-0.2-1.6
			c0.5,0.3,1.1,0.3,1.4-0.2c-0.4,0-1.1,0-1-1c0.1-0.6,0.6-0.8,1.2-0.8c0.2,0.2,0.4,0.4,0.6,0.5c0,0.1,0.1,0.1,0.1,0.2
			c0.6,1.2,0.5,1.3-0.1,1.7c-0.6,0.3-0.9,0.3-1,1.2c-0.5,0.2-1,0.5-1.3,0.7c-0.3,0.3-0.9,0.7-1.3,0.6s-0.8-0.5-0.5-0.8
			c-0.7,0.1-0.7,1.8,0.1,1.8c-1.3,1-0.2,2.1-0.6,2.9c0.9-0.2,0.5-1.6,1-1.8c-0.2,0.8-0.2,1.6,0.9,2c0.6,0.2,1.1-0.1,1.5-0.2
			c0.5,0.5,1.2,0.8,1.8,0.8c0,0.5,0.4,1,1.2,1c0.8,0,1.2-0.5,1.2-1c0.7,0,1.4-0.3,1.9-0.9c0.4,0.1,0.9,0.4,1.5,0.2
			c1.1-0.4,1.1-1.2,0.9-2c0.5,0.2,0.1,1.6,1,1.8c-0.4-0.9,0.8-2-0.6-2.9c0.8,0,0.8-1.7,0.1-1.8c0.2,0.4-0.2,0.8-0.5,0.8
			c-0.5,0.1-1-0.3-1.3-0.6c-0.3-0.2-0.7-0.5-1.2-0.7c-0.1-0.9-0.4-0.9-1-1.2c-0.6-0.4-0.7-0.5-0.1-1.7c0-0.1,0.1-0.1,0.1-0.2
			c0.3-0.1,0.5-0.3,0.7-0.5c0.6,0,1.1,0.2,1.2,0.8c0.1,1-0.5,1.1-1,1c0.3,0.4,0.8,0.5,1.2,0.3c0,0.3,0,0.5,0,0.8
			c-0.3,0.4-0.2,0.7,0.2,0.7c0.3,0,2.2,0.3,3.4,0.3c0.5,0,2.2,0.8,2.6,1s0.6,0.3,0.7-0.3c0-0.1,0.2-0.3,0.4-0.4
			c-0.2,0.1-0.3,0.3-0.4,0.5c1.4-0.2,1.7-0.2,2-0.7c0.1-0.1,0.1-0.3,0.1-0.4c0.5-0.3,0.9-0.9,1-1.5h0.2v-0.2c0,0,0.1-0.1,0.1-0.2
			s0-0.1-0.1-0.2v-0.3h-0.2c-0.2-0.9-0.8-1.6-1.7-1.8v-0.2h-0.9v0.2c-0.9,0.2-1.6,0.9-1.8,1.8h-0.1v0.2c-0.1,0-0.1,0.1-0.1,0.2
			s0.1,0.2,0.1,0.2v0.1h0.1c0,0.1,0,0.2,0.1,0.3c-0.4,0.2-0.3,0.9-0.6,0.9c-2.1-0.4-3.3,0-3.3-1.2c0-0.1,0-0.2,0-0.3
			c0-0.1,0-0.1,0-0.2c0.1,0.3,0.3,0.5,0.5,0.8c0.1-0.1,0.1-0.4,0.1-0.9c0-0.2,0-0.3,0-0.5l0,0c0,0.2,0,0.4,0,0.5c0,0.7,0.2,1,1,1
			c-0.5-0.5-0.3-1-0.3-2c0-0.1,0-0.1,0-0.2l0,0c0,0.1,0,0.1,0,0.2c0,0.4,0.1,0.7,0.2,0.9c0.2,0.3,0.7,0.2,0.9-0.1
			c-1-0.4-0.2-1.6-0.8-2.6c-0.2-0.3-0.5-0.5-0.9-0.6c0.1,0,0.2,0,0.3-0.1c-1.6-0.1-1.5-1.2-2.3-1.3c-0.2,0-0.3,0-0.5,0V87
			c0,0.2,0,0.4,0.1,0.5c0,0.1,0,0.2,0,0.3c-0.1,1,0,1.6,0.2,1.9c0,0.1,0,0.1,0,0.1c0.3,1.5,0.9,1.9,1.4,2.3c0.6,0.5,1.3,0.3,0.8-0.8
			l0,0c-0.3-0.3-0.5-0.8-0.9-1.5c-0.1-0.1-0.1-0.3-0.1-0.4c-0.1-0.1-0.1-0.3-0.2-0.4c0.1-0.3,0.1-0.6,0.1-1.1c0,0.4,0,0.7,0,1
			c0,0.2,0,0.3,0,0.4c0,0,0,0.1,0.1,0.1c0,0.2,0.1,0.4,0.2,0.4c0.2,0.4,0.5,0.8,0.7,1.4c0.2,0.3,0.5,0.6,0.8,0.8
			c0.7,0.6,1.4-0.1,0.8-1.3c-0.1-0.1-0.1-0.2-0.2-0.3c-0.1-0.2-0.2-0.4-0.3-0.5c-0.4-0.6-0.6-0.9-0.8-2v-0.1
			c0.2,0.8,0.3,1.3,0.5,1.5c0.1,0.2,0.2,0.4,0.3,0.6c0.1,0.2,0.2,0.3,0.3,0.5c0.5,0.8,0.9,1.3,1.3,1.5c0.9,0.5,1.5-0.2,0.7-1.3
			c-0.2-0.3-0.3-0.5-0.4-0.7c-0.3-0.4-0.6-0.8-0.9-1.2l0.1,0.1c0.3,0.4,0.5,0.6,0.8,1.1c0.6,0.7,1.2,1.3,1.6,1.5
			c1,0.5,1.3-0.4,0.6-1.4c-0.2-0.3-0.4-0.5-0.6-0.7c-0.3-0.3-0.7-0.7-1-1h0.1c0.3,0.4,0.6,0.6,0.9,1c0.7,0.7,1.4,1.3,1.8,1.4
			c1.1,0.4,1.4-0.5,0.4-1.5c-0.9-0.9-1.2-1.1-1.8-1.5c-0.4-0.3-0.8-0.6-1.2-0.8c0,0-0.1,0-0.1-0.1c-0.1-0.2-0.3-0.3-0.5-0.5l0,0
			c0.3,0.2,0.5,0.4,0.7,0.5c0.1,0.1,0.1,0.1,0.2,0.2c0.3,0.3,0.5,0.5,0.8,0.6c1.1,0.8,2.2,1.5,2.8,1.5c1.2,0,1.1-0.9-0.1-1.5
			c-1.3-0.6-1.5-0.6-2.7-1l0,0l0,0c1.5,0.5,3.2,1.1,3.9,0.9c1.1-0.2,1-1.1-0.4-1.5c-0.4-0.1-0.8-0.2-1-0.3c-0.9-0.1-2-0.2-2.8-0.3
			c-0.1,0-0.2,0-0.3,0c-0.3-0.1-0.7-0.3-1.1-0.4c0,0,0,0,0.1,0c0.6,0.1,1.2,0.2,1.5,0.2c0.1,0,0.3,0.1,0.4,0.1
			c1.2,0.2,1.5,0.2,2.2,0.3c1,0.1,2,0.1,2.4-0.1c1.1-0.4,0.7-1.2-0.6-1.3c-0.3,0-0.5,0-0.7,0c-0.9,0.1-2.1,0.2-3,0.2l0,0
			c1.4,0,1.9-0.2,3-0.2c0.7-0.1,1.3-0.3,1.6-0.4C114.1,83.4,113.4,82.8,112,82.9z M84.5,99.6c-0.1,0-0.2,0-0.2-0.1
			S84.3,99.4,84.5,99.6L84.5,99.6L84.5,99.6z M85.8,99c0-0.1,0-0.1,0-0.2c0.2,0.2,0.2,0,0.3-0.1c0,0.1-0.2,0.5,0.2,0.6
			c-0.2-0.1-0.2,0.1-0.2,0.1C86,99.3,85.9,99.2,85.8,99z M106.6,99.4c-0.1,0.1-0.3,0.1-0.4,0.1C106.4,99.5,106.5,99.5,106.6,99.4
			c0.1,0,0.1-0.1,0.2-0.2c0-0.1,0-0.1,0-0.2c0,0,0,0,0.1,0c0,0.1,0,0.1,0,0.1C106.8,99.3,106.7,99.4,106.6,99.4z M106.5,98.9
			c0.1,0,0.1,0.1,0.2,0.1C106.7,99,106.6,98.9,106.5,98.9z M107.4,99.4L107.4,99.4L107.4,99.4C107.3,99.4,107.3,99.4,107.4,99.4z
			 M104.2,82.7c0.1-0.1,0.2-0.1,0.2-0.2l0,0C104.3,82.6,104.2,82.6,104.2,82.7z M105.8,83.5c-0.1,0-0.3,0.1-0.4,0.1
			C105.5,83.5,105.7,83.5,105.8,83.5L105.8,83.5z M104.8,87.1c0-0.1-0.1-0.1-0.1-0.2C104.7,87,104.8,87.1,104.8,87.1L104.8,87.1z
			 M105.5,81.5C105.5,81.5,105.5,81.4,105.5,81.5C105.6,81.4,105.6,81.4,105.5,81.5C105.6,81.4,105.5,81.4,105.5,81.5z M87.7,88.1
			C87.7,88.2,87.6,88.2,87.7,88.1c-0.1,0,0-0.1,0-0.2s0.1-0.1,0.1-0.2s0.1-0.2,0.1-0.3c-0.1,0.2-0.1,0.3-0.1,0.5
			C87.8,88,87.7,88,87.7,88.1z M95,80.8c-0.2-0.3-0.3-0.5-0.4-0.8c-0.1-0.2-0.1-0.3-0.1-0.4c0,0.1,0.1,0.3,0.1,0.4
			C94.7,80.2,94.9,80.5,95,80.8C95.1,80.8,95,80.8,95,80.8z M93.7,78.1L93.7,78.1C93.7,78,93.7,78.1,93.7,78.1
			C93.8,78.1,93.8,78.1,93.7,78.1z M90.6,77.1C90.7,77.1,90.7,77.1,90.6,77.1L90.6,77.1C90.7,77.1,90.7,77.1,90.6,77.1z M91.8,77.3
			c-0.1-0.1-0.2-0.3-0.3-0.5c0.3,0.3,0.5,0.5,0.7,0.6c0.1,0.3,0.3,0.4,0.4,0.6l0,0C92.4,77.8,92.1,77.6,91.8,77.3z M93.3,80.3
			c0,0.6,0.1,1,0.1,1.3c0,0.1,0,0.1-0.1,0.2C93.3,81.4,93.3,81,93.3,80.3z M93.7,82.4c0.1-0.3,0.2-0.5,0.2-1c0-0.7-0.1-2.2-0.1-2.2
			c0.4,1.1,0.5,1.6,0.4,1.9c-0.2,0.6-0.3,1.2-0.3,1.6c-0.3,0.5-0.6,1-0.8,1.1C93.4,83.4,93.6,82.9,93.7,82.4z M93.9,99.3
			c0.3-0.3,0.7-0.4,0.9-0.7c-0.3,0.7-0.8,1.3-1.2,1.8L93.9,99.3z M87.6,82.7c-0.1-0.1-0.2-0.1-0.2-0.1l0,0
			C87.5,82.6,87.6,82.6,87.6,82.7z M86.4,83.5L86.4,83.5c-0.2,0-0.3-0.1-0.4-0.1l0,0C86.1,83.5,86.2,83.5,86.4,83.5z M87.1,87
			L87.1,87L87.1,87L87.1,87z M92,94.3L92,94.3L92,94.3L92,94.3L92,94.3z M90.2,95.8L90.2,95.8c0,0.3,0,0.5,0,0.7l0,0
			C90.2,96.3,90.2,96.1,90.2,95.8z M90.8,95.8L90.8,95.8c0,0.3,0,0.5,0,0.7l0,0C90.8,96.3,90.8,96.1,90.8,95.8z M96.6,97.5
			C96.6,97.6,96.6,97.6,96.6,97.5C96.6,97.6,96.6,97.5,96.6,97.5L96.6,97.5z M97.8,99.3l0.4,1.2c-0.5-0.6-1.1-1.3-1.4-2.2
			C97,98.7,97.4,99,97.8,99.3z M101,96.1c0-0.1,0-0.2,0-0.3l0,0C101,95.9,101,96,101,96.1L101,96.1z M99.7,94.2
			C99.7,94.2,99.8,94.3,99.7,94.2C99.8,94.3,99.8,94.3,99.7,94.2C99.8,94.3,99.7,94.3,99.7,94.2L99.7,94.2z M98,82.8
			c0-0.5-0.1-1.1-0.3-1.7c-0.1-0.3,0-0.7,0.4-1.9c0,0-0.2,1.4-0.1,2.2c0,0.5,0.1,0.7,0.2,0.9c0.1,0.5,0.3,1,0.7,1.5
			C98.6,83.7,98.3,83.3,98,82.8z M98.4,81.7c0-0.3,0.1-0.7,0.1-1.4C98.5,81,98.4,81.5,98.4,81.7C98.5,81.8,98.5,81.7,98.4,81.7z
			 M99.2,78c0.1-0.2,0.3-0.3,0.4-0.6c0.2-0.1,0.4-0.3,0.7-0.6c-0.2,0.2-0.3,0.3-0.3,0.5C99.7,77.5,99.4,77.8,99.2,78L99.2,78z
			 M101.1,77.2C101.1,77.1,101.1,77.1,101.1,77.2C101.1,77.1,101.1,77.1,101.1,77.2L101.1,77.2z M98.2,78L98.2,78L98.2,78
			C98.1,78.1,98.1,78,98.2,78z M97.2,80c-0.1,0.2-0.2,0.5-0.4,0.7c0,0,0,0-0.1,0C96.9,80.5,97.1,80.2,97.2,80
			c0.1-0.1,0.1-0.3,0.1-0.4C97.3,79.7,97.3,79.8,97.2,80z M99.5,78.9L99.5,78.9L99.5,78.9c0.1-0.1,0.1-0.1,0.2-0.2
			C99.6,78.8,99.5,78.9,99.5,78.9z M101.1,77.7c-0.1,0-0.1,0.1-0.2,0.2c0.1-0.1,0.2-0.2,0.3-0.3c0.6-0.4,0.9-0.7,1.4-1.1
			C101.8,77,101.2,77.6,101.1,77.7z M98.8,76.9C98.7,76.9,98.7,76.9,98.8,76.9C98.7,76.9,98.7,76.9,98.8,76.9
			C98.7,76.9,98.7,76.9,98.8,76.9z M93.1,76.9L93.1,76.9L93.1,76.9L93.1,76.9z M89.3,76.5c0.5,0.3,0.8,0.7,1.4,1.1
			c0.1,0.1,0.2,0.2,0.3,0.3c-0.1-0.1-0.2-0.1-0.2-0.2C90.6,77.6,90,77,89.3,76.5z M92.3,78.9c0,0-0.1-0.1-0.2-0.2
			C92.2,78.8,92.3,78.8,92.3,78.9C92.4,78.9,92.4,78.9,92.3,78.9C92.4,78.9,92.3,78.9,92.3,78.9z M86.2,81.4L86.2,81.4
			C86.3,81.4,86.2,81.4,86.2,81.4L86.2,81.4z M86.4,86.2L86.4,86.2L86.4,86.2L86.4,86.2z M90.4,88.2c0,0.4,0,0.7,0.1,1
			c-0.1,0.1-0.1,0.3-0.2,0.4C90.3,89.2,90.4,88.7,90.4,88.2z M91.7,88L91.7,88L91.7,88L91.7,88z M91.7,93.2
			C91.7,93.2,91.7,93.1,91.7,93.2L91.7,93.2C91.7,93.1,91.7,93.2,91.7,93.2L91.7,93.2L91.7,93.2C91.6,93.2,91.6,93.2,91.7,93.2z
			 M101.7,96.7L101.7,96.7c-0.1-0.3-0.1-0.6-0.1-1l0,0C101.6,96.1,101.7,96.4,101.7,96.7L101.7,96.7L101.7,96.7z M100.1,93.2
			c0.1,0,0.1,0.1,0.2,0.1l0,0C100.2,93.2,100.2,93.2,100.1,93.2s-0.1-0.1-0.2-0.1C100,93.1,100.1,93.1,100.1,93.2z M100,86.7
			L100,86.7c0,0.1,0,0.1,0,0.2V86.7z M104.1,88.1L104.1,88.1c-0.1-0.2-0.1-0.4-0.2-0.6c0.1,0.4,0.3,0.7,0.4,0.9
			C104.2,88.3,104.2,88.2,104.1,88.1z M105.5,86.2L105.5,86.2L105.5,86.2L105.5,86.2z"/>
		<path class="st2" d="M103.9,78c-0.6-0.3-1.2-0.4-1.8,0c0.7,0,1,0.3,1.4,0.5c1,0.7,1.8,0.3,2.1-0.6C105.1,78.4,104.5,78.3,103.9,78
			z"/>
		<path class="st2" d="M83.4,75.8c0.1,0-0.2-1.4,0-1.5c0.1-0.1,0.2,0.9,0.9,0.9c0.3,0,0.5-0.4,0.7-0.9c-0.1,1.1-1.1,1.6,0.4,2.2
			c-0.8-0.9-0.1-1,0.2-1.8c0.2-0.5-0.4-1.5-0.7-1.8c-0.4-0.4-0.4-0.7,0-0.8c0.2,0.1,0.4,0.2,0.7,0.1c0.4-0.1,0.7-0.5,1-0.8
			c0.5,0.4,0,1-0.1,1.5c-0.4,1.9,0.9,2,2.1,2c-1.5-0.1-1.6-1-1.2-2.1c0.3-0.8,0.4-1.3,0.1-1.5c-0.3-0.4-0.9-0.8-1.4-0.7
			c-0.6,0.2-0.7,0.7-1.1,0.9c-0.5,0.3-1.2,0.2-1.6,0.8c0,0,0,0,0.1,0c-0.3,0.3-0.2,0.7,0.2,1c0.2,0.2,0.7,0.7,0.4,1
			c-0.2,0.2-0.4,0.1-0.6,0c-0.6-0.6-0.6,0.2-0.5,0.5C83.2,75,83.4,75.8,83.4,75.8z"/>
		<path class="st2" d="M103.2,75c1.2,0,2.5-0.1,2.1-2c-0.1-0.5-0.6-1.1-0.1-1.5c0.3,0.3,0.6,0.7,1,0.8c0.2,0.1,0.5,0,0.7-0.1
			c0.4,0.1,0.4,0.4,0,0.8c-0.3,0.3-0.9,1.3-0.7,1.8c0.3,0.7,1,0.8,0.2,1.8c1.5-0.6,0.5-1.1,0.4-2.2c0.2,0.5,0.4,0.9,0.7,0.9
			c0.7,0,0.8-0.9,0.9-0.9c0.1,0.1-0.1,1.5,0,1.5c0,0,0.2-0.8,0.3-1.1c0.1-0.3,0.1-1.1-0.5-0.5c-0.2,0.2-0.4,0.2-0.6,0
			c-0.3-0.3,0.2-0.8,0.4-1c0.4-0.3,0.5-0.7,0.2-1c0,0,0,0,0.1,0c-0.4-0.5-1.1-0.5-1.6-0.8c-0.4-0.3-0.5-0.8-1.1-0.9
			c-0.5-0.1-1.1,0.3-1.4,0.7c-0.3,0.2-0.2,0.8,0.1,1.5C104.8,73.9,104.7,74.8,103.2,75z"/>
		<path class="st2" d="M94.2,72.8v0.6c1.1-0.3,2.3-0.4,3.5,0v-0.6l0,0c0.2-1,1.7-2,0.7-3.2c-0.3-0.4-1.2-0.8-2.2-0.2V69
			c0.1-0.1,0.2-0.2,0.2-0.3c0-0.2-0.1-0.3-0.3-0.4l0,0v-0.2c0.2-0.1,0.4-0.2,0.4-0.4h0.2v-0.2h-0.2c0-0.2-0.2-0.4-0.4-0.4v-0.2h-0.3
			V67c-0.2,0-0.4,0.2-0.4,0.4h-0.2v0.3h0.2c0,0.2,0.2,0.4,0.4,0.4v0.2l0,0c-0.2,0.1-0.3,0.2-0.3,0.4c0,0.1,0.1,0.3,0.2,0.3v0.5
			c-1-0.7-1.9-0.3-2.2,0.1C92.5,70.8,94,71.8,94.2,72.8L94.2,72.8z"/>
		<path class="st2" d="M99.8,74.1v0.4c0.9-0.2,1.7-0.2,2.5,0v-0.4l0,0c0.2-0.6,1.2-1.2,0.5-1.9c-0.2-0.2-0.9-0.5-1.5-0.1v-0.3
			c0.1,0,0.1-0.1,0.1-0.2s-0.1-0.2-0.3-0.2h0.1v-0.1c0.1,0,0.3-0.1,0.3-0.3h0.1v-0.1h-0.1c0-0.1-0.1-0.2-0.3-0.3v-0.1H101v0.1
			c-0.1,0-0.2,0.1-0.3,0.3h-0.1V71h0.1c0,0.1,0.1,0.2,0.3,0.3v0.1h0.1c-0.1,0-0.3,0.1-0.3,0.2s0.1,0.1,0.1,0.2v0.3
			c-0.7-0.4-1.3-0.1-1.5,0.1C98.6,72.9,99.6,73.5,99.8,74.1L99.8,74.1z"/>
		<path class="st2" d="M89.6,74.1v0.4c0.9-0.2,1.7-0.2,2.5,0v-0.4l0,0c0.2-0.6,1.2-1.2,0.5-1.9c-0.2-0.2-0.9-0.5-1.5-0.1v-0.3
			c0.1,0,0.1-0.1,0.1-0.2s-0.1-0.2-0.3-0.2H91v-0.1c0.1,0,0.3-0.1,0.3-0.3h0.1v-0.1h-0.1c0-0.1-0.1-0.2-0.3-0.3v-0.1h-0.2v0.1
			c-0.1,0-0.2,0.1-0.3,0.3h-0.1V71h0.1c0,0.1,0.1,0.2,0.3,0.3v0.1h0.1c-0.1,0-0.3,0.1-0.3,0.2s0.1,0.1,0.1,0.2v0.3
			c-0.7-0.4-1.3-0.1-1.5,0.1C88.4,72.9,89.4,73.5,89.6,74.1L89.6,74.1z"/>
	</g>
</g>
</svg>
