<?xml version="1.0" encoding="utf-8"?>
<!-- Generator: Adobe Illustrator 21.1.0, SVG Export Plug-In . SVG Version: 6.00 Build 0)  -->
<svg version="1.1" id="Layer_1" xmlns="http://www.w3.org/2000/svg" xmlns:xlink="http://www.w3.org/1999/xlink" x="0px" y="0px"
	 viewBox="0 0 68 59" style="enable-background:new 0 0 68 59;" xml:space="preserve">
<style type="text/css">
	.st0{fill:#51714F;}
	.st1{fill:#FAFDFF;}
</style>
<g>
	<path class="st0" d="M33.1,58.2c-0.4,0-0.9,0-1.4,0l0-0.6c1,0,2.1,0,3.1,0l0,0.6C34.3,58.1,33.7,58.2,33.1,58.2z M27.7,57.7
		c-1-0.2-2.1-0.5-3.1-0.8l0.2-0.5c1,0.3,2,0.6,3,0.7L27.7,57.7z M38.9,57.6L38.8,57c1-0.2,2-0.5,3-0.8l0.2,0.5
		C41,57.1,39.9,57.4,38.9,57.6z M20.9,55.4c-1-0.4-1.9-1-2.8-1.5l0.3-0.5c0.9,0.5,1.8,1,2.7,1.5L20.9,55.4z M45.7,55.2l-0.2-0.5
		c0.9-0.5,1.8-1,2.7-1.5l0.3,0.5C47.6,54.3,46.7,54.8,45.7,55.2z M14.8,51.6c-0.8-0.7-1.6-1.4-2.3-2.2l0.4-0.4
		c0.7,0.7,1.5,1.5,2.3,2.1L14.8,51.6z M51.7,51.3l-0.4-0.4c0.8-0.7,1.5-1.4,2.2-2.1l0.4,0.4C53.3,49.9,52.5,50.6,51.7,51.3z
		 M9.9,46.3c-0.6-0.9-1.2-1.7-1.7-2.7l0.5-0.3c0.5,0.9,1.1,1.8,1.7,2.6L9.9,46.3z M56.6,46l-0.5-0.3c0.6-0.8,1.1-1.7,1.6-2.6
		l0.5,0.3C57.7,44.2,57.2,45.1,56.6,46z M6.4,40.1c-0.4-1-0.7-2-1-3L6,36.9c0.3,1,0.6,2,1,2.9L6.4,40.1z M59.9,39.6l-0.5-0.2
		c0.4-1,0.7-2,0.9-3l0.5,0.1C60.6,37.6,60.3,38.6,59.9,39.6z M4.6,33.1c-0.1-1-0.2-2.1-0.2-3.2l0.6,0C5,31,5.1,32,5.2,33L4.6,33.1z
		 M61.6,32.6L61,32.6c0.1-1,0.2-2.1,0.2-3.1v-0.1h0.6v0.1C61.8,30.5,61.7,31.6,61.6,32.6z M5.2,26l-0.6-0.1c0.1-1,0.3-2.1,0.6-3.1
		l0.5,0.1C5.5,23.9,5.3,25,5.2,26z M60.9,25.5c-0.1-1-0.4-2-0.6-3l0.5-0.1c0.3,1,0.5,2.1,0.6,3.1L60.9,25.5z M6.9,19.2l-0.5-0.2
		c0.4-1,0.8-1.9,1.3-2.9l0.5,0.3C7.7,17.2,7.3,18.2,6.9,19.2z M59.1,18.7c-0.4-1-0.9-1.9-1.4-2.8l0.5-0.3c0.5,0.9,1,1.9,1.4,2.9
		L59.1,18.7z M10.3,13l-0.5-0.3c0.6-0.9,1.3-1.7,2-2.5l0.4,0.4C11.6,11.3,10.9,12.1,10.3,13z M55.6,12.6c-0.6-0.8-1.3-1.6-2-2.4
		L54,9.8c0.7,0.8,1.4,1.6,2,2.4L55.6,12.6z M15.1,7.8l-0.4-0.4c0.8-0.7,1.7-1.3,2.5-1.9L17.6,6C16.8,6.5,15.9,7.2,15.1,7.8z
		 M50.7,7.5c-0.8-0.6-1.7-1.3-2.5-1.8l0.3-0.5c0.9,0.6,1.8,1.2,2.6,1.8L50.7,7.5z M21.1,4l-0.2-0.5c1-0.5,1.9-0.9,2.9-1.2L24,2.9
		C23,3.2,22,3.6,21.1,4z M44.6,3.8c-0.9-0.4-1.9-0.8-2.9-1.1l0.2-0.5c1,0.3,2,0.7,3,1.1L44.6,3.8z M27.8,1.9l-0.1-0.6
		c1-0.2,2.1-0.3,3.1-0.4l0,0.6C29.8,1.5,28.8,1.7,27.8,1.9z M37.9,1.8c-1-0.2-2.1-0.3-3.1-0.4l0-0.6C35.9,0.9,37,1,38,1.2L37.9,1.8z
		"/>
	<g>
		<path class="st0" d="M64.9,26.6l0.4,1.2l-0.4,1.2c0.5-0.5,1.4-1,2.1-1.2C66.3,27.6,65.4,27.1,64.9,26.6z"/>
		<rect x="56.9" y="27.7" class="st0" width="8.3" height="0.4"/>
	</g>
	<g>
		<path class="st0" d="M9,26.6l0.4,1.2L9,29.1c0.5-0.5,1.4-1,2.1-1.2C10.4,27.6,9.6,27.1,9,26.6z"/>
		<rect x="1" y="27.7" class="st0" width="8.3" height="0.4"/>
	</g>
	<polygon class="st1" points="35.4,16.7 35.4,22.5 17.3,22.5 17.3,34.4 35,34.4 35,40.2 52,28.6 	"/>
</g>
</svg>
