<?xml version="1.0" encoding="utf-8"?>
<!-- Generator: Adobe Illustrator 21.1.0, SVG Export Plug-In . SVG Version: 6.00 Build 0)  -->
<svg version="1.1" id="Layer_1" xmlns="http://www.w3.org/2000/svg" xmlns:xlink="http://www.w3.org/1999/xlink" x="0px" y="0px"
	 viewBox="0 0 109 108" style="enable-background:new 0 0 109 108;" xml:space="preserve">
<style type="text/css">
	.st0{fill:#51714F;}
</style>
<g>
	
		<rect x="46.4" y="84.1" transform="matrix(0.7071 -0.7071 0.7071 0.7071 -46.3532 58.8171)" class="st0" width="2.8" height="2.5"/>
	<path class="st0" d="M18,85v-3.2h2.7l25.6,25.6h32.2v-1.4c0-1.4-0.3-2.7-0.8-3.8h2.6v-1.4c0-2.8-1.2-5.4-3.2-7.1
		c-0.1-2-0.8-3.9-2-5.4h0.1c0-4.2-3.8-7.6-8.5-7.6h-6c0.5-0.4,0.9-0.8,1.4-1.2l0.9-1L37.9,53.3H18v-3.2H1V85H18z M73.9,91.9
		c-1-0.4-2.1-0.6-3.2-0.6h-15L51.4,87l-2,2l5.1,5.1h16.2c3.3,0,6,2.3,6.6,5.4h-1.5c-1.7-1.8-4.2-2.9-6.9-2.9H54L43.9,86.4
		c-2-2-3-4.6-3-7.3v-5.5l6,6c0.1,0.1,0.3,0.3,0.4,0.4l7.3,7.3h13C70.5,87.3,73,89.2,73.9,91.9z M66.8,83.4c1.8,0,3.4,0.7,4.4,1.8
		c-1.1-0.5-2.4-0.7-3.6-0.7H55.7l-1.8-1.8c0.2,0,0.4,0,0.6,0c0.5,0,1-0.1,1.5-0.1c0.1,0.2,0.2,0.3,0.2,0.3l0.4,0.5L66.8,83.4
		L66.8,83.4z M18,56.1h18.7l22.3,22.3c-1.3,1-2.9,1.5-4.6,1.5c-2,0-3.9-0.7-5.3-2L38.1,66.9l0,0l0,0v12.2c0,3.5,1.4,6.8,3.8,9.3
		l10.9,10.9H69c3.3,0,6,2.3,6.6,5.4H47.5L21.9,79.1H18L18,56.1L18,56.1z M3.8,52.9h11.5v0.4h0v28.5h0v0.4H3.8V52.9z"/>
	<path class="st0" d="M9.2,62.5c2.1,0,3.9-1.7,3.9-3.9c0-2.1-1.7-3.9-3.9-3.9s-3.9,1.7-3.9,3.9S7.1,62.5,9.2,62.5z M9.2,57.6
		c0.6,0,1.1,0.5,1.1,1.1c0,0.6-0.5,1.1-1.1,1.1c-0.6,0-1.1-0.5-1.1-1.1C8.1,58.1,8.6,57.6,9.2,57.6z"/>
	<path class="st0" d="M57.9,34.8c-7,0-12.6,5.7-12.6,12.6c0,7,5.7,12.6,12.6,12.6s12.6-5.7,12.6-12.6C70.6,40.4,64.9,34.8,57.9,34.8
		z M57.9,57.3c-5.4,0-9.9-4.4-9.9-9.9s4.4-9.9,9.9-9.9s9.9,4.4,9.9,9.9S63.4,57.3,57.9,57.3z"/>
	<path class="st0" d="M60.5,46.8c-0.4-0.2-0.9-0.4-1.4-0.5c-0.5-0.1-1-0.2-1.4-0.3c-0.4-0.1-0.8-0.2-1.1-0.4
		c-0.3-0.2-0.4-0.4-0.4-0.8c0-0.4,0.1-0.6,0.4-0.7c0.3-0.1,0.6-0.2,1-0.2c1.4,0,2.5,0.4,3.4,1.3v-2.4c-0.3-0.4-1.2-0.6-2.5-0.8v-2.4
		c0,0,0-0.1-0.1-0.1h-1.8c-0.1,0-0.1,0-0.1,0.1v2.4c-0.4,0.2-0.9,0.4-1.3,0.7c-0.4,0.3-0.8,0.7-0.9,1c-0.2,0.4-0.3,0.8-0.3,1.4
		c0,0.6,0.1,1,0.4,1.4c0.5,0.7,1.3,1.2,2.5,1.4l1.4,0.3c0.4,0.1,0.8,0.2,1.1,0.4c0.3,0.1,0.4,0.4,0.4,0.7c0,0.5-0.3,0.9-1,1.1
		c-0.3,0.1-0.7,0.1-1.3,0.1c-0.8,0-1.5-0.2-2.2-0.6s-1.1-0.9-1.5-1.6v2.8c0.9,0.5,1.8,0.9,2.7,1.2l0,2.1c0,0,0,0.1,0.1,0.1h1.8
		c0.1,0,0.1,0,0.1-0.1v-2c1.2-0.4,2.1-0.9,2.6-1.6c0.5-0.6,0.7-1.1,0.7-1.7C62.1,48,61.6,47.2,60.5,46.8z"/>
	<path class="st0" d="M72.1,66c0,7,5.7,12.6,12.6,12.6c7,0,12.6-5.7,12.6-12.6s-5.7-12.6-12.6-12.6C77.8,53.3,72.1,59,72.1,66z
		 M94.6,66c0,5.4-4.4,9.9-9.9,9.9c-5.4,0-9.9-4.4-9.9-9.9s4.4-9.9,9.9-9.9C90.2,56.1,94.6,60.5,94.6,66z"/>
	<path class="st0" d="M84.7,73v-2c1.2-0.4,2.1-0.9,2.6-1.6c0.5-0.6,0.7-1.1,0.7-1.7c0-1.1-0.5-1.9-1.5-2.4c-0.4-0.2-0.9-0.4-1.4-0.5
		c-0.5-0.1-1-0.2-1.4-0.3c-0.4-0.1-0.8-0.2-1.1-0.4c-0.3-0.2-0.4-0.4-0.4-0.8c0-0.4,0.1-0.6,0.4-0.7c0.3-0.1,0.6-0.2,1-0.2
		c1.4,0,2.5,0.4,3.4,1.3v-2.4c-0.3-0.4-1.2-0.6-2.5-0.8v-2.4c0,0,0-0.1-0.1-0.1h-1.8c-0.1,0-0.1,0-0.1,0.1v2.4
		c-0.4,0.2-0.9,0.4-1.3,0.7c-0.4,0.3-0.8,0.7-0.9,1c-0.2,0.4-0.3,0.8-0.3,1.4c0,0.6,0.1,1,0.4,1.4c0.5,0.7,1.3,1.2,2.5,1.4l1.4,0.3
		c0.4,0.1,0.8,0.2,1.1,0.4c0.3,0.1,0.4,0.4,0.4,0.7c0,0.5-0.3,0.9-1,1.1C84.7,69,84.2,69,83.7,69c-0.8,0-1.5-0.2-2.2-0.6
		c-0.6-0.4-1.1-0.9-1.5-1.6v2.8c0.9,0.5,1.8,0.9,2.7,1.2l0,2.1c0,0,0,0.1,0.1,0.1L84.7,73C84.7,73.1,84.7,73.1,84.7,73z"/>
	<path class="st0" d="M77.4,9.1c-7,0-12.6,5.7-12.6,12.6s5.7,12.6,12.6,12.6c7,0,12.6-5.7,12.6-12.6C90,14.7,84.3,9.1,77.4,9.1z
		 M77.4,31.6c-5.4,0-9.9-4.4-9.9-9.9c0-5.4,4.4-9.9,9.9-9.9c5.4,0,9.9,4.4,9.9,9.9C87.2,27.1,82.8,31.6,77.4,31.6z"/>
	<path class="st0" d="M80,21.1c-0.4-0.2-0.9-0.4-1.4-0.5c-0.5-0.1-1-0.2-1.4-0.3c-0.4-0.1-0.8-0.2-1.1-0.4c-0.3-0.2-0.4-0.4-0.4-0.8
		c0-0.4,0.1-0.6,0.4-0.7c0.3-0.1,0.6-0.2,1-0.2c1.4,0,2.5,0.4,3.4,1.3V17c-0.3-0.4-1.2-0.6-2.5-0.8v-2.4c0,0,0-0.1-0.1-0.1h-1.8
		c-0.1,0-0.1,0-0.1,0.1v2.4c-0.4,0.2-0.9,0.4-1.3,0.7c-0.4,0.3-0.8,0.7-0.9,1s-0.3,0.8-0.3,1.4s0.1,1,0.4,1.4
		c0.5,0.7,1.3,1.2,2.5,1.4l1.4,0.3c0.4,0.1,0.8,0.2,1.1,0.4c0.3,0.1,0.4,0.4,0.4,0.7c0,0.5-0.3,0.9-1,1.1c-0.3,0.1-0.7,0.1-1.3,0.1
		c-0.8,0-1.5-0.2-2.2-0.6c-0.6-0.4-1.1-0.9-1.5-1.6v2.8c0.9,0.5,1.8,0.9,2.7,1.2l0,2.1c0,0,0,0.1,0.1,0.1h1.8c0.1,0,0.1,0,0.1-0.1
		v-2c1.2-0.4,2.1-0.9,2.6-1.6c0.5-0.6,0.7-1.1,0.7-1.7C81.5,22.3,81,21.5,80,21.1z"/>
	<rect x="101.6" y="27.3" class="st0" width="2.8" height="3.1"/>
	<rect x="84.4" y="52.5" class="st0" width="2.8" height="3.1"/>
	<rect x="85.4" y="38.4" class="st0" width="2.8" height="3.1"/>
	<rect x="43.6" y="27.3" class="st0" width="2.8" height="3.1"/>
	<rect x="54.3" y="21.7" class="st0" width="2.8" height="3.1"/>
	<rect x="67.8" y="0.5" class="st0" width="2.8" height="3.1"/>
	<rect x="86.6" y="88" class="st0" width="2.8" height="3.1"/>
	<rect x="105.2" y="41.4" class="st0" width="2.8" height="3.1"/>
</g>
</svg>
