<?xml version="1.0" encoding="utf-8"?>
<!-- Generator: Adobe Illustrator 21.1.0, SVG Export Plug-In . SVG Version: 6.00 Build 0)  -->
<svg version="1.1" id="Layer_1" xmlns="http://www.w3.org/2000/svg" xmlns:xlink="http://www.w3.org/1999/xlink" x="0px" y="0px"
	 viewBox="0 0 120 102" style="enable-background:new 0 0 120 102;" xml:space="preserve">
<style type="text/css">
	.st0{fill:#86CB90;}
	.st1{fill:#454545;}
</style>
<g>
	<path class="st0" d="M85,58.5h15.4C96.8,82.6,76,101,51,101C23.4,101,1,78.6,1,51S23.4,1,51,1c25.1,0,45.8,18.4,49.4,42.5H85V58.5z
		 M119,51c-4.5,1.2-8,2.6-11,5c0.2-1.6,0.7-2.5,2-4.2H96.1v-1.6H110c-1.2-1.6-1.9-2.7-1.9-4.1C110.8,48.4,114.5,49.7,119,51z"/>
	<g>
		<path class="st1" d="M76.8,51h-7.4V38.9L58.8,28.2H31.2v45.7h38.3V65h7.4L76.8,51L76.8,51z M59.2,30.7l7.8,7.8h-7.8V30.7z
			 M68.1,72.3H32.7V29.7h25V40H68v11.1h-1.5v1.5H66l-2.6-2l-2.1-4.1v-5h-4.2l-1.7,4.3v2.4l0.5,2.2h-7.8l-0.9,4.4l1,3.9l-2.4,2.1
			v-1.5H34.2V71H46v-8.3l2.8-2.4l0.1,0.6l1.7,3.5h14l0.7-0.7h1.2v1.5H68v7.1C68,72.3,68.1,72.3,68.1,72.3z M66.6,62h-1.8l-0.7,0.7
			H51.6l-1.2-2.5L49,54.5l0.6-2.9H58l-0.9-3.8v-2l1.2-3.1H60v3.9l2.4,4.7l3.3,2.5h1L66.6,62L66.6,62z M38.2,68h1.4l4.9-4.1v5.6h-8.8
			v-8.8h8.8V62l-5.4,4.6H39l-1.3-1.9l-1.2,0.8L38.2,68z M75.3,63.5h-7.4V52.4h7.4V63.5z"/>
		<path class="st1" d="M45.9,34.5l3.4-2.9l-1-1.1l-2.5,2.1v-1.5H34.2v11.8H46C46,42.9,46,34.5,45.9,34.5z M35.7,41.5v-8.8h8.8V34
			l-5.4,4.6H39l-1.3-1.9l-1.2,0.8l1.7,2.5h1.4l4.9-4.1v5.6C44.5,41.5,35.7,41.5,35.7,41.5z"/>
		<path class="st1" d="M45.9,48.5l3.4-2.9l-1-1.1l-2.5,2.1v-1.5H34.2V57H46C46,57,46,48.5,45.9,48.5z M35.7,55.5v-8.8h8.8V48
			l-5.4,4.6H39l-1.3-1.9l-1.2,0.8l1.7,2.5h1.4l4.9-4.1v5.6L35.7,55.5L35.7,55.5z"/>
	</g>
</g>
</svg>
