<?xml version="1.0" encoding="utf-8"?>
<!-- Generator: Adobe Illustrator 21.1.0, SVG Export Plug-In . SVG Version: 6.00 Build 0)  -->
<svg version="1.1" id="Layer_1" xmlns="http://www.w3.org/2000/svg" xmlns:xlink="http://www.w3.org/1999/xlink" x="0px" y="0px"
	 viewBox="0 0 102 92" style="enable-background:new 0 0 102 92;" xml:space="preserve">
<style type="text/css">
	.st0{fill:#51714F;}
</style>
<g>
	<path class="st0" d="M72.8,7.4H19.6c-0.9,0-1.6,0.7-1.6,1.6v40.9c0,0.9,0.7,1.6,1.6,1.6h53.2c0.9,0,1.6-0.7,1.6-1.6V9.1
		C74.4,8.2,73.7,7.4,72.8,7.4z M21.2,10.7h50v6.8h-50V10.7z M21.2,48.3V20.7h50v27.6H21.2z"/>
	<path class="st0" d="M82.4,17h-4.6c-0.9,0-1.6,0.7-1.6,1.6c0,0.9,0.7,1.6,1.6,1.6h3v6.8h-3c-0.9,0-1.6,0.7-1.6,1.6s0.7,1.6,1.6,1.6
		h3v10.1c0,0.9,0.7,1.6,1.6,1.6c0.9,0,1.6-0.7,1.6-1.6V18.6C84,17.7,83.3,17,82.4,17z"/>
	<path class="st0" d="M82.4,44.3c-0.9,0-1.6,0.7-1.6,1.6v12h-50V55c0-0.9-0.7-1.6-1.6-1.6s-1.6,0.7-1.6,1.6v4.5
		c0,0.9,0.7,1.6,1.6,1.6h53.2c0.9,0,1.6-0.7,1.6-1.6V45.9C84,45,83.3,44.3,82.4,44.3z"/>
	<path class="st0" d="M23.4,12.6c-0.7,0.4-0.9,1.3-0.6,2c0.3,0.6,0.9,1,1.6,1c0.7,0,1.2-0.5,1.5-1.1C26.3,13.1,24.7,11.8,23.4,12.6z
		"/>
	<path class="st0" d="M33,12.6c-0.7,0.4-0.9,1.3-0.6,2c0.3,0.6,0.9,1,1.5,1c0.7,0,1.3-0.5,1.5-1.2C35.8,13,34.2,11.8,33,12.6z"/>
	<path class="st0" d="M28.2,12.6c-0.7,0.4-0.9,1.3-0.6,2c0.3,0.7,1,1.1,1.7,1c0.6-0.1,1.2-0.5,1.4-1.2C31,13,29.4,11.8,28.2,12.6z"
		/>
	<path class="st0" d="M61.4,12.3H39.1c-0.9,0-1.6,0.7-1.6,1.6c0,0.9,0.7,1.6,1.6,1.6h22.2c0.9,0,1.6-0.7,1.6-1.6
		C63,13.1,62.3,12.3,61.4,12.3z"/>
	<path class="st0" d="M93,0.8H9c-4.4,0-8,3.6-8,8v11.6C1,21.3,1.7,22,2.6,22s1.6-0.7,1.6-1.6V8.8c0-2.6,2.1-4.7,4.7-4.7H93
		c2.6,0,4.7,2.1,4.7,4.7v55.5H87.5c-0.9,0-1.6,0.7-1.6,1.6s0.7,1.6,1.6,1.6h10.2v3c0,2.6-2.1,4.7-4.7,4.7H62.7H39.3H9
		c-2.6,0-4.7-2.1-4.7-4.7v-3h77.9c0.9,0,1.6-0.7,1.6-1.6s-0.7-1.6-1.6-1.6H4.3V25.8c0-0.9-0.7-1.6-1.6-1.6S1,24.9,1,25.8v44.8
		c0,4.4,3.6,8,8,8h27.9l-4,9.4H25c-0.9,0-1.6,0.7-1.6,1.6c0,0.9,0.7,1.6,1.6,1.6H77c0.9,0,1.6-0.7,1.6-1.6c0-0.9-0.7-1.6-1.6-1.6
		h-7.8l-4-9.4H93c4.4,0,8-3.6,8-8V8.8C101,4.4,97.4,0.8,93,0.8z M65.6,87.9H36.4l2.8-6.5h23.7L65.6,87.9z"/>
	<path class="st0" d="M52.4,70.2c-0.4-0.6-1.1-0.8-1.7-0.7c-0.7,0.2-1.2,0.8-1.2,1.5c-0.1,1.5,1.8,2.3,2.8,1.2
		C52.7,71.6,52.8,70.8,52.4,70.2z"/>
</g>
</svg>
