<?xml version="1.0" encoding="utf-8"?>
<!-- Generator: Adobe Illustrator 21.1.0, SVG Export Plug-In . SVG Version: 6.00 Build 0)  -->
<svg version="1.1" id="Layer_1" xmlns="http://www.w3.org/2000/svg" xmlns:xlink="http://www.w3.org/1999/xlink" x="0px" y="0px"
	 viewBox="0 0 96 96" style="enable-background:new 0 0 96 96;" xml:space="preserve">
<style type="text/css">
	.st0{fill:#51714F;}
</style>
<g>
	<path class="st0" d="M26,11.3h16.4c0.8,0,1.5-0.7,1.5-1.5c0-0.8-0.7-1.5-1.5-1.5H26c-0.8,0-1.5,0.7-1.5,1.5
		C24.6,10.6,25.2,11.3,26,11.3z"/>
	<path class="st0" d="M26,17.8h32.7c0.8,0,1.5-0.7,1.5-1.5s-0.7-1.5-1.5-1.5H26c-0.8,0-1.5,0.7-1.5,1.5S25.2,17.8,26,17.8z"/>
	<path class="st0" d="M26,38.2h16.4c0.8,0,1.5-0.7,1.5-1.5c0-0.8-0.7-1.5-1.5-1.5H26c-0.8,0-1.5,0.7-1.5,1.5
		C24.6,37.6,25.2,38.2,26,38.2z"/>
	<path class="st0" d="M26,44.8h32.4c0.8,0,1.5-0.7,1.5-1.5s-0.7-1.5-1.5-1.5H26c-0.8,0-1.5,0.7-1.5,1.5C24.6,44.1,25.2,44.8,26,44.8
		z"/>
	<path class="st0" d="M26,65.2h16.4c0.8,0,1.5-0.7,1.5-1.5s-0.7-1.5-1.5-1.5H26c-0.8,0-1.5,0.7-1.5,1.5C24.6,64.5,25.2,65.2,26,65.2
		z"/>
	<path class="st0" d="M58.2,68.8H26c-0.8,0-1.5,0.7-1.5,1.5c0,0.8,0.7,1.5,1.5,1.5h32.1c0.8,0,1.5-0.7,1.5-1.5S59,68.8,58.2,68.8z"
		/>
	<path class="st0" d="M88,75.3l-8.6-3.5V70c2.4-1.3,4.2-3.5,4.9-6.2c2.9,0,5.2-2.4,5.2-5.2c0-1.7-0.8-3.3-2.1-4.2v-3.9
		c0-7.3-6-13.3-13.3-13.3h-1c-1.1,0-2.2,0.1-3.2,0.4v-8c0-0.8-0.7-1.5-1.5-1.5H64c-0.8,0-1.5,0.7-1.5,1.5s0.7,1.5,1.5,1.5h2.9v7.7
		c-3.9,2-6.7,6-7.1,10.5H4V30.9h55c0.8,0,1.5-0.7,1.5-1.5S59.8,28,59,28H2.5C1.7,28,1,28.6,1,29.4v21.2c0,0.8,0.7,1.5,1.5,1.5h57.3
		v2.2c-0.2,0.2-0.5,0.4-0.7,0.6H2.5c-0.8,0-1.5,0.7-1.5,1.5v21.2c0,0.8,0.7,1.5,1.5,1.5h51.6c-1.3,1.7-2.2,4-2.2,7.1v7.4
		c0,0.8,0.7,1.5,1.5,1.5H59c0.8,0,1.5-0.7,1.5-1.5c0-0.8-0.7-1.5-1.5-1.5h-4.1v-5.9c0-6.2,4.9-7.9,5.1-8c0,0,0,0,0.1,0l8.1-3.2
		c0,0,0.1,0.1,0.1,0.1l4.3,4.2c0.3,0.3,0.6,0.4,1,0.4c0,0,0,0,0,0c0.4,0,0.8-0.2,1-0.5l4.2-4.3l8.1,3.3c0,0,0.1,0,0.1,0
		c0.2,0.1,5.1,1.8,5.1,8V92H79.8H69.3h-2.2h-1.8h-1.5c-0.8,0-1.5,0.7-1.5,1.5c0,0.8,0.7,1.5,1.5,1.5h1.5h1.8h2.2h10.5h13.7
		c0.8,0,1.5-0.7,1.5-1.5v-7.4C95,79.5,90.4,76.2,88,75.3z M74.5,68.2h-1.9c-4,0-7.2-3.2-7.2-7.2v-6c2.6-0.2,8-1.1,11.8-4.7
		c0.8,1.6,2.2,3.4,4.4,4.3v6.3C81.7,65,78.5,68.2,74.5,68.2z M62.5,56.3v4.5c-1.1-0.2-1.9-1.1-1.9-2.3
		C60.6,57.4,61.4,56.5,62.5,56.3z M84.7,60.8v-4.5c1.1,0.2,1.9,1.1,1.9,2.2C86.5,59.7,85.7,60.6,84.7,60.8z M73.1,40.1h1
		c5.7,0,10.3,4.6,10.3,10.3v2.4c0,0,0,0,0,0c0,0,0,0,0-0.1c0,0,0,0,0-0.1c0,0,0,0-0.1-0.1c0,0,0,0,0,0c0,0,0,0-0.1-0.1c0,0,0,0,0,0
		c0,0,0,0-0.1-0.1c0,0,0,0-0.1,0c0,0,0,0-0.1,0c0,0,0,0-0.1,0c0,0,0,0-0.1,0c0,0-0.1,0-0.1,0c0,0,0,0-0.1,0c0,0-0.1,0-0.1,0
		c0,0,0,0,0,0c-3.2-0.7-4.2-4.9-4.2-4.9c-0.1-0.6-0.6-1-1.2-1.1c-0.6-0.1-1.2,0.1-1.5,0.6c-3.9,5.4-12.5,5.5-12.6,5.5h0c0,0,0,0,0,0
		c-0.1,0-0.1,0-0.2,0c0,0,0,0,0,0c0,0-0.1,0-0.1,0c0,0,0,0-0.1,0c0,0-0.1,0-0.1,0c0,0,0,0-0.1,0c0,0,0,0-0.1,0c0,0-0.1,0-0.1,0
		c0,0,0,0-0.1,0c0,0-0.1,0-0.1,0c0,0,0,0,0,0c0,0,0,0-0.1,0.1c0,0,0,0,0,0c0,0,0,0-0.1,0.1c0,0,0,0,0,0c0,0,0,0-0.1,0.1c0,0,0,0,0,0
		c0,0,0,0,0,0.1c0,0,0,0,0,0.1c0,0,0,0,0,0v-2.5C62.7,44.7,67.4,40.1,73.1,40.1z M59,75.3c-0.5,0.2-1.1,0.4-1.7,0.8
		c-0.1,0-0.2,0-0.2,0H4V57.9h53.7c0,0.2,0,0.5,0,0.7c0,2.9,2.4,5.2,5.2,5.2c0,0,0,0,0,0c0.8,2.7,2.6,4.9,4.9,6.2v1.9L59,75.3z
		 M73.5,76l-2.7-2.7V71c0.6,0.1,1.2,0.2,1.9,0.2h1.9c0.6,0,1.3-0.1,1.9-0.2v1.9c0,0,0,0,0,0v0.2L73.5,76z"/>
	<path class="st0" d="M16.2,9.6c0.8,0,1.5-0.7,1.5-1.5c0-0.8-0.7-1.5-1.5-1.5H8.7c-0.8,0-1.5,0.7-1.5,1.5V18c0,0.8,0.7,1.5,1.5,1.5
		H19c0.8,0,1.5-0.7,1.5-1.5v-2.7c0-0.8-0.7-1.5-1.5-1.5s-1.5,0.7-1.5,1.5v1.2h-7.4V9.6H16.2z"/>
	<path class="st0" d="M21.9,7.1c-0.6-0.6-1.5-0.5-2.1,0.1l-4.9,5.2l-1.5-1.7c-0.6-0.6-1.5-0.6-2.1-0.1c-0.6,0.6-0.6,1.5-0.1,2.1
		l2.6,2.8c0.3,0.3,0.7,0.5,1.1,0.5c0,0,0,0,0,0c0.4,0,0.8-0.2,1.1-0.5l6-6.4C22.5,8.6,22.5,7.6,21.9,7.1z"/>
	<path class="st0" d="M16.2,36.6c0.8,0,1.5-0.7,1.5-1.5c0-0.8-0.7-1.5-1.5-1.5H8.7c-0.8,0-1.5,0.7-1.5,1.5V45c0,0.8,0.7,1.5,1.5,1.5
		H19c0.8,0,1.5-0.7,1.5-1.5v-2.7c0-0.8-0.7-1.5-1.5-1.5s-1.5,0.7-1.5,1.5v1.2h-7.4v-6.9H16.2z"/>
	<path class="st0" d="M21.9,34c-0.6-0.6-1.5-0.5-2.1,0.1l-4.9,5.2l-1.5-1.7c-0.6-0.6-1.5-0.6-2.1-0.1c-0.6,0.6-0.6,1.5-0.1,2.1
		l2.6,2.8c0.3,0.3,0.7,0.5,1.1,0.5c0,0,0,0,0,0c0.4,0,0.8-0.2,1.1-0.5l6-6.4C22.5,35.5,22.5,34.6,21.9,34z"/>
	<path class="st0" d="M19,67.8c-0.8,0-1.5,0.7-1.5,1.5v1.2h-7.4v-6.9h6c0.8,0,1.5-0.7,1.5-1.5c0-0.8-0.7-1.5-1.5-1.5H8.7
		c-0.8,0-1.5,0.7-1.5,1.5v9.8c0,0.8,0.7,1.5,1.5,1.5H19c0.8,0,1.5-0.7,1.5-1.5v-2.7C20.5,68.4,19.8,67.8,19,67.8z"/>
	<path class="st0" d="M19.8,61.1l-4.9,5.2l-1.5-1.7c-0.6-0.6-1.5-0.6-2.1-0.1c-0.6,0.6-0.6,1.5-0.1,2.1l2.6,2.8
		c0.3,0.3,0.7,0.5,1.1,0.5c0,0,0,0,0,0c0.4,0,0.8-0.2,1.1-0.5l6-6.4c0.6-0.6,0.5-1.5-0.1-2.1C21.3,60.4,20.4,60.5,19.8,61.1z"/>
	<path class="st0" d="M2.5,25.2h65.9c0.8,0,1.5-0.7,1.5-1.5V2.5c0-0.8-0.7-1.5-1.5-1.5H64c-0.8,0-1.5,0.7-1.5,1.5S63.2,4,64,4h2.9
		v18.2H4V4h55c0.8,0,1.5-0.7,1.5-1.5S59.8,1,59,1H2.5C1.7,1,1,1.7,1,2.5v21.2C1,24.5,1.7,25.2,2.5,25.2z"/>
</g>
</svg>
