<?xml version="1.0" encoding="utf-8"?>
<!-- Generator: Adobe Illustrator 21.1.0, SVG Export Plug-In . SVG Version: 6.00 Build 0)  -->
<svg version="1.1" id="Layer_1" xmlns="http://www.w3.org/2000/svg" xmlns:xlink="http://www.w3.org/1999/xlink" x="0px" y="0px"
	 viewBox="0 0 102 99" style="enable-background:new 0 0 102 99;" xml:space="preserve">
<style type="text/css">
	.st0{fill:#51714F;}
</style>
<g>
	<path class="st0" d="M25.9,31H12.6c-0.9,0-1.6,0.7-1.6,1.6v13.4c0,0.9,0.7,1.6,1.6,1.6h13.4c0.9,0,1.6-0.7,1.6-1.6V32.5
		C27.5,31.7,26.8,31,25.9,31z M24.4,44.3H14.2V34.1h10.2V44.3z"/>
	<path class="st0" d="M32.6,47.5H46c0.9,0,1.6-0.7,1.6-1.6V32.5c0-0.9-0.7-1.6-1.6-1.6H32.6c-0.9,0-1.6,0.7-1.6,1.6v13.4
		C31.1,46.8,31.8,47.5,32.6,47.5z M34.2,34.1h10.2v10.2H34.2V34.1z"/>
	<path class="st0" d="M25.9,51H12.6c-0.9,0-1.6,0.7-1.6,1.6v13.4c0,0.9,0.7,1.6,1.6,1.6h13.4c0.9,0,1.6-0.7,1.6-1.6V52.6
		C27.5,51.7,26.8,51,25.9,51z M24.4,64.4H14.2V54.1h10.2V64.4z"/>
	<path class="st0" d="M77.6,41.9V12.5c0-0.9-0.7-1.6-1.6-1.6h-6.8V2.5c0-0.9-0.7-1.6-1.6-1.6H61c-0.9,0-1.6,0.7-1.6,1.6v8.5H44.2
		V2.5c0-0.9-0.7-1.6-1.6-1.6H36c-0.9,0-1.6,0.7-1.6,1.6v8.5H19.2V2.5c0-0.9-0.7-1.6-1.6-1.6h-6.7c-0.9,0-1.6,0.7-1.6,1.6v8.5H2.6
		c-0.9,0-1.6,0.7-1.6,1.6v60.1c0,0.9,0.7,1.6,1.6,1.6h42.2c1,6.4,4.1,12.2,9,16.6c5.2,4.7,12,7.3,19,7.3c15.6,0,28.3-12.7,28.3-28.3
		C101,56,91,44.3,77.6,41.9z M62.6,4h3.5v8.5v8.5h-3.5v-8.5V4z M37.5,4h3.5v8.5v8.5h-3.5v-8.5V4z M12.5,4H16v8.5v8.5h-3.5v-8.5V4z
		 M4.1,14.1h5.2v8.5c0,0.9,0.7,1.6,1.6,1.6h6.7c0.9,0,1.6-0.7,1.6-1.6v-8.5h15.2v8.5c0,0.9,0.7,1.6,1.6,1.6h6.7
		c0.9,0,1.6-0.7,1.6-1.6v-8.5h15.2v8.5c0,0.9,0.7,1.6,1.6,1.6h6.7c0.9,0,1.6-0.7,1.6-1.6v-8.5h5.2v27.5c-0.6,0-1.2-0.1-1.8-0.1
		c-1.7,0-3.4,0.2-5.1,0.5v-9.4c0-0.9-0.7-1.6-1.6-1.6H52.7c-0.9,0-1.6,0.7-1.6,1.6v13.4c0,0.9,0.7,1.6,1.6,1.6h2.7
		c-2.6,2-4.8,4.5-6.6,7.3c-0.4,0.7-0.8,1.4-1.2,2.1v-4.3c0-0.9-0.7-1.6-1.6-1.6H32.6c-0.9,0-1.6,0.7-1.6,1.6v13.4
		c0,0.9,0.7,1.6,1.6,1.6h11.9c-0.1,0.8-0.1,1.5-0.1,2.3c0,0.4,0,0.8,0,1.2H4.1V14.1z M60.4,44.3h-6.2V34.1h10.2v8.6
		C63.1,43.2,61.7,43.7,60.4,44.3z M44.4,54.1v10.2H34.2V54.1H44.4z M72.7,95c-12.9,0-23.7-9.7-25-22.5c0,0,0,0,0,0
		c-0.1-0.9-0.1-1.8-0.1-2.7c0-9.6,5.3-18.2,13.9-22.5c0,0,0,0,0,0c1.6-0.8,3.3-1.4,5-1.9c0,0,0,0,0,0c2-0.5,4.2-0.8,6.3-0.8
		c1,0,2.1,0.1,3.1,0.2h0c12.5,1.6,22,12.3,22,25C97.9,83.7,86.6,95,72.7,95z"/>
	<path class="st0" d="M72.4,59.1c3.6,0,6.6,1.9,6.6,4.2c0,0.8,0.7,1.5,1.5,1.5c0.8,0,1.5-0.7,1.5-1.5c0-3.6-3.5-6.6-8.1-7.1v-1.8
		c0-0.8-0.7-1.5-1.5-1.5c-0.8,0-1.5,0.7-1.5,1.5v1.8c-4.6,0.5-8.1,3.5-8.1,7.1c0,4,4.2,7.2,9.6,7.2c3.6,0,6.6,1.9,6.6,4.2
		c0,2.3-3,4.2-6.6,4.2c-3.6,0-6.6-1.9-6.6-4.2c0-0.8-0.7-1.5-1.5-1.5c-0.8,0-1.5,0.7-1.5,1.5c0,3.6,3.5,6.6,8.1,7.1v1.8
		c0,0.8,0.7,1.5,1.5,1.5c0.8,0,1.5-0.7,1.5-1.5v-1.8c4.6-0.5,8.1-3.5,8.1-7.1c0-4-4.2-7.2-9.6-7.2c-3.6,0-6.6-1.9-6.6-4.2
		C65.8,61,68.8,59.1,72.4,59.1L72.4,59.1z M72.4,59.1"/>
	<path class="st0" d="M54.8,74.4c0.9,8.9,8.9,15.4,17.9,14.5l0.3,2.9c-10.5,1.1-20-6.6-21.1-17.1c0,0,0-0.1,0-0.1L54.8,74.4
		C54.8,74.3,54.8,74.4,54.8,74.4z"/>
</g>
</svg>
