<?xml version="1.0" encoding="utf-8"?>
<!-- Generator: Adobe Illustrator 21.1.0, SVG Export Plug-In . SVG Version: 6.00 Build 0)  -->
<svg version="1.1" id="Layer_1" xmlns="http://www.w3.org/2000/svg" xmlns:xlink="http://www.w3.org/1999/xlink" x="0px" y="0px"
	 viewBox="0 0 90 90" style="enable-background:new 0 0 90 90;" xml:space="preserve">
<style type="text/css">
	.st0{fill:#51714F;}
</style>
<g>
	<path class="st0" d="M3.9,20.1h14.7c0.9,0,1.5-0.6,1.5-1.5V3.9h48.4v7.3h2.9V2.5c0-0.9-0.6-1.5-1.5-1.5H18.6c-0.2,0-0.3,0-0.4,0.1
		H18c-0.2,0.2-0.3,0.2-0.4,0.3L1.4,17.6c-0.1,0.2-0.1,0.3-0.3,0.4v0.1c0,0.2-0.1,0.3-0.1,0.4v68.9C1,88.4,1.6,89,2.5,89H45v-2.9H3.9
		V20.1z M6,17.1l5.6-5.6L17.1,6v11.2H6z M6,17.1"/>
	<path class="st0" d="M78.7,58.2H64.1c-5.7,0-10.3,4.5-10.3,10.3V89h2.9V68.5c0-4.1,3.2-7.3,7.3-7.3H66L70.1,72
		c0.2,0.4,0.7,0.9,1.3,0.9c0.6,0,1.2-0.4,1.6-0.9l4.1-10.8h1.6c4.1,0,7.3,3.2,7.3,7.3V89H89V68.5C89,62.7,84.5,58.2,78.7,58.2
		L78.7,58.2z M71.5,67.3l-2.3-6.2h4.7L71.5,67.3z M71.5,67.3"/>
	<rect x="69.9" y="75.8" class="st0" width="2.9" height="2.9"/>
	<rect x="69.9" y="81.7" class="st0" width="2.9" height="2.9"/>
	<path class="st0" d="M69.9,56.7h2.9c4.1,0,7.3-3.2,7.3-7.3V45c0-4.1-3.2-7.3-7.3-7.3h-2.9c-4.1,0-7.3,3.2-7.3,7.3v4.4
		C62.6,53.5,65.8,56.7,69.9,56.7L69.9,56.7z M65.5,45c0-2.5,1.9-4.4,4.4-4.4h2.9c2.5,0,4.4,1.9,4.4,4.4v4.4c0,2.5-1.9,4.4-4.4,4.4
		h-2.9c-2.5,0-4.4-1.9-4.4-4.4V45z M65.5,45"/>
	<rect x="61.1" y="72.9" class="st0" width="2.9" height="16.1"/>
	<rect x="78.7" y="72.9" class="st0" width="2.9" height="16.1"/>
	<path class="st0" d="M87.5,21.5h-4.4v-4.4c0-0.9-0.6-1.5-1.5-1.5H50.9v2.9h29.3v2.9H34.7c-0.3,0-0.6,0.2-0.7,0.2l-11.6,4.4
		c-0.4,0.2-0.9,0.7-0.9,1.3c0,0.6,0.4,1.2,0.9,1.3L34,33.1c0.1,0,0.3,0.2,0.4,0.2h53.1c0.9,0,1.5-0.6,1.5-1.5V23
		C89,22.1,88.4,21.5,87.5,21.5L87.5,21.5z M33.3,25.2v4.5l-6.2-2.4L33.3,25.2z M36.2,24.5h38.1v5.9H36.2V24.5z M86.1,30.3h-8.8v-5.9
		h8.8V30.3z M86.1,30.3"/>
	<rect x="9.8" y="42.1" class="st0" width="14.7" height="2.9"/>
	<rect x="9.8" y="47.9" class="st0" width="14.7" height="2.9"/>
	<rect x="9.8" y="53.8" class="st0" width="14.7" height="2.9"/>
	<rect x="9.8" y="59.7" class="st0" width="14.7" height="2.9"/>
	<rect x="30.3" y="42.1" class="st0" width="14.7" height="2.9"/>
	<rect x="30.3" y="47.9" class="st0" width="14.7" height="2.9"/>
	<rect x="50.9" y="42.1" class="st0" width="7.3" height="2.9"/>
	<rect x="50.9" y="47.9" class="st0" width="7.3" height="2.9"/>
	<rect x="30.3" y="53.8" class="st0" width="14.7" height="2.9"/>
	<rect x="30.3" y="59.7" class="st0" width="14.7" height="2.9"/>
	<rect x="9.8" y="67" class="st0" width="2.9" height="2.9"/>
	<rect x="15.7" y="67" class="st0" width="2.9" height="2.9"/>
	<rect x="21.5" y="67" class="st0" width="2.9" height="2.9"/>
	<rect x="30.3" y="67" class="st0" width="2.9" height="2.9"/>
	<rect x="36.2" y="67" class="st0" width="2.9" height="2.9"/>
	<rect x="42.1" y="67" class="st0" width="2.9" height="2.9"/>
	<rect x="9.8" y="72.9" class="st0" width="2.9" height="2.9"/>
	<rect x="15.7" y="72.9" class="st0" width="2.9" height="2.9"/>
	<rect x="21.5" y="72.9" class="st0" width="2.9" height="2.9"/>
	<rect x="30.3" y="72.9" class="st0" width="2.9" height="2.9"/>
	<rect x="36.2" y="72.9" class="st0" width="2.9" height="2.9"/>
	<rect x="42.1" y="72.9" class="st0" width="2.9" height="2.9"/>
	<rect x="9.8" y="78.7" class="st0" width="2.9" height="2.9"/>
	<rect x="15.7" y="78.7" class="st0" width="2.9" height="2.9"/>
	<rect x="21.5" y="78.7" class="st0" width="2.9" height="2.9"/>
	<rect x="30.3" y="78.7" class="st0" width="2.9" height="2.9"/>
	<rect x="36.2" y="78.7" class="st0" width="2.9" height="2.9"/>
	<rect x="42.1" y="78.7" class="st0" width="2.9" height="2.9"/>
</g>
</svg>
