<?xml version="1.0" encoding="utf-8"?>
<!-- Generator: Adobe Illustrator 21.1.0, SVG Export Plug-In . SVG Version: 6.00 Build 0)  -->
<svg version="1.1" id="Layer_1" xmlns="http://www.w3.org/2000/svg" xmlns:xlink="http://www.w3.org/1999/xlink" x="0px" y="0px"
	 viewBox="0 0 114 112" style="enable-background:new 0 0 114 112;" xml:space="preserve">
<style type="text/css">
	.st0{fill:#517250;}
</style>
<g>
	<path class="st0" d="M42,63.3c-3.6,0-6.6-3-6.6-6.6s3-6.6,6.6-6.6c3.6,0,6.6,3,6.6,6.6S45.7,63.3,42,63.3z M42,53.1
		c-2,0-3.6,1.6-3.6,3.6c0,2,1.6,3.6,3.6,3.6c2,0,3.6-1.6,3.6-3.6C45.6,54.7,44,53.1,42,53.1z"/>
	<path class="st0" d="M47.8,13.3H36.2c-3.4,0-6.2-2.8-6.2-6.2c0-3.4,2.8-6.2,6.2-6.2h11.6c3.4,0,6.2,2.8,6.2,6.2
		C54,10.5,51.2,13.3,47.8,13.3z M36.2,4c-1.7,0-3.2,1.4-3.2,3.2c0,1.7,1.4,3.2,3.2,3.2h11.6c1.7,0,3.2-1.4,3.2-3.2
		C51,5.4,49.5,4,47.8,4H36.2z"/>
	<rect x="40.4" y="6.9" class="st0" width="3.2" height="9.5"/>
	<rect x="40.4" y="83.6" class="st0" width="3.2" height="5.7"/>
	<rect x="55.7" y="79.5" transform="matrix(0.866 -0.5 0.5 0.866 -33.4911 39.6835)" class="st0" width="3.2" height="5.7"/>
	<rect x="25.1" y="26.5" transform="matrix(0.866 -0.5 0.5 0.866 -11.0757 17.268)" class="st0" width="3.2" height="5.7"/>
	<rect x="66.9" y="68.3" transform="matrix(0.5 -0.866 0.866 0.5 -27.3435 94.8982)" class="st0" width="3.2" height="5.7"/>
	<rect x="13.9" y="37.7" transform="matrix(0.5 -0.866 0.866 0.5 -27.3435 33.6582)" class="st0" width="3.2" height="5.7"/>
	
		<rect x="9.8" y="53.7" transform="matrix(4.388407e-11 -1 1 4.388407e-11 -45.2007 67.9501)" class="st0" width="3.2" height="5.7"/>
	<rect x="13.9" y="69.1" transform="matrix(-0.5 -0.866 0.866 -0.5 -39.039 121.2316)" class="st0" width="3.2" height="5.7"/>
	<rect x="25.1" y="80.3" transform="matrix(-0.866 -0.5 0.5 -0.866 8.2479 168.3963)" class="st0" width="3.2" height="5.7"/>
	<path class="st0" d="M42,24.3c-0.1,0-0.1,0-0.2,0v3c0.1,0,0.1,0,0.2,0c15.7,0,28.7,12.1,30.1,27.5H47.6v3.2h24.6h1.9h1.1
		c0-0.1,0-0.3,0-0.4C75.2,39.1,60.3,24.3,42,24.3z"/>
	<path class="st0" d="M14.8,23l-2.2-3.1c-0.5-0.7-0.3-1.8,0.4-2.3l2.4-1.7c0.7-0.5,1.8-0.3,2.3,0.4l2.2,3.1l2.5-1.7l-2.2-3.1
		c-1.5-2.1-4.4-2.6-6.5-1.1l-2.4,1.7c-2.1,1.5-2.6,4.4-1.1,6.5l2.2,3.1L14.8,23z"/>
	<path class="st0" d="M70,23.4l2.2-3.1c0.5-0.7,0.3-1.8-0.4-2.3l-2.4-1.7c-0.7-0.5-1.8-0.3-2.3,0.4L65,19.8l-2.5-1.7l2.2-3.1
		c1.5-2.1,4.4-2.6,6.5-1.1l2.4,1.7c2.1,1.5,2.6,4.4,1.1,6.5l-2.2,3.1L70,23.4z"/>
	<g>
		<path class="st0" d="M111,75.2l-53.8-8.6v4.6L54,70.9v4.3h-2.1v35.8H113V75.2H111z M59.3,69.1l28.2,4.5l-28.2-2.3V69.1z
			 M56.1,73.2l1.1,0.1v0l7.1,0.6l17.1,1.4H56.1V73.2z M110.9,108.9H54V77.3h56.9V108.9z M110.9,108.9"/>
		<path class="st0" d="M58.8,85.8c2,0,3.7-1.7,3.7-3.7c0-2-1.7-3.7-3.7-3.7c-2,0-3.7,1.7-3.7,3.7C55.1,84.1,56.7,85.8,58.8,85.8
			L58.8,85.8z M58.8,80.5c0.9,0,1.6,0.7,1.6,1.6c0,0.9-0.7,1.6-1.6,1.6c-0.9,0-1.6-0.7-1.6-1.6C57.2,81.2,57.9,80.5,58.8,80.5
			L58.8,80.5z M58.8,80.5"/>
		<path class="st0" d="M102.5,82.1c0,2,1.7,3.7,3.7,3.7c2,0,3.7-1.7,3.7-3.7c0-2-1.7-3.7-3.7-3.7C104.1,78.4,102.5,80.1,102.5,82.1
			L102.5,82.1z M107.7,82.1c0,0.9-0.7,1.6-1.6,1.6c-0.9,0-1.6-0.7-1.6-1.6c0-0.9,0.7-1.6,1.6-1.6C107,80.5,107.7,81.2,107.7,82.1
			L107.7,82.1z M107.7,82.1"/>
		<path class="st0" d="M58.8,100.5c-2,0-3.7,1.7-3.7,3.7c0,2,1.7,3.7,3.7,3.7c2,0,3.7-1.7,3.7-3.7C62.4,102.2,60.8,100.5,58.8,100.5
			L58.8,100.5z M58.8,105.8c-0.9,0-1.6-0.7-1.6-1.6c0-0.9,0.7-1.6,1.6-1.6c0.9,0,1.6,0.7,1.6,1.6C60.3,105.1,59.6,105.8,58.8,105.8
			L58.8,105.8z M58.8,105.8"/>
		<path class="st0" d="M106.2,100.5c-2,0-3.7,1.7-3.7,3.7c0,2,1.7,3.7,3.7,3.7c2,0,3.7-1.7,3.7-3.7
			C109.8,102.2,108.2,100.5,106.2,100.5L106.2,100.5z M106.2,105.8c-0.9,0-1.6-0.7-1.6-1.6c0-0.9,0.7-1.6,1.6-1.6
			c0.9,0,1.6,0.7,1.6,1.6C107.7,105.1,107,105.8,106.2,105.8L106.2,105.8z M106.2,105.8"/>
		<path class="st0" d="M85.1,107.6c0.1,0,0.3,0,0.4-0.1c0.4-0.1,0.8-0.2,1.1-0.3c0.2-0.1,0.4-0.1,0.5-0.2c0.2-0.1,0.4-0.2,0.7-0.2
			c0.2-0.1,0.4-0.1,0.6-0.2c0.2-0.1,0.4-0.2,0.6-0.3c0.3-0.1,0.6-0.3,0.8-0.5c0,0,0.1,0,0.1-0.1h11.5l-0.1-1.1c0-0.1,0-0.3,0-0.4
			c0-2.6,2.1-4.7,4.7-4.7c0.1,0,0.3,0,0.4,0l1.1,0.1V86.7l-1.1,0.1c-0.1,0-0.3,0-0.4,0c-2.6,0-4.7-2.1-4.7-4.7c0-0.1,0-0.3,0-0.4
			l0.1-1.1H90c-2.2-1.3-4.8-2.1-7.6-2.1c-2.8,0-5.3,0.8-7.6,2.1H63.4l0.1,1.1c0,0.1,0,0.3,0,0.4c0,2.6-2.1,4.7-4.7,4.7
			c-0.1,0-0.3,0-0.4,0l-1.1-0.1v12.9l1.1-0.1c0.1,0,0.3,0,0.4,0c2.6,0,4.7,2.1,4.7,4.7c0,0.1,0,0.3,0,0.4l-0.1,1.2h11.5
			c0.2,0.1,0.3,0.2,0.5,0.3c0.1,0,0.1,0.1,0.2,0.1c0.3,0.2,0.7,0.4,1,0.5c0.1,0,0.2,0.1,0.2,0.1c0.4,0.2,0.8,0.3,1.2,0.5
			c0,0,0,0,0,0c0.4,0.1,0.9,0.2,1.3,0.3c0.1,0,0.2,0,0.3,0.1c0.3,0.1,0.7,0.1,1,0.2c0.1,0,0.3,0,0.4,0c0.4,0,0.9,0.1,1.4,0.1
			c0.4,0,0.9,0,1.3-0.1c0.1,0,0.3,0,0.4,0C84.5,107.7,84.8,107.7,85.1,107.6L85.1,107.6z M79.5,105.4c-0.1,0-0.1,0-0.2-0.1
			c-0.3-0.1-0.7-0.2-1-0.3c-0.2-0.1-0.3-0.1-0.5-0.2c-0.2-0.1-0.5-0.2-0.7-0.3c-0.1-0.1-0.2-0.1-0.3-0.2l2.8-1.4
			c0.6-0.3,1-0.9,1-1.6v-1.7l-0.6-0.3c-1.3-0.6-2.2-1.7-2.7-3.4l-0.1-0.6l-0.6-0.2c-0.3-0.1-0.6-0.4-0.6-0.7v-0.9
			c0-0.3,0.2-0.6,0.4-0.7l0.5-0.3l0.1-0.6c0.1-0.8,0.3-1.6,0.6-2.3c0.1-0.3,0.2-0.5,0.3-0.7c0.3-0.6,0.4-1,0.4-1.5
			c1.1,0.5,2.3,0.8,3.6,0.7c0.1,0,0.3,0,0.4,0c3.4,0,5,1.2,5.3,3.9l0.1,0.6l0.5,0.3c0.2,0.1,0.4,0.3,0.4,0.7v0.9
			c0,0.3-0.2,0.6-0.6,0.7l-0.6,0.2l-0.1,0.6c-0.5,1.7-1.3,2.8-2.7,3.4L84,99.7v1.7c0,0.7,0.4,1.3,1,1.6l2.9,1.5c0,0-0.1,0-0.1,0.1
			c-0.4,0.2-0.7,0.3-1.1,0.5c0,0-0.1,0-0.1,0.1C84.3,105.9,81.8,106,79.5,105.4L79.5,105.4z M92.8,82.6h6.6c0.3,3.4,2.9,6,6.3,6.3
			v8.5c-3.4,0.3-6,2.9-6.3,6.3h-6.6c0,0,0,0,0,0c0.2-0.2,0.4-0.4,0.5-0.6c0.2-0.2,0.3-0.4,0.5-0.5c0.1-0.1,0.1-0.1,0.2-0.2
			c1.7-2.2,2.8-4.8,3.1-7.6c0,0,0-0.1,0-0.1c0.1-0.5,0.1-1,0.1-1.5c0-0.5,0-1-0.1-1.5c0,0,0-0.1,0-0.1c-0.3-2.8-1.4-5.4-3.1-7.6
			c-0.1-0.1-0.1-0.1-0.2-0.2c-0.2-0.2-0.3-0.4-0.5-0.5C93.2,83,93,82.8,92.8,82.6C92.8,82.7,92.8,82.6,92.8,82.6L92.8,82.6z
			 M89.2,82.5c0.9,0.6,1.7,1.2,2.4,1.9c0.1,0.1,0.2,0.2,0.3,0.3c0.2,0.3,0.4,0.5,0.6,0.8c0.1,0.1,0.2,0.3,0.3,0.4
			c0.2,0.3,0.4,0.6,0.5,0.8c0.1,0.1,0.2,0.2,0.2,0.4c0.2,0.4,0.4,0.8,0.6,1.2c0.1,0.2,0.1,0.3,0.2,0.5c0.1,0.3,0.2,0.6,0.3,0.9
			c0.1,0.2,0.1,0.4,0.1,0.5c0.1,0.3,0.1,0.6,0.2,1c0,0.2,0.1,0.3,0.1,0.5c0.1,0.5,0.1,1,0.1,1.5c0,0.5,0,1-0.1,1.5
			c0,0.2-0.1,0.3-0.1,0.5c-0.1,0.3-0.1,0.7-0.2,1c0,0.2-0.1,0.4-0.1,0.5c-0.1,0.3-0.2,0.6-0.3,0.9c-0.1,0.2-0.1,0.3-0.2,0.5
			c-0.2,0.4-0.4,0.8-0.6,1.2c-0.1,0.1-0.2,0.2-0.2,0.4c-0.2,0.3-0.3,0.6-0.5,0.8c-0.1,0.1-0.2,0.3-0.3,0.4c-0.2,0.3-0.4,0.5-0.6,0.8
			c-0.1,0.1-0.2,0.2-0.3,0.3c-0.5,0.5-1.1,1-1.6,1.4c-0.2-0.1-0.4-0.3-0.6-0.4l-3.3-1.7v-0.2c1.5-0.8,2.5-2.2,3.1-4
			c0.9-0.5,1.5-1.4,1.5-2.5v-0.9c0-0.9-0.4-1.7-1.1-2.2c-0.4-2.5-2.1-5.3-7.3-5.3c-0.2,0-0.4,0-0.6,0c-0.8,0.1-1.9,0-2.9-0.7
			c-0.4-0.2-0.6-0.5-0.8-0.7c-0.3-0.4-0.9-0.6-1.4-0.4c-0.5,0.2-0.8,0.7-0.8,1.3c0,0.3,0.1,0.8,0.2,1.2c0.2,0.8,0.2,0.8-0.1,1.3
			c-0.1,0.2-0.2,0.5-0.4,0.8c-0.3,0.7-0.5,1.5-0.6,2.4c-0.7,0.5-1,1.4-1,2.2v0.9c0,1.1,0.6,2,1.5,2.5c0.6,1.8,1.6,3.2,3.1,4v0.2
			l-3.4,1.7c-0.1,0.1-0.2,0.1-0.3,0.2c-0.5-0.4-1-0.8-1.4-1.3c-0.1-0.1-0.2-0.2-0.3-0.3c-0.2-0.3-0.4-0.5-0.6-0.8
			c-0.1-0.1-0.2-0.3-0.3-0.4c-0.2-0.3-0.4-0.6-0.5-0.8c-0.1-0.1-0.2-0.2-0.2-0.4c-0.2-0.4-0.4-0.8-0.6-1.2c-0.1-0.2-0.1-0.3-0.2-0.5
			c-0.1-0.3-0.2-0.6-0.3-0.9c-0.1-0.2-0.1-0.4-0.1-0.5c-0.1-0.3-0.1-0.6-0.2-1c0-0.2-0.1-0.3-0.1-0.5c-0.1-0.5-0.1-1-0.1-1.5
			c0-0.5,0-1,0.1-1.5c0-0.2,0-0.3,0.1-0.5c0.1-0.3,0.1-0.7,0.2-1c0-0.2,0.1-0.3,0.1-0.5c0.1-0.3,0.2-0.6,0.3-0.9
			c0.1-0.2,0.1-0.3,0.2-0.5c0.2-0.4,0.4-0.8,0.6-1.2c0.1-0.1,0.2-0.3,0.2-0.4c0.2-0.3,0.3-0.6,0.5-0.8c0.1-0.1,0.2-0.3,0.3-0.4
			c0.2-0.3,0.4-0.5,0.6-0.8c0.1-0.1,0.2-0.2,0.3-0.3c0.7-0.7,1.5-1.4,2.3-1.9c2-1.2,4.3-2,6.8-2C84.9,80.5,87.3,81.2,89.2,82.5
			L89.2,82.5z M65.6,103.7c-0.3-3.4-2.9-6-6.3-6.3v-8.5c3.4-0.3,6-2.9,6.3-6.3h6.6c0,0,0,0,0,0.1c-0.2,0.2-0.3,0.4-0.5,0.6
			c-0.2,0.2-0.3,0.4-0.5,0.5C71,83.8,71,83.9,70.9,84c-1.7,2.2-2.8,4.8-3.1,7.6c0,0,0,0.1,0,0.1c-0.1,0.5-0.1,1-0.1,1.5
			c0,0.5,0,1,0.1,1.5c0,0,0,0.1,0,0.1c0.3,2.8,1.4,5.4,3.1,7.6c0.1,0.1,0.1,0.1,0.2,0.2c0.2,0.2,0.3,0.4,0.5,0.5
			c0.2,0.2,0.3,0.4,0.5,0.6c0,0,0,0,0,0H65.6z M65.6,103.7"/>
	</g>
	<path class="st0" d="M48.2,94.6c-2,0.3-4.1,0.5-6.2,0.5c-20.9,0-38-17-38-38s17-38,38-38s38,17,38,38c0,3-0.4,6-1,8.8
		c1.1,0.1,2.1,0.3,3,0.4c0.7-3,1-6.1,1-9.2c0-22.6-18.4-41-41-41S1,34.5,1,57.1s18.4,41,41,41c2.1,0,4.2-0.2,6.2-0.5L48.2,94.6z"/>
</g>
</svg>
