<?xml version="1.0" encoding="utf-8"?>
<!-- Generator: Adobe Illustrator 17.0.1, SVG Export Plug-In . SVG Version: 6.00 Build 0)  -->
<!DOCTYPE svg PUBLIC "-//W3C//DTD SVG 1.1//EN" "http://www.w3.org/Graphics/SVG/1.1/DTD/svg11.dtd">
<svg version="1.1" id="Layer_1" xmlns="http://www.w3.org/2000/svg" xmlns:xlink="http://www.w3.org/1999/xlink" x="0px" y="0px"
	 width="130px" height="130px" viewBox="30 30 130 130" enable-background="new 30 30 130 130" xml:space="preserve">
<!-- <filter  width="200%" height="200%" x="-50%" y="-50%" id="a">
	<feMorphology  operator="dilate" in="SourceGraphic" result="SvgjsFeMorphology1228Out"></feMorphology>
	<feOffset  in="SvgjsFeMorphology1228Out" result="SvgjsFeOffset1229Out"></feOffset>
	<feGaussianBlur  stdDeviation="15" in="SvgjsFeOffset1229Out" result="SvgjsFeGaussianBlur1230Out"></feGaussianBlur>
	<feComposite  in2="SourceAlpha" operator="out" in="SvgjsFeGaussianBlur1230Out" result="SvgjsFeComposite1231Out"></feComposite>
</filter> -->
<g filter="url(#a)">
	<circle opacity="0.1" fill="#445A87" cx="95" cy="95" r="65"/>
</g>
<path fill="#FFFFFF" d="M95,30c35.899,0,65,29.101,65,65s-29.101,65-65,65s-65-29.101-65-65S59.101,30,95,30z"/>
<path fill="#FFFFFF" d="M95,30c35.899,0,65,29.101,65,65s-29.101,65-65,65s-65-29.101-65-65S59.101,30,95,30z"/>
<g>
	<defs>
		<circle id="SVGID_1_" cx="95" cy="95" r="65"/>
	</defs>
	<clipPath id="SVGID_2_">
		<use xlink:href="#SVGID_1_"  overflow="visible"/>
	</clipPath>
	<path clip-path="url(#SVGID_2_)" fill="none" stroke="#424C53" stroke-width="10" stroke-miterlimit="50" d="M95,30
		c35.898,0,65,29.101,65,65s-29.102,65-65,65s-65-29.101-65-65S59.102,30,95,30z"/>
</g>
<path fill="#424C53" d="M67.42,104.25c0.14,1.36,0.36,2.65,0.62,3.91l0.06,0.24c2.03,9.36,7.31,15.81,13.27,19.66l0.18,0.11
	c4.5,2.86,9.36,4.26,13.45,4.26c4.13,0,9.02-1.41,13.55-4.31c0.04-0.04,0.09-0.05,0.13-0.09c5.93-3.84,11.2-10.28,13.22-19.61
	c0.03-0.09,0.06-0.17,0.07-0.27c0.26-1.25,0.48-2.54,0.62-3.89c3-1.47,6.2-5.42,5.98-12.65c-0.03-1.31-0.15-5.29-2.91-6.34
	c-2.74-1.03-5.6,1.83-6.14,2.41c-0.663,0.704-0.629,1.812,0.075,2.475s1.812,0.629,2.475-0.075c0.84-0.89,1.98-1.59,2.33-1.54
	c0,0.01,0.6,0.5,0.68,3.17c0.22,7.48-4.4,9.57-4.63,9.65c-0.55,0.18-0.98,0.63-1.13,1.19l-0.09,0.33c-0.03,0.11-0.05,0.21-0.06,0.32
	c-0.092,1.109-0.236,2.214-0.43,3.31c-0.07,11.69-12.87,19.1-12.87,19.1c-4,2.34-8.06,3.32-10.87,3.32c-2.8,0-6.87-0.99-10.87-3.32
	c-12.3-7.39-12.86-19.1-12.86-19.1c-0.198-1.096-0.345-2.2-0.44-3.31c-0.01-0.11-0.03-0.21-0.06-0.32l-0.09-0.33
	c-0.154-0.561-0.578-1.007-1.13-1.19c-0.06-0.02-4.85-2.08-4.62-9.65c0.07-2.63,0.65-3.15,0.64-3.15c0.4-0.07,1.52,0.63,2.36,1.52
	c0.66,0.71,1.77,0.74,2.47,0.08c0.7-0.66,0.74-1.77,0.08-2.48c-0.55-0.58-3.4-3.44-6.14-2.4c-2.75,1.04-2.87,5.02-2.91,6.33
	C61.22,98.84,64.42,102.79,67.42,104.25z"/>
<path fill="#424C53" d="M101.79,136.69H88.57c-1.06,0-1.91,0.86-1.91,1.91c0,3.3,1.68,5.6,3.65,7.09c-0.1,0.37-0.24,1.03-0.42,1.94
	l11.67,5.83c-0.7-3.86-1.26-6.81-1.51-7.77c2.296-1.63,3.657-4.274,3.65-7.09C103.7,137.55,102.85,136.69,101.79,136.69z
	 M95.19,143.94c-0.98-0.3-3.38-1.26-4.32-3.43h8.62C98.56,142.69,96.17,143.64,95.19,143.94z"/>
<path fill="#424C53" d="M100.254,159.169c0.654-0.405,1.405-0.653,2.21-0.715l-0.054-0.304l-13.26-6.62l-0.78,4.27h0.01l6.691,3.368
	c0.386-0.237,0.798-0.444,1.266-0.573C97.655,158.233,99.088,158.483,100.254,159.169z"/>
<path fill="#424C53" d="M91.67,115.37c-0.71,0.011-1.28,0.59-1.28,1.3h-0.01v0.73c0,0.71,0.58,1.29,1.3,1.29h6.29
	c0.71-0.005,1.285-0.58,1.29-1.29v-0.73c0-0.72-0.58-1.3-1.29-1.3H91.67z"/>
<path fill="#424C53" d="M70.47,77.99c0,0,0.08-3.82,1.05-5.95c0.16-0.38,0.36-0.73,0.58-1.06l0.21-0.28
	c0.17-0.23,0.36-0.44,0.56-0.65l0.26-0.25c0.26-0.23,0.54-0.45,0.83-0.64l0.1-0.07c0.33-0.2,0.68-0.37,1.04-0.52
	c0.11-0.05,0.23-0.08,0.35-0.12c0.26-0.1,0.54-0.17,0.82-0.24l0.38-0.08c0.34-0.05,0.68-0.09,1.02-0.1l0.2-0.01
	c0.28,0,0.56,0.04,0.84,0.07c0.18,0.02,0.36,0.01,0.55,0.04c0.46,0.08,0.92,0.2,1.38,0.37c2.37,0.86,5.65,1.89,13.9,1.89
	c8.26,0,11.53-1.03,13.9-1.89c3.2-1.15,6.6-0.16,8.38,2.25l0.1,0.12c0.25,0.36,0.5,0.75,0.67,1.16c1.04,1.87,0.59,4.54,0.59,4.54
	v0.78c0,10.21,3.92,7.83,3.92-11.6h0.01c0-8.15-3.75-12.68-4.75-13.44c-6.27-5.89-13.55-5.7-17.02-3.07
	c-0.097-0.047-0.185-0.112-0.26-0.19c-0.82-0.89-0.94-3.27-0.87-4.29c0.063-0.859-0.581-1.606-1.44-1.67
	c-0.45-0.03-9.75-1.94-23.29,11.64l-1.73,1.74c-0.77,0.77-0.57,1.13-1.52,0.92c-0.3-0.06-0.46-0.14-0.47-0.11
	c0-0.09-1.23-0.68-0.17-2.06c0.615-0.603,0.625-1.591,0.022-2.206c-0.603-0.615-1.591-0.625-2.206-0.022
	c-0.057,0.055-0.109,0.115-0.156,0.178c-0.36,0.36-1.99,5.23-1.66,13.16C66.59,85.15,70.47,86.54,70.47,77.99z"/>
<path fill="#424C53" d="M114.12,103.39c2.84-2.32,3-11.26,3-11.26H97.13l0.15,0.91h-4.56l0.15-0.91H72.9c0,0,0.15,8.94,3,11.26
	c3.29,2.68,10.33,3.47,13.2,0.31c1.27-1.39,2.25-4.51,2.89-7.16h6.04c0.64,2.65,1.62,5.77,2.89,7.16
	C103.79,106.86,110.82,106.07,114.12,103.39z"/>
<path fill="#424C53" d="M139.796,141.804c0.068-0.019,0.134-0.029,0.201-0.045c-8.865-7.904-17.919-10.743-18.097-10.799v0
	c-0.263-0.075-0.54-0.092-0.81-0.05l0.15-2.82c0.062-1.047-0.737-1.947-1.784-2.009c-0.005,0-0.011-0.001-0.016-0.001
	c-1.052-0.051-1.95,0.75-2.02,1.8l-0.71,12.9l-8.36-3.9c-0.953-0.45-2.09-0.043-2.54,0.91c-0.45,0.953-0.043,2.09,0.91,2.54
	l10.93,5.11c0.578,0.267,1.251,0.234,1.8-0.09c0.55-0.33,0.9-0.9,0.93-1.54l0.5-9.17c0.807,0.261,8.371,2.827,15.974,9.407
	C137.563,142.97,138.649,142.119,139.796,141.804z"/>
<path fill="#424C53" d="M84.209,137.809c-0.003-0.006-0.006-0.012-0.009-0.019c-0.451-0.957-1.592-1.368-2.55-0.92l-8.35,3.91
	l-0.7-12.91c-0.058-1.058-0.962-1.868-2.02-1.81s-1.868,0.962-1.81,2.02l0.15,2.82c-0.271-0.039-0.548-0.019-0.81,0.06
	c-0.177,0.051-9.165,2.866-18,10.703c1.109,0.565,2.033,1.511,2.554,2.622c7.666-6.754,15.447-9.331,16.467-9.645l0.5,9.17
	c0.048,1.018,0.891,1.817,1.91,1.81c0.28,0,0.56-0.06,0.82-0.18l10.92-5.11C84.233,139.89,84.648,138.761,84.209,137.809z"/>
</svg>
