<svg id="Слой_1" data-name="Слой 1" xmlns="http://www.w3.org/2000/svg" viewBox="0 0 69.82 74.92"><defs><style>.cls-1{fill:#f3fafb;}.cls-2{fill:#2c494f;}</style></defs><title>mark</title><path class="cls-1" d="M198.31,100.46,135.76,127.4a3.63,3.63,0,0,0-.73,6.25l54.61,40.7a3.63,3.63,0,0,0,5.78-2.49l7.94-67.65A3.63,3.63,0,0,0,198.31,100.46Z" transform="translate(-133.56 -100.16)"/><path class="cls-2" d="M177.06,154.82l-.82-1.19s-6.69-9.66-8.7-12.58a12.44,12.44,0,1,1,19,0Zm0-32.19a10.43,10.43,0,0,0-8,17.17l.06.08c1.55,2.26,6,8.74,7.9,11.43L185,139.83a10.43,10.43,0,0,0-7.94-17.2Z" transform="translate(-133.56 -100.16)"/><path class="cls-2" d="M177.06,139.44a6.38,6.38,0,1,1,6.38-6.37A6.38,6.38,0,0,1,177.06,139.44Zm0-10.75a4.38,4.38,0,1,0,4.38,4.38A4.38,4.38,0,0,0,177.06,128.69Z" transform="translate(-133.56 -100.16)"/></svg>