<svg xmlns="http://www.w3.org/2000/svg" width="125" height="86" viewBox="0 0 125 86"><defs><linearGradient id="a" x1="1015.98" x2="1139.98" y1="1047" y2="1047" gradientUnits="userSpaceOnUse"><stop offset="0" stop-color="#b7386f"/><stop offset="1" stop-color="#e75956"/></linearGradient></defs><path fill="url(#a)" d="M1070.32 1038.21c.4.4.93.6 1.46.6.53 0 1.06-.2 1.46-.6l1.9-1.88c.9.43 1.87.68 2.84.68.98 0 1.94-.25 2.84-.68l1.9 1.88c.4.4.93.6 1.46.6.53 0 1.06-.2 1.46-.6.81-.8.81-2.1 0-2.9l-1.9-1.88a6.31 6.31 0 0 0 0-5.62l1.9-1.88c.81-.8.81-2.1 0-2.9-.81-.8-2.11-.8-2.92 0l-1.9 1.88a6.5 6.5 0 0 0-5.68 0l-1.9-1.88c-.81-.8-2.11-.8-2.92 0s-.81 2.1 0 2.9l1.9 1.88a6.31 6.31 0 0 0 0 5.62l-1.9 1.89a2.02 2.02 0 0 0 0 2.89zm9.3-9.21c.9.89.9 2.35 0 3.24-.91.9-2.37.9-3.28 0-.9-.89-.9-2.35 0-3.24a2.33 2.33 0 0 1 3.28 0zm60.04 11.32c-1.1-4.38-5.35-7.56-10.16-7.64a27.03 27.03 0 0 0-22.31-12.3c-4.32-9.71-16.09-16.38-29.21-16.38-13.12 0-24.89 6.67-29.21 16.38a27.05 27.05 0 0 0-22.31 12.3c-5.22.09-9.66 3.81-10.37 8.73a10.23 10.23 0 0 0 6.09 10.85v19.48a8.03 8.03 0 0 0 6.2 7.78v8.43c0 1.13.93 2.05 2.07 2.05h6.2c.84 0 1.6-.51 1.92-1.29l3.61-8.95h71.6l3.62 8.95a2.06 2.06 0 0 0 1.92 1.29h6.2c1.14 0 2.06-.92 2.06-2.05v-8.43c3.55-.85 6.2-4 6.2-7.77v-19.49a10.18 10.18 0 0 0 5.88-11.94zm-90.61-15.84c3.42 0 6.2 2.75 6.2 6.14 0 1.13.92 2.05 2.06 2.05 1.15 0 2.07-.92 2.07-2.05 0-4.27-2.65-7.92-6.4-9.46 3.99-7.78 13.9-13.07 25-13.07s21.02 5.29 25 13.07a10.25 10.25 0 0 0-6.4 9.46 2.06 2.06 0 0 0 4.13 0 6.18 6.18 0 0 1 6.2-6.14c7.12 0 13.83 3.38 18.11 8.98a12.25 12.25 0 0 0-3.14 1.76l-.01.01c-.44.34-.85.71-1.24 1.1l-.22.25c-.29.31-.56.64-.82.98l-.24.32c-.27.4-.52.81-.74 1.24l-.23.46c-.17.38-.33.76-.47 1.16l-.11.3a11.06 11.06 0 0 0-.42 1.93c-.08.54-.13 1.09-.13 1.65v9.68a57.91 57.91 0 0 0-39.27.75 57.91 57.91 0 0 0-39.27-.75v-9.68a12.81 12.81 0 0 0-.66-3.88c-.13-.4-.29-.79-.47-1.16l-.23-.46c-.22-.43-.47-.84-.74-1.24l-.23-.31a11.4 11.4 0 0 0-.84-1l-.2-.23a12.06 12.06 0 0 0-4.4-2.88 22.87 22.87 0 0 1 18.11-8.98zm-9.23 38.9a1.1 1.1 0 0 1-1.11-1.09v-3.64a53.72 53.72 0 0 1 37.2 0v4.73zm40.23-4.74a53.84 53.84 0 0 1 37.2 0v3.65c0 .6-.5 1.09-1.1 1.09h-36.1zm-44.8 27.27h-2.74v-6.15h5.22zm88.2 0h-2.74l-2.48-6.15h5.22zm7.74-37.09c-.18.05-.34.14-.5.23h-3.11c-1.14 0-2.07.92-2.07 2.05s.93 2.04 2.07 2.04h2.07v18.6a3.95 3.95 0 0 1-3.96 3.93h-95.42a3.95 3.95 0 0 1-3.96-3.93v-18.6h2.07c1.14 0 2.07-.91 2.07-2.04s-.93-2.05-2.07-2.05h-3.11c-.16-.09-.32-.18-.51-.23a6.14 6.14 0 0 1-4.58-6.83c.43-2.98 3.21-5.23 6.47-5.23.22 0 .43.05.64.07l.08.01a8.1 8.1 0 0 1 2.84.8l.06.03c.39.2.76.43 1.11.68l.28.23c.26.21.52.43.76.68l.4.49c.17.2.33.4.48.61.15.24.28.5.41.76.09.18.19.34.27.53.13.32.22.65.31.99.04.15.1.29.13.44.1.5.16 1.01.16 1.54v20.81c0 1.13.92 2.05 2.06 2.05h82.67c1.14 0 2.07-.92 2.07-2.05v-20.81c0-.53.05-1.04.15-1.54.03-.15.09-.29.13-.45.09-.33.18-.66.31-.98.08-.19.19-.36.28-.54.13-.25.25-.51.41-.75.14-.21.31-.41.47-.61.14-.17.26-.34.41-.49.24-.25.49-.47.76-.69l.28-.22c.35-.26.72-.49 1.11-.68l.05-.03a8 8 0 0 1 2.85-.8l.08-.01c.21-.02.42-.07.64-.07 3.01 0 5.68 1.91 6.33 4.54a6.13 6.13 0 0 1-4.45 7.52z" transform="translate(-1015 -1004)"/></svg>