<svg id="Слой_1" data-name="Слой 1" xmlns="http://www.w3.org/2000/svg" viewBox="0 0 24.77 35.97"><defs><style>.cls-1{fill:#ff215f;}.cls-2{fill:#a4b3bc;}</style></defs><title>pers data confirmed acc</title><path class="cls-1" d="M170,150.52l2.88-2.88A1.3,1.3,0,1,0,171,145.8l-2.88,2.88-2.88-2.88a1.3,1.3,0,1,0-1.84,1.84l2.88,2.88-2.88,2.88a1.3,1.3,0,0,0,1.84,1.84l2.88-2.88,2.88,2.88a1.3,1.3,0,0,0,1.84-1.84Z" transform="translate(-155.82 -119.65)"/><path class="cls-2" d="M174.21,137.16h-3a4.39,4.39,0,0,1-6.06,0h-3a6.38,6.38,0,0,0-6.38,6.38v3.4h0a4.38,4.38,0,0,0,4.37,4.11h3.74a.54.54,0,0,0,.38-.16l.26-.26a.17.17,0,0,0,0-.24l-2.33-2.33a2.13,2.13,0,0,1-.56-2.07,2.46,2.46,0,0,1,4.13-1.23l2.31,2.31,2.45-2.45a2.15,2.15,0,0,1,2.09-.57,2.48,2.48,0,0,1,1.23,4.16l-2.31,2.31.52.52h4.08a4.38,4.38,0,0,0,4.37-4.11h0v-3.4A6.38,6.38,0,0,0,174.21,137.16Z" transform="translate(-155.82 -119.65)"/><path class="cls-2" d="M174.5,124.48a4.83,4.83,0,0,0-4.83-4.83h-2.93a4.83,4.83,0,0,0-4.83,4.83v3.1h0c0,.09,0,.18,0,.26,0,3.9,2.82,7.05,6.3,7.05s6.3-3.16,6.3-7.05c0-.09,0-.18,0-.26h0Z" transform="translate(-155.82 -119.65)"/></svg>