<svg xmlns="http://www.w3.org/2000/svg" width="123" height="99" viewBox="0 0 123 99"><defs><linearGradient id="a" x1="724" x2="847" y1="1042.5" y2="1042.5" gradientUnits="userSpaceOnUse"><stop offset="0" stop-color="#b7386f"/><stop offset="1" stop-color="#e75956"/></linearGradient></defs><path fill="url(#a)" d="M844.44 1030.55a21.9 21.9 0 0 1-4.89-.55 26.92 26.92 0 0 1-4.88 7.73 29.5 29.5 0 0 1 2.08 10.74c0 10.29-5.59 20.22-15.38 27.41v13.56a2.56 2.56 0 0 1-2.56 2.56h-10.25c-.97 0-1.85-.55-2.3-1.42l-3.02-6.06a66.82 66.82 0 0 1-17.74 2.35c-6.03 0-12.07-.78-17.74-2.35l-3.03 6.06a2.56 2.56 0 0 1-2.3 1.42H752.2a2.56 2.56 0 0 1-2.57-2.56v-13.35l-17.89-11.14a16.31 16.31 0 0 1-7.73-13.92 9.87 9.87 0 0 1 10-10.03h1c1.26-4.63 4.02-9.3 7.46-13.31-2-2.95-3.09-6.41-3.09-9.94a2.56 2.56 0 0 1 2.57-2.56c3.97 0 7.78 1.31 10.9 3.71l-.05.03c-.73.41-1.1.65-1.08.65.02 0 .37-.2 1.08-.65a82.46 82.46 0 0 1 24.65-8.42 11.56 11.56 0 1 1 19.96-.27c12 1.92 24.45 8.12 34.77 22.46a22.28 22.28 0 0 0 2.53-4.4c-4.83-2.37-8.2-6.34-8.2-10.55a7.69 7.69 0 0 1 15.37 0c0 2.7-.29 5.15-.77 7.35 1.05.21 2.17.33 3.34.33a2.56 2.56 0 0 1 0 5.12zm-57.1-33.3a7.32 7.32 0 0 0 0 14.61 7.32 7.32 0 0 0 0-14.61zm43.17 42.1l-1-2.55.06-.07-1.02-1.43c-9.1-12.63-20.85-19.67-34.97-21.03a11.49 11.49 0 0 1-12.18.19 77.4 77.4 0 0 0-26.35 8.33c-1.26.78-2.05 1.25-3.34 1.25 0 0-2.33-2.32-4.3-3.22-1.97-.91-2.22-.83-3.4-1.01a13.4 13.4 0 0 0 2.15 5.38l1.9 2.82-2.2 2.59a29.35 29.35 0 0 0-6.22 11.37l-.9 3.29h-4.49a5.78 5.78 0 0 0-5.78 5.77c0 4.15 2.1 7.94 5.63 10.13l17.89 11.14 2.1 1.31v13.93h7.17l2.5-5.01 1.65-3.29 3.54.98a62.25 62.25 0 0 0 16.55 2.18c5.72 0 11.3-.73 16.55-2.18l3.54-.98 1.64 3.29 2.5 5.01h7.18v-13.92l1.82-1.33c8.61-6.34 13.55-15.02 13.55-23.82 0-3.03-.6-6.1-1.77-9.12zm3.68-24.82a3.23 3.23 0 0 0-3.22 3.22c0 2.24 2.29 4.87 5.7 6.54l.03.02.03-.17c.45-2.01.67-4.16.67-6.39a3.23 3.23 0 0 0-3.21-3.22zm-29.64 13.23s-9.23-3.16-18.48-3.16c-9.3 0-18.62 3.16-18.62 3.16-1.06.42-2.12-.95-2.12-2.11s1.06-1.71 2.12-2.11c0 0 9.3-3.16 18.58-3.16 9.27 0 18.52 3.16 18.52 3.16 1.17.43 2.12.95 2.12 2.11s-.95 2.53-2.12 2.11zM756 1040a5 5 0 1 0-10 0 5 5 0 0 0 10 0z" transform="translate(-724 -993)"/></svg>