<svg xmlns="http://www.w3.org/2000/svg" width="107" height="114" viewBox="0 0 107 114"><defs><linearGradient id="a" x1="431" x2="537" y1="1044" y2="1044" gradientUnits="userSpaceOnUse"><stop offset="0" stop-color="#b7386f"/><stop offset="1" stop-color="#e75956"/></linearGradient></defs><path fill="url(#a)" d="M479.87 1051.9a6.82 6.82 0 0 0 1.94 5.32 6.66 6.66 0 0 0 4.73 1.98l.53-.02a6.69 6.69 0 0 0 4.9-2.77l17.58-24.6a1.9 1.9 0 0 0-.2-2.45 1.87 1.87 0 0 0-2.42-.2l-24.32 17.79a6.78 6.78 0 0 0-2.74 4.95zm18.1-10.55l-9.13 12.66c-.43.59-1.1.97-1.83 1.03a2.56 2.56 0 0 1-1.96-.73 2.53 2.53 0 0 1 .3-3.8zm39.03-35.99l-7.98-8.06-7.97 8.06 2.66 2.69-4.03 4.08a51 51 0 0 0-9.04-6.77c-.03-.03-.06-.07-.1-.09l-.11-.04a49.9 49.9 0 0 0-19.3-6.47v-2.26h2.81c2.6 0 4.7-2.13 4.7-4.75s-2.1-4.75-4.7-4.75H476.1c-2.6 0-4.7 2.13-4.7 4.75s2.1 4.75 4.7 4.75h2.81v2.2c-2.03.22-3.1.55-5.1 1.01a1.9 1.9 0 0 0 .83 3.71c1.73-.41 3.48-.71 5.23-.91l2.01-.16c.62-.05.62-.12 1.17-.15v3.8a1.9 1.9 0 0 0 3.78 0v-3.8c7.07.33 14.27 2.3 20.19 5.46l-1.85 3.25a1.9 1.9 0 0 0 1.62 2.85c.65 0 1.28-.34 1.63-.95l1.85-3.24a47.55 47.55 0 0 1 14.6 14.77l-3.2 1.86c-.9.53-1.2 1.69-.68 2.6a1.87 1.87 0 0 0 2.56.69l3.21-1.87a47.58 47.58 0 0 1 5.35 20.18h-3.7c-1.05 0-1.89.85-1.89 1.9 0 1.05.84 1.9 1.88 1.9h3.71a47.53 47.53 0 0 1-5.35 20.17l-3.2-1.87a1.86 1.86 0 0 0-2.57.7 1.9 1.9 0 0 0 .69 2.59l3.2 1.87a47.77 47.77 0 0 1-14.6 14.77l-1.85-3.24a1.87 1.87 0 0 0-2.57-.7c-.9.53-1.2 1.69-.69 2.6l1.85 3.24a48.68 48.68 0 0 1-20.19 5.47v-3.8a1.9 1.9 0 0 0-1.89-1.9 1.9 1.9 0 0 0-1.9 1.9v3.8c-3-.1-5.43-.53-8.4-1.22a1.88 1.88 0 0 0-2.24 1.43 1.9 1.9 0 0 0 1.4 2.27c3.76.88 7.59 1.32 11.39 1.32l.27-.01.04.01.04-.01a49.94 49.94 0 0 0 24.84-6.79l.17-.07.1-.09A51.34 51.34 0 0 0 529 1075.5c.03-.05.08-.09.11-.15l.04-.12a51.4 51.4 0 0 0 6.76-25.53c0-9.29-2.47-18-6.76-25.53l-.04-.12-.08-.1a51.86 51.86 0 0 0-6.7-9.13l4.04-4.08 2.66 2.68zm-50.18-12.66v5.7c-.72-.03-2.52 0-3.78 0v-5.7h-6.96a.95.95 0 0 1-.94-.95c0-.52.43-.95.94-.95h17.86c.52 0 .94.43.94.95s-.42.95-.94.95zm44.86 12.66l-2.66 2.69-2.65-2.69 2.65-2.68zm-61.22 71.89c0-1.05-.84-1.9-1.88-1.9h-13.16c-1.04 0-1.88.85-1.88 1.9 0 1.05.84 1.9 1.88 1.9h13.16c1.03 0 1.88-.85 1.88-1.9zm0-13.3c0-1.05-.84-1.9-1.88-1.9h-24.43c-1.04 0-1.88.85-1.88 1.9 0 1.05.84 1.9 1.88 1.9h24.43c1.03 0 1.88-.85 1.88-1.9zm0-13.3c0-1.05-.84-1.9-1.88-1.9h-35.7c-1.04 0-1.88.85-1.88 1.9 0 1.05.84 1.9 1.88 1.9h35.7c1.03 0 1.88-.85 1.88-1.9zm0-13.3c0-1.05-.84-1.9-1.88-1.9h-28.19c-1.04 0-1.88.85-1.88 1.9 0 1.05.84 1.9 1.88 1.9h28.19c1.03 0 1.88-.85 1.88-1.9zm-1.88-11.4h-18.8a1.89 1.89 0 0 1-1.87-1.9c0-1.05.84-1.9 1.88-1.9h18.79c1.04 0 1.88.85 1.88 1.9 0 1.05-.84 1.9-1.88 1.9z" transform="translate(-430 -987)"/></svg>