<svg id="Слой_1" data-name="Слой 1" xmlns="http://www.w3.org/2000/svg" viewBox="0 0 500.03 300.01"><defs><style>.cls-1{fill:#424c53;}.cls-1,.cls-2{fill-rule:evenodd;}.cls-2{fill:#d3295e;}</style></defs><title>favicon</title><path class="cls-1" d="M899.43,480.13a32.74,32.74,0,0,1,0,3.37h-.47c-2.18,13.52-13.36,25-28.69,25H591.67c-22.85,0-37.13-24.68-25.7-44.42L705.29,223.3A29.41,29.41,0,0,1,731,208.49c.32,0,.63.11.94.12s.62-.12.93-.12A28.93,28.93,0,0,1,758.2,223.3L865.42,411.22l12.89,22.28h-.18l14.26,25h.38l3.23,5.58a27.67,27.67,0,0,1,3.43,14.38C899.45,479,899.45,479.57,899.43,480.13Z" transform="translate(-399.45 -208.49)"/><path class="cls-2" d="M736.93,480.13a32.74,32.74,0,0,1,0,3.37h-.47c-2.18,13.52-13.36,25-28.69,25H429.17c-22.85,0-37.12-24.68-25.7-44.42L542.79,223.3a29.42,29.42,0,0,1,25.7-14.81c.32,0,.62.11.94.12s.62-.12.93-.12A28.93,28.93,0,0,1,595.7,223.3L702.92,411.22l12.89,22.28h-.18l14.26,25h.38l3.23,5.58a27.67,27.67,0,0,1,3.43,14.38C736.95,479,737,479.57,736.93,480.13Z" transform="translate(-399.45 -208.49)"/></svg>