<svg xmlns="http://www.w3.org/2000/svg" xmlns:xlink="http://www.w3.org/1999/xlink" width="80" height="80" viewBox="0 0 80 80"><defs><path id="a" d="M920 462a10 10 0 0 1 10-10h60a10 10 0 0 1 10 10v60a10 10 0 0 1-10 10h-60a10 10 0 0 1-10-10z"/><path id="c" d="M976.32 486.52l-20.25 20.04c-.39.38-.93.5-1.42.4-.48.1-1-.01-1.38-.39l-9.84-9.73a1.44 1.44 0 0 1 0-2.05c.57-.57 1.5-.57 2.07 0l9.1 9 19.59-19.37a1.52 1.52 0 0 1 2.13 0c.58.58.58 1.52 0 2.1z"/><clipPath id="b"><use fill="#fff" xlink:href="#a"/></clipPath></defs><desc>Generated with Avocode.</desc><g transform="translate(-920 -452)"><use fill="#d3295e" xlink:href="#a"/></g><g opacity=".5" transform="translate(-920 -452)"><use fill="#fff" fill-opacity="0" stroke="#fff" stroke-miterlimit="50" stroke-width="6" clip-path="url(&quot;#b&quot;)" xlink:href="#a"/></g><g transform="translate(-920 -452)"><use fill="#fff" xlink:href="#c"/></g></svg>