<svg xmlns="http://www.w3.org/2000/svg" width="118" height="78" viewBox="0 0 118 78"><defs><linearGradient id="a" x1="1309" x2="1427" y1="1044.99" y2="1044.99" gradientUnits="userSpaceOnUse"><stop offset="0" stop-color="#b7386f"/><stop offset="1" stop-color="#e75956"/></linearGradient></defs><path fill="url(#a)" d="M1418.57 1033.4a7.5 7.5 0 0 1-.82-.04l-12.63 50.63h-72.42l-14.32-50.64a8.42 8.42 0 1 1 5.3-2.73l21.24 17.71 3.39-25.66a8.42 8.42 0 1 1 6.67-1.38l13.93 22.94 12.54-22.65a8.42 8.42 0 1 1 6.8.95l4.58 25.78 19.61-17.56a8.41 8.41 0 0 1 6.13-14.21 8.43 8.43 0 0 1 0 16.86zm-101.14-12.38a3.95 3.95 0 1 0 0 7.9 3.95 3.95 0 0 0 0-7.9zm84.21 58.51l.99-3.96h-67.67l1.12 3.96zm-51.55-69.05a3.95 3.95 0 1 0 0 7.9 3.95 3.95 0 0 0 0-7.9zm39.77 3.95a3.95 3.95 0 1 0-7.9 0 3.95 3.95 0 0 0 7.9 0zm5.95 37.21l-5.97 5.35-1.4-7.89-4.16-23.43-11.48 20.73-3.72 6.72-3.99-6.57-12.67-20.89-3.08 23.26-1.06 8.02-6.21-5.17-18.12-15.11 9.81 34.69h69.92l8.6-34.47zm22.76-30.62a3.95 3.95 0 1 0 0 7.9 3.95 3.95 0 0 0 0-7.9z" transform="translate(-1309 -1006)"/></svg>