<svg id="Слой_1" data-name="Слой 1" xmlns="http://www.w3.org/2000/svg" viewBox="0 0 100 93"><defs><style>.cls-1{fill:#4e87a0;}.cls-2{fill:#2d2e30;}.cls-3{fill:#fff;}</style></defs><title>letter</title><path class="cls-1" d="M722,399.5a1,1,0,0,1-.45-.16h0a.88.88,0,0,1,0-.34V344.32L769,312l47.5,32.3V399a1,1,0,0,1-.16.45h0a.89.89,0,0,1-.34,0Z" transform="translate(-719 -309)"/><path class="cls-2" d="M769,315l45,30.6V397H724V345.65L769,315m0-6-50,34v56a2.94,2.94,0,0,0,3,3h94a2.94,2.94,0,0,0,3-3V343l-50-34Z" transform="translate(-719 -309)"/><path class="cls-3" d="M756.51,370.52c-3-1.31-16-10.21-20-13.62V324.5a3,3,0,0,1,3-3h59a3,3,0,0,1,3,3v33.29c-4,3.05-15.45,11.11-19.22,13.68Z" transform="translate(-719 -309)"/><path class="cls-2" d="M798.5,324a.52.52,0,0,1,.5.5v32.05c-4.27,3.2-13.49,9.67-17.45,12.39l-24.42-.9c-3.24-1.64-13.84-8.87-18.13-12.31V324.5a.52.52,0,0,1,.5-.5h59m0-5h-59a5.52,5.52,0,0,0-5.5,5.5V358c3,3,19,14,22,15l27,1c3-2,18-12.5,21-15V324.5a5.52,5.52,0,0,0-5.5-5.5Z" transform="translate(-719 -309)"/><polygon class="cls-1" points="43.12 60.5 7.61 40 7.61 81 43.12 60.5"/><polygon class="cls-1" points="58.77 60.5 94.28 81 94.28 40 58.77 60.5"/><path class="cls-1" d="M722,399.5a1,1,0,0,1-.45-.16h0a.88.88,0,0,1,0-.34v-2.68L769,364l47.5,32.3V399a1,1,0,0,1-.16.45h0a.89.89,0,0,1-.34,0Z" transform="translate(-719 -309)"/><path class="cls-2" d="M769,367l44,30H725l44-30m0-6-50,34v4a2.94,2.94,0,0,0,3,3h94a2.94,2.94,0,0,0,3-3v-4l-50-34Z" transform="translate(-719 -309)"/><rect class="cls-2" x="717.77" y="354.37" width="47.21" height="5" transform="translate(-373.98 -673.17) rotate(35.5)"/><rect class="cls-2" x="772.77" y="354.37" width="47.21" height="5" transform="translate(-778.21 219.76) rotate(-35.5)"/><rect class="cls-2" x="29" y="25" width="40" height="5" rx="2.5" ry="2.5"/><rect class="cls-2" x="29" y="39" width="40" height="5" rx="2.5" ry="2.5"/></svg>