<svg id="Слой_1" data-name="Слой 1" xmlns="http://www.w3.org/2000/svg" viewBox="0 0 79.67 79.67"><defs><style>.cls-1{opacity:0.5;}.cls-2{fill:#566677;}.cls-3{fill:none;stroke:#566677;stroke-linecap:round;stroke-miterlimit:10;stroke-width:4px;}.cls-4{opacity:0.38;}.cls-5{opacity:0.88;}.cls-6{opacity:0.63;}.cls-7{opacity:0.13;}.cls-8{opacity:0.75;}.cls-9{opacity:0.25;}</style></defs><title>загрузка</title><g class="cls-1"><path class="cls-2" d="M141.83,181.33a2,2,0,0,1-2-2V161.5a2,2,0,0,1,4,0v17.83A2,2,0,0,1,141.83,181.33Z" transform="translate(-102 -101.67)"/></g><path class="cls-3" d="M141.83,161.5" transform="translate(-102 -101.67)"/><path class="cls-2" d="M141.83,125.5a2,2,0,0,1-2-2V103.67a2,2,0,0,1,4,0V123.5A2,2,0,0,1,141.83,125.5Z" transform="translate(-102 -101.67)"/><g class="cls-4"><path class="cls-2" d="M168.59,170.25a2,2,0,0,1-1.41-.59l-12.83-12.83a2,2,0,0,1,2.83-2.83L170,166.84a2,2,0,0,1-1.41,3.41Z" transform="translate(-102 -101.67)"/></g><g class="cls-5"><path class="cls-2" d="M128.91,130.57a2,2,0,0,1-1.41-.59l-13.83-13.83a2,2,0,0,1,2.83-2.83l13.83,13.83a2,2,0,0,1-1.41,3.41Z" transform="translate(-102 -101.67)"/></g><g class="cls-6"><path class="cls-2" d="M115.08,170.25a2,2,0,0,1-1.41-3.41L126.49,154a2,2,0,1,1,2.83,2.83L116.5,169.67A2,2,0,0,1,115.08,170.25Z" transform="translate(-102 -101.67)"/></g><path class="cls-3" d="M127.91,155.42" transform="translate(-102 -101.67)"/><g class="cls-7"><path class="cls-2" d="M154.76,130.58a2,2,0,0,1-1.41-3.41l13.83-13.83a2,2,0,0,1,2.83,2.83L156.17,130A2,2,0,0,1,154.76,130.58Z" transform="translate(-102 -101.67)"/></g><g class="cls-8"><path class="cls-2" d="M122.83,144.5H104a2,2,0,0,1,0-4h18.83a2,2,0,0,1,0,4Z" transform="translate(-102 -101.67)"/></g><path class="cls-3" d="M122.83,142.5" transform="translate(-102 -101.67)"/><g class="cls-9"><path class="cls-2" d="M179.67,144.5H160.83a2,2,0,0,1,0-4h18.83a2,2,0,0,1,0,4Z" transform="translate(-102 -101.67)"/></g></svg>