<svg id="Слой_1" data-name="Слой 1" xmlns="http://www.w3.org/2000/svg" viewBox="0 0 90 115"><defs><style>.cls-1{fill:#d3295e;}</style></defs><title>loader</title><path class="cls-1" d="M1556.87,2358.57a2.14,2.14,0,0,0-2.13,2.14v6.44l-.33-.33a57,57,0,0,0-80.86,0,2.15,2.15,0,0,0,0,3,2.08,2.08,0,0,0,3,0,52.79,52.79,0,0,1,74.88,0l.33.33h-6.4a2.14,2.14,0,0,0,0,4.28h11.52a2.14,2.14,0,0,0,2.13-2.14v-11.59A2.14,2.14,0,0,0,1556.87,2358.57Zm-5.45,86.61a52.79,52.79,0,0,1-74.88,0l-.33-.33h6.4a2.14,2.14,0,0,0,0-4.28h-11.5a2.14,2.14,0,0,0-2.13,2.14v11.59a2.13,2.13,0,1,0,4.25,0v-6.44l.3.33a57,57,0,0,0,80.86,0,2.15,2.15,0,0,0,0-3A2.12,2.12,0,0,0,1551.43,2445.18Zm-61.05-54.89-2.77-1.15a4.64,4.64,0,0,0-1.85-.36,4.85,4.85,0,0,0-4.5,3l-1.9,4.56a4.86,4.86,0,0,0,2.64,6.35l2.77,1.15a28.86,28.86,0,0,0,0,8.35l-2.77,1.15a4.87,4.87,0,0,0-2.64,6.35l1.9,4.56a4.82,4.82,0,0,0,4.5,3,5,5,0,0,0,1.85-.36l2.77-1.15a29.23,29.23,0,0,0,5.9,5.9l-1.15,2.77a4.87,4.87,0,0,0,2.62,6.35l4.56,1.9a4.64,4.64,0,0,0,1.85.36,4.85,4.85,0,0,0,4.5-3l1.15-2.77a28.87,28.87,0,0,0,8.35,0l1.15,2.77a4.82,4.82,0,0,0,4.5,3,5,5,0,0,0,1.85-.36l4.56-1.9a4.87,4.87,0,0,0,2.64-6.35l-1.15-2.77a29.23,29.23,0,0,0,5.9-5.9l2.77,1.15a4.64,4.64,0,0,0,1.85.36,4.85,4.85,0,0,0,4.5-3l1.9-4.56a4.87,4.87,0,0,0-2.64-6.37l-2.77-1.15a28.86,28.86,0,0,0,0-8.35l2.77-1.15a4.76,4.76,0,0,0,2.64-2.62,4.91,4.91,0,0,0,0-3.73l-1.9-4.56a4.82,4.82,0,0,0-4.5-3,5,5,0,0,0-1.85.36l-2.77,1.15a29.23,29.23,0,0,0-5.9-5.9l1.15-2.77a4.87,4.87,0,0,0-2.62-6.35l-4.56-1.9a4.64,4.64,0,0,0-1.85-.36,4.85,4.85,0,0,0-4.5,3l-1.15,2.77a28.87,28.87,0,0,0-8.35,0l-1.15-2.77a4.82,4.82,0,0,0-4.5-3,5,5,0,0,0-1.85.36l-4.56,1.9a4.88,4.88,0,0,0-2.64,6.37l1.15,2.77A29.23,29.23,0,0,0,1490.37,2390.29Zm9.4-3.62a1.91,1.91,0,0,0,.7-2.34l-1.73-4.2a1,1,0,0,1,0-.77.93.93,0,0,1,.53-.53l4.56-1.9a1,1,0,0,1,1.3.53l1.73,4.2a1.91,1.91,0,0,0,2.15,1.15,25.45,25.45,0,0,1,10,0,1.92,1.92,0,0,0,2.15-1.15l1.73-4.17a1,1,0,0,1,1.3-.53l4.56,1.9a1,1,0,0,1,.53,1.3l-1.73,4.17a1.91,1.91,0,0,0,.7,2.34,25.05,25.05,0,0,1,7.05,7.07,1.91,1.91,0,0,0,2.34.7l4.2-1.73a1,1,0,0,1,1.3.53l1.9,4.56a.88.88,0,0,1,0,.77.94.94,0,0,1-.53.53l-4.2,1.73a1.91,1.91,0,0,0-1.15,2.15,25.43,25.43,0,0,1,0,10,1.92,1.92,0,0,0,1.15,2.15l4.18,1.73a.93.93,0,0,1,.53.53,1,1,0,0,1,0,.77l-1.9,4.56a1,1,0,0,1-1.3.53l-4.18-1.73a1.91,1.91,0,0,0-2.34.7,25.26,25.26,0,0,1-7.05,7.05,1.91,1.91,0,0,0-.7,2.34l1.73,4.2a1,1,0,0,1-.53,1.3l-4.56,1.9a1,1,0,0,1-1.3-.53l-1.73-4.2a2,2,0,0,0-1.79-1.19,2.33,2.33,0,0,0-.38,0,25.46,25.46,0,0,1-10,0,1.92,1.92,0,0,0-2.15,1.15l-1.73,4.17a1,1,0,0,1-1.3.53l-4.56-1.9a1,1,0,0,1-.53-1.3l1.73-4.17a1.91,1.91,0,0,0-.7-2.34,25.06,25.06,0,0,1-7.05-7.07,1.91,1.91,0,0,0-2.34-.7l-4.2,1.73a1,1,0,0,1-1.3-.53l-1.9-4.56a1,1,0,0,1,.53-1.3l4.2-1.73a1.91,1.91,0,0,0,1.15-2.15,25.43,25.43,0,0,1,0-10,1.92,1.92,0,0,0-1.15-2.15l-4.18-1.73a1,1,0,0,1-.53-1.3l1.9-4.56a1,1,0,0,1,1.3-.53l4.18,1.73a1.91,1.91,0,0,0,2.34-.7A25.26,25.26,0,0,1,1499.77,2386.67Zm8.46,35.25a15.06,15.06,0,1,0-8.16-8.16A15,15,0,0,0,1508.23,2421.92Zm-4.58-18.23a11.21,11.21,0,0,1,10.35-6.92,11.37,11.37,0,0,1,4.28.85,11.21,11.21,0,0,1-4.28,21.58,11.38,11.38,0,0,1-4.28-.85,11.22,11.22,0,0,1-6.07-14.65Z" transform="translate(-1469 -2350)"/></svg>