<?xml version="1.0" encoding="utf-8"?>
<!-- Generator: Adobe Illustrator 21.0.2, SVG Export Plug-In . SVG Version: 6.00 Build 0)  -->
<svg version="1.1" id="Layer_1" xmlns="http://www.w3.org/2000/svg" xmlns:xlink="http://www.w3.org/1999/xlink" x="0px" y="0px"
	 viewBox="0 0 77 77" style="enable-background:new 0 0 77 77;" xml:space="preserve">
<style type="text/css">
	.st0{fill:#383A39;}
	.st1{fill:#ECEEEE;}
	.st2{fill:#77807F;}
	.st3{fill:#F2F4F4;}
	.st4{fill:#9FAAA9;}
	.st5{fill:#F2F7F7;}
	.st6{fill:#B2BBBA;}
	.st7{fill:#FFFFFF;}
	.st8{fill:#C5CCCB;}
	.st9{fill:#D9DDDD;}
	.st10{fill:#111111;}
</style>
<g>
	<path class="st0" d="M42.1,4.6c0,2-1.6,3.6-3.6,3.6c-2,0-3.6-1.6-3.6-3.6c0-2,1.6-3.6,3.6-3.6C40.5,1,42.1,2.6,42.1,4.6L42.1,4.6z
		 M42.1,4.6"/>
	<path class="st1" d="M42.1,72.4c0,2-1.6,3.6-3.6,3.6c-2,0-3.6-1.6-3.6-3.6c0-2,1.6-3.6,3.6-3.6C40.5,68.7,42.1,70.4,42.1,72.4
		L42.1,72.4z M42.1,72.4"/>
	<path class="st2" d="M25.2,9.1c0,2-1.6,3.6-3.6,3.6c-2,0-3.6-1.6-3.6-3.6c0-2,1.6-3.6,3.6-3.6C23.6,5.5,25.2,7.1,25.2,9.1L25.2,9.1
		z M25.2,9.1"/>
	<path class="st3" d="M58.6,66.1c1,1.7,0.4,3.9-1.3,5c-1.7,1-3.9,0.4-5-1.3c-1-1.7-0.4-3.9,1.3-5C55.3,63.8,57.6,64.4,58.6,66.1
		L58.6,66.1z M58.6,66.1"/>
	<path class="st4" d="M10.9,18.4c1.7,1,2.3,3.1,1.3,5c-1,1.7-3.1,2.3-5,1.3c-1.7-1-2.3-3.1-1.3-5C6.9,17.9,9.2,17.5,10.9,18.4
		L10.9,18.4z M10.9,18.4"/>
	<path class="st5" d="M69.7,52.3c1.7,1,2.3,3.1,1.3,5c-1,1.7-3.1,2.3-5,1.3c-1.7-1-2.3-3.1-1.3-5C65.7,51.9,67.9,51.3,69.7,52.3
		L69.7,52.3z M69.7,52.3"/>
	<path class="st6" d="M8.3,38.5c0,2-1.6,3.6-3.6,3.6c-2,0-3.6-1.6-3.6-3.6c0-2,1.6-3.6,3.6-3.6C6.6,34.9,8.3,36.5,8.3,38.5L8.3,38.5
		z M8.3,38.5"/>
	<path class="st7" d="M76,38.5c0,2-1.6,3.6-3.6,3.6c-2,0-3.6-1.6-3.6-3.6c0-2,1.6-3.6,3.6-3.6C74.4,34.9,76,36.5,76,38.5L76,38.5z
		 M76,38.5"/>
	<path class="st8" d="M7.3,52.3c1.7-1,3.9-0.4,5,1.3c1,1.7,0.4,3.9-1.3,5c-1.7,1-3.9,0.4-5-1.3C4.9,55.6,5.6,53.4,7.3,52.3L7.3,52.3
		z M7.3,52.3"/>
	<path d="M66.1,18.4c1.7-1,3.9-0.4,5,1.3c1,1.7,0.4,3.9-1.3,5c-1.7,1-3.9,0.4-5-1.3C63.8,21.7,64.4,19.4,66.1,18.4L66.1,18.4z
		 M66.1,18.4"/>
	<path class="st9" d="M18.4,66.1c1-1.7,3.1-2.3,5-1.3c1.7,1,2.3,3.1,1.3,5c-1,1.7-3.1,2.3-5,1.3C18.1,70,17.5,67.8,18.4,66.1
		L18.4,66.1z M18.4,66.1"/>
	<path class="st10" d="M52.3,7.3c1-1.7,3.1-2.3,5-1.3c1.7,1,2.3,3.1,1.3,5c-1,1.7-3.1,2.3-5,1.3C51.9,11.3,51.3,9.1,52.3,7.3
		L52.3,7.3z M52.3,7.3"/>
</g>
</svg>
