<?xml version="1.0" encoding="utf-8"?>
<!-- Generator: Adobe Illustrator 21.0.2, SVG Export Plug-In . SVG Version: 6.00 Build 0)  -->
<svg version="1.1" id="Layer_1" xmlns="http://www.w3.org/2000/svg" xmlns:xlink="http://www.w3.org/1999/xlink" x="0px" y="0px"
	 viewBox="0 0 47 47" style="enable-background:new 0 0 47 47;" xml:space="preserve">
<!-- <style type="text/css">
	.st0{fill-rule:evenodd;clip-rule:evenodd;fill:#86CB90;}
	.st1{fill-rule:evenodd;clip-rule:evenodd;fill:#454545;}
</style> -->
<style type="text/css">
	.st0{fill-rule:evenodd;clip-rule:evenodd;fill:#d3295e;}
	.st1{fill-rule:evenodd;clip-rule:evenodd;fill:#fff;}
</style>
<circle class="st0" cx="23.5" cy="23.5" r="23"/>
<g>
	<path class="st1" d="M22.8,28.3c-0.3,0.3-0.3,0.8,0,1.1c0.3,0.3,0.8,0.3,1.2,0l5.7-5.5c0.2-0.2,0.2-0.4,0.2-0.6
		c0-0.2-0.1-0.4-0.2-0.6L24,17.2c-0.3-0.3-0.8-0.3-1.2,0c-0.3,0.3-0.3,0.8,0,1.1l4.3,4.2H9.4c-0.5,0-0.8,0.4-0.8,0.8
		c0,0.4,0.4,0.8,0.8,0.8h17.7L22.8,28.3z M31.6,12.1H15.2c-1.8,0-3.3,1.4-3.3,3.2v3.2h1.6v-3.2c0-0.9,0.7-1.6,1.6-1.6h16.4
		c0.9,0,1.6,0.7,1.6,1.6v16c0,0.9-0.7,1.6-1.6,1.6H15.2c-0.9,0-1.6-0.7-1.6-1.6v-3.2h-1.6v3.2c0,1.8,1.5,3.2,3.3,3.2h16.4
		c1.8,0,3.3-1.4,3.3-3.2v-16C34.8,13.6,33.4,12.1,31.6,12.1L31.6,12.1z M31.6,12.1"/>
</g>
</svg>
