<svg id="Слой_1" data-name="Слой 1" xmlns="http://www.w3.org/2000/svg" viewBox="0 0 177.1 29.83"><defs><style>.cls-1,.cls-6{fill:#424c53;}.cls-2,.cls-4{fill:#d3295e;}.cls-3{fill:#fff;fill-rule:evenodd;}.cls-4{font-size:28px;font-family:"Lato", Lato;}.cls-5{letter-spacing:-0.03em;}.cls-6{letter-spacing:-0.04em;}</style></defs><title>logotype</title><path class="cls-1" d="M270.17,224.93a2.39,2.39,0,0,1,0,.25h0A2.13,2.13,0,0,1,268,227H247.7a2.16,2.16,0,0,1-1.88-3.24L256,206.17a2.15,2.15,0,0,1,1.88-1.08H258a2.11,2.11,0,0,1,1.85,1.08l7.83,13.73.94,1.63h0l1,1.83h0l.24.41a2,2,0,0,1,.25,1.05S270.18,224.89,270.17,224.93Z" transform="translate(-173.33 -202.97)"/><path class="cls-2" d="M258.31,224.93a2.39,2.39,0,0,1,0,.25h0a2.13,2.13,0,0,1-2.1,1.83H235.83a2.16,2.16,0,0,1-1.88-3.24l10.18-17.59a2.15,2.15,0,0,1,1.88-1.08h.14a2.11,2.11,0,0,1,1.85,1.08l7.83,13.73.94,1.63h0l1,1.83h0l.24.41a2,2,0,0,1,.25,1.05A.76.76,0,0,1,258.31,224.93Z" transform="translate(-173.33 -202.97)"/><path class="cls-3" d="M251,215.57h1.91a1,1,0,0,0,0-1.91H251a1,1,0,0,0,0,1.91Zm-1.91,3.81h5.72a1,1,0,1,0,0-1.9h-5.72a1,1,0,1,0,0,1.9Zm-1.91,3.81h9.53a1,1,0,1,0,0-1.91h-9.53a1,1,0,1,0,0,1.91Zm11.43,1.91H245.25a1,1,0,1,0,0,1.91h13.34a1,1,0,0,0,0-1.91Z" transform="translate(-173.33 -202.97)"/><text class="cls-4" transform="translate(0 24.03)">GU<tspan class="cls-5" x="41.04" y="0">T</tspan><tspan x="56.74" y="0" xml:space="preserve">      </tspan><tspan class="cls-1" x="99.72" y="0">ONE</tspan><tspan class="cls-6" x="159.66" y="0">Y</tspan></text></svg>