<svg xmlns="http://www.w3.org/2000/svg" xmlns:xlink="http://www.w3.org/1999/xlink" version="1.1" id="Слой_1" x="0px" y="0px" viewBox="-239 375.6 116.5 90.3" style="enable-background:new -239 375.6 116.5 90.3;" xml:space="preserve">
<style type="text/css">
	.st0{fill:#FF5F00;}
	.st1{fill:#EB001B;}
	.st2{fill:#F79E1B;}
</style>
<title>Asset 1</title>
<g id="Layer_2">
	<g id="Layer_1-2">
		<path id="_Compound_Path_" d="M-217.8,465.6v-6c0.1-2-1.3-3.7-3.3-3.8c-0.2,0-0.3,0-0.5,0c-1.3-0.1-2.6,0.6-3.4,1.7    c-0.7-1.1-1.9-1.8-3.2-1.7c-1.1-0.1-2.2,0.5-2.8,1.4v-1.2h-2.1v9.6h2.1v-5.3c-0.2-1.2,0.7-2.4,1.9-2.5c0.1,0,0.3,0,0.4,0    c1.4,0,2.1,0.9,2.1,2.5v5.3h2.1v-5.3c-0.2-1.2,0.7-2.4,1.9-2.5c0.1,0,0.3,0,0.4,0c1.4,0,2.1,0.9,2.1,2.5v5.3H-217.8z     M-186.7,456.1h-3.4v-2.9h-2.1v2.9h-1.9v1.9h1.9v4.4c0,2.2,0.9,3.5,3.3,3.5c0.9,0,1.8-0.3,2.6-0.7l-0.6-1.8    c-0.6,0.3-1.2,0.5-1.8,0.5c-1,0-1.4-0.6-1.4-1.6V458h3.4V456.1z M-169,455.9c-1,0-2,0.5-2.5,1.4v-1.2h-2.1v9.6h2.1v-5.4    c0-1.6,0.7-2.5,2-2.5c0.4,0,0.9,0.1,1.3,0.2l0.6-2C-168,455.9-168.5,455.8-169,455.9z M-195.8,456.9c-1.2-0.7-2.5-1-3.9-1    c-2.4,0-4,1.2-4,3.1c0,1.6,1.2,2.5,3.3,2.8l1,0.1c1.1,0.2,1.7,0.5,1.7,1c0,0.7-0.8,1.2-2.2,1.2c-1.1,0-2.3-0.3-3.2-1l-1,1.6    c1.2,0.8,2.7,1.3,4.1,1.2c2.8,0,4.4-1.3,4.4-3.1c0-1.8-1.3-2.6-3.3-2.9l-1-0.1c-0.9-0.1-1.6-0.3-1.6-0.9c0-0.6,0.7-1.1,1.8-1.1    c1.1,0,2.1,0.3,3,0.8L-195.8,456.9z M-140.1,455.9c-1,0-2,0.5-2.5,1.4v-1.2h-2v9.6h2.1v-5.4c0-1.6,0.7-2.5,2-2.5    c0.4,0,0.9,0.1,1.3,0.2l0.6-2C-139.1,455.9-139.6,455.8-140.1,455.9L-140.1,455.9z M-166.9,460.9c-0.1,2.7,2,4.9,4.6,5    c0.2,0,0.3,0,0.5,0c1.2,0.1,2.5-0.3,3.4-1.1l-1-1.7c-0.7,0.5-1.6,0.8-2.5,0.9c-1.7-0.1-2.9-1.6-2.8-3.3c0.1-1.5,1.3-2.7,2.8-2.8    c0.9,0,1.8,0.3,2.5,0.9l1-1.7c-1-0.8-2.2-1.2-3.4-1.1c-2.7-0.2-4.9,1.9-5.1,4.5C-166.9,460.5-166.9,460.7-166.9,460.9    L-166.9,460.9z M-147.4,460.9v-4.8h-2.1v1.2c-0.7-0.9-1.8-1.4-3-1.4c-2.8,0-5,2.2-5,5s2.2,5,5,5c1.2,0,2.3-0.5,3-1.4v1.2h2.1    L-147.4,460.9z M-155.2,460.9c0.1-1.6,1.5-2.8,3.1-2.7c1.6,0.1,2.8,1.5,2.7,3.1c-0.1,1.5-1.3,2.7-2.9,2.7c-1.6,0-2.9-1.2-2.9-2.8    C-155.2,461-155.2,460.9-155.2,460.9z M-180.3,455.9c-2.8,0-5,2.3-4.9,5.1c0,2.8,2.3,5,5.1,4.9c1.4,0.1,2.8-0.4,3.9-1.3l-1-1.5    c-0.8,0.6-1.8,1-2.8,1c-1.4,0.1-2.7-0.9-2.9-2.3h7.1c0-0.3,0-0.5,0-0.8C-175.7,457.9-177.6,455.9-180.3,455.9L-180.3,455.9z     M-180.3,457.7c1.3,0,2.4,1,2.4,2.3c0,0,0,0,0,0h-5C-182.8,458.7-181.6,457.7-180.3,457.7L-180.3,457.7z M-128.1,460.9v-8.6h-2.1    v5c-0.7-0.9-1.8-1.4-3-1.4c-2.8,0-5,2.2-5,5s2.2,5,5,5c1.2,0,2.3-0.5,3-1.4v1.2h2.1L-128.1,460.9z M-135.8,460.9    c0.1-1.6,1.5-2.8,3.1-2.7s2.8,1.5,2.7,3.1c-0.1,1.5-1.3,2.7-2.9,2.7c-1.6,0-2.9-1.2-2.9-2.8C-135.8,461-135.8,460.9-135.8,460.9z     M-206.1,460.9v-4.8h-2.1v1.2c-0.7-0.9-1.8-1.4-3-1.4c-2.8,0-5,2.2-5,5s2.2,5,5,5c1.2,0,2.3-0.5,3-1.4v1.2h2.1L-206.1,460.9z     M-213.8,460.9c0.1-1.6,1.5-2.8,3.1-2.7s2.8,1.5,2.7,3.1c-0.1,1.5-1.3,2.7-2.9,2.7c-1.6,0-2.9-1.2-2.9-2.8    C-213.8,461-213.8,461-213.8,460.9L-213.8,460.9z"/>
		<g id="_Group_">
			<rect x="-196.5" y="383.3" class="st0" width="31.5" height="56.6"/>
			<path id="_Path_" class="st1" d="M-194.5,411.6c0-11,5.1-21.5,13.8-28.3c-15.6-12.3-38.3-9.6-50.5,6.1     c-12.3,15.6-9.6,38.3,6.1,50.5c13.1,10.3,31.4,10.3,44.5,0C-189.4,433-194.5,422.6-194.5,411.6z"/>
			<path class="st2" d="M-122.5,411.6c0,19.9-16.1,36-36,36c-8.1,0-15.9-2.7-22.2-7.7c15.6-12.3,18.3-34.9,6.1-50.5     c-1.8-2.3-3.8-4.3-6.1-6.1c15.6-12.3,38.3-9.6,50.5,6.1C-125.2,395.7-122.5,403.5-122.5,411.6z"/>
		</g>
	</g>
</g>
</svg>