<svg id="Слой_1" data-name="Слой 1" xmlns="http://www.w3.org/2000/svg" viewBox="0 0 79.5 79.5"><defs><style>.cls-1{fill:#f5f6f8;}.cls-2{fill:#cccdd1;}</style></defs><title>pers data simple acc</title><rect class="cls-1" width="79.5" height="79.5" rx="8.5" ry="8.5"/><path class="cls-2" d="M179.25,150.13a1.5,1.5,0,0,1-1.06-.44l-22.5-22.5a1.5,1.5,0,0,1,2.12-2.12l22.5,22.5a1.5,1.5,0,0,1-1.06,2.56Z" transform="translate(-128.25 -97.62)"/><path class="cls-2" d="M156.75,150.13a1.5,1.5,0,0,1-1.06-2.56l22.5-22.5a1.5,1.5,0,0,1,2.12,2.12l-22.5,22.5A1.5,1.5,0,0,1,156.75,150.13Z" transform="translate(-128.25 -97.62)"/></svg>