<svg id="Слой_1" data-name="Слой 1" xmlns="http://www.w3.org/2000/svg" viewBox="0 0 80 80"><defs><style>.cls-1{fill:#63869e;}.cls-1,.cls-4{fill-rule:evenodd;}.cls-2{opacity:0.5;}.cls-3{fill:#f2f2f2;}.cls-4{fill:#fff;}</style></defs><title>tick</title><path class="cls-1" d="M490.5,310.5a40,40,0,1,1-40,40A40,40,0,0,1,490.5,310.5Z" transform="translate(-450.5 -310.5)"/><g class="cls-2"><path class="cls-3" d="M490.5,312.5a38,38,0,1,1-38,38,38,38,0,0,1,38-38m0-2a40,40,0,1,0,40,40,40,40,0,0,0-40-40Z" transform="translate(-450.5 -310.5)"/></g><path class="cls-4" d="M506.82,345l-20.25,20a1.51,1.51,0,0,1-1.42.39,1.47,1.47,0,0,1-1.39-.38l-9.84-9.74a1.44,1.44,0,0,1,0-2,1.48,1.48,0,0,1,2.07,0l9.1,9,19.58-19.38a1.52,1.52,0,0,1,2.13,0A1.48,1.48,0,0,1,506.82,345Z" transform="translate(-450.5 -310.5)"/></svg>