<svg id="Слой_1" data-name="Слой 1" xmlns="http://www.w3.org/2000/svg" viewBox="0 0 180 180"><defs><style>.cls-1{fill:#1387a1;}.cls-2{opacity:0.5;}.cls-3{fill:#fff;}</style></defs><title>паспорт</title><circle class="cls-1" cx="90" cy="90" r="90"/><g class="cls-2"><path class="cls-3" d="M141.88,55.33a90,90,0,1,0,90,90A90,90,0,0,0,141.88,55.33Zm0,174.91a84.91,84.91,0,1,1,84.91-84.91A84.91,84.91,0,0,1,141.88,230.25Z" transform="translate(-51.88 -55.33)"/></g><path class="cls-3" d="M168,191.64H115.71a4,4,0,0,1-4-4v-85a4,4,0,0,1,4-4H168a4,4,0,0,1,4,4v85A4,4,0,0,1,168,191.64Zm-52.33-90.89a2,2,0,0,0-2,2v85a2,2,0,0,0,2,2H168a2,2,0,0,0,2-2v-85a2,2,0,0,0-2-2Z" transform="translate(-51.88 -55.33)"/><path class="cls-3" d="M141.88,151.75a18.38,18.38,0,1,1,18.38-18.37A18.4,18.4,0,0,1,141.88,151.75Zm0-34.75a16.38,16.38,0,1,0,16.38,16.38A16.39,16.39,0,0,0,141.88,117Z" transform="translate(-51.88 -55.33)"/><path class="cls-3" d="M141.88,139.88c-9.13,0-18.37-2.23-18.37-6.5s9.24-6.5,18.38-6.5,18.38,2.23,18.38,6.5S151,139.88,141.88,139.88Zm0-11c-10,0-16.37,2.67-16.37,4.5s6.38,4.5,16.38,4.5,16.38-2.67,16.38-4.5S151.87,128.88,141.88,128.88Z" transform="translate(-51.88 -55.33)"/><path class="cls-3" d="M141.88,151.75c-5.61,0-10-8.07-10-18.37s4.39-18.37,10-18.37,10,8.07,10,18.38S147.48,151.75,141.88,151.75Zm0-34.75c-4.34,0-8,7.5-8,16.38s3.66,16.38,8,16.38,8-7.5,8-16.37S146.21,117,141.88,117Z" transform="translate(-51.88 -55.33)"/><path class="cls-3" d="M125.34,174v-9.34H130a3.11,3.11,0,1,1,0,6.21h-2.27V174Zm5.48-6.23a1,1,0,0,0-1.12-1h-1.95v2h1.95A1,1,0,0,0,130.82,167.77Z" transform="translate(-51.88 -55.33)"/><path class="cls-3" d="M140.69,174l-.46-1.34h-3.68l-.46,1.34h-2.73l3.52-9.34h3l3.53,9.34Zm-2.31-7-1.19,3.52h2.38Z" transform="translate(-51.88 -55.33)"/><path class="cls-3" d="M143.43,172.68l1.27-1.81a4.22,4.22,0,0,0,3,1.23c.83,0,1.33-.32,1.33-.77,0-1.27-5.29-.25-5.29-3.85,0-1.57,1.33-3,3.73-3a5.7,5.7,0,0,1,3.8,1.3l-1.32,1.72a4.4,4.4,0,0,0-2.73-1c-.7,0-1,.28-1,.67,0,1.19,5.28.32,5.28,3.8,0,1.88-1.39,3.12-3.89,3.12A5.71,5.71,0,0,1,143.43,172.68Z" transform="translate(-51.88 -55.33)"/><path class="cls-3" d="M151.91,172.68l1.27-1.81a4.22,4.22,0,0,0,3,1.23c.83,0,1.33-.32,1.33-.77,0-1.27-5.29-.25-5.29-3.85,0-1.57,1.33-3,3.73-3a5.7,5.7,0,0,1,3.8,1.3l-1.32,1.72a4.4,4.4,0,0,0-2.73-1c-.7,0-1,.28-1,.67,0,1.19,5.28.32,5.28,3.8,0,1.88-1.39,3.12-3.89,3.12A5.71,5.71,0,0,1,151.91,172.68Z" transform="translate(-51.88 -55.33)"/></svg>