<?xml version="1.0" encoding="utf-8"?>
<!-- Generator: Adobe Illustrator 21.1.0, SVG Export Plug-In . SVG Version: 6.00 Build 0)  -->
<svg version="1.1" id="Layer_1" xmlns="http://www.w3.org/2000/svg" xmlns:xlink="http://www.w3.org/1999/xlink" x="0px" y="0px"
	 viewBox="0 0 46 46" style="enable-background:new 0 0 46 46;" xml:space="preserve">
<!-- <style type="text/css">
	.st0{fill:#86CB90;}
	.st1{fill:#484849;}
</style>-->
<style type="text/css">
	.st0{fill:#d3295e;}
	.st1{fill:#fff;}
</style>
 <circle class="st0" cx="23" cy="23" r="23"/>
<path class="st1" d="M31.2,27.3c0,0-4.1,0.1-4.7-4.2c0.7-0.5,1.3-1.1,1.8-1.8c1.1-1.4,1.7-3.2,2-5.2c0.1-0.1,0.2-0.2,0.2-0.3
	c0.4-1.1,0.7-2.2,0.7-3.3c0-4.5-3.4-8.1-7.5-8.1c-1.1,0-2.1,0.2-3.1,0.7c-0.4,0-0.7,0.1-1.1,0.2c-1.7,0.5-3.1,1.7-3.9,3.5
	c-0.8,1.7-0.9,3.8-0.4,5.8c0.1,0.4,0.2,0.8,0.4,1.2c0,0.1,0.1,0.2,0.2,0.3c0.4,3,1.8,5.6,3.8,6.9c-0.6,4.4-4.7,4.2-4.7,4.2
	c-2.9,0.1-5.3,2.5-5.3,5.5v6.1c0,0.4,0.4,0.8,0.8,0.8h7h11.3h7c0.4,0,0.8-0.4,0.8-0.8v-6.1C36.4,29.8,34.1,27.4,31.2,27.3z
	 M19.9,6.8c0.3-0.1,0.6-0.1,0.9-0.1c0.1,0,0.2,0,0.3-0.1C21.9,6.2,22.8,6,23.6,6c3.3,0,5.9,2.9,5.9,6.5c0,0.1,0,0.2,0,0.3
	c-0.6-0.6-1.5-1-2.5-1h-5.4c-0.3,0-0.6-0.1-0.9-0.3c-0.2-0.2-0.4-0.4-0.5-0.6c-0.2-0.4-0.5-0.6-1-0.6c-0.4,0-0.8,0.3-0.9,0.7
	c-0.3,1.2-0.9,2.3-1.8,3.2C15.8,10.8,17.3,7.6,19.9,6.8z M17.3,15.7c1-0.9,1.8-2,2.3-3.2c0.1,0.1,0.2,0.1,0.2,0.2
	c0.5,0.4,1.2,0.6,1.8,0.6H27c0.8,0,1.4,0.5,1.7,1.1l0,0c0,4.5-2.6,8.1-5.8,8.1c-1.4,0-2.7-0.7-3.8-2C18.2,19.3,17.5,17.6,17.3,15.7z
	 M21,23.8c0.6,0.2,1.3,0.4,2,0.4s1.3-0.1,2-0.3c0.3,1.5,1.1,2.8,2.3,3.8l-4.2,5.9L23,33.7c0,0-0.1,0-0.1-0.1l-4.2-6
	C19.9,26.7,20.7,25.3,21,23.8z M34.9,38.1h-6.2H17.3h-6.2v-5.3c0-2.1,1.7-3.9,3.9-3.9c0,0,1.3,0,2.3-0.5l4.3,6.1
	c0.3,0.5,0.9,0.7,1.4,0.7l0,0c0.6,0,1.1-0.3,1.4-0.7l4.3-6.1c1.2,0.5,2.3,0.5,2.3,0.5c2.1,0,3.9,1.7,3.9,3.9
	C34.9,32.8,34.9,38.1,34.9,38.1z"/>
</svg>
