<svg xmlns="http://www.w3.org/2000/svg" width="150" height="190" viewBox="0 0 150 190">
    <defs>
        <!--<filter id="a" width="200%" height="200%" x="-50%" y="-50%">-->
            <!--<feMorphology in="SourceGraphic" operator="dilate" result="SvgjsFeMorphology1269Out"/>-->
            <!--<feOffset in="SvgjsFeMorphology1269Out" result="SvgjsFeOffset1270Out"/>-->
            <!--<feGaussianBlur in="SvgjsFeOffset1270Out" result="SvgjsFeGaussianBlur1271Out" stdDeviation="15"/>-->
            <!--<feComposite in="SvgjsFeGaussianBlur1271Out" in2="SourceAlpha" operator="out"-->
                         <!--result="SvgjsFeComposite1272Out"/>-->
        <!--</filter>-->
        <clipPath id="b">
            <path fill="#fff" d="M1400 1406v120a5 5 0 0 1-5 5h-80a5 5 0 0 1-5-5v-120a5 5 0 0 1 5-5h80a5 5 0 0 1 5 5z"/>
        </clipPath>
        <clipPath id="c">
            <path fill="#fff"
                  d="M1389 1426v120c0 2.76-1.97 4.5-4.39 3.89l-3.51-.89-63.2-16-3.51-.89c-2.43-.61-4.39-3.35-4.39-6.11v-120c0-2.76 1.96-4.5 4.39-3.89l3.51.89 63.2 16 3.51.89c2.42.61 4.39 3.35 4.39 6.11z"/>
        </clipPath>
        <clipPath id="d">
            <path fill="#fff" d="M1320 1407.01l4.98 1.11V1533l-4.98-1.11z"/>
        </clipPath>
        <clipPath id="e">
            <path fill="#fff"
                  d="M1354.5 1443.49c9.67 2.46 17.51 13.41 17.51 24.46 0 11.06-7.84 18.03-17.51 15.57-9.67-2.46-17.51-13.41-17.51-24.46 0-11.06 7.84-18.03 17.51-15.57z"/>
        </clipPath>
        <clipPath id="f">
            <path fill="#fff"
                  d="M1359.32 1506.24l10.5 2.68c1.21.31 2.19 1.68 2.19 3.07 0 1.38-.98 2.26-2.19 1.95l-10.5-2.68c-1.21-.31-2.19-1.68-2.19-3.07 0-1.38.98-2.26 2.19-1.95zm-20.14-5.13l14.01 3.57c1.21.31 2.19 1.68 2.19 3.07 0 1.38-.98 2.26-2.19 1.95l-14.01-3.57c-1.21-.31-2.19-1.68-2.19-3.07s.98-2.26 2.19-1.95zm0-8.04l22.76 5.8c1.21.31 2.19 1.69 2.19 3.07 0 1.39-.98 2.26-2.19 1.96l-22.76-5.81c-1.21-.31-2.19-1.68-2.19-3.07 0-1.38.98-2.26 2.19-1.95zm28.89 7.37l1.75.44c1.21.31 2.19 1.68 2.19 3.07s-.98 2.26-2.19 1.95l-1.75-.44c-1.21-.31-2.19-1.68-2.19-3.07s.98-2.26 2.19-1.95z"/>
        </clipPath>
    </defs>
    <path fill="#445a87" fill-opacity=".1"
          d="M1400 1406v120a5 5 0 0 1-5 5h-80a5 5 0 0 1-5-5v-120a5 5 0 0 1 5-5h80a5 5 0 0 1 5 5z" filter="url(#a)"
          transform="translate(-1280 -1371)"/>
    <path fill="#fff" d="M120 35v120a5 5 0 0 1-5 5H35a5 5 0 0 1-5-5V35a5 5 0 0 1 5-5h80a5 5 0 0 1 5 5z"/>
    <path fill="#fff" d="M120 35v120a5 5 0 0 1-5 5H35a5 5 0 0 1-5-5V35a5 5 0 0 1 5-5h80a5 5 0 0 1 5 5z"/>
    <path fill="none" stroke="#424c53" stroke-miterlimit="50" stroke-width="10"
          d="M1400 1406v120a5 5 0 0 1-5 5h-80a5 5 0 0 1-5-5v-120a5 5 0 0 1 5-5h80a5 5 0 0 1 5 5z"
          clip-path="url(&quot;#b&quot;)" transform="translate(-1280 -1371)"/>
    <path fill="#fff"
          d="M109 55v120c0 2.76-1.97 4.5-4.39 3.89l-3.51-.89-63.2-16-3.51-.89C31.96 160.5 30 157.76 30 155V35c0-2.76 1.96-4.5 4.39-3.89l3.51.89 63.2 16 3.51.89c2.42.61 4.39 3.35 4.39 6.11z"/>
    <path fill="none" stroke="#424c53" stroke-miterlimit="50" stroke-width="10"
          d="M1389 1426v120c0 2.76-1.97 4.5-4.39 3.89l-3.51-.89-63.2-16-3.51-.89c-2.43-.61-4.39-3.35-4.39-6.11v-120c0-2.76 1.96-4.5 4.39-3.89l3.51.89 63.2 16 3.51.89c2.42.61 4.39 3.35 4.39 6.11z"
          clip-path="url(&quot;#c&quot;)" transform="translate(-1280 -1371)"/>
    <path fill="#fff" d="M40 36.01l4.98 1.11V162L40 160.89z"/>
    <path fill="none" stroke="#424c53" stroke-miterlimit="50" stroke-width="10"
          d="M1320 1407.01l4.98 1.11V1533l-4.98-1.11z" clip-path="url(&quot;#d&quot;)"
          transform="translate(-1280 -1371)"/>
    <path fill="#fff"
          d="M74.5 72.49c9.67 2.46 17.51 13.41 17.51 24.46 0 11.06-7.84 18.03-17.51 15.57-9.67-2.46-17.51-13.41-17.51-24.46 0-11.06 7.84-18.03 17.51-15.57z"/>
    <path fill="none" stroke="#424c53" stroke-miterlimit="50" stroke-width="10"
          d="M1354.5 1443.49c9.67 2.46 17.51 13.41 17.51 24.46 0 11.06-7.84 18.03-17.51 15.57-9.67-2.46-17.51-13.41-17.51-24.46 0-11.06 7.84-18.03 17.51-15.57z"
          clip-path="url(&quot;#e&quot;)" transform="translate(-1280 -1371)"/>
    <path fill="#fff"
          d="M79.32 135.24l10.5 2.68c1.21.31 2.19 1.68 2.19 3.07 0 1.38-.98 2.26-2.19 1.95l-10.5-2.68c-1.21-.31-2.19-1.68-2.19-3.07 0-1.38.98-2.26 2.19-1.95zm-20.14-5.13l14.01 3.57c1.21.31 2.19 1.68 2.19 3.07 0 1.38-.98 2.26-2.19 1.95l-14.01-3.57c-1.21-.31-2.19-1.68-2.19-3.07s.98-2.26 2.19-1.95zm0-8.04l22.76 5.8c1.21.31 2.19 1.69 2.19 3.07 0 1.39-.98 2.26-2.19 1.96l-22.76-5.81c-1.21-.31-2.19-1.68-2.19-3.07 0-1.38.98-2.26 2.19-1.95zm28.89 7.37l1.75.44c1.21.31 2.19 1.68 2.19 3.07s-.98 2.26-2.19 1.95l-1.75-.44c-1.21-.31-2.19-1.68-2.19-3.07s.98-2.26 2.19-1.95z"/>
    <path fill="none" stroke="#424c53" stroke-miterlimit="50" stroke-width="10"
          d="M1359.32 1506.24l10.5 2.68c1.21.31 2.19 1.68 2.19 3.07 0 1.38-.98 2.26-2.19 1.95l-10.5-2.68c-1.21-.31-2.19-1.68-2.19-3.07 0-1.38.98-2.26 2.19-1.95zm-20.14-5.13l14.01 3.57c1.21.31 2.19 1.68 2.19 3.07 0 1.38-.98 2.26-2.19 1.95l-14.01-3.57c-1.21-.31-2.19-1.68-2.19-3.07s.98-2.26 2.19-1.95zm0-8.04l22.76 5.8c1.21.31 2.19 1.69 2.19 3.07 0 1.39-.98 2.26-2.19 1.96l-22.76-5.81c-1.21-.31-2.19-1.68-2.19-3.07 0-1.38.98-2.26 2.19-1.95zm28.89 7.37l1.75.44c1.21.31 2.19 1.68 2.19 3.07s-.98 2.26-2.19 1.95l-1.75-.44c-1.21-.31-2.19-1.68-2.19-3.07s.98-2.26 2.19-1.95z"
          clip-path="url(&quot;#f&quot;)" transform="translate(-1280 -1371)"/>
</svg>