<svg xmlns="http://www.w3.org/2000/svg" width="33" height="34" viewBox="0 0 33 34"><defs><clipPath id="a"><path fill="#fff" d="M758.51 511.15c.53.22.95.7 1.04 1.33l2.45 17.61a1.68 1.68 0 0 1-2.32 1.77l-16.63-6.82a1.67 1.67 0 0 1-.4-2.88l14.18-10.8c.52-.39 1.15-.43 1.68-.21z"/></clipPath></defs><path fill="#f2f5f7" d="M26.42.24a2.71 2.71 0 0 1 1.66 2.16L32 30.9a2.7 2.7 0 0 1-3.7 2.86L1.69 22.73a2.72 2.72 0 0 1-.64-4.66L23.74.6c.82-.63 1.83-.7 2.68-.35z"/><path fill="#fff" d="M23.51 7.15c.53.22.95.7 1.04 1.33L27 26.09a1.68 1.68 0 0 1-2.32 1.77L8.05 21.04a1.67 1.67 0 0 1-.4-2.88l14.18-10.8c.52-.39 1.15-.43 1.68-.21z"/><path fill="none" stroke="#e63460" stroke-miterlimit="50" stroke-width="8" d="M758.51 511.15c.53.22.95.7 1.04 1.33l2.45 17.61a1.68 1.68 0 0 1-2.32 1.77l-16.63-6.82a1.67 1.67 0 0 1-.4-2.88l14.18-10.8c.52-.39 1.15-.43 1.68-.21z" clip-path="url(&quot;#a&quot;)" transform="translate(-735 -504)"/></svg>