<svg id="Слой_1" data-name="Слой 1" xmlns="http://www.w3.org/2000/svg" viewBox="0 0 18.25 18.25"><defs><style>.cls-1{fill:#a4afb3;}.cls-2{fill:#c1cccf;}</style></defs><title>home</title><path class="cls-1" d="M166.33,141.38a1,1,0,0,1-.71-.29L163.5,139a1,1,0,0,1,1.41-1.41l1.42,1.42,3.61-3.61a1,1,0,0,1,1.41,1.41L167,141.08A1,1,0,0,1,166.33,141.38Z" transform="translate(-158.33 -128.29)"/><path class="cls-2" d="M167.46,146.54a9.13,9.13,0,1,1,9.13-9.13A9.14,9.14,0,0,1,167.46,146.54Zm0-16.25a7.13,7.13,0,1,0,7.13,7.13A7.13,7.13,0,0,0,167.46,130.29Z" transform="translate(-158.33 -128.29)"/></svg>