<svg xmlns="http://www.w3.org/2000/svg" width="201" height="212" viewBox="0 0 201 212"><defs><filter id="a" width="200%" height="200%" x="-50%" y="-50%"><feMorphology in="SourceGraphic" operator="dilate" result="SvgjsFeMorphology1047Out"/><feOffset in="SvgjsFeMorphology1047Out" result="SvgjsFeOffset1048Out"/><feGaussianBlur in="SvgjsFeOffset1048Out" result="SvgjsFeGaussianBlur1049Out" stdDeviation="15"/><feComposite in="SvgjsFeGaussianBlur1049Out" in2="SourceAlpha" operator="out" result="SvgjsFeComposite1050Out"/></filter></defs><path fill="#445a87" fill-opacity=".1" d="M610.86 1026.77l-18.02 129.39a12.5 12.5 0 0 1-7.54 9.84 12.02 12.02 0 0 1-12.13-1.45l-102.44-77.99c-7.44-5.66-5.8-17.4 2.94-21.13l120.46-51.4a12.02 12.02 0 0 1 16.73 12.74z" filter="url(#a)" transform="translate(-438 -984.5)"/><path fill="#fff" d="M172.86 42.27l-18.02 129.39a12.5 12.5 0 0 1-7.54 9.84 12.02 12.02 0 0 1-12.13-1.45L32.73 102.06c-7.44-5.66-5.8-17.4 2.94-21.13l120.46-51.4a12.02 12.02 0 0 1 16.73 12.74z"/></svg>