<svg id="Слой_1" data-name="Слой 1" xmlns="http://www.w3.org/2000/svg" viewBox="0 0 88.75 11.5"><defs><style>.cls-1{fill:#bac6cf;}</style></defs><title>404</title><path class="cls-1" d="M170.37,148c-4.27,0-6.41-2.54-8.3-4.79-1.75-2.08-3.12-3.72-6-3.72s-4.25,1.64-6,3.72c-1.88,2.24-4,4.79-8.29,4.79s-6.41-2.54-8.29-4.79c-1.75-2.08-3.12-3.72-6-3.72s-4.25,1.64-6,3.72c-1.88,2.24-4,4.79-8.29,4.79s-6.41-2.54-8.29-4.79c-1.74-2.08-3.12-3.72-6-3.72a1.5,1.5,0,1,1,0-3c4.27,0,6.41,2.54,8.29,4.79,1.74,2.08,3.12,3.72,6,3.72s4.25-1.64,6-3.72c1.88-2.24,4-4.79,8.29-4.79s6.41,2.54,8.29,4.79c1.75,2.08,3.12,3.72,6,3.72s4.25-1.64,6-3.72c1.88-2.24,4-4.79,8.29-4.79s6.41,2.54,8.3,4.79c1.75,2.08,3.12,3.72,6,3.72s4.25-1.64,6-3.72c1.89-2.24,4-4.79,8.3-4.79a1.5,1.5,0,0,1,0,3c-2.88,0-4.25,1.64-6,3.72C176.78,145.46,174.64,148,170.37,148Z" transform="translate(-97.42 -136.5)"/></svg>