<svg id="Слой_1" data-name="Слой 1" xmlns="http://www.w3.org/2000/svg" viewBox="0 0 130.17 90.17"><defs><style>.cls-1{fill:#fff;}.cls-2{fill:#2e4a51;}.cls-3{fill:#ccdee4;}.cls-4{fill:#2f4a50;}</style></defs><title>get loan</title><rect class="cls-1" width="130.17" height="90.17" rx="4.25" ry="4.25"/><path class="cls-2" d="M4.19,0H126a4.19,4.19,0,0,1,4.19,4.19v7.15a0,0,0,0,1,0,0H0a0,0,0,0,1,0,0V4.19A4.19,4.19,0,0,1,4.19,0Z"/><circle class="cls-3" cx="117.52" cy="5.63" r="1.42"/><circle class="cls-3" cx="112.5" cy="5.63" r="1.42"/><circle class="cls-3" cx="122.54" cy="5.63" r="1.42"/><rect class="cls-4" x="50.68" y="60.06" width="28.81" height="4"/><rect class="cls-4" x="50.68" y="51.13" width="6.4" height="4"/><rect class="cls-4" x="55.07" y="53.13" width="4" height="17.88"/><path class="cls-4" d="M170.6,147.63H158.08V121.5H170.6a13.06,13.06,0,0,1,0,26.13Zm-8.52-4h8.52a9.06,9.06,0,0,0,0-18.12h-8.52Z" transform="translate(-103.01 -92.5)"/></svg>