<svg id="Слой_1" data-name="Слой 1" xmlns="http://www.w3.org/2000/svg" viewBox="0 0 180 180"><defs><style>.cls-1{fill:#1387a1;}.cls-2{opacity:0.5;}.cls-3{fill:#fff;}</style></defs><title>18+</title><circle class="cls-1" cx="90" cy="90" r="90"/><g class="cls-2"><path class="cls-3" d="M141.77,55.25a90,90,0,1,0,90,90A90,90,0,0,0,141.77,55.25Zm0,174.91a84.91,84.91,0,1,1,84.91-84.91A84.91,84.91,0,0,1,141.77,230.16Z" transform="translate(-51.77 -55.25)"/></g><path class="cls-3" d="M110.75,165.82V128.13l-6.85,7.3-2.24-2.37,9.41-9.92h3.33v42.69Z" transform="translate(-51.77 -55.25)"/><path class="cls-3" d="M123.49,155.13c0-6,5.18-9.86,10.62-11.33-5.06-1.34-9.92-4.61-9.92-10.3,0-7.55,7-11,13.82-11s13.82,3.46,13.82,11c0,5.7-4.86,9-9.92,10.3,5.44,1.47,10.56,5.38,10.56,11.33,0,6.91-6.27,11.46-14.46,11.46S123.49,162.11,123.49,155.13Zm25.34-.26c0-6.53-8.26-9.09-10.82-9.41-2.62.32-10.82,2.88-10.82,9.41,0,5.18,5.12,8.38,10.82,8.38S148.83,160.06,148.83,154.88Zm-.7-21c0-5.12-4.54-8.06-10.11-8.06s-10.11,2.94-10.11,8.06c0,6,7.55,7.87,10.11,8.38C140.64,141.76,148.13,139.84,148.13,133.89Z" transform="translate(-51.77 -55.25)"/><path class="cls-3" d="M173.6,145.6v13.89h-2.88V145.6H158.11v-2.69h12.61v-13.5h2.88v13.5h12.54v2.69Z" transform="translate(-51.77 -55.25)"/></svg>