<svg id="Слой_1" data-name="Слой 1" xmlns="http://www.w3.org/2000/svg" viewBox="0 0 180 180"><defs><style>.cls-1{fill:#1387a1;}.cls-2{opacity:0.5;}.cls-3{fill:#fff;}</style></defs><title>карта</title><circle class="cls-1" cx="90" cy="90" r="90"/><g class="cls-2"><path class="cls-3" d="M141.88,55.25a90,90,0,1,0,90,90A90,90,0,0,0,141.88,55.25Zm0,174.91a84.91,84.91,0,1,1,84.91-84.91A84.91,84.91,0,0,1,141.88,230.16Z" transform="translate(-51.88 -55.25)"/></g><path class="cls-3" d="M185.19,174.75H98.56a3.82,3.82,0,0,1-3.81-3.81V119.56a3.82,3.82,0,0,1,3.81-3.81h86.63a3.82,3.82,0,0,1,3.81,3.81v51.38A3.82,3.82,0,0,1,185.19,174.75Zm-86.62-57a1.81,1.81,0,0,0-1.81,1.81v51.38a1.81,1.81,0,0,0,1.81,1.81h86.63a1.82,1.82,0,0,0,1.81-1.81V119.56a1.81,1.81,0,0,0-1.81-1.81Z" transform="translate(-51.88 -55.25)"/><rect class="cls-3" x="54.25" y="82.25" width="71.63" height="2"/><rect class="cls-3" x="54.25" y="102" width="18.75" height="2"/><rect class="cls-3" x="76.19" y="102" width="15" height="2"/><rect class="cls-3" x="54.25" y="108.13" width="6.94" height="2"/><rect class="cls-3" x="64.25" y="108.13" width="6.94" height="2"/><path class="cls-3" d="M173.47,166.88h-6.69a5.28,5.28,0,0,1,0-10.56h6.69a5.28,5.28,0,0,1,0,10.56Zm-6.69-8.56a3.28,3.28,0,0,0,0,6.56h6.69a3.28,3.28,0,0,0,0-6.56Z" transform="translate(-51.88 -55.25)"/></svg>