<svg id="Слой_1" data-name="Слой 1" xmlns="http://www.w3.org/2000/svg" viewBox="0 0 180 180"><defs><style>.cls-1{fill:#00a396;}.cls-2{opacity:0.5;}.cls-3{fill:#fff;}.cls-4{fill:none;stroke:#fff;stroke-miterlimit:10;stroke-width:2px;}</style></defs><title>кресло</title><circle class="cls-1" cx="90" cy="90" r="90"/><g class="cls-2"><path class="cls-3" d="M141.5,52a90,90,0,1,0,90,90A90,90,0,0,0,141.5,52Zm0,174.91A84.91,84.91,0,1,1,226.41,142,84.91,84.91,0,0,1,141.5,226.93Z" transform="translate(-51.5 -52.02)"/></g><path class="cls-3" d="M168,167.9H116.22c-3.68,0-5.14-4.25-5.2-4.43s-7.76-19.27-10-25.22c-1-2.65-1-4.67-.13-6a3.3,3.3,0,0,1,2.55-1.43h7c.69-.11,2.33.11,3.86,4,.56,1.39,1,2.89,1.45,4.34.76,2.49,1.47,4.84,2.59,6.36.34.46.68.94,1,1.44a29.67,29.67,0,0,0,2.51,3.25,6.13,6.13,0,0,0,4.47,1.9h31.51a6.13,6.13,0,0,0,4.47-1.9,29.74,29.74,0,0,0,2.5-3.25c.35-.5.69-1,1-1.44,1.12-1.51,1.83-3.86,2.59-6.36.44-1.45.89-2.94,1.45-4.34,1.54-3.84,3.16-4.08,3.87-4h7a3.31,3.31,0,0,1,2.57,1.43c.9,1.34.86,3.36-.13,6-2.23,5.94-9.93,25.08-10,25.27S171.68,167.9,168,167.9Zm-64.53-35.08a1.33,1.33,0,0,0-.93.57c-.28.44-.61,1.56.36,4.16,2.22,5.92,9.91,25,10,25.23s1.09,3.12,3.32,3.12H168c2.22,0,3.29-3,3.3-3.07.1-.25,7.79-19.36,10-25.29,1-2.63.64-3.75.35-4.18a1.33,1.33,0,0,0-.94-.55h-7.2c-.17.08-.89.52-1.76,2.71-.53,1.31-1,2.77-1.39,4.17-.81,2.66-1.57,5.18-2.9,7-.33.44-.66.92-1,1.4a31.09,31.09,0,0,1-2.68,3.47,8.13,8.13,0,0,1-5.92,2.53H126.35a8.13,8.13,0,0,1-5.92-2.53,31.16,31.16,0,0,1-2.69-3.48c-.34-.48-.67-1-1-1.39-1.33-1.79-2.09-4.3-2.9-7-.43-1.41-.87-2.86-1.39-4.17-.87-2.18-1.59-2.63-1.76-2.71Z" transform="translate(-51.5 -52.02)"/><path class="cls-3" d="M164.94,148a8.07,8.07,0,0,0-6.42-3.15H125.44a8.09,8.09,0,0,0-6.3,3l-1.55-1.26a10.08,10.08,0,0,1,7.85-3.73h33.08a10.05,10.05,0,0,1,8,3.93Z" transform="translate(-51.5 -52.02)"/><path class="cls-3" d="M176.74,131.54h-2a28.53,28.53,0,0,0-28.5-28.5H138a28.53,28.53,0,0,0-28.5,28.5h-2A30.53,30.53,0,0,1,138,101h8.25A30.53,30.53,0,0,1,176.74,131.54Z" transform="translate(-51.5 -52.02)"/><path class="cls-3" d="M119.77,181h-7l1.06-15.12h9.08Zm-4.82-2h3.2l2.33-11.12h-4.75Z" transform="translate(-51.5 -52.02)"/><path class="cls-3" d="M171.29,181h-7l-3.17-15.12h9.08Zm-5.34-2h3.2l-.78-11.12h-4.75Z" transform="translate(-51.5 -52.02)"/><path class="cls-3" d="M131.13,129.08a4.09,4.09,0,1,1,4.09-4.09A4.1,4.1,0,0,1,131.13,129.08Zm0-6.19a2.09,2.09,0,1,0,2.09,2.09A2.1,2.1,0,0,0,131.13,122.9Z" transform="translate(-51.5 -52.02)"/><rect class="cls-3" x="125.07" y="127.78" width="4.54" height="2" transform="translate(-105.27 75.74) rotate(-45)"/><rect class="cls-3" x="132.65" y="120.2" width="4.54" height="2" transform="translate(-97.68 78.89) rotate(-45)"/><rect class="cls-3" x="133.92" y="126.51" width="2" height="4.54" transform="translate(-103.05 81.09) rotate(-45)"/><path class="cls-4" d="M133.32,127.18" transform="translate(-51.5 -52.02)"/><rect class="cls-3" x="126.34" y="118.93" width="2" height="4.54" transform="translate(-99.9 73.52) rotate(-45)"/><path class="cls-3" d="M153.09,129.08a4.09,4.09,0,1,1,4.09-4.09A4.1,4.1,0,0,1,153.09,129.08Zm0-6.19a2.09,2.09,0,1,0,2.09,2.09A2.1,2.1,0,0,0,153.09,122.9Z" transform="translate(-51.5 -52.02)"/><rect class="cls-3" x="147.03" y="127.78" width="4.54" height="2" transform="translate(-98.83 91.27) rotate(-45)"/><rect class="cls-3" x="154.61" y="120.2" width="4.54" height="2" transform="translate(-91.25 94.41) rotate(-45)"/><rect class="cls-3" x="155.88" y="126.51" width="2" height="4.54" transform="translate(-96.61 96.63) rotate(-45)"/><path class="cls-4" d="M155.28,127.18" transform="translate(-51.5 -52.02)"/><rect class="cls-3" x="148.3" y="118.93" width="2" height="4.54" transform="translate(-93.47 89.06) rotate(-45)"/></svg>