<svg id="Слой_1" data-name="Слой 1" xmlns="http://www.w3.org/2000/svg" viewBox="0 0 180 180"><defs><style>.cls-1{fill:#ffba38;}.cls-2{opacity:0.5;}.cls-3{fill:#fff;}.cls-4{fill:none;stroke:#fff;stroke-miterlimit:10;stroke-width:2px;}</style></defs><title>график</title><circle class="cls-1" cx="90" cy="90" r="90"/><g class="cls-2"><path class="cls-3" d="M141.58,52a90,90,0,1,0,90,90A90,90,0,0,0,141.58,52Zm0,174.91A84.91,84.91,0,1,1,226.5,142,84.91,84.91,0,0,1,141.58,226.87Z" transform="translate(-51.58 -51.96)"/></g><path class="cls-3" d="M176.69,182H102.15a2.65,2.65,0,0,1-2.65-2.65V116.48a2.65,2.65,0,0,1,2.65-2.65h69.23v2H102.15a.65.65,0,0,0-.65.65v62.88a.65.65,0,0,0,.65.65h74.54a5,5,0,0,0,5-5V123h2V175A7,7,0,0,1,176.69,182Z" transform="translate(-51.58 -51.96)"/><path class="cls-3" d="M176,182h-6v-2h6a5.52,5.52,0,1,0,0-11h-5.63v-2H176a7.52,7.52,0,1,1,0,15Z" transform="translate(-51.58 -51.96)"/><path class="cls-3" d="M183.67,171.58h-2V107.79a6.09,6.09,0,0,0-6.08-6.08h-3.21V168h-2V99.71h5.21a8.09,8.09,0,0,1,8.08,8.08Z" transform="translate(-51.58 -51.96)"/><path class="cls-3" d="M108.37,170.21a4.19,4.19,0,1,1,4.19-4.19A4.19,4.19,0,0,1,108.37,170.21Zm0-6.37a2.19,2.19,0,1,0,2.19,2.19A2.19,2.19,0,0,0,108.37,163.83Z" transform="translate(-51.58 -51.96)"/><path class="cls-3" d="M141.58,163.33a4.19,4.19,0,1,1,4.19-4.19A4.19,4.19,0,0,1,141.58,163.33Zm0-6.37a2.19,2.19,0,1,0,2.19,2.19A2.19,2.19,0,0,0,141.58,157Z" transform="translate(-51.58 -51.96)"/><path class="cls-3" d="M128.71,150.22A4.19,4.19,0,1,1,132.9,146,4.19,4.19,0,0,1,128.71,150.22Zm0-6.37A2.19,2.19,0,1,0,130.9,146,2.19,2.19,0,0,0,128.71,143.84Z" transform="translate(-51.58 -51.96)"/><rect class="cls-3" x="139.47" y="145.86" width="27.4" height="2" transform="translate(-110.34 105.66) rotate(-46.7)"/><rect class="cls-3" x="134.15" y="146.58" width="2" height="12.01" transform="translate(-119.77 86.43) rotate(-44.47)"/><rect class="cls-3" x="107.47" y="155.02" width="22.14" height="2" transform="translate(-126.96 75.96) rotate(-44.53)"/><path class="cls-4" d="M152.56,136.89" transform="translate(-51.58 -51.96)"/><polygon class="cls-3" points="111.98 95.06 109.98 95.06 109.98 85.94 100.98 85.94 100.98 83.94 111.98 83.94 111.98 95.06"/></svg>