<svg id="Слой_1" data-name="Слой 1" xmlns="http://www.w3.org/2000/svg" viewBox="0 0 180 180"><defs><style>.cls-1{fill:#ff5c00;}.cls-2{fill:#fff;}.cls-3{opacity:0.5;}</style></defs><title>часы</title><circle class="cls-1" cx="90" cy="90" r="90"/><path class="cls-2" d="M141.65,183.08a41.25,41.25,0,1,1,41.25-41.25A41.3,41.3,0,0,1,141.65,183.08Zm0-80.5a39.25,39.25,0,1,0,39.25,39.25A39.29,39.29,0,0,0,141.65,102.58Z" transform="translate(-51.65 -51.83)"/><path class="cls-2" d="M141.65,146.71a4.88,4.88,0,1,1,4.88-4.87A4.88,4.88,0,0,1,141.65,146.71Zm0-7.75a2.88,2.88,0,1,0,2.88,2.88A2.88,2.88,0,0,0,141.65,139Z" transform="translate(-51.65 -51.83)"/><rect class="cls-2" x="89" y="64.63" width="2" height="21.5"/><rect class="cls-2" x="152" y="139.15" width="2" height="18.48" transform="translate(-103.65 154.88) rotate(-60)"/><rect class="cls-2" x="89" y="121.18" width="2" height="3.24"/><rect class="cls-2" x="89" y="54.67" width="2" height="3.7"/><rect class="cls-2" x="157.15" y="168.55" width="2" height="3.73" transform="translate(-115.67 50.07) rotate(-30)"/><rect class="cls-2" x="124.01" y="111.41" width="2" height="3.2" transform="translate(-91.41 25.82) rotate(-30)"/><rect class="cls-2" x="169.35" y="156.21" width="2" height="3.47" transform="translate(-103.25 174.68) rotate(-60)"/><rect class="cls-2" x="111.84" y="123.13" width="2" height="3.23" transform="translate(-103.25 108.27) rotate(-60)"/><rect class="cls-2" x="121.28" y="88.54" width="3.6" height="2"/><rect class="cls-2" x="55.12" y="88.54" width="3.33" height="2"/><rect class="cls-2" x="168.4" y="123.86" width="3.69" height="2" transform="translate(-91.26 50) rotate(-29.99)"/><rect class="cls-2" x="111.23" y="157" width="3.23" height="2" transform="translate(-115.52 25.74) rotate(-29.99)"/><rect class="cls-2" x="156.29" y="111.78" width="3.73" height="2" transform="translate(-70.24 141.54) rotate(-60.01)"/><rect class="cls-2" x="123.41" y="169.19" width="3.2" height="2" transform="translate(-136.53 141.54) rotate(-60.01)"/><g class="cls-3"><path class="cls-2" d="M141.65,51.83a90,90,0,1,0,90,90A90,90,0,0,0,141.65,51.83Zm0,174.91a84.91,84.91,0,1,1,84.91-84.91A84.91,84.91,0,0,1,141.65,226.75Z" transform="translate(-51.65 -51.83)"/></g></svg>