<svg id="Слой_1" data-name="Слой 1" xmlns="http://www.w3.org/2000/svg" viewBox="0 0 180 180"><defs><style>.cls-1{fill:#1387a1;}.cls-2{opacity:0.5;}.cls-3{fill:#fff;}</style></defs><title>костюм</title><circle class="cls-1" cx="90" cy="90" r="90"/><g class="cls-2"><path class="cls-3" d="M141.5,52a90,90,0,1,0,90,90A90,90,0,0,0,141.5,52Zm0,174.91A84.91,84.91,0,1,1,226.41,142,84.91,84.91,0,0,1,141.5,226.93Z" transform="translate(-51.5 -52.02)"/></g><path class="cls-3" d="M134.16,187.85a1.14,1.14,0,0,1-1-.61c-2.68-5.06-16.68-30.71-29.55-38.52l-.18-.13c-.22-.21-2.15-2.08-1.91-4.34a4.55,4.55,0,0,1,2.48-3.39,16.36,16.36,0,0,1,6.48-2.12,5.38,5.38,0,0,0,2.79-.87.94.94,0,0,0,.37-.8c-.05-.57-.69-1.89-4.33-4.32-2.21-1.47-11.13-8-11.13-10.71,0-2,1.9-3.34,2.29-3.6l.09-.07.16-.06a67.16,67.16,0,0,1,14.11-4.53c.66-.2,3.15-.84,4.31.6.13.16,13.61,25,16.22,72.25a1.17,1.17,0,0,1-1.17,1.23Zm-29.44-40.79C116.1,154,128.18,174.13,133.1,183c-2.81-40.18-14-65.15-15.56-67.35-.18-.23-1.32-.19-2.19.09l-.14,0a66.08,66.08,0,0,0-13.68,4.39c-.42.29-1.35,1.09-1.35,1.91.22,1.07,5.33,5.77,10.24,9,3.44,2.3,5.05,4.08,5.21,5.79a2.92,2.92,0,0,1-1,2.42c-1,1-2.33,1.17-3.89,1.41a14.46,14.46,0,0,0-5.76,1.85,2.7,2.7,0,0,0-1.52,1.88A3.83,3.83,0,0,0,104.72,147.06Z" transform="translate(-51.5 -52.02)"/><path class="cls-3" d="M133.1,182.43c-6.29-17.64-21.83-35.17-24.88-38.5l-.08-.09a6,6,0,0,1-1.06-3.64l2,0a4.15,4.15,0,0,0,.54,2.27l.08.09c3.1,3.38,18.87,21.18,25.29,39.18Z" transform="translate(-51.5 -52.02)"/><path class="cls-3" d="M150,187.85a1.17,1.17,0,0,1-1.17-1.23c2.61-47.26,16.09-72.08,16.22-72.25,1.15-1.44,3.65-.8,4.31-.6a67.53,67.53,0,0,1,14.18,4.56l.13.07-.53.84.54-.84c.24.15,2.34,1.54,2.34,3.63,0,2.7-8.92,9.23-11.13,10.71-3.64,2.43-4.27,3.75-4.33,4.31a.94.94,0,0,0,.37.8,5.38,5.38,0,0,0,2.79.87,16.36,16.36,0,0,1,6.48,2.12,4.55,4.55,0,0,1,2.48,3.38c.24,2.27-1.69,4.14-1.91,4.35l-.2.15c-12.85,7.8-26.85,33.45-29.53,38.51A1.15,1.15,0,0,1,150,187.85Zm.83-1.12h0Zm16.49-71.27a1,1,0,0,0-.71.16c-1.54,2.19-12.74,27.15-15.55,67.33,4.91-8.81,17-28.92,28.38-35.9a3.84,3.84,0,0,0,1.22-2.61,2.7,2.7,0,0,0-1.52-1.88,14.45,14.45,0,0,0-5.75-1.85c-1.55-.24-2.89-.45-3.89-1.41a2.92,2.92,0,0,1-1-2.42c.16-1.71,1.77-3.5,5.21-5.79,4.91-3.28,10-8,10.25-9.09,0-.79-1-1.61-1.37-1.87A66.13,66.13,0,0,0,169,115.74l-.14,0A5.26,5.26,0,0,0,167.35,115.46Z" transform="translate(-51.5 -52.02)"/><path class="cls-3" d="M151.09,182.43l-1.88-.67c6.42-18,22.19-35.79,25.29-39.18l.08-.09a4.18,4.18,0,0,0,.54-2.26l2,0a6,6,0,0,1-1.06,3.64l-.08.09C172.92,147.27,157.38,164.8,151.09,182.43Z" transform="translate(-51.5 -52.02)"/><path class="cls-3" d="M142.09,153.43a3.27,3.27,0,1,1,3.27-3.27A3.27,3.27,0,0,1,142.09,153.43Zm0-4.53a1.27,1.27,0,1,0,1.27,1.27A1.27,1.27,0,0,0,142.09,148.9Z" transform="translate(-51.5 -52.02)"/><path class="cls-3" d="M142.09,138.25a3.27,3.27,0,1,1,3.27-3.27A3.27,3.27,0,0,1,142.09,138.25Zm0-4.53a1.27,1.27,0,1,0,1.27,1.27A1.27,1.27,0,0,0,142.09,133.71Z" transform="translate(-51.5 -52.02)"/><path class="cls-3" d="M129.56,125.05a1.86,1.86,0,0,1-1.86-1.86V112.7a1.86,1.86,0,0,1,2.8-1.6l8.9,5.25a1.86,1.86,0,0,1,0,3.2l-8.9,5.25A1.86,1.86,0,0,1,129.56,125.05Zm.14-12.1v10l8.47-5Z" transform="translate(-51.5 -52.02)"/><path class="cls-3" d="M154.63,125.05a1.86,1.86,0,0,1-.94-.26l-8.9-5.25a1.86,1.86,0,0,1,0-3.2l8.9-5.25a1.86,1.86,0,0,1,2.8,1.6v10.49a1.86,1.86,0,0,1-1.86,1.86Zm-8.62-7.1,8.47,5V113Zm-.21-.12h0Z" transform="translate(-51.5 -52.02)"/><rect class="cls-3" x="88.04" y="64.93" width="5.33" height="2"/></svg>