<svg id="Слой_1" data-name="Слой 1" xmlns="http://www.w3.org/2000/svg" viewBox="0 0 180 180"><defs><style>.cls-1{fill:#1387a1;}.cls-2{opacity:0.5;}.cls-3{fill:#fff;}</style></defs><title>комп</title><circle class="cls-1" cx="90" cy="90" r="90"/><g class="cls-2"><path class="cls-3" d="M141.61,54.89a90,90,0,1,0,90,90A90,90,0,0,0,141.61,54.89Zm0,174.91a84.91,84.91,0,1,1,84.91-84.91A84.91,84.91,0,0,1,141.61,229.81Z" transform="translate(-51.61 -54.89)"/></g><circle class="cls-1" cx="153.36" cy="27.04" r="20.52"/><path class="cls-3" d="M207.22,87.45h-2.87V78.81h-3.23v-2h.34c1.86,0,3.15-.72,3.53-2.66h2.22Z" transform="translate(-51.61 -54.89)"/><g class="cls-2"><path class="cls-3" d="M205,61.41a20.52,20.52,0,1,0,20.52,20.52A20.52,20.52,0,0,0,205,61.41Zm0,38.33a17.81,17.81,0,1,1,17.81-17.81A17.81,17.81,0,0,1,205,99.74Z" transform="translate(-51.61 -54.89)"/></g><path class="cls-3" d="M180.78,169.27H102.45a3.84,3.84,0,0,1-3.83-3.83v-51.5a3.84,3.84,0,0,1,3.83-3.83h78.33a3.84,3.84,0,0,1,3.83,3.83v51.5A3.84,3.84,0,0,1,180.78,169.27ZM102.45,112.1a1.84,1.84,0,0,0-1.83,1.83v51.5a1.84,1.84,0,0,0,1.83,1.83h78.33a1.84,1.84,0,0,0,1.83-1.83v-51.5a1.84,1.84,0,0,0-1.83-1.83Z" transform="translate(-51.61 -54.89)"/><rect class="cls-3" x="48" y="101.67" width="84" height="2"/><path class="cls-3" d="M134.95,132.62H121.7V119.37h13.25Zm-11.25-2h9.25v-9.25H123.7Z" transform="translate(-51.61 -54.89)"/><rect class="cls-3" x="85.4" y="67.6" width="13.88" height="2"/><rect class="cls-3" x="85.4" y="71.79" width="24.94" height="2"/><path class="cls-3" d="M134.95,149.75H121.7V136.5h13.25Zm-11.25-2h9.25V138.5H123.7Z" transform="translate(-51.61 -54.89)"/><rect class="cls-3" x="85.4" y="84.73" width="16.5" height="2"/><rect class="cls-3" x="85.4" y="88.92" width="20.56" height="2"/><circle class="cls-3" cx="90.33" cy="107.71" r="2"/><polygon class="cls-3" points="97.65 124.15 95.64 118.88 85.02 118.88 83.02 124.15 81.15 123.44 83.64 116.88 97.02 116.88 99.52 123.44 97.65 124.15"/><rect class="cls-3" x="66.37" y="122.79" width="47.92" height="2"/></svg>