<svg id="Слой_1" data-name="Слой 1" xmlns="http://www.w3.org/2000/svg" viewBox="0 0 180 180"><defs><style>.cls-1{fill:#1387a1;}.cls-2{fill:#fff;}.cls-3{opacity:0.5;}</style></defs><title>часы</title><circle class="cls-1" cx="90" cy="90" r="90"/><path class="cls-2" d="M141.61,186.6a41.25,41.25,0,1,1,41.25-41.25A41.3,41.3,0,0,1,141.61,186.6Zm0-80.5a39.25,39.25,0,1,0,39.25,39.25A39.29,39.29,0,0,0,141.61,106.1Z" transform="translate(-51.61 -55.35)"/><path class="cls-2" d="M141.61,150.23a4.88,4.88,0,1,1,4.88-4.87A4.88,4.88,0,0,1,141.61,150.23Zm0-7.75a2.88,2.88,0,1,0,2.88,2.88A2.88,2.88,0,0,0,141.61,142.48Z" transform="translate(-51.61 -55.35)"/><rect class="cls-2" x="89" y="64.63" width="2" height="21.5"/><rect class="cls-2" x="151.97" y="142.67" width="2" height="18.48" transform="translate(-106.68 153.08) rotate(-60)"/><rect class="cls-2" x="89" y="121.18" width="2" height="3.24"/><rect class="cls-2" x="89" y="54.67" width="2" height="3.7"/><rect class="cls-2" x="157.12" y="172.07" width="2" height="3.73" transform="translate(-117.4 47.01) rotate(-30)"/><rect class="cls-2" x="123.97" y="114.93" width="2" height="3.2" transform="translate(-93.14 22.74) rotate(-30)"/><rect class="cls-2" x="169.31" y="159.73" width="2" height="3.47" transform="translate(-106.28 172.89) rotate(-60)"/><rect class="cls-2" x="111.81" y="126.65" width="2" height="3.23" transform="translate(-106.29 106.48) rotate(-60)"/><rect class="cls-2" x="121.28" y="88.54" width="3.6" height="2"/><rect class="cls-2" x="55.12" y="88.54" width="3.33" height="2"/><rect class="cls-2" x="168.37" y="127.38" width="3.69" height="2" transform="translate(-92.99 46.94) rotate(-29.99)"/><rect class="cls-2" x="111.19" y="160.52" width="3.23" height="2" transform="translate(-117.25 22.68) rotate(-29.99)"/><rect class="cls-2" x="156.25" y="115.3" width="3.73" height="2" transform="translate(-73.27 139.75) rotate(-60.01)"/><rect class="cls-2" x="123.37" y="172.71" width="3.2" height="2" transform="translate(-139.56 139.75) rotate(-60.01)"/><g class="cls-3"><path class="cls-2" d="M141.61,55.35a90,90,0,1,0,90,90A90,90,0,0,0,141.61,55.35Zm0,174.91a84.91,84.91,0,1,1,84.91-84.91A84.91,84.91,0,0,1,141.61,230.27Z" transform="translate(-51.61 -55.35)"/></g><circle class="cls-1" cx="153.36" cy="27.04" r="20.52"/><path class="cls-2" d="M209.72,87.91H200c.06-3.08,1.69-4.24,4.08-5.85,1.18-.8,2.87-1.65,2.87-3.29a1.8,1.8,0,0,0-1.9-1.92c-1.41,0-2.09.93-2.17,2.89h-2.58v-.29a4.56,4.56,0,0,1,4.84-4.94c2.68,0,4.52,1.65,4.52,4.07,0,2.15-1.18,3.1-2.75,4.18a12.84,12.84,0,0,0-3.46,2.81h6.29Z" transform="translate(-51.61 -55.35)"/><g class="cls-3"><path class="cls-2" d="M205,61.87a20.52,20.52,0,1,0,20.52,20.52A20.52,20.52,0,0,0,205,61.87Zm0,38.33a17.81,17.81,0,1,1,17.81-17.81A17.81,17.81,0,0,1,205,100.2Z" transform="translate(-51.61 -55.35)"/></g></svg>