<svg id="Слой_1" data-name="Слой 1" xmlns="http://www.w3.org/2000/svg" viewBox="0 0 180 180"><defs><style>.cls-1{fill:#1387a1;}.cls-2{opacity:0.5;}.cls-3{fill:#fff;}</style></defs><title>саламчики</title><circle class="cls-1" cx="90" cy="90" r="90"/><g class="cls-2"><path class="cls-3" d="M141.83,54.89a90,90,0,1,0,90,90A90,90,0,0,0,141.83,54.89Zm0,174.91a84.91,84.91,0,1,1,84.91-84.91A84.91,84.91,0,0,1,141.83,229.81Z" transform="translate(-51.83 -54.89)"/></g><circle class="cls-1" cx="153.36" cy="27.04" r="20.52"/><path class="cls-3" d="M205.12,74.06c2.62,0,4.43,1.48,4.43,3.65a2.57,2.57,0,0,1-1.86,2.62A3,3,0,0,1,210,83.38c0,2.53-2,4.31-4.94,4.31s-4.92-1.79-4.92-4.64v-.19h2.6c0,1.63.82,2.55,2.26,2.55a2,2,0,0,0,2.2-2c0-1.48-1.14-2-2.41-2-.29,0-.4,0-.67,0v-1.9a3.87,3.87,0,0,0,.46,0c1.56,0,2.32-.55,2.32-1.67a1.67,1.67,0,0,0-1.84-1.67c-1.25,0-2,.8-2,2.28h-2.56A4.26,4.26,0,0,1,205.12,74.06Z" transform="translate(-51.83 -54.89)"/><g class="cls-2"><path class="cls-3" d="M205.2,61.41a20.52,20.52,0,1,0,20.52,20.52A20.52,20.52,0,0,0,205.2,61.41Zm0,38.33A17.81,17.81,0,1,1,223,81.93,17.81,17.81,0,0,1,205.2,99.74Z" transform="translate(-51.83 -54.89)"/></g><path class="cls-3" d="M124.32,145.27c-2.17,0-3.6-.1-3.72-.11a1,1,0,1,1,.14-2,65.15,65.15,0,0,0,11.71-.41c4.24-.57,5.77-5.39,6.23-7.44a1.79,1.79,0,0,1,.94-1.21,1.76,1.76,0,0,1,1.52,0c.92.41,2.67,1.16,4,1.65,2.91,1,8.1,2.54,9,2.39.67-.33,2.66-3.63,3.08-4.62a2,2,0,0,0-.41-.33l-21.17-7.44c-2.69-.45-7.44-.72-9,.42-2.92,2.14-7.76.2-8,.12a1,1,0,0,1,.75-1.85c1.11.45,4.36,1.35,6,.12,2.76-2,9.8-.9,10.59-.76l.16,0,21.47,7.56c.92.49,1.86,1.47,1.48,2.62-.11.32-2.64,5.53-4.51,6.06s-10.12-2.41-10.2-2.44c-1.26-.45-2.79-1.1-3.92-1.6-.62,2.57-2.55,8-7.85,8.73A64.11,64.11,0,0,1,124.32,145.27Z" transform="translate(-51.83 -54.89)"/><path class="cls-3" d="M108.51,156.77l-14.39-5.06,11.36-32.3,14.39,5.06Zm-11.83-6.28,10.61,3.73,10-28.52L106.71,122Z" transform="translate(-51.83 -54.89)"/><path class="cls-3" d="M117.92,164.46l-.55,0a4.58,4.58,0,0,1-3.79-2.13,6.22,6.22,0,0,1-.11-5c.15-.34.47-1.06,11-6.77a1,1,0,0,1,1,1.76c-4.45,2.4-9.36,5.22-10.19,5.94a4.2,4.2,0,0,0,.06,3.1,2.7,2.7,0,0,0,2.26,1.15,3.91,3.91,0,0,0,2.15-.42l16.65-8.42a1,1,0,1,1,.9,1.79l-16.65,8.42A6,6,0,0,1,117.92,164.46Z" transform="translate(-51.83 -54.89)"/><path class="cls-3" d="M119.42,172.5l-.55,0a4.58,4.58,0,0,1-3.79-2.13,6.23,6.23,0,0,1-.11-5c.15-.35.48-1.07,11.2-6.54a1,1,0,1,1,.91,1.78,117.64,117.64,0,0,0-10.33,5.7,4.19,4.19,0,0,0,.06,3.1,2.7,2.7,0,0,0,2.26,1.14,3.92,3.92,0,0,0,2.15-.42l20.16-10.45a1,1,0,0,1,.92,1.78l-20.17,10.46A6,6,0,0,1,119.42,172.5Z" transform="translate(-51.83 -54.89)"/><path class="cls-3" d="M125,178.54l-.55,0a4.58,4.58,0,0,1-3.79-2.13,6.22,6.22,0,0,1-.11-5c.15-.35.48-1.07,11.33-6.66a1,1,0,1,1,.92,1.78c-4.56,2.35-9.6,5.1-10.46,5.82a4.19,4.19,0,0,0,.06,3.1,2.7,2.7,0,0,0,2.26,1.15,3.9,3.9,0,0,0,2.15-.42l18-9.41a1,1,0,1,1,.93,1.77l-18,9.42A6,6,0,0,1,125,178.54Z" transform="translate(-51.83 -54.89)"/><path class="cls-3" d="M134.36,182.5l-.55,0a4.58,4.58,0,0,1-3.79-2.13,6.22,6.22,0,0,1-.11-5c.15-.35.47-1.07,11.2-6.68a1,1,0,1,1,.93,1.77c-4.51,2.36-9.5,5.13-10.34,5.84a4.19,4.19,0,0,0,.06,3.1,2.7,2.7,0,0,0,2.26,1.15,3.93,3.93,0,0,0,2.15-.42l16.63-8.9c4.3-2.22,11.4-6,12.24-6.81.41-.38,1.44-1.16,3.23-2.51,2.32-1.75,7.11-5.35,7.73-6.3a1,1,0,0,1,1-.75,1,1,0,0,1,1,1c0,1-1.15,2.08-8.5,7.61-1.4,1.05-2.72,2-3.07,2.37-1.29,1.2-10.78,6.14-12.67,7.12l-16.64,8.91A6,6,0,0,1,134.36,182.5ZM176,155.75h0Z" transform="translate(-51.83 -54.89)"/><path class="cls-3" d="M177.17,157l-15.94-30.5,13.52-7.06,15.94,30.5ZM163.93,127.3l14.09,27L188,149l-14.09-27Z" transform="translate(-51.83 -54.89)"/></svg>