<svg id="Слой_1" data-name="Слой 1" xmlns="http://www.w3.org/2000/svg" viewBox="0 0 180 180"><defs><style>.cls-1{fill:#1387a1;}.cls-2{opacity:0.5;}.cls-3{fill:#fff;}</style></defs><title>рубль</title><circle class="cls-1" cx="90" cy="90" r="90"/><g class="cls-2"><path class="cls-3" d="M142.11,55.35a90,90,0,1,0,90,90A90,90,0,0,0,142.11,55.35Zm0,174.91A84.91,84.91,0,1,1,227,145.35,84.91,84.91,0,0,1,142.11,230.27Z" transform="translate(-52.11 -55.35)"/></g><circle class="cls-1" cx="153.36" cy="27.04" r="20.52"/><path class="cls-3" d="M210.43,84.85h-1.79v3.06h-2.51V84.85h-5.7V82.36l5.77-7.79h2.43v8h1.79Zm-4.29-7.18-3.53,4.94h3.53Z" transform="translate(-52.11 -55.35)"/><g class="cls-2"><path class="cls-3" d="M205.48,61.87A20.52,20.52,0,1,0,226,82.39,20.52,20.52,0,0,0,205.48,61.87Zm0,38.33a17.81,17.81,0,1,1,17.81-17.81A17.81,17.81,0,0,1,205.48,100.2Z" transform="translate(-52.11 -55.35)"/></g><path class="cls-3" d="M142.11,186a40.69,40.69,0,1,1,40.69-40.69A40.74,40.74,0,0,1,142.11,186Zm0-79.39a38.69,38.69,0,1,0,38.69,38.69A38.74,38.74,0,0,0,142.11,106.66Z" transform="translate(-52.11 -55.35)"/><path class="cls-3" d="M123.85,116.14l-1.06-1.69a36.34,36.34,0,0,1,19.33-5.54v2A34.34,34.34,0,0,0,123.85,116.14Z" transform="translate(-52.11 -55.35)"/><path class="cls-3" d="M142.75,181.79l0-2a34.29,34.29,0,0,0,18.44-5.73l1.11,1.67A36.3,36.3,0,0,1,142.75,181.79Z" transform="translate(-52.11 -55.35)"/><path class="cls-3" d="M147.45,147.41H133.28V127.57h14.17a9.92,9.92,0,1,1,0,19.83Zm-12.17-2h12.17a7.92,7.92,0,1,0,0-15.83H135.28Z" transform="translate(-52.11 -55.35)"/><polygon class="cls-3" points="83.17 107.95 81.17 107.95 81.17 92.06 76.06 92.06 76.06 90.06 83.17 90.06 83.17 107.95"/><rect class="cls-3" x="76.06" y="95.17" width="17.84" height="2"/></svg>