<svg id="Слой_1" data-name="Слой 1" xmlns="http://www.w3.org/2000/svg" viewBox="0 0 180 180"><defs><style>.cls-1{fill:#1387a1;}.cls-2{opacity:0.5;}.cls-3{fill:#fff;}</style></defs><title>ключ</title><circle class="cls-1" cx="90" cy="90" r="90"/><g class="cls-2"><path class="cls-3" d="M142.09,55.25a90,90,0,1,0,90,90A90,90,0,0,0,142.09,55.25Zm0,174.91A84.91,84.91,0,1,1,227,145.25,84.91,84.91,0,0,1,142.09,230.16Z" transform="translate(-52.09 -55.25)"/></g><path class="cls-3" d="M155.42,154.64A22.82,22.82,0,1,1,171.56,148,22.76,22.76,0,0,1,155.42,154.64Zm0-43.65a20.82,20.82,0,1,0,14.73,6.09A20.77,20.77,0,0,0,155.42,111Z" transform="translate(-52.09 -55.25)"/><path class="cls-3" d="M159.17,136.92a8.85,8.85,0,1,1,6.26-2.59A8.79,8.79,0,0,1,159.17,136.92Zm0-15.71a6.85,6.85,0,1,0,4.85,2A6.81,6.81,0,0,0,159.17,121.21Z" transform="translate(-52.09 -55.25)"/><circle class="cls-3" cx="142.06" cy="135.37" r="2.13" transform="translate(-106.2 84.85) rotate(-45)"/><circle class="cls-3" cx="146.96" cy="140.27" r="2.13" transform="translate(-108.24 89.75) rotate(-45)"/><circle class="cls-3" cx="151.87" cy="145.18" r="2.13" transform="translate(-110.27 94.66) rotate(-45)"/><polygon class="cls-3" points="67.18 126.26 53.84 126.26 53.84 112.52 82.35 84 83.77 85.42 55.84 113.34 55.84 124.26 65.18 124.26 65.18 116.64 73.9 116.64 76.02 108.2 82.49 108.2 82.49 101.54 86.6 97.43 92.97 99.61 95.97 96.61 97.39 98.03 93.5 101.91 87.13 99.72 84.49 102.36 84.49 110.2 77.58 110.2 75.46 118.64 67.18 118.64 67.18 126.26"/><rect class="cls-3" x="100.65" y="158.34" width="42.93" height="2" transform="translate(-128.99 77.76) rotate(-45)"/></svg>