<svg id="Слой_1" data-name="Слой 1" xmlns="http://www.w3.org/2000/svg" viewBox="0 0 180 180"><defs><style>.cls-1{fill:#1387a1;}.cls-2{opacity:0.5;}.cls-3{fill:#fff;}</style></defs><title>комп</title><circle class="cls-1" cx="90" cy="90" r="90"/><g class="cls-2"><path class="cls-3" d="M142.09,54.83a90,90,0,1,0,90,90A90,90,0,0,0,142.09,54.83Zm0,174.91A84.91,84.91,0,1,1,227,144.83,84.91,84.91,0,0,1,142.09,229.75Z" transform="translate(-52.09 -54.83)"/></g><path class="cls-3" d="M181.59,176.12H103.26a3.84,3.84,0,0,1-3.83-3.83v-51.5a3.84,3.84,0,0,1,3.83-3.83h78.33a3.84,3.84,0,0,1,3.83,3.83v51.5A3.84,3.84,0,0,1,181.59,176.12ZM103.26,119a1.84,1.84,0,0,0-1.83,1.83v51.5a1.84,1.84,0,0,0,1.83,1.83h78.33a1.84,1.84,0,0,0,1.83-1.83v-51.5a1.84,1.84,0,0,0-1.83-1.83Z" transform="translate(-52.09 -54.83)"/><rect class="cls-3" x="48.33" y="108.58" width="84" height="2"/><path class="cls-3" d="M136.42,150.21H123.17V137h13.25Zm-11.25-2h9.25V139h-9.25Z" transform="translate(-52.09 -54.83)"/><rect class="cls-3" x="86.4" y="85.25" width="13.88" height="2"/><rect class="cls-3" x="86.4" y="89.44" width="24.94" height="2"/><circle class="cls-3" cx="90.67" cy="114.62" r="2"/><polygon class="cls-3" points="97.98 131.06 95.98 125.79 85.36 125.79 83.35 131.06 81.48 130.35 83.98 123.79 97.36 123.79 99.85 130.35 97.98 131.06"/><rect class="cls-3" x="66.71" y="129.71" width="47.92" height="2"/></svg>