<svg id="Слой_1" data-name="Слой 1" xmlns="http://www.w3.org/2000/svg" viewBox="0 0 180 180"><defs><style>.cls-1{fill:#1387a1;}.cls-2{opacity:0.5;}.cls-3{fill:#fff;}</style></defs><title>ползунки</title><circle class="cls-1" cx="90" cy="90" r="90"/><g class="cls-2"><path class="cls-3" d="M142.09,55.08a90,90,0,1,0,90,90A90,90,0,0,0,142.09,55.08Zm0,174.91A84.91,84.91,0,1,1,227,145.08,84.91,84.91,0,0,1,142.09,230Z" transform="translate(-52.09 -55.08)"/></g><path class="cls-3" d="M118.16,131.76H108a3,3,0,0,1-3-3v-.67a3,3,0,0,1,3-3h10.19v2H108a1,1,0,0,0-1,1v.67a1,1,0,0,0,1,1h10.19Z" transform="translate(-52.09 -55.08)"/><path class="cls-3" d="M176.22,131.76H135.86v-2h40.36a1,1,0,0,0,1-1v-.67a1,1,0,0,0-1-1h-40v-2h40a3,3,0,0,1,3,3v.67A3,3,0,0,1,176.22,131.76Z" transform="translate(-52.09 -55.08)"/><path class="cls-3" d="M127,138.55a10.17,10.17,0,1,1,10.17-10.17A10.18,10.18,0,0,1,127,138.55Zm0-18.33a8.17,8.17,0,1,0,8.17,8.17A8.18,8.18,0,0,0,127,120.22Z" transform="translate(-52.09 -55.08)"/><path class="cls-3" d="M176.22,165.15H166v-2h10.19a1,1,0,0,0,1-1v-.67a1,1,0,0,0-1-1H166v-2h10.19a3,3,0,0,1,3,3v.67A3,3,0,0,1,176.22,165.15Z" transform="translate(-52.09 -55.08)"/><path class="cls-3" d="M148,165.15H108a3,3,0,0,1-3-3v-.67a3,3,0,0,1,3-3h40.36v2H108a1,1,0,0,0-1,1v.67a1,1,0,0,0,1,1h40Z" transform="translate(-52.09 -55.08)"/><path class="cls-3" d="M157.17,171.94a10.17,10.17,0,1,1,10.17-10.17A10.18,10.18,0,0,1,157.17,171.94Zm0-18.33a8.17,8.17,0,1,0,8.17,8.17A8.18,8.18,0,0,0,157.17,153.61Z" transform="translate(-52.09 -55.08)"/></svg>