<?xml version="1.0" encoding="utf-8"?>
<!-- Generator: Adobe Illustrator 21.1.0, SVG Export Plug-In . SVG Version: 6.00 Build 0)  -->
<svg version="1.1" id="Слой_1" xmlns="http://www.w3.org/2000/svg" xmlns:xlink="http://www.w3.org/1999/xlink" x="0px" y="0px"
	 viewBox="0 0 18 25.6" style="enable-background:new 0 0 18 25.6;" xml:space="preserve">
<style type="text/css">
	.st0{fill:#C8CBCF;}
</style>
<title>белый замок</title>
<path class="st0" d="M16,25.6H1.9c-1.1,0-2-0.9-2-2v-10c0-1.1,0.9-2,2-2h14c1.1,0,2,0.9,2,2v10C17.9,24.7,17.1,25.6,16,25.6z
	 M16,13.6H2v10h14V13.6z"/>
<path class="st0" d="M15.2,13.6H2.8V6.2C2.8,2.8,5.6,0,9,0c3.4,0,6.2,2.8,6.2,6.2V13.6z M4.8,11.6h8.4V6.2C13.2,3.9,11.3,2,9,2
	C6.7,2,4.8,3.9,4.8,6.2V11.6z"/>
<rect x="8.1" y="16.6" class="st0" width="1.8" height="3.9"/>
</svg>
