<svg id="Слой_1" data-name="Слой 1" xmlns="http://www.w3.org/2000/svg" viewBox="0 0 36 36"><defs><style>.cls-1{fill:#c8cace;}</style></defs><title>exit</title><path class="cls-1" d="M549.62,353.5a.88.88,0,0,1,.88.88v30.24a.88.88,0,0,1-.88.88H519.38a.88.88,0,0,1-.88-.88V375.5h12v6.16l3.25-2.6,10-8,2-1.56-2-1.56-10-8-3.25-2.6v6.16h-12v-9.12a.88.88,0,0,1,.88-.88h30.24m0-2H519.38a2.88,2.88,0,0,0-2.88,2.88V365.5h16v-4l10,8-10,8v-4h-16v11.12a2.88,2.88,0,0,0,2.88,2.88h30.24a2.88,2.88,0,0,0,2.88-2.88V354.38a2.88,2.88,0,0,0-2.88-2.88Z" transform="translate(-516.5 -351.5)"/></svg>