<svg id="Слой_1" data-name="Слой 1" xmlns="http://www.w3.org/2000/svg" xmlns:xlink="http://www.w3.org/1999/xlink" viewBox="0 0 570.54 142.03"><defs><style>.cls-1{fill:url(#Безымянный_градиент_2);}.cls-2{fill:#4e86a0;}.cls-3{fill:#292929;}.cls-4{fill:#4e87a0;}</style><linearGradient id="Безымянный_градиент_2" x1="563.23" y1="316.98" x2="600.58" y2="316.98" gradientTransform="matrix(1, 0, 0, -1, -112.75, 655.36)" gradientUnits="userSpaceOnUse"><stop offset="0.29" stop-color="#fff"/><stop offset="0.34" stop-color="#f7f9fa"/><stop offset="0.44" stop-color="#e0eaee"/><stop offset="0.55" stop-color="#bad0da"/><stop offset="0.69" stop-color="#87adbe"/><stop offset="0.82" stop-color="#4e86a0"/></linearGradient></defs><title>logo</title><path class="cls-1" d="M485.2,341.91h-.26c-9.28-.95-20.32-1.58-31.89-1.84a2.63,2.63,0,1,1,0-5.26h0c11.7.26,22.87.92,32.31,1.87a2.63,2.63,0,1,1-.26,5.26Z" transform="translate(-365.4 -283)"/><path class="cls-2" d="M508.34,425H373a7.54,7.54,0,0,1-7.54-7.54v-69a7,7,0,0,1,0-1,3.71,3.71,0,0,1,0-.71,5.26,5.26,0,0,1,3.18-4.42,7.47,7.47,0,0,1,2.63-1.24,85.7,85.7,0,0,1,17-3.6,2.65,2.65,0,0,1,.71,5.26,80.68,80.68,0,0,0-16,3.36h-.45a2.26,2.26,0,0,0-.92.42l-.32.21-.34.21h0l-.21.87a2.39,2.39,0,0,0,0,.53v69.08a2.29,2.29,0,0,0,2.29,2.29H508.34a2.29,2.29,0,0,0,2.31-2.26v-69a2.34,2.34,0,0,0,0-.53l-.21-.87h0l-.34-.21-.32-.21a2.26,2.26,0,0,0-.95-.45h-.45A108.2,108.2,0,0,0,485,342a2.64,2.64,0,0,1,.53-5.26A118.85,118.85,0,0,1,510,341.2a7.49,7.49,0,0,1,2.63,1.24,5.26,5.26,0,0,1,3.15,4.42,3.68,3.68,0,0,1,0,.71,7.26,7.26,0,0,1,0,1v68.93A7.54,7.54,0,0,1,508.34,425Z" transform="translate(-365.4 -283)"/><path class="cls-2" d="M437.89,383.42a183.06,183.06,0,0,1-71-13.72l2.05-4.84a177.73,177.73,0,0,0,68.85,13.3A174.49,174.49,0,0,0,512,362.39l2.26,4.76A179.73,179.73,0,0,1,437.89,383.42Z" transform="translate(-365.4 -283)"/><path class="cls-2" d="M440.65,360.34A142.42,142.42,0,0,1,379.19,347a4.21,4.21,0,0,1,1-7.89l6.36-1.21,1,5.26-3.1.58a143.24,143.24,0,0,0,112.35,0l-8.41-1.42.87-5.26,11.8,2a4.21,4.21,0,0,1,1.1,7.89A142.53,142.53,0,0,1,440.65,360.34Z" transform="translate(-365.4 -283)"/><circle class="cls-2" cx="55.19" cy="50.21" r="24.47"/><path class="cls-2" d="M453.95,283a24.45,24.45,0,0,0-24.42,23.32,24.45,24.45,0,0,1,20.19,24.08v1.16A24.45,24.45,0,1,0,454,283Z" transform="translate(-365.4 -283)"/><rect class="cls-2" x="69.15" y="81.81" width="12.64" height="7.2" rx="2.44" ry="2.44"/><path class="cls-3" d="M604.52,404h-5.07V370.46c0-5.85.23-11.62.62-17.47-1.09,3.35-2.34,6.79-3.67,10.06L580,404h-4.76l-16.62-40.48c-1.4-3.35-2.57-6.79-3.67-10.22.39,5.69.62,11.31.62,17V404h-5.07V348.46h7.18l16.15,39.63c1.4,3.43,2.57,6.94,3.82,10.45,1.25-3.43,2.34-6.94,3.67-10.3l15.91-39.78h7.25Z" transform="translate(-365.4 -283)"/><path class="cls-3" d="M619.65,356.26h-4.92v-8h4.92Zm0,47.74h-4.92V363.91h4.92Z" transform="translate(-365.4 -283)"/><path class="cls-3" d="M645.78,405.17c-11.23,0-18.57-8.19-18.57-20.83,0-13.1,7.41-21.61,18.72-21.61,9.28,0,15.37,5.15,16.46,13.81h-5c-1.25-6.32-5.23-9.75-11.39-9.75-8.42,0-13.73,6.71-13.73,17.16s5.15,17.16,13.26,17.16c6.71,0,11.23-4.21,12.25-11.47h4.91C661.38,398.77,655.45,405.17,645.78,405.17Z" transform="translate(-365.4 -283)"/><path class="cls-3" d="M690.08,368.27c-.55,0-1-.08-1.33-.08A13,13,0,0,0,676,377.71c-.62,2.42-.94,4.76-.94,9.91V404h-4.84V363.91h4.6v9.59c3.35-7.33,7.18-10.06,15.29-10.22Z" transform="translate(-365.4 -283)"/><path class="cls-3" d="M728.69,384.11c0,12.95-7.25,21.06-18.88,21.06S690.7,396.9,690.7,384s7.49-21.22,19.11-21.22S728.69,371,728.69,384.11Zm-33-.16c0,10.53,5.38,17.16,14.2,17.16,8.5,0,13.88-6.63,13.88-17.08s-5.46-17.16-14-17.16S695.7,373.58,695.7,384Z" transform="translate(-365.4 -283)"/><path class="cls-4" d="M758.41,348.46c6.86,0,12.87.94,18.17,5.69s8.19,12.25,8.19,21.14c0,8.27-1.79,16.54-7.8,22.54-4.6,4.6-9.28,6.16-18,6.16H737.27V348.46Zm-11.47,47.35h11.47c13,0,16.61-8.66,16.61-20s-5.07-19-17.24-19H746.94Z" transform="translate(-365.4 -283)"/><path class="cls-4" d="M810.2,405.33c-12.4,0-19.81-9-19.81-21,0-12.64,8.19-21.76,19.5-21.76,11.78,0,19.11,8.66,19.11,22.54v.94H799.28c.23,8.11,4.21,12.71,11.08,12.71,4.91,0,7.8-2.18,9.59-7.33h8.5C826.42,400.26,819.25,405.33,810.2,405.33Zm-.39-36.12c-5.85,0-9.52,3.82-10.37,10.92H820.1C819.56,373.34,815.66,369.21,809.81,369.21Z" transform="translate(-365.4 -283)"/><path class="cls-4" d="M844.28,369.68c3.35-4.84,7.33-7,13.34-7,9.28,0,13.65,5.38,13.65,14.51V404h-8.89V380.6c0-5.54-.7-10.53-7.8-10.53-5.38,0-9.83,3-9.83,12.25V404h-8.89V363.75h8.42Z" transform="translate(-365.4 -283)"/><path class="cls-4" d="M917.45,399.32c0,13.26-4.84,20.36-19.34,20.36-10.92,0-17-4.06-18-12.25H889c.86,4.13,3.74,6,9.36,6,7.41,0,10.61-3.59,10.61-11.86v-4.76c-3,4.76-7,6.79-12.79,6.79-10.69,0-17.47-7.8-17.47-20,0-12.64,7.1-20.91,17.94-20.91,5.85,0,9.36,2.18,12.56,6.71v-5.62h8.27Zm-30-15.91c0,8.11,4.21,13.26,10.69,13.26,6.63,0,10.76-5.3,10.76-13.73,0-8.19-4.06-13.1-10.76-13.1S887.5,374.9,887.5,383.41Z" transform="translate(-365.4 -283)"/><path class="cls-4" d="M935.93,357H927v-8.74h8.89Zm0,47H927V363.75h8.89Z" transform="translate(-365.4 -283)"/></svg>