<svg id="Слой_1" data-name="Слой 1" xmlns="http://www.w3.org/2000/svg" viewBox="0 0 49.75 49.75"><defs><style>.cls-1{fill:#f0f5f8;}.cls-2{fill:#0583ae;}</style></defs><title>письмо</title><circle class="cls-1" cx="24.88" cy="24.88" r="24.88"/><path class="cls-2" d="M151.89,136l11.47-9.66a.29.29,0,0,0-.19-.52h-22.8a.29.29,0,0,0-.19.52L151.65,136A.18.18,0,0,0,151.89,136Z" transform="translate(-126.89 -109.96)"/><path class="cls-2" d="M153.17,136.81a2.17,2.17,0,0,1-2.79,0l-11.19-9.41-.31.14V142.2a1.64,1.64,0,0,0,1.64,1.64H163a1.64,1.64,0,0,0,1.64-1.64V127.55l-.31-.14Z" transform="translate(-126.89 -109.96)"/></svg>