<svg id="Слой_1" data-name="Слой 1" xmlns="http://www.w3.org/2000/svg" viewBox="0 0 80 80"><defs><style>.cls-1,.cls-2{fill:#c8cace;}.cls-2{fill-rule:evenodd;}</style></defs><title>acc icon 2</title><path class="cls-1" d="M490.5,312.5a38,38,0,1,1-38,38,38,38,0,0,1,38-38m0-2a40,40,0,1,0,40,40,40,40,0,0,0-40-40Z" transform="translate(-450.5 -310.5)"/><path class="cls-2" d="M492.75,350.4l9.28,9.39a1.56,1.56,0,0,1,0,2.19,1.52,1.52,0,0,1-2.17,0l-9.29-9.4L481.14,362a1.55,1.55,0,0,1-2.2-2.2l9.44-9.44-9.14-9.24a1.56,1.56,0,0,1,0-2.19,1.52,1.52,0,0,1,2.17,0l9.15,9.25,9.25-9.25a1.55,1.55,0,1,1,2.2,2.2Z" transform="translate(-450.5 -310.5)"/></svg>