<svg id="Слой_1" data-name="Слой 1" xmlns="http://www.w3.org/2000/svg" viewBox="0 0 180 180"><defs><style>.cls-1{fill:#1387a1;}.cls-2{opacity:0.5;}.cls-3{fill:#fff;}</style></defs><title>смартфон</title><circle class="cls-1" cx="90" cy="90" r="90"/><g class="cls-2"><path class="cls-3" d="M141.6,55.33a90,90,0,1,0,90,90A90,90,0,0,0,141.6,55.33Zm0,174.91a84.91,84.91,0,1,1,84.91-84.91A84.91,84.91,0,0,1,141.6,230.25Z" transform="translate(-51.6 -55.33)"/></g><path class="cls-3" d="M164.5,195.5H120.67a5.17,5.17,0,0,1-5.17-5.17v-90a5.17,5.17,0,0,1,5.17-5.17H164.5a5.17,5.17,0,0,1,5.17,5.17v90A5.17,5.17,0,0,1,164.5,195.5ZM120.67,97.17a3.17,3.17,0,0,0-3.17,3.17v90a3.17,3.17,0,0,0,3.17,3.17H164.5a3.17,3.17,0,0,0,3.17-3.17v-90a3.17,3.17,0,0,0-3.17-3.17Z" transform="translate(-51.6 -55.33)"/><rect class="cls-3" x="64.9" y="52.83" width="52.17" height="2"/><rect class="cls-3" x="78.31" y="46.92" width="3.92" height="2"/><rect class="cls-3" x="85.46" y="46.92" width="12" height="2"/><rect class="cls-3" x="65.37" y="123.83" width="52.17" height="2"/><path class="cls-3" d="M143.06,191.64a4.14,4.14,0,1,1,4.14-4.14A4.14,4.14,0,0,1,143.06,191.64Zm0-6.27a2.14,2.14,0,1,0,2.14,2.14A2.14,2.14,0,0,0,143.06,185.36Z" transform="translate(-51.6 -55.33)"/></svg>