<svg id="Слой_1" data-name="Слой 1" xmlns="http://www.w3.org/2000/svg" viewBox="0 0 20 23"><defs><style>.cls-1{fill:#fff;}</style></defs><title>tick</title><path class="cls-1" d="M531.16,368.89a.58.58,0,0,0-.82,0,.57.57,0,0,0,0,.81l2.62,2.62a.58.58,0,0,0,.82,0l4.89-4.83a.57.57,0,0,0,0-.81.59.59,0,0,0-.82,0l-4.47,4.42Zm13-7.45-9.42-3.89a.57.57,0,0,0-.45,0l-9.42,3.89a.57.57,0,0,0-.36.53v8.63a10,10,0,0,0,20,0V362A.58.58,0,0,0,544.14,361.44Zm-.81,9.16a8.84,8.84,0,0,1-17.67,0v-8.24l8.84-3.65,8.84,3.65Z" transform="translate(-524.5 -357.5)"/></svg>