<svg id="Слой_1" data-name="Слой 1" xmlns="http://www.w3.org/2000/svg" viewBox="0 0 180 180"><defs><style>.cls-1{fill:#fff;}.cls-2{fill:#a1bfca;}.cls-3{fill:#4f87a0;}.cls-4{fill:#1387a1;}</style></defs><title>ключ</title><circle class="cls-1" cx="90" cy="90" r="90"/><circle class="cls-2" cx="152.92" cy="26.2" r="20"/><path class="cls-2" d="M152.49,44.43a90,90,0,1,0,90,90A90,90,0,0,0,152.49,44.43Zm0,174.91a84.91,84.91,0,1,1,84.91-84.91A84.91,84.91,0,0,1,152.49,219.35Z" transform="translate(-62.49 -44.43)"/><circle class="cls-1" cx="152.7" cy="26.2" r="17.92"/><path class="cls-3" d="M166.56,144.81a22.82,22.82,0,1,1,16.15-6.68h0A22.77,22.77,0,0,1,166.56,144.81Zm0-43.65a20.82,20.82,0,1,0,14.73,6.09A20.77,20.77,0,0,0,166.56,101.16Z" transform="translate(-62.49 -44.43)"/><path class="cls-3" d="M170.31,127.08a8.85,8.85,0,1,1,6.26-2.59h0A8.79,8.79,0,0,1,170.31,127.08Zm0-15.71a6.85,6.85,0,1,0,4.85,11.7h0a6.85,6.85,0,0,0-4.85-11.7Z" transform="translate(-62.49 -44.43)"/><circle class="cls-3" cx="153.2" cy="125.53" r="2.13" transform="translate(-106.38 100.66) rotate(-45)"/><circle class="cls-3" cx="158.1" cy="130.44" r="2.13" transform="translate(-108.41 105.57) rotate(-45)"/><circle class="cls-3" cx="163.01" cy="135.35" r="2.13" transform="translate(-110.45 110.48) rotate(-45)"/><polygon class="cls-3" points="67.92 127.25 54.59 127.25 54.59 113.5 83.1 84.99 84.51 86.4 56.59 114.33 56.59 125.25 65.92 125.25 65.92 117.62 74.64 117.62 76.77 109.18 83.24 109.18 83.24 102.52 87.35 98.41 93.72 100.6 96.72 97.6 98.14 99.01 94.25 102.89 87.88 100.71 85.24 103.35 85.24 111.18 78.33 111.18 76.2 119.62 67.92 119.62 67.92 127.25"/><rect class="cls-3" x="111.79" y="148.5" width="42.93" height="2" transform="translate(-129.17 93.58) rotate(-45)"/><path class="cls-4" d="M217.43,76.16h-2.87V67.51h-3.23v-2h.34c1.86,0,3.15-.72,3.53-2.66h2.22Z" transform="translate(-62.49 -44.43)"/></svg>