<svg id="Слой_1" data-name="Слой 1" xmlns="http://www.w3.org/2000/svg" viewBox="0 0 180 180"><defs><style>.cls-1{fill:#fff;}.cls-2{fill:#a1bfca;}.cls-3{fill:#1387a1;}.cls-4{fill:#4f87a0;}</style></defs><title>комп</title><circle class="cls-1" cx="90" cy="90" r="90"/><circle class="cls-2" cx="152.92" cy="26.2" r="20"/><path class="cls-2" d="M141.49,55.35a90,90,0,1,0,90,90A90,90,0,0,0,141.49,55.35Zm0,174.91a84.91,84.91,0,1,1,84.91-84.91A84.91,84.91,0,0,1,141.49,230.26Z" transform="translate(-51.49 -55.35)"/><circle class="cls-1" cx="152.7" cy="26.2" r="17.92"/><path class="cls-3" d="M208.94,87.07h-9.75c.06-3.08,1.69-4.24,4.08-5.85,1.18-.8,2.87-1.65,2.87-3.29a1.8,1.8,0,0,0-1.9-1.92c-1.41,0-2.09.93-2.17,2.89H199.5v-.29a4.56,4.56,0,0,1,4.84-4.94c2.68,0,4.52,1.65,4.52,4.07,0,2.15-1.18,3.1-2.75,4.18a12.84,12.84,0,0,0-3.46,2.81h6.29Z" transform="translate(-51.49 -55.35)"/><path class="cls-4" d="M181.57,167.59H103.24a3.84,3.84,0,0,1-3.83-3.83v-51.5a3.84,3.84,0,0,1,3.83-3.83h78.33a3.84,3.84,0,0,1,3.83,3.83v51.5A3.84,3.84,0,0,1,181.57,167.59Zm-78.33-57.17a1.84,1.84,0,0,0-1.83,1.83v51.5a1.84,1.84,0,0,0,1.83,1.83h78.33a1.84,1.84,0,0,0,1.83-1.83v-51.5a1.84,1.84,0,0,0-1.83-1.83Z" transform="translate(-51.49 -55.35)"/><rect class="cls-4" x="48.92" y="99.54" width="84" height="2"/><path class="cls-4" d="M135.74,130.95H122.49V117.7h13.25Zm-11.25-2h9.25V119.7h-9.25Z" transform="translate(-51.49 -55.35)"/><rect class="cls-4" x="86.31" y="65.48" width="13.88" height="2"/><rect class="cls-4" x="86.31" y="69.66" width="24.94" height="2"/><path class="cls-4" d="M135.74,148.07H122.49V134.82h13.25Zm-11.25-2h9.25v-9.25h-9.25Z" transform="translate(-51.49 -55.35)"/><rect class="cls-4" x="86.31" y="82.6" width="16.5" height="2"/><rect class="cls-4" x="86.31" y="86.79" width="20.56" height="2"/><circle class="cls-4" cx="91.25" cy="105.58" r="2"/><polygon class="cls-4" points="98.56 122.02 96.56 116.75 85.94 116.75 83.94 122.02 82.07 121.31 84.56 114.75 97.94 114.75 100.43 121.31 98.56 122.02"/><rect class="cls-4" x="67.29" y="120.66" width="47.92" height="2"/></svg>