<svg id="Слой_1" data-name="Слой 1" xmlns="http://www.w3.org/2000/svg" viewBox="0 0 180 180"><defs><style>.cls-1{fill:#fff;}.cls-2{fill:#a1bfca;}.cls-3{fill:#1387a1;}.cls-4{fill:#4f87a0;}</style></defs><title>ползунки</title><circle class="cls-1" cx="90" cy="90" r="90"/><circle class="cls-2" cx="152.92" cy="26.2" r="20"/><path class="cls-2" d="M142,55.35a90,90,0,1,0,90,90A90,90,0,0,0,142,55.35Zm0,174.91a84.91,84.91,0,1,1,84.91-84.91A84.91,84.91,0,0,1,142,230.26Z" transform="translate(-51.99 -55.35)"/><circle class="cls-1" cx="152.7" cy="26.2" r="17.92"/><path class="cls-3" d="M204.61,73.68c2.62,0,4.43,1.48,4.43,3.65a2.57,2.57,0,0,1-1.86,2.62A3,3,0,0,1,209.53,83c0,2.53-2,4.31-4.94,4.31s-4.92-1.79-4.92-4.64v-.19h2.6c0,1.63.82,2.55,2.26,2.55a2,2,0,0,0,2.2-2c0-1.48-1.14-2-2.41-2-.29,0-.4,0-.67,0v-1.9a3.87,3.87,0,0,0,.46,0c1.56,0,2.32-.55,2.32-1.67a1.67,1.67,0,0,0-1.84-1.67c-1.25,0-2,.8-2,2.28H200A4.26,4.26,0,0,1,204.61,73.68Z" transform="translate(-51.99 -55.35)"/><path class="cls-4" d="M118.05,132H107.86a3,3,0,0,1-3-3v-.67a3,3,0,0,1,3-3h10.19v2H107.86a1,1,0,0,0-1,1V129a1,1,0,0,0,1,1h10.19Z" transform="translate(-51.99 -55.35)"/><path class="cls-4" d="M176.11,132H135.75v-2h40.36a1,1,0,0,0,1-1v-.67a1,1,0,0,0-1-1h-40v-2h40a3,3,0,0,1,3,3V129A3,3,0,0,1,176.11,132Z" transform="translate(-51.99 -55.35)"/><path class="cls-4" d="M126.9,138.82a10.17,10.17,0,1,1,10.17-10.17A10.18,10.18,0,0,1,126.9,138.82Zm0-18.33a8.17,8.17,0,1,0,8.17,8.17A8.18,8.18,0,0,0,126.9,120.48Z" transform="translate(-51.99 -55.35)"/><path class="cls-4" d="M176.11,165.42H165.92v-2h10.19a1,1,0,0,0,1-1v-.67a1,1,0,0,0-1-1H165.92v-2h10.19a3,3,0,0,1,3,3v.67A3,3,0,0,1,176.11,165.42Z" transform="translate(-51.99 -55.35)"/><path class="cls-4" d="M147.9,165.42h-40a3,3,0,0,1-3-3v-.67a3,3,0,0,1,3-3h40.36v2H107.86a1,1,0,0,0-1,1v.67a1,1,0,0,0,1,1h40Z" transform="translate(-51.99 -55.35)"/><path class="cls-4" d="M157.07,172.21A10.17,10.17,0,1,1,167.24,162,10.18,10.18,0,0,1,157.07,172.21Zm0-18.33a8.17,8.17,0,1,0,8.17,8.17A8.18,8.18,0,0,0,157.07,153.87Z" transform="translate(-51.99 -55.35)"/></svg>