<svg id="Слой_1" data-name="Слой 1" xmlns="http://www.w3.org/2000/svg" viewBox="0 0 180 180"><defs><style>.cls-1{fill:#fff;}.cls-2{fill:#a1bfca;}.cls-3{fill:#1387a1;}.cls-4{fill:#4f87a0;}</style></defs><title>рубль</title><circle class="cls-1" cx="90" cy="90" r="90"/><circle class="cls-2" cx="152.92" cy="26.2" r="20"/><path class="cls-2" d="M141.82,55.35a90,90,0,1,0,90,90A90,90,0,0,0,141.82,55.35Zm0,174.91a84.91,84.91,0,1,1,84.91-84.91A84.91,84.91,0,0,1,141.82,230.26Z" transform="translate(-51.82 -55.35)"/><circle class="cls-1" cx="152.7" cy="26.2" r="17.92"/><path class="cls-3" d="M209.48,84h-1.79v3.06h-2.51V84h-5.7V81.52l5.78-7.79h2.43v8h1.79Zm-4.29-7.18-3.53,4.94h3.53Z" transform="translate(-51.82 -55.35)"/><path class="cls-4" d="M141.82,186a40.69,40.69,0,1,1,40.69-40.69A40.74,40.74,0,0,1,141.82,186Zm0-79.39a38.69,38.69,0,1,0,38.69,38.69A38.74,38.74,0,0,0,141.82,106.65Z" transform="translate(-51.82 -55.35)"/><path class="cls-4" d="M123.56,116.14l-1.06-1.69a36.34,36.34,0,0,1,19.32-5.54v2A34.35,34.35,0,0,0,123.56,116.14Z" transform="translate(-51.82 -55.35)"/><path class="cls-4" d="M142.46,181.78l0-2a34.3,34.3,0,0,0,18.44-5.73l1.11,1.67A36.31,36.31,0,0,1,142.46,181.78Z" transform="translate(-51.82 -55.35)"/><path class="cls-4" d="M147.15,147.4H133V127.57h14.17a9.92,9.92,0,1,1,0,19.83Zm-12.17-2h12.17a7.92,7.92,0,1,0,0-15.83H135Z" transform="translate(-51.82 -55.35)"/><polygon class="cls-4" points="83.17 107.95 81.17 107.95 81.17 92.06 76.06 92.06 76.06 90.06 83.17 90.06 83.17 107.95"/><rect class="cls-4" x="76.06" y="95.17" width="17.84" height="2"/></svg>