<svg xmlns="http://www.w3.org/2000/svg" id="Слой_1" viewBox="0 0 148 30"><style>.st0{enable-background:new}.st1{fill:#ff5f00}.st2{fill:#2c2c2c}</style><g class="st0"><path class="st1" d="M13.3 13.9c0 .5-.1 1-.3 1.5s-.4.8-.7 1.2-.7.6-1.1.8-.9.4-1.4.5v.1c1.3.2 2.3.6 3 1.3.7.7 1 1.6 1 2.6 0 .7-.1 1.4-.4 2-.2.6-.6 1.1-1.1 1.5-.5.4-1.1.8-1.9 1-.7.2-1.6.4-2.6.4-.8 0-1.6-.1-2.3-.2s-1.4-.4-2-.7V24c.6.3 1.3.6 2.1.8.8.1 1.5.2 2.2.2.7 0 1.3-.1 1.8-.2s.9-.4 1.2-.6c.3-.3.6-.6.7-1 .2-.4.2-.9.2-1.4 0-.5-.1-.9-.3-1.3s-.5-.7-.8-.9c-.4-.2-.8-.4-1.3-.5-.5-.1-1.1-.2-1.8-.2H6v-1.7h1.5c.6 0 1.1-.1 1.6-.2s.9-.4 1.2-.6c.3-.3.6-.6.7-1s.2-.8.2-1.3c0-.4-.1-.7-.2-1-.1-.3-.3-.6-.6-.8-.2-.2-.5-.4-.9-.5-.3-.1-.7-.2-1.1-.2-.8 0-1.5.1-2.1.4s-1.2.6-1.7 1l-1-1.4.9-.6c.3-.2.7-.4 1.1-.5.4-.2.8-.3 1.3-.4.5-.1 1-.1 1.5-.1.8 0 1.5.1 2.1.3.6.2 1.1.5 1.5.8.4.4.7.8.9 1.3.3.4.4 1 .4 1.5z"/></g><g class="st0"><path class="st2" d="M27.5 26.5l-2-5.1h-6.4l-1.9 5.1h-2.1l6.3-16.4h1.8l6.3 16.4h-2zm-2.6-6.9l-1.8-5-.8-2.4c-.2.9-.5 1.7-.7 2.4l-1.8 5h5.1zm7-9.5h1.9v9c0 .6 0 1.5-.1 2.5 0 1-.1 1.7-.1 2h.1l8.9-13.5h2.3v16.4H43v-8.9c0-.8 0-1.7.1-2.7s.1-1.7.1-2h-.1l-8.9 13.6h-2.3V10.1zm6.7-1.3c-1.4 0-2.5-.3-3.1-.8-.6-.5-1-1.4-1.1-2.7h1.9c.1.8.3 1.3.6 1.6.3.3.9.5 1.8.5.8 0 1.3-.2 1.7-.5.4-.3.6-.9.7-1.6H43c-.1 1.2-.5 2.1-1.2 2.6s-1.8.9-3.2.9zm17.8 17.7l-5.3-14.3H51c.1 1.2.2 2.7.2 4.4v9.9h-1.9V10.1h3l5 13.4h.1l5.1-13.4h3v16.4h-2V16.4c0-1.1.1-2.5.2-4.3h-.1l-5.4 14.3h-1.8zm24-4.8c0 1.5-.5 2.7-1.5 3.6-1 .8-2.4 1.2-4.3 1.2h-4.8V10.1h2V17h2.5c2 0 3.4.4 4.5 1.2 1.1.8 1.6 1.9 1.6 3.5zm-8.5 3h2.6c1.3 0 2.3-.3 2.9-.8.6-.5.9-1.3.9-2.3 0-1-.3-1.7-1-2.2s-1.7-.7-3.1-.7h-2.3v6zM85 26.5h-2.1V10.1H85v16.4z"/></g><g class="st0"><path class="st2" d="M97 16.5c0-1.1.1-2.1.2-3.2s.3-2.1.6-3c.3-1 .6-1.9 1.1-2.7.5-.8 1.1-1.6 1.8-2.2.7-.6 1.6-1.1 2.6-1.5s2.2-.5 3.5-.5h.6c.2 0 .5 0 .7.1s.5.1.7.1c.2 0 .4.1.6.1V6l-1.2-.3c-.4-.1-.9-.1-1.3-.1-.9 0-1.7.1-2.4.3s-1.3.5-1.8.9-.9.9-1.3 1.4c-.3.5-.6 1.2-.8 1.8s-.4 1.4-.5 2.1c-.1.8-.2 1.5-.2 2.4h.2c.2-.4.4-.7.7-1 .3-.3.6-.6 1-.8s.8-.4 1.3-.5c.5-.1 1-.2 1.6-.2 1 0 1.8.2 2.6.5s1.4.7 2 1.3 1 1.3 1.3 2.1c.3.8.4 1.8.4 2.9 0 1.2-.2 2.2-.5 3.1-.3.9-.8 1.7-1.3 2.4-.6.6-1.3 1.1-2.1 1.5-.8.3-1.8.5-2.8.5-1 0-2-.2-2.8-.6s-1.6-1-2.3-1.8c-.6-.8-1.2-1.8-1.5-3.1-.5-1.2-.7-2.7-.7-4.3zm7.2 7.5c.6 0 1.2-.1 1.7-.3.5-.2.9-.5 1.3-.9s.6-1 .8-1.6c.2-.6.3-1.4.3-2.3 0-.7-.1-1.4-.3-1.9-.2-.6-.4-1-.7-1.4s-.8-.7-1.2-.9c-.5-.2-1.1-.3-1.7-.3-.7 0-1.3.1-1.9.4-.6.2-1 .5-1.4.9-.4.4-.7.8-.9 1.3s-.3 1-.3 1.5c0 .7.1 1.4.3 2 .2.7.5 1.3.8 1.8s.8 1 1.4 1.3 1 .4 1.8.4zm24.6-3h-3.2v5h-2.7v-5h-10.2v-2.4l10-15h2.8v14.9h3.2V21zm-5.9-2.5v-7.3c0-.6 0-1.2.1-1.8s0-1.2.1-1.7c0-.5 0-1 .1-1.3h-.2c-.1.2-.2.4-.3.7-.1.2-.2.5-.3.7-.1.2-.3.5-.4.7-.1.2-.3.4-.4.6l-6.2 9.3h7.5z"/></g><g class="st0"><path class="st1" d="M144 8.9c0 .7-.1 1.4-.3 2-.2.6-.6 1.1-1 1.6-.4.4-.9.8-1.5 1.1-.6.3-1.2.5-2 .6v.1c1.8.2 3.1.8 4.1 1.7.9.9 1.4 2.1 1.4 3.6 0 1-.2 1.9-.5 2.7-.3.8-.8 1.5-1.5 2.1s-1.5 1-2.5 1.4c-1 .3-2.2.5-3.6.5-1.1 0-2.1-.1-3.1-.3s-1.9-.5-2.7-.9v-2.6c.9.5 1.8.8 2.9 1.1 1 .3 2 .4 2.9.4.9 0 1.7-.1 2.4-.3s1.2-.5 1.7-.9c.4-.4.8-.8 1-1.4.2-.5.3-1.2.3-1.8 0-.7-.1-1.3-.4-1.8-.3-.5-.6-.9-1.1-1.2s-1.1-.6-1.8-.7c-.7-.2-1.5-.2-2.4-.2h-2v-2.3h2c.8 0 1.5-.1 2.2-.3s1.2-.5 1.6-.9.8-.8 1-1.3c.2-.5.3-1.1.3-1.7 0-.5-.1-1-.3-1.4-.2-.4-.4-.8-.8-1.1s-.7-.5-1.2-.7c-.5-.2-1-.2-1.5-.2-1.1 0-2 .2-2.9.5-.8.3-1.6.8-2.4 1.3l-1.4-1.9c.4-.3.8-.6 1.3-.9.5-.3 1-.5 1.5-.7.6-.2 1.1-.4 1.8-.5.6-.1 1.3-.2 2-.2 1.1 0 2 .1 2.9.4s1.5.7 2.1 1.2c.6.5 1 1.1 1.3 1.8 0 .6.2 1.3.2 2.1z"/></g></svg>