<svg xmlns="http://www.w3.org/2000/svg" id="Слой_1" viewBox="0 0 288.6 80.5"><style>.st0{fill:#444}.st1{fill:#49b170}</style><title>zaimco logo</title><path class="st0" d="M101.3 57.3c-.7 0-1.1-.4-1-1.2l.7-4c.1-.5.3-.9.6-1.2l15.6-17.7h-10.9c-.7 0-1-.4-.9-1.1l1.1-5.9c.1-.6.5-.9 1.1-.9h22.5c.7 0 1 .4.9 1.1l-.6 3.8c-.1.5-.3.9-.6 1.2l-15.6 17.9h12.1c.7 0 1 .4.9 1.2l-1.1 5.9c-.1.6-.5 1-1.1 1h-23.7zm42.2.8c-8.6 0-13-4.9-11.8-11.6 1-6 6.1-8.6 14-8.6 1.8 0 3.7.2 5.2.5l.1-1c.6-3-.3-4.7-4.2-4.7-2.7 0-5.5.6-7.3 1.4-.7.3-1.2.2-1.4-.5l-1.9-5.1c-.2-.6-.2-1 .2-1.2 3-1.8 7.6-2.9 12.6-2.9 8.4 0 12.7 5.5 11 14.8l-2.8 15.6c-.1.6-.4 1-.9 1.2-3.5 1.2-8 2.1-12.8 2.1zm1.2-7.7c1.4 0 3.1-.2 4.2-.5l.9-5.4c-1.2-.2-2.6-.4-3.9-.4-3 0-4.6 1-4.9 2.8-.5 2.4 1 3.5 3.7 3.5zm19.9 6.9c-.7 0-1-.5-.9-1.2l5.3-29.9c.1-.6.5-.9 1.1-.9h7.1c.7 0 1.1.4 1 1.1l-5.3 29.9c-.1.6-.5 1-1.2 1h-7.1zm10.3-36.5c-3.1 0-5.1-2.5-4.5-5.7.5-2.7 2.6-4.5 5.4-4.5 3.1 0 5.1 2.5 4.5 5.8-.5 2.5-2.7 4.4-5.4 4.4zm40 3.6c8.5 0 12.8 6.3 11.3 15l-3.1 16.9c-.1.6-.5 1-1.1 1h-7c-.7 0-1-.5-1-1.2l3.1-18c.7-3.9-.7-5.7-3.7-5.7-1.5 0-3 .5-4.1 1.1.3 1.7.3 3.8-.1 5.9l-3 16.9c-.1.6-.5 1-1.1 1h-7c-.7 0-1.1-.5-1-1.2l3.1-18c.7-3.9-.6-5.7-3.4-5.7-1.4 0-2.7.3-3.6.7L189 56.2c-.1.7-.5 1-1.1 1h-7.1c-.7 0-1-.4-.9-1.2l5.1-28.1c.1-.5.4-.9.9-1.1 3.6-1.5 8.1-2.5 11.9-2.5 3.1 0 5.7.9 7.6 2.5 3.3-1.5 6.4-2.4 9.5-2.4z"/><path class="st1" d="M243.2 58.1c-8.3 0-13.4-5.5-11.8-14.3l1.4-7.6c1.4-7.8 7.5-11.8 15.3-11.8 3.9 0 6.9 1.2 9.4 3 .5.4.6.9.2 1.5l-3.6 4.7c-.4.5-.9.6-1.5.2-1.4-.8-3-1.3-4.7-1.3-3.3 0-5.2 1.7-5.8 4.7l-1.3 7.3c-.7 3.8.9 5.7 3.9 5.7 1.7 0 3.8-.6 5.8-1.8.6-.4 1.2-.2 1.5.4l2.4 5.3c.3.6.2 1.1-.5 1.5-3.5 1.7-7 2.5-10.7 2.5zm27.7 0c-8.3 0-13.2-6.2-11.8-14l1.3-7.6c1.4-7.5 7.4-12.1 16-12.1 8.4 0 13.4 6.2 12.1 13.7l-1.4 7.8c-1.5 7.8-7.1 12.2-16.2 12.2zM272 50c3.2 0 5.2-1.7 5.7-4.6l1.4-7.9c.5-2.8-.8-5.1-3.8-5.1s-5.1 1.8-5.5 4.6l-1.4 7.9c-.6 3.2.7 5.1 3.6 5.1z"/><path class="st0" d="M81.4 25.4h11L64.5 57.3h-11z"/><path class="st1" d="M59 30.8h10.9l-23 26.5h-11z"/><path class="st0" d="M35.9 37.2h11L29.2 57.3H18.3z"/><path class="st1" d="M13.3 43.3h11l-12.5 14H.9z"/></svg>