<svg xmlns="http://www.w3.org/2000/svg" id="Слой_1" viewBox="0 0 830 280"><style>.st0{fill:#5d607d}.st1{fill:none}.st2{fill:#676a93}.st3{fill:#fff}.st4{fill:#e0eff0}</style><path class="st0" d="M459.1 59.7v164.1h-37.7v-67.7h-51.2v67.7h-37.7V59.7h37.7v64h51.2v-64h37.7zm75.7-9.4v35.8H499V50.3h35.8zm0 52v121.4H499V102.3h35.8zm78.5 27.9v51.3c0 6.4 1 10.7 2.9 12.9s6.4 3.2 13.5 3.2c3.3 0 7.1-.2 11.4-.5v26.6c-10.4 1.8-17.9 2.6-22.5 2.6-14.9 0-25.5-2.9-31.7-8.6-6.3-5.7-9.4-16.1-9.4-31.1v-56.5h-19.2v-27.9h21.3l2.9-35.8 30.9-2.4v38.2h26.1v27.9l-26.2.1zm145.7 1.5l-26.1 7c-3-11-10.9-16.5-23.7-16.5-12 0-18 3.7-18 11 0 2.9 1.1 5.2 3.3 6.9 2.2 1.7 8 3.2 17.3 4.4 13.9 1.8 24.1 3.9 30.8 6.3 6.7 2.4 11.9 6.5 15.8 12.1 3.9 5.7 5.8 12.7 5.8 21 0 12.5-4.7 22.7-14.2 30.5-9.5 7.9-22.8 11.8-39.9 11.8-30.9 0-49.4-12-55.4-35.9l30.2-4.4c2.5 10.9 11.5 16.3 26.9 16.3 5.9 0 10.9-1.1 15-3.2s6.1-5 6.1-8.6c0-5.6-4.5-9-13.6-10-24.5-3-40.7-7.7-48.4-14.1s-11.6-15.2-11.6-26.6c0-11.5 4.5-21.1 13.5-28.6s21.6-11.3 37.7-11.3c12.8 0 23.1 2.5 30.8 7.6s13.6 13.1 17.7 24.3zm70-80.4v35.8h-35.8V51.3H829zm0 51v121.4h-35.8V102.3H829z"/><path class="st1" d="M421.4 123.6V89.1l-51.2-16.9v51.4z"/><path class="st2" d="M370.2 59.7h-37.8l37.8 12.5zm51.2 0v29.4l37.7 12.5V59.7zm77.6-9.4h35.8v35.8H499zm0 52v12.5l35.8 11.8v-24.3zm140.4 27.9v-27.9h-26.1V64.1l-30.9 2.4-2.9 35.8h-21.3v27.9h19.3v10.5l35.8 11.8v-22.3zm118.9 32.7c-3.9-5.7-9.2-9.7-15.8-12.1-6.7-2.4-16.9-4.5-30.8-6.3-9.3-1.2-15-2.7-17.3-4.4-2.2-1.7-3.3-4-3.3-6.9 0-7.3 6-11 18-11 12.7 0 20.6 5.5 23.7 16.5l26.1-7c-4.1-11.1-10-19.2-17.7-24.3-7.7-5-18-7.6-30.8-7.6-16.2 0-28.8 3.8-37.7 11.3-9 7.5-13.5 17.1-13.5 28.6 0 11.4 3.9 20.3 11.6 26.6 7.7 6.4 23.9 11.1 48.4 14.1 9.1 1 13.6 4.4 13.6 10 0 .5-.1 1-.1 1.5l27.8 9.2c2.4-5.1 3.6-10.9 3.6-17.2 0-8.3-1.9-15.3-5.8-21zm70.7-60.6h-35.8v109.6l35.7 11.9h.1zm-35.8-51H829v35.8h-35.8zm-513.7 75c0-4-2.7-7.6-6.7-8.5l-25.6-6.3 18.9-18.4c3.1-2.7 3.6-7.2 1.3-10.8l-13.5-23.4c-2.2-3.6-6.3-5.4-10.3-4L218 62.1l7.6-26.1c.9-4-.4-8.1-4-10.3l-23.4-13.5c-3.6-2.2-8.1-1.3-10.8 1.3L169 32.4l-6.3-25.6c-1.3-3.6-4.9-6.3-9-6.3h-27c-4 0-7.6 2.7-8.5 6.7l-6.3 25.6L93.1 14c-2.7-3.1-7.2-3.6-10.8-1.3L58.9 26.2c-3.6 1.8-5.4 5.8-4 9.9l7.2 25.6-25.6-7.2c-4-.9-8.1.4-10.3 4L12.7 81.9c-2.2 3.6-1.3 8.1 1.3 10.8l18.9 18.4-25.6 6.3c-3.6 1.3-6.3 4.9-6.3 9v27c0 4 2.7 7.6 6.7 8.5l25.6 6.3-18.9 18.9c-3.1 2.7-3.6 7.2-1.3 10.8l13.5 23.4c1.8 3.6 5.8 5.4 9.9 4l25.6-7.2-7.2 25.6c-.9 4 .4 8.1 4 10.3l23.4 13.5c3.6 2.2 8.1 1.3 10.8-1.3l18.4-18.9 6.3 25.6c.9 4 4.5 6.7 8.5 6.7h27c4 0 7.6-2.7 8.5-6.7l6.3-25.6 18.4 18.9c2.7 3.1 7.2 3.6 10.8 1.3l23.4-13.5c3.6-2.2 5.4-6.3 4-10.3l-7.2-25.6 25.6 7.2c4 .9 8.1-.4 10.3-4l13.5-23.4c2.2-3.6 1.3-8.1-1.3-10.8l-18.9-18.4 25.6-6.3c4-.9 6.7-4.5 6.7-8.5l.5-27.6z"/><path class="st0" d="M163.3 108.3c0-14.5-6.8-24.4-23-24.4-4.4 0-8.6.4-11.2 1.1v44l6.1 6.1h1.8c19 0 26.3-9 26.3-26.8z"/><path class="st0" d="M272.8 117.8l-25.6-6.3 18.9-18.4c3.1-2.7 3.6-7.2 1.3-10.8l-13.5-23.4c-2.2-3.6-6.3-5.4-10.3-4L218 62.1l7.6-26.1c.9-4-.4-8.1-4-10.3l-23.4-13.5c-3.6-2.2-8.1-1.3-10.8 1.3L169 32.4l-6.3-25.6c-1.3-3.6-4.9-6.3-9-6.3h-27c-4 0-7.6 2.7-8.5 6.7l-6.3 25.6L93.1 14c-2.7-3.1-7.2-3.6-10.8-1.3L58.9 26.2c-3.6 1.8-5.4 5.8-4 9.9l7.2 25.6-.6-.2 41.9 41.9V66.9S121.6 64 144 64c34 0 47 20.4 47 41.9 0 18.8-7.6 41.6-37.7 47.4l64.8 64.8 25 7c4 .9 8.1-.4 10.3-4l13.5-23.4c2.2-3.6 1.3-8.1-1.3-10.8l-18.9-18.4 25.6-6.3c4-.9 6.7-4.5 6.7-8.5l.4-27.4c.1-4-2.6-7.6-6.6-8.5z"/><path class="st0" d="M224.7 244l-7.2-26 25.6 7.6c4 .9 8.1-.9 10.3-4.5l3.1-5.4-128-80.2-25.2 79.5 62.9 39.3 1.8-7.2 18.4 18.9c2.7 3.1 7.2 3.6 10.8 1.3l23.4-13.5c3.6-1.8 5.4-5.8 4.1-9.8z"/><path class="st1" d="M135.2 135.1L129 129v6.1z"/><path class="st2" d="M136.9 135.1c19.1 0 26.3-9 26.3-26.8 0-14.5-6.8-24.4-23-24.4-4.4 0-8.6.4-11.2 1.1v44l6.1 6.1h1.8z"/><path class="st0" d="M144.1 158.1h-8.8v18h34.5v19.5h-34.5v22.8h-25.7v-22.8h-11v-19.5h11v-18h-11v-19.5h11V70.3s18.2-2.9 40.6-2.9c34 0 47 20.4 47 41.9 0 21.9-10.1 48.8-53.1 48.8zm2.4-70.6c-4.4 0-8.6.4-11.2 1.1v50h7.9c19.1 0 26.3-9 26.3-26.8.1-14.5-6.7-24.3-23-24.3z"/><path class="st3" d="M137.8 154.6H129v18h34.5v19.5H129V215h-25.7v-22.8h-11v-19.5h11v-18h-11v-19.5h11V66.9s18.2-2.9 40.6-2.9c34 0 47 20.4 47 41.9 0 21.7-10.1 48.7-53.1 48.7zm2.4-70.6c-4.4 0-8.6.4-11.2 1.1v50h7.9c19.1 0 26.3-9 26.3-26.8.1-14.5-6.7-24.3-23-24.3z"/><path class="st4" d="M190.9 105.9c0-21.5-13-41.9-47-41.9-22.4 0-40.6 2.9-40.6 2.9v36.5L129 129V85.1c2.6-.7 6.8-1.1 11.2-1.1 16.2 0 23 9.9 23 24.4 0 17.8-7.2 26.8-26.3 26.8h-1.8l18.2 18.2c30-5.9 37.6-28.7 37.6-47.5z"/></svg>