<svg xmlns="http://www.w3.org/2000/svg" width="27" height="31" viewBox="0 0 27 31"><g fill="#2e3191" fill-rule="evenodd"><path d="M11.416 14.362a3.833 3.833 0 0 1 3.58-2.477c1.14 0 2.16.5 2.862 1.29l2.085-1.71a6.519 6.519 0 0 0-4.947-2.276 6.54 6.54 0 0 0-6.39 5.173h2.81zm3.58 5.159a3.834 3.834 0 0 1-3.58-2.477h-2.81a6.539 6.539 0 0 0 6.39 5.173 6.519 6.519 0 0 0 4.946-2.275l-2.085-1.712a3.82 3.82 0 0 1-2.862 1.291"/><path d="M13.646 23.697c-3.834-.644-6.764-3.979-6.764-7.987s2.93-7.344 6.764-7.988V5c-5.328.666-9.464 5.213-9.464 10.71 0 5.497 4.136 10.044 9.464 10.71v-2.723zM16.346 5v2.722c3.834.644 6.765 3.98 6.765 7.988 0 4.008-2.93 7.344-6.765 7.987v2.723c5.329-.666 9.465-5.213 9.465-10.71 0-5.497-4.136-10.045-9.465-10.71"/><path d="M2.711 14.362C3.386 8.19 8.637 3.369 14.996 3.369a12.34 12.34 0 0 1 9.45 4.399l2.085-1.711C23.767 2.769 19.623.674 14.996.674 7.148.674.686 6.7 0 14.362h2.71zM14.996 28.05c-6.358 0-11.61-4.82-12.285-10.993H0c.686 7.662 7.148 13.689 14.996 13.689 4.627 0 8.77-2.095 11.535-5.383l-2.085-1.711a12.343 12.343 0 0 1-9.45 4.398"/></g></svg>